  0
SECTION
  2
HEADER
  9
$ACADVER
  1
AC1015
  9
$ACADMAINTVER
 70
     6
  9
$DWGCODEPAGE
  3
ANSI_1254
  9
$INSBASE
 10
0.0
 20
0.0
 30
0.0
  9
$EXTMIN
 10
0.0
 20
0.0
 30
0.0
  9
$EXTMAX
 10
420.0
 20
297.0
 30
0.0
  9
$LIMMIN
 10
0.0
 20
0.0
  9
$LIMMAX
 10
420.0
 20
297.0
  9
$ORTHOMODE
 70
     0
  9
$REGENMODE
 70
     1
  9
$FILLMODE
 70
     1
  9
$QTEXTMODE
 70
     0
  9
$MIRRTEXT
 70
     1
  9
$LTSCALE
 40
1.0
  9
$ATTMODE
 70
     1
  9
$TEXTSIZE
 40
3.5
  9
$TRACEWID
 40
1.0
  9
$TEXTSTYLE
  7
Standard
  9
$CLAYER
  8
0
  9
$CELTYPE
  6
ByLayer
  9
$CECOLOR
 62
   256
  9
$CELTSCALE
 40
1.0
  9
$DISPSILH
 70
     0
  9
$DIMSCALE
 40
1.0
  9
$DIMASZ
 40
3.556
  9
$DIMEXO
 40
1.0
  9
$DIMDLI
 40
3.75
  9
$DIMRND
 40
0.0
  9
$DIMDLE
 40
0.0
  9
$DIMEXE
 40
1.0
  9
$DIMTP
 40
0.0
  9
$DIMTM
 40
0.0
  9
$DIMTXT
 40
3.5
  9
$DIMCEN
 40
2.5
  9
$DIMTSZ
 40
0.0
  9
$DIMTOL
 70
     0
  9
$DIMLIM
 70
     0
  9
$DIMTIH
 70
     1
  9
$DIMTOH
 70
     1
  9
$DIMSE1
 70
     0
  9
$DIMSE2
 70
     0
  9
$DIMTAD
 70
     1
  9
$DIMZIN
 70
     0
  9
$DIMBLK
  1

  9
$DIMASO
 70
     1
  9
$DIMSHO
 70
     1
  9
$DIMPOST
  1

  9
$DIMAPOST
  1

  9
$DIMALT
 70
     0
  9
$DIMALTD
 70
     3
  9
$DIMALTF
 40
0.0393700787
  9
$DIMLFAC
 40
1.0
  9
$DIMTOFL
 70
     1
  9
$DIMTVP
 40
0.0
  9
$DIMTIX
 70
     0
  9
$DIMSOXD
 70
     0
  9
$DIMSAH
 70
     0
  9
$DIMBLK1
  1

  9
$DIMBLK2
  1

  9
$DIMSTYLE
  2
ISO-25
  9
$DIMCLRD
 70
     0
  9
$DIMCLRE
 70
     0
  9
$DIMCLRT
 70
     0
  9
$DIMTFAC
 40
1.0
  9
$DIMGAP
 40
1.524
  9
$DIMJUST
 70
     0
  9
$DIMSD1
 70
     0
  9
$DIMSD2
 70
     0
  9
$DIMTOLJ
 70
     0
  9
$DIMTZIN
 70
     0
  9
$DIMALTZ
 70
     0
  9
$DIMALTTZ
 70
     0
  9
$DIMUPT
 70
     0
  9
$DIMDEC
 70
     2
  9
$DIMTDEC
 70
     2
  9
$DIMALTU
 70
     2
  9
$DIMALTTD
 70
     3
  9
$DIMTXSTY
  7
Standard
  9
$DIMAUNIT
 70
     0
  9
$DIMADEC
 70
     2
  9
$DIMALTRND
 40
0.0
  9
$DIMAZIN
 70
     0
  9
$DIMDSEP
 70
    44
  9
$DIMATFIT
 70
     3
  9
$DIMFRAC
 70
     0
  9
$DIMLDRBLK
  1

  9
$DIMLUNIT
 70
     2
  9
$DIMLWD
 70
    -2
  9
$DIMLWE
 70
    -2
  9
$DIMTMOVE
 70
     0
  9
$LUNITS
 70
     2
  9
$LUPREC
 70
     2
  9
$SKETCHINC
 40
1.0
  9
$FILLETRAD
 40
10.0
  9
$AUNITS
 70
     0
  9
$AUPREC
 70
     2
  9
$MENU
  1
.
  9
$ELEVATION
 40
0.0
  9
$PELEVATION
 40
0.0
  9
$THICKNESS
 40
0.0
  9
$LIMCHECK
 70
     0
  9
$CHAMFERA
 40
0.0
  9
$CHAMFERB
 40
0.0
  9
$CHAMFERC
 40
0.0
  9
$CHAMFERD
 40
0.0
  9
$SKPOLY
 70
     0
  9
$TDCREATE
 40
2459199.441567732
  9
$TDUCREATE
 40
2459199.316567732
  9
$TDUPDATE
 40
2459199.441570752
  9
$TDUUPDATE
 40
2459199.316570752
  9
$TDINDWG
 40
0.0000000116
  9
$TDUSRTIMER
 40
0.0000000116
  9
$USRTIMER
 70
     1
  9
$ANGBASE
 50
0.0
  9
$ANGDIR
 70
     0
  9
$PDMODE
 70
     0
  9
$PDSIZE
 40
-1.0
  9
$PLINEWID
 40
0.0
  9
$SPLFRAME
 70
     0
  9
$SPLINETYPE
 70
     6
  9
$SPLINESEGS
 70
     8
  9
$HANDSEED
  5
2F9
  9
$SURFTAB1
 70
     6
  9
$SURFTAB2
 70
     6
  9
$SURFTYPE
 70
     6
  9
$SURFU
 70
     6
  9
$SURFV
 70
     6
  9
$UCSBASE
  2

  9
$UCSNAME
  2

  9
$UCSORG
 10
0.0
 20
0.0
 30
0.0
  9
$UCSXDIR
 10
1.0
 20
0.0
 30
0.0
  9
$UCSYDIR
 10
0.0
 20
1.0
 30
0.0
  9
$UCSORTHOREF
  2

  9
$UCSORTHOVIEW
 70
     0
  9
$UCSORGTOP
 10
0.0
 20
0.0
 30
0.0
  9
$UCSORGBOTTOM
 10
0.0
 20
0.0
 30
0.0
  9
$UCSORGLEFT
 10
0.0
 20
0.0
 30
0.0
  9
$UCSORGRIGHT
 10
0.0
 20
0.0
 30
0.0
  9
$UCSORGFRONT
 10
0.0
 20
0.0
 30
0.0
  9
$UCSORGBACK
 10
0.0
 20
0.0
 30
0.0
  9
$PUCSBASE
  2

  9
$PUCSNAME
  2

  9
$PUCSORG
 10
0.0
 20
0.0
 30
0.0
  9
$PUCSXDIR
 10
1.0
 20
0.0
 30
0.0
  9
$PUCSYDIR
 10
0.0
 20
1.0
 30
0.0
  9
$PUCSORTHOREF
  2

  9
$PUCSORTHOVIEW
 70
     0
  9
$PUCSORGTOP
 10
0.0
 20
0.0
 30
0.0
  9
$PUCSORGBOTTOM
 10
0.0
 20
0.0
 30
0.0
  9
$PUCSORGLEFT
 10
0.0
 20
0.0
 30
0.0
  9
$PUCSORGRIGHT
 10
0.0
 20
0.0
 30
0.0
  9
$PUCSORGFRONT
 10
0.0
 20
0.0
 30
0.0
  9
$PUCSORGBACK
 10
0.0
 20
0.0
 30
0.0
  9
$USERI1
 70
     0
  9
$USERI2
 70
     0
  9
$USERI3
 70
     0
  9
$USERI4
 70
     0
  9
$USERI5
 70
     0
  9
$USERR1
 40
0.0
  9
$USERR2
 40
0.0
  9
$USERR3
 40
0.0
  9
$USERR4
 40
0.0
  9
$USERR5
 40
0.0
  9
$WORLDVIEW
 70
     1
  9
$SHADEDGE
 70
     3
  9
$SHADEDIF
 70
    70
  9
$TILEMODE
 70
     1
  9
$MAXACTVP
 70
    64
  9
$PINSBASE
 10
0.0
 20
0.0
 30
0.0
  9
$PLIMCHECK
 70
     0
  9
$PEXTMIN
 10
1.0000000000E+20
 20
1.0000000000E+20
 30
1.0000000000E+20
  9
$PEXTMAX
 10
-1.0000000000E+20
 20
-1.0000000000E+20
 30
-1.0000000000E+20
  9
$PLIMMIN
 10
0.0
 20
0.0
  9
$PLIMMAX
 10
420.0
 20
297.0
  9
$UNITMODE
 70
     0
  9
$VISRETAIN
 70
     1
  9
$PLINEGEN
 70
     0
  9
$PSLTSCALE
 70
     1
  9
$TREEDEPTH
 70
  3020
  9
$CMLSTYLE
  2
Standard
  9
$CMLJUST
 70
     0
  9
$CMLSCALE
 40
20.0
  9
$PROXYGRAPHICS
 70
     1
  9
$MEASUREMENT
 70
     1
  9
$CELWEIGHT
370
    -1
  9
$ENDCAPS
280
     0
  9
$JOINSTYLE
280
     0
  9
$LWDISPLAY
290
     1
  9
$INSUNITS
 70
     4
  9
$HYPERLINKBASE
  1

  9
$STYLESHEET
  1

  9
$XEDIT
290
     1
  9
$CEPSNTYPE
380
     0
  9
$PSTYLEMODE
290
     1
  9
$FINGERPRINTGUID
  2
{84222cb4-6e50-4d37-9394-4117a2bfbee8}
  9
$VERSIONGUID
  2
{FAEB1C32-E019-11D5-929B-00C0DF256EC4}
  9
$EXTNAMES
290
     1
  9
$PSVPSCALE
 40
0.0
  9
$OLESTARTUP
290
     0
  0
ENDSEC
  0
SECTION
  2
CLASSES
  0
CLASS
  1
ACDBDICTIONARYWDFLT
  2
AcDbDictionaryWithDefault
  3
ObjectDBX Classes
 90
        0
280
     0
281
     0
  0
CLASS
  1
VISUALSTYLE
  2
AcDbVisualStyle
  3
ObjectDBX Classes
 90
     4095
280
     0
281
     0
  0
CLASS
  1
MATERIAL
  2
AcDbMaterial
  3
ObjectDBX Classes
 90
     1153
280
     0
281
     0
  0
CLASS
  1
SCALE
  2
AcDbScale
  3
ObjectDBX Classes
 90
     1153
280
     0
281
     0
  0
CLASS
  1
TABLESTYLE
  2
AcDbTableStyle
  3
ObjectDBX Classes
 90
     4095
280
     0
281
     0
  0
CLASS
  1
MLEADERSTYLE
  2
AcDbMLeaderStyle
  3
ACDB_MLEADERSTYLE_CLASS
 90
     4095
280
     0
281
     0
  0
CLASS
  1
SUN
  2
AcDbSun
  3
SCENEOE
 90
     1153
280
     0
281
     0
  0
CLASS
  1
ACDBPLACEHOLDER
  2
AcDbPlaceHolder
  3
ObjectDBX Classes
 90
        0
280
     0
281
     0
  0
CLASS
  1
LAYOUT
  2
AcDbLayout
  3
ObjectDBX Classes
 90
        0
280
     0
281
     0
  0
ENDSEC
  0
SECTION
  2
TABLES
  0
TABLE
  2
VPORT
  5
8
330
0
100
AcDbSymbolTable
 70
     1
  0
VPORT
  5
29
330
8
100
AcDbSymbolTableRecord
100
AcDbViewportTableRecord
  2
*Active
 70
     0
 10
0.0
 20
0.0
 11
1.0
 21
1.0
 12
210.0
 22
148.5
 13
0.0
 23
0.0
 14
10.0
 24
10.0
 15
10.0
 25
10.0
 16
0.0
 26
0.0
 36
1.0
 17
0.0
 27
0.0
 37
0.0
 40
297.0
 41
1.4141414141
 42
50.0
 43
0.0
 44
0.0
 50
0.0
 51
0.0
 71
     0
 72
  2000
 73
     1
 74
     3
 75
     0
 76
     0
 77
     0
 78
     0
281
     0
 65
     1
110
0.0
120
0.0
130
0.0
111
1.0
121
0.0
131
0.0
112
0.0
122
1.0
132
0.0
 79
     0
146
0.0
  0
ENDTAB
  0
TABLE
  2
LTYPE
  5
5
330
0
100
AcDbSymbolTable
 70
     6
  0
LTYPE
  5
14
330
5
100
AcDbSymbolTableRecord
100
AcDbLinetypeTableRecord
  2
ByBlock
 70
     0
  3

 72
    65
 73
     0
 40
0.0
  0
LTYPE
  5
15
330
5
100
AcDbSymbolTableRecord
100
AcDbLinetypeTableRecord
  2
ByLayer
 70
     0
  3

 72
    65
 73
     0
 40
0.0
  0
LTYPE
  5
16
330
5
100
AcDbSymbolTableRecord
100
AcDbLinetypeTableRecord
  2
Continuous
 70
     0
  3
Solid line
 72
    65
 73
     0
 40
0.0
  0
LTYPE
  5
6E
330
5
100
AcDbSymbolTableRecord
100
AcDbLinetypeTableRecord
  2
HIDDEN
 70
     0
  3
Hidden __ __ __ __ __ __ __ __ __ __ __ __ __ __
 72
    65
 73
     2
 40
1.905
 49
1.27
 74
     0
 49
-0.635
 74
     0
  0
LTYPE
  5
6F
330
5
100
AcDbSymbolTableRecord
100
AcDbLinetypeTableRecord
  2
PHANTOM
 70
     0
  3
Phantom ______  __  __  ______  __  __  ______
 72
    65
 73
     6
 40
12.7
 49
6.35
 74
     0
 49
-1.27
 74
     0
 49
1.27
 74
     0
 49
-1.27
 74
     0
 49
1.27
 74
     0
 49
-1.27
 74
     0
  0
LTYPE
  5
70
330
5
100
AcDbSymbolTableRecord
100
AcDbLinetypeTableRecord
  2
CENTER
 70
     0
  3
Center ____ _ ____ _ ____ _ ____ _ ____ _ ____
 72
    65
 73
     4
 40
10.16
 49
6.35
 74
     0
 49
-1.27
 74
     0
 49
1.27
 74
     0
 49
-1.27
 74
     0
  0
LTYPE
  5
71
330
5
100
AcDbSymbolTableRecord
100
AcDbLinetypeTableRecord
  2
CENTERX2
 70
     0
  3
Center (2x) ________  __  ________  __  _____
 72
    65
 73
     4
 40
20.32
 49
12.7
 74
     0
 49
-2.54
 74
     0
 49
2.54
 74
     0
 49
-2.54
 74
     0
  0
LTYPE
  5
72
330
5
100
AcDbSymbolTableRecord
100
AcDbLinetypeTableRecord
  2
DOT2
 70
     0
  3
Dot (.5x) ........................................
 72
    65
 73
     2
 40
0.635
 49
0.0
 74
     0
 49
-0.635
 74
     0
  0
ENDTAB
  0
TABLE
  2
LAYER
  5
2
330
0
100
AcDbSymbolTable
 70
     6
  0
LAYER
  5
10
330
2
100
AcDbSymbolTableRecord
100
AcDbLayerTableRecord
  2
0
 70
     0
 62
     7
  6
Continuous
370
    -3
390
F
  0
LAYER
  5
73
330
2
100
AcDbSymbolTableRecord
100
AcDbLayerTableRecord
  2
FORMAT
 70
     0
 62
     7
  6
Continuous
370
    -3
390
F
  0
LAYER
  5
74
330
2
100
AcDbSymbolTableRecord
100
AcDbLayerTableRecord
  2
LAYER_1
 70
     0
 62
   179
  6
Continuous
370
    25
390
F
  0
LAYER
  5
75
330
2
100
AcDbSymbolTableRecord
100
AcDbLayerTableRecord
  2
LAYER_2
 70
     0
 62
     1
  6
Continuous
370
    -3
390
F
  0
LAYER
  5
76
330
2
100
AcDbSymbolTableRecord
100
AcDbLayerTableRecord
  2
LAYER1
 70
     0
 62
     7
  6
Continuous
370
    25
390
F
  0
LAYER
  5
77
330
2
100
AcDbSymbolTableRecord
100
AcDbLayerTableRecord
  2
LAYER2
 70
     0
 62
     1
  6
Continuous
370
    -3
390
F
  0
ENDTAB
  0
TABLE
  2
STYLE
  5
3
330
0
100
AcDbSymbolTable
 70
     5
  0
STYLE
  5
11
330
3
100
AcDbSymbolTableRecord
100
AcDbTextStyleTableRecord
  2
Standard
 70
     0
 40
0.0
 41
1.0
 50
0.0
 71
     0
 42
3.5
  3
txt
  4

  0
STYLE
  5
7E
330
3
100
AcDbSymbolTableRecord
100
AcDbTextStyleTableRecord
  2
SLDTEXTSTYLE0
 70
     0
 40
0.0
 41
0.7
 50
0.0
 71
     0
 42
3.5
  3
TXT
  4

  0
STYLE
  5
143
330
3
100
AcDbSymbolTableRecord
100
AcDbTextStyleTableRecord
  2
SLDTEXTSTYLE1
 70
     0
 40
0.0
 41
0.605
 50
0.0
 71
     0
 42
3.5
  3
TXT
  4

  0
STYLE
  5
17D
330
3
100
AcDbSymbolTableRecord
100
AcDbTextStyleTableRecord
  2
SLDTEXTSTYLE2
 70
     0
 40
0.0
 41
0.605
 50
0.0
 71
     0
 42
3.5
  3
TXT
  4
bigfont
  0
STYLE
  5
254
330
3
100
AcDbSymbolTableRecord
100
AcDbTextStyleTableRecord
  2
SLDTEXTSTYLE3
 70
     0
 40
0.0
 41
0.75
 50
0.0
 71
     0
 42
3.5
  3
TXT
  4

  0
ENDTAB
  0
TABLE
  2
VIEW
  5
6
330
0
100
AcDbSymbolTable
 70
     0
  0
ENDTAB
  0
TABLE
  2
UCS
  5
7
330
0
100
AcDbSymbolTable
 70
     0
  0
ENDTAB
  0
TABLE
  2
APPID
  5
9
330
0
100
AcDbSymbolTable
 70
     1
  0
APPID
  5
12
330
9
100
AcDbSymbolTableRecord
100
AcDbRegAppTableRecord
  2
ACAD
 70
     0
  0
ENDTAB
  0
TABLE
  2
DIMSTYLE
  5
A
330
0
100
AcDbSymbolTable
 70
     5
100
AcDbDimStyleTable
  0
DIMSTYLE
105
27
330
A
100
AcDbSymbolTableRecord
100
AcDbDimStyleTableRecord
  2
ISO-25
 70
     0
 41
2.5
 42
0.625
 43
3.75
 44
1.25
 73
     0
 74
     0
 77
     1
 78
     8
140
2.5
141
2.5
143
0.0393700787
147
0.625
171
     3
172
     1
178
     0
271
     2
272
     2
274
     3
278
    44
283
     0
284
     8
340
11
  0
DIMSTYLE
105
255
102
{ACAD_REACTORS
330
253
330
25F
330
2EA
102
}
330
A
100
AcDbSymbolTableRecord
100
AcDbDimStyleTableRecord
  2
SLDDIMSTYLE0
 70
     0
 41
3.556
 44
0.0
 45
0.000000001
 73
     0
 74
     0
 77
     1
 78
    12
 79
     3
140
3.5
147
0.875
173
     1
178
     0
271
     2
272
     2
276
     2
284
    12
340
254
  0
DIMSTYLE
105
26A
102
{ACAD_REACTORS
330
269
330
274
102
}
330
A
100
AcDbSymbolTableRecord
100
AcDbDimStyleTableRecord
  2
SLDDIMSTYLE1
 70
     0
 41
3.556
 44
0.0
 45
0.000000001
 73
     0
 74
     0
 77
     1
 78
    12
 79
     3
140
3.5
147
0.875
173
     1
178
     0
271
     1
272
     1
276
     2
284
    12
340
254
  0
DIMSTYLE
105
27F
102
{ACAD_REACTORS
330
27E
102
}
330
A
100
AcDbSymbolTableRecord
100
AcDbDimStyleTableRecord
  2
SLDDIMSTYLE2
 70
     0
 41
3.556
 44
0.0
 45
0.000000001
 73
     0
 74
     0
 77
     1
 78
    12
 79
     3
140
3.5
141
0.0
147
0.875
172
     1
173
     1
178
     0
271
     2
272
     2
276
     2
284
    12
340
254
341
280
343
280
  0
DIMSTYLE
105
2D4
102
{ACAD_REACTORS
330
2D3
330
2E0
102
}
330
A
100
AcDbSymbolTableRecord
100
AcDbDimStyleTableRecord
  2
SLDDIMSTYLE3
 70
     0
 41
3.556
 44
0.0
 45
0.000000001
 73
     0
 74
     0
 77
     1
 78
    12
 79
     3
140
3.5
147
0.875
172
     1
173
     1
178
     0
271
     2
272
     2
276
     2
284
    12
289
     0
340
254
  0
ENDTAB
  0
TABLE
  2
BLOCK_RECORD
  5
1
330
0
100
AcDbSymbolTable
 70
    20
  0
BLOCK_RECORD
  5
1F
330
1
100
AcDbSymbolTableRecord
100
AcDbBlockTableRecord
  2
*Model_Space
340
22
  0
BLOCK_RECORD
  5
1B
330
1
100
AcDbSymbolTableRecord
100
AcDbBlockTableRecord
  2
*Paper_Space
340
1E
  0
BLOCK_RECORD
  5
23
330
1
100
AcDbSymbolTableRecord
100
AcDbBlockTableRecord
  2
*Paper_Space0
340
26
  0
BLOCK_RECORD
  5
78
330
1
100
AcDbSymbolTableRecord
100
AcDbBlockTableRecord
  2
Block4
340
0
102
{BLKREFS
331
140
102
}
  0
BLOCK_RECORD
  5
7B
330
1
100
AcDbSymbolTableRecord
100
AcDbBlockTableRecord
  2
SW_NOTE_0
340
0
102
{BLKREFS
331
80
102
}
  0
BLOCK_RECORD
  5
81
330
1
100
AcDbSymbolTableRecord
100
AcDbBlockTableRecord
  2
Block5
340
0
102
{BLKREFS
331
141
102
}
  0
BLOCK_RECORD
  5
8C
330
1
100
AcDbSymbolTableRecord
100
AcDbBlockTableRecord
  2
Block6
340
0
102
{BLKREFS
331
142
102
}
  0
BLOCK_RECORD
  5
158
330
1
100
AcDbSymbolTableRecord
100
AcDbBlockTableRecord
  2
SW_NOTE_0_1
340
0
102
{BLKREFS
331
15D
102
}
  0
BLOCK_RECORD
  5
171
330
1
100
AcDbSymbolTableRecord
100
AcDbBlockTableRecord
  2
SW_NOTE_0_2
340
0
102
{BLKREFS
331
17A
102
}
  0
BLOCK_RECORD
  5
181
330
1
100
AcDbSymbolTableRecord
100
AcDbBlockTableRecord
  2
SW_NOTE_0_3
340
0
102
{BLKREFS
331
18A
102
}
  0
BLOCK_RECORD
  5
18C
330
1
100
AcDbSymbolTableRecord
100
AcDbBlockTableRecord
  2
SW_NOTE_0_4
340
0
102
{BLKREFS
331
19A
102
}
  0
BLOCK_RECORD
  5
256
330
1
100
AcDbSymbolTableRecord
100
AcDbBlockTableRecord
  2
_D
340
0
  0
BLOCK_RECORD
  5
260
330
1
100
AcDbSymbolTableRecord
100
AcDbBlockTableRecord
  2
_D_1
340
0
  0
BLOCK_RECORD
  5
26B
330
1
100
AcDbSymbolTableRecord
100
AcDbBlockTableRecord
  2
_D_2
340
0
  0
BLOCK_RECORD
  5
275
330
1
100
AcDbSymbolTableRecord
100
AcDbBlockTableRecord
  2
_D_3
340
0
  0
BLOCK_RECORD
  5
280
330
1
100
AcDbSymbolTableRecord
100
AcDbBlockTableRecord
  2
_None
340
0
  0
BLOCK_RECORD
  5
283
330
1
100
AcDbSymbolTableRecord
100
AcDbBlockTableRecord
  2
_D_4
340
0
  0
BLOCK_RECORD
  5
28B
330
1
100
AcDbSymbolTableRecord
100
AcDbBlockTableRecord
  2
SW_CENTERMARKSYMBOL_0
340
0
102
{BLKREFS
331
296
102
}
  0
BLOCK_RECORD
  5
2D5
330
1
100
AcDbSymbolTableRecord
100
AcDbBlockTableRecord
  2
_D_5
340
0
  0
BLOCK_RECORD
  5
2E1
330
1
100
AcDbSymbolTableRecord
100
AcDbBlockTableRecord
  2
_D_6
340
0
  0
BLOCK_RECORD
  5
2EB
330
1
100
AcDbSymbolTableRecord
100
AcDbBlockTableRecord
  2
_D_7
340
0
  0
BLOCK_RECORD
  5
2F2
330
1
100
AcDbSymbolTableRecord
100
AcDbBlockTableRecord
  2
SW_NOTE_0_5
340
0
102
{BLKREFS
331
2F7
102
}
  0
ENDTAB
  0
ENDSEC
  0
SECTION
  2
BLOCKS
  0
BLOCK
  5
20
330
1F
100
AcDbEntity
  8
0
100
AcDbBlockBegin
  2
*Model_Space
 70
     0
 10
0.0
 20
0.0
 30
0.0
  3
*Model_Space
  1

  0
ENDBLK
  5
21
330
1F
100
AcDbEntity
  8
0
100
AcDbBlockEnd
  0
BLOCK
  5
1C
330
1B
100
AcDbEntity
 67
     1
  8
0
100
AcDbBlockBegin
  2
*Paper_Space
 70
     0
 10
0.0
 20
0.0
 30
0.0
  3
*Paper_Space
  1

  0
ENDBLK
  5
1D
330
1B
100
AcDbEntity
 67
     1
  8
0
100
AcDbBlockEnd
  0
BLOCK
  5
24
330
23
100
AcDbEntity
  8
0
100
AcDbBlockBegin
  2
*Paper_Space0
 70
     0
 10
0.0
 20
0.0
 30
0.0
  3
*Paper_Space0
  1

  0
ENDBLK
  5
25
330
23
100
AcDbEntity
  8
0
100
AcDbBlockEnd
  0
BLOCK
  5
79
330
78
100
AcDbEntity
  8
0
100
AcDbBlockBegin
  2
Block4
 70
     0
 10
0.0
 20
0.0
 30
0.0
  3
Block4
  1

  0
INSERT
  5
80
330
78
100
AcDbEntity
  8
0
  6
Continuous
 62
     7
370
    18
100
AcDbBlockReference
  2
SW_NOTE_0
 10
0.0681123653
 20
-0.3355248887
 30
0.0
  0
ENDBLK
  5
7A
330
78
100
AcDbEntity
  8
0
100
AcDbBlockEnd
  0
BLOCK
  5
7C
330
7B
100
AcDbEntity
  8
0
100
AcDbBlockBegin
  2
SW_NOTE_0
 70
     0
 10
0.0
 20
0.0
 30
0.0
  3
SW_NOTE_0
  1

  0
MTEXT
  5
7F
330
7B
100
AcDbEntity
  8
0
  6
Continuous
 62
     0
370
    18
100
AcDbMText
 10
0.0
 20
1.7053291974
 30
0.0
 40
1.3229166667
 41
0.0
 71
     1
 72
     1
  1
ENCLOSURES FOR ELECTRONICS
  7
SLDTEXTSTYLE0
 73
     1
 44
1.0
  0
ENDBLK
  5
7D
330
7B
100
AcDbEntity
  8
0
100
AcDbBlockEnd
  0
BLOCK
  5
82
330
81
100
AcDbEntity
  8
0
100
AcDbBlockBegin
  2
Block5
 70
     0
 10
0.0
 20
0.0
 30
0.0
  3
Block5
  1

  0
CIRCLE
  5
84
330
81
100
AcDbEntity
  8
LAYER_1
100
AcDbCircle
 10
11.8202720118
 20
3.9855728122
 30
0.0
 40
1.400000000000031
  0
CIRCLE
  5
85
330
81
100
AcDbEntity
  8
LAYER_1
100
AcDbCircle
 10
11.8202720118
 20
3.9855728122
 30
0.0
 40
3.400000000000028
  0
LINE
  5
86
330
81
100
AcDbEntity
  8
LAYER_1
100
AcDbLine
 10
0.0
 20
4.0266952847
 30
0.0
 11
15.8776569467
 21
4.0266952847
 31
0.0
  0
LINE
  5
87
330
81
100
AcDbEntity
  8
LAYER_1
100
AcDbLine
 10
6.7934234199
 20
7.3359236059
 30
0.0
 11
6.7934234199
 21
0.5359236059
 31
0.0
  0
LINE
  5
88
330
81
100
AcDbEntity
  8
LAYER_1
100
AcDbLine
 10
1.0125475392
 20
5.3359236059
 30
0.0
 11
1.0125475392
 21
2.5359236059
 31
0.0
  0
LINE
  5
89
330
81
100
AcDbEntity
  8
LAYER_1
100
AcDbLine
 10
1.0125475392
 20
2.5359236059
 30
0.0
 11
6.7934234199
 21
0.5359236059
 31
0.0
  0
LINE
  5
8A
330
81
100
AcDbEntity
  8
LAYER_1
100
AcDbLine
 10
6.7934234199
 20
7.3359236059
 30
0.0
 11
1.0125475392
 21
5.3359236059
 31
0.0
  0
LINE
  5
8B
330
81
100
AcDbEntity
  8
LAYER_1
100
AcDbLine
 10
11.8202720118
 20
8.1865819926
 30
0.0
 11
11.8202720118
 21
0.0
 31
0.0
  0
ENDBLK
  5
83
330
81
100
AcDbEntity
  8
0
100
AcDbBlockEnd
  0
BLOCK
  5
8D
330
8C
100
AcDbEntity
  8
0
100
AcDbBlockBegin
  2
Block6
 70
     0
 10
0.0
 20
0.0
 30
0.0
  3
Block6
  1

  0
LINE
  5
8F
330
8C
100
AcDbEntity
  8
LAYER_1
 62
   250
100
AcDbLine
 10
24.9996066667
 20
0.0
 30
0.0
 11
26.2681466667
 21
4.35981
 31
0.0
  0
LINE
  5
90
330
8C
100
AcDbEntity
  8
LAYER_1
 62
   250
100
AcDbLine
 10
26.2681466667
 20
4.35981
 30
0.0
 11
27.4404866667
 21
4.35981
 31
0.0
  0
LINE
  5
91
330
8C
100
AcDbEntity
  8
LAYER_1
 62
   250
100
AcDbLine
 10
27.4404866667
 20
4.35981
 30
0.0
 11
28.7082033333
 21
0.0
 31
0.0
  0
LINE
  5
92
330
8C
100
AcDbEntity
  8
LAYER_1
 62
   250
100
AcDbLine
 10
28.7082033333
 20
0.0
 30
0.0
 11
27.56
 21
0.0
 31
0.0
  0
LINE
  5
93
330
8C
100
AcDbEntity
  8
LAYER_1
 62
   250
100
AcDbLine
 10
27.56
 20
0.0
 30
0.0
 11
27.4255366667
 21
0.5769833333
 31
0.0
  0
LINE
  5
94
330
8C
100
AcDbEntity
  8
LAYER_1
 62
   250
100
AcDbLine
 10
27.4255366667
 20
0.5769833333
 30
0.0
 11
26.27716
 21
0.5769833333
 31
0.0
  0
LINE
  5
95
330
8C
100
AcDbEntity
  8
LAYER_1
 62
   250
100
AcDbLine
 10
26.27716
 20
0.5769833333
 30
0.0
 11
26.1376266667
 21
0.0
 31
0.0
  0
LINE
  5
96
330
8C
100
AcDbEntity
  8
LAYER_1
 62
   250
100
AcDbLine
 10
26.1376266667
 20
0.0
 30
0.0
 11
24.9996066667
 21
0.0
 31
0.0
  0
LINE
  5
97
330
8C
100
AcDbEntity
  8
LAYER_1
 62
   250
100
AcDbLine
 10
26.48776
 20
1.4914466667
 30
0.0
 11
27.2148066667
 21
1.4914466667
 31
0.0
  0
LINE
  5
98
330
8C
100
AcDbEntity
  8
LAYER_1
 62
   250
100
AcDbLine
 10
27.2148066667
 20
1.4914466667
 30
0.0
 11
26.8553566667
 21
3.00079
 31
0.0
  0
LINE
  5
99
330
8C
100
AcDbEntity
  8
LAYER_1
 62
   250
100
AcDbLine
 10
26.8553566667
 20
3.00079
 30
0.0
 11
26.48776
 21
1.4914466667
 31
0.0
  0
LINE
  5
9A
330
8C
100
AcDbEntity
  8
LAYER_1
 62
   250
100
AcDbLine
 10
23.2651466667
 20
0.0
 30
0.0
 11
23.2651466667
 21
1.6134733333
 31
0.0
  0
LINE
  5
9B
330
8C
100
AcDbEntity
  8
LAYER_1
 62
   250
100
AcDbLine
 10
23.2651466667
 20
1.6134733333
 30
0.0
 11
21.93815
 21
4.35981
 31
0.0
  0
LINE
  5
9C
330
8C
100
AcDbEntity
  8
LAYER_1
 62
   250
100
AcDbLine
 10
21.93815
 20
4.35981
 30
0.0
 11
23.2209466667
 21
4.35981
 31
0.0
  0
LINE
  5
9D
330
8C
100
AcDbEntity
  8
LAYER_1
 62
   250
100
AcDbLine
 10
23.2209466667
 20
4.35981
 30
0.0
 11
23.84356
 21
2.87352
 31
0.0
  0
LINE
  5
9E
330
8C
100
AcDbEntity
  8
LAYER_1
 62
   250
100
AcDbLine
 10
23.84356
 20
2.87352
 30
0.0
 11
24.47042
 21
4.35981
 31
0.0
  0
LINE
  5
9F
330
8C
100
AcDbEntity
  8
LAYER_1
 62
   250
100
AcDbLine
 10
24.47042
 20
4.35981
 30
0.0
 11
25.71881
 21
4.35981
 31
0.0
  0
LINE
  5
A0
330
8C
100
AcDbEntity
  8
LAYER_1
 62
   250
100
AcDbLine
 10
25.71881
 20
4.35981
 30
0.0
 11
24.4234033333
 21
1.6134733333
 31
0.0
  0
LINE
  5
A1
330
8C
100
AcDbEntity
  8
LAYER_1
 62
   250
100
AcDbLine
 10
24.4234033333
 20
1.6134733333
 30
0.0
 11
24.4234033333
 21
0.0
 31
0.0
  0
LINE
  5
A2
330
8C
100
AcDbEntity
  8
LAYER_1
 62
   250
100
AcDbLine
 10
24.4234033333
 20
0.0
 30
0.0
 11
23.2651466667
 21
0.0
 31
0.0
  0
LINE
  5
A3
330
8C
100
AcDbEntity
  8
LAYER_1
 62
   250
100
AcDbLine
 10
18.94035
 20
0.0
 30
0.0
 11
20.2091066667
 21
4.35981
 31
0.0
  0
LINE
  5
A4
330
8C
100
AcDbEntity
  8
LAYER_1
 62
   250
100
AcDbLine
 10
20.2091066667
 20
4.35981
 30
0.0
 11
21.38136
 21
4.35981
 31
0.0
  0
LINE
  5
A5
330
8C
100
AcDbEntity
  8
LAYER_1
 62
   250
100
AcDbLine
 10
21.38136
 20
4.35981
 30
0.0
 11
22.64912
 21
0.0
 31
0.0
  0
LINE
  5
A6
330
8C
100
AcDbEntity
  8
LAYER_1
 62
   250
100
AcDbLine
 10
22.64912
 20
0.0
 30
0.0
 11
21.50083
 21
0.0
 31
0.0
  0
LINE
  5
A7
330
8C
100
AcDbEntity
  8
LAYER_1
 62
   250
100
AcDbLine
 10
21.50083
 20
0.0
 30
0.0
 11
21.36641
 21
0.5769833333
 31
0.0
  0
LINE
  5
A8
330
8C
100
AcDbEntity
  8
LAYER_1
 62
   250
100
AcDbLine
 10
21.36641
 20
0.5769833333
 30
0.0
 11
20.21799
 21
0.5769833333
 31
0.0
  0
LINE
  5
A9
330
8C
100
AcDbEntity
  8
LAYER_1
 62
   250
100
AcDbLine
 10
20.21799
 20
0.5769833333
 30
0.0
 11
20.07863
 21
0.0
 31
0.0
  0
LINE
  5
AA
330
8C
100
AcDbEntity
  8
LAYER_1
 62
   250
100
AcDbLine
 10
20.07863
 20
0.0
 30
0.0
 11
18.94035
 21
0.0
 31
0.0
  0
LINE
  5
AB
330
8C
100
AcDbEntity
  8
LAYER_1
 62
   250
100
AcDbLine
 10
20.4289366667
 20
1.4914466667
 30
0.0
 11
21.15594
 21
1.4914466667
 31
0.0
  0
LINE
  5
AC
330
8C
100
AcDbEntity
  8
LAYER_1
 62
   250
100
AcDbLine
 10
21.15594
 20
1.4914466667
 30
0.0
 11
20.79649
 21
3.00079
 31
0.0
  0
LINE
  5
AD
330
8C
100
AcDbEntity
  8
LAYER_1
 62
   250
100
AcDbLine
 10
20.79649
 20
3.00079
 30
0.0
 11
20.4289366667
 21
1.4914466667
 31
0.0
  0
LINE
  5
AE
330
8C
100
AcDbEntity
  8
LAYER_1
 62
   250
100
AcDbLine
 10
15.4246733333
 20
0.0
 30
0.0
 11
15.4246733333
 21
4.35981
 31
0.0
  0
LINE
  5
AF
330
8C
100
AcDbEntity
  8
LAYER_1
 62
   250
100
AcDbLine
 10
15.4246733333
 20
4.35981
 30
0.0
 11
16.5728333333
 21
4.35981
 31
0.0
  0
LINE
  5
B0
330
8C
100
AcDbEntity
  8
LAYER_1
 62
   250
100
AcDbLine
 10
16.5728333333
 20
4.35981
 30
0.0
 11
16.5728333333
 21
2.9150333333
 31
0.0
  0
LINE
  5
B1
330
8C
100
AcDbEntity
  8
LAYER_1
 62
   250
100
AcDbLine
 10
16.5728333333
 20
2.9150333333
 30
0.0
 11
17.6108833333
 21
4.35981
 31
0.0
  0
LINE
  5
B2
330
8C
100
AcDbEntity
  8
LAYER_1
 62
   250
100
AcDbLine
 10
17.6108833333
 20
4.35981
 30
0.0
 11
18.9553433333
 21
4.35981
 31
0.0
  0
LINE
  5
B3
330
8C
100
AcDbEntity
  8
LAYER_1
 62
   250
100
AcDbLine
 10
18.9553433333
 20
4.35981
 30
0.0
 11
17.6676066667
 21
2.75223
 31
0.0
  0
LINE
  5
B4
330
8C
100
AcDbEntity
  8
LAYER_1
 62
   250
100
AcDbLine
 10
17.6676066667
 20
2.75223
 30
0.0
 11
19.1215266667
 21
0.0
 31
0.0
  0
LINE
  5
B5
330
8C
100
AcDbEntity
  8
LAYER_1
 62
   250
100
AcDbLine
 10
19.1215266667
 20
0.0
 30
0.0
 11
17.7411
 21
0.0
 31
0.0
  0
LINE
  5
B6
330
8C
100
AcDbEntity
  8
LAYER_1
 62
   250
100
AcDbLine
 10
17.7411
 20
0.0
 30
0.0
 11
16.8593966667
 21
1.7459
 31
0.0
  0
LINE
  5
B7
330
8C
100
AcDbEntity
  8
LAYER_1
 62
   250
100
AcDbLine
 10
16.8593966667
 20
1.7459
 30
0.0
 11
16.5728333333
 21
1.38827
 31
0.0
  0
LINE
  5
B8
330
8C
100
AcDbEntity
  8
LAYER_1
 62
   250
100
AcDbLine
 10
16.5728333333
 20
1.38827
 30
0.0
 11
16.5728333333
 21
0.0
 31
0.0
  0
LINE
  5
B9
330
8C
100
AcDbEntity
  8
LAYER_1
 62
   250
100
AcDbLine
 10
16.5728333333
 20
0.0
 30
0.0
 11
15.4246733333
 21
0.0
 31
0.0
  0
LINE
  5
BA
330
8C
100
AcDbEntity
  8
LAYER_1
 62
   250
100
AcDbLine
 10
11.5248466667
 20
0.0
 30
0.0
 11
11.5248466667
 21
4.35981
 31
0.0
  0
LINE
  5
BB
330
8C
100
AcDbEntity
  8
LAYER_1
 62
   250
100
AcDbLine
 10
11.5248466667
 20
4.35981
 30
0.0
 11
12.6237366667
 21
4.35981
 31
0.0
  0
LINE
  5
BC
330
8C
100
AcDbEntity
  8
LAYER_1
 62
   250
100
AcDbLine
 10
12.6237366667
 20
4.35981
 30
0.0
 11
13.6350933333
 21
2.33181
 31
0.0
  0
LINE
  5
BD
330
8C
100
AcDbEntity
  8
LAYER_1
 62
   250
100
AcDbLine
 10
13.8163566667
 20
2.3027766667
 30
0.0
 11
13.8163566667
 21
4.35981
 31
0.0
  0
LINE
  5
BE
330
8C
100
AcDbEntity
  8
LAYER_1
 62
   250
100
AcDbLine
 10
13.8163566667
 20
4.35981
 30
0.0
 11
14.9203166667
 21
4.35981
 31
0.0
  0
LINE
  5
BF
330
8C
100
AcDbEntity
  8
LAYER_1
 62
   250
100
AcDbLine
 10
14.9203166667
 20
4.35981
 30
0.0
 11
14.9203166667
 21
0.0
 31
0.0
  0
LINE
  5
C0
330
8C
100
AcDbEntity
  8
LAYER_1
 62
   250
100
AcDbLine
 10
14.9203166667
 20
0.0
 30
0.0
 11
13.8163566667
 21
0.0
 31
0.0
  0
LINE
  5
C1
330
8C
100
AcDbEntity
  8
LAYER_1
 62
   250
100
AcDbLine
 10
13.8163566667
 20
0.0
 30
0.0
 11
12.805
 21
2.0127466667
 31
0.0
  0
LINE
  5
C2
330
8C
100
AcDbEntity
  8
LAYER_1
 62
   250
100
AcDbLine
 10
12.6237366667
 20
2.0419533333
 30
0.0
 11
12.6237366667
 21
0.0
 31
0.0
  0
LINE
  5
C3
330
8C
100
AcDbEntity
  8
LAYER_1
 62
   250
100
AcDbLine
 10
12.6237366667
 20
0.0
 30
0.0
 11
11.5248466667
 21
0.0
 31
0.0
  0
LINE
  5
C4
330
8C
100
AcDbEntity
  8
LAYER_1
 62
   250
100
AcDbLine
 10
9.8223666667
 20
0.0
 30
0.0
 11
9.8223666667
 21
4.35981
 31
0.0
  0
LINE
  5
C5
330
8C
100
AcDbEntity
  8
LAYER_1
 62
   250
100
AcDbLine
 10
9.8223666667
 20
4.35981
 30
0.0
 11
11.0021166667
 21
4.35981
 31
0.0
  0
LINE
  5
C6
330
8C
100
AcDbEntity
  8
LAYER_1
 62
   250
100
AcDbLine
 10
11.0021166667
 20
4.35981
 30
0.0
 11
11.0021166667
 21
0.0
 31
0.0
  0
LINE
  5
C7
330
8C
100
AcDbEntity
  8
LAYER_1
 62
   250
100
AcDbLine
 10
11.0021166667
 20
0.0
 30
0.0
 11
9.8223666667
 21
0.0
 31
0.0
  0
LINE
  5
C8
330
8C
100
AcDbEntity
  8
LAYER_1
 62
   250
100
AcDbLine
 10
7.23138
 20
0.0
 30
0.0
 11
7.23138
 21
3.2110433333
 31
0.0
  0
LINE
  5
C9
330
8C
100
AcDbEntity
  8
LAYER_1
 62
   250
100
AcDbLine
 10
7.23138
 20
3.2110433333
 30
0.0
 11
6.19346
 21
3.2110433333
 31
0.0
  0
LINE
  5
CA
330
8C
100
AcDbEntity
  8
LAYER_1
 62
   250
100
AcDbLine
 10
6.19346
 20
3.2110433333
 30
0.0
 11
6.19346
 21
4.35981
 31
0.0
  0
LINE
  5
CB
330
8C
100
AcDbEntity
  8
LAYER_1
 62
   250
100
AcDbLine
 10
6.19346
 20
4.35981
 30
0.0
 11
9.40576
 21
4.35981
 31
0.0
  0
LINE
  5
CC
330
8C
100
AcDbEntity
  8
LAYER_1
 62
   250
100
AcDbLine
 10
9.40576
 20
4.35981
 30
0.0
 11
9.40576
 21
3.2110433333
 31
0.0
  0
LINE
  5
CD
330
8C
100
AcDbEntity
  8
LAYER_1
 62
   250
100
AcDbLine
 10
9.40576
 20
3.2110433333
 30
0.0
 11
8.3895933333
 21
3.2110433333
 31
0.0
  0
LINE
  5
CE
330
8C
100
AcDbEntity
  8
LAYER_1
 62
   250
100
AcDbLine
 10
8.3895933333
 20
3.2110433333
 30
0.0
 11
8.3895933333
 21
0.0
 31
0.0
  0
LINE
  5
CF
330
8C
100
AcDbEntity
  8
LAYER_1
 62
   250
100
AcDbLine
 10
8.3895933333
 20
0.0
 30
0.0
 11
7.23138
 21
0.0
 31
0.0
  0
LINE
  5
D0
330
8C
100
AcDbEntity
  8
LAYER_1
 62
   250
100
AcDbLine
 10
4.0396633333
 20
0.0
 30
0.0
 11
4.0396633333
 21
4.35981
 31
0.0
  0
LINE
  5
D1
330
8C
100
AcDbEntity
  8
LAYER_1
 62
   250
100
AcDbLine
 10
4.0396633333
 20
4.35981
 30
0.0
 11
5.1978766667
 21
4.35981
 31
0.0
  0
LINE
  5
D2
330
8C
100
AcDbEntity
  8
LAYER_1
 62
   250
100
AcDbLine
 10
5.1978766667
 20
4.35981
 30
0.0
 11
5.1978766667
 21
1.15791
 31
0.0
  0
LINE
  5
D3
330
8C
100
AcDbEntity
  8
LAYER_1
 62
   250
100
AcDbLine
 10
5.1978766667
 20
1.15791
 30
0.0
 11
6.7722633333
 21
1.15791
 31
0.0
  0
LINE
  5
D4
330
8C
100
AcDbEntity
  8
LAYER_1
 62
   250
100
AcDbLine
 10
6.7722633333
 20
1.15791
 30
0.0
 11
6.7722633333
 21
0.0
 31
0.0
  0
LINE
  5
D5
330
8C
100
AcDbEntity
  8
LAYER_1
 62
   250
100
AcDbLine
 10
6.7722633333
 20
0.0
 30
0.0
 11
4.0396633333
 21
0.0
 31
0.0
  0
LINE
  5
D6
330
8C
100
AcDbEntity
  8
LAYER_1
 62
   250
100
AcDbLine
 10
0.0
 20
0.0
 30
0.0
 11
1.26854
 21
4.35981
 31
0.0
  0
LINE
  5
D7
330
8C
100
AcDbEntity
  8
LAYER_1
 62
   250
100
AcDbLine
 10
1.26854
 20
4.35981
 30
0.0
 11
2.4410966667
 21
4.35981
 31
0.0
  0
LINE
  5
D8
330
8C
100
AcDbEntity
  8
LAYER_1
 62
   250
100
AcDbLine
 10
2.4410966667
 20
4.35981
 30
0.0
 11
3.7088133333
 21
0.0
 31
0.0
  0
LINE
  5
D9
330
8C
100
AcDbEntity
  8
LAYER_1
 62
   250
100
AcDbLine
 10
3.7088133333
 20
0.0
 30
0.0
 11
2.5605233333
 21
0.0
 31
0.0
  0
LINE
  5
DA
330
8C
100
AcDbEntity
  8
LAYER_1
 62
   250
100
AcDbLine
 10
2.5605233333
 20
0.0
 30
0.0
 11
2.4260166667
 21
0.5769833333
 31
0.0
  0
LINE
  5
DB
330
8C
100
AcDbEntity
  8
LAYER_1
 62
   250
100
AcDbLine
 10
2.4260166667
 20
0.5769833333
 30
0.0
 11
1.27777
 21
0.5769833333
 31
0.0
  0
LINE
  5
DC
330
8C
100
AcDbEntity
  8
LAYER_1
 62
   250
100
AcDbLine
 10
1.27777
 20
0.5769833333
 30
0.0
 11
1.1383233333
 21
0.0
 31
0.0
  0
LINE
  5
DD
330
8C
100
AcDbEntity
  8
LAYER_1
 62
   250
100
AcDbLine
 10
1.1383233333
 20
0.0
 30
0.0
 11
0.0
 21
0.0
 31
0.0
  0
LINE
  5
DE
330
8C
100
AcDbEntity
  8
LAYER_1
 62
   250
100
AcDbLine
 10
1.48824
 20
1.4914466667
 30
0.0
 11
2.21533
 21
1.4914466667
 31
0.0
  0
LINE
  5
DF
330
8C
100
AcDbEntity
  8
LAYER_1
 62
   250
100
AcDbLine
 10
2.21533
 20
1.4914466667
 30
0.0
 11
1.8562266667
 21
3.00079
 31
0.0
  0
LINE
  5
E0
330
8C
100
AcDbEntity
  8
LAYER_1
 62
   250
100
AcDbLine
 10
1.8562266667
 20
3.00079
 30
0.0
 11
1.48824
 21
1.4914466667
 31
0.0
  0
SPLINE
  5
E1
330
8C
100
AcDbEntity
  8
LAYER_1
 62
   250
100
AcDbSpline
210
0.0
220
0.0
230
1.0
 70
     8
 71
     3
 72
     8
 73
     4
 74
     0
 42
0.00000001
 43
0.00000001
 40
0.1666666666666667
 40
0.1666666666666667
 40
0.1666666666666667
 40
0.1666666666666667
 40
0.2222222222222222
 40
0.2222222222222222
 40
0.2222222222222222
 40
0.2222222222222222
 10
13.63509333333335
 20
2.331810000000011
 30
0.0
 10
13.66599000000002
 20
2.275390000000009
 30
0.0
 10
13.69931333333335
 20
2.194486666666683
 30
0.0
 10
13.73441333333336
 20
2.089576666666683
 30
0.0
  0
SPLINE
  5
E2
330
8C
100
AcDbEntity
  8
LAYER_1
 62
   250
100
AcDbSpline
210
0.0
220
0.0
230
1.0
 70
     8
 71
     3
 72
     8
 73
     4
 74
     0
 42
0.00000001
 43
0.00000001
 40
0.2222222222222222
 40
0.2222222222222222
 40
0.2222222222222222
 40
0.2222222222222222
 40
0.2777777777777778
 40
0.2777777777777778
 40
0.2777777777777778
 40
0.2777777777777778
 10
13.73441333333336
 20
2.089576666666683
 30
0.0
 10
13.76947000000001
 20
1.985403333333344
 30
0.0
 10
13.80613000000003
 20
1.859043333333338
 30
0.0
 10
13.84569333333335
 20
1.710670000000011
 30
0.0
  0
SPLINE
  5
E3
330
8C
100
AcDbEntity
  8
LAYER_1
 62
   250
100
AcDbSpline
210
0.0
220
0.0
230
1.0
 70
     8
 71
     3
 72
     8
 73
     4
 74
     0
 42
0.00000001
 43
0.00000001
 40
0.2777777777777778
 40
0.2777777777777778
 40
0.2777777777777778
 40
0.2777777777777778
 40
0.3333333333333334
 40
0.3333333333333334
 40
0.3333333333333334
 40
0.3333333333333334
 10
13.84569333333335
 20
1.710670000000011
 30
0.0
 10
13.83555333333336
 20
1.787543333333343
 30
0.0
 10
13.82879333333337
 20
1.872173333333345
 30
0.0
 10
13.82381000000005
 20
1.965080000000015
 30
0.0
  0
SPLINE
  5
E4
330
8C
100
AcDbEntity
  8
LAYER_1
 62
   250
100
AcDbSpline
210
0.0
220
0.0
230
1.0
 70
     8
 71
     3
 72
     8
 73
     4
 74
     0
 42
0.00000001
 43
0.00000001
 40
0.3333333333333334
 40
0.3333333333333334
 40
0.3333333333333334
 40
0.3333333333333334
 40
0.388888888888889
 40
0.388888888888889
 40
0.388888888888889
 40
0.388888888888889
 10
13.82381000000005
 20
1.965080000000015
 30
0.0
 10
13.81886999999998
 20
2.058246666666673
 30
0.0
 10
13.8163566666667
 20
2.170263333333346
 30
0.0
 10
13.8163566666667
 20
2.30277666666668
 30
0.0
  0
SPLINE
  5
E5
330
8C
100
AcDbEntity
  8
LAYER_1
 62
   250
100
AcDbSpline
210
0.0
220
0.0
230
1.0
 70
     8
 71
     3
 72
     8
 73
     4
 74
     0
 42
0.00000001
 43
0.00000001
 40
0.6666666666666669
 40
0.6666666666666669
 40
0.6666666666666669
 40
0.6666666666666669
 40
0.7222222222222224
 40
0.7222222222222224
 40
0.7222222222222224
 40
0.7222222222222224
 10
12.80500000000001
 20
2.012746666666676
 30
0.0
 10
12.77419000000002
 20
2.072330000000004
 30
0.0
 10
12.74004333333334
 20
2.156093333333345
 30
0.0
 10
12.70321000000002
 20
2.264340000000018
 30
0.0
  0
SPLINE
  5
E6
330
8C
100
AcDbEntity
  8
LAYER_1
 62
   250
100
AcDbSpline
210
0.0
220
0.0
230
1.0
 70
     8
 71
     3
 72
     8
 73
     4
 74
     0
 42
0.00000001
 43
0.00000001
 40
0.7222222222222224
 40
0.7222222222222224
 40
0.7222222222222224
 40
0.7222222222222224
 40
0.777777777777778
 40
0.777777777777778
 40
0.777777777777778
 40
0.777777777777778
 10
12.70321000000002
 20
2.264340000000018
 30
0.0
 10
12.66620333333335
 20
2.372543333333345
 30
0.0
 10
12.62954333333333
 20
2.49665000000001
 30
0.0
 10
12.59206000000002
 20
2.637050000000009
 30
0.0
  0
SPLINE
  5
E7
330
8C
100
AcDbEntity
  8
LAYER_1
 62
   250
100
AcDbSpline
210
0.0
220
0.0
230
1.0
 70
     8
 71
     3
 72
     8
 73
     4
 74
     0
 42
0.00000001
 43
0.00000001
 40
0.777777777777778
 40
0.777777777777778
 40
0.777777777777778
 40
0.777777777777778
 40
0.8333333333333336
 40
0.8333333333333336
 40
0.8333333333333336
 40
0.8333333333333336
 10
12.59206000000002
 20
2.637050000000009
 30
0.0
 10
12.60367333333334
 20
2.560350000000017
 30
0.0
 10
12.61117
 20
2.479446666666676
 30
0.0
 10
12.61615333333338
 20
2.395553333333349
 30
0.0
  0
SPLINE
  5
E8
330
8C
100
AcDbEntity
  8
LAYER_1
 62
   250
100
AcDbSpline
210
0.0
220
0.0
230
1.0
 70
     8
 71
     3
 72
     8
 73
     4
 74
     0
 42
0.00000001
 43
0.00000001
 40
0.8333333333333336
 40
0.8333333333333336
 40
0.8333333333333336
 40
0.8333333333333336
 40
0.8888888888888892
 40
0.8888888888888892
 40
0.8888888888888892
 40
0.8888888888888892
 10
12.61615333333338
 20
2.395553333333349
 30
0.0
 10
12.62122333333332
 20
2.311746666666677
 30
0.0
 10
12.62373666666672
 20
2.194486666666683
 30
0.0
 10
12.62373666666672
 20
2.041953333333346
 30
0.0
  0
ENDBLK
  5
8E
330
8C
100
AcDbEntity
  8
0
100
AcDbBlockEnd
  0
BLOCK
  5
159
330
158
100
AcDbEntity
  8
0
100
AcDbBlockBegin
  2
SW_NOTE_0_1
 70
     0
 10
0.0
 20
0.0
 30
0.0
  3
SW_NOTE_0_1
  1

  0
MTEXT
  5
15B
330
158
100
AcDbEntity
  8
LAYER_1
 62
     0
100
AcDbMText
 10
11.2447916667
 20
5.4570534317
 30
0.0
 40
4.2333333333
 41
0.0
 71
     2
 72
     1
  1
EC-1015
  7
SLDTEXTSTYLE1
 73
     1
 44
1.0
  0
MTEXT
  5
15C
330
158
100
AcDbEntity
  8
LAYER_1
 62
     0
100
AcDbMText
 10
11.0473338246
 20
-0.1873909445
 30
0.0
 40
4.2333333333
 41
0.0
 71
     2
 72
     1
  1
Kapak
  7
SLDTEXTSTYLE1
 73
     1
 44
1.0
  0
ENDBLK
  5
15A
330
158
100
AcDbEntity
  8
0
100
AcDbBlockEnd
  0
BLOCK
  5
172
330
171
100
AcDbEntity
  8
0
100
AcDbBlockBegin
  2
SW_NOTE_0_2
 70
     0
 10
0.0
 20
0.0
 30
0.0
  3
SW_NOTE_0_2
  1

  0
MTEXT
  5
174
330
171
100
AcDbEntity
  8
0
  6
Continuous
 62
     0
370
     0
100
AcDbMText
 10
0.0
 20
1.7053291974
 30
0.0
 40
1.3229166667
 41
0.0
 71
     1
 72
     1
  1
COMMENTS: This drawing is subject to
  7
SLDTEXTSTYLE1
 73
     1
 44
1.0
  0
MTEXT
  5
175
330
171
100
AcDbEntity
  8
0
  6
Continuous
 62
     0
370
     0
100
AcDbMText
 10
0.0
 20
-0.0585596702
 30
0.0
 40
1.3229166667
 41
0.0
 71
     1
 72
     1
  1
technical modification without prior notice.
  7
SLDTEXTSTYLE1
 73
     1
 44
1.0
  0
MTEXT
  5
176
330
171
100
AcDbEntity
  8
0
  6
Continuous
 62
     0
370
     0
100
AcDbMText
 10
0.0
 20
-1.8224485377
 30
0.0
 40
1.3229166667
 41
0.0
 71
     1
 72
     1
  1
Typographical and other errors do not
  7
SLDTEXTSTYLE1
 73
     1
 44
1.0
  0
MTEXT
  5
177
330
171
100
AcDbEntity
  8
0
  6
Continuous
 62
     0
370
     0
100
AcDbMText
 10
0.0
 20
-3.5863374053
 30
0.0
 40
1.3229166667
 41
0.0
 71
     1
 72
     1
  1
justify any claims for damages. All
  7
SLDTEXTSTYLE1
 73
     1
 44
1.0
  0
MTEXT
  5
178
330
171
100
AcDbEntity
  8
0
  6
Continuous
 62
     0
370
     0
100
AcDbMText
 10
0.0
 20
-5.3502262729
 30
0.0
 40
1.3229166667
 41
0.0
 71
     1
 72
     1
  1
dimensions should be verified using an
  7
SLDTEXTSTYLE1
 73
     1
 44
1.0
  0
MTEXT
  5
179
330
171
100
AcDbEntity
  8
0
  6
Continuous
 62
     0
370
     0
100
AcDbMText
 10
0.0
 20
-7.1141151405
 30
0.0
 40
1.3229166667
 41
0.0
 71
     1
 72
     1
  1
actual produced part.
  7
SLDTEXTSTYLE1
 73
     1
 44
1.0
  0
ENDBLK
  5
173
330
171
100
AcDbEntity
  8
0
100
AcDbBlockEnd
  0
BLOCK
  5
182
330
181
100
AcDbEntity
  8
0
100
AcDbBlockBegin
  2
SW_NOTE_0_3
 70
     0
 10
0.0
 20
0.0
 30
0.0
  3
SW_NOTE_0_3
  1

  0
MTEXT
  5
184
330
181
100
AcDbEntity
  8
0
  6
Continuous
 62
     0
370
     0
100
AcDbMText
 10
0.0
 20
1.3642633579
 30
0.0
 40
1.0583333333
 41
0.0
 71
     1
 72
     1
  1
THE INFORMATION CONTAINED IN THIS
  7
SLDTEXTSTYLE1
 73
     1
 44
1.0
  0
MTEXT
  5
185
330
181
100
AcDbEntity
  8
0
  6
Continuous
 62
     0
370
     0
100
AcDbMText
 10
0.0
 20
-0.0468477361
 30
0.0
 40
1.0583333333
 41
0.0
 71
     1
 72
     1
  1
DRAWING IS THE SOLE PROPERTY OF
  7
SLDTEXTSTYLE1
 73
     1
 44
1.0
  0
MTEXT
  5
186
330
181
100
AcDbEntity
  8
0
  6
Continuous
 62
     0
370
     0
100
AcDbMText
 10
0.0
 20
-1.4579588302
 30
0.0
 40
1.0583333333
 41
0.0
 71
     1
 72
     1
  1
ALTINKAYA ENCLOSURES.  ANY
  7
SLDTEXTSTYLE1
 73
     1
 44
1.0
  0
MTEXT
  5
187
330
181
100
AcDbEntity
  8
0
  6
Continuous
 62
     0
370
     0
100
AcDbMText
 10
0.0
 20
-2.8690699242
 30
0.0
 40
1.0583333333
 41
0.0
 71
     1
 72
     1
  1
REPRODUCTION IN PART OR AS A WHOLE
  7
SLDTEXTSTYLE1
 73
     1
 44
1.0
  0
MTEXT
  5
188
330
181
100
AcDbEntity
  8
0
  6
Continuous
 62
     0
370
     0
100
AcDbMText
 10
0.0
 20
-4.2801810183
 30
0.0
 40
1.0583333333
 41
0.0
 71
     1
 72
     1
  1
WITHOUT THE WRITTEN PERMISSION OF
  7
SLDTEXTSTYLE1
 73
     1
 44
1.0
  0
MTEXT
  5
189
330
181
100
AcDbEntity
  8
0
  6
Continuous
 62
     0
370
     0
100
AcDbMText
 10
0.0
 20
-5.6912921124
 30
0.0
 40
1.0583333333
 41
0.0
 71
     1
 72
     1
  1
ALTINKAYA ENCLOSURES IS PROHIBITED.
  7
SLDTEXTSTYLE1
 73
     1
 44
1.0
  0
ENDBLK
  5
183
330
181
100
AcDbEntity
  8
0
100
AcDbBlockEnd
  0
BLOCK
  5
18D
330
18C
100
AcDbEntity
  8
0
100
AcDbBlockBegin
  2
SW_NOTE_0_4
 70
     0
 10
0.0
 20
0.0
 30
0.0
  3
SW_NOTE_0_4
  1

  0
MTEXT
  5
18F
330
18C
100
AcDbEntity
  8
LAYER_1
 62
     0
100
AcDbMText
 10
0.0
 20
1.7053291974
 30
0.0
 40
1.3229166667
 41
0.0
 71
     1
 72
     1
  1
DÝKKAT: BU RESÝM VE ÜRÜN ÖNCEDEN
  7
SLDTEXTSTYLE2
 73
     1
 44
1.0
  0
MTEXT
  5
190
330
18C
100
AcDbEntity
  8
LAYER_1
 62
     0
100
AcDbMText
 10
0.0
 20
-1.0585596012
 30
0.0
 40
1.3229166667
 41
0.0
 71
     1
 72
     1
  1
HABER VERÝLMEKSÝZÝN DEÐÝÞTÝREBÝLÝR.
  7
SLDTEXTSTYLE2
 73
     1
 44
1.0
  0
MTEXT
  5
191
330
18C
100
AcDbEntity
  8
LAYER_1
 62
     0
100
AcDbMText
 10
0.0
 20
-3.8224483999
 30
0.0
 40
1.3229166667
 41
0.0
 71
     1
 72
     1
  1
RESÝM ÇÝZÝLÝRKEN HATASIZ OLMASINA
  7
SLDTEXTSTYLE2
 73
     1
 44
1.0
  0
MTEXT
  5
192
330
18C
100
AcDbEntity
  8
LAYER_1
 62
     0
100
AcDbMText
 10
0.0
 20
-6.5863371986
 30
0.0
 40
1.3229166667
 41
0.0
 71
     1
 72
     1
  1
ÇALIÞILMASINA RAÐMEN RESÝMDE
  7
SLDTEXTSTYLE2
 73
     1
 44
1.0
  0
MTEXT
  5
193
330
18C
100
AcDbEntity
  8
LAYER_1
 62
     0
100
AcDbMText
 10
0.0
 20
-9.3502259972
 30
0.0
 40
1.3229166667
 41
0.0
 71
     1
 72
     1
  1
HATALAR BULUNABÝLÝR. RESÝMDEKÝ
  7
SLDTEXTSTYLE2
 73
     1
 44
1.0
  0
MTEXT
  5
194
330
18C
100
AcDbEntity
  8
LAYER_1
 62
     0
100
AcDbMText
 10
0.0
 20
-12.1141147959
 30
0.0
 40
1.3229166667
 41
0.0
 71
     1
 72
     1
  1
HATALARDAN DOLAYI OLUÞABÝLECEK
  7
SLDTEXTSTYLE2
 73
     1
 44
1.0
  0
MTEXT
  5
195
330
18C
100
AcDbEntity
  8
LAYER_1
 62
     0
100
AcDbMText
 10
0.0
 20
-14.8780035945
 30
0.0
 40
1.3229166667
 41
0.0
 71
     1
 72
     1
  1
ZARARLAR ÝÇÝN ALTINKAYA HÝÇ BÝR
  7
SLDTEXTSTYLE2
 73
     1
 44
1.0
  0
MTEXT
  5
196
330
18C
100
AcDbEntity
  8
LAYER_1
 62
     0
100
AcDbMText
 10
0.0
 20
-17.6418923932
 30
0.0
 40
1.3229166667
 41
0.0
 71
     1
 72
     1
  1
SORUMLULUK KABUL ETMEZ. BÜTÜN
  7
SLDTEXTSTYLE1
 73
     1
 44
1.0
  0
MTEXT
  5
197
330
18C
100
AcDbEntity
  8
LAYER_1
 62
     0
100
AcDbMText
 10
0.0
 20
-20.4057811918
 30
0.0
 40
1.3229166667
 41
0.0
 71
     1
 72
     1
  1
ÖLÇÜLER KULLANILMADAN ÖNCE
  7
SLDTEXTSTYLE1
 73
     1
 44
1.0
  0
MTEXT
  5
198
330
18C
100
AcDbEntity
  8
LAYER_1
 62
     0
100
AcDbMText
 10
0.0
 20
-23.1696699905
 30
0.0
 40
1.3229166667
 41
0.0
 71
     1
 72
     1
  1
ÜRETÝLMÝÞ GERÇEK NUMUNEDEN
  7
SLDTEXTSTYLE2
 73
     1
 44
1.0
  0
MTEXT
  5
199
330
18C
100
AcDbEntity
  8
LAYER_1
 62
     0
100
AcDbMText
 10
0.0
 20
-25.9335587891
 30
0.0
 40
1.3229166667
 41
0.0
 71
     1
 72
     1
  1
KONTROL EDÝLMELÝDÝR.
  7
SLDTEXTSTYLE2
 73
     1
 44
1.0
  0
ENDBLK
  5
18E
330
18C
100
AcDbEntity
  8
0
100
AcDbBlockEnd
  0
BLOCK
  5
257
330
256
100
AcDbEntity
  8
0
100
AcDbBlockBegin
  2
_D
 70
     0
 10
0.0
 20
0.0
 30
0.0
  3
_D
  1

  0
SOLID
  5
259
330
256
100
AcDbEntity
  8
LAYER_1
100
AcDbTrace
 10
221.1436235865
 20
95.8966095422
 30
0.0
 11
217.5876235865
 21
96.2776095422
 31
0.0
 12
217.5876235865
 22
95.5156095422
 32
0.0
 13
217.5876235865
 23
95.5156095422
 33
0.0
  0
SOLID
  5
25A
330
256
100
AcDbEntity
  8
LAYER_1
100
AcDbTrace
 10
71.1436235865
 20
95.8966095422
 30
0.0
 11
74.6996235865
 21
95.5156095422
 31
0.0
 12
74.6996235865
 22
96.2776095422
 32
0.0
 13
74.6996235865
 23
96.2776095422
 33
0.0
  0
LINE
  5
25B
330
256
100
AcDbEntity
  8
LAYER_1
100
AcDbLine
 10
221.1436235865
 20
126.3856458202
 30
0.0
 11
221.1436235865
 21
94.8966095422
 31
0.0
  0
LINE
  5
25C
330
256
100
AcDbEntity
  8
LAYER_1
100
AcDbLine
 10
71.1436235865
 20
126.3856458202
 30
0.0
 11
71.1436235865
 21
94.8966095422
 31
0.0
  0
LINE
  5
25D
330
256
100
AcDbEntity
  8
LAYER_1
100
AcDbLine
 10
221.1436235865
 20
95.8966095422
 30
0.0
 11
71.1436235865
 21
95.8966095422
 31
0.0
  0
MTEXT
  5
25E
330
256
100
AcDbEntity
  8
LAYER_1
100
AcDbMText
 10
142.2644569126
 20
100.4083464568
 30
0.0
 40
3.5
 41
0.0
 71
     1
 72
     1
  1
150
  7
SLDTEXTSTYLE3
 73
     1
 44
1.0
  0
ENDBLK
  5
258
330
256
100
AcDbEntity
  8
0
100
AcDbBlockEnd
  0
BLOCK
  5
261
330
260
100
AcDbEntity
  8
0
100
AcDbBlockBegin
  2
_D_1
 70
     0
 10
0.0
 20
0.0
 30
0.0
  3
_D_1
  1

  0
SOLID
  5
263
330
260
100
AcDbEntity
  8
LAYER_1
100
AcDbTrace
 10
54.6916369823
 20
119.3966095422
 30
0.0
 11
55.0726369823
 21
122.9526095422
 31
0.0
 12
54.3106369823
 22
122.9526095422
 32
0.0
 13
54.3106369823
 23
122.9526095422
 33
0.0
  0
SOLID
  5
264
330
260
100
AcDbEntity
  8
LAYER_1
100
AcDbTrace
 10
54.6916369823
 20
219.3966095422
 30
0.0
 11
54.3106369823
 21
215.8406095422
 31
0.0
 12
55.0726369823
 22
215.8406095422
 32
0.0
 13
55.0726369823
 23
215.8406095422
 33
0.0
  0
LINE
  5
265
330
260
100
AcDbEntity
  8
LAYER_1
100
AcDbLine
 10
78.1326598646
 20
119.3966095422
 30
0.0
 11
53.6916369823
 21
119.3966095422
 31
0.0
  0
LINE
  5
266
330
260
100
AcDbEntity
  8
LAYER_1
100
AcDbLine
 10
78.1326598646
 20
219.3966095422
 30
0.0
 11
53.6916369823
 21
219.3966095422
 31
0.0
  0
LINE
  5
267
330
260
100
AcDbEntity
  8
LAYER_1
100
AcDbLine
 10
54.6916369823
 20
119.3966095422
 30
0.0
 11
54.6916369823
 21
219.3966095422
 31
0.0
  0
MTEXT
  5
268
330
260
100
AcDbEntity
  8
LAYER_1
100
AcDbMText
 10
50.1799000677
 20
165.5174428683
 30
0.0
 40
3.5
 41
0.0
 71
     1
 72
     1
  1
100
  7
SLDTEXTSTYLE3
 11
-6.822150412718603E-15
 21
1.0
 31
0.0
 73
     1
 44
1.0
  0
ENDBLK
  5
262
330
260
100
AcDbEntity
  8
0
100
AcDbBlockEnd
  0
BLOCK
  5
26C
330
26B
100
AcDbEntity
  8
0
100
AcDbBlockBegin
  2
_D_2
 70
     0
 10
0.0
 20
0.0
 30
0.0
  3
_D_2
  1

  0
SOLID
  5
26E
330
26B
100
AcDbEntity
  8
LAYER_1
100
AcDbTrace
 10
210.6154287557
 20
105.345070004
 30
0.0
 11
207.0594287557
 21
105.726070004
 31
0.0
 12
207.0594287557
 22
104.964070004
 32
0.0
 13
207.0594287557
 23
104.964070004
 33
0.0
  0
SOLID
  5
26F
330
26B
100
AcDbEntity
  8
LAYER_1
100
AcDbTrace
 10
81.6718184173
 20
105.345070004
 30
0.0
 11
85.2278184173
 21
104.964070004
 31
0.0
 12
85.2278184173
 22
105.726070004
 32
0.0
 13
85.2278184173
 23
105.726070004
 33
0.0
  0
LINE
  5
270
330
26B
100
AcDbEntity
  8
LAYER_1
100
AcDbLine
 10
210.6154287557
 20
129.3911276812
 30
0.0
 11
210.6154287557
 21
104.345070004
 31
0.0
  0
LINE
  5
271
330
26B
100
AcDbEntity
  8
LAYER_1
100
AcDbLine
 10
81.6718184173
 20
129.3911276812
 30
0.0
 11
81.6718184173
 21
104.345070004
 31
0.0
  0
LINE
  5
272
330
26B
100
AcDbEntity
  8
LAYER_1
100
AcDbLine
 10
210.6154287557
 20
105.345070004
 30
0.0
 11
81.6718184173
 21
105.345070004
 31
0.0
  0
MTEXT
  5
273
330
26B
100
AcDbEntity
  8
LAYER_1
100
AcDbMText
 10
140.3248733429
 20
109.8568069186
 30
0.0
 40
3.5
 41
0.0
 71
     1
 72
     1
  1
128,9
  7
SLDTEXTSTYLE3
 73
     1
 44
1.0
  0
ENDBLK
  5
26D
330
26B
100
AcDbEntity
  8
0
100
AcDbBlockEnd
  0
BLOCK
  5
276
330
275
100
AcDbEntity
  8
0
100
AcDbBlockBegin
  2
_D_3
 70
     0
 10
0.0
 20
0.0
 30
0.0
  3
_D_3
  1

  0
SOLID
  5
278
330
275
100
AcDbEntity
  8
LAYER_1
100
AcDbTrace
 10
60.6916369823
 20
208.8684147114
 30
0.0
 11
60.3106369823
 21
205.3124147114
 31
0.0
 12
61.0726369823
 22
205.3124147114
 32
0.0
 13
61.0726369823
 23
205.3124147114
 33
0.0
  0
SOLID
  5
279
330
275
100
AcDbEntity
  8
LAYER_1
100
AcDbTrace
 10
60.6916369823
 20
129.924804373
 30
0.0
 11
61.0726369823
 21
133.480804373
 31
0.0
 12
60.3106369823
 22
133.480804373
 32
0.0
 13
60.3106369823
 23
133.480804373
 33
0.0
  0
LINE
  5
27A
330
275
100
AcDbEntity
  8
LAYER_1
100
AcDbLine
 10
81.1381417255
 20
208.8684147114
 30
0.0
 11
59.6916369823
 21
208.8684147114
 31
0.0
  0
LINE
  5
27B
330
275
100
AcDbEntity
  8
LAYER_1
100
AcDbLine
 10
81.1381417255
 20
129.924804373
 30
0.0
 11
59.6916369823
 21
129.924804373
 31
0.0
  0
LINE
  5
27C
330
275
100
AcDbEntity
  8
LAYER_1
100
AcDbLine
 10
60.6916369823
 20
208.8684147114
 30
0.0
 11
60.6916369823
 21
129.924804373
 31
0.0
  0
MTEXT
  5
27D
330
275
100
AcDbEntity
  8
LAYER_1
100
AcDbMText
 10
56.1799000677
 20
164.8709150117
 30
0.0
 40
3.5
 41
0.0
 71
     1
 72
     1
  1
78,9
  7
SLDTEXTSTYLE3
 11
-1.414962237524464E-14
 21
1.0
 31
0.0
 73
     1
 44
1.0
  0
ENDBLK
  5
277
330
275
100
AcDbEntity
  8
0
100
AcDbBlockEnd
  0
BLOCK
  5
281
330
280
100
AcDbEntity
  8
0
100
AcDbBlockBegin
  2
_None
 70
     0
 10
0.0
 20
0.0
 30
0.0
  3
_None
  1

  0
ENDBLK
  5
282
330
280
100
AcDbEntity
  8
0
100
AcDbBlockEnd
  0
BLOCK
  5
284
330
283
100
AcDbEntity
  8
0
100
AcDbBlockBegin
  2
_D_4
 70
     0
 10
0.0
 20
0.0
 30
0.0
  3
_D_4
  1

  0
SOLID
  5
286
330
283
100
AcDbEntity
  8
LAYER_1
100
AcDbTrace
 10
163.3169566957
 20
116.3142666907
 30
0.0
 11
166.6531788778
 21
115.0258884265
 31
0.0
 12
166.8503989901
 22
115.7619239062
 32
0.0
 13
166.8503989901
 23
115.7619239062
 33
0.0
  0
LINE
  5
287
330
283
100
AcDbEntity
  8
LAYER_1
100
AcDbLine
 10
163.3169566957
 20
116.3142666907
 30
0.0
 11
184.5679249373
 21
110.620086912
 31
0.0
  0
LINE
  5
288
330
283
100
AcDbEntity
  8
LAYER_1
100
AcDbLine
 10
163.3169566957
 20
116.3142666907
 30
0.0
 11
158.9702904774
 21
117.4789523937
 31
0.0
  0
MTEXT
  5
289
330
283
100
AcDbEntity
  8
LAYER_1
100
AcDbMText
 10
174.3839625523
 20
117.9872560547
 30
0.0
 40
3.5
 41
0.0
 71
     1
 72
     1
  1
%%c
  7
SLDTEXTSTYLE3
 11
0.9659258262890715
 21
-0.2588190451025087
 31
0.0
 73
     1
 44
1.0
  0
MTEXT
  5
28A
330
283
100
AcDbEntity
  8
LAYER_1
100
AcDbMText
 10
179.4963811755
 20
116.672746084
 30
0.0
 40
3.5
 41
0.0
 71
     1
 72
     1
  1
4,5
  7
SLDTEXTSTYLE3
 11
0.9659258262890715
 21
-0.2588190451025087
 31
0.0
 73
     1
 44
1.0
  0
ENDBLK
  5
285
330
283
100
AcDbEntity
  8
0
100
AcDbBlockEnd
  0
BLOCK
  5
28C
330
28B
100
AcDbEntity
  8
0
100
AcDbBlockBegin
  2
SW_CENTERMARKSYMBOL_0
 70
     0
 10
0.0
 20
0.0
 30
0.0
  3
SW_CENTERMARKSYMBOL_0
  1

  0
LINE
  5
28E
330
28B
100
AcDbEntity
  8
LAYER_1
 62
     0
100
AcDbLine
 10
0.0
 20
0.0
 30
0.0
 11
0.0
 21
-2.5
 31
0.0
  0
LINE
  5
28F
330
28B
100
AcDbEntity
  8
LAYER_1
 62
     0
100
AcDbLine
 10
0.0
 20
0.0
 30
0.0
 11
2.5
 21
0.0
 31
0.0
  0
LINE
  5
290
330
28B
100
AcDbEntity
  8
LAYER_1
 62
     0
100
AcDbLine
 10
0.0
 20
0.0
 30
0.0
 11
0.0
 21
2.5
 31
0.0
  0
LINE
  5
291
330
28B
100
AcDbEntity
  8
LAYER_1
 62
     0
100
AcDbLine
 10
0.0
 20
0.0
 30
0.0
 11
-2.5
 21
0.0
 31
0.0
  0
LINE
  5
292
330
28B
100
AcDbEntity
  8
LAYER_1
 62
     0
100
AcDbLine
 10
0.0
 20
-2.5
 30
0.0
 11
0.0
 21
-4.75
 31
0.0
  0
LINE
  5
293
330
28B
100
AcDbEntity
  8
LAYER_1
 62
     0
100
AcDbLine
 10
2.5
 20
0.0
 30
0.0
 11
4.75
 21
0.0
 31
0.0
  0
LINE
  5
294
330
28B
100
AcDbEntity
  8
LAYER_1
 62
     0
100
AcDbLine
 10
0.0
 20
2.5
 30
0.0
 11
0.0
 21
4.75
 31
0.0
  0
LINE
  5
295
330
28B
100
AcDbEntity
  8
LAYER_1
 62
     0
100
AcDbLine
 10
-2.5
 20
0.0
 30
0.0
 11
-4.75
 21
0.0
 31
0.0
  0
ENDBLK
  5
28D
330
28B
100
AcDbEntity
  8
0
100
AcDbBlockEnd
  0
BLOCK
  5
2D6
330
2D5
100
AcDbEntity
  8
0
100
AcDbBlockBegin
  2
_D_5
 70
     0
 10
0.0
 20
0.0
 30
0.0
  3
_D_5
  1

  0
SOLID
  5
2D8
330
2D5
100
AcDbEntity
  8
LAYER_1
100
AcDbTrace
 10
323.9140826025
 20
108.944622938
 30
0.0
 11
327.4700826025
 21
108.563622938
 31
0.0
 12
327.4700826025
 22
109.325622938
 32
0.0
 13
327.4700826025
 23
109.325622938
 33
0.0
  0
SOLID
  5
2D9
330
2D5
100
AcDbEntity
  8
LAYER_1
100
AcDbTrace
 10
303.9140826025
 20
108.944622938
 30
0.0
 11
300.3580826025
 21
109.325622938
 31
0.0
 12
300.3580826025
 22
108.563622938
 32
0.0
 13
300.3580826025
 23
108.563622938
 33
0.0
  0
LINE
  5
2DA
330
2D5
100
AcDbEntity
  8
LAYER_1
100
AcDbLine
 10
323.9140826025
 20
127.501357523
 30
0.0
 11
323.9140826025
 21
107.944622938
 31
0.0
  0
LINE
  5
2DB
330
2D5
100
AcDbEntity
  8
LAYER_1
100
AcDbLine
 10
303.9140826025
 20
125.8966095422
 30
0.0
 11
303.9140826025
 21
107.944622938
 31
0.0
  0
LINE
  5
2DC
330
2D5
100
AcDbEntity
  8
LAYER_1
100
AcDbLine
 10
323.9140826025
 20
108.944622938
 30
0.0
 11
330.2640826025
 21
108.944622938
 31
0.0
  0
LINE
  5
2DD
330
2D5
100
AcDbEntity
  8
LAYER_1
100
AcDbLine
 10
323.9140826025
 20
108.944622938
 30
0.0
 11
303.9140826025
 21
108.944622938
 31
0.0
  0
LINE
  5
2DE
330
2D5
100
AcDbEntity
  8
LAYER_1
100
AcDbLine
 10
303.9140826025
 20
108.944622938
 30
0.0
 11
297.5640826025
 21
108.944622938
 31
0.0
  0
MTEXT
  5
2DF
330
2D5
100
AcDbEntity
  8
LAYER_1
100
AcDbMText
 10
311.3279714089
 20
113.4563598525
 30
0.0
 40
3.5
 41
0.0
 71
     1
 72
     1
  1
20
  7
SLDTEXTSTYLE3
 73
     1
 44
1.0
  0
ENDBLK
  5
2D7
330
2D5
100
AcDbEntity
  8
0
100
AcDbBlockEnd
  0
BLOCK
  5
2E2
330
2E1
100
AcDbEntity
  8
0
100
AcDbBlockBegin
  2
_D_6
 70
     0
 10
0.0
 20
0.0
 30
0.0
  3
_D_6
  1

  0
SOLID
  5
2E4
330
2E1
100
AcDbEntity
  8
LAYER_1
100
AcDbTrace
 10
323.9140826025
 20
184.8179737222
 30
0.0
 11
327.4700826025
 21
184.4369737222
 31
0.0
 12
327.4700826025
 22
185.1989737222
 32
0.0
 13
327.4700826025
 23
185.1989737222
 33
0.0
  0
SOLID
  5
2E5
330
2E1
100
AcDbEntity
  8
LAYER_1
100
AcDbTrace
 10
320.9140826025
 20
184.8179737222
 30
0.0
 11
317.3580826025
 21
185.1989737222
 31
0.0
 12
317.3580826025
 22
184.4369737222
 32
0.0
 13
317.3580826025
 23
184.4369737222
 33
0.0
  0
LINE
  5
2E6
330
2E1
100
AcDbEntity
  8
LAYER_1
100
AcDbLine
 10
323.9140826025
 20
184.8179737222
 30
0.0
 11
335.5394909458
 21
184.8179737222
 31
0.0
  0
LINE
  5
2E7
330
2E1
100
AcDbEntity
  8
LAYER_1
100
AcDbLine
 10
323.9140826025
 20
184.8179737222
 30
0.0
 11
320.9140826025
 21
184.8179737222
 31
0.0
  0
LINE
  5
2E8
330
2E1
100
AcDbEntity
  8
LAYER_1
100
AcDbLine
 10
320.9140826025
 20
184.8179737222
 30
0.0
 11
314.5640826025
 21
184.8179737222
 31
0.0
  0
MTEXT
  5
2E9
330
2E1
100
AcDbEntity
  8
LAYER_1
100
AcDbMText
 10
332.9533797522
 20
189.3297106368
 30
0.0
 40
3.5
 41
0.0
 71
     1
 72
     1
  1
3
  7
SLDTEXTSTYLE3
 73
     1
 44
1.0
  0
ENDBLK
  5
2E3
330
2E1
100
AcDbEntity
  8
0
100
AcDbBlockEnd
  0
BLOCK
  5
2EC
330
2EB
100
AcDbEntity
  8
0
100
AcDbBlockBegin
  2
_D_7
 70
     0
 10
0.0
 20
0.0
 30
0.0
  3
_D_7
  1

  0
SOLID
  5
2EE
330
2EB
100
AcDbEntity
  8
LAYER_1
100
AcDbTrace
 10
320.9140826025
 20
169.3739745384
 30
0.0
 11
317.3580826025
 21
169.7549745384
 31
0.0
 12
317.3580826025
 22
168.9929745384
 32
0.0
 13
317.3580826025
 23
168.9929745384
 33
0.0
  0
SOLID
  5
2EF
330
2EB
100
AcDbEntity
  8
LAYER_1
100
AcDbTrace
 10
303.9140826025
 20
169.3739745384
 30
0.0
 11
307.4700826025
 21
168.9929745384
 31
0.0
 12
307.4700826025
 22
169.7549745384
 32
0.0
 13
307.4700826025
 23
169.7549745384
 33
0.0
  0
LINE
  5
2F0
330
2EB
100
AcDbEntity
  8
LAYER_1
100
AcDbLine
 10
320.9140826025
 20
169.3739745384
 30
0.0
 11
303.9140826025
 21
169.3739745384
 31
0.0
  0
MTEXT
  5
2F1
330
2EB
100
AcDbEntity
  8
LAYER_1
100
AcDbMText
 10
310.3884007514
 20
173.885711453
 30
0.0
 40
3.5
 41
0.0
 71
     1
 72
     1
  1
17
  7
SLDTEXTSTYLE3
 73
     1
 44
1.0
  0
ENDBLK
  5
2ED
330
2EB
100
AcDbEntity
  8
0
100
AcDbBlockEnd
  0
BLOCK
  5
2F3
330
2F2
100
AcDbEntity
  8
0
100
AcDbBlockBegin
  2
SW_NOTE_0_5
 70
     0
 10
0.0
 20
0.0
 30
0.0
  3
SW_NOTE_0_5
  1

  0
MTEXT
  5
2F5
330
2F2
100
AcDbEntity
  8
LAYER_1
 62
     0
100
AcDbMText
 10
9.7234375
 20
8.1855801476
 30
0.0
 40
6.35
 41
0.0
 71
     2
 72
     1
  1
KESIT
  7
SLDTEXTSTYLE3
 73
     1
 44
1.0
  0
MTEXT
  5
2F6
330
2F2
100
AcDbEntity
  8
LAYER_1
 62
     0
100
AcDbMText
 10
25.562776655
 20
5.3469457771
 30
0.0
 40
3.5
 41
0.0
 71
     2
 72
     1
  1
A-A
  7
SLDTEXTSTYLE3
 73
     1
 44
1.0
  0
ENDBLK
  5
2F4
330
2F2
100
AcDbEntity
  8
0
100
AcDbBlockEnd
  0
ENDSEC
  0
SECTION
  2
ENTITIES
  0
HATCH
  5
E9
330
1F
100
AcDbEntity
  8
LAYER_2
100
AcDbHatch
 10
0.0
 20
0.0
 30
0.0
210
0.0
220
0.0
230
1.0
  2
SOLID
 70
     1
 71
     0
 91
        4
 92
        0
 93
       18
 72
     4
 94
        3
 73
     1
 74
     0
 95
        8
 96
        4
 40
0.9444444444444448
 40
0.9444444444444448
 40
0.9444444444444448
 40
0.9444444444444448
 40
1.0
 40
1.0
 40
1.0
 40
1.0
 10
329.3633810246067
 20
51.31246345129614
 42
1.0
 10
329.0411543579401
 20
51.31246345129614
 42
1.0
 10
328.77829435794
 20
51.04960345129614
 42
1.0
 10
328.77829435794
 20
50.72737678462948
 42
1.0
 72
     1
 10
328.77829435794
 20
50.72737678462948
 11
328.77829435794
 21
44.2912501179628
 72
     1
 10
328.77829435794
 20
44.2912501179628
 11
329.51630435794
 21
44.2912501179628
 72
     4
 94
        3
 73
     1
 74
     0
 95
        8
 96
        4
 40
0.777777777777778
 40
0.777777777777778
 40
0.777777777777778
 40
0.777777777777778
 40
0.8333333333333336
 40
0.8333333333333336
 40
0.8333333333333336
 40
0.8333333333333336
 10
329.51630435794
 20
44.2912501179628
 42
1.0
 10
329.4996210246067
 20
44.36192678462947
 42
1.0
 10
329.4913010246067
 20
44.4376301179628
 42
1.0
 10
329.49160435794
 20
44.51849011796281
 42
1.0
 72
     4
 94
        3
 73
     1
 74
     0
 95
        8
 96
        4
 40
0.7222222222222224
 40
0.7222222222222224
 40
0.7222222222222224
 40
0.7222222222222224
 40
0.777777777777778
 40
0.777777777777778
 40
0.777777777777778
 40
0.777777777777778
 10
329.49160435794
 20
44.51849011796281
 42
1.0
 10
329.4893510246067
 20
45.08282011796281
 42
1.0
 10
329.91098435794
 20
45.40435345129614
 42
1.0
 10
330.61896435794
 20
45.41774345129613
 42
1.0
 72
     4
 94
        3
 73
     1
 74
     0
 95
        8
 96
        4
 40
0.6666666666666669
 40
0.6666666666666669
 40
0.6666666666666669
 40
0.6666666666666669
 40
0.7222222222222224
 40
0.7222222222222224
 40
0.7222222222222224
 40
0.7222222222222224
 10
330.61896435794
 20
45.41774345129613
 42
1.0
 10
331.2394110246067
 20
45.42905345129613
 42
1.0
 10
331.8558276912734
 20
45.08282011796281
 42
1.0
 10
331.9985676912734
 20
44.99715011796281
 42
1.0
 72
     4
 94
        3
 73
     1
 74
     0
 95
        8
 96
        4
 40
0.6111111111111113
 40
0.6111111111111113
 40
0.6111111111111113
 40
0.6111111111111113
 40
0.6666666666666669
 40
0.6666666666666669
 40
0.6666666666666669
 40
0.6666666666666669
 10
331.9985676912734
 20
44.99715011796281
 42
1.0
 10
331.9481276912733
 20
44.84509345129614
 42
1.0
 10
331.92078435794
 20
44.6826801179628
 42
1.0
 10
331.92078435794
 20
44.51363678462948
 42
1.0
 72
     4
 94
        3
 73
     1
 74
     0
 95
        8
 96
        4
 40
0.5555555555555557
 40
0.5555555555555557
 40
0.5555555555555557
 40
0.5555555555555557
 40
0.6111111111111113
 40
0.6111111111111113
 40
0.6111111111111113
 40
0.6111111111111113
 10
331.92078435794
 20
44.51363678462948
 42
1.0
 10
331.92078435794
 20
44.43806345129614
 42
1.0
 10
331.9261576912734
 20
44.36387678462947
 42
1.0
 10
331.9367310246067
 20
44.2912501179628
 42
1.0
 72
     1
 10
331.9367310246067
 20
44.2912501179628
 11
334.9812010246067
 21
44.2912501179628
 72
     4
 94
        3
 73
     1
 74
     0
 95
        8
 96
        4
 40
0.4444444444444445
 40
0.4444444444444445
 40
0.4444444444444445
 40
0.4444444444444445
 40
0.5000000000000001
 40
0.5000000000000001
 40
0.5000000000000001
 40
0.5000000000000001
 10
334.9812010246067
 20
44.2912501179628
 42
1.0
 10
334.9917310246067
 20
44.36387678462947
 42
1.0
 10
334.9974510246067
 20
44.43806345129614
 42
1.0
 10
334.9974510246067
 20
44.51363678462948
 42
1.0
 72
     4
 94
        3
 73
     1
 74
     0
 95
        8
 96
        4
 40
0.388888888888889
 40
0.388888888888889
 40
0.388888888888889
 40
0.388888888888889
 40
0.4444444444444445
 40
0.4444444444444445
 40
0.4444444444444445
 40
0.4444444444444445
 10
334.9974510246067
 20
44.51363678462948
 42
1.0
 10
334.9974510246067
 20
44.67964678462947
 42
1.0
 10
334.97097435794
 20
44.83933011796281
 42
1.0
 10
334.9223110246067
 20
44.98904678462947
 42
1.0
 72
     4
 94
        3
 73
     1
 74
     0
 95
        8
 96
        4
 40
0.3333333333333334
 40
0.3333333333333334
 40
0.3333333333333334
 40
0.3333333333333334
 40
0.388888888888889
 40
0.388888888888889
 40
0.388888888888889
 40
0.388888888888889
 10
334.9223110246067
 20
44.98904678462947
 42
1.0
 10
335.06977435794
 20
45.0772301179628
 42
1.0
 10
335.6825076912733
 20
45.41934678462948
 42
1.0
 10
336.29918435794
 20
45.40790678462947
 42
1.0
 72
     4
 94
        3
 73
     1
 74
     0
 95
        8
 96
        4
 40
0.2777777777777778
 40
0.2777777777777778
 40
0.2777777777777778
 40
0.2777777777777778
 40
0.3333333333333334
 40
0.3333333333333334
 40
0.3333333333333334
 40
0.3333333333333334
 10
336.29918435794
 20
45.40790678462947
 42
1.0
 10
337.0072076912733
 20
45.3945601179628
 42
1.0
 10
337.4287976912734
 20
45.07307011796281
 42
1.0
 10
337.42654435794
 20
44.5087401179628
 42
1.0
 72
     4
 94
        3
 73
     1
 74
     0
 95
        8
 96
        4
 40
0.2222222222222222
 40
0.2222222222222222
 40
0.2222222222222222
 40
0.2222222222222222
 40
0.2777777777777778
 40
0.2777777777777778
 40
0.2777777777777778
 40
0.2777777777777778
 10
337.42654435794
 20
44.5087401179628
 42
1.0
 10
337.4268910246067
 20
44.4315201179628
 42
1.0
 10
337.4190910246067
 20
44.35915345129614
 42
1.0
 10
337.4038376912733
 20
44.2912501179628
 42
1.0
 72
     1
 10
337.4038376912733
 20
44.2912501179628
 11
338.1400276912733
 21
44.2912501179628
 72
     1
 10
338.1400276912733
 20
44.2912501179628
 11
338.1400276912733
 21
50.72737678462948
 72
     4
 94
        3
 73
     1
 74
     0
 95
        8
 96
        4
 40
0.0555555555555556
 40
0.0555555555555556
 40
0.0555555555555556
 40
0.0555555555555556
 40
0.1111111111111111
 40
0.1111111111111111
 40
0.1111111111111111
 40
0.1111111111111111
 10
338.1400276912733
 20
50.72737678462948
 42
1.0
 10
338.1400276912733
 20
51.04960345129614
 42
1.0
 10
337.8771676912734
 20
51.31246345129614
 42
1.0
 10
337.5549410246067
 20
51.31246345129614
 42
1.0
 72
     1
 10
337.5549410246067
 20
51.31246345129614
 11
329.3633810246067
 21
51.31246345129614
 97
        0
 92
        0
 93
        6
 72
     4
 94
        3
 73
     1
 74
     0
 95
        8
 96
        4
 40
0.6666666666666666
 40
0.6666666666666666
 40
0.6666666666666666
 40
0.6666666666666666
 40
0.8333333333333333
 40
0.8333333333333333
 40
0.8333333333333333
 40
0.8333333333333333
 10
333.9428043579401
 20
45.9742301179628
 42
1.0
 10
333.7906610246067
 20
46.0245401179628
 42
1.0
 10
333.6279876912733
 20
46.0519701179628
 42
1.0
 10
333.4591176912734
 20
46.0519701179628
 42
1.0
 72
     4
 94
        3
 73
     1
 74
     0
 95
        8
 96
        4
 40
0.8333333333333333
 40
0.8333333333333333
 40
0.8333333333333333
 40
0.8333333333333333
 40
1.0
 40
1.0
 40
1.0
 40
1.0
 10
333.4591176912734
 20
46.0519701179628
 42
1.0
 10
333.29319435794
 20
46.0519701179628
 42
1.0
 10
333.1333376912734
 20
46.02562345129614
 42
1.0
 10
332.98353435794
 20
45.97691678462947
 42
1.0
 72
     4
 94
        3
 73
     1
 74
     0
 95
        8
 96
        4
 40
0.0
 40
0.0
 40
0.0
 40
0.0
 40
0.1666666666666667
 40
0.1666666666666667
 40
0.1666666666666667
 40
0.1666666666666667
 10
332.98353435794
 20
45.97691678462947
 42
1.0
 10
332.8953510246067
 20
46.12438011796281
 42
1.0
 10
332.5534510246067
 20
46.7369401179628
 42
1.0
 10
332.5648476912734
 20
47.35379011796281
 42
1.0
 72
     4
 94
        3
 73
     1
 74
     0
 95
        8
 96
        4
 40
0.1666666666666667
 40
0.1666666666666667
 40
0.1666666666666667
 40
0.1666666666666667
 40
0.3333333333333333
 40
0.3333333333333333
 40
0.3333333333333333
 40
0.3333333333333333
 10
332.5648476912734
 20
47.35379011796281
 42
1.0
 10
332.57819435794
 20
48.06168345129614
 42
1.0
 10
332.8996410246067
 20
48.48336011796281
 42
1.0
 10
333.4639710246067
 20
48.48115011796281
 42
1.0
 72
     4
 94
        3
 73
     1
 74
     0
 95
        8
 96
        4
 40
0.3333333333333333
 40
0.3333333333333333
 40
0.3333333333333333
 40
0.3333333333333333
 40
0.5
 40
0.5
 40
0.5
 40
0.5
 10
333.4639710246067
 20
48.48115011796281
 42
1.0
 10
334.0283010246067
 20
48.48336011796281
 42
1.0
 10
334.3497910246067
 20
48.06168345129614
 42
1.0
 10
334.3631376912733
 20
47.35379011796281
 42
1.0
 72
     4
 94
        3
 73
     1
 74
     0
 95
        8
 96
        4
 40
0.5
 40
0.5
 40
0.5
 40
0.5
 40
0.6666666666666666
 40
0.6666666666666666
 40
0.6666666666666666
 40
0.6666666666666666
 10
334.3631376912733
 20
47.35379011796281
 42
1.0
 10
334.3744910246067
 20
46.73321345129615
 42
1.0
 10
334.0283010246067
 20
46.11675345129615
 42
1.0
 10
333.9428043579401
 20
45.9742301179628
 42
1.0
 97
        0
 92
        0
 93
        5
 72
     4
 94
        3
 73
     1
 74
     0
 95
        8
 96
        4
 40
0.6000000000000001
 40
0.6000000000000001
 40
0.6000000000000001
 40
0.6000000000000001
 40
0.8
 40
0.8
 40
0.8
 40
0.8
 10
332.0909543579401
 20
47.16030678462947
 42
1.0
 10
332.53672435794
 20
46.7307001179628
 42
1.0
 10
332.7278676912734
 20
46.05188345129614
 42
1.0
 10
332.7688176912733
 20
45.88856011796281
 42
1.0
 72
     4
 94
        3
 73
     1
 74
     0
 95
        8
 96
        4
 40
0.8
 40
0.8
 40
0.8
 40
0.8
 40
1.0
 40
1.0
 40
1.0
 40
1.0
 10
332.7688176912733
 20
45.88856011796281
 42
1.0
 10
332.4760143579401
 20
45.74118345129614
 42
1.0
 10
332.23668435794
 20
45.50332678462947
 42
1.0
 10
332.08783435794
 20
45.21152011796281
 42
1.0
 72
     4
 94
        3
 73
     1
 74
     0
 95
        8
 96
        4
 40
0.0
 40
0.0
 40
0.0
 40
0.0
 40
0.2
 40
0.2
 40
0.2
 40
0.2
 10
332.08783435794
 20
45.21152011796281
 42
1.0
 10
331.91922435794
 20
45.2540301179628
 42
1.0
 10
331.2464310246067
 20
45.44560678462947
 42
1.0
 10
330.8192943579401
 20
45.8886901179628
 42
1.0
 72
     4
 94
        3
 73
     1
 74
     0
 95
        8
 96
        4
 40
0.2
 40
0.2
 40
0.2
 40
0.2
 40
0.4
 40
0.4
 40
0.4
 40
0.4
 10
330.8192943579401
 20
45.8886901179628
 42
1.0
 10
330.3280676912734
 20
46.39885345129613
 42
1.0
 10
330.2573476912734
 20
46.92422678462948
 42
1.0
 10
330.6579210246067
 20
47.32176678462947
 42
1.0
 72
     4
 94
        3
 73
     1
 74
     0
 95
        8
 96
        4
 40
0.4
 40
0.4
 40
0.4
 40
0.4
 40
0.6000000000000001
 40
0.6000000000000001
 40
0.6000000000000001
 40
0.6000000000000001
 10
330.6579210246067
 20
47.32176678462947
 42
1.0
 10
331.0555910246067
 20
47.72225345129615
 42
1.0
 10
331.5808776912734
 20
47.65153345129613
 42
1.0
 10
332.0909543579401
 20
47.16030678462947
 42
1.0
 97
        0
 92
        0
 93
        5
 72
     4
 94
        3
 73
     1
 74
     0
 95
        8
 96
        4
 40
0.6000000000000001
 40
0.6000000000000001
 40
0.6000000000000001
 40
0.6000000000000001
 40
0.8
 40
0.8
 40
0.8
 40
0.8
 10
336.1057443579401
 20
45.88175678462947
 42
1.0
 10
335.6760076912734
 20
45.43594345129614
 42
1.0
 10
334.99723435794
 20
45.24475678462947
 42
1.0
 10
334.8340410246067
 20
45.20389345129613
 42
1.0
 72
     4
 94
        3
 73
     1
 74
     0
 95
        8
 96
        4
 40
0.8
 40
0.8
 40
0.8
 40
0.8
 40
1.0
 40
1.0
 40
1.0
 40
1.0
 10
334.8340410246067
 20
45.20389345129613
 42
1.0
 10
334.6866643579401
 20
45.49656678462947
 42
1.0
 10
334.4488076912734
 20
45.73585345129614
 42
1.0
 10
334.1569576912734
 20
45.88470345129614
 42
1.0
 72
     4
 94
        3
 73
     1
 74
     0
 95
        8
 96
        4
 40
0.0
 40
0.0
 40
0.0
 40
0.0
 40
0.2
 40
0.2
 40
0.2
 40
0.2
 10
334.1569576912734
 20
45.88470345129614
 42
1.0
 10
334.1993810246067
 20
46.05309678462947
 42
1.0
 10
334.3909576912733
 20
46.72619345129615
 42
1.0
 10
334.8341276912734
 20
47.15341678462947
 42
1.0
 72
     4
 94
        3
 73
     1
 74
     0
 95
        8
 96
        4
 40
0.2
 40
0.2
 40
0.2
 40
0.2
 40
0.4
 40
0.4
 40
0.4
 40
0.4
 10
334.8341276912734
 20
47.15341678462947
 42
1.0
 10
335.3441610246066
 20
47.64464345129615
 42
1.0
 10
335.86966435794
 20
47.71532011796281
 42
1.0
 10
336.26707435794
 20
47.31474678462948
 42
1.0
 72
     4
 94
        3
 73
     1
 74
     0
 95
        8
 96
        4
 40
0.4
 40
0.4
 40
0.4
 40
0.4
 40
0.6000000000000001
 40
0.6000000000000001
 40
0.6000000000000001
 40
0.6000000000000001
 10
336.26707435794
 20
47.31474678462948
 42
1.0
 10
336.6676910246067
 20
46.91725011796283
 42
1.0
 10
336.59688435794
 20
46.39187678462949
 42
1.0
 10
336.1057443579401
 20
45.88175678462947
 42
1.0
 97
        0
 75
     0
 76
     1
 98
        1
 10
0.0
 20
0.0
  0
LINE
  5
EA
330
1F
100
AcDbEntity
  8
LAYER_2
 62
    22
100
AcDbLine
 10
329.3633810246
 20
51.3124634513
 30
0.0
 11
337.5549410246
 21
51.3124634513
 31
0.0
  0
LINE
  5
EB
330
1F
100
AcDbEntity
  8
LAYER_1
100
AcDbLine
 10
326.6
 20
60.1594049943
 30
0.0
 11
292.0670608947
 21
60.1594049943
 31
0.0
  0
LINE
  5
EC
330
1F
100
AcDbEntity
  8
LAYER_1
100
AcDbLine
 10
326.6
 20
60.1594049943
 30
0.0
 11
414.5946922531
 21
60.1594049943
 31
0.0
  0
LINE
  5
ED
330
1F
100
AcDbEntity
  8
LAYER_1
100
AcDbLine
 10
410.0
 20
287.0
 30
0.0
 11
410.0
 21
60.1594049943
 31
0.0
  0
LINE
  5
EE
330
1F
100
AcDbEntity
  8
LAYER_2
 62
    22
100
AcDbLine
 10
338.1400276913
 20
50.7273767846
 30
0.0
 11
338.1400276913
 21
44.291250118
 31
0.0
  0
LINE
  5
EF
330
1F
100
AcDbEntity
  8
LAYER_2
 62
    22
100
AcDbLine
 10
338.1400276913
 20
44.291250118
 30
0.0
 11
337.4038376913
 21
44.291250118
 31
0.0
  0
LINE
  5
F0
330
1F
100
AcDbEntity
  8
LAYER_2
 62
    22
100
AcDbLine
 10
334.9812010246
 20
44.291250118
 30
0.0
 11
331.9367310246
 21
44.291250118
 31
0.0
  0
LINE
  5
F1
330
1F
100
AcDbEntity
  8
LAYER_2
 62
    22
100
AcDbLine
 10
329.5163043579
 20
44.291250118
 30
0.0
 11
328.7782943579
 21
44.291250118
 31
0.0
  0
LINE
  5
F2
330
1F
100
AcDbEntity
  8
LAYER_2
 62
    22
100
AcDbLine
 10
328.7782943579
 20
44.291250118
 30
0.0
 11
328.7782943579
 21
50.7273767846
 31
0.0
  0
LINE
  5
F3
330
1F
100
AcDbEntity
  8
LAYER_1
100
AcDbLine
 10
302.4114926113
 20
47.5910362722
 30
0.0
 11
302.4114926113
 21
36.1395934648
 31
0.0
  0
LINE
  5
F4
330
1F
100
AcDbEntity
  8
LAYER_1
100
AcDbLine
 10
396.0272857057
 20
51.8315308646
 30
0.0
 11
396.0272857057
 21
60.230556186
 31
0.0
  0
LINE
  5
F5
330
1F
100
AcDbEntity
  8
LAYER_1
100
AcDbLine
 10
292.0670608947
 20
42.2443133994
 30
0.0
 11
255.4457443212
 21
42.2443133994
 31
0.0
  0
LINE
  5
F6
330
1F
100
AcDbEntity
  8
LAYER_1
100
AcDbLine
 10
318.1055217366
 20
47.5910362722
 30
0.0
 11
318.1055217366
 21
36.1495721832
 31
0.0
  0
LINE
  5
F7
330
1F
100
AcDbEntity
  8
LAYER_1
100
AcDbLine
 10
255.4457443212
 20
42.2443133994
 30
0.0
 11
255.4457443212
 21
10.0
 31
0.0
  0
LINE
  5
F8
330
1F
100
AcDbEntity
  8
LAYER_1
100
AcDbLine
 10
292.0670608947
 20
60.1594049943
 30
0.0
 11
292.0670608947
 21
5.0
 31
0.0
  0
LINE
  5
F9
330
1F
100
AcDbEntity
  8
LAYER_1
100
AcDbLine
 10
326.6
 20
60.1594049943
 30
0.0
 11
326.6
 21
5.0
 31
0.0
  0
LINE
  5
FA
330
1F
100
AcDbEntity
  8
LAYER_1
100
AcDbLine
 10
370.8
 20
5.0
 30
0.0
 11
370.8
 21
10.0
 31
0.0
  0
LINE
  5
FB
330
1F
100
AcDbEntity
  8
LAYER_1
100
AcDbLine
 10
373.9638051508
 20
51.8315308646
 30
0.0
 11
373.9638051508
 21
60.25
 31
0.0
  0
LINE
  5
FC
330
1F
100
AcDbEntity
  8
LAYER_1
100
AcDbLine
 10
402.0
 20
9.25
 30
0.0
 11
402.0
 21
22.0
 31
0.0
  0
LINE
  5
FD
330
1F
100
AcDbEntity
  8
LAYER_1
100
AcDbLine
 10
414.5946922531
 20
13.5
 30
0.0
 11
402.0
 21
13.5
 31
0.0
  0
LINE
  5
FE
330
1F
100
AcDbEntity
  8
LAYER_1
100
AcDbLine
 10
326.6
 20
36.1495721832
 30
0.0
 11
292.0670608947
 21
36.1495721832
 31
0.0
  0
LINE
  5
FF
330
1F
100
AcDbEntity
  8
LAYER_1
100
AcDbLine
 10
326.6
 20
47.5910362722
 30
0.0
 11
292.0670608947
 21
47.5910362722
 31
0.0
  0
LINE
  5
100
330
1F
100
AcDbEntity
  8
LAYER_1
100
AcDbLine
 10
292.0670608947
 20
43.7510178819
 30
0.0
 11
326.6
 21
43.7510178819
 31
0.0
  0
LINE
  5
101
330
1F
100
AcDbEntity
  8
LAYER_1
100
AcDbLine
 10
292.0670608947
 20
39.9410178819
 30
0.0
 11
326.6
 21
39.9410178819
 31
0.0
  0
LINE
  5
102
330
1F
100
AcDbEntity
  8
LAYER_1
100
AcDbLine
 10
292.0670608947
 20
17.5195223149
 30
0.0
 11
326.6
 21
17.5195223149
 31
0.0
  0
LINE
  5
103
330
1F
100
AcDbEntity
  8
LAYER_1
100
AcDbLine
 10
326.6
 20
43.7510178819
 30
0.0
 11
414.5946922531
 21
43.7510178819
 31
0.0
  0
LINE
  5
104
330
1F
100
AcDbEntity
  8
LAYER_1
100
AcDbLine
 10
414.5946922531
 20
292.0
 30
0.0
 11
5.0
 21
292.0
 31
0.0
  0
LINE
  5
105
330
1F
100
AcDbEntity
  8
LAYER_1
100
AcDbLine
 10
410.0
 20
287.0
 30
0.0
 11
10.0
 21
287.0
 31
0.0
  0
LINE
  5
106
330
1F
100
AcDbEntity
  8
LAYER_1
100
AcDbLine
 10
5.0
 20
292.0
 30
0.0
 11
5.0
 21
5.0
 31
0.0
  0
LINE
  5
107
330
1F
100
AcDbEntity
  8
LAYER_1
100
AcDbLine
 10
10.0
 20
287.0
 30
0.0
 11
10.0
 21
10.0
 31
0.0
  0
LINE
  5
108
330
1F
100
AcDbEntity
  8
LAYER_1
100
AcDbLine
 10
10.0
 20
48.5
 30
0.0
 11
5.0
 21
48.5
 31
0.0
  0
LINE
  5
109
330
1F
100
AcDbEntity
  8
LAYER_1
100
AcDbLine
 10
5.0
 20
98.5
 30
0.0
 11
10.0
 21
98.5
 31
0.0
  0
LINE
  5
10A
330
1F
100
AcDbEntity
  8
LAYER_1
100
AcDbLine
 10
5.0
 20
198.5
 30
0.0
 11
10.0
 21
198.5
 31
0.0
  0
LINE
  5
10B
330
1F
100
AcDbEntity
  8
LAYER_1
100
AcDbLine
 10
5.0
 20
148.5
 30
0.0
 11
15.0
 21
148.5
 31
0.0
  0
LINE
  5
10C
330
1F
100
AcDbEntity
  8
LAYER_1
100
AcDbLine
 10
5.0
 20
5.0
 30
0.0
 11
414.5946922531
 21
5.0
 31
0.0
  0
LINE
  5
10D
330
1F
100
AcDbEntity
  8
LAYER_1
100
AcDbLine
 10
10.0
 20
10.0
 30
0.0
 11
227.8
 21
10.0
 31
0.0
  0
LINE
  5
10E
330
1F
100
AcDbEntity
  8
LAYER_1
100
AcDbLine
 10
60.0
 20
5.0
 30
0.0
 11
60.0
 21
10.0
 31
0.0
  0
LINE
  5
10F
330
1F
100
AcDbEntity
  8
LAYER_1
100
AcDbLine
 10
110.0
 20
10.0
 30
0.0
 11
110.0
 21
5.0
 31
0.0
  0
LINE
  5
110
330
1F
100
AcDbEntity
  8
LAYER_1
100
AcDbLine
 10
160.0
 20
5.0
 30
0.0
 11
160.0
 21
10.0
 31
0.0
  0
LINE
  5
111
330
1F
100
AcDbEntity
  8
LAYER_1
100
AcDbLine
 10
10.0
 20
248.5
 30
0.0
 11
5.0
 21
248.5
 31
0.0
  0
LINE
  5
112
330
1F
100
AcDbEntity
  8
LAYER_1
100
AcDbLine
 10
60.0
 20
287.0
 30
0.0
 11
60.0
 21
292.0
 31
0.0
  0
LINE
  5
113
330
1F
100
AcDbEntity
  8
LAYER_1
100
AcDbLine
 10
110.0
 20
292.0
 30
0.0
 11
110.0
 21
287.0
 31
0.0
  0
LINE
  5
114
330
1F
100
AcDbEntity
  8
LAYER_1
100
AcDbLine
 10
160.0
 20
287.0
 30
0.0
 11
160.0
 21
292.0
 31
0.0
  0
LINE
  5
115
330
1F
100
AcDbEntity
  8
LAYER_1
100
AcDbLine
 10
260.0
 20
287.0
 30
0.0
 11
260.0
 21
292.0
 31
0.0
  0
LINE
  5
116
330
1F
100
AcDbEntity
  8
LAYER_1
100
AcDbLine
 10
414.5946922531
 20
5.0
 30
0.0
 11
414.5946922531
 21
292.0
 31
0.0
  0
LINE
  5
117
330
1F
100
AcDbEntity
  8
LAYER_1
100
AcDbLine
 10
210.0
 20
5.0
 30
0.0
 11
210.0
 21
15.0
 31
0.0
  0
LINE
  5
118
330
1F
100
AcDbEntity
  8
LAYER_1
100
AcDbLine
 10
410.0
 20
198.5
 30
0.0
 11
415.0
 21
198.5
 31
0.0
  0
LINE
  5
119
330
1F
100
AcDbEntity
  8
LAYER_1
100
AcDbLine
 10
410.0
 20
98.5
 30
0.0
 11
415.0
 21
98.5
 31
0.0
  0
LINE
  5
11A
330
1F
100
AcDbEntity
  8
LAYER_1
100
AcDbLine
 10
415.0
 20
148.5
 30
0.0
 11
405.0
 21
148.5
 31
0.0
  0
LINE
  5
11B
330
1F
100
AcDbEntity
  8
LAYER_1
100
AcDbLine
 10
310.0
 20
292.0
 30
0.0
 11
310.0
 21
287.0
 31
0.0
  0
LINE
  5
11C
330
1F
100
AcDbEntity
  8
LAYER_1
100
AcDbLine
 10
360.0
 20
287.0
 30
0.0
 11
360.0
 21
292.0
 31
0.0
  0
LINE
  5
11D
330
1F
100
AcDbEntity
  8
LAYER_1
100
AcDbLine
 10
210.0
 20
292.0
 30
0.0
 11
210.0
 21
282.0
 31
0.0
  0
LINE
  5
11E
330
1F
100
AcDbEntity
  8
LAYER_1
100
AcDbLine
 10
415.0
 20
248.5
 30
0.0
 11
410.0
 21
248.5
 31
0.0
  0
LINE
  5
11F
330
1F
100
AcDbEntity
  8
LAYER_1
100
AcDbLine
 10
414.5946922531
 20
51.8315308646
 30
0.0
 11
326.6
 21
51.8315308646
 31
0.0
  0
LINE
  5
120
330
1F
100
AcDbEntity
  8
LAYER_1
100
AcDbLine
 10
227.8
 20
10.0
 30
0.0
 11
402.0
 21
10.0
 31
0.0
  0
LINE
  5
121
330
1F
100
AcDbEntity
  8
LAYER_1
100
AcDbLine
 10
402.0
 20
10.0
 30
0.0
 11
402.0
 21
5.0
 31
0.0
  0
LINE
  5
122
330
1F
100
AcDbEntity
  8
LAYER_1
100
AcDbLine
 10
326.6
 20
22.0
 30
0.0
 11
414.5946922531
 21
22.0
 31
0.0
  0
LINE
  5
123
330
1F
100
AcDbEntity
  8
LAYER_1
100
AcDbLine
 10
260.0
 20
10.0
 30
0.0
 11
260.0
 21
5.0
 31
0.0
  0
SPLINE
  5
124
330
1F
100
AcDbEntity
  8
LAYER_2
 62
    22
100
AcDbSpline
210
0.0
220
0.0
230
1.0
 70
     8
 71
     3
 72
     8
 73
     4
 74
     0
 42
0.00000001
 43
0.00000001
 40
0.0555555555555556
 40
0.0555555555555556
 40
0.0555555555555556
 40
0.0555555555555556
 40
0.1111111111111111
 40
0.1111111111111111
 40
0.1111111111111111
 40
0.1111111111111111
 10
337.5549410246067
 20
51.31246345129614
 30
0.0
 10
337.8771676912734
 20
51.31246345129614
 30
0.0
 10
338.1400276912733
 20
51.04960345129614
 30
0.0
 10
338.1400276912733
 20
50.72737678462948
 30
0.0
  0
SPLINE
  5
125
330
1F
100
AcDbEntity
  8
LAYER_2
 62
    22
100
AcDbSpline
210
0.0
220
0.0
230
1.0
 70
     8
 71
     3
 72
     8
 73
     4
 74
     0
 42
0.00000001
 43
0.00000001
 40
0.2222222222222222
 40
0.2222222222222222
 40
0.2222222222222222
 40
0.2222222222222222
 40
0.2777777777777778
 40
0.2777777777777778
 40
0.2777777777777778
 40
0.2777777777777778
 10
337.4038376912733
 20
44.2912501179628
 30
0.0
 10
337.4190910246067
 20
44.35915345129614
 30
0.0
 10
337.4268910246067
 20
44.4315201179628
 30
0.0
 10
337.42654435794
 20
44.5087401179628
 30
0.0
  0
SPLINE
  5
126
330
1F
100
AcDbEntity
  8
LAYER_2
 62
    22
100
AcDbSpline
210
0.0
220
0.0
230
1.0
 70
     8
 71
     3
 72
     8
 73
     4
 74
     0
 42
0.00000001
 43
0.00000001
 40
0.2777777777777778
 40
0.2777777777777778
 40
0.2777777777777778
 40
0.2777777777777778
 40
0.3333333333333334
 40
0.3333333333333334
 40
0.3333333333333334
 40
0.3333333333333334
 10
337.42654435794
 20
44.5087401179628
 30
0.0
 10
337.4287976912734
 20
45.07307011796281
 30
0.0
 10
337.0072076912733
 20
45.3945601179628
 30
0.0
 10
336.29918435794
 20
45.40790678462947
 30
0.0
  0
SPLINE
  5
127
330
1F
100
AcDbEntity
  8
LAYER_2
 62
    22
100
AcDbSpline
210
0.0
220
0.0
230
1.0
 70
     8
 71
     3
 72
     8
 73
     4
 74
     0
 42
0.00000001
 43
0.00000001
 40
0.3333333333333334
 40
0.3333333333333334
 40
0.3333333333333334
 40
0.3333333333333334
 40
0.388888888888889
 40
0.388888888888889
 40
0.388888888888889
 40
0.388888888888889
 10
336.29918435794
 20
45.40790678462947
 30
0.0
 10
335.6825076912733
 20
45.41934678462948
 30
0.0
 10
335.06977435794
 20
45.0772301179628
 30
0.0
 10
334.9223110246067
 20
44.98904678462947
 30
0.0
  0
SPLINE
  5
128
330
1F
100
AcDbEntity
  8
LAYER_2
 62
    22
100
AcDbSpline
210
0.0
220
0.0
230
1.0
 70
     8
 71
     3
 72
     8
 73
     4
 74
     0
 42
0.00000001
 43
0.00000001
 40
0.388888888888889
 40
0.388888888888889
 40
0.388888888888889
 40
0.388888888888889
 40
0.4444444444444445
 40
0.4444444444444445
 40
0.4444444444444445
 40
0.4444444444444445
 10
334.9223110246067
 20
44.98904678462947
 30
0.0
 10
334.97097435794
 20
44.83933011796281
 30
0.0
 10
334.9974510246067
 20
44.67964678462947
 30
0.0
 10
334.9974510246067
 20
44.51363678462948
 30
0.0
  0
SPLINE
  5
129
330
1F
100
AcDbEntity
  8
LAYER_2
 62
    22
100
AcDbSpline
210
0.0
220
0.0
230
1.0
 70
     8
 71
     3
 72
     8
 73
     4
 74
     0
 42
0.00000001
 43
0.00000001
 40
0.4444444444444445
 40
0.4444444444444445
 40
0.4444444444444445
 40
0.4444444444444445
 40
0.5000000000000001
 40
0.5000000000000001
 40
0.5000000000000001
 40
0.5000000000000001
 10
334.9974510246067
 20
44.51363678462948
 30
0.0
 10
334.9974510246067
 20
44.43806345129614
 30
0.0
 10
334.9917310246067
 20
44.36387678462947
 30
0.0
 10
334.9812010246067
 20
44.2912501179628
 30
0.0
  0
SPLINE
  5
12A
330
1F
100
AcDbEntity
  8
LAYER_2
 62
    22
100
AcDbSpline
210
0.0
220
0.0
230
1.0
 70
     8
 71
     3
 72
     8
 73
     4
 74
     0
 42
0.00000001
 43
0.00000001
 40
0.5555555555555557
 40
0.5555555555555557
 40
0.5555555555555557
 40
0.5555555555555557
 40
0.6111111111111113
 40
0.6111111111111113
 40
0.6111111111111113
 40
0.6111111111111113
 10
331.9367310246067
 20
44.2912501179628
 30
0.0
 10
331.9261576912734
 20
44.36387678462947
 30
0.0
 10
331.92078435794
 20
44.43806345129614
 30
0.0
 10
331.92078435794
 20
44.51363678462948
 30
0.0
  0
SPLINE
  5
12B
330
1F
100
AcDbEntity
  8
LAYER_2
 62
    22
100
AcDbSpline
210
0.0
220
0.0
230
1.0
 70
     8
 71
     3
 72
     8
 73
     4
 74
     0
 42
0.00000001
 43
0.00000001
 40
0.6111111111111113
 40
0.6111111111111113
 40
0.6111111111111113
 40
0.6111111111111113
 40
0.6666666666666669
 40
0.6666666666666669
 40
0.6666666666666669
 40
0.6666666666666669
 10
331.92078435794
 20
44.51363678462948
 30
0.0
 10
331.92078435794
 20
44.6826801179628
 30
0.0
 10
331.9481276912733
 20
44.84509345129614
 30
0.0
 10
331.9985676912734
 20
44.99715011796281
 30
0.0
  0
SPLINE
  5
12C
330
1F
100
AcDbEntity
  8
LAYER_2
 62
    22
100
AcDbSpline
210
0.0
220
0.0
230
1.0
 70
     8
 71
     3
 72
     8
 73
     4
 74
     0
 42
0.00000001
 43
0.00000001
 40
0.6666666666666669
 40
0.6666666666666669
 40
0.6666666666666669
 40
0.6666666666666669
 40
0.7222222222222224
 40
0.7222222222222224
 40
0.7222222222222224
 40
0.7222222222222224
 10
331.9985676912734
 20
44.99715011796281
 30
0.0
 10
331.8558276912734
 20
45.08282011796281
 30
0.0
 10
331.2394110246067
 20
45.42905345129613
 30
0.0
 10
330.61896435794
 20
45.41774345129613
 30
0.0
  0
SPLINE
  5
12D
330
1F
100
AcDbEntity
  8
LAYER_2
 62
    22
100
AcDbSpline
210
0.0
220
0.0
230
1.0
 70
     8
 71
     3
 72
     8
 73
     4
 74
     0
 42
0.00000001
 43
0.00000001
 40
0.7222222222222224
 40
0.7222222222222224
 40
0.7222222222222224
 40
0.7222222222222224
 40
0.777777777777778
 40
0.777777777777778
 40
0.777777777777778
 40
0.777777777777778
 10
330.61896435794
 20
45.41774345129613
 30
0.0
 10
329.91098435794
 20
45.40435345129614
 30
0.0
 10
329.4893510246067
 20
45.08282011796281
 30
0.0
 10
329.49160435794
 20
44.51849011796281
 30
0.0
  0
SPLINE
  5
12E
330
1F
100
AcDbEntity
  8
LAYER_2
 62
    22
100
AcDbSpline
210
0.0
220
0.0
230
1.0
 70
     8
 71
     3
 72
     8
 73
     4
 74
     0
 42
0.00000001
 43
0.00000001
 40
0.777777777777778
 40
0.777777777777778
 40
0.777777777777778
 40
0.777777777777778
 40
0.8333333333333336
 40
0.8333333333333336
 40
0.8333333333333336
 40
0.8333333333333336
 10
329.49160435794
 20
44.51849011796281
 30
0.0
 10
329.4913010246067
 20
44.4376301179628
 30
0.0
 10
329.4996210246067
 20
44.36192678462947
 30
0.0
 10
329.51630435794
 20
44.2912501179628
 30
0.0
  0
SPLINE
  5
12F
330
1F
100
AcDbEntity
  8
LAYER_2
 62
    22
100
AcDbSpline
210
0.0
220
0.0
230
1.0
 70
     8
 71
     3
 72
     8
 73
     4
 74
     0
 42
0.00000001
 43
0.00000001
 40
0.9444444444444448
 40
0.9444444444444448
 40
0.9444444444444448
 40
0.9444444444444448
 40
1.0
 40
1.0
 40
1.0
 40
1.0
 10
328.77829435794
 20
50.72737678462948
 30
0.0
 10
328.77829435794
 20
51.04960345129614
 30
0.0
 10
329.0411543579401
 20
51.31246345129614
 30
0.0
 10
329.3633810246067
 20
51.31246345129614
 30
0.0
  0
SPLINE
  5
130
330
1F
100
AcDbEntity
  8
LAYER_2
 62
    22
100
AcDbSpline
210
0.0
220
0.0
230
1.0
 70
     8
 71
     3
 72
     8
 73
     4
 74
     0
 42
0.00000001
 43
0.00000001
 40
0.0
 40
0.0
 40
0.0
 40
0.0
 40
0.2
 40
0.2
 40
0.2
 40
0.2
 10
332.08783435794
 20
45.21152011796281
 30
0.0
 10
331.91922435794
 20
45.2540301179628
 30
0.0
 10
331.2464310246067
 20
45.44560678462947
 30
0.0
 10
330.8192943579401
 20
45.8886901179628
 30
0.0
  0
SPLINE
  5
131
330
1F
100
AcDbEntity
  8
LAYER_2
 62
    22
100
AcDbSpline
210
0.0
220
0.0
230
1.0
 70
     8
 71
     3
 72
     8
 73
     4
 74
     0
 42
0.00000001
 43
0.00000001
 40
0.2
 40
0.2
 40
0.2
 40
0.2
 40
0.4
 40
0.4
 40
0.4
 40
0.4
 10
330.8192943579401
 20
45.8886901179628
 30
0.0
 10
330.3280676912734
 20
46.39885345129613
 30
0.0
 10
330.2573476912734
 20
46.92422678462948
 30
0.0
 10
330.6579210246067
 20
47.32176678462947
 30
0.0
  0
SPLINE
  5
132
330
1F
100
AcDbEntity
  8
LAYER_2
 62
    22
100
AcDbSpline
210
0.0
220
0.0
230
1.0
 70
     8
 71
     3
 72
     8
 73
     4
 74
     0
 42
0.00000001
 43
0.00000001
 40
0.4
 40
0.4
 40
0.4
 40
0.4
 40
0.6000000000000001
 40
0.6000000000000001
 40
0.6000000000000001
 40
0.6000000000000001
 10
330.6579210246067
 20
47.32176678462947
 30
0.0
 10
331.0555910246067
 20
47.72225345129615
 30
0.0
 10
331.5808776912734
 20
47.65153345129613
 30
0.0
 10
332.0909543579401
 20
47.16030678462947
 30
0.0
  0
SPLINE
  5
133
330
1F
100
AcDbEntity
  8
LAYER_2
 62
    22
100
AcDbSpline
210
0.0
220
0.0
230
1.0
 70
     8
 71
     3
 72
     8
 73
     4
 74
     0
 42
0.00000001
 43
0.00000001
 40
0.6000000000000001
 40
0.6000000000000001
 40
0.6000000000000001
 40
0.6000000000000001
 40
0.8
 40
0.8
 40
0.8
 40
0.8
 10
332.0909543579401
 20
47.16030678462947
 30
0.0
 10
332.53672435794
 20
46.7307001179628
 30
0.0
 10
332.7278676912734
 20
46.05188345129614
 30
0.0
 10
332.7688176912733
 20
45.88856011796281
 30
0.0
  0
SPLINE
  5
134
330
1F
100
AcDbEntity
  8
LAYER_2
 62
    22
100
AcDbSpline
210
0.0
220
0.0
230
1.0
 70
     8
 71
     3
 72
     8
 73
     4
 74
     0
 42
0.00000001
 43
0.00000001
 40
0.8
 40
0.8
 40
0.8
 40
0.8
 40
1.0
 40
1.0
 40
1.0
 40
1.0
 10
332.7688176912733
 20
45.88856011796281
 30
0.0
 10
332.4760143579401
 20
45.74118345129614
 30
0.0
 10
332.23668435794
 20
45.50332678462947
 30
0.0
 10
332.08783435794
 20
45.21152011796281
 30
0.0
  0
SPLINE
  5
135
330
1F
100
AcDbEntity
  8
LAYER_2
 62
    22
100
AcDbSpline
210
0.0
220
0.0
230
1.0
 70
     8
 71
     3
 72
     8
 73
     4
 74
     0
 42
0.00000001
 43
0.00000001
 40
0.0
 40
0.0
 40
0.0
 40
0.0
 40
0.1666666666666667
 40
0.1666666666666667
 40
0.1666666666666667
 40
0.1666666666666667
 10
332.98353435794
 20
45.97691678462947
 30
0.0
 10
332.8953510246067
 20
46.12438011796281
 30
0.0
 10
332.5534510246067
 20
46.7369401179628
 30
0.0
 10
332.5648476912734
 20
47.35379011796281
 30
0.0
  0
SPLINE
  5
136
330
1F
100
AcDbEntity
  8
LAYER_2
 62
    22
100
AcDbSpline
210
0.0
220
0.0
230
1.0
 70
     8
 71
     3
 72
     8
 73
     4
 74
     0
 42
0.00000001
 43
0.00000001
 40
0.1666666666666667
 40
0.1666666666666667
 40
0.1666666666666667
 40
0.1666666666666667
 40
0.3333333333333333
 40
0.3333333333333333
 40
0.3333333333333333
 40
0.3333333333333333
 10
332.5648476912734
 20
47.35379011796281
 30
0.0
 10
332.57819435794
 20
48.06168345129614
 30
0.0
 10
332.8996410246067
 20
48.48336011796281
 30
0.0
 10
333.4639710246067
 20
48.48115011796281
 30
0.0
  0
SPLINE
  5
137
330
1F
100
AcDbEntity
  8
LAYER_2
 62
    22
100
AcDbSpline
210
0.0
220
0.0
230
1.0
 70
     8
 71
     3
 72
     8
 73
     4
 74
     0
 42
0.00000001
 43
0.00000001
 40
0.3333333333333333
 40
0.3333333333333333
 40
0.3333333333333333
 40
0.3333333333333333
 40
0.5
 40
0.5
 40
0.5
 40
0.5
 10
333.4639710246067
 20
48.48115011796281
 30
0.0
 10
334.0283010246067
 20
48.48336011796281
 30
0.0
 10
334.3497910246067
 20
48.06168345129614
 30
0.0
 10
334.3631376912733
 20
47.35379011796281
 30
0.0
  0
SPLINE
  5
138
330
1F
100
AcDbEntity
  8
LAYER_2
 62
    22
100
AcDbSpline
210
0.0
220
0.0
230
1.0
 70
     8
 71
     3
 72
     8
 73
     4
 74
     0
 42
0.00000001
 43
0.00000001
 40
0.5
 40
0.5
 40
0.5
 40
0.5
 40
0.6666666666666666
 40
0.6666666666666666
 40
0.6666666666666666
 40
0.6666666666666666
 10
334.3631376912733
 20
47.35379011796281
 30
0.0
 10
334.3744910246067
 20
46.73321345129615
 30
0.0
 10
334.0283010246067
 20
46.11675345129615
 30
0.0
 10
333.9428043579401
 20
45.9742301179628
 30
0.0
  0
SPLINE
  5
139
330
1F
100
AcDbEntity
  8
LAYER_2
 62
    22
100
AcDbSpline
210
0.0
220
0.0
230
1.0
 70
     8
 71
     3
 72
     8
 73
     4
 74
     0
 42
0.00000001
 43
0.00000001
 40
0.6666666666666666
 40
0.6666666666666666
 40
0.6666666666666666
 40
0.6666666666666666
 40
0.8333333333333333
 40
0.8333333333333333
 40
0.8333333333333333
 40
0.8333333333333333
 10
333.9428043579401
 20
45.9742301179628
 30
0.0
 10
333.7906610246067
 20
46.0245401179628
 30
0.0
 10
333.6279876912733
 20
46.0519701179628
 30
0.0
 10
333.4591176912734
 20
46.0519701179628
 30
0.0
  0
SPLINE
  5
13A
330
1F
100
AcDbEntity
  8
LAYER_2
 62
    22
100
AcDbSpline
210
0.0
220
0.0
230
1.0
 70
     8
 71
     3
 72
     8
 73
     4
 74
     0
 42
0.00000001
 43
0.00000001
 40
0.8333333333333333
 40
0.8333333333333333
 40
0.8333333333333333
 40
0.8333333333333333
 40
1.0
 40
1.0
 40
1.0
 40
1.0
 10
333.4591176912734
 20
46.0519701179628
 30
0.0
 10
333.29319435794
 20
46.0519701179628
 30
0.0
 10
333.1333376912734
 20
46.02562345129614
 30
0.0
 10
332.98353435794
 20
45.97691678462947
 30
0.0
  0
SPLINE
  5
13B
330
1F
100
AcDbEntity
  8
LAYER_2
 62
    22
100
AcDbSpline
210
0.0
220
0.0
230
1.0
 70
     8
 71
     3
 72
     8
 73
     4
 74
     0
 42
0.00000001
 43
0.00000001
 40
0.0
 40
0.0
 40
0.0
 40
0.0
 40
0.2
 40
0.2
 40
0.2
 40
0.2
 10
334.1569576912734
 20
45.88470345129614
 30
0.0
 10
334.1993810246067
 20
46.05309678462947
 30
0.0
 10
334.3909576912733
 20
46.72619345129615
 30
0.0
 10
334.8341276912734
 20
47.15341678462947
 30
0.0
  0
SPLINE
  5
13C
330
1F
100
AcDbEntity
  8
LAYER_2
 62
    22
100
AcDbSpline
210
0.0
220
0.0
230
1.0
 70
     8
 71
     3
 72
     8
 73
     4
 74
     0
 42
0.00000001
 43
0.00000001
 40
0.2
 40
0.2
 40
0.2
 40
0.2
 40
0.4
 40
0.4
 40
0.4
 40
0.4
 10
334.8341276912734
 20
47.15341678462947
 30
0.0
 10
335.3441610246066
 20
47.64464345129615
 30
0.0
 10
335.86966435794
 20
47.71532011796281
 30
0.0
 10
336.26707435794
 20
47.31474678462948
 30
0.0
  0
SPLINE
  5
13D
330
1F
100
AcDbEntity
  8
LAYER_2
 62
    22
100
AcDbSpline
210
0.0
220
0.0
230
1.0
 70
     8
 71
     3
 72
     8
 73
     4
 74
     0
 42
0.00000001
 43
0.00000001
 40
0.4
 40
0.4
 40
0.4
 40
0.4
 40
0.6000000000000001
 40
0.6000000000000001
 40
0.6000000000000001
 40
0.6000000000000001
 10
336.26707435794
 20
47.31474678462948
 30
0.0
 10
336.6676910246067
 20
46.91725011796283
 30
0.0
 10
336.59688435794
 20
46.39187678462949
 30
0.0
 10
336.1057443579401
 20
45.88175678462947
 30
0.0
  0
SPLINE
  5
13E
330
1F
100
AcDbEntity
  8
LAYER_2
 62
    22
100
AcDbSpline
210
0.0
220
0.0
230
1.0
 70
     8
 71
     3
 72
     8
 73
     4
 74
     0
 42
0.00000001
 43
0.00000001
 40
0.6000000000000001
 40
0.6000000000000001
 40
0.6000000000000001
 40
0.6000000000000001
 40
0.8
 40
0.8
 40
0.8
 40
0.8
 10
336.1057443579401
 20
45.88175678462947
 30
0.0
 10
335.6760076912734
 20
45.43594345129614
 30
0.0
 10
334.99723435794
 20
45.24475678462947
 30
0.0
 10
334.8340410246067
 20
45.20389345129613
 30
0.0
  0
SPLINE
  5
13F
330
1F
100
AcDbEntity
  8
LAYER_2
 62
    22
100
AcDbSpline
210
0.0
220
0.0
230
1.0
 70
     8
 71
     3
 72
     8
 73
     4
 74
     0
 42
0.00000001
 43
0.00000001
 40
0.8
 40
0.8
 40
0.8
 40
0.8
 40
1.0
 40
1.0
 40
1.0
 40
1.0
 10
334.8340410246067
 20
45.20389345129613
 30
0.0
 10
334.6866643579401
 20
45.49656678462947
 30
0.0
 10
334.4488076912734
 20
45.73585345129614
 30
0.0
 10
334.1569576912734
 20
45.88470345129614
 30
0.0
  0
INSERT
  5
140
330
1F
100
AcDbEntity
  8
0
  6
Continuous
 62
     7
100
AcDbBlockReference
  2
Block4
 10
339.0438836216
 20
44.3941752369
 30
0.0
 41
0.8
 42
0.8
 43
0.8
  0
INSERT
  5
141
330
1F
100
AcDbEntity
  8
0
  6
Continuous
 62
     7
100
AcDbBlockReference
  2
Block5
 10
401.9449716881
 20
5.8703766256
 30
0.0
 41
0.8
 42
0.8
 43
0.8
  0
INSERT
  5
142
330
1F
100
AcDbEntity
  8
0
  6
Continuous
 62
     7
100
AcDbBlockReference
  2
Block6
 10
339.2578110246
 20
46.750720118
 30
0.0
 41
0.9
 42
0.9
 43
0.9
  0
MTEXT
  5
144
330
1F
100
AcDbEntity
  8
0
  6
Continuous
 62
     7
370
     0
100
AcDbMText
 10
6.6666666667
 20
124.6680204618
 30
0.0
 40
1.8520833333
 41
0.0
 71
     1
 72
     1
  1
D
  7
SLDTEXTSTYLE1
 73
     1
 44
1.0
  0
MTEXT
  5
145
330
1F
100
AcDbEntity
  8
0
  6
Continuous
 62
     7
370
     0
100
AcDbMText
 10
6.6666666667
 20
74.6680204618
 30
0.0
 40
1.8520833333
 41
0.0
 71
     1
 72
     1
  1
E
  7
SLDTEXTSTYLE1
 73
     1
 44
1.0
  0
MTEXT
  5
146
330
1F
100
AcDbEntity
  8
0
  6
Continuous
 62
     7
370
     0
100
AcDbMText
 10
6.6666666667
 20
24.6680204618
 30
0.0
 40
1.8520833333
 41
0.0
 71
     1
 72
     1
  1
F
  7
SLDTEXTSTYLE1
 73
     1
 44
1.0
  0
MTEXT
  5
147
330
1F
100
AcDbEntity
  8
0
  6
Continuous
 62
     7
370
     0
100
AcDbMText
 10
6.6666666667
 20
174.6680204618
 30
0.0
 40
1.8520833333
 41
0.0
 71
     1
 72
     1
  1
C
  7
SLDTEXTSTYLE1
 73
     1
 44
1.0
  0
MTEXT
  5
148
330
1F
100
AcDbEntity
  8
0
  6
Continuous
 62
     7
370
     0
100
AcDbMText
 10
34.5833333333
 20
8.6680244618
 30
0.0
 40
1.8520833333
 41
0.0
 71
     1
 72
     1
  1
1
  7
SLDTEXTSTYLE1
 73
     1
 44
1.0
  0
MTEXT
  5
149
330
1F
100
AcDbEntity
  8
0
  6
Continuous
 62
     7
370
     0
100
AcDbMText
 10
84.1666666667
 20
8.6680244618
 30
0.0
 40
1.8520833333
 41
0.0
 71
     1
 72
     1
  1
2
  7
SLDTEXTSTYLE1
 73
     1
 44
1.0
  0
MTEXT
  5
14A
330
1F
100
AcDbEntity
  8
0
  6
Continuous
 62
     7
370
     0
100
AcDbMText
 10
134.1666666667
 20
8.6680244618
 30
0.0
 40
1.8520833333
 41
0.0
 71
     1
 72
     1
  1
3
  7
SLDTEXTSTYLE1
 73
     1
 44
1.0
  0
MTEXT
  5
14B
330
1F
100
AcDbEntity
  8
0
  6
Continuous
 62
     7
370
     0
100
AcDbMText
 10
6.6666666667
 20
224.6680204618
 30
0.0
 40
1.8520833333
 41
0.0
 71
     1
 72
     1
  1
B
  7
SLDTEXTSTYLE1
 73
     1
 44
1.0
  0
MTEXT
  5
14C
330
1F
100
AcDbEntity
  8
0
  6
Continuous
 62
     7
370
     0
100
AcDbMText
 10
6.6666666667
 20
274.6680204618
 30
0.0
 40
1.8520833333
 41
0.0
 71
     1
 72
     1
  1
A
  7
SLDTEXTSTYLE1
 73
     1
 44
1.0
  0
MTEXT
  5
14D
330
1F
100
AcDbEntity
  8
0
  6
Continuous
 62
     7
370
     0
100
AcDbMText
 10
134.1666666667
 20
290.6680244618
 30
0.0
 40
1.8520833333
 41
0.0
 71
     1
 72
     1
  1
3
  7
SLDTEXTSTYLE1
 73
     1
 44
1.0
  0
MTEXT
  5
14E
330
1F
100
AcDbEntity
  8
0
  6
Continuous
 62
     7
370
     0
100
AcDbMText
 10
84.1666666667
 20
290.6680244618
 30
0.0
 40
1.8520833333
 41
0.0
 71
     1
 72
     1
  1
2
  7
SLDTEXTSTYLE1
 73
     1
 44
1.0
  0
MTEXT
  5
14F
330
1F
100
AcDbEntity
  8
0
  6
Continuous
 62
     7
370
     0
100
AcDbMText
 10
34.5833333333
 20
290.6680244618
 30
0.0
 40
1.8520833333
 41
0.0
 71
     1
 72
     1
  1
1
  7
SLDTEXTSTYLE1
 73
     1
 44
1.0
  0
MTEXT
  5
150
330
1F
100
AcDbEntity
  8
0
  6
Continuous
 62
     7
370
     0
100
AcDbMText
 10
411.6666666667
 20
174.6680204618
 30
0.0
 40
1.8520833333
 41
0.0
 71
     1
 72
     1
  1
C
  7
SLDTEXTSTYLE1
 73
     1
 44
1.0
  0
MTEXT
  5
151
330
1F
100
AcDbEntity
  8
0
  6
Continuous
 62
     7
370
     0
100
AcDbMText
 10
411.6666666667
 20
124.6680204618
 30
0.0
 40
1.8520833333
 41
0.0
 71
     1
 72
     1
  1
D
  7
SLDTEXTSTYLE1
 73
     1
 44
1.0
  0
MTEXT
  5
152
330
1F
100
AcDbEntity
  8
0
  6
Continuous
 62
     7
370
     0
100
AcDbMText
 10
184.1666666667
 20
290.6680244618
 30
0.0
 40
1.8520833333
 41
0.0
 71
     1
 72
     1
  1
4
  7
SLDTEXTSTYLE1
 73
     1
 44
1.0
  0
MTEXT
  5
153
330
1F
100
AcDbEntity
  8
0
  6
Continuous
 62
     7
370
     0
100
AcDbMText
 10
284.1666666667
 20
290.6680244618
 30
0.0
 40
1.8520833333
 41
0.0
 71
     1
 72
     1
  1
6
  7
SLDTEXTSTYLE1
 73
     1
 44
1.0
  0
MTEXT
  5
154
330
1F
100
AcDbEntity
  8
0
  6
Continuous
 62
     7
370
     0
100
AcDbMText
 10
334.1666666667
 20
290.6680244618
 30
0.0
 40
1.8520833333
 41
0.0
 71
     1
 72
     1
  1
7
  7
SLDTEXTSTYLE1
 73
     1
 44
1.0
  0
MTEXT
  5
155
330
1F
100
AcDbEntity
  8
0
  6
Continuous
 62
     7
370
     0
100
AcDbMText
 10
384.1666666667
 20
290.6680244618
 30
0.0
 40
1.8520833333
 41
0.0
 71
     1
 72
     1
  1
8
  7
SLDTEXTSTYLE1
 73
     1
 44
1.0
  0
MTEXT
  5
156
330
1F
100
AcDbEntity
  8
0
  6
Continuous
 62
     7
370
     0
100
AcDbMText
 10
411.6666666667
 20
274.6680204618
 30
0.0
 40
1.8520833333
 41
0.0
 71
     1
 72
     1
  1
A
  7
SLDTEXTSTYLE1
 73
     1
 44
1.0
  0
MTEXT
  5
157
330
1F
100
AcDbEntity
  8
0
  6
Continuous
 62
     7
370
     0
100
AcDbMText
 10
411.6666666667
 20
224.6680204618
 30
0.0
 40
1.8520833333
 41
0.0
 71
     1
 72
     1
  1
B
  7
SLDTEXTSTYLE1
 73
     1
 44
1.0
  0
INSERT
  5
15D
330
1F
100
AcDbEntity
  8
LAYER_1
100
AcDbBlockReference
  2
SW_NOTE_0_1
 10
358.5788230923
 20
32.7988323377
 30
0.0
  0
MTEXT
  5
15E
330
1F
100
AcDbEntity
  8
LAYER_1
100
AcDbMText
 10
368.3949380578
 20
19.3492325897
 30
0.0
 40
4.7625
 41
0.0
 71
     2
 72
     1
  1
EC-1015-P-2
  7
SLDTEXTSTYLE1
 73
     1
 44
1.0
  0
MTEXT
  5
15F
330
1F
100
AcDbEntity
  8
LAYER_1
100
AcDbMText
 10
294.9152624882
 20
8.4515707661
 30
0.0
 40
1.3229166667
 41
0.0
 71
     1
 72
     1
  1
WEIGHT:
  7
SLDTEXTSTYLE1
 73
     1
 44
1.0
  0
MTEXT
  5
160
330
1F
100
AcDbEntity
  8
0
  6
Continuous
 62
     7
370
     0
100
AcDbMText
 10
405.9209848464
 20
19.3004443947
 30
0.0
 40
2.9104166667
 41
0.0
 71
     1
 72
     1
  1
A3
  7
SLDTEXTSTYLE1
 73
     1
 44
1.0
  0
MTEXT
  5
161
330
1F
100
AcDbEntity
  8
LAYER_1
100
AcDbMText
 10
372.2782944278
 20
7.9000873327
 30
0.0
 40
1.5
 41
0.0
 71
     1
 72
     1
  1
SHEET 1 OF 1
  7
SLDTEXTSTYLE1
 73
     1
 44
1.0
  0
MTEXT
  5
162
330
1F
100
AcDbEntity
  8
LAYER_1
100
AcDbMText
 10
327.5554933472
 20
8.0098351215
 30
0.0
 40
1.3229166667
 41
0.0
 71
     1
 72
     1
  1
SCALE:1:1
  7
SLDTEXTSTYLE1
 73
     1
 44
1.0
  0
MTEXT
  5
163
330
1F
100
AcDbEntity
  8
0
  6
Continuous
 62
     7
370
     0
100
AcDbMText
 10
327.5554933472
 20
19.978385674
 30
0.0
 40
1.3229166667
 41
0.0
 71
     1
 72
     1
  1
DWG NO.
  7
SLDTEXTSTYLE1
 73
     1
 44
1.0
  0
MTEXT
  5
164
330
1F
100
AcDbEntity
  8
0
  6
Continuous
 62
     7
370
     0
100
AcDbMText
 10
327.4377141664
 20
41.388082133
 30
0.0
 40
1.3229166667
 41
0.0
 71
     1
 72
     1
  1
TITLE:
  7
SLDTEXTSTYLE1
 73
     1
 44
1.0
  0
MTEXT
  5
165
330
1F
100
AcDbEntity
  8
0
  6
Continuous
 62
     7
370
     0
100
AcDbMText
 10
292.8255040846
 20
16.9867649068
 30
0.0
 40
1.3229166667
 41
0.0
 71
     1
 72
     1
  1
MATERIAL:
  7
SLDTEXTSTYLE1
 73
     1
 44
1.0
  0
MTEXT
  5
166
330
1F
100
AcDbEntity
  8
0
  6
Continuous
 62
     7
370
     0
100
AcDbMText
 10
184.1666666667
 20
8.6680244618
 30
0.0
 40
1.8520833333
 41
0.0
 71
     1
 72
     1
  1
4
  7
SLDTEXTSTYLE1
 73
     1
 44
1.0
  0
MTEXT
  5
167
330
1F
100
AcDbEntity
  8
0
  6
Continuous
 62
     7
370
     0
100
AcDbMText
 10
373.1782835779
 20
46.9640424121
 30
0.0
 40
2.38125
 41
0.0
 71
     1
 72
     1
  1
www.altinkaya.com.tr
  7
SLDTEXTSTYLE0
 73
     1
 44
1.0
  0
MTEXT
  5
168
330
1F
100
AcDbEntity
  8
0
  6
Continuous
 62
     7
370
     0
100
AcDbMText
 10
373.3794022408
 20
50.2302815293
 30
0.0
 40
1.5
 41
0.0
 71
     1
 72
     1
  1
CONTACT:
  7
SLDTEXTSTYLE1
 73
     1
 44
1.0
  0
MTEXT
  5
169
330
1F
100
AcDbEntity
  8
0
  6
Continuous
 62
     7
370
     0
100
AcDbMText
 10
235.0964722989
 20
8.6680244618
 30
0.0
 40
1.8520833333
 41
0.0
 71
     1
 72
     1
  1
5
  7
SLDTEXTSTYLE1
 73
     1
 44
1.0
  0
MTEXT
  5
16A
330
1F
100
AcDbEntity
  8
0
  6
Continuous
 62
     7
370
     0
100
AcDbMText
 10
397.4884718323
 20
59.2425287544
 30
0.0
 40
1.5
 41
0.0
 71
     1
 72
     1
  1
REVISION:
  7
SLDTEXTSTYLE1
 73
     1
 44
1.0
  0
MTEXT
  5
16B
330
1F
100
AcDbEntity
  8
0
  6
Continuous
 62
     7
370
     0
100
AcDbMText
 10
327.3721757467
 20
59.0727632777
 30
0.0
 40
1.3229166667
 41
0.0
 71
     1
 72
     1
  1
ARTICLE NO:
  7
SLDTEXTSTYLE1
 73
     1
 44
1.0
  0
MTEXT
  5
16C
330
1F
100
AcDbEntity
  8
0
  6
Continuous
 62
     7
370
     0
100
AcDbMText
 10
236.9750950622
 20
290.6138672109
 30
0.0
 40
1.8520833333
 41
0.0
 71
     1
 72
     1
  1
5
  7
SLDTEXTSTYLE1
 73
     1
 44
1.0
  0
MTEXT
  5
16D
330
1F
100
AcDbEntity
  8
0
  6
Continuous
 62
     7
370
     0
100
AcDbMText
 10
307.6157438424
 20
45.9955605234
 30
0.0
 40
1.3229166667
 41
0.0
 71
     1
 72
     1
  1
NAME
  7
SLDTEXTSTYLE1
 73
     1
 44
1.0
  0
MTEXT
  5
16E
330
1F
100
AcDbEntity
  8
0
  6
Continuous
 62
     7
370
     0
100
AcDbMText
 10
320.2640892495
 20
45.9955605234
 30
0.0
 40
1.3229166667
 41
0.0
 71
     1
 72
     1
  1
DATE
  7
SLDTEXTSTYLE1
 73
     1
 44
1.0
  0
MTEXT
  5
16F
330
1F
100
AcDbEntity
  8
0
  6
Continuous
 62
     7
370
     0
100
AcDbMText
 10
293.042558421
 20
42.3020796844
 30
0.0
 40
1.3229166667
 41
0.0
 71
     1
 72
     1
  1
DRAWN
  7
SLDTEXTSTYLE1
 73
     1
 44
1.0
  0
MTEXT
  5
170
330
1F
100
AcDbEntity
  8
0
  6
Continuous
 62
     7
370
     0
100
AcDbMText
 10
293.1033805725
 20
38.244148871
 30
0.0
 40
1.3229166667
 41
0.0
 71
     1
 72
     1
  1
CHECKED
  7
SLDTEXTSTYLE1
 73
     1
 44
1.0
  0
INSERT
  5
17A
330
1F
100
AcDbEntity
  8
0
  6
Continuous
 62
     7
370
     0
100
AcDbBlockReference
  2
SW_NOTE_0_2
 10
293.069897002
 20
33.2706730376
 30
0.0
  0
MTEXT
  5
17B
330
1F
100
AcDbEntity
  8
0
  6
Continuous
 62
     7
370
     0
100
AcDbMText
 10
322.8806680113
 20
38.9372411461
 30
0.0
 40
1.3229166667
 41
0.0
 71
     2
 72
     1
  1
15.12.20
  7
SLDTEXTSTYLE1
 73
     1
 44
1.0
  0
MTEXT
  5
17C
330
1F
100
AcDbEntity
  8
0
  6
Continuous
 62
     7
370
     0
100
AcDbMText
 10
322.7361018662
 20
42.654287534
 30
0.0
 40
1.3229166667
 41
0.0
 71
     2
 72
     1
  1
15.12.20
  7
SLDTEXTSTYLE1
 73
     1
 44
1.0
  0
MTEXT
  5
17E
330
1F
100
AcDbEntity
  8
0
  6
Continuous
 62
     7
370
     0
100
AcDbMText
 10
310.9114171636
 20
42.3020796844
 30
0.0
 40
1.3229166667
 41
0.0
 71
     2
 72
     1
  1
Dursun Daþdemir
  7
SLDTEXTSTYLE2
 73
     1
 44
1.0
  0
MTEXT
  5
17F
330
1F
100
AcDbEntity
  8
0
  6
Continuous
 62
     7
370
     0
100
AcDbMText
 10
310.9112634581
 20
38.2441489001
 30
0.0
 40
1.3229166667
 41
0.0
 71
     2
 72
     1
  1
Ali Altýnýþýk
  7
SLDTEXTSTYLE2
 73
     1
 44
1.0
  0
MTEXT
  5
180
330
1F
100
AcDbEntity
  8
0
  6
Continuous
 62
     7
370
     0
100
AcDbMText
 10
294.4686282226
 20
58.7735961661
 30
0.0
 40
1.0583333333
 41
0.0
 71
     1
 72
     1
  1
PROPRIETARY AND CONFIDENTIAL
  7
SLDTEXTSTYLE1
 73
     1
 44
1.0
  0
INSERT
  5
18A
330
1F
100
AcDbEntity
  8
0
  6
Continuous
 62
     7
370
     0
100
AcDbBlockReference
  2
SW_NOTE_0_3
 10
294.6856505969
 20
55.4572814459
 30
0.0
  0
MTEXT
  5
18B
330
1F
100
AcDbEntity
  8
0
  6
Continuous
 62
     7
370
     0
100
AcDbMText
 10
284.3493443358
 20
8.9837718797
 30
0.0
 40
1.8520833333
 41
0.0
 71
     1
 72
     1
  1
6
  7
SLDTEXTSTYLE1
 73
     1
 44
1.0
  0
INSERT
  5
19A
330
1F
100
AcDbEntity
  8
LAYER_1
100
AcDbBlockReference
  2
SW_NOTE_0_4
 10
256.760371547
 20
38.9956174797
 30
0.0
  0
LINE
  5
19B
330
1F
100
AcDbEntity
  8
0
  6
Continuous
 62
     7
370
    25
100
AcDbLine
 10
106.1436235865
 20
228.8966095422
 30
0.0
 11
96.1436235865
 21
228.8966095422
 31
0.0
  0
LINE
  5
19C
330
1F
100
AcDbEntity
  8
0
  6
Continuous
 62
     7
370
    25
100
AcDbLine
 10
196.1436235865
 20
228.8966095422
 30
0.0
 11
186.1436235865
 21
228.8966095422
 31
0.0
  0
LINE
  5
19D
330
1F
100
AcDbEntity
  8
0
  6
Continuous
 62
     7
370
    25
100
AcDbLine
 10
102.8936235865
 20
223.5507505077
 30
0.0
 11
102.8759902157
 21
223.640905968
 31
0.0
  0
LINE
  5
19E
330
1F
100
AcDbEntity
  8
0
  6
Continuous
 62
     7
370
    25
100
AcDbLine
 10
102.8936235865
 20
223.5507505077
 30
0.0
 11
102.7197611136
 21
222.6618307738
 31
0.0
  0
ELLIPSE
  5
19F
330
1F
100
AcDbEntity
  8
0
  6
Continuous
 62
     7
370
    25
100
AcDbEllipse
 10
102.8936235865
 20
224.8966095422
 30
0.0
 11
0.0
 21
4.0
 31
0.0
210
0.0
220
0.0
230
1.0
 40
0.0524077793
 41
0.9779852109064339
 42
2.16360744268337
  0
LINE
  5
1A0
330
1F
100
AcDbEntity
  8
0
  6
Continuous
 62
     7
370
    25
100
AcDbLine
 10
102.7197611136
 20
227.1313883106
 30
0.0
 11
102.8936235865
 21
226.2424685767
 31
0.0
  0
LINE
  5
1A1
330
1F
100
AcDbEntity
  8
0
  6
Continuous
 62
     7
370
    25
100
AcDbLine
 10
102.8759902157
 20
226.1523131164
 30
0.0
 11
102.8936235865
 21
226.2424685767
 31
0.0
  0
ELLIPSE
  5
1A2
330
1F
100
AcDbEntity
  8
0
  6
Continuous
 62
     7
370
    25
100
AcDbEllipse
 10
102.8936235865
 20
224.8966095422
 30
0.0
 11
0.0
 21
1.299999999999955
 31
0.0
210
0.0
220
0.0
230
1.0
 40
0.0524077793
 41
0.2617993877989783
 42
2.879793265790823
  0
LINE
  5
1A3
330
1F
100
AcDbEntity
  8
0
  6
Continuous
 62
     7
370
    25
100
AcDbLine
 10
102.7197611136
 20
227.1313883106
 30
0.0
 11
106.0857165201
 21
227.1313883106
 31
0.0
  0
LINE
  5
1A4
330
1F
100
AcDbEntity
  8
0
  6
Continuous
 62
     7
370
    25
100
AcDbLine
 10
106.0857165201
 20
222.6618307738
 30
0.0
 11
102.7197611136
 21
222.6618307738
 31
0.0
  0
ELLIPSE
  5
1A5
330
1F
100
AcDbEntity
  8
0
  6
Continuous
 62
     7
370
    25
100
AcDbEllipse
 10
106.1436235865
 20
224.8966095422
 30
0.0
 11
0.0
 21
4.0
 31
0.0
210
0.0
220
0.0
230
1.0
 40
0.0174550649
 41
2.163607442683358
 42
3.141592653589786
  0
LINE
  5
1A6
330
1F
100
AcDbEntity
  8
0
  6
Continuous
 62
     7
370
    25
100
AcDbLine
 10
96.1436235865
 20
220.8966095422
 30
0.0
 11
106.1436235865
 21
220.8966095422
 31
0.0
  0
ELLIPSE
  5
1A7
330
1F
100
AcDbEntity
  8
0
  6
Continuous
 62
     7
370
    25
100
AcDbEllipse
 10
96.1436235865
 20
224.8966095422
 30
0.0
 11
0.0
 21
4.0
 31
0.0
210
0.0
220
0.0
230
1.0
 40
0.0174550649
 41
3.141592653589786
 42
4.119577864496572
  0
LINE
  5
1A8
330
1F
100
AcDbEntity
  8
0
  6
Continuous
 62
     7
370
    25
100
AcDbLine
 10
99.5674860594
 20
222.6618307738
 30
0.0
 11
96.2015306529
 21
222.6618307738
 31
0.0
  0
ELLIPSE
  5
1A9
330
1F
100
AcDbEntity
  8
0
  6
Continuous
 62
     7
370
    25
100
AcDbEllipse
 10
99.3936235865
 20
224.8966095422
 30
0.0
 11
0.0
 21
4.0
 31
0.0
210
0.0
220
0.0
230
1.0
 40
0.0524077793
 41
4.1195778644963
 42
5.305200096273242
  0
LINE
  5
1AA
330
1F
100
AcDbEntity
  8
0
  6
Continuous
 62
     7
370
    25
100
AcDbLine
 10
96.2015306529
 20
227.1313883106
 30
0.0
 11
99.5674860594
 21
227.1313883106
 31
0.0
  0
ELLIPSE
  5
1AB
330
1F
100
AcDbEntity
  8
0
  6
Continuous
 62
     7
370
    25
100
AcDbEllipse
 10
96.1436235865
 20
224.8966095422
 30
0.0
 11
0.0
 21
4.0
 31
0.0
210
0.0
220
0.0
230
1.0
 40
0.0174550649
 41
5.305200096273293
 42
6.283185307179586
  0
ELLIPSE
  5
1AC
330
1F
100
AcDbEntity
  8
0
  6
Continuous
 62
     7
370
    25
100
AcDbEllipse
 10
106.1436235865
 20
224.8966095422
 30
0.0
 11
0.0
 21
4.0
 31
0.0
210
0.0
220
0.0
230
1.0
 40
0.0174550649
 41
0.0
 42
0.9779852109064495
  0
LINE
  5
1AD
330
1F
100
AcDbEntity
  8
0
  6
Continuous
 62
     7
370
    25
100
AcDbLine
 10
99.5674860594
 20
222.6618307738
 30
0.0
 11
99.3936235865
 21
223.5507505077
 31
0.0
  0
LINE
  5
1AE
330
1F
100
AcDbEntity
  8
0
  6
Continuous
 62
     7
370
    25
100
AcDbLine
 10
99.3936235865
 20
223.5507505077
 30
0.0
 11
99.4112569573
 21
223.640905968
 31
0.0
  0
ELLIPSE
  5
1AF
330
1F
100
AcDbEntity
  8
0
  6
Continuous
 62
     7
370
    25
100
AcDbEllipse
 10
99.3936235865
 20
224.8966095422
 30
0.0
 11
0.0
 21
1.299999999999955
 31
0.0
210
0.0
220
0.0
230
1.0
 40
0.0524077793
 41
3.403392041389218
 42
6.021385919380653
  0
LINE
  5
1B0
330
1F
100
AcDbEntity
  8
0
  6
Continuous
 62
     7
370
    25
100
AcDbLine
 10
99.4112569573
 20
226.1523131164
 30
0.0
 11
99.3936235865
 21
226.2424685767
 31
0.0
  0
LINE
  5
1B1
330
1F
100
AcDbEntity
  8
0
  6
Continuous
 62
     7
370
    25
100
AcDbLine
 10
99.3936235865
 20
226.2424685767
 30
0.0
 11
99.5674860594
 21
227.1313883106
 31
0.0
  0
LINE
  5
1B2
330
1F
100
AcDbEntity
  8
0
  6
Continuous
 62
     7
370
    25
100
AcDbLine
 10
189.4112569573
 20
226.1523131164
 30
0.0
 11
189.3936235865
 21
226.2424685767
 31
0.0
  0
LINE
  5
1B3
330
1F
100
AcDbEntity
  8
0
  6
Continuous
 62
     7
370
    25
100
AcDbLine
 10
189.3936235865
 20
226.2424685767
 30
0.0
 11
189.5674860594
 21
227.1313883106
 31
0.0
  0
ELLIPSE
  5
1B4
330
1F
100
AcDbEntity
  8
0
  6
Continuous
 62
     7
370
    25
100
AcDbEllipse
 10
189.3936235865
 20
224.8966095422
 30
0.0
 11
0.0
 21
4.0
 31
0.0
210
0.0
220
0.0
230
1.0
 40
0.0524077793
 41
4.1195778644963
 42
5.305200096273237
  0
LINE
  5
1B5
330
1F
100
AcDbEntity
  8
0
  6
Continuous
 62
     7
370
    25
100
AcDbLine
 10
189.5674860594
 20
222.6618307738
 30
0.0
 11
189.3936235865
 21
223.5507505077
 31
0.0
  0
LINE
  5
1B6
330
1F
100
AcDbEntity
  8
0
  6
Continuous
 62
     7
370
    25
100
AcDbLine
 10
189.3936235865
 20
223.5507505077
 30
0.0
 11
189.4112569573
 21
223.640905968
 31
0.0
  0
ELLIPSE
  5
1B7
330
1F
100
AcDbEntity
  8
0
  6
Continuous
 62
     7
370
    25
100
AcDbEllipse
 10
189.3936235865
 20
224.8966095422
 30
0.0
 11
0.0
 21
1.299999999999955
 31
0.0
210
0.0
220
0.0
230
1.0
 40
0.0524077793
 41
3.403392041389218
 42
6.021385919380653
  0
ELLIPSE
  5
1B8
330
1F
100
AcDbEntity
  8
0
  6
Continuous
 62
     7
370
    25
100
AcDbEllipse
 10
192.8936235865
 20
224.8966095422
 30
0.0
 11
0.0
 21
4.0
 31
0.0
210
0.0
220
0.0
230
1.0
 40
0.0524077793
 41
0.9779852109065097
 42
2.163607442683295
  0
LINE
  5
1B9
330
1F
100
AcDbEntity
  8
0
  6
Continuous
 62
     7
370
    25
100
AcDbLine
 10
192.7197611136
 20
227.1313883106
 30
0.0
 11
192.8936235865
 21
226.2424685767
 31
0.0
  0
LINE
  5
1BA
330
1F
100
AcDbEntity
  8
0
  6
Continuous
 62
     7
370
    25
100
AcDbLine
 10
192.8759902157
 20
226.1523131164
 30
0.0
 11
192.8936235865
 21
226.2424685767
 31
0.0
  0
ELLIPSE
  5
1BB
330
1F
100
AcDbEntity
  8
0
  6
Continuous
 62
     7
370
    25
100
AcDbEllipse
 10
192.8936235865
 20
224.8966095422
 30
0.0
 11
0.0
 21
1.299999999999955
 31
0.0
210
0.0
220
0.0
230
1.0
 40
0.0524077793
 41
0.2617993877991797
 42
2.879793265790617
  0
LINE
  5
1BC
330
1F
100
AcDbEntity
  8
0
  6
Continuous
 62
     7
370
    25
100
AcDbLine
 10
192.8936235865
 20
223.5507505077
 30
0.0
 11
192.8759902157
 21
223.640905968
 31
0.0
  0
LINE
  5
1BD
330
1F
100
AcDbEntity
  8
0
  6
Continuous
 62
     7
370
    25
100
AcDbLine
 10
192.8936235865
 20
223.5507505077
 30
0.0
 11
192.7197611136
 21
222.6618307738
 31
0.0
  0
LINE
  5
1BE
330
1F
100
AcDbEntity
  8
0
  6
Continuous
 62
     7
370
    25
100
AcDbLine
 10
196.0857165201
 20
227.1313883106
 30
0.0
 11
192.7197611136
 21
227.1313883106
 31
0.0
  0
LINE
  5
1BF
330
1F
100
AcDbEntity
  8
0
  6
Continuous
 62
     7
370
    25
100
AcDbLine
 10
192.7197611136
 20
222.6618307738
 30
0.0
 11
196.0857165201
 21
222.6618307738
 31
0.0
  0
ELLIPSE
  5
1C0
330
1F
100
AcDbEntity
  8
0
  6
Continuous
 62
     7
370
    25
100
AcDbEllipse
 10
196.1436235865
 20
224.8966095422
 30
0.0
 11
0.0
 21
4.0
 31
0.0
210
0.0
220
0.0
230
1.0
 40
0.0174550649
 41
2.163607442683264
 42
3.141592653589786
  0
LINE
  5
1C1
330
1F
100
AcDbEntity
  8
0
  6
Continuous
 62
     7
370
    25
100
AcDbLine
 10
196.1436235865
 20
220.8966095422
 30
0.0
 11
186.1436235865
 21
220.8966095422
 31
0.0
  0
ELLIPSE
  5
1C2
330
1F
100
AcDbEntity
  8
0
  6
Continuous
 62
     7
370
    25
100
AcDbEllipse
 10
186.1436235865
 20
224.8966095422
 30
0.0
 11
0.0
 21
4.0
 31
0.0
210
0.0
220
0.0
230
1.0
 40
0.0174550649
 41
3.141592653589786
 42
4.119577864496161
  0
LINE
  5
1C3
330
1F
100
AcDbEntity
  8
0
  6
Continuous
 62
     7
370
    25
100
AcDbLine
 10
186.2015306529
 20
222.6618307738
 30
0.0
 11
189.5674860594
 21
222.6618307738
 31
0.0
  0
LINE
  5
1C4
330
1F
100
AcDbEntity
  8
0
  6
Continuous
 62
     7
370
    25
100
AcDbLine
 10
189.5674860594
 20
227.1313883106
 30
0.0
 11
186.2015306529
 21
227.1313883106
 31
0.0
  0
ELLIPSE
  5
1C5
330
1F
100
AcDbEntity
  8
0
  6
Continuous
 62
     7
370
    25
100
AcDbEllipse
 10
186.1436235865
 20
224.8966095422
 30
0.0
 11
0.0
 21
4.0
 31
0.0
210
0.0
220
0.0
230
1.0
 40
0.0174550649
 41
5.305200096273705
 42
6.283185307179586
  0
ELLIPSE
  5
1C6
330
1F
100
AcDbEntity
  8
0
  6
Continuous
 62
     7
370
    25
100
AcDbEllipse
 10
196.1436235865
 20
224.8966095422
 30
0.0
 11
0.0
 21
4.0
 31
0.0
210
0.0
220
0.0
230
1.0
 40
0.0174550649
 41
0.0
 42
0.9779852109065438
  0
LINE
  5
1C7
330
1F
100
AcDbEntity
  8
0
  6
Continuous
 62
     7
370
    25
100
AcDbLine
 10
96.1436235865
 20
223.5507505077
 30
0.0
 11
96.2015306529
 21
222.6618307738
 31
0.0
  0
LINE
  5
1C8
330
1F
100
AcDbEntity
  8
0
  6
Continuous
 62
     7
370
    25
100
AcDbLine
 10
96.1494966007
 20
223.640905968
 30
0.0
 11
96.1436235865
 21
223.5507505077
 31
0.0
  0
LINE
  5
1C9
330
1F
100
AcDbEntity
  8
0
  6
Continuous
 62
     7
370
    25
100
AcDbLine
 10
99.3759902157
 20
223.640905968
 30
0.0
 11
96.1494966007
 21
223.640905968
 31
0.0
  0
LINE
  5
1CA
330
1F
100
AcDbEntity
  8
0
  6
Continuous
 62
     7
370
    25
100
AcDbLine
 10
99.3936235865
 20
223.5507505077
 30
0.0
 11
99.3759902157
 21
223.640905968
 31
0.0
  0
LINE
  5
1CB
330
1F
100
AcDbEntity
  8
0
  6
Continuous
 62
     7
370
    25
100
AcDbLine
 10
96.1436235865
 20
220.8966095422
 30
0.0
 11
96.1436235865
 21
223.5507505077
 31
0.0
  0
LINE
  5
1CC
330
1F
100
AcDbEntity
  8
0
  6
Continuous
 62
     7
370
    25
100
AcDbLine
 10
106.1436235865
 20
226.2424685767
 30
0.0
 11
106.0857165201
 21
227.1313883106
 31
0.0
  0
LINE
  5
1CD
330
1F
100
AcDbEntity
  8
0
  6
Continuous
 62
     7
370
    25
100
AcDbLine
 10
106.1377505723
 20
226.1523131164
 30
0.0
 11
106.1436235865
 21
226.2424685767
 31
0.0
  0
LINE
  5
1CE
330
1F
100
AcDbEntity
  8
0
  6
Continuous
 62
     7
370
    25
100
AcDbLine
 10
102.9112569573
 20
226.1523131164
 30
0.0
 11
106.1377505723
 21
226.1523131164
 31
0.0
  0
LINE
  5
1CF
330
1F
100
AcDbEntity
  8
0
  6
Continuous
 62
     7
370
    25
100
AcDbLine
 10
102.9112569573
 20
226.1523131164
 30
0.0
 11
102.8936235865
 21
226.2424685767
 31
0.0
  0
LINE
  5
1D0
330
1F
100
AcDbEntity
  8
0
  6
Continuous
 62
     7
370
    25
100
AcDbLine
 10
99.3759902157
 20
226.1523131164
 30
0.0
 11
99.3936235865
 21
226.2424685767
 31
0.0
  0
LINE
  5
1D1
330
1F
100
AcDbEntity
  8
0
  6
Continuous
 62
     7
370
    25
100
AcDbLine
 10
99.3759902157
 20
226.1523131164
 30
0.0
 11
96.1494966007
 21
226.1523131164
 31
0.0
  0
LINE
  5
1D2
330
1F
100
AcDbEntity
  8
0
  6
Continuous
 62
     7
370
    25
100
AcDbLine
 10
96.1436235865
 20
226.2424685767
 30
0.0
 11
96.1494966007
 21
226.1523131164
 31
0.0
  0
LINE
  5
1D3
330
1F
100
AcDbEntity
  8
0
  6
Continuous
 62
     7
370
    25
100
AcDbLine
 10
96.2015306529
 20
227.1313883106
 30
0.0
 11
96.1436235865
 21
226.2424685767
 31
0.0
  0
LINE
  5
1D4
330
1F
100
AcDbEntity
  8
0
  6
Continuous
 62
     7
370
    25
100
AcDbLine
 10
106.1436235865
 20
226.2424685767
 30
0.0
 11
106.1436235865
 21
228.8966095422
 31
0.0
  0
LINE
  5
1D5
330
1F
100
AcDbEntity
  8
0
  6
Continuous
 62
     7
370
    25
100
AcDbLine
 10
96.1436235865
 20
226.2424685767
 30
0.0
 11
96.1436235865
 21
228.8966095422
 31
0.0
  0
LINE
  5
1D6
330
1F
100
AcDbEntity
  8
0
  6
Continuous
 62
     7
370
    25
100
AcDbLine
 10
102.9112569573
 20
223.640905968
 30
0.0
 11
102.8936235865
 21
223.5507505077
 31
0.0
  0
LINE
  5
1D7
330
1F
100
AcDbEntity
  8
0
  6
Continuous
 62
     7
370
    25
100
AcDbLine
 10
102.9112569573
 20
223.640905968
 30
0.0
 11
106.1377505723
 21
223.640905968
 31
0.0
  0
LINE
  5
1D8
330
1F
100
AcDbEntity
  8
0
  6
Continuous
 62
     7
370
    25
100
AcDbLine
 10
106.1436235865
 20
223.5507505077
 30
0.0
 11
106.1377505723
 21
223.640905968
 31
0.0
  0
LINE
  5
1D9
330
1F
100
AcDbEntity
  8
0
  6
Continuous
 62
     7
370
    25
100
AcDbLine
 10
106.0857165201
 20
222.6618307738
 30
0.0
 11
106.1436235865
 21
223.5507505077
 31
0.0
  0
LINE
  5
1DA
330
1F
100
AcDbEntity
  8
0
  6
Continuous
 62
     7
370
    25
100
AcDbLine
 10
106.1436235865
 20
223.5507505077
 30
0.0
 11
106.1436235865
 21
220.8966095422
 31
0.0
  0
LINE
  5
1DB
330
1F
100
AcDbEntity
  8
0
  6
Continuous
 62
     7
370
    25
100
AcDbLine
 10
196.1436235865
 20
226.2424685767
 30
0.0
 11
196.0857165201
 21
227.1313883106
 31
0.0
  0
LINE
  5
1DC
330
1F
100
AcDbEntity
  8
0
  6
Continuous
 62
     7
370
    25
100
AcDbLine
 10
196.1436235865
 20
228.8966095422
 30
0.0
 11
196.1436235865
 21
226.2424685767
 31
0.0
  0
LINE
  5
1DD
330
1F
100
AcDbEntity
  8
0
  6
Continuous
 62
     7
370
    25
100
AcDbLine
 10
186.2015306529
 20
227.1313883106
 30
0.0
 11
186.1436235865
 21
226.2424685767
 31
0.0
  0
LINE
  5
1DE
330
1F
100
AcDbEntity
  8
0
  6
Continuous
 62
     7
370
    25
100
AcDbLine
 10
186.1436235865
 20
226.2424685767
 30
0.0
 11
186.1436235865
 21
228.8966095422
 31
0.0
  0
LINE
  5
1DF
330
1F
100
AcDbEntity
  8
0
  6
Continuous
 62
     7
370
    25
100
AcDbLine
 10
196.1377505723
 20
226.1523131164
 30
0.0
 11
196.1436235865
 21
226.2424685767
 31
0.0
  0
LINE
  5
1E0
330
1F
100
AcDbEntity
  8
0
  6
Continuous
 62
     7
370
    25
100
AcDbLine
 10
192.9112569573
 20
226.1523131164
 30
0.0
 11
196.1377505723
 21
226.1523131164
 31
0.0
  0
LINE
  5
1E1
330
1F
100
AcDbEntity
  8
0
  6
Continuous
 62
     7
370
    25
100
AcDbLine
 10
192.9112569573
 20
226.1523131164
 30
0.0
 11
192.8936235865
 21
226.2424685767
 31
0.0
  0
LINE
  5
1E2
330
1F
100
AcDbEntity
  8
0
  6
Continuous
 62
     7
370
    25
100
AcDbLine
 10
189.3759902157
 20
226.1523131164
 30
0.0
 11
189.3936235865
 21
226.2424685767
 31
0.0
  0
LINE
  5
1E3
330
1F
100
AcDbEntity
  8
0
  6
Continuous
 62
     7
370
    25
100
AcDbLine
 10
189.3759902157
 20
226.1523131164
 30
0.0
 11
186.1494966007
 21
226.1523131164
 31
0.0
  0
LINE
  5
1E4
330
1F
100
AcDbEntity
  8
0
  6
Continuous
 62
     7
370
    25
100
AcDbLine
 10
186.1436235865
 20
226.2424685767
 30
0.0
 11
186.1494966007
 21
226.1523131164
 31
0.0
  0
LINE
  5
1E5
330
1F
100
AcDbEntity
  8
0
  6
Continuous
 62
     7
370
    25
100
AcDbLine
 10
196.0857165201
 20
222.6618307738
 30
0.0
 11
196.1436235865
 21
223.5507505077
 31
0.0
  0
LINE
  5
1E6
330
1F
100
AcDbEntity
  8
0
  6
Continuous
 62
     7
370
    25
100
AcDbLine
 10
196.1436235865
 20
223.5507505077
 30
0.0
 11
196.1436235865
 21
220.8966095422
 31
0.0
  0
LINE
  5
1E7
330
1F
100
AcDbEntity
  8
0
  6
Continuous
 62
     7
370
    25
100
AcDbLine
 10
186.1436235865
 20
223.5507505077
 30
0.0
 11
186.2015306529
 21
222.6618307738
 31
0.0
  0
LINE
  5
1E8
330
1F
100
AcDbEntity
  8
0
  6
Continuous
 62
     7
370
    25
100
AcDbLine
 10
186.1494966007
 20
223.640905968
 30
0.0
 11
186.1436235865
 21
223.5507505077
 31
0.0
  0
LINE
  5
1E9
330
1F
100
AcDbEntity
  8
0
  6
Continuous
 62
     7
370
    25
100
AcDbLine
 10
189.3759902157
 20
223.640905968
 30
0.0
 11
186.1494966007
 21
223.640905968
 31
0.0
  0
LINE
  5
1EA
330
1F
100
AcDbEntity
  8
0
  6
Continuous
 62
     7
370
    25
100
AcDbLine
 10
189.3936235865
 20
223.5507505077
 30
0.0
 11
189.3759902157
 21
223.640905968
 31
0.0
  0
LINE
  5
1EB
330
1F
100
AcDbEntity
  8
0
  6
Continuous
 62
     7
370
    25
100
AcDbLine
 10
192.9112569573
 20
223.640905968
 30
0.0
 11
192.8936235865
 21
223.5507505077
 31
0.0
  0
LINE
  5
1EC
330
1F
100
AcDbEntity
  8
0
  6
Continuous
 62
     7
370
    25
100
AcDbLine
 10
192.9112569573
 20
223.640905968
 30
0.0
 11
196.1377505723
 21
223.640905968
 31
0.0
  0
LINE
  5
1ED
330
1F
100
AcDbEntity
  8
0
  6
Continuous
 62
     7
370
    25
100
AcDbLine
 10
196.1436235865
 20
223.5507505077
 30
0.0
 11
196.1377505723
 21
223.640905968
 31
0.0
  0
LINE
  5
1EE
330
1F
100
AcDbEntity
  8
0
  6
Continuous
 62
     7
370
    25
100
AcDbLine
 10
186.1436235865
 20
220.8966095422
 30
0.0
 11
186.1436235865
 21
223.5507505077
 31
0.0
  0
CIRCLE
  5
1EF
330
1F
100
AcDbEntity
  8
0
  6
Continuous
 62
     7
370
    25
100
AcDbCircle
 10
161.1436235865
 20
116.8966095422
 30
0.0
 40
2.25
  0
LINE
  5
1F0
330
1F
100
AcDbEntity
  8
0
  6
Continuous
 62
     7
370
    25
100
AcDbLine
 10
212.3436235865
 20
215.8966095422
 30
0.0
 11
79.9436235865
 21
215.8966095422
 31
0.0
  0
ARC
  5
1F1
330
1F
100
AcDbEntity
  8
0
  6
Continuous
 62
     7
370
    25
100
AcDbCircle
 10
79.9436235865
 20
210.5966095422
 30
0.0
 40
5.300000000000011
100
AcDbArc
 50
90.0
 51
180.0
  0
LINE
  5
1F2
330
1F
100
AcDbEntity
  8
0
  6
Continuous
 62
     7
370
    25
100
AcDbLine
 10
74.6436235865
 20
210.5966095422
 30
0.0
 11
74.6436235865
 21
128.1966095422
 31
0.0
  0
ARC
  5
1F3
330
1F
100
AcDbEntity
  8
0
  6
Continuous
 62
     7
370
    25
100
AcDbCircle
 10
79.9436235865
 20
128.1966095422
 30
0.0
 40
5.299999999999997
100
AcDbArc
 50
180.0
 51
270.0
  0
LINE
  5
1F4
330
1F
100
AcDbEntity
  8
0
  6
Continuous
 62
     7
370
    25
100
AcDbLine
 10
79.9436235865
 20
122.8966095422
 30
0.0
 11
212.3436235865
 21
122.8966095422
 31
0.0
  0
ARC
  5
1F5
330
1F
100
AcDbEntity
  8
0
  6
Continuous
 62
     7
370
    25
100
AcDbCircle
 10
212.3436235865
 20
128.1966095422
 30
0.0
 40
5.299999999999983
100
AcDbArc
 50
270.0
 51
0.0
  0
LINE
  5
1F6
330
1F
100
AcDbEntity
  8
0
  6
Continuous
 62
     7
370
    25
100
AcDbLine
 10
217.6436235865
 20
128.1966095422
 30
0.0
 11
217.6436235865
 21
210.5966095422
 31
0.0
  0
ARC
  5
1F7
330
1F
100
AcDbEntity
  8
0
  6
Continuous
 62
     7
370
    25
100
AcDbCircle
 10
212.3436235865
 20
210.5966095422
 30
0.0
 40
5.299999999999983
100
AcDbArc
 50
0.0
 51
90.0
  0
SPLINE
  5
1F8
330
1F
100
AcDbEntity
  8
0
  6
Continuous
 62
     7
370
    25
100
AcDbSpline
210
0.0
220
0.0
230
1.0
 70
     8
 71
     3
 72
    14
 73
    10
 74
     0
 42
0.00000001
 43
0.00000001
 40
5.499156671652532
 40
5.499156671652532
 40
5.499156671652532
 40
5.499156671652532
 40
5.891170989416059
 40
5.891170989416059
 40
6.283185307179586
 40
6.283185307179586
 40
6.675199624943113
 40
6.675199624943113
 40
7.06721394270664
 40
7.06721394270664
 40
7.06721394270664
 40
7.06721394270664
 10
71.14362358651513
 20
127.3856458202432
 30
0.0
 10
71.14362358652966
 20
126.3386535489642
 30
0.0
 10
71.35139249587576
 20
125.2930195274807
 30
0.0
 10
72.1512585266962
 20
123.3604239846315
 30
0.0
 10
72.74304312250733
 20
122.47440764722
 30
0.0
 10
74.22142169152863
 20
120.9960290781987
 30
0.0
 10
75.10743802894372
 20
120.4042444823949
 30
0.0
 10
77.04003357178567
 20
119.6043784515599
 30
0.0
 10
78.08566759327556
 20
119.3966095421993
 30
0.0
 10
79.13265986455173
 20
119.3966095422066
 30
0.0
  0
LINE
  5
1F9
330
1F
100
AcDbEntity
  8
0
  6
Continuous
 62
     7
370
    25
100
AcDbLine
 10
71.1436235865
 20
127.3856458202
 30
0.0
 11
71.1436235865
 21
211.4075732642
 31
0.0
  0
SPLINE
  5
1FA
330
1F
100
AcDbEntity
  8
0
  6
Continuous
 62
     7
370
    25
100
AcDbSpline
210
0.0
220
0.0
230
1.0
 70
     8
 71
     3
 72
    14
 73
    10
 74
     0
 42
0.00000001
 43
0.00000001
 40
5.499156671652532
 40
5.499156671652532
 40
5.499156671652532
 40
5.499156671652532
 40
5.891170989416059
 40
5.891170989416059
 40
6.283185307179586
 40
6.283185307179586
 40
6.675199624943113
 40
6.675199624943113
 40
7.06721394270664
 40
7.06721394270664
 40
7.06721394270664
 40
7.06721394270664
 10
79.13265986455173
 20
219.3966095422066
 30
0.0
 10
78.08566759327556
 20
219.3966095421993
 30
0.0
 10
77.04003357178564
 20
219.1888406328532
 30
0.0
 10
75.10743802894369
 20
218.3889746020183
 30
0.0
 10
74.22142169152136
 20
217.7971900062144
 30
0.0
 10
72.74304312251456
 20
216.3188114371931
 30
0.0
 10
72.15125852669618
 20
215.432795099778
 30
0.0
 10
71.35139249587574
 20
213.500199556936
 30
0.0
 10
71.14362358650789
 20
212.4545655354462
 30
0.0
 10
71.14362358651515
 20
211.40757326417
 30
0.0
  0
LINE
  5
1FB
330
1F
100
AcDbEntity
  8
0
  6
Continuous
 62
     7
370
    25
100
AcDbLine
 10
79.1326598646
 20
219.3966095422
 30
0.0
 11
96.1436235865
 21
219.3966095422
 31
0.0
  0
LINE
  5
1FC
330
1F
100
AcDbEntity
  8
0
  6
Continuous
 62
     7
370
    25
100
AcDbLine
 10
96.1436235865
 20
219.3966095422
 30
0.0
 11
96.1436235865
 21
220.8966095422
 31
0.0
  0
LINE
  5
1FD
330
1F
100
AcDbEntity
  8
0
  6
Continuous
 62
     7
370
    25
100
AcDbLine
 10
106.1436235865
 20
220.8966095422
 30
0.0
 11
106.1436235865
 21
219.3966095422
 31
0.0
  0
LINE
  5
1FE
330
1F
100
AcDbEntity
  8
0
  6
Continuous
 62
     7
370
    25
100
AcDbLine
 10
106.1436235865
 20
219.3966095422
 30
0.0
 11
186.1436235865
 21
219.3966095422
 31
0.0
  0
LINE
  5
1FF
330
1F
100
AcDbEntity
  8
0
  6
Continuous
 62
     7
370
    25
100
AcDbLine
 10
186.1436235865
 20
219.3966095422
 30
0.0
 11
186.1436235865
 21
220.8966095422
 31
0.0
  0
LINE
  5
200
330
1F
100
AcDbEntity
  8
0
  6
Continuous
 62
     7
370
    25
100
AcDbLine
 10
196.1436235865
 20
220.8966095422
 30
0.0
 11
196.1436235865
 21
219.3966095422
 31
0.0
  0
LINE
  5
201
330
1F
100
AcDbEntity
  8
0
  6
Continuous
 62
     7
370
    25
100
AcDbLine
 10
196.1436235865
 20
219.3966095422
 30
0.0
 11
213.1545873085
 21
219.3966095422
 31
0.0
  0
SPLINE
  5
202
330
1F
100
AcDbEntity
  8
0
  6
Continuous
 62
     7
370
    25
100
AcDbSpline
210
0.0
220
0.0
230
1.0
 70
     8
 71
     3
 72
    14
 73
    10
 74
     0
 42
0.00000001
 43
0.00000001
 40
5.499156671652534
 40
5.499156671652534
 40
5.499156671652534
 40
5.499156671652534
 40
5.891170989416061
 40
5.891170989416061
 40
6.283185307179587
 40
6.283185307179587
 40
6.675199624943113
 40
6.675199624943113
 40
7.06721394270664
 40
7.06721394270664
 40
7.06721394270664
 40
7.06721394270664
 10
221.1436235865152
 20
211.4075732641699
 30
0.0
 10
221.1436235865006
 20
212.4545655354488
 30
0.0
 10
220.9358546771618
 20
213.5001995569324
 30
0.0
 10
220.1359886463268
 20
215.4327950997816
 30
0.0
 10
219.5442040505229
 20
216.3188114371931
 30
0.0
 10
218.0658254815017
 20
217.7971900062144
 30
0.0
 10
217.1798091440866
 20
218.3889746020182
 30
0.0
 10
215.2472136012446
 20
219.1888406328532
 30
0.0
 10
214.2015795797547
 20
219.3966095422138
 30
0.0
 10
213.1545873084786
 20
219.3966095422066
 30
0.0
  0
LINE
  5
203
330
1F
100
AcDbEntity
  8
0
  6
Continuous
 62
     7
370
    25
100
AcDbLine
 10
221.1436235865
 20
211.4075732642
 30
0.0
 11
221.1436235865
 21
127.3856458202
 31
0.0
  0
SPLINE
  5
204
330
1F
100
AcDbEntity
  8
0
  6
Continuous
 62
     7
370
    25
100
AcDbSpline
210
0.0
220
0.0
230
1.0
 70
     8
 71
     3
 72
    14
 73
    10
 74
     0
 42
0.00000001
 43
0.00000001
 40
5.499156671652532
 40
5.499156671652532
 40
5.499156671652532
 40
5.499156671652532
 40
5.891170989416059
 40
5.891170989416059
 40
6.283185307179587
 40
6.283185307179587
 40
6.675199624943115
 40
6.675199624943115
 40
7.067213942706642
 40
7.067213942706642
 40
7.067213942706642
 40
7.067213942706642
 10
213.1545873084786
 20
119.3966095422065
 30
0.0
 10
214.2015795797602
 20
119.3966095422138
 30
0.0
 10
215.2472136012374
 20
119.6043784515635
 30
0.0
 10
217.1798091440938
 20
120.4042444823912
 30
0.0
 10
218.0658254815017
 20
120.9960290781987
 30
0.0
 10
219.544204050523
 20
122.47440764722
 30
0.0
 10
220.1359886463341
 20
123.3604239846351
 30
0.0
 10
220.9358546771546
 20
125.2930195274771
 30
0.0
 10
221.1436235865224
 20
126.3386535489669
 30
0.0
 10
221.1436235865152
 20
127.3856458202431
 30
0.0
  0
LINE
  5
205
330
1F
100
AcDbEntity
  8
0
  6
Continuous
 62
     7
370
    25
100
AcDbLine
 10
213.1545873085
 20
119.3966095422
 30
0.0
 11
171.5660349259
 21
119.3966095422
 31
0.0
  0
SPLINE
  5
206
330
1F
100
AcDbEntity
  8
0
  6
Continuous
 62
     7
370
    25
100
AcDbSpline
210
0.0
220
0.0
230
1.0
 70
     8
 71
     3
 72
    20
 73
    16
 74
     0
 42
0.00000001
 43
0.00000001
 40
0.0
 40
0.0
 40
0.0
 40
0.0
 40
0.250000000000001
 40
0.250000000000001
 40
0.3750000000000008
 40
0.3750000000000008
 40
0.5000000000000007
 40
0.5000000000000007
 40
0.6250000000000004
 40
0.6250000000000004
 40
0.7500000000000003
 40
0.7500000000000003
 40
0.8750000000000001
 40
0.8750000000000001
 40
1.0
 40
1.0
 40
1.0
 40
1.0
 10
165.8846273121577
 20
115.3082507434954
 30
0.0
 10
166.0842260229754
 20
115.9040218201489
 30
0.0
 10
166.3699519237604
 20
116.4536485925263
 30
0.0
 10
166.9263609489793
 20
117.2096066259255
 30
0.0
 10
167.1317375478915
 20
117.4469436668488
 30
0.0
 10
167.5723724753073
 20
117.8829082140929
 30
0.0
 10
167.8088533589828
 20
118.0832406919449
 30
0.0
 10
168.3147435517385
 20
118.4479491492972
 30
0.0
 10
168.5844630898074
 20
118.6118464016914
 30
0.0
 10
169.1383648285128
 20
118.8919390099802
 30
0.0
 10
169.4247610268002
 20
119.0098894527601
 30
0.0
 10
170.016554675255
 20
119.2013398982995
 30
0.0
 10
170.3237817304447
 20
119.2748607134155
 30
0.0
 10
170.9406118251521
 20
119.3720876744642
 30
0.0
 10
171.2518742572682
 20
119.3966095422065
 30
0.0
 10
171.5660349259275
 20
119.3966095422066
 30
0.0
  0
ARC
  5
207
330
1F
100
AcDbEntity
  8
0
  6
Continuous
 62
     7
370
    25
100
AcDbCircle
 10
161.1436235865
 20
116.8966095422
 30
0.0
 40
5.000000000000015
100
AcDbArc
 50
198.5221810714
 51
341.4778189286
  0
SPLINE
  5
208
330
1F
100
AcDbEntity
  8
0
  6
Continuous
 62
     7
370
    25
100
AcDbSpline
210
0.0
220
0.0
230
1.0
 70
     8
 71
     3
 72
    20
 73
    16
 74
     0
 42
0.00000001
 43
0.00000001
 40
0.0
 40
0.0
 40
0.0
 40
0.0
 40
0.2499999999999997
 40
0.2499999999999997
 40
0.3749999999999997
 40
0.3749999999999997
 40
0.4999999999999998
 40
0.4999999999999998
 40
0.6249999999999998
 40
0.6249999999999998
 40
0.7499999999999998
 40
0.7499999999999998
 40
0.8749999999999999
 40
0.8749999999999999
 40
1.0
 40
1.0
 40
1.0
 40
1.0
 10
150.7212122471028
 20
119.3966095422066
 30
0.0
 10
151.3495297071973
 20
119.3966095422065
 30
0.0
 10
151.9614532574033
 20
119.3002848480043
 30
0.0
 10
152.8550086478178
 20
119.0128438954869
 30
0.0
 10
153.1452941584403
 20
118.8935009314206
 30
0.0
 10
153.6986533592527
 20
118.6141842183093
 30
0.0
 10
153.9637320769335
 20
118.4535928622432
 30
0.0
 10
154.4702559651048
 20
118.0897650304698
 30
0.0
 10
154.711345764609
 20
117.8860823102646
 30
0.0
 10
155.152888746261
 20
117.4498498073598
 30
0.0
 10
155.355709428962
 20
117.2157582517271
 30
0.0
 10
155.725238993434
 20
116.71543747845
 30
0.0
 10
155.8925488283777
 20
116.4474800311466
 30
0.0
 10
156.180688972625
 20
115.8934875029009
 30
0.0
 10
156.3028198885015
 20
115.6061381233581
 30
0.0
 10
156.4026198608726
 20
115.3082507434954
 30
0.0
  0
LINE
  5
209
330
1F
100
AcDbEntity
  8
0
  6
Continuous
 62
     7
370
    25
100
AcDbLine
 10
150.7212122471
 20
119.3966095422
 30
0.0
 11
79.1326598646
 21
119.3966095422
 31
0.0
  0
SPLINE
  5
20A
330
1F
100
AcDbEntity
  8
0
  6
Continuous
 62
     7
370
    25
100
AcDbSpline
210
0.0
220
0.0
230
1.0
 70
     8
 71
     3
 72
    10
 73
     6
 74
     0
 42
0.00000001
 43
0.00000001
 40
0.0
 40
0.0
 40
0.0
 40
0.0
 40
0.5
 40
0.5
 40
1.0
 40
1.0
 40
1.0
 40
1.0
 10
210.1491054474968
 20
129.9248043730307
 30
0.0
 10
210.2725629449316
 20
129.9248043730968
 30
0.0
 10
210.3936270437376
 20
129.9747915361619
 30
0.0
 10
210.5655666692737
 20
130.1468337427298
 30
0.0
 10
210.615428755625
 20
130.2679493779032
 30
0.0
 10
210.6154287556909
 20
130.3911276812246
 30
0.0
  0
LINE
  5
20B
330
1F
100
AcDbEntity
  8
0
  6
Continuous
 62
     7
370
    25
100
AcDbLine
 10
211.5063610035
 20
130.3911276812
 30
0.0
 11
210.6154287557
 21
130.3911276812
 31
0.0
  0
SPLINE
  5
20C
330
1F
100
AcDbEntity
  8
0
  6
Continuous
 62
     7
370
    25
100
AcDbSpline
210
0.0
220
0.0
230
1.0
 70
     8
 71
     3
 72
    18
 73
    14
 74
     0
 42
0.00000001
 43
0.00000001
 40
0.0
 40
0.0
 40
0.0
 40
0.0
 40
0.125
 40
0.125
 40
0.25
 40
0.25
 40
0.375
 40
0.375
 40
0.5
 40
0.5
 40
0.75
 40
0.75
 40
1.0
 40
1.0
 40
1.0
 40
1.0
 10
210.1491054474968
 20
129.033872125219
 30
0.0
 10
210.2380460027478
 20
129.0338721252177
 30
0.0
 10
210.3260903933961
 20
129.0427195288902
 30
0.0
 10
210.5004857165777
 20
129.077133036689
 30
0.0
 10
210.5873941062269
 20
129.1031268143078
 30
0.0
 10
210.7510113337796
 20
129.1707149138927
 30
0.0
 10
210.8287374248158
 20
129.2123988142696
 30
0.0
 10
210.976438498298
 20
129.310746345091
 30
0.0
 10
211.0467445844009
 20
129.3679925406737
 30
0.0
 10
211.2349749481771
 20
129.556220901598
 30
0.0
 10
211.3361855200768
 20
129.7081746606427
 30
0.0
 10
211.4712034532061
 20
130.0357387384385
 30
0.0
 10
211.5063610035053
 20
130.2150083842956
 30
0.0
 10
211.5063610035026
 20
130.3911276812248
 30
0.0
  0
LINE
  5
20D
330
1F
100
AcDbEntity
  8
0
  6
Continuous
 62
     7
370
    25
100
AcDbLine
 10
210.1491054475
 20
129.924804373
 30
0.0
 11
210.1491054475
 21
129.0338721252
 31
0.0
  0
LINE
  5
20E
330
1F
100
AcDbEntity
  8
0
  6
Continuous
 62
     7
370
    25
100
AcDbLine
 10
213.827050814
 20
209.8966095422
 30
0.0
 11
213.6436235865
 21
209.8966095422
 31
0.0
  0
LINE
  5
20F
330
1F
100
AcDbEntity
  8
0
  6
Continuous
 62
     7
370
    25
100
AcDbLine
 10
213.827050814
 20
128.8966095422
 30
0.0
 11
213.827050814
 21
209.8966095422
 31
0.0
  0
LINE
  5
210
330
1F
100
AcDbEntity
  8
0
  6
Continuous
 62
     7
370
    25
100
AcDbLine
 10
213.827050814
 20
128.8966095422
 30
0.0
 11
213.6436235865
 21
128.8966095422
 31
0.0
  0
LINE
  5
211
330
1F
100
AcDbEntity
  8
0
  6
Continuous
 62
     7
370
    25
100
AcDbLine
 10
213.6436235865
 20
128.8966095422
 30
0.0
 11
213.6436235865
 21
209.8966095422
 31
0.0
  0
LINE
  5
212
330
1F
100
AcDbEntity
  8
0
  6
Continuous
 62
     7
370
    25
100
AcDbLine
 10
211.6436235865
 20
212.0800367697
 30
0.0
 11
211.6436235865
 21
211.8966095422
 31
0.0
  0
ARC
  5
213
330
1F
100
AcDbEntity
  8
0
  6
Continuous
 62
     7
370
    25
100
AcDbCircle
 10
211.6436235865
 20
209.8966095422
 30
0.0
 40
2.183427227490654
100
AcDbArc
 50
0.0
 51
90.0
  0
ARC
  5
214
330
1F
100
AcDbEntity
  8
0
  6
Continuous
 62
     7
370
    25
100
AcDbCircle
 10
211.6436235865
 20
209.8966095422
 30
0.0
 40
2.0
100
AcDbArc
 50
0.0
 51
90.0
  0
LINE
  5
215
330
1F
100
AcDbEntity
  8
0
  6
Continuous
 62
     7
370
    25
100
AcDbLine
 10
80.6436235865
 20
212.0800367697
 30
0.0
 11
80.6436235865
 21
211.8966095422
 31
0.0
  0
LINE
  5
216
330
1F
100
AcDbEntity
  8
0
  6
Continuous
 62
     7
370
    25
100
AcDbLine
 10
211.6436235865
 20
212.0800367697
 30
0.0
 11
80.6436235865
 21
212.0800367697
 31
0.0
  0
LINE
  5
217
330
1F
100
AcDbEntity
  8
0
  6
Continuous
 62
     7
370
    25
100
AcDbLine
 10
211.6436235865
 20
211.8966095422
 30
0.0
 11
80.6436235865
 21
211.8966095422
 31
0.0
  0
LINE
  5
218
330
1F
100
AcDbEntity
  8
0
  6
Continuous
 62
     7
370
    25
100
AcDbLine
 10
82.1381417255
 20
129.924804373
 30
0.0
 11
210.1491054475
 21
129.924804373
 31
0.0
  0
LINE
  5
219
330
1F
100
AcDbEntity
  8
0
  6
Continuous
 62
     7
370
    25
100
AcDbLine
 10
82.1381417255
 20
129.0338721252
 30
0.0
 11
210.1491054475
 21
129.0338721252
 31
0.0
  0
LINE
  5
21A
330
1F
100
AcDbEntity
  8
0
  6
Continuous
 62
     7
370
    25
100
AcDbLine
 10
82.1381417255
 20
129.0338721252
 30
0.0
 11
82.1381417255
 21
129.924804373
 31
0.0
  0
SPLINE
  5
21B
330
1F
100
AcDbEntity
  8
0
  6
Continuous
 62
     7
370
    25
100
AcDbSpline
210
0.0
220
0.0
230
1.0
 70
     8
 71
     3
 72
    10
 73
     6
 74
     0
 42
0.00000001
 43
0.00000001
 40
0.0
 40
0.0
 40
0.0
 40
0.0
 40
0.5
 40
0.5
 40
1.0
 40
1.0
 40
1.0
 40
1.0
 10
81.67181841733934
 20
130.3911276812249
 30
0.0
 10
81.67181841740536
 20
130.26767018379
 30
0.0
 10
81.72180558047015
 20
130.1466060849845
 30
0.0
 10
81.89384778703808
 20
129.9746664594482
 30
0.0
 10
82.01496342221164
 20
129.9248043730966
 30
0.0
 10
82.1381417255334
 20
129.9248043730307
 30
0.0
  0
SPLINE
  5
21C
330
1F
100
AcDbEntity
  8
0
  6
Continuous
 62
     7
370
    25
100
AcDbSpline
210
0.0
220
0.0
230
1.0
 70
     8
 71
     3
 72
    18
 73
    14
 74
     0
 42
0.00000001
 43
0.00000001
 40
0.0
 40
0.0
 40
0.0
 40
0.0
 40
0.1249999999999966
 40
0.1249999999999966
 40
0.2499999999999931
 40
0.2499999999999931
 40
0.3749999999999897
 40
0.3749999999999897
 40
0.4999999999999862
 40
0.4999999999999862
 40
0.7499999999999931
 40
0.7499999999999931
 40
1.0
 40
1.0
 40
1.0
 40
1.0
 10
80.78088616952763
 20
130.3911276812248
 30
0.0
 10
80.78088616952627
 20
130.3021871259746
 30
0.0
 10
80.78973357319788
 20
130.2141427353261
 30
0.0
 10
80.8241470809964
 20
130.039747412142
 30
0.0
 10
80.8501408586155
 20
129.9528390224927
 30
0.0
 10
80.91772895820252
 20
129.7892217949433
 30
0.0
 10
80.95941285857894
 20
129.7114957039076
 30
0.0
 10
81.05776038939952
 20
129.563794630425
 30
0.0
 10
81.11500658498167
 20
129.4934885443215
 30
0.0
 10
81.30323494590624
 20
129.3052581805449
 30
0.0
 10
81.4551887049503
 20
129.2040476086426
 30
0.0
 10
81.78275278274849
 20
129.0690296755177
 30
0.0
 10
81.96202242860484
 20
129.0338721252164
 30
0.0
 10
82.13814172553346
 20
129.033872125219
 30
0.0
  0
LINE
  5
21D
330
1F
100
AcDbEntity
  8
0
  6
Continuous
 62
     7
370
    25
100
AcDbLine
 10
81.6718184173
 20
130.3911276812
 30
0.0
 11
80.7808861695
 21
130.3911276812
 31
0.0
  0
LINE
  5
21E
330
1F
100
AcDbEntity
  8
0
  6
Continuous
 62
     7
370
    25
100
AcDbLine
 10
82.1381417255
 20
208.8684147114
 30
0.0
 11
210.1491054475
 21
208.8684147114
 31
0.0
  0
LINE
  5
21F
330
1F
100
AcDbEntity
  8
0
  6
Continuous
 62
     7
370
    25
100
AcDbLine
 10
82.1381417255
 20
208.8684147114
 30
0.0
 11
82.1381417255
 21
209.7593469592
 31
0.0
  0
LINE
  5
220
330
1F
100
AcDbEntity
  8
0
  6
Continuous
 62
     7
370
    25
100
AcDbLine
 10
210.1491054475
 20
209.7593469592
 30
0.0
 11
82.1381417255
 21
209.7593469592
 31
0.0
  0
LINE
  5
221
330
1F
100
AcDbEntity
  8
0
  6
Continuous
 62
     7
370
    25
100
AcDbLine
 10
210.1491054475
 20
209.7593469592
 30
0.0
 11
210.1491054475
 21
208.8684147114
 31
0.0
  0
SPLINE
  5
222
330
1F
100
AcDbEntity
  8
0
  6
Continuous
 62
     7
370
    25
100
AcDbSpline
210
0.0
220
0.0
230
1.0
 70
     8
 71
     3
 72
    10
 73
     6
 74
     0
 42
0.00000001
 43
0.00000001
 40
0.0
 40
0.0
 40
0.0
 40
0.0
 40
0.5
 40
0.5
 40
1.0
 40
1.0
 40
1.0
 40
1.0
 10
81.67181841733932
 20
208.4020914031879
 30
0.0
 10
81.67181841740532
 20
208.5255489006234
 30
0.0
 10
81.72180558046992
 20
208.6466129994285
 30
0.0
 10
81.89384778703895
 20
208.8185526249656
 30
0.0
 10
82.01496342221083
 20
208.868414711332
 30
0.0
 10
82.13814172553334
 20
208.8684147113824
 30
0.0
  0
LINE
  5
223
330
1F
100
AcDbEntity
  8
0
  6
Continuous
 62
     7
370
    25
100
AcDbLine
 10
80.7808861695
 20
208.4020914032
 30
0.0
 11
81.6718184173
 21
208.4020914032
 31
0.0
  0
SPLINE
  5
224
330
1F
100
AcDbEntity
  8
0
  6
Continuous
 62
     7
370
    25
100
AcDbSpline
210
0.0
220
0.0
230
1.0
 70
     8
 71
     3
 72
    16
 73
    12
 74
     0
 42
0.00000001
 43
0.00000001
 40
0.0
 40
0.0
 40
0.0
 40
0.0
 40
0.2500000000000028
 40
0.2500000000000028
 40
0.3750000000000023
 40
0.3750000000000023
 40
0.5000000000000019
 40
0.5000000000000019
 40
0.7500000000000009
 40
0.7500000000000009
 40
1.0
 40
1.0
 40
1.0
 40
1.0
 10
82.13814172553343
 20
209.7593469591941
 30
0.0
 10
81.95873811956407
 20
209.7593469591991
 30
0.0
 10
81.78255404715087
 20
209.7242427058242
 30
0.0
 10
81.53590460964988
 20
209.6223734591177
 30
0.0
 10
81.45803965355259
 20
209.580546073856
 30
0.0
 10
81.31043886781596
 20
209.4821874612628
 30
0.0
 10
81.24040440418284
 20
209.4251183664275
 30
0.0
 10
81.05268830064192
 20
209.2374342244603
 30
0.0
 10
80.95168385212502
 20
209.0859852846534
 30
0.0
 10
80.81663738837011
 20
208.759484171761
 30
0.0
 10
80.7808861695249
 20
208.5813187789861
 30
0.0
 10
80.78088616952762
 20
208.4020914031883
 30
0.0
  0
LINE
  5
225
330
1F
100
AcDbEntity
  8
0
  6
Continuous
 62
     7
370
    25
100
AcDbLine
 10
81.6718184173
 20
130.3911276812
 30
0.0
 11
81.6718184173
 21
208.4020914032
 31
0.0
  0
LINE
  5
226
330
1F
100
AcDbEntity
  8
0
  6
Continuous
 62
     7
370
    25
100
AcDbLine
 10
80.7808861695
 20
208.4020914032
 30
0.0
 11
80.7808861695
 21
130.3911276812
 31
0.0
  0
ARC
  5
227
330
1F
100
AcDbEntity
  8
0
  6
Continuous
 62
     7
370
    25
100
AcDbCircle
 10
80.6436235865
 20
128.8966095422
 30
0.0
 40
2.000000000000014
100
AcDbArc
 50
180.0
 51
270.0
  0
LINE
  5
228
330
1F
100
AcDbEntity
  8
0
  6
Continuous
 62
     7
370
    25
100
AcDbLine
 10
78.6436235865
 20
209.8966095422
 30
0.0
 11
78.6436235865
 21
128.8966095422
 31
0.0
  0
ARC
  5
229
330
1F
100
AcDbEntity
  8
0
  6
Continuous
 62
     7
370
    25
100
AcDbCircle
 10
80.6436235865
 20
209.8966095422
 30
0.0
 40
2.0
100
AcDbArc
 50
90.0
 51
180.0
  0
ARC
  5
22A
330
1F
100
AcDbEntity
  8
0
  6
Continuous
 62
     7
370
    25
100
AcDbCircle
 10
211.6436235865
 20
128.8966095422
 30
0.0
 40
2.000000000000014
100
AcDbArc
 50
270.0
 51
0.0
  0
LINE
  5
22B
330
1F
100
AcDbEntity
  8
0
  6
Continuous
 62
     7
370
    25
100
AcDbLine
 10
80.6436235865
 20
126.8966095422
 30
0.0
 11
211.6436235865
 21
126.8966095422
 31
0.0
  0
LINE
  5
22C
330
1F
100
AcDbEntity
  8
0
  6
Continuous
 62
     7
370
    25
100
AcDbLine
 10
211.5063610035
 20
130.3911276812
 30
0.0
 11
211.5063610035
 21
208.4020914032
 31
0.0
  0
SPLINE
  5
22D
330
1F
100
AcDbEntity
  8
0
  6
Continuous
 62
     7
370
    25
100
AcDbSpline
210
0.0
220
0.0
230
1.0
 70
     8
 71
     3
 72
    18
 73
    14
 74
     0
 42
0.00000001
 43
0.00000001
 40
0.0
 40
0.0
 40
0.0
 40
0.0
 40
0.1250000000000034
 40
0.1250000000000034
 40
0.2500000000000069
 40
0.2500000000000069
 40
0.3750000000000103
 40
0.3750000000000103
 40
0.5000000000000138
 40
0.5000000000000138
 40
0.7500000000000069
 40
0.7500000000000069
 40
1.0
 40
1.0
 40
1.0
 40
1.0
 10
211.5063610035027
 20
208.4020914031884
 30
0.0
 10
211.506361003504
 20
208.4910319584494
 30
0.0
 10
211.4975135998304
 20
208.5790763490956
 30
0.0
 10
211.4631000920381
 20
208.7534716722515
 30
0.0
 10
211.4371063144206
 20
208.8403800619067
 30
0.0
 10
211.3695182148207
 20
209.0039972894864
 30
0.0
 10
211.3278343144368
 20
209.0817233805298
 30
0.0
 10
211.2294867836081
 20
209.2294244540162
 30
0.0
 10
211.1722405880269
 20
209.2997305401146
 30
0.0
 10
210.9840122271057
 20
209.4879609038839
 30
0.0
 10
210.8320584680626
 20
209.589171475779
 30
0.0
 10
210.5044943902714
 20
209.7241894088983
 30
0.0
 10
210.3252247444204
 20
209.759346959199
 30
0.0
 10
210.1491054474969
 20
209.7593469591941
 30
0.0
  0
LINE
  5
22E
330
1F
100
AcDbEntity
  8
0
  6
Continuous
 62
     7
370
    25
100
AcDbLine
 10
80.6436235865
 20
126.7131823147
 30
0.0
 11
80.6436235865
 21
126.8966095422
 31
0.0
  0
ARC
  5
22F
330
1F
100
AcDbEntity
  8
0
  6
Continuous
 62
     7
370
    25
100
AcDbCircle
 10
80.6436235865
 20
128.8966095422
 30
0.0
 40
2.18342722749064
100
AcDbArc
 50
180.0
 51
270.0
  0
LINE
  5
230
330
1F
100
AcDbEntity
  8
0
  6
Continuous
 62
     7
370
    25
100
AcDbLine
 10
78.460196359
 20
128.8966095422
 30
0.0
 11
78.6436235865
 21
128.8966095422
 31
0.0
  0
LINE
  5
231
330
1F
100
AcDbEntity
  8
0
  6
Continuous
 62
     7
370
    25
100
AcDbLine
 10
78.460196359
 20
209.8966095422
 30
0.0
 11
78.460196359
 21
128.8966095422
 31
0.0
  0
LINE
  5
232
330
1F
100
AcDbEntity
  8
0
  6
Continuous
 62
     7
370
    25
100
AcDbLine
 10
78.460196359
 20
209.8966095422
 30
0.0
 11
78.6436235865
 21
209.8966095422
 31
0.0
  0
SPLINE
  5
233
330
1F
100
AcDbEntity
  8
0
  6
Continuous
 62
     7
370
    25
100
AcDbSpline
210
0.0
220
0.0
230
1.0
 70
     8
 71
     3
 72
    10
 73
     6
 74
     0
 42
0.00000001
 43
0.00000001
 40
0.0
 40
0.0
 40
0.0
 40
0.0
 40
0.5
 40
0.5
 40
1.0
 40
1.0
 40
1.0
 40
1.0
 10
210.615428755691
 20
208.402091403188
 30
0.0
 10
210.615428755625
 20
208.5255489006229
 30
0.0
 10
210.5654415925546
 20
208.6466129994238
 30
0.0
 10
210.3933993859972
 20
208.8185526249703
 30
0.0
 10
210.2722837508198
 20
208.868414711332
 30
0.0
 10
210.149105447497
 20
208.8684147113824
 30
0.0
  0
LINE
  5
234
330
1F
100
AcDbEntity
  8
0
  6
Continuous
 62
     7
370
    25
100
AcDbLine
 10
210.6154287557
 20
208.4020914032
 30
0.0
 11
211.5063610035
 21
208.4020914032
 31
0.0
  0
LINE
  5
235
330
1F
100
AcDbEntity
  8
0
  6
Continuous
 62
     7
370
    25
100
AcDbLine
 10
217.460196359
 20
210.5966095422
 30
0.0
 11
217.6436235865
 21
210.5966095422
 31
0.0
  0
ARC
  5
236
330
1F
100
AcDbEntity
  8
0
  6
Continuous
 62
     7
370
    25
100
AcDbCircle
 10
212.3436235865
 20
210.5966095422
 30
0.0
 40
5.116572772509357
100
AcDbArc
 50
0.0
 51
90.0
  0
LINE
  5
237
330
1F
100
AcDbEntity
  8
0
  6
Continuous
 62
     7
370
    25
100
AcDbLine
 10
212.3436235865
 20
215.7131823147
 30
0.0
 11
212.3436235865
 21
215.8966095422
 31
0.0
  0
CIRCLE
  5
238
330
1F
100
AcDbEntity
  8
0
  6
Continuous
 62
     7
370
    25
100
AcDbCircle
 10
161.1436235865
 20
116.8966095422
 30
0.0
 40
2.197634805215344
  0
LINE
  5
239
330
1F
100
AcDbEntity
  8
0
  6
Continuous
 62
     7
370
    25
100
AcDbLine
 10
212.3436235865
 20
123.0800367697
 30
0.0
 11
212.3436235865
 21
122.8966095422
 31
0.0
  0
ARC
  5
23A
330
1F
100
AcDbEntity
  8
0
  6
Continuous
 62
     7
370
    25
100
AcDbCircle
 10
212.3436235865
 20
128.1966095422
 30
0.0
 40
5.116572772509343
100
AcDbArc
 50
270.0
 51
0.0
  0
LINE
  5
23B
330
1F
100
AcDbEntity
  8
0
  6
Continuous
 62
     7
370
    25
100
AcDbLine
 10
217.460196359
 20
128.1966095422
 30
0.0
 11
217.6436235865
 21
128.1966095422
 31
0.0
  0
LINE
  5
23C
330
1F
100
AcDbEntity
  8
0
  6
Continuous
 62
     7
370
    25
100
AcDbLine
 10
74.827050814
 20
128.1966095422
 30
0.0
 11
74.6436235865
 21
128.1966095422
 31
0.0
  0
ARC
  5
23D
330
1F
100
AcDbEntity
  8
0
  6
Continuous
 62
     7
370
    25
100
AcDbCircle
 10
79.9436235865
 20
128.1966095422
 30
0.0
 40
5.116572772509343
100
AcDbArc
 50
180.0
 51
270.0
  0
LINE
  5
23E
330
1F
100
AcDbEntity
  8
0
  6
Continuous
 62
     7
370
    25
100
AcDbLine
 10
79.9436235865
 20
123.0800367697
 30
0.0
 11
79.9436235865
 21
122.8966095422
 31
0.0
  0
LINE
  5
23F
330
1F
100
AcDbEntity
  8
0
  6
Continuous
 62
     7
370
    25
100
AcDbLine
 10
74.827050814
 20
210.5966095422
 30
0.0
 11
74.6436235865
 21
210.5966095422
 31
0.0
  0
LINE
  5
240
330
1F
100
AcDbEntity
  8
0
  6
Continuous
 62
     7
370
    25
100
AcDbLine
 10
74.827050814
 20
210.5966095422
 30
0.0
 11
74.827050814
 21
128.1966095422
 31
0.0
  0
LINE
  5
241
330
1F
100
AcDbEntity
  8
0
  6
Continuous
 62
     7
370
    25
100
AcDbLine
 10
79.9436235865
 20
215.7131823147
 30
0.0
 11
79.9436235865
 21
215.8966095422
 31
0.0
  0
ARC
  5
242
330
1F
100
AcDbEntity
  8
0
  6
Continuous
 62
     7
370
    25
100
AcDbCircle
 10
79.9436235865
 20
210.5966095422
 30
0.0
 40
5.116572772509386
100
AcDbArc
 50
90.0
 51
180.0
  0
LINE
  5
243
330
1F
100
AcDbEntity
  8
0
  6
Continuous
 62
     7
370
    25
100
AcDbLine
 10
212.3436235865
 20
215.7131823147
 30
0.0
 11
79.9436235865
 21
215.7131823147
 31
0.0
  0
ARC
  5
244
330
1F
100
AcDbEntity
  8
0
  6
Continuous
 62
     7
370
    25
100
AcDbCircle
 10
211.6436235865
 20
128.8966095422
 30
0.0
 40
2.183427227490668
100
AcDbArc
 50
270.0
 51
0.0
  0
LINE
  5
245
330
1F
100
AcDbEntity
  8
0
  6
Continuous
 62
     7
370
    25
100
AcDbLine
 10
211.6436235865
 20
126.7131823147
 30
0.0
 11
211.6436235865
 21
126.8966095422
 31
0.0
  0
LINE
  5
246
330
1F
100
AcDbEntity
  8
0
  6
Continuous
 62
     7
370
    25
100
AcDbLine
 10
80.6436235865
 20
126.7131823147
 30
0.0
 11
211.6436235865
 21
126.7131823147
 31
0.0
  0
LINE
  5
247
330
1F
100
AcDbEntity
  8
0
  6
Continuous
 62
     7
370
    25
100
AcDbLine
 10
210.6154287557
 20
130.3911276812
 30
0.0
 11
210.6154287557
 21
208.4020914032
 31
0.0
  0
LINE
  5
248
330
1F
100
AcDbEntity
  8
0
  6
Continuous
 62
     7
370
    25
100
AcDbLine
 10
217.460196359
 20
128.1966095422
 30
0.0
 11
217.460196359
 21
210.5966095422
 31
0.0
  0
LINE
  5
249
330
1F
100
AcDbEntity
  8
0
  6
Continuous
 62
     7
370
    25
100
AcDbLine
 10
79.9436235865
 20
123.0800367697
 30
0.0
 11
212.3436235865
 21
123.0800367697
 31
0.0
  0
ARC
  5
24A
330
1F
100
AcDbEntity
  8
0
  6
Continuous
 62
     7
370
    25
100
AcDbCircle
 10
80.6436235865
 20
209.8966095422
 30
0.0
 40
2.18342722749064
100
AcDbArc
 50
90.0
 51
180.0
  0
ELLIPSE
  5
24B
330
1F
100
AcDbEntity
  8
0
  6
Continuous
 62
     7
370
    25
100
AcDbEllipse
 10
102.8936235865
 20
224.8966095422
 30
0.0
 11
0.0
 21
1.299999999999955
 31
0.0
210
0.0
220
0.0
230
1.0
 40
0.0524077793
 41
3.403392041389262
 42
6.021385919380601
  0
ELLIPSE
  5
24C
330
1F
100
AcDbEntity
  8
0
  6
Continuous
 62
     7
370
    25
100
AcDbEllipse
 10
106.1436235865
 20
224.8966095422
 30
0.0
 11
0.0
 21
1.299999999999955
 31
0.0
210
0.0
220
0.0
230
1.0
 40
0.0174550649
 41
0.2617993877987421
 42
2.879793265791058
  0
ELLIPSE
  5
24D
330
1F
100
AcDbEntity
  8
0
  6
Continuous
 62
     7
370
    25
100
AcDbEllipse
 10
196.1436235865
 20
224.8966095422
 30
0.0
 11
0.0
 21
1.299999999999955
 31
0.0
210
0.0
220
0.0
230
1.0
 40
0.0174550649
 41
0.2617993877984289
 42
2.879793265791371
  0
ELLIPSE
  5
24E
330
1F
100
AcDbEntity
  8
0
  6
Continuous
 62
     7
370
    25
100
AcDbEllipse
 10
192.8936235865
 20
224.8966095422
 30
0.0
 11
0.0
 21
1.299999999999955
 31
0.0
210
0.0
220
0.0
230
1.0
 40
0.0524077793
 41
3.40339204138921
 42
6.021385919380653
  0
ELLIPSE
  5
24F
330
1F
100
AcDbEntity
  8
0
  6
Continuous
 62
     7
370
    25
100
AcDbEllipse
 10
96.1436235865
 20
224.8966095422
 30
0.0
 11
0.0
 21
1.299999999999955
 31
0.0
210
0.0
220
0.0
230
1.0
 40
0.0174550649
 41
3.403392041389869
 42
6.021385919380986
  0
ELLIPSE
  5
250
330
1F
100
AcDbEntity
  8
0
  6
Continuous
 62
     7
370
    25
100
AcDbEllipse
 10
99.3936235865
 20
224.8966095422
 30
0.0
 11
0.0
 21
1.299999999999955
 31
0.0
210
0.0
220
0.0
230
1.0
 40
0.0524077793
 41
0.2617993877994333
 42
2.879793265790367
  0
ELLIPSE
  5
251
330
1F
100
AcDbEntity
  8
0
  6
Continuous
 62
     7
370
    25
100
AcDbEllipse
 10
189.3936235865
 20
224.8966095422
 30
0.0
 11
0.0
 21
1.299999999999955
 31
0.0
210
0.0
220
0.0
230
1.0
 40
0.0524077793
 41
0.261799387799687
 42
2.879793265790118
  0
ELLIPSE
  5
252
330
1F
100
AcDbEntity
  8
0
  6
Continuous
 62
     7
370
    25
100
AcDbEllipse
 10
186.1436235865
 20
224.8966095422
 30
0.0
 11
0.0
 21
1.299999999999955
 31
0.0
210
0.0
220
0.0
230
1.0
 40
0.0174550649
 41
3.403392041388378
 42
6.021385919382477
  0
DIMENSION
  5
253
330
1F
100
AcDbEntity
  8
LAYER_1
100
AcDbDimension
  2
_D
 10
71.1436235865
 20
95.8966095422
 30
0.0
 11
146.1436235865
 21
95.8966095422
 31
0.0
 70
   160
  1
<>
 71
     2
 42
-1.0
  3
SLDDIMSTYLE0
100
AcDbAlignedDimension
 13
221.1436235865
 23
127.3856458202
 33
0.0
 14
71.1436235865
 24
127.3856458202
 34
0.0
 50
0.0
100
AcDbRotatedDimension
  0
DIMENSION
  5
25F
330
1F
100
AcDbEntity
  8
LAYER_1
100
AcDbDimension
  2
_D_1
 10
54.6916369823
 20
219.3966095422
 30
0.0
 11
54.6916369823
 21
169.3966095422
 31
0.0
 70
   160
  1
<>
 71
     2
 42
-1.0
  3
SLDDIMSTYLE0
100
AcDbAlignedDimension
 13
79.1326598646
 23
119.3966095422
 33
0.0
 14
79.1326598646
 24
219.3966095422
 34
0.0
 50
90.0
100
AcDbRotatedDimension
  0
DIMENSION
  5
269
330
1F
100
AcDbEntity
  8
LAYER_1
100
AcDbDimension
  2
_D_2
 10
81.6718184173
 20
105.345070004
 30
0.0
 11
146.1436235865
 21
105.345070004
 31
0.0
 70
   160
  1
<>
 71
     2
 42
-1.0
  3
SLDDIMSTYLE1
100
AcDbAlignedDimension
 13
210.6154287557
 23
130.3911276812
 33
0.0
 14
81.6718184173
 24
130.3911276812
 34
0.0
 50
0.0
100
AcDbRotatedDimension
  0
DIMENSION
  5
274
330
1F
100
AcDbEntity
  8
LAYER_1
100
AcDbDimension
  2
_D_3
 10
60.6916369823
 20
129.924804373
 30
0.0
 11
60.6916369823
 21
169.3966095422
 31
0.0
 70
   160
  1
<>
 71
     2
 42
-1.0
  3
SLDDIMSTYLE1
100
AcDbAlignedDimension
 13
82.1381417255
 23
208.8684147114
 33
0.0
 14
82.1381417255
 24
129.924804373
 34
0.0
 50
90.0
100
AcDbRotatedDimension
  0
DIMENSION
  5
27E
330
1F
100
AcDbEntity
  8
LAYER_1
100
AcDbDimension
  2
_D_4
 10
158.9702904774
 20
117.4789523937
 30
0.0
 11
179.0971526497
 21
112.0859886079
 31
0.0
 70
   163
  1
<>
 71
     1
 42
-1.0
  3
SLDDIMSTYLE2
100
AcDbDiametricDimension
 15
163.3169566957
 25
116.3142666907
 35
0.0
 40
0.0
  0
INSERT
  5
296
330
1F
100
AcDbEntity
  8
LAYER_1
100
AcDbBlockReference
  2
SW_CENTERMARKSYMBOL_0
 10
161.1436235865
 20
116.8966095422
 30
0.0
  0
LINE
  5
297
330
1F
100
AcDbEntity
  8
0
  6
CENTER
 62
     7
370
    35
100
AcDbLine
 10
146.1436235865
 20
263.8074969591
 30
0.0
 11
146.1436235865
 21
275.8074969591
 31
0.0
  0
LINE
  5
298
330
1F
100
AcDbEntity
  8
0
  6
CENTER
 62
     7
370
    35
100
AcDbLine
 10
146.1436235865
 20
67.1734662204
 30
0.0
 11
146.1436235865
 21
79.1794662204
 31
0.0
  0
LINE
  5
299
330
1F
100
AcDbEntity
  8
0
  6
Continuous
 62
     7
370
    35
100
AcDbLine
 10
158.1436235865
 20
274.3074969591
 30
0.0
 11
146.1436235865
 21
274.3074969591
 31
0.0
  0
SOLID
  5
29A
330
1F
100
AcDbEntity
  8
0
  6
Continuous
 62
     7
370
    35
100
AcDbTrace
 10
146.1436235865
 20
274.3074969591
 30
0.0
 11
152.1436235865
 21
272.8074969591
 31
0.0
 12
152.1436235865
 22
275.8074969591
 32
0.0
 13
152.1436235865
 23
275.8074969591
 33
0.0
  0
LINE
  5
29B
330
1F
100
AcDbEntity
  8
0
  6
Continuous
 62
     7
370
    35
100
AcDbLine
 10
158.1436235865
 20
68.6734662204
 30
0.0
 11
146.1436235865
 21
68.6734662204
 31
0.0
  0
SOLID
  5
29C
330
1F
100
AcDbEntity
  8
0
  6
Continuous
 62
     7
370
    35
100
AcDbTrace
 10
146.1436235865
 20
68.6734662204
 30
0.0
 11
152.1436235865
 21
67.1734662204
 31
0.0
 12
152.1436235865
 22
70.1734662204
 32
0.0
 13
152.1436235865
 23
70.1734662204
 33
0.0
  0
MTEXT
  5
29D
330
1F
100
AcDbEntity
  8
0
  6
Continuous
 62
     7
100
AcDbMText
 10
151.8816961877
 20
284.3903207741
 30
0.0
 40
6.35
 41
0.0
 71
     1
 72
     1
  1
A
  7
SLDTEXTSTYLE3
 73
     1
 44
1.0
  0
MTEXT
  5
29E
330
1F
100
AcDbEntity
  8
0
  6
Continuous
 62
     7
100
AcDbMText
 10
151.8816961877
 20
65.31588589
 30
0.0
 40
6.35
 41
0.0
 71
     1
 72
     1
  1
A
  7
SLDTEXTSTYLE3
 73
     1
 44
1.0
  0
LINE
  5
29F
330
1F
100
AcDbEntity
  8
0
  6
Continuous
 62
     7
370
    25
100
AcDbLine
 10
303.9140826025
 20
126.8966095422
 30
0.0
 11
303.9140826025
 21
129.0338721252
 31
0.0
  0
LINE
  5
2A0
330
1F
100
AcDbEntity
  8
0
  6
Continuous
 62
     7
370
    25
100
AcDbLine
 10
320.9140826025
 20
129.924804373
 30
0.0
 11
303.9140826025
 21
129.0338721252
 31
0.0
  0
LINE
  5
2A1
330
1F
100
AcDbEntity
  8
0
  6
Continuous
 62
     7
370
    25
100
AcDbLine
 10
303.9140826025
 20
209.7593469592
 30
0.0
 11
303.9140826025
 21
211.8966095422
 31
0.0
  0
LINE
  5
2A2
330
1F
100
AcDbEntity
  8
0
  6
Continuous
 62
     7
370
    25
100
AcDbLine
 10
303.9140826025
 20
211.8966095422
 30
0.0
 11
307.4140826025
 21
212.0800367697
 31
0.0
  0
LINE
  5
2A3
330
1F
100
AcDbEntity
  8
0
  6
Continuous
 62
     7
370
    25
100
AcDbLine
 10
307.4140826025
 20
212.0800367697
 30
0.0
 11
307.4140826025
 21
215.7131823147
 31
0.0
  0
LINE
  5
2A4
330
1F
100
AcDbEntity
  8
0
  6
Continuous
 62
     7
370
    25
100
AcDbLine
 10
303.9140826025
 20
215.8966095422
 30
0.0
 11
307.4140826025
 21
215.7131823147
 31
0.0
  0
LINE
  5
2A5
330
1F
100
AcDbEntity
  8
0
  6
Continuous
 62
     7
370
    25
100
AcDbLine
 10
303.9140826025
 20
215.8966095422
 30
0.0
 11
303.9140826025
 21
219.3966095422
 31
0.0
  0
LINE
  5
2A6
330
1F
100
AcDbEntity
  8
0
  6
Continuous
 62
     7
370
    25
100
AcDbLine
 10
309.4925865368
 20
219.1042525393
 30
0.0
 11
303.9140826025
 21
219.3966095422
 31
0.0
  0
ARC
  5
2A7
330
1F
100
AcDbEntity
  8
0
  6
Continuous
 62
     7
370
    25
100
AcDbCircle
 10
309.4140826025
 20
217.6063082372
 30
0.0
 40
1.5
100
AcDbArc
 50
0.0
 51
87.0
  0
LINE
  5
2A8
330
1F
100
AcDbEntity
  8
0
  6
Continuous
 62
     7
370
    25
100
AcDbLine
 10
310.9140826025
 20
217.6063082372
 30
0.0
 11
310.9140826025
 21
212.3966095422
 31
0.0
  0
LINE
  5
2A9
330
1F
100
AcDbEntity
  8
0
  6
Continuous
 62
     7
370
    25
100
AcDbLine
 10
310.9140826025
 20
212.3966095422
 30
0.0
 11
322.4925865368
 21
211.7898058636
 31
0.0
  0
ARC
  5
2AA
330
1F
100
AcDbEntity
  8
0
  6
Continuous
 62
     7
370
    25
100
AcDbCircle
 10
322.4140826025
 20
210.2918615615
 30
0.0
 40
1.500000000000025
100
AcDbArc
 50
0.0
 51
87.0
  0
LINE
  5
2AB
330
1F
100
AcDbEntity
  8
0
  6
Continuous
 62
     7
370
    25
100
AcDbLine
 10
323.9140826025
 20
210.2918615615
 30
0.0
 11
323.9140826025
 21
128.501357523
 31
0.0
  0
ARC
  5
2AC
330
1F
100
AcDbEntity
  8
0
  6
Continuous
 62
     7
370
    25
100
AcDbCircle
 10
322.4140826025
 20
128.501357523
 30
0.0
 40
1.500000000000025
100
AcDbArc
 50
273.0
 51
360.0
  0
LINE
  5
2AD
330
1F
100
AcDbEntity
  8
0
  6
Continuous
 62
     7
370
    25
100
AcDbLine
 10
322.4925865368
 20
127.0034132208
 30
0.0
 11
310.9140826025
 21
126.3966095422
 31
0.0
  0
LINE
  5
2AE
330
1F
100
AcDbEntity
  8
0
  6
Continuous
 62
     7
370
    25
100
AcDbLine
 10
310.9140826025
 20
126.3966095422
 30
0.0
 11
310.9140826025
 21
121.1869108473
 31
0.0
  0
ARC
  5
2AF
330
1F
100
AcDbEntity
  8
0
  6
Continuous
 62
     7
370
    25
100
AcDbCircle
 10
309.4140826025
 20
121.1869108473
 30
0.0
 40
1.500000000000008
100
AcDbArc
 50
273.0
 51
0.0
  0
LINE
  5
2B0
330
1F
100
AcDbEntity
  8
0
  6
Continuous
 62
     7
370
    25
100
AcDbLine
 10
303.9140826025
 20
119.3966095422
 30
0.0
 11
309.4925865368
 21
119.6889665451
 31
0.0
  0
LINE
  5
2B1
330
1F
100
AcDbEntity
  8
0
  6
Continuous
 62
     7
370
    25
100
AcDbLine
 10
303.9140826025
 20
119.3966095422
 30
0.0
 11
303.9140826025
 21
122.8966095422
 31
0.0
  0
LINE
  5
2B2
330
1F
100
AcDbEntity
  8
0
  6
Continuous
 62
     7
370
    25
100
AcDbLine
 10
307.4140826025
 20
123.0800367697
 30
0.0
 11
303.9140826025
 21
122.8966095422
 31
0.0
  0
LINE
  5
2B3
330
1F
100
AcDbEntity
  8
0
  6
Continuous
 62
     7
370
    25
100
AcDbLine
 10
307.4140826025
 20
123.0800367697
 30
0.0
 11
307.4140826025
 21
126.7131823147
 31
0.0
  0
LINE
  5
2B4
330
1F
100
AcDbEntity
  8
0
  6
Continuous
 62
     7
370
    25
100
AcDbLine
 10
307.4140826025
 20
126.7131823147
 30
0.0
 11
303.9140826025
 21
126.8966095422
 31
0.0
  0
LINE
  5
2B5
330
1F
100
AcDbEntity
  8
0
  6
Continuous
 62
     7
370
    25
100
AcDbLine
 10
303.9140826025
 20
209.7593469592
 30
0.0
 11
320.9140826025
 21
208.8684147114
 31
0.0
  0
LINE
  5
2B6
330
1F
100
AcDbEntity
  8
0
  6
Continuous
 62
     7
370
    25
100
AcDbLine
 10
320.9140826025
 20
208.8684147114
 30
0.0
 11
320.9140826025
 21
129.924804373
 31
0.0
  0
LINE
  5
2B7
330
1F
100
AcDbEntity
  8
0
  6
Continuous
 62
     7
370
    25
100
AcDbLine
 10
313.9140826025
 20
122.1062406593
 30
0.0
 11
310.9140826025
 21
122.2634639972
 31
0.0
  0
LINE
  5
2B8
330
1F
100
AcDbEntity
  8
0
  6
Continuous
 62
     7
370
    25
100
AcDbLine
 10
313.9140826025
 20
122.1062406593
 30
0.0
 11
313.9140826025
 21
119.920687335
 31
0.0
  0
LINE
  5
2B9
330
1F
100
AcDbEntity
  8
0
  6
Continuous
 62
     7
370
    25
100
AcDbLine
 10
313.9140826025
 20
119.920687335
 30
0.0
 11
309.4925865368
 21
119.6889665451
 31
0.0
  0
ARC
  5
2BA
330
1F
100
AcDbEntity
  8
0
  6
Continuous
 62
     7
370
    25
100
AcDbCircle
 10
303.9140826025
 20
224.8966095422
 30
0.0
 40
1.30000000000002
100
AcDbArc
 50
285.0
 51
75.0
  0
LINE
  5
2BB
330
1F
100
AcDbEntity
  8
0
  6
Continuous
 62
     7
370
    25
100
AcDbLine
 10
304.2505473611
 20
226.1523131164
 30
0.0
 11
303.9140826025
 21
226.2424685767
 31
0.0
  0
LINE
  5
2BC
330
1F
100
AcDbEntity
  8
0
  6
Continuous
 62
     7
370
    25
100
AcDbLine
 10
303.9140826025
 20
226.2424685767
 30
0.0
 11
303.9140826025
 21
228.8966095422
 31
0.0
  0
ARC
  5
2BD
330
1F
100
AcDbEntity
  8
0
  6
Continuous
 62
     7
370
    25
100
AcDbCircle
 10
303.9140826025
 20
224.8966095422
 30
0.0
 40
4.0
100
AcDbArc
 50
40.0
 51
90.0
  0
LINE
  5
2BE
330
1F
100
AcDbEntity
  8
0
  6
Continuous
 62
     7
370
    25
100
AcDbLine
 10
313.7507597313
 20
219.3966095422
 30
0.0
 11
306.9782603749
 21
227.467759981
 31
0.0
  0
LINE
  5
2BF
330
1F
100
AcDbEntity
  8
0
  6
Continuous
 62
     7
370
    25
100
AcDbLine
 10
313.7507597313
 20
212.2479455933
 30
0.0
 11
313.7507597313
 21
219.3966095422
 31
0.0
  0
LINE
  5
2C0
330
1F
100
AcDbEntity
  8
0
  6
Continuous
 62
     7
370
    25
100
AcDbLine
 10
303.9140826025
 20
223.5507505077
 30
0.0
 11
303.9140826025
 21
220.8966095422
 31
0.0
  0
LINE
  5
2C1
330
1F
100
AcDbEntity
  8
0
  6
Continuous
 62
     7
370
    25
100
AcDbLine
 10
303.9140826025
 20
223.5507505077
 30
0.0
 11
304.2505473611
 21
223.640905968
 31
0.0
  0
LINE
  5
2C2
330
1F
100
AcDbEntity
  8
0
  6
Continuous
 62
     7
370
    25
100
AcDbLine
 10
303.9140826025
 20
220.8966095422
 30
0.0
 11
303.9140826025
 21
219.3966095422
 31
0.0
  0
LINE
  5
2C3
330
1F
100
AcDbEntity
  8
0
  6
Continuous
 62
     7
370
    25
100
AcDbLine
 10
300.5965889919
 20
222.6618307738
 30
0.0
 11
303.9140826025
 21
223.5507505077
 31
0.0
  0
ARC
  5
2C4
330
1F
100
AcDbEntity
  8
0
  6
Continuous
 62
     7
370
    25
100
AcDbCircle
 10
303.9140826025
 20
224.8966095422
 30
0.0
 40
4.0
100
AcDbArc
 50
213.9655749888
 51
270.0
  0
LINE
  5
2C5
330
1F
100
AcDbEntity
  8
0
  6
Continuous
 62
     7
370
    25
100
AcDbLine
 10
303.9140826025
 20
226.2424685767
 30
0.0
 11
300.5965889919
 21
227.1313883106
 31
0.0
  0
ARC
  5
2C6
330
1F
100
AcDbEntity
  8
0
  6
Continuous
 62
     7
370
    25
100
AcDbCircle
 10
303.9140826025
 20
224.8966095422
 30
0.0
 40
4.0
100
AcDbArc
 50
90.0
 51
146.0344250112
  0
ARC
  5
2C7
330
1F
100
AcDbEntity
  8
0
  6
Continuous
 62
     7
370
    25
100
AcDbCircle
 10
303.9140826025
 20
224.8966095422
 30
0.0
 40
1.299999999999992
100
AcDbArc
 50
105.0
 51
255.0
  0
LINE
  5
2C8
330
1F
100
AcDbEntity
  8
0
  6
Continuous
 62
     7
370
    25
100
AcDbLine
 10
303.9140826025
 20
223.5507505077
 30
0.0
 11
303.5776178438
 21
223.640905968
 31
0.0
  0
LINE
  5
2C9
330
1F
100
AcDbEntity
  8
0
  6
Continuous
 62
     7
370
    25
100
AcDbLine
 10
303.5776178438
 20
226.1523131164
 30
0.0
 11
303.9140826025
 21
226.2424685767
 31
0.0
  0
ARC
  5
2CA
330
1F
100
AcDbEntity
  8
0
  6
Continuous
 62
     7
370
    25
100
AcDbCircle
 10
303.9140826025
 20
224.8966095422
 30
0.0
 40
3.999999999999996
100
AcDbArc
 50
146.0344250112
 51
213.9655749888
  0
LINE
  5
2CB
330
1F
100
AcDbEntity
  8
0
  6
Continuous
 62
     7
370
    25
100
AcDbLine
 10
320.9140826025
 20
130.3911276812
 30
0.0
 11
303.9140826025
 21
130.3911276812
 31
0.0
  0
SPLINE
  5
2CC
330
1F
100
AcDbEntity
  8
0
  6
Continuous
 62
     7
370
    25
100
AcDbSpline
210
0.0
220
0.0
230
1.0
 70
    24
 71
     3
 72
    18
 73
    14
 74
     0
 42
0.00000001
 43
0.00000001
 40
0.0
 40
0.0
 40
0.0
 40
0.0
 40
0.1249999999999966
 40
0.1249999999999966
 40
0.2499999999999931
 40
0.2499999999999931
 40
0.3749999999999897
 40
0.3749999999999897
 40
0.4999999999999862
 40
0.4999999999999862
 40
0.7499999999999931
 40
0.7499999999999931
 40
1.0
 40
1.0
 40
1.0
 40
1.0
 10
303.9140826024518
 20
130.3911276812259
 30
0.0
 10
303.9140826024518
 20
130.3021871259756
 30
0.0
 10
303.9140826024518
 20
130.2141427353271
 30
0.0
 10
303.9140826024518
 20
130.039747412143
 30
0.0
 10
303.9140826024518
 20
129.9528390224937
 30
0.0
 10
303.9140826024518
 20
129.7892217949444
 30
0.0
 10
303.9140826024518
 20
129.7114957039087
 30
0.0
 10
303.9140826024518
 20
129.5637946304261
 30
0.0
 10
303.9140826024519
 20
129.4934885443225
 30
0.0
 10
303.9140826024519
 20
129.3052581805459
 30
0.0
 10
303.9140826024519
 20
129.2040476086437
 30
0.0
 10
303.9140826024519
 20
129.0690296755188
 30
0.0
 10
303.9140826024518
 20
129.0338721252174
 30
0.0
 10
303.9140826024518
 20
129.0338721252201
 30
0.0
  0
LINE
  5
2CD
330
1F
100
AcDbEntity
  8
0
  6
Continuous
 62
     7
370
    25
100
AcDbLine
 10
303.9140826025
 20
208.4020914032
 30
0.0
 11
320.9140826025
 21
208.4020914032
 31
0.0
  0
SPLINE
  5
2CE
330
1F
100
AcDbEntity
  8
0
  6
Continuous
 62
     7
370
    25
100
AcDbSpline
210
0.0
220
0.0
230
1.0
 70
    24
 71
     3
 72
    16
 73
    12
 74
     0
 42
0.00000001
 43
0.00000001
 40
0.0
 40
0.0
 40
0.0
 40
0.0
 40
0.2500000000000028
 40
0.2500000000000028
 40
0.3750000000000023
 40
0.3750000000000023
 40
0.5000000000000019
 40
0.5000000000000019
 40
0.7500000000000009
 40
0.7500000000000009
 40
1.0
 40
1.0
 40
1.0
 40
1.0
 10
303.9140826024518
 20
209.7593469591951
 30
0.0
 10
303.9140826024518
 20
209.7593469592001
 30
0.0
 10
303.9140826024518
 20
209.7242427058252
 30
0.0
 10
303.9140826024518
 20
209.6223734591187
 30
0.0
 10
303.9140826024518
 20
209.5805460738571
 30
0.0
 10
303.9140826024518
 20
209.4821874612638
 30
0.0
 10
303.9140826024518
 20
209.4251183664286
 30
0.0
 10
303.9140826024518
 20
209.2374342244614
 30
0.0
 10
303.9140826024519
 20
209.0859852846544
 30
0.0
 10
303.9140826024519
 20
208.759484171762
 30
0.0
 10
303.9140826024518
 20
208.5813187789871
 30
0.0
 10
303.9140826024518
 20
208.4020914031893
 30
0.0
  0
LINE
  5
2CF
330
1F
100
AcDbEntity
  8
0
  6
Continuous
 62
     7
370
    25
100
AcDbLine
 10
303.9140826025
 20
208.4020914032
 30
0.0
 11
303.9140826025
 21
130.3911276812
 31
0.0
  0
LINE
  5
2D0
330
1F
100
AcDbEntity
  8
0
  6
Continuous
 62
     7
370
    25
100
AcDbLine
 10
303.9140826025
 20
126.8966095422
 30
0.0
 11
303.9140826025
 21
122.8966095422
 31
0.0
  0
LINE
  5
2D1
330
1F
100
AcDbEntity
  8
0
  6
Continuous
 62
     7
370
    25
100
AcDbLine
 10
303.9140826025
 20
215.8966095422
 30
0.0
 11
303.9140826025
 21
211.8966095422
 31
0.0
  0
HATCH
  5
2D2
330
1F
100
AcDbEntity
  8
LAYER_1
  6
Continuous
370
    18
100
AcDbHatch
 10
0.0
 20
0.0
 30
0.0
210
0.0
220
0.0
230
1.0
  2
ANSI31
 70
     0
 71
     0
 91
        1
 92
        0
 93
       24
 72
     1
 10
303.9140826024521
 20
126.8966095422076
 11
307.4140826024521
 21
126.713182314717
 72
     1
 10
307.4140826024521
 20
126.713182314717
 11
307.4140826024521
 21
123.0800367696983
 72
     1
 10
307.4140826024521
 20
123.0800367696983
 11
303.9140826024521
 21
122.8966095422076
 72
     1
 10
303.9140826024521
 20
122.8966095422076
 11
303.9140826024521
 21
119.3966095422076
 72
     1
 10
303.9140826024521
 20
119.3966095422076
 11
309.4925865368165
 21
119.6889665451294
 72
     2
 10
309.4140826024521
 20
121.1869108472613
 40
1.5
 50
272.9999999999999
 51
360.0000000000008
 73
     1
 72
     1
 10
310.9140826024521
 20
121.1869108472613
 11
310.9140826024521
 21
126.3966095422077
 72
     1
 10
310.9140826024521
 20
126.3966095422077
 11
322.4925865368165
 21
127.0034132208277
 72
     2
 10
322.4140826024521
 20
128.5013575229596
 40
1.5
 50
273.000000000002
 51
359.9999999999998
 73
     1
 72
     1
 10
323.9140826024521
 20
128.5013575229596
 11
323.9140826024515
 21
210.2918615614559
 72
     2
 10
322.4140826024515
 20
210.2918615614559
 40
1.5
 50
0.0
 51
87.00000000000091
 73
     1
 72
     1
 10
322.4925865368159
 20
211.7898058635878
 11
310.9140826024515
 21
212.3966095422077
 72
     1
 10
310.9140826024515
 20
212.3966095422077
 11
310.9140826024515
 21
217.6063082371541
 72
     2
 10
309.4140826024515
 20
217.6063082371541
 40
1.5
 50
0.0
 51
87.00000000000091
 73
     1
 72
     1
 10
309.4925865368158
 20
219.1042525392859
 11
303.9140826024515
 21
219.3966095422076
 72
     1
 10
303.9140826024515
 20
219.3966095422076
 11
303.9140826024515
 21
215.8966095422076
 72
     1
 10
303.9140826024515
 20
215.8966095422076
 11
307.4140826024515
 21
215.713182314717
 72
     1
 10
307.4140826024515
 20
215.713182314717
 11
307.4140826024515
 21
212.0800367696983
 72
     1
 10
307.4140826024515
 20
212.0800367696983
 11
303.9140826024515
 21
211.8966095422076
 72
     1
 10
303.9140826024515
 20
211.8966095422076
 11
303.9140826024515
 21
209.7593469591951
 72
     1
 10
303.9140826024515
 20
209.7593469591951
 11
320.9140826024515
 21
208.8684147113836
 72
     1
 10
320.9140826024515
 20
208.8684147113836
 11
320.9140826024521
 21
129.9248043730319
 72
     1
 10
320.9140826024521
 20
129.9248043730319
 11
303.9140826024521
 21
129.0338721252201
 72
     1
 10
303.9140826024521
 20
129.0338721252201
 11
303.9140826024521
 21
126.8966095422076
 97
        0
 75
     0
 76
     1
 52
0.0
 41
0.5
 77
     0
 78
     1
 53
45.0
 43
0.0
 44
0.0
 45
-1.122532015133644
 46
1.122532015133644
 79
     0
 98
        1
 10
0.0
 20
0.0
  0
DIMENSION
  5
2D3
330
1F
100
AcDbEntity
  8
LAYER_1
100
AcDbDimension
  2
_D_5
 10
303.9140826025
 20
108.944622938
 30
0.0
 11
313.9140826025
 21
108.944622938
 31
0.0
 70
   160
  1
<>
 71
     2
 42
-1.0
  3
SLDDIMSTYLE3
100
AcDbAlignedDimension
 13
323.9140826025
 23
128.501357523
 33
0.0
 14
303.9140826025
 24
126.8966095422
 34
0.0
 50
0.0
100
AcDbRotatedDimension
  0
DIMENSION
  5
2E0
330
1F
100
AcDbEntity
  8
LAYER_1
100
AcDbDimension
  2
_D_6
 10
320.9140826025
 20
184.8179737222
 30
0.0
 11
334.246435349
 21
184.8179737222
 31
0.0
 70
   160
  1
<>
 71
     2
 42
-1.0
  3
SLDDIMSTYLE3
100
AcDbAlignedDimension
 13
323.9140826025
 23
210.2918615615
 33
0.0
 14
320.9140826025
 24
208.8684147114
 34
0.0
 50
0.0
100
AcDbRotatedDimension
  0
DIMENSION
  5
2EA
330
1F
100
AcDbEntity
  8
LAYER_1
100
AcDbDimension
  2
_D_7
 10
303.9140826025
 20
169.3739745384
 30
0.0
 11
312.9745119449
 21
169.3739745384
 31
0.0
 70
   160
  1
<>
 71
     2
 42
-1.0
  3
SLDDIMSTYLE0
100
AcDbAlignedDimension
 13
320.9140826025
 23
129.924804373
 33
0.0
 14
303.9140826025
 24
126.8966095422
 34
0.0
 50
0.0
100
AcDbRotatedDimension
  0
INSERT
  5
2F7
330
1F
100
AcDbEntity
  8
LAYER_1
100
AcDbBlockReference
  2
SW_NOTE_0_5
 10
296.8747084819
 20
95.8587199043
 30
0.0
  0
ENDSEC
  0
SECTION
  2
OBJECTS
  0
DICTIONARY
  5
C
330
0
100
AcDbDictionary
281
     1
  3
ACAD_GROUP
350
D
  3
ACAD_LAYOUT
350
1A
  3
ACAD_MLINESTYLE
350
17
  3
ACAD_PLOTSETTINGS
350
19
  3
ACAD_PLOTSTYLENAME
350
E
  3
ACAD_SCALELIST
350
47
  3
DWGPROPS
350
2F8
  0
DICTIONARY
  5
D
102
{ACAD_REACTORS
330
C
102
}
330
C
100
AcDbDictionary
281
     1
  0
DICTIONARY
  5
1A
102
{ACAD_REACTORS
330
C
102
}
330
C
100
AcDbDictionary
281
     1
  3
Layout1
350
1E
  3
Layout2
350
26
  3
Model
350
22
  0
DICTIONARY
  5
17
102
{ACAD_REACTORS
330
C
102
}
330
C
100
AcDbDictionary
281
     1
  3
Standard
350
18
  0
DICTIONARY
  5
19
102
{ACAD_REACTORS
330
C
102
}
330
C
100
AcDbDictionary
281
     1
  0
ACDBDICTIONARYWDFLT
  5
E
102
{ACAD_REACTORS
330
C
102
}
330
C
100
AcDbDictionary
281
     1
  3
Normal
350
F
100
AcDbDictionaryWithDefault
340
F
  0
DICTIONARY
  5
47
102
{ACAD_REACTORS
330
C
102
}
330
C
100
AcDbDictionary
281
     1
  3
A0
350
48
  3
A1
350
49
  3
A2
350
4A
  3
A3
350
4B
  3
A4
350
4C
  3
A5
350
4D
  3
A6
350
4E
  3
A7
350
4F
  3
A8
350
50
  3
A9
350
51
  3
B0
350
52
  3
B1
350
53
  3
B2
350
54
  3
B3
350
55
  3
B4
350
56
  3
B5
350
57
  3
B6
350
58
  3
B7
350
59
  3
B8
350
5A
  3
B9
350
5B
  3
C0
350
5C
  3
C1
350
5D
  3
C2
350
5E
  3
C3
350
5F
  3
C4
350
60
  3
C5
350
61
  3
C6
350
62
  3
C7
350
63
  3
C8
350
64
  3
C9
350
65
  3
D0
350
66
  3
D1
350
67
  3
D2
350
68
  0
XRECORD
  5
2F8
102
{ACAD_REACTORS
330
C
102
}
330
C
100
AcDbXrecord
280
     1
  1
DWGPROPS COOKIE
  2

  3

  4

  6

  7

  8
dursun
  9

300
=
301
=
302
=
303
=
304
=
305
=
306
=
307
=
308
=
309
=
 40
0.0
 41
2459199.316567732
 42
2459199.316570752
  1

 90
        0
  0
LAYOUT
  5
1E
102
{ACAD_REACTORS
330
1A
102
}
330
1A
100
AcDbPlotSettings
  1

  2
none_device
  4

  6

 40
0.0
 41
0.0
 42
0.0
 43
0.0
 44
0.0
 45
0.0
 46
0.0
 47
0.0
 48
0.0
 49
0.0
140
0.0
141
0.0
142
1.0
143
1.0
 70
   688
 72
     1
 73
     0
 74
     5
  7

 75
    16
147
1.0
148
0.0
149
0.0
100
AcDbLayout
  1
Layout1
 70
     1
 71
     1
 10
0.0
 20
0.0
 11
420.0
 21
297.0
 12
0.0
 22
0.0
 32
0.0
 14
1.0000000000E+20
 24
1.0000000000E+20
 34
1.0000000000E+20
 15
-1.0000000000E+20
 25
-1.0000000000E+20
 35
-1.0000000000E+20
146
0.0
 13
0.0
 23
0.0
 33
0.0
 16
1.0
 26
0.0
 36
0.0
 17
0.0
 27
1.0
 37
0.0
 76
     0
330
1B
  0
LAYOUT
  5
26
102
{ACAD_REACTORS
330
1A
102
}
330
1A
100
AcDbPlotSettings
  1

  2
none_device
  4

  6

 40
0.0
 41
0.0
 42
0.0
 43
0.0
 44
0.0
 45
0.0
 46
0.0
 47
0.0
 48
0.0
 49
0.0
140
0.0
141
0.0
142
1.0
143
1.0
 70
   688
 72
     1
 73
     0
 74
     5
  7

 75
    16
147
1.0
148
0.0
149
0.0
100
AcDbLayout
  1
Layout2
 70
     1
 71
     2
 10
0.0
 20
0.0
 11
0.0
 21
0.0
 12
0.0
 22
0.0
 32
0.0
 14
0.0
 24
0.0
 34
0.0
 15
0.0
 25
0.0
 35
0.0
146
0.0
 13
0.0
 23
0.0
 33
0.0
 16
1.0
 26
0.0
 36
0.0
 17
0.0
 27
1.0
 37
0.0
 76
     0
330
23
  0
LAYOUT
  5
22
102
{ACAD_REACTORS
330
1A
102
}
330
1A
100
AcDbPlotSettings
  1

  2
none_device
  4
Letter_(8.50_x_11.00_Inches)
  6

 40
6.35
 41
6.35
 42
6.35000508
 43
6.35000508
 44
215.9
 45
279.4
 46
0.0
 47
0.0
 48
0.0
 49
0.0
140
0.0
141
0.0
142
1.0
143
1.0
 70
  1712
 72
     1
 73
     0
 74
     0
  7

 75
     0
147
1.0
148
0.0
149
0.0
100
AcDbLayout
  1
Model
 70
     1
 71
     0
 10
0.0
 20
0.0
 11
420.0
 21
297.0
 12
0.0
 22
0.0
 32
0.0
 14
0.0
 24
0.0
 34
0.0
 15
420.0
 25
297.0
 35
0.0
146
0.0
 13
0.0
 23
0.0
 33
0.0
 16
1.0
 26
0.0
 36
0.0
 17
0.0
 27
1.0
 37
0.0
 76
     0
330
1F
331
29
  0
MLINESTYLE
  5
18
102
{ACAD_REACTORS
330
17
102
}
330
17
100
AcDbMlineStyle
  2
Standard
 70
     0
  3

 62
   256
 51
90.0
 52
90.0
 71
     2
 49
0.5
 62
   256
  6
BYLAYER
 49
-0.5
 62
   256
  6
BYLAYER
  0
ACDBPLACEHOLDER
  5
F
102
{ACAD_REACTORS
330
E
102
}
330
E
  0
SCALE
  5
48
102
{ACAD_REACTORS
330
47
102
}
330
47
100
AcDbScale
 70
     0
300
1:1
140
1.0
141
1.0
290
     1
  0
SCALE
  5
49
102
{ACAD_REACTORS
330
47
102
}
330
47
100
AcDbScale
 70
     0
300
1:2
140
1.0
141
2.0
290
     0
  0
SCALE
  5
4A
102
{ACAD_REACTORS
330
47
102
}
330
47
100
AcDbScale
 70
     0
300
1:4
140
1.0
141
4.0
290
     0
  0
SCALE
  5
4B
102
{ACAD_REACTORS
330
47
102
}
330
47
100
AcDbScale
 70
     0
300
1:5
140
1.0
141
5.0
290
     0
  0
SCALE
  5
4C
102
{ACAD_REACTORS
330
47
102
}
330
47
100
AcDbScale
 70
     0
300
1:8
140
1.0
141
8.0
290
     0
  0
SCALE
  5
4D
102
{ACAD_REACTORS
330
47
102
}
330
47
100
AcDbScale
 70
     0
300
1:10
140
1.0
141
10.0
290
     0
  0
SCALE
  5
4E
102
{ACAD_REACTORS
330
47
102
}
330
47
100
AcDbScale
 70
     0
300
1:16
140
1.0
141
16.0
290
     0
  0
SCALE
  5
4F
102
{ACAD_REACTORS
330
47
102
}
330
47
100
AcDbScale
 70
     0
300
1:20
140
1.0
141
20.0
290
     0
  0
SCALE
  5
50
102
{ACAD_REACTORS
330
47
102
}
330
47
100
AcDbScale
 70
     0
300
1:30
140
1.0
141
30.0
290
     0
  0
SCALE
  5
51
102
{ACAD_REACTORS
330
47
102
}
330
47
100
AcDbScale
 70
     0
300
1:40
140
1.0
141
40.0
290
     0
  0
SCALE
  5
52
102
{ACAD_REACTORS
330
47
102
}
330
47
100
AcDbScale
 70
     0
300
1:50
140
1.0
141
50.0
290
     0
  0
SCALE
  5
53
102
{ACAD_REACTORS
330
47
102
}
330
47
100
AcDbScale
 70
     0
300
1:100
140
1.0
141
100.0
290
     0
  0
SCALE
  5
54
102
{ACAD_REACTORS
330
47
102
}
330
47
100
AcDbScale
 70
     0
300
2:1
140
2.0
141
1.0
290
     0
  0
SCALE
  5
55
102
{ACAD_REACTORS
330
47
102
}
330
47
100
AcDbScale
 70
     0
300
4:1
140
4.0
141
1.0
290
     0
  0
SCALE
  5
56
102
{ACAD_REACTORS
330
47
102
}
330
47
100
AcDbScale
 70
     0
300
8:1
140
8.0
141
1.0
290
     0
  0
SCALE
  5
57
102
{ACAD_REACTORS
330
47
102
}
330
47
100
AcDbScale
 70
     0
300
10:1
140
10.0
141
1.0
290
     0
  0
SCALE
  5
58
102
{ACAD_REACTORS
330
47
102
}
330
47
100
AcDbScale
 70
     0
300
100:1
140
100.0
141
1.0
290
     0
  0
SCALE
  5
59
102
{ACAD_REACTORS
330
47
102
}
330
47
100
AcDbScale
 70
     0
300
1/128" = 1'-0"
140
0.0078125
141
12.0
290
     0
  0
SCALE
  5
5A
102
{ACAD_REACTORS
330
47
102
}
330
47
100
AcDbScale
 70
     0
300
1/64" = 1'-0"
140
0.015625
141
12.0
290
     0
  0
SCALE
  5
5B
102
{ACAD_REACTORS
330
47
102
}
330
47
100
AcDbScale
 70
     0
300
1/32" = 1'-0"
140
0.03125
141
12.0
290
     0
  0
SCALE
  5
5C
102
{ACAD_REACTORS
330
47
102
}
330
47
100
AcDbScale
 70
     0
300
1/16" = 1'-0"
140
0.0625
141
12.0
290
     0
  0
SCALE
  5
5D
102
{ACAD_REACTORS
330
47
102
}
330
47
100
AcDbScale
 70
     0
300
3/32" = 1'-0"
140
0.09375
141
12.0
290
     0
  0
SCALE
  5
5E
102
{ACAD_REACTORS
330
47
102
}
330
47
100
AcDbScale
 70
     0
300
1/8" = 1'-0"
140
0.125
141
12.0
290
     0
  0
SCALE
  5
5F
102
{ACAD_REACTORS
330
47
102
}
330
47
100
AcDbScale
 70
     0
300
3/16" = 1'-0"
140
0.1875
141
12.0
290
     0
  0
SCALE
  5
60
102
{ACAD_REACTORS
330
47
102
}
330
47
100
AcDbScale
 70
     0
300
1/4" = 1'-0"
140
0.25
141
12.0
290
     0
  0
SCALE
  5
61
102
{ACAD_REACTORS
330
47
102
}
330
47
100
AcDbScale
 70
     0
300
3/8" = 1'-0"
140
0.375
141
12.0
290
     0
  0
SCALE
  5
62
102
{ACAD_REACTORS
330
47
102
}
330
47
100
AcDbScale
 70
     0
300
1/2" = 1'-0"
140
0.5
141
12.0
290
     0
  0
SCALE
  5
63
102
{ACAD_REACTORS
330
47
102
}
330
47
100
AcDbScale
 70
     0
300
3/4" = 1'-0"
140
0.75
141
12.0
290
     0
  0
SCALE
  5
64
102
{ACAD_REACTORS
330
47
102
}
330
47
100
AcDbScale
 70
     0
300
1" = 1'-0"
140
1.0
141
12.0
290
     0
  0
SCALE
  5
65
102
{ACAD_REACTORS
330
47
102
}
330
47
100
AcDbScale
 70
     0
300
1-1/2" = 1'-0"
140
1.5
141
12.0
290
     0
  0
SCALE
  5
66
102
{ACAD_REACTORS
330
47
102
}
330
47
100
AcDbScale
 70
     0
300
3" = 1'-0"
140
3.0
141
12.0
290
     0
  0
SCALE
  5
67
102
{ACAD_REACTORS
330
47
102
}
330
47
100
AcDbScale
 70
     0
300
6" = 1'-0"
140
6.0
141
12.0
290
     0
  0
SCALE
  5
68
102
{ACAD_REACTORS
330
47
102
}
330
47
100
AcDbScale
 70
     0
300
1'-0" = 1'-0"
140
12.0
141
12.0
290
     0
  0
ENDSEC
  0
EOF
