%TF.GenerationSoftware,KiCad,Pcbnew,(6.0.7)*%
%TF.CreationDate,2022-11-15T13:11:22+02:00*%
%TF.ProjectId,Cell_Holder_Board_V2,43656c6c-5f48-46f6-9c64-65725f426f61,rev?*%
%TF.SameCoordinates,Original*%
%TF.FileFunction,Legend,Bot*%
%TF.FilePolarity,Positive*%
%FSLAX46Y46*%
G04 Gerber Fmt 4.6, Leading zero omitted, Abs format (unit mm)*
G04 Created by KiCad (PCBNEW (6.0.7)) date 2022-11-15 13:11:22*
%MOMM*%
%LPD*%
G01*
G04 APERTURE LIST*
G04 Aperture macros list*
%AMRoundRect*
0 Rectangle with rounded corners*
0 $1 Rounding radius*
0 $2 $3 $4 $5 $6 $7 $8 $9 X,Y pos of 4 corners*
0 Add a 4 corners polygon primitive as box body*
4,1,4,$2,$3,$4,$5,$6,$7,$8,$9,$2,$3,0*
0 Add four circle primitives for the rounded corners*
1,1,$1+$1,$2,$3*
1,1,$1+$1,$4,$5*
1,1,$1+$1,$6,$7*
1,1,$1+$1,$8,$9*
0 Add four rect primitives between the rounded corners*
20,1,$1+$1,$2,$3,$4,$5,0*
20,1,$1+$1,$4,$5,$6,$7,0*
20,1,$1+$1,$6,$7,$8,$9,0*
20,1,$1+$1,$8,$9,$2,$3,0*%
G04 Aperture macros list end*
%ADD10C,0.150000*%
%TA.AperFunction,Profile*%
%ADD11C,0.100000*%
%TD*%
%ADD12C,2.000000*%
%ADD13C,0.120000*%
%ADD14RoundRect,0.500000X0.500000X-1.000000X0.500000X1.000000X-0.500000X1.000000X-0.500000X-1.000000X0*%
%ADD15RoundRect,0.500000X-0.500000X1.000000X-0.500000X-1.000000X0.500000X-1.000000X0.500000X1.000000X0*%
%ADD16C,5.700000*%
%ADD17C,3.600000*%
%ADD18RoundRect,0.500000X-1.000000X-0.500000X1.000000X-0.500000X1.000000X0.500000X-1.000000X0.500000X0*%
%ADD19RoundRect,0.500000X1.000000X0.500000X-1.000000X0.500000X-1.000000X-0.500000X1.000000X-0.500000X0*%
%ADD20R,1.980000X3.960000*%
%ADD21O,1.980000X3.960000*%
G04 APERTURE END LIST*
D10*
X81915000Y-112395000D02*
X84455000Y-112395000D01*
X84455000Y-112395000D02*
X84455000Y-115443000D01*
X84455000Y-115443000D02*
X81915000Y-115443000D01*
X81915000Y-115443000D02*
X81915000Y-112395000D01*
X97155000Y-110744000D02*
X101600000Y-110744000D01*
X101600000Y-110744000D02*
X101600000Y-112141000D01*
X101600000Y-112141000D02*
X97155000Y-112141000D01*
X97155000Y-112141000D02*
X97155000Y-110744000D01*
D11*
X56278400Y-117520400D02*
G75*
G03*
X64028400Y-124770400I7563800J318200D01*
G01*
X182778400Y-118770400D02*
X182778400Y-55770400D01*
X174778400Y-124770402D02*
G75*
G03*
X182778400Y-118770400I1010310J6986252D01*
G01*
X64028400Y-124770400D02*
X174778400Y-124770400D01*
X174778400Y-48770400D02*
X64778400Y-48770400D01*
X64778401Y-48770393D02*
G75*
G03*
X56278400Y-55770400I-731671J-7772257D01*
G01*
X56278400Y-55770400D02*
X56278400Y-117520400D01*
X182778413Y-55770399D02*
G75*
G03*
X174778400Y-48770400I-7530713J-535101D01*
G01*
D10*
%TO.C,BT7*%
X123547285Y-64714428D02*
X123690142Y-64666809D01*
X123737761Y-64619190D01*
X123785380Y-64523952D01*
X123785380Y-64381095D01*
X123737761Y-64285857D01*
X123690142Y-64238238D01*
X123594904Y-64190619D01*
X123213952Y-64190619D01*
X123213952Y-65190619D01*
X123547285Y-65190619D01*
X123642523Y-65143000D01*
X123690142Y-65095380D01*
X123737761Y-65000142D01*
X123737761Y-64904904D01*
X123690142Y-64809666D01*
X123642523Y-64762047D01*
X123547285Y-64714428D01*
X123213952Y-64714428D01*
X124071095Y-65190619D02*
X124642523Y-65190619D01*
X124356809Y-64190619D02*
X124356809Y-65190619D01*
X124880619Y-65190619D02*
X125547285Y-65190619D01*
X125118714Y-64190619D01*
D12*
X123622419Y-60920428D02*
X133527180Y-60920428D01*
X128574800Y-55968047D02*
X128574800Y-65872809D01*
X151841819Y-61276028D02*
X161746580Y-61276028D01*
D10*
%TO.C,BT5*%
X63809571Y-66651285D02*
X63857190Y-66794142D01*
X63904809Y-66841761D01*
X64000047Y-66889380D01*
X64142904Y-66889380D01*
X64238142Y-66841761D01*
X64285761Y-66794142D01*
X64333380Y-66698904D01*
X64333380Y-66317952D01*
X63333380Y-66317952D01*
X63333380Y-66651285D01*
X63381000Y-66746523D01*
X63428619Y-66794142D01*
X63523857Y-66841761D01*
X63619095Y-66841761D01*
X63714333Y-66794142D01*
X63761952Y-66746523D01*
X63809571Y-66651285D01*
X63809571Y-66317952D01*
X63333380Y-67175095D02*
X63333380Y-67746523D01*
X64333380Y-67460809D02*
X63333380Y-67460809D01*
X63333380Y-68556047D02*
X63333380Y-68079857D01*
X63809571Y-68032238D01*
X63761952Y-68079857D01*
X63714333Y-68175095D01*
X63714333Y-68413190D01*
X63761952Y-68508428D01*
X63809571Y-68556047D01*
X63904809Y-68603666D01*
X64142904Y-68603666D01*
X64238142Y-68556047D01*
X64285761Y-68508428D01*
X64333380Y-68413190D01*
X64333380Y-68175095D01*
X64285761Y-68079857D01*
X64238142Y-68032238D01*
D12*
X67332571Y-94120319D02*
X67332571Y-104025080D01*
X67578171Y-66167619D02*
X67578171Y-76072380D01*
X72530552Y-71120000D02*
X62625790Y-71119999D01*
D10*
%TO.C,BT6*%
X124690285Y-107767428D02*
X124833142Y-107719809D01*
X124880761Y-107672190D01*
X124928380Y-107576952D01*
X124928380Y-107434095D01*
X124880761Y-107338857D01*
X124833142Y-107291238D01*
X124737904Y-107243619D01*
X124356952Y-107243619D01*
X124356952Y-108243619D01*
X124690285Y-108243619D01*
X124785523Y-108196000D01*
X124833142Y-108148380D01*
X124880761Y-108053142D01*
X124880761Y-107957904D01*
X124833142Y-107862666D01*
X124785523Y-107815047D01*
X124690285Y-107767428D01*
X124356952Y-107767428D01*
X125214095Y-108243619D02*
X125785523Y-108243619D01*
X125499809Y-107243619D02*
X125499809Y-108243619D01*
X126547428Y-108243619D02*
X126356952Y-108243619D01*
X126261714Y-108196000D01*
X126214095Y-108148380D01*
X126118857Y-108005523D01*
X126071238Y-107815047D01*
X126071238Y-107434095D01*
X126118857Y-107338857D01*
X126166476Y-107291238D01*
X126261714Y-107243619D01*
X126452190Y-107243619D01*
X126547428Y-107291238D01*
X126595047Y-107338857D01*
X126642666Y-107434095D01*
X126642666Y-107672190D01*
X126595047Y-107767428D01*
X126547428Y-107815047D01*
X126452190Y-107862666D01*
X126261714Y-107862666D01*
X126166476Y-107815047D01*
X126118857Y-107767428D01*
X126071238Y-107672190D01*
D12*
X151879919Y-111381828D02*
X161784680Y-111381828D01*
X124282819Y-111441028D02*
X134187580Y-111441028D01*
X129235200Y-106488647D02*
X129235200Y-116393409D01*
D10*
%TO.C,BT8*%
X114530285Y-81859428D02*
X114673142Y-81811809D01*
X114720761Y-81764190D01*
X114768380Y-81668952D01*
X114768380Y-81526095D01*
X114720761Y-81430857D01*
X114673142Y-81383238D01*
X114577904Y-81335619D01*
X114196952Y-81335619D01*
X114196952Y-82335619D01*
X114530285Y-82335619D01*
X114625523Y-82288000D01*
X114673142Y-82240380D01*
X114720761Y-82145142D01*
X114720761Y-82049904D01*
X114673142Y-81954666D01*
X114625523Y-81907047D01*
X114530285Y-81859428D01*
X114196952Y-81859428D01*
X115054095Y-82335619D02*
X115625523Y-82335619D01*
X115339809Y-81335619D02*
X115339809Y-82335619D01*
X116101714Y-81907047D02*
X116006476Y-81954666D01*
X115958857Y-82002285D01*
X115911238Y-82097523D01*
X115911238Y-82145142D01*
X115958857Y-82240380D01*
X116006476Y-82288000D01*
X116101714Y-82335619D01*
X116292190Y-82335619D01*
X116387428Y-82288000D01*
X116435047Y-82240380D01*
X116482666Y-82145142D01*
X116482666Y-82097523D01*
X116435047Y-82002285D01*
X116387428Y-81954666D01*
X116292190Y-81907047D01*
X116101714Y-81907047D01*
X116006476Y-81859428D01*
X115958857Y-81811809D01*
X115911238Y-81716571D01*
X115911238Y-81526095D01*
X115958857Y-81430857D01*
X116006476Y-81383238D01*
X116101714Y-81335619D01*
X116292190Y-81335619D01*
X116387428Y-81383238D01*
X116435047Y-81430857D01*
X116482666Y-81526095D01*
X116482666Y-81716571D01*
X116435047Y-81811809D01*
X116387428Y-81859428D01*
X116292190Y-81907047D01*
D12*
X144094819Y-85482228D02*
X153999580Y-85482228D01*
X114199019Y-85685428D02*
X124103780Y-85685428D01*
X119151400Y-80733047D02*
X119151400Y-90637809D01*
%TO.C,kibuzzard-63736DC2*%
G36*
X88605519Y-108346875D02*
G01*
X88603931Y-108346875D01*
X88495981Y-107802362D01*
X88713469Y-107802362D01*
X88605519Y-108346875D01*
G37*
G36*
X91026456Y-107993656D02*
G01*
X91094719Y-108029375D01*
X91132819Y-108093669D01*
X91145519Y-108191300D01*
X91133613Y-108284764D01*
X91097894Y-108349256D01*
X91037966Y-108386761D01*
X90953431Y-108399263D01*
X90861356Y-108386563D01*
X90861356Y-107981750D01*
X90923269Y-107981750D01*
X91026456Y-107993656D01*
G37*
G36*
X86604475Y-107263406D02*
G01*
X91449525Y-107263406D01*
X91449525Y-108636594D01*
X86604475Y-108636594D01*
X86604475Y-108521500D01*
X86703694Y-108521500D01*
X86876731Y-108521500D01*
X86876731Y-108053188D01*
X87159306Y-108053188D01*
X87159306Y-108521500D01*
X87338694Y-108521500D01*
X87540306Y-108521500D01*
X88095931Y-108521500D01*
X88095931Y-108383388D01*
X87718106Y-108383388D01*
X87718106Y-108053188D01*
X88080056Y-108053188D01*
X88080056Y-107918250D01*
X87718106Y-107918250D01*
X87718106Y-107500737D01*
X88095931Y-107500737D01*
X88095931Y-107362625D01*
X88230869Y-107362625D01*
X88503919Y-108521500D01*
X88710294Y-108521500D01*
X89077006Y-108521500D01*
X89727881Y-108521500D01*
X89921556Y-108521500D01*
X90477181Y-108521500D01*
X90477181Y-108505625D01*
X90683556Y-108505625D01*
X90772103Y-108523264D01*
X90862062Y-108533847D01*
X90953431Y-108537375D01*
X91068172Y-108528115D01*
X91160512Y-108500333D01*
X91230450Y-108454031D01*
X91279398Y-108387797D01*
X91308767Y-108300220D01*
X91318556Y-108191300D01*
X91307444Y-108087517D01*
X91274106Y-108003181D01*
X91218544Y-107938292D01*
X91140756Y-107892850D01*
X91140756Y-107889675D01*
X91201081Y-107811094D01*
X91251881Y-107686475D01*
X91350306Y-107362625D01*
X91167744Y-107362625D01*
X91075669Y-107696000D01*
X91049673Y-107768033D01*
X91019313Y-107812681D01*
X90923269Y-107843637D01*
X90861356Y-107843637D01*
X90861356Y-107362625D01*
X90683556Y-107362625D01*
X90683556Y-108505625D01*
X90477181Y-108505625D01*
X90477181Y-108383388D01*
X90099356Y-108383388D01*
X90099356Y-108053188D01*
X90461306Y-108053188D01*
X90461306Y-107918250D01*
X90099356Y-107918250D01*
X90099356Y-107500737D01*
X90477181Y-107500737D01*
X90477181Y-107362625D01*
X89921556Y-107362625D01*
X89921556Y-108521500D01*
X89727881Y-108521500D01*
X89727881Y-108383388D01*
X89491344Y-108383388D01*
X89491344Y-107362625D01*
X89313544Y-107362625D01*
X89313544Y-108383388D01*
X89077006Y-108383388D01*
X89077006Y-108521500D01*
X88710294Y-108521500D01*
X88984931Y-107362625D01*
X88800781Y-107362625D01*
X88740456Y-107667425D01*
X88468994Y-107667425D01*
X88408669Y-107362625D01*
X88230869Y-107362625D01*
X88095931Y-107362625D01*
X87540306Y-107362625D01*
X87540306Y-108521500D01*
X87338694Y-108521500D01*
X87338694Y-107362625D01*
X87159306Y-107362625D01*
X87159306Y-107918250D01*
X86876731Y-107918250D01*
X86876731Y-107362625D01*
X86703694Y-107362625D01*
X86703694Y-108521500D01*
X86604475Y-108521500D01*
X86604475Y-107263406D01*
G37*
%TO.C,kibuzzard-63736FCA*%
G36*
X96027875Y-108350050D02*
G01*
X96027875Y-108351638D01*
X95483362Y-108459588D01*
X95483362Y-108242100D01*
X96027875Y-108350050D01*
G37*
G36*
X96317594Y-104786906D02*
G01*
X96317594Y-110351094D01*
X94944406Y-110351094D01*
X94944406Y-110251875D01*
X95043625Y-110251875D01*
X96202500Y-110251875D01*
X96202500Y-110078838D01*
X95734188Y-110078838D01*
X95734188Y-109796263D01*
X96202500Y-109796263D01*
X96202500Y-109616875D01*
X95043625Y-109616875D01*
X95043625Y-109796263D01*
X95599250Y-109796263D01*
X95599250Y-110078838D01*
X95043625Y-110078838D01*
X95043625Y-110251875D01*
X94944406Y-110251875D01*
X94944406Y-109415263D01*
X95043625Y-109415263D01*
X96202500Y-109415263D01*
X96202500Y-108859638D01*
X96064388Y-108859638D01*
X96064388Y-109237463D01*
X95734188Y-109237463D01*
X95734188Y-108875513D01*
X95599250Y-108875513D01*
X95599250Y-109237463D01*
X95181737Y-109237463D01*
X95181737Y-108859638D01*
X95043625Y-108859638D01*
X95043625Y-109415263D01*
X94944406Y-109415263D01*
X94944406Y-107970638D01*
X95043625Y-107970638D01*
X95043625Y-108154788D01*
X95348425Y-108215113D01*
X95348425Y-108486575D01*
X95043625Y-108546900D01*
X95043625Y-108724700D01*
X96202500Y-108451650D01*
X96202500Y-108245275D01*
X95043625Y-107970638D01*
X94944406Y-107970638D01*
X94944406Y-107464225D01*
X95043625Y-107464225D01*
X95043625Y-107642025D01*
X96064388Y-107642025D01*
X96064388Y-107878563D01*
X96202500Y-107878563D01*
X96202500Y-107227687D01*
X96064388Y-107227687D01*
X96064388Y-107464225D01*
X95043625Y-107464225D01*
X94944406Y-107464225D01*
X94944406Y-107034012D01*
X95043625Y-107034012D01*
X96202500Y-107034012D01*
X96202500Y-106478387D01*
X96064388Y-106478387D01*
X96064388Y-106856212D01*
X95734188Y-106856212D01*
X95734188Y-106494262D01*
X95599250Y-106494262D01*
X95599250Y-106856212D01*
X95181737Y-106856212D01*
X95181737Y-106478387D01*
X95043625Y-106478387D01*
X95043625Y-107034012D01*
X94944406Y-107034012D01*
X94944406Y-106272012D01*
X95043625Y-106272012D01*
X96186625Y-106272012D01*
X96204264Y-106183465D01*
X96214847Y-106093507D01*
X96218375Y-106002137D01*
X96209115Y-105887397D01*
X96181333Y-105795057D01*
X96135031Y-105725119D01*
X96068797Y-105676171D01*
X95981220Y-105646802D01*
X95872300Y-105637012D01*
X95768517Y-105648125D01*
X95684181Y-105681462D01*
X95619292Y-105737025D01*
X95573850Y-105814812D01*
X95570675Y-105814812D01*
X95492094Y-105754487D01*
X95367475Y-105703687D01*
X95043625Y-105605262D01*
X95043625Y-105787825D01*
X95377000Y-105879900D01*
X95449033Y-105905895D01*
X95493681Y-105936256D01*
X95524637Y-106032300D01*
X95524637Y-106094212D01*
X95043625Y-106094212D01*
X95043625Y-106272012D01*
X94944406Y-106272012D01*
X94944406Y-105457625D01*
X95043625Y-105457625D01*
X95181737Y-105457625D01*
X95300217Y-105355701D01*
X95413448Y-105269458D01*
X95521430Y-105198895D01*
X95624164Y-105144013D01*
X95721649Y-105104811D01*
X95813886Y-105081290D01*
X95900875Y-105073450D01*
X95981838Y-105081983D01*
X96037400Y-105107581D01*
X96080263Y-105211562D01*
X96069856Y-105286175D01*
X96038635Y-105368196D01*
X95986600Y-105457625D01*
X96135825Y-105457625D01*
X96181686Y-105369783D01*
X96209203Y-105275592D01*
X96218375Y-105175050D01*
X96198730Y-105054598D01*
X96139794Y-104966294D01*
X96042758Y-104912120D01*
X95908813Y-104894062D01*
X95808271Y-104904028D01*
X95701379Y-104933926D01*
X95588137Y-104983756D01*
X95497452Y-105035499D01*
X95400019Y-105101033D01*
X95295839Y-105180358D01*
X95184912Y-105273475D01*
X95181737Y-105273475D01*
X95181737Y-104886125D01*
X95043625Y-104886125D01*
X95043625Y-105457625D01*
X94944406Y-105457625D01*
X94944406Y-104786906D01*
X96317594Y-104786906D01*
G37*
G36*
X95965764Y-105821956D02*
G01*
X96030256Y-105857675D01*
X96067761Y-105917603D01*
X96080263Y-106002137D01*
X96067563Y-106094212D01*
X95662750Y-106094212D01*
X95662750Y-106032300D01*
X95674656Y-105929112D01*
X95710375Y-105860850D01*
X95774669Y-105822750D01*
X95872300Y-105810050D01*
X95965764Y-105821956D01*
G37*
G36*
X100699888Y-113327656D02*
G01*
X100768150Y-113363375D01*
X100806250Y-113427669D01*
X100818950Y-113525300D01*
X100807044Y-113618764D01*
X100771325Y-113683256D01*
X100711397Y-113720761D01*
X100626863Y-113733263D01*
X100534788Y-113720563D01*
X100534788Y-113315750D01*
X100596700Y-113315750D01*
X100699888Y-113327656D01*
G37*
G36*
X98278950Y-113680875D02*
G01*
X98277362Y-113680875D01*
X98169412Y-113136362D01*
X98386900Y-113136362D01*
X98278950Y-113680875D01*
G37*
G36*
X96277906Y-112597406D02*
G01*
X101842094Y-112597406D01*
X101842094Y-113970594D01*
X96277906Y-113970594D01*
X96277906Y-113855500D01*
X96377125Y-113855500D01*
X96550162Y-113855500D01*
X96550162Y-113387188D01*
X96832737Y-113387188D01*
X96832737Y-113855500D01*
X97012125Y-113855500D01*
X97213737Y-113855500D01*
X97769362Y-113855500D01*
X97769362Y-113717388D01*
X97391537Y-113717388D01*
X97391537Y-113387188D01*
X97753487Y-113387188D01*
X97753487Y-113252250D01*
X97391537Y-113252250D01*
X97391537Y-112834737D01*
X97769362Y-112834737D01*
X97769362Y-112696625D01*
X97904300Y-112696625D01*
X98177350Y-113855500D01*
X98383725Y-113855500D01*
X98750437Y-113855500D01*
X99401313Y-113855500D01*
X99594988Y-113855500D01*
X100150613Y-113855500D01*
X100150613Y-113839625D01*
X100356988Y-113839625D01*
X100445535Y-113857264D01*
X100535493Y-113867847D01*
X100626863Y-113871375D01*
X100741603Y-113862115D01*
X100833943Y-113834333D01*
X100902682Y-113788825D01*
X101171375Y-113788825D01*
X101259217Y-113834686D01*
X101353408Y-113862203D01*
X101453950Y-113871375D01*
X101574402Y-113851730D01*
X101662706Y-113792794D01*
X101716880Y-113695758D01*
X101734938Y-113561813D01*
X101724972Y-113461271D01*
X101695074Y-113354379D01*
X101645244Y-113241137D01*
X101593501Y-113150452D01*
X101527967Y-113053019D01*
X101448642Y-112948839D01*
X101355525Y-112837912D01*
X101355525Y-112834737D01*
X101742875Y-112834737D01*
X101742875Y-112696625D01*
X101171375Y-112696625D01*
X101171375Y-112834737D01*
X101273299Y-112953217D01*
X101359542Y-113066448D01*
X101430105Y-113174430D01*
X101484987Y-113277164D01*
X101524189Y-113374649D01*
X101547710Y-113466886D01*
X101555550Y-113553875D01*
X101547017Y-113634838D01*
X101521419Y-113690400D01*
X101417438Y-113733263D01*
X101342825Y-113722856D01*
X101260804Y-113691635D01*
X101171375Y-113639600D01*
X101171375Y-113788825D01*
X100902682Y-113788825D01*
X100903881Y-113788031D01*
X100952829Y-113721797D01*
X100982198Y-113634220D01*
X100991988Y-113525300D01*
X100980875Y-113421517D01*
X100947538Y-113337181D01*
X100891975Y-113272292D01*
X100814188Y-113226850D01*
X100814188Y-113223675D01*
X100874513Y-113145094D01*
X100925313Y-113020475D01*
X101023738Y-112696625D01*
X100841175Y-112696625D01*
X100749100Y-113030000D01*
X100723105Y-113102033D01*
X100692744Y-113146681D01*
X100596700Y-113177637D01*
X100534788Y-113177637D01*
X100534788Y-112696625D01*
X100356988Y-112696625D01*
X100356988Y-113839625D01*
X100150613Y-113839625D01*
X100150613Y-113717388D01*
X99772788Y-113717388D01*
X99772788Y-113387188D01*
X100134738Y-113387188D01*
X100134738Y-113252250D01*
X99772788Y-113252250D01*
X99772788Y-112834737D01*
X100150613Y-112834737D01*
X100150613Y-112696625D01*
X99594988Y-112696625D01*
X99594988Y-113855500D01*
X99401313Y-113855500D01*
X99401313Y-113717388D01*
X99164775Y-113717388D01*
X99164775Y-112696625D01*
X98986975Y-112696625D01*
X98986975Y-113717388D01*
X98750437Y-113717388D01*
X98750437Y-113855500D01*
X98383725Y-113855500D01*
X98658362Y-112696625D01*
X98474212Y-112696625D01*
X98413887Y-113001425D01*
X98142425Y-113001425D01*
X98082100Y-112696625D01*
X97904300Y-112696625D01*
X97769362Y-112696625D01*
X97213737Y-112696625D01*
X97213737Y-113855500D01*
X97012125Y-113855500D01*
X97012125Y-112696625D01*
X96832737Y-112696625D01*
X96832737Y-113252250D01*
X96550162Y-113252250D01*
X96550162Y-112696625D01*
X96377125Y-112696625D01*
X96377125Y-113855500D01*
X96277906Y-113855500D01*
X96277906Y-112597406D01*
G37*
%TO.C,kibuzzard-63736DA7*%
G36*
X91724162Y-108525469D02*
G01*
X94203838Y-108525469D01*
X94203838Y-109914531D01*
X91724162Y-109914531D01*
X91724162Y-109227938D01*
X91823381Y-109227938D01*
X91830079Y-109370118D01*
X91850170Y-109491859D01*
X91883657Y-109593162D01*
X91930537Y-109674025D01*
X92013881Y-109752518D01*
X92121037Y-109799614D01*
X92252006Y-109815313D01*
X92353209Y-109806581D01*
X92379726Y-109799438D01*
X92656819Y-109799438D01*
X92840969Y-109799438D01*
X93088619Y-108958062D01*
X93093381Y-108958062D01*
X93093381Y-109799438D01*
X93260069Y-109799438D01*
X93260069Y-109783563D01*
X93437869Y-109783563D01*
X93562091Y-109807375D01*
X93687106Y-109815313D01*
X93821426Y-109800937D01*
X93928053Y-109757810D01*
X94006988Y-109685931D01*
X94049701Y-109609285D01*
X94080211Y-109508727D01*
X94098517Y-109384257D01*
X94104619Y-109235875D01*
X94099415Y-109092118D01*
X94083805Y-108969881D01*
X94057788Y-108869162D01*
X94000439Y-108754267D01*
X93922056Y-108679456D01*
X93818869Y-108638380D01*
X93687106Y-108624687D01*
X93557328Y-108632625D01*
X93437869Y-108656437D01*
X93437869Y-109783563D01*
X93260069Y-109783563D01*
X93260069Y-108640562D01*
X93082269Y-108640562D01*
X92834619Y-109481938D01*
X92831444Y-109481938D01*
X92831444Y-108640562D01*
X92656819Y-108640562D01*
X92656819Y-109799438D01*
X92379726Y-109799438D01*
X92450444Y-109780388D01*
X92450444Y-109637513D01*
X92349241Y-109666088D01*
X92252006Y-109675613D01*
X92138897Y-109650411D01*
X92059919Y-109574806D01*
X92025523Y-109491463D01*
X92004885Y-109375840D01*
X91998006Y-109227938D01*
X92004533Y-109076596D01*
X92024112Y-108957004D01*
X92056744Y-108869162D01*
X92128181Y-108788200D01*
X92225019Y-108761212D01*
X92320269Y-108780262D01*
X92320269Y-109196187D01*
X92120244Y-109196187D01*
X92120244Y-109331125D01*
X92490131Y-109331125D01*
X92490131Y-108680250D01*
X92405112Y-108649382D01*
X92315153Y-108630861D01*
X92220256Y-108624687D01*
X92127239Y-108634113D01*
X92046623Y-108662391D01*
X91978411Y-108709520D01*
X91922600Y-108775500D01*
X91879192Y-108860332D01*
X91848186Y-108964016D01*
X91829582Y-109086551D01*
X91823381Y-109227938D01*
X91724162Y-109227938D01*
X91724162Y-108525469D01*
G37*
G36*
X93798033Y-108786612D02*
G01*
X93873638Y-108862812D01*
X93905828Y-108949419D01*
X93925143Y-109073774D01*
X93931581Y-109235875D01*
X93925055Y-109382631D01*
X93905476Y-109496931D01*
X93872844Y-109578775D01*
X93797041Y-109652594D01*
X93687106Y-109677200D01*
X93615669Y-109662913D01*
X93615669Y-108775500D01*
X93687106Y-108761212D01*
X93798033Y-108786612D01*
G37*
%TO.C,kibuzzard-63736DC2*%
G36*
X85805764Y-111050387D02*
G01*
X85870256Y-111086106D01*
X85907761Y-111146034D01*
X85920263Y-111230569D01*
X85907563Y-111322644D01*
X85502750Y-111322644D01*
X85502750Y-111260731D01*
X85514656Y-111157544D01*
X85550375Y-111089281D01*
X85614669Y-111051181D01*
X85712300Y-111038481D01*
X85805764Y-111050387D01*
G37*
G36*
X85867875Y-113578481D02*
G01*
X85867875Y-113580069D01*
X85323362Y-113688019D01*
X85323362Y-113470531D01*
X85867875Y-113578481D01*
G37*
G36*
X86157594Y-110734475D02*
G01*
X86157594Y-115579525D01*
X84784406Y-115579525D01*
X84784406Y-115480306D01*
X84883625Y-115480306D01*
X86042500Y-115480306D01*
X86042500Y-115307269D01*
X85574188Y-115307269D01*
X85574188Y-115024694D01*
X86042500Y-115024694D01*
X86042500Y-114845306D01*
X84883625Y-114845306D01*
X84883625Y-115024694D01*
X85439250Y-115024694D01*
X85439250Y-115307269D01*
X84883625Y-115307269D01*
X84883625Y-115480306D01*
X84784406Y-115480306D01*
X84784406Y-114643694D01*
X84883625Y-114643694D01*
X86042500Y-114643694D01*
X86042500Y-114088069D01*
X85904388Y-114088069D01*
X85904388Y-114465894D01*
X85574188Y-114465894D01*
X85574188Y-114103944D01*
X85439250Y-114103944D01*
X85439250Y-114465894D01*
X85021737Y-114465894D01*
X85021737Y-114088069D01*
X84883625Y-114088069D01*
X84883625Y-114643694D01*
X84784406Y-114643694D01*
X84784406Y-113199069D01*
X84883625Y-113199069D01*
X84883625Y-113383219D01*
X85188425Y-113443544D01*
X85188425Y-113715006D01*
X84883625Y-113775331D01*
X84883625Y-113953131D01*
X86042500Y-113680081D01*
X86042500Y-113473706D01*
X84883625Y-113199069D01*
X84784406Y-113199069D01*
X84784406Y-112692656D01*
X84883625Y-112692656D01*
X84883625Y-112870456D01*
X85904388Y-112870456D01*
X85904388Y-113106994D01*
X86042500Y-113106994D01*
X86042500Y-112456119D01*
X85904388Y-112456119D01*
X85904388Y-112692656D01*
X84883625Y-112692656D01*
X84784406Y-112692656D01*
X84784406Y-112262444D01*
X84883625Y-112262444D01*
X86042500Y-112262444D01*
X86042500Y-111706819D01*
X85904388Y-111706819D01*
X85904388Y-112084644D01*
X85574188Y-112084644D01*
X85574188Y-111722694D01*
X85439250Y-111722694D01*
X85439250Y-112084644D01*
X85021737Y-112084644D01*
X85021737Y-111706819D01*
X84883625Y-111706819D01*
X84883625Y-112262444D01*
X84784406Y-112262444D01*
X84784406Y-111016256D01*
X84883625Y-111016256D01*
X85217000Y-111108331D01*
X85289033Y-111134327D01*
X85333681Y-111164687D01*
X85364637Y-111260731D01*
X85364637Y-111322644D01*
X84883625Y-111322644D01*
X84883625Y-111500444D01*
X86026625Y-111500444D01*
X86044264Y-111411897D01*
X86054847Y-111321938D01*
X86058375Y-111230569D01*
X86049115Y-111115828D01*
X86021333Y-111023488D01*
X85975031Y-110953550D01*
X85908797Y-110904602D01*
X85821220Y-110875233D01*
X85712300Y-110865444D01*
X85608517Y-110876556D01*
X85524181Y-110909894D01*
X85459292Y-110965456D01*
X85413850Y-111043244D01*
X85410675Y-111043244D01*
X85332094Y-110982919D01*
X85207475Y-110932119D01*
X84883625Y-110833694D01*
X84883625Y-111016256D01*
X84784406Y-111016256D01*
X84784406Y-110734475D01*
X86157594Y-110734475D01*
G37*
%TO.C,kibuzzard-63736DA7*%
G36*
X80331469Y-115158838D02*
G01*
X80331469Y-114642106D01*
X80430687Y-114642106D01*
X80445063Y-114776426D01*
X80488190Y-114883053D01*
X80560069Y-114961988D01*
X80636715Y-115004701D01*
X80737273Y-115035211D01*
X80861743Y-115053517D01*
X81010125Y-115059619D01*
X81153882Y-115054415D01*
X81276119Y-115038805D01*
X81376838Y-115012788D01*
X81491733Y-114955439D01*
X81566544Y-114877056D01*
X81607620Y-114773869D01*
X81621313Y-114642106D01*
X81613375Y-114512328D01*
X81589563Y-114392869D01*
X80462437Y-114392869D01*
X80438625Y-114517091D01*
X80430687Y-114642106D01*
X80331469Y-114642106D01*
X80331469Y-114215069D01*
X80446562Y-114215069D01*
X81605438Y-114215069D01*
X81605438Y-114037269D01*
X80764062Y-113789619D01*
X80764062Y-113786444D01*
X81605438Y-113786444D01*
X81605438Y-113611819D01*
X80446562Y-113611819D01*
X80446562Y-113795969D01*
X81287938Y-114043619D01*
X81287938Y-114048381D01*
X80446562Y-114048381D01*
X80446562Y-114215069D01*
X80331469Y-114215069D01*
X80331469Y-113207006D01*
X80430687Y-113207006D01*
X80439419Y-113308209D01*
X80465612Y-113405444D01*
X80608487Y-113405444D01*
X80579912Y-113304241D01*
X80570387Y-113207006D01*
X80595589Y-113093897D01*
X80671194Y-113014919D01*
X80754537Y-112980523D01*
X80870160Y-112959885D01*
X81018062Y-112953006D01*
X81169404Y-112959533D01*
X81288996Y-112979112D01*
X81376838Y-113011744D01*
X81457800Y-113083181D01*
X81484788Y-113180019D01*
X81465738Y-113275269D01*
X81049813Y-113275269D01*
X81049813Y-113075244D01*
X80914875Y-113075244D01*
X80914875Y-113445131D01*
X81565750Y-113445131D01*
X81596618Y-113360112D01*
X81615139Y-113270153D01*
X81621313Y-113175256D01*
X81611887Y-113082239D01*
X81583609Y-113001623D01*
X81536480Y-112933411D01*
X81470500Y-112877600D01*
X81385668Y-112834192D01*
X81281984Y-112803186D01*
X81159449Y-112784582D01*
X81018062Y-112778381D01*
X80875882Y-112785079D01*
X80754141Y-112805170D01*
X80652838Y-112838657D01*
X80571975Y-112885537D01*
X80493482Y-112968881D01*
X80446386Y-113076037D01*
X80430687Y-113207006D01*
X80331469Y-113207006D01*
X80331469Y-112679162D01*
X81720531Y-112679162D01*
X81720531Y-115158838D01*
X80331469Y-115158838D01*
G37*
G36*
X81484788Y-114642106D02*
G01*
X81459388Y-114753033D01*
X81383188Y-114828638D01*
X81296581Y-114860828D01*
X81172226Y-114880143D01*
X81010125Y-114886581D01*
X80863369Y-114880055D01*
X80749069Y-114860476D01*
X80667225Y-114827844D01*
X80593406Y-114752041D01*
X80568800Y-114642106D01*
X80583087Y-114570669D01*
X81470500Y-114570669D01*
X81484788Y-114642106D01*
G37*
D13*
%TO.C,BT7*%
X109384400Y-69206400D02*
X174384400Y-69206400D01*
X174384400Y-69206400D02*
X174384400Y-51206400D01*
X174384400Y-51206400D02*
X109384400Y-51206400D01*
X109384400Y-51206400D02*
X109384400Y-69206400D01*
%TO.C,kibuzzard-63734D11*%
G36*
X93287056Y-77145092D02*
G01*
X93545025Y-77287967D01*
X93695044Y-77527679D01*
X93745050Y-77865817D01*
X93694250Y-78234117D01*
X92075000Y-78234117D01*
X92075000Y-77986467D01*
X92122625Y-77573717D01*
X92265500Y-77300667D01*
X92522675Y-77148267D01*
X92913200Y-77097467D01*
X93287056Y-77145092D01*
G37*
G36*
X93535500Y-87257467D02*
G01*
X93535500Y-87263817D01*
X91357450Y-87695617D01*
X91357450Y-86825667D01*
X93535500Y-87257467D01*
G37*
G36*
X94694375Y-75881442D02*
G01*
X94694375Y-95261642D01*
X91948000Y-97092558D01*
X89201625Y-95261642D01*
X89201625Y-94864767D01*
X89598500Y-94864767D01*
X94234000Y-94864767D01*
X94234000Y-94172617D01*
X92360750Y-94172617D01*
X92360750Y-93042317D01*
X94234000Y-93042317D01*
X94234000Y-92324767D01*
X89598500Y-92324767D01*
X89598500Y-93042317D01*
X91821000Y-93042317D01*
X91821000Y-94172617D01*
X89598500Y-94172617D01*
X89598500Y-94864767D01*
X89201625Y-94864767D01*
X89201625Y-91518317D01*
X89598500Y-91518317D01*
X94234000Y-91518317D01*
X94234000Y-89295817D01*
X93681550Y-89295817D01*
X93681550Y-90807117D01*
X92360750Y-90807117D01*
X92360750Y-89359317D01*
X91821000Y-89359317D01*
X91821000Y-90807117D01*
X90150950Y-90807117D01*
X90150950Y-89295817D01*
X89598500Y-89295817D01*
X89598500Y-91518317D01*
X89201625Y-91518317D01*
X89201625Y-85739817D01*
X89598500Y-85739817D01*
X89598500Y-86476417D01*
X90817700Y-86717717D01*
X90817700Y-87803567D01*
X89598500Y-88044867D01*
X89598500Y-88756067D01*
X94234000Y-87663867D01*
X94234000Y-86838367D01*
X89598500Y-85739817D01*
X89201625Y-85739817D01*
X89201625Y-83714167D01*
X89598500Y-83714167D01*
X89598500Y-84425367D01*
X93681550Y-84425367D01*
X93681550Y-85371517D01*
X94234000Y-85371517D01*
X94234000Y-82768017D01*
X93681550Y-82768017D01*
X93681550Y-83714167D01*
X89598500Y-83714167D01*
X89201625Y-83714167D01*
X89201625Y-81993317D01*
X89598500Y-81993317D01*
X94234000Y-81993317D01*
X94234000Y-79770817D01*
X93681550Y-79770817D01*
X93681550Y-81282117D01*
X92360750Y-81282117D01*
X92360750Y-79834317D01*
X91821000Y-79834317D01*
X91821000Y-81282117D01*
X90150950Y-81282117D01*
X90150950Y-79770817D01*
X89598500Y-79770817D01*
X89598500Y-81993317D01*
X89201625Y-81993317D01*
X89201625Y-77008567D01*
X89598500Y-77008567D01*
X90932000Y-77376867D01*
X91220131Y-77480848D01*
X91398725Y-77602292D01*
X91522550Y-77986467D01*
X91522550Y-78234117D01*
X89598500Y-78234117D01*
X89598500Y-78945317D01*
X94170500Y-78945317D01*
X94241056Y-78591128D01*
X94283389Y-78231294D01*
X94297500Y-77865817D01*
X94260458Y-77406853D01*
X94149333Y-77037494D01*
X93964125Y-76757742D01*
X93699189Y-76561950D01*
X93348881Y-76444475D01*
X92913200Y-76405317D01*
X92498069Y-76449767D01*
X92160725Y-76583117D01*
X91901169Y-76805367D01*
X91719400Y-77116517D01*
X91706700Y-77116517D01*
X91392375Y-76875217D01*
X90893900Y-76672017D01*
X89598500Y-76278317D01*
X89598500Y-77008567D01*
X89201625Y-77008567D01*
X89201625Y-75881442D01*
X94694375Y-75881442D01*
G37*
%TO.C,kibuzzard-63734D02*%
G36*
X87010522Y-86415739D02*
G01*
X87467722Y-86494056D01*
X87795100Y-86624583D01*
X88090375Y-86927796D01*
X88188800Y-87367533D01*
X88131650Y-87653283D01*
X84582000Y-87653283D01*
X84524850Y-87367533D01*
X84626450Y-86923827D01*
X84931250Y-86621408D01*
X85277678Y-86492644D01*
X85775094Y-86415386D01*
X86423500Y-86389633D01*
X87010522Y-86415739D01*
G37*
G36*
X89138125Y-85300608D02*
G01*
X89138125Y-95219308D01*
X86360000Y-97071392D01*
X83581875Y-95219308D01*
X83581875Y-93234933D01*
X83978750Y-93234933D01*
X84016453Y-93607004D01*
X84129562Y-93929465D01*
X84318078Y-94202316D01*
X84582000Y-94425558D01*
X84921328Y-94599191D01*
X85336062Y-94723215D01*
X85826203Y-94797629D01*
X86391750Y-94822433D01*
X86960472Y-94795644D01*
X87447438Y-94715277D01*
X87852647Y-94581332D01*
X88176100Y-94393808D01*
X88490072Y-94060433D01*
X88678456Y-93631808D01*
X88741250Y-93107933D01*
X88706325Y-92703121D01*
X88601550Y-92314183D01*
X88030050Y-92314183D01*
X88144350Y-92718996D01*
X88182450Y-93107933D01*
X88081644Y-93560371D01*
X87779225Y-93876283D01*
X87445850Y-94013867D01*
X86983358Y-94096417D01*
X86391750Y-94123933D01*
X85786383Y-94097828D01*
X85308017Y-94019511D01*
X84956650Y-93888983D01*
X84632800Y-93603233D01*
X84524850Y-93215883D01*
X84601050Y-92834883D01*
X86264750Y-92834883D01*
X86264750Y-93634983D01*
X86804500Y-93634983D01*
X86804500Y-92155433D01*
X84201000Y-92155433D01*
X84077528Y-92495511D01*
X84003444Y-92855344D01*
X83978750Y-93234933D01*
X83581875Y-93234933D01*
X83581875Y-91488683D01*
X84042250Y-91488683D01*
X88677750Y-91488683D01*
X88677750Y-90752083D01*
X85312250Y-89761483D01*
X85312250Y-89742433D01*
X88677750Y-89742433D01*
X88677750Y-89075683D01*
X84042250Y-89075683D01*
X84042250Y-89786883D01*
X87407750Y-90777483D01*
X87407750Y-90790183D01*
X84042250Y-90790183D01*
X84042250Y-91488683D01*
X83581875Y-91488683D01*
X83581875Y-87367533D01*
X83978750Y-87367533D01*
X84010500Y-87886646D01*
X84105750Y-88364483D01*
X88614250Y-88364483D01*
X88709500Y-87867596D01*
X88741250Y-87367533D01*
X88683747Y-86830253D01*
X88511239Y-86403744D01*
X88223725Y-86088008D01*
X87917139Y-85917154D01*
X87514906Y-85795115D01*
X87017027Y-85721891D01*
X86423500Y-85697483D01*
X85848472Y-85718297D01*
X85359522Y-85780739D01*
X84956650Y-85884808D01*
X84497069Y-86114202D01*
X84197825Y-86427733D01*
X84033519Y-86840483D01*
X83978750Y-87367533D01*
X83581875Y-87367533D01*
X83581875Y-85300608D01*
X89138125Y-85300608D01*
G37*
%TO.C,kibuzzard-63734D26*%
G36*
X83550125Y-79131583D02*
G01*
X83550125Y-95292333D01*
X80772000Y-97144417D01*
X77993875Y-95292333D01*
X77993875Y-93288908D01*
X78390750Y-93288908D01*
X78428949Y-93665443D01*
X78543547Y-93991774D01*
X78734543Y-94267900D01*
X79001937Y-94493821D01*
X79345730Y-94669537D01*
X79765922Y-94795049D01*
X80262512Y-94870356D01*
X80835500Y-94895458D01*
X81378723Y-94870654D01*
X81849516Y-94796240D01*
X82247879Y-94672216D01*
X82573813Y-94498583D01*
X82827316Y-94275341D01*
X83008391Y-94002490D01*
X83117035Y-93680029D01*
X83153250Y-93307958D01*
X83118325Y-92855521D01*
X83013550Y-92450708D01*
X81578450Y-92450708D01*
X81578450Y-93130158D01*
X82569050Y-93130158D01*
X82594450Y-93276208D01*
X82545590Y-93557549D01*
X82399011Y-93787736D01*
X82154713Y-93966771D01*
X81812694Y-94094653D01*
X81372957Y-94171382D01*
X80835500Y-94196958D01*
X80255357Y-94168736D01*
X79780694Y-94084069D01*
X79411512Y-93942958D01*
X79147811Y-93745403D01*
X78989590Y-93491403D01*
X78936850Y-93180958D01*
X78986062Y-92844408D01*
X79133700Y-92482458D01*
X78549500Y-92482458D01*
X78430437Y-92865046D01*
X78390750Y-93288908D01*
X77993875Y-93288908D01*
X77993875Y-91517258D01*
X78454250Y-91517258D01*
X83089750Y-91517258D01*
X83089750Y-89294758D01*
X82537300Y-89294758D01*
X82537300Y-90806058D01*
X81216500Y-90806058D01*
X81216500Y-89358258D01*
X80676750Y-89358258D01*
X80676750Y-90806058D01*
X79006700Y-90806058D01*
X79006700Y-89294758D01*
X78454250Y-89294758D01*
X78454250Y-91517258D01*
X77993875Y-91517258D01*
X77993875Y-88227958D01*
X78454250Y-88227958D01*
X83089750Y-88227958D01*
X83089750Y-87516758D01*
X79006700Y-87516758D01*
X79006700Y-86037208D01*
X78454250Y-86037208D01*
X78454250Y-88227958D01*
X77993875Y-88227958D01*
X77993875Y-85052958D01*
X78454250Y-85052958D01*
X83089750Y-85052958D01*
X83089750Y-84341758D01*
X79006700Y-84341758D01*
X79006700Y-82862208D01*
X78454250Y-82862208D01*
X78454250Y-85052958D01*
X77993875Y-85052958D01*
X77993875Y-81230258D01*
X78771750Y-81230258D01*
X80105250Y-81230258D01*
X80105250Y-82258958D01*
X80632300Y-82258958D01*
X80632300Y-81230258D01*
X81946750Y-81230258D01*
X81946750Y-80550808D01*
X80632300Y-80550808D01*
X80632300Y-79528458D01*
X80105250Y-79528458D01*
X80105250Y-80550808D01*
X78771750Y-80550808D01*
X78771750Y-81230258D01*
X77993875Y-81230258D01*
X77993875Y-79131583D01*
X83550125Y-79131583D01*
G37*
%TO.C,BT5*%
X58945000Y-52221700D02*
X76945000Y-52221700D01*
X76945000Y-52221700D02*
X76945000Y-117221700D01*
X76945000Y-117221700D02*
X58945000Y-117221700D01*
X58945000Y-117221700D02*
X58945000Y-52221700D01*
%TO.C,BT6*%
X109981300Y-119769400D02*
X174981300Y-119769400D01*
X174981300Y-119769400D02*
X174981300Y-101769400D01*
X174981300Y-101769400D02*
X109981300Y-101769400D01*
X109981300Y-101769400D02*
X109981300Y-119769400D01*
%TO.C,BT8*%
X102653400Y-93946000D02*
X167653400Y-93946000D01*
X167653400Y-93946000D02*
X167653400Y-75946000D01*
X167653400Y-75946000D02*
X102653400Y-75946000D01*
X102653400Y-75946000D02*
X102653400Y-93946000D01*
%TD*%
%LPC*%
D10*
X94742000Y-107061000D02*
X91694000Y-107061000D01*
X91694000Y-107061000D02*
X91694000Y-108204000D01*
X91694000Y-108204000D02*
X94742000Y-108204000D01*
X94742000Y-108204000D02*
X94742000Y-107061000D01*
G36*
X94742000Y-107061000D02*
G01*
X91694000Y-107061000D01*
X91694000Y-108204000D01*
X94742000Y-108204000D01*
X94742000Y-107061000D01*
G37*
X97155000Y-110744000D02*
X101600000Y-110744000D01*
X101600000Y-110744000D02*
X101600000Y-112141000D01*
X101600000Y-112141000D02*
X97155000Y-112141000D01*
X97155000Y-112141000D02*
X97155000Y-110744000D01*
G36*
X97155000Y-110744000D02*
G01*
X101600000Y-110744000D01*
X101600000Y-112141000D01*
X97155000Y-112141000D01*
X97155000Y-110744000D01*
G37*
X81915000Y-112395000D02*
X84455000Y-112395000D01*
X84455000Y-112395000D02*
X84455000Y-115443000D01*
X84455000Y-115443000D02*
X81915000Y-115443000D01*
X81915000Y-115443000D02*
X81915000Y-112395000D01*
G36*
X81915000Y-112395000D02*
G01*
X84455000Y-112395000D01*
X84455000Y-115443000D01*
X81915000Y-115443000D01*
X81915000Y-112395000D01*
G37*
D14*
%TO.C,BT2*%
X101162800Y-85358600D03*
X108762800Y-82858600D03*
X108762800Y-87858600D03*
D15*
X156895800Y-82858600D03*
X164495800Y-85358600D03*
X156895800Y-87858600D03*
%TD*%
D14*
%TO.C,BT1*%
X120421400Y-58398400D03*
X120421400Y-63398400D03*
X112821400Y-60898400D03*
D15*
X168554400Y-63398400D03*
X168554400Y-58398400D03*
X176154400Y-60898400D03*
%TD*%
D16*
%TO.C,H4*%
X149778400Y-56770400D03*
D17*
X149778400Y-56770400D03*
%TD*%
D16*
%TO.C,H6*%
X64778400Y-86770400D03*
D17*
X64778400Y-86770400D03*
%TD*%
%TO.C,H2*%
X149778400Y-116770400D03*
D16*
X149778400Y-116770400D03*
%TD*%
D14*
%TO.C,BT3*%
X121246900Y-114029000D03*
X121246900Y-109029000D03*
X113646900Y-111529000D03*
D15*
X169379900Y-114029000D03*
X169379900Y-109029000D03*
X176979900Y-111529000D03*
%TD*%
D18*
%TO.C,BT4*%
X64897000Y-63144400D03*
X67397000Y-55544400D03*
X69897000Y-63144400D03*
D19*
X69897000Y-111277400D03*
X64897000Y-111277400D03*
X67397000Y-118877400D03*
%TD*%
D20*
%TO.C,J1*%
X81305400Y-104394000D03*
D21*
X86305400Y-104394000D03*
X91305400Y-104394000D03*
%TD*%
D16*
%TO.C,H1*%
X89778400Y-116770400D03*
D17*
X89778400Y-116770400D03*
%TD*%
D16*
%TO.C,H3*%
X174778400Y-86770400D03*
D17*
X174778400Y-86770400D03*
%TD*%
D16*
%TO.C,H5*%
X89778400Y-56770400D03*
D17*
X89778400Y-56770400D03*
%TD*%
D15*
%TO.C,BT7*%
X117881400Y-58318400D03*
X117881400Y-63318400D03*
X110281400Y-60818400D03*
D14*
X166014400Y-58318400D03*
X166014400Y-63318400D03*
X173614400Y-60818400D03*
%TD*%
D19*
%TO.C,BT5*%
X64833000Y-60718700D03*
X67333000Y-53118700D03*
X69833000Y-60718700D03*
D18*
X67333000Y-116451700D03*
X64833000Y-108851700D03*
X69833000Y-108851700D03*
%TD*%
D15*
%TO.C,BT6*%
X110878300Y-111381400D03*
X118478300Y-113881400D03*
X118478300Y-108881400D03*
D14*
X166611300Y-108881400D03*
X174211300Y-111381400D03*
X166611300Y-113881400D03*
%TD*%
D15*
%TO.C,BT8*%
X103550400Y-85558000D03*
X111150400Y-88058000D03*
X111150400Y-83058000D03*
D14*
X166883400Y-85558000D03*
X159283400Y-83058000D03*
X159283400Y-88058000D03*
%TD*%
M02*
