M48
; DRILL file {KiCad (6.0.7)} date Tue Nov 15 13:11:36 2022
; FORMAT={-:-/ absolute / metric / decimal}
; #@! TF.CreationDate,2022-11-15T13:11:36+02:00
; #@! TF.GenerationSoftware,Kicad,Pcbnew,(6.0.7)
; #@! TF.FileFunction,Plated,1,2,PTH
FMAT,2
METRIC
; #@! TA.AperFunction,Plated,PTH,ViaDrill
T1C0.400
; #@! TA.AperFunction,Plated,PTH,ComponentDrill
T2C1.000
; #@! TA.AperFunction,Plated,PTH,ComponentDrill
T3C1.320
; #@! TA.AperFunction,Plated,PTH,ComponentDrill
T4C3.200
%
G90
G05
T1
X58.063Y-53.568
X58.063Y-54.568
X58.063Y-55.568
X58.063Y-62.568
X58.063Y-63.568
X58.063Y-64.568
X58.063Y-65.568
X58.063Y-83.568
X58.063Y-84.568
X58.063Y-85.568
X58.063Y-86.568
X58.063Y-87.568
X58.063Y-88.568
X58.063Y-89.568
X58.166Y-57.531
X58.166Y-58.674
X58.166Y-59.817
X58.166Y-60.96
X59.063Y-52.568
X59.063Y-53.568
X59.063Y-54.568
X59.063Y-83.568
X59.063Y-84.568
X59.063Y-85.568
X59.063Y-86.568
X59.063Y-87.568
X59.063Y-88.568
X59.063Y-89.568
X59.063Y-121.568
X60.063Y-51.568
X60.063Y-52.568
X60.063Y-53.568
X60.063Y-83.568
X60.063Y-84.568
X60.063Y-85.568
X60.063Y-86.568
X60.063Y-87.568
X60.063Y-88.568
X60.063Y-89.568
X60.063Y-121.568
X60.063Y-122.568
X60.325Y-57.531
X60.325Y-58.674
X60.325Y-59.817
X60.325Y-60.833
X61.063Y-50.568
X61.063Y-51.568
X61.063Y-52.568
X61.063Y-62.568
X61.063Y-63.568
X61.063Y-64.568
X61.063Y-83.568
X61.063Y-84.568
X61.063Y-85.568
X61.063Y-86.568
X61.063Y-87.568
X61.063Y-88.568
X61.063Y-89.568
X61.063Y-121.568
X61.063Y-122.568
X62.063Y-50.568
X62.063Y-51.568
X62.063Y-83.568
X62.063Y-89.568
X62.063Y-121.568
X62.063Y-122.568
X62.063Y-123.568
X63.063Y-50.568
X63.063Y-121.568
X63.063Y-122.568
X63.063Y-123.568
X64.063Y-122.568
X64.063Y-123.568
X64.897Y-121.031
X65.063Y-122.568
X65.063Y-123.568
X66.063Y-122.568
X66.063Y-123.568
X67.063Y-83.568
X67.063Y-108.568
X67.063Y-109.568
X67.063Y-122.568
X67.063Y-123.568
X68.063Y-122.568
X68.063Y-123.568
X69.063Y-122.568
X69.063Y-123.568
X69.723Y-121.031
X78.232Y-118.491
X83.063Y-102.568
X83.063Y-106.568
X83.566Y-104.394
X84.063Y-102.568
X86.063Y-54.568
X86.063Y-55.568
X86.063Y-56.568
X86.063Y-57.568
X86.063Y-58.568
X86.063Y-59.568
X86.063Y-60.568
X87.063Y-59.568
X87.063Y-60.568
X88.063Y-60.568
X88.063Y-106.568
X88.773Y-104.394
X89.063Y-60.568
X90.063Y-60.568
X91.063Y-60.568
X91.063Y-101.568
X91.389Y-100.101
X92.063Y-60.568
X92.063Y-101.568
X92.075Y-99.568
X95.063Y-56.568
X95.063Y-57.568
X95.063Y-58.568
X108.063Y-60.568
X108.063Y-61.568
X108.063Y-62.568
X108.063Y-63.568
X146.812Y-59.944
X147.063Y-50.568
X148.063Y-50.568
X149.063Y-50.568
X150.063Y-50.568
X156.063Y-85.568
X157.063Y-85.568
X158.063Y-85.568
X159.063Y-85.568
X160.063Y-85.568
X161.063Y-85.568
X161.063Y-123.568
X162.063Y-123.568
X163.063Y-123.568
X164.063Y-123.568
X165.063Y-50.568
X165.063Y-111.568
X165.063Y-123.568
X166.063Y-50.568
X166.063Y-111.568
X166.063Y-123.568
X167.063Y-50.568
X167.063Y-111.568
X167.063Y-123.568
X168.063Y-50.568
X168.063Y-111.568
X168.063Y-116.568
X168.063Y-123.568
X169.063Y-50.568
X169.063Y-111.568
X169.063Y-116.568
X169.063Y-123.568
X170.063Y-50.568
X170.063Y-111.568
X170.063Y-116.568
X170.063Y-123.568
X171.063Y-50.568
X171.063Y-58.568
X171.063Y-87.568
X171.063Y-110.568
X171.063Y-116.568
X171.063Y-123.568
X172.063Y-50.568
X172.063Y-116.568
X172.063Y-123.568
X173.063Y-50.568
X173.063Y-116.568
X173.063Y-123.568
X174.063Y-50.568
X174.063Y-115.568
X174.063Y-116.568
X174.063Y-123.568
X175.063Y-50.568
X175.063Y-114.568
X175.063Y-115.568
X175.063Y-116.568
X175.063Y-123.568
X176.063Y-50.568
X176.063Y-114.568
X176.063Y-115.568
X176.063Y-116.568
X176.063Y-123.568
X177.063Y-50.568
X177.063Y-51.568
X177.063Y-52.568
X177.063Y-53.568
X177.063Y-54.568
X177.063Y-83.568
X177.063Y-107.568
X177.063Y-114.568
X177.063Y-115.568
X177.063Y-116.568
X177.063Y-123.568
X178.063Y-50.568
X178.063Y-51.568
X178.063Y-52.568
X178.063Y-53.568
X178.063Y-54.568
X178.063Y-55.568
X178.063Y-56.568
X178.063Y-57.568
X178.063Y-58.568
X178.063Y-59.568
X178.063Y-60.568
X178.063Y-61.568
X178.063Y-62.568
X178.063Y-83.568
X178.063Y-84.568
X178.063Y-88.568
X178.063Y-89.568
X178.063Y-107.568
X178.063Y-108.568
X178.063Y-114.568
X178.063Y-115.568
X178.063Y-116.568
X178.063Y-117.568
X178.063Y-118.568
X178.063Y-119.568
X178.063Y-120.568
X178.063Y-121.568
X178.063Y-122.568
X179.063Y-51.568
X179.063Y-52.568
X179.063Y-53.568
X179.063Y-54.568
X179.063Y-55.568
X179.063Y-56.568
X179.063Y-57.568
X179.063Y-58.568
X179.063Y-59.568
X179.063Y-60.568
X179.063Y-61.568
X179.063Y-62.568
X179.063Y-83.568
X179.063Y-84.568
X179.063Y-85.568
X179.063Y-86.568
X179.063Y-87.568
X179.063Y-88.568
X179.063Y-89.568
X179.063Y-107.568
X179.063Y-108.568
X179.063Y-109.568
X179.063Y-110.568
X179.063Y-111.568
X179.063Y-112.568
X179.063Y-113.568
X179.063Y-114.568
X179.063Y-115.568
X179.063Y-116.568
X179.063Y-117.568
X179.063Y-118.568
X179.063Y-119.568
X179.063Y-120.568
X179.063Y-121.568
X179.063Y-122.568
X180.063Y-52.568
X180.063Y-53.568
X180.063Y-54.568
X180.063Y-55.568
X180.063Y-56.568
X180.063Y-57.568
X180.063Y-58.568
X180.063Y-59.568
X180.063Y-60.568
X180.063Y-61.568
X180.063Y-62.568
X180.063Y-83.568
X180.063Y-84.568
X180.063Y-85.568
X180.063Y-86.568
X180.063Y-87.568
X180.063Y-88.568
X180.063Y-89.568
X180.063Y-107.568
X180.063Y-108.568
X180.063Y-109.568
X180.063Y-110.568
X180.063Y-111.568
X180.063Y-112.568
X180.063Y-113.568
X180.063Y-114.568
X180.063Y-115.568
X180.063Y-116.568
X180.063Y-117.568
X180.063Y-118.568
X180.063Y-119.568
X180.063Y-120.568
X180.063Y-121.568
X181.063Y-53.568
X181.063Y-54.568
X181.063Y-55.568
X181.063Y-56.568
X181.063Y-57.568
X181.063Y-58.568
X181.063Y-59.568
X181.063Y-60.568
X181.063Y-61.568
X181.063Y-62.568
X181.063Y-83.568
X181.063Y-84.568
X181.063Y-85.568
X181.063Y-86.568
X181.063Y-87.568
X181.063Y-88.568
X181.063Y-89.568
X181.063Y-107.568
X181.063Y-108.568
X181.063Y-109.568
X181.063Y-110.568
X181.063Y-111.568
X181.063Y-112.568
X181.063Y-113.568
X181.063Y-114.568
X181.063Y-115.568
X181.063Y-116.568
X181.063Y-117.568
X181.063Y-118.568
X181.063Y-119.568
X181.063Y-120.568
T3
X81.305Y-104.394
X86.305Y-104.394
X91.305Y-104.394
T4
X64.778Y-86.77
X89.778Y-56.77
X89.778Y-116.77
X149.778Y-56.77
X149.778Y-116.77
X174.778Y-86.77
T2
G00X65.208Y-60.719
M15
G01X64.458Y-60.719
M16
G05
G00X64.458Y-108.852
M15
G01X65.208Y-108.852
M16
G05
G00X64.522Y-63.144
M15
G01X65.272Y-63.144
M16
G05
G00X65.272Y-111.277
M15
G01X64.522Y-111.277
M16
G05
G00X67.708Y-53.119
M15
G01X66.958Y-53.119
M16
G05
G00X66.958Y-116.452
M15
G01X67.708Y-116.452
M16
G05
G00X67.022Y-55.544
M15
G01X67.772Y-55.544
M16
G05
G00X67.772Y-118.877
M15
G01X67.022Y-118.877
M16
G05
G00X70.208Y-60.719
M15
G01X69.458Y-60.719
M16
G05
G00X69.458Y-108.852
M15
G01X70.208Y-108.852
M16
G05
G00X69.522Y-63.144
M15
G01X70.272Y-63.144
M16
G05
G00X70.272Y-111.277
M15
G01X69.522Y-111.277
M16
G05
G00X101.163Y-85.734
M15
G01X101.163Y-84.984
M16
G05
G00X103.55Y-85.183
M15
G01X103.55Y-85.933
M16
G05
G00X108.763Y-83.234
M15
G01X108.763Y-82.484
M16
G05
G00X108.763Y-88.234
M15
G01X108.763Y-87.484
M16
G05
G00X110.281Y-60.443
M15
G01X110.281Y-61.193
M16
G05
G00X110.878Y-111.006
M15
G01X110.878Y-111.756
M16
G05
G00X111.15Y-82.683
M15
G01X111.15Y-83.433
M16
G05
G00X111.15Y-87.683
M15
G01X111.15Y-88.433
M16
G05
G00X112.821Y-61.273
M15
G01X112.821Y-60.523
M16
G05
G00X113.647Y-111.904
M15
G01X113.647Y-111.154
M16
G05
G00X117.881Y-57.943
M15
G01X117.881Y-58.693
M16
G05
G00X117.881Y-62.943
M15
G01X117.881Y-63.693
M16
G05
G00X118.478Y-108.506
M15
G01X118.478Y-109.256
M16
G05
G00X118.478Y-113.506
M15
G01X118.478Y-114.256
M16
G05
G00X120.421Y-58.773
M15
G01X120.421Y-58.023
M16
G05
G00X120.421Y-63.773
M15
G01X120.421Y-63.023
M16
G05
G00X121.247Y-109.404
M15
G01X121.247Y-108.654
M16
G05
G00X121.247Y-114.404
M15
G01X121.247Y-113.654
M16
G05
G00X156.896Y-82.484
M15
G01X156.896Y-83.234
M16
G05
G00X156.896Y-87.484
M15
G01X156.896Y-88.234
M16
G05
G00X159.283Y-83.433
M15
G01X159.283Y-82.683
M16
G05
G00X159.283Y-88.433
M15
G01X159.283Y-87.683
M16
G05
G00X164.496Y-84.984
M15
G01X164.496Y-85.734
M16
G05
G00X166.014Y-58.693
M15
G01X166.014Y-57.943
M16
G05
G00X166.014Y-63.693
M15
G01X166.014Y-62.943
M16
G05
G00X166.611Y-109.256
M15
G01X166.611Y-108.506
M16
G05
G00X166.611Y-114.256
M15
G01X166.611Y-113.506
M16
G05
G00X166.883Y-85.933
M15
G01X166.883Y-85.183
M16
G05
G00X168.554Y-58.023
M15
G01X168.554Y-58.773
M16
G05
G00X168.554Y-63.023
M15
G01X168.554Y-63.773
M16
G05
G00X169.38Y-108.654
M15
G01X169.38Y-109.404
M16
G05
G00X169.38Y-113.654
M15
G01X169.38Y-114.404
M16
G05
G00X173.614Y-61.193
M15
G01X173.614Y-60.443
M16
G05
G00X174.211Y-111.756
M15
G01X174.211Y-111.006
M16
G05
G00X176.154Y-60.523
M15
G01X176.154Y-61.273
M16
G05
G00X176.98Y-111.154
M15
G01X176.98Y-111.904
M16
G05
T0
M30
