%TF.GenerationSoftware,KiCad,Pcbnew,(6.0.9)*%
%TF.CreationDate,2022-11-23T17:03:00+02:00*%
%TF.ProjectId,Bird_detector_V1,42697264-5f64-4657-9465-63746f725f56,rev?*%
%TF.SameCoordinates,Original*%
%TF.FileFunction,Soldermask,Bot*%
%TF.FilePolarity,Negative*%
%FSLAX46Y46*%
G04 Gerber Fmt 4.6, Leading zero omitted, Abs format (unit mm)*
G04 Created by KiCad (PCBNEW (6.0.9)) date 2022-11-23 17:03:00*
%MOMM*%
%LPD*%
G01*
G04 APERTURE LIST*
G04 Aperture macros list*
%AMRoundRect*
0 Rectangle with rounded corners*
0 $1 Rounding radius*
0 $2 $3 $4 $5 $6 $7 $8 $9 X,Y pos of 4 corners*
0 Add a 4 corners polygon primitive as box body*
4,1,4,$2,$3,$4,$5,$6,$7,$8,$9,$2,$3,0*
0 Add four circle primitives for the rounded corners*
1,1,$1+$1,$2,$3*
1,1,$1+$1,$4,$5*
1,1,$1+$1,$6,$7*
1,1,$1+$1,$8,$9*
0 Add four rect primitives between the rounded corners*
20,1,$1+$1,$2,$3,$4,$5,0*
20,1,$1+$1,$4,$5,$6,$7,0*
20,1,$1+$1,$6,$7,$8,$9,0*
20,1,$1+$1,$8,$9,$2,$3,0*%
%AMRotRect*
0 Rectangle, with rotation*
0 The origin of the aperture is its center*
0 $1 length*
0 $2 width*
0 $3 Rotation angle, in degrees counterclockwise*
0 Add horizontal line*
21,1,$1,$2,0,0,$3*%
%AMFreePoly0*
4,1,22,0.550000,-0.750000,0.000000,-0.750000,0.000000,-0.745033,-0.079941,-0.743568,-0.215256,-0.701293,-0.333266,-0.622738,-0.424486,-0.514219,-0.481581,-0.384460,-0.499164,-0.250000,-0.500000,-0.250000,-0.500000,0.250000,-0.499164,0.250000,-0.499963,0.256109,-0.478152,0.396186,-0.417904,0.524511,-0.324060,0.630769,-0.204165,0.706417,-0.067858,0.745374,0.000000,0.744959,0.000000,0.750000,
0.550000,0.750000,0.550000,-0.750000,0.550000,-0.750000,$1*%
%AMFreePoly1*
4,1,20,0.000000,0.744959,0.073905,0.744508,0.209726,0.703889,0.328688,0.626782,0.421226,0.519385,0.479903,0.390333,0.500000,0.250000,0.500000,-0.250000,0.499851,-0.262216,0.476331,-0.402017,0.414519,-0.529596,0.319384,-0.634700,0.198574,-0.708877,0.061801,-0.746166,0.000000,-0.745033,0.000000,-0.750000,-0.550000,-0.750000,-0.550000,0.750000,0.000000,0.750000,0.000000,0.744959,
0.000000,0.744959,$1*%
G04 Aperture macros list end*
%ADD10C,0.150000*%
%TA.AperFunction,Profile*%
%ADD11C,0.100000*%
%TD*%
%TA.AperFunction,Profile*%
%ADD12C,0.120000*%
%TD*%
%ADD13RoundRect,0.237500X-0.237500X0.250000X-0.237500X-0.250000X0.237500X-0.250000X0.237500X0.250000X0*%
%ADD14R,1.980000X3.960000*%
%ADD15O,1.980000X3.960000*%
%ADD16C,0.600000*%
%ADD17C,5.700000*%
%ADD18C,3.600000*%
%ADD19RoundRect,0.200100X-0.949900X0.949900X-0.949900X-0.949900X0.949900X-0.949900X0.949900X0.949900X0*%
%ADD20C,2.500000*%
%ADD21R,3.000000X5.000000*%
%ADD22O,3.000000X5.000000*%
%ADD23RoundRect,0.200100X1.343361X0.000000X0.000000X1.343361X-1.343361X0.000000X0.000000X-1.343361X0*%
%ADD24RoundRect,0.200100X0.949900X-0.949900X0.949900X0.949900X-0.949900X0.949900X-0.949900X-0.949900X0*%
%ADD25R,1.700000X1.700000*%
%ADD26O,1.700000X1.700000*%
%ADD27R,1.275000X1.275000*%
%ADD28C,1.275000*%
%ADD29C,1.400000*%
%ADD30C,3.450000*%
%ADD31R,1.560000X0.650000*%
%ADD32FreePoly0,180.000000*%
%ADD33R,1.000000X1.500000*%
%ADD34FreePoly1,180.000000*%
%ADD35R,1.150000X1.000000*%
%ADD36RoundRect,0.237500X-0.250000X-0.237500X0.250000X-0.237500X0.250000X0.237500X-0.250000X0.237500X0*%
%ADD37RoundRect,0.237500X0.237500X-0.300000X0.237500X0.300000X-0.237500X0.300000X-0.237500X-0.300000X0*%
%ADD38RoundRect,0.237500X0.250000X0.237500X-0.250000X0.237500X-0.250000X-0.237500X0.250000X-0.237500X0*%
%ADD39RoundRect,0.237500X0.237500X-0.250000X0.237500X0.250000X-0.237500X0.250000X-0.237500X-0.250000X0*%
%ADD40RoundRect,0.062500X0.062500X-0.375000X0.062500X0.375000X-0.062500X0.375000X-0.062500X-0.375000X0*%
%ADD41RoundRect,0.062500X0.375000X-0.062500X0.375000X0.062500X-0.375000X0.062500X-0.375000X-0.062500X0*%
%ADD42R,1.450000X1.450000*%
%ADD43R,1.300000X3.400000*%
%ADD44R,3.180000X1.270000*%
%ADD45RoundRect,0.237500X-0.300000X-0.237500X0.300000X-0.237500X0.300000X0.237500X-0.300000X0.237500X0*%
%ADD46RoundRect,0.250000X-0.475000X0.337500X-0.475000X-0.337500X0.475000X-0.337500X0.475000X0.337500X0*%
%ADD47R,3.150000X1.000000*%
%ADD48RoundRect,0.250000X-0.337500X-0.475000X0.337500X-0.475000X0.337500X0.475000X-0.337500X0.475000X0*%
%ADD49RoundRect,0.237500X0.300000X0.237500X-0.300000X0.237500X-0.300000X-0.237500X0.300000X-0.237500X0*%
%ADD50R,3.500000X1.800000*%
%ADD51RoundRect,0.237500X-0.237500X0.300000X-0.237500X-0.300000X0.237500X-0.300000X0.237500X0.300000X0*%
%ADD52O,0.600000X0.240000*%
%ADD53R,0.200000X0.775000*%
%ADD54R,1.580000X2.850000*%
%ADD55RoundRect,0.250000X-0.400000X-1.450000X0.400000X-1.450000X0.400000X1.450000X-0.400000X1.450000X0*%
%ADD56R,0.700000X0.510000*%
%ADD57R,0.800000X1.500000*%
%ADD58R,1.000000X0.950000*%
%ADD59R,1.300000X1.400000*%
%ADD60R,1.400000X1.900000*%
%ADD61FreePoly0,0.000000*%
%ADD62FreePoly1,0.000000*%
%ADD63R,1.500000X0.400000*%
%ADD64RoundRect,0.250000X0.475000X-0.337500X0.475000X0.337500X-0.475000X0.337500X-0.475000X-0.337500X0*%
%ADD65R,1.150000X0.600000*%
%ADD66RoundRect,0.250000X0.337500X0.475000X-0.337500X0.475000X-0.337500X-0.475000X0.337500X-0.475000X0*%
%ADD67O,0.240000X0.600000*%
%ADD68R,0.775000X0.200000*%
%ADD69R,2.850000X1.580000*%
%ADD70RoundRect,0.150000X0.150000X-0.825000X0.150000X0.825000X-0.150000X0.825000X-0.150000X-0.825000X0*%
%ADD71C,3.000000*%
%ADD72R,2.500000X2.500000*%
%ADD73RoundRect,0.250000X0.400000X1.450000X-0.400000X1.450000X-0.400000X-1.450000X0.400000X-1.450000X0*%
%ADD74R,3.400000X1.300000*%
%ADD75RotRect,1.300000X3.000000X20.000000*%
%ADD76C,3.570000*%
%ADD77RoundRect,0.250000X-0.262500X-0.450000X0.262500X-0.450000X0.262500X0.450000X-0.262500X0.450000X0*%
%ADD78RoundRect,0.150000X0.725000X0.150000X-0.725000X0.150000X-0.725000X-0.150000X0.725000X-0.150000X0*%
%ADD79R,0.400000X1.500000*%
%ADD80R,1.200000X0.900000*%
%ADD81R,0.510000X1.100000*%
%ADD82RoundRect,0.218750X0.256250X-0.218750X0.256250X0.218750X-0.256250X0.218750X-0.256250X-0.218750X0*%
%ADD83RoundRect,0.100000X-0.637500X-0.100000X0.637500X-0.100000X0.637500X0.100000X-0.637500X0.100000X0*%
%ADD84RoundRect,0.150000X-0.587500X-0.150000X0.587500X-0.150000X0.587500X0.150000X-0.587500X0.150000X0*%
%ADD85RoundRect,0.087500X-0.087500X0.425000X-0.087500X-0.425000X0.087500X-0.425000X0.087500X0.425000X0*%
%ADD86RoundRect,0.087500X-0.425000X0.087500X-0.425000X-0.087500X0.425000X-0.087500X0.425000X0.087500X0*%
%ADD87R,2.100000X2.100000*%
%ADD88RoundRect,0.218750X-0.218750X-0.256250X0.218750X-0.256250X0.218750X0.256250X-0.218750X0.256250X0*%
G04 APERTURE END LIST*
D10*
X97383600Y-91897200D02*
X101904800Y-91897200D01*
X101904800Y-91897200D02*
X101904800Y-93370400D01*
X101904800Y-93370400D02*
X97383600Y-93370400D01*
X97383600Y-93370400D02*
X97383600Y-91897200D01*
G36*
X97383600Y-91897200D02*
G01*
X101904800Y-91897200D01*
X101904800Y-93370400D01*
X97383600Y-93370400D01*
X97383600Y-91897200D01*
G37*
D11*
X186000000Y-136000000D02*
X198000000Y-124000000D01*
X91500000Y-69000000D02*
X91500000Y-80000000D01*
X95151800Y-91338400D02*
X95177200Y-84491200D01*
X146253200Y-130683000D02*
X163855400Y-130683000D01*
X163855400Y-130683000D02*
X163855400Y-136220200D01*
X163855400Y-136220200D02*
X146253200Y-136220200D01*
X146253200Y-136220200D02*
X146253200Y-130683000D01*
X107289600Y-82600800D02*
X107289600Y-102000000D01*
X104021800Y-91333000D02*
X104047200Y-84485800D01*
X91500000Y-80000000D02*
G75*
G03*
X93000000Y-82000000I1750000J-250000D01*
G01*
X100000000Y-61999995D02*
G75*
G03*
X91500000Y-69000000I-78860J-8564955D01*
G01*
X95168400Y-100333800D02*
X104038400Y-100333800D01*
X91500000Y-130750000D02*
G75*
G03*
X99250000Y-138000000I7563800J318200D01*
G01*
X95151800Y-93838400D02*
X95168400Y-100333800D01*
X200000005Y-123000022D02*
G75*
G03*
X198000000Y-124000000I865995J-4232078D01*
G01*
X218000000Y-123000000D02*
X218000000Y-69000000D01*
X93000000Y-103500000D02*
X106000000Y-103500000D01*
X106324400Y-81985800D02*
X107289600Y-82600800D01*
X181000000Y-138000013D02*
G75*
G03*
X186000000Y-136000000I-247500J7868713D01*
G01*
X104047200Y-81985800D02*
X106324400Y-81985800D01*
X99250000Y-138000000D02*
X181000000Y-138000000D01*
X104021800Y-93833000D02*
X104038400Y-100333800D01*
X91500000Y-130750000D02*
X91500000Y-105000000D01*
X105999998Y-103499995D02*
G75*
G03*
X107289600Y-102000000I-654198J1866795D01*
G01*
X93000000Y-82000000D02*
X95177200Y-81991200D01*
X218000000Y-123000000D02*
X200000000Y-123000000D01*
X218000023Y-68999996D02*
G75*
G03*
X210000000Y-62000000I-8171123J-1267004D01*
G01*
X210000000Y-62000000D02*
X100000000Y-62000000D01*
X93000000Y-103500000D02*
G75*
G03*
X91500000Y-105000000I143800J-1643800D01*
G01*
D10*
X97383600Y-91897200D02*
X101904800Y-91897200D01*
X101904800Y-91897200D02*
X101904800Y-93370400D01*
X101904800Y-93370400D02*
X97383600Y-93370400D01*
X97383600Y-93370400D02*
X97383600Y-91897200D01*
G36*
X97383600Y-91897200D02*
G01*
X101904800Y-91897200D01*
X101904800Y-93370400D01*
X97383600Y-93370400D01*
X97383600Y-91897200D01*
G37*
D11*
X186000000Y-136000000D02*
X198000000Y-124000000D01*
X91500000Y-69000000D02*
X91500000Y-80000000D01*
X95151800Y-91338400D02*
X95177200Y-84491200D01*
X146253200Y-130683000D02*
X163855400Y-130683000D01*
X163855400Y-130683000D02*
X163855400Y-136220200D01*
X163855400Y-136220200D02*
X146253200Y-136220200D01*
X146253200Y-136220200D02*
X146253200Y-130683000D01*
X107289600Y-82600800D02*
X107289600Y-102000000D01*
X104021800Y-91333000D02*
X104047200Y-84485800D01*
X91500000Y-80000000D02*
G75*
G03*
X93000000Y-82000000I1750000J-250000D01*
G01*
X100000000Y-61999995D02*
G75*
G03*
X91500000Y-69000000I-78860J-8564955D01*
G01*
X95168400Y-100333800D02*
X104038400Y-100333800D01*
X91500000Y-130750000D02*
G75*
G03*
X99250000Y-138000000I7563800J318200D01*
G01*
X95151800Y-93838400D02*
X95168400Y-100333800D01*
X200000005Y-123000022D02*
G75*
G03*
X198000000Y-124000000I865995J-4232078D01*
G01*
X218000000Y-123000000D02*
X218000000Y-69000000D01*
X93000000Y-103500000D02*
X106000000Y-103500000D01*
X106324400Y-81985800D02*
X107289600Y-82600800D01*
X181000000Y-138000013D02*
G75*
G03*
X186000000Y-136000000I-247500J7868713D01*
G01*
X104047200Y-81985800D02*
X106324400Y-81985800D01*
X99250000Y-138000000D02*
X181000000Y-138000000D01*
X104021800Y-93833000D02*
X104038400Y-100333800D01*
X91500000Y-130750000D02*
X91500000Y-105000000D01*
X105999998Y-103499995D02*
G75*
G03*
X107289600Y-102000000I-654198J1866795D01*
G01*
X93000000Y-82000000D02*
X95177200Y-81991200D01*
X218000000Y-123000000D02*
X200000000Y-123000000D01*
X218000023Y-68999996D02*
G75*
G03*
X210000000Y-62000000I-8171123J-1267004D01*
G01*
X210000000Y-62000000D02*
X100000000Y-62000000D01*
X93000000Y-103500000D02*
G75*
G03*
X91500000Y-105000000I143800J-1643800D01*
G01*
D12*
%TO.C,FID11*%
X95151800Y-93838400D02*
G75*
G03*
X95151800Y-91338400I0J1250000D01*
G01*
X104021800Y-91333000D02*
G75*
G03*
X104021800Y-93833000I0J-1250000D01*
G01*
%TO.C,FID12*%
X104047200Y-81985800D02*
G75*
G03*
X104047200Y-84485800I0J-1250000D01*
G01*
X95177200Y-84491200D02*
G75*
G03*
X95177200Y-81991200I0J1250000D01*
G01*
%TD*%
D13*
%TO.C,R114*%
X192227200Y-128168400D03*
X192227200Y-126343400D03*
%TD*%
%TO.C,R113*%
X189153800Y-126343400D03*
X189153800Y-128168400D03*
%TD*%
%TO.C,R110*%
X190703200Y-128166500D03*
X190703200Y-126341500D03*
%TD*%
D14*
%TO.C,J7*%
X95656400Y-74091800D03*
D15*
X100656400Y-74091800D03*
X105656400Y-74091800D03*
%TD*%
D16*
%TO.C,FID11*%
X98251800Y-91338400D03*
X100951800Y-91338400D03*
X100051800Y-93827600D03*
X100051800Y-91338400D03*
X102751800Y-91338400D03*
X96451800Y-91338400D03*
X100951800Y-93827600D03*
X97351800Y-91338400D03*
X99151800Y-93827600D03*
X102751800Y-93827600D03*
X96451800Y-93827600D03*
X97351800Y-93827600D03*
X101851800Y-91338400D03*
X98251800Y-93827600D03*
X99151800Y-91338400D03*
X101851800Y-93827600D03*
%TD*%
%TO.C,FID12*%
X101877200Y-84480400D03*
X98277200Y-84480400D03*
X97377200Y-81991200D03*
X99177200Y-84480400D03*
X99177200Y-81991200D03*
X100077200Y-81991200D03*
X97377200Y-84480400D03*
X98277200Y-81991200D03*
X102777200Y-81991200D03*
X100077200Y-84480400D03*
X96477200Y-81991200D03*
X102777200Y-84480400D03*
X101877200Y-81991200D03*
X100977200Y-84480400D03*
X96477200Y-84480400D03*
X100977200Y-81991200D03*
%TD*%
D17*
%TO.C,H3*%
X210000000Y-100000000D03*
D18*
X210000000Y-100000000D03*
%TD*%
D17*
%TO.C,H5*%
X125000000Y-70000000D03*
D18*
X125000000Y-70000000D03*
%TD*%
D19*
%TO.C,J4*%
X196000000Y-69000000D03*
D20*
X193460000Y-66460000D03*
X198540000Y-66460000D03*
X198540000Y-71540000D03*
X193460000Y-71540000D03*
%TD*%
D21*
%TO.C,J14*%
X105410000Y-119278400D03*
D22*
X100410000Y-119278400D03*
D15*
X95410000Y-119278400D03*
%TD*%
D23*
%TO.C,J5*%
X210896200Y-89941400D03*
D20*
X210896200Y-86349298D03*
X214488302Y-89941400D03*
X210896200Y-93533502D03*
X207304098Y-89941400D03*
%TD*%
D24*
%TO.C,J2*%
X173000000Y-69000000D03*
D20*
X175540000Y-66460000D03*
X170460000Y-66460000D03*
X175540000Y-71540000D03*
X170460000Y-71540000D03*
%TD*%
D17*
%TO.C,H1*%
X125000000Y-130000000D03*
D18*
X125000000Y-130000000D03*
%TD*%
D25*
%TO.C,JP1*%
X183504600Y-75946000D03*
D26*
X186044600Y-75946000D03*
X188584600Y-75946000D03*
%TD*%
D27*
%TO.C,J9*%
X141579600Y-69418200D03*
D28*
X141579600Y-67418200D03*
X141579600Y-65418200D03*
%TD*%
D29*
%TO.C,J13*%
X132838500Y-120721000D03*
X132838500Y-118221000D03*
X132838500Y-116221000D03*
X132838500Y-113721000D03*
D30*
X135238500Y-123791000D03*
X135238500Y-110651000D03*
%TD*%
D17*
%TO.C,H4*%
X185000000Y-70000000D03*
D18*
X185000000Y-70000000D03*
%TD*%
D21*
%TO.C,J11*%
X121996200Y-119303800D03*
D15*
X116996200Y-119303800D03*
X111996200Y-119303800D03*
%TD*%
D18*
%TO.C,H2*%
X185000000Y-130000000D03*
D17*
X185000000Y-130000000D03*
%TD*%
D27*
%TO.C,J8*%
X141579600Y-78257400D03*
D28*
X141579600Y-76257400D03*
X141579600Y-74257400D03*
%TD*%
D25*
%TO.C,J3*%
X188468000Y-119380000D03*
D26*
X191008000Y-119380000D03*
X193548000Y-119380000D03*
X196088000Y-119380000D03*
%TD*%
D31*
%TO.C,U10*%
X151083000Y-90236000D03*
X151083000Y-91186000D03*
X151083000Y-92136000D03*
X148383000Y-92136000D03*
X148383000Y-90236000D03*
%TD*%
D32*
%TO.C,JP3*%
X155376400Y-81635600D03*
D33*
X154076400Y-81635600D03*
D34*
X152776400Y-81635600D03*
%TD*%
D35*
%TO.C,Y1*%
X158990000Y-92140000D03*
X157240000Y-92140000D03*
X157240000Y-90740000D03*
X158990000Y-90740000D03*
%TD*%
D36*
%TO.C,R100*%
X101297100Y-68783200D03*
X103122100Y-68783200D03*
%TD*%
D37*
%TO.C,C5*%
X173202600Y-90143500D03*
X173202600Y-88418500D03*
%TD*%
D38*
%TO.C,R94*%
X150772500Y-119456200D03*
X148947500Y-119456200D03*
%TD*%
D13*
%TO.C,R97*%
X168554400Y-92505700D03*
X168554400Y-94330700D03*
%TD*%
D38*
%TO.C,R16*%
X153971000Y-126238000D03*
X152146000Y-126238000D03*
%TD*%
D39*
%TO.C,R11*%
X208483200Y-84656300D03*
X208483200Y-82831300D03*
%TD*%
D40*
%TO.C,U19*%
X159830200Y-104790100D03*
X159330200Y-104790100D03*
X158830200Y-104790100D03*
X158330200Y-104790100D03*
D41*
X157642700Y-104102600D03*
X157642700Y-103602600D03*
X157642700Y-103102600D03*
X157642700Y-102602600D03*
D40*
X158330200Y-101915100D03*
X158830200Y-101915100D03*
X159330200Y-101915100D03*
X159830200Y-101915100D03*
D41*
X160517700Y-102602600D03*
X160517700Y-103102600D03*
X160517700Y-103602600D03*
X160517700Y-104102600D03*
D42*
X159080200Y-103352600D03*
%TD*%
D39*
%TO.C,R70*%
X124714000Y-92249000D03*
X124714000Y-90424000D03*
%TD*%
D43*
%TO.C,L3*%
X116594600Y-76682600D03*
X114494600Y-76682600D03*
%TD*%
D44*
%TO.C,J15*%
X192153500Y-81407000D03*
X187963500Y-81407000D03*
X192153500Y-83947000D03*
X187963500Y-83947000D03*
X192153500Y-86487000D03*
X187963500Y-86487000D03*
X192153500Y-89027000D03*
X187963500Y-89027000D03*
X192153500Y-91567000D03*
X187963500Y-91567000D03*
X192153500Y-94107000D03*
X187963500Y-94107000D03*
X192153500Y-96647000D03*
X187963500Y-96647000D03*
X192153500Y-99187000D03*
X187963500Y-99187000D03*
X192153500Y-101727000D03*
X187963500Y-101727000D03*
X192153500Y-104267000D03*
X187963500Y-104267000D03*
%TD*%
D38*
%TO.C,R36*%
X153236300Y-111891600D03*
X151411300Y-111891600D03*
%TD*%
D45*
%TO.C,C44*%
X124867500Y-109347000D03*
X126592500Y-109347000D03*
%TD*%
D38*
%TO.C,R38*%
X108608500Y-63957200D03*
X106783500Y-63957200D03*
%TD*%
D39*
%TO.C,R9*%
X208915000Y-74699500D03*
X208915000Y-72874500D03*
%TD*%
D46*
%TO.C,C6*%
X160070800Y-86403900D03*
X160070800Y-88478900D03*
%TD*%
D47*
%TO.C,J20*%
X102148200Y-96032000D03*
X97098200Y-96032000D03*
X102148200Y-98572000D03*
X97098200Y-98572000D03*
%TD*%
D48*
%TO.C,C35*%
X153292900Y-93726000D03*
X155367900Y-93726000D03*
%TD*%
D49*
%TO.C,C67*%
X182599500Y-94996000D03*
X180874500Y-94996000D03*
%TD*%
D38*
%TO.C,R37*%
X103126000Y-67259200D03*
X101301000Y-67259200D03*
%TD*%
D50*
%TO.C,D11*%
X112993800Y-104063800D03*
X117993800Y-104063800D03*
%TD*%
D51*
%TO.C,C52*%
X123190000Y-90450500D03*
X123190000Y-92175500D03*
%TD*%
D13*
%TO.C,R26*%
X141224000Y-119460000D03*
X141224000Y-121285000D03*
%TD*%
D32*
%TO.C,JP7*%
X179349400Y-101092000D03*
D33*
X178049400Y-101092000D03*
D34*
X176749400Y-101092000D03*
%TD*%
D38*
%TO.C,R8*%
X211986500Y-83058000D03*
X210161500Y-83058000D03*
%TD*%
%TO.C,R79*%
X180136800Y-84785200D03*
X178311800Y-84785200D03*
%TD*%
D52*
%TO.C,U17*%
X114288400Y-84050000D03*
X114288400Y-83550000D03*
D53*
X115458400Y-80737000D03*
X115918400Y-80737000D03*
X116378400Y-80737000D03*
X114998400Y-84363000D03*
X115918400Y-84363000D03*
X115458400Y-84363000D03*
X116378400Y-84363000D03*
D54*
X115688400Y-82550000D03*
D53*
X114998400Y-80737000D03*
D52*
X114288400Y-83050000D03*
X114288400Y-82550000D03*
X114288400Y-82050000D03*
X114288400Y-81550000D03*
X114288400Y-81050000D03*
X117088400Y-81050000D03*
X117088400Y-81550000D03*
X117088400Y-82050000D03*
X117088400Y-82550000D03*
X117088400Y-83050000D03*
X117088400Y-83550000D03*
X117088400Y-84050000D03*
%TD*%
D47*
%TO.C,J19*%
X102186984Y-86595784D03*
X97136984Y-86595784D03*
X102186984Y-89135784D03*
X97136984Y-89135784D03*
%TD*%
D55*
%TO.C,TH1*%
X172069800Y-83007200D03*
X176519800Y-83007200D03*
%TD*%
D13*
%TO.C,R2*%
X190754000Y-109577500D03*
X190754000Y-111402500D03*
%TD*%
D56*
%TO.C,U6*%
X148344400Y-126527600D03*
X148344400Y-125577600D03*
X148344400Y-124627600D03*
X150664400Y-124627600D03*
X150664400Y-126527600D03*
%TD*%
D36*
%TO.C,R15*%
X152122500Y-124714000D03*
X153947500Y-124714000D03*
%TD*%
D13*
%TO.C,R10*%
X209296000Y-76938500D03*
X209296000Y-78763500D03*
%TD*%
D57*
%TO.C,J10*%
X206615400Y-116234400D03*
X207715400Y-115834400D03*
X208815400Y-116234400D03*
X209915400Y-116434400D03*
X211015400Y-116234400D03*
X212115400Y-116434400D03*
X213215400Y-116234400D03*
X214315400Y-116234400D03*
D58*
X212115400Y-105148400D03*
D59*
X207805400Y-105374400D03*
X213505400Y-105374400D03*
D60*
X215105400Y-118523400D03*
X201955400Y-119523400D03*
%TD*%
D13*
%TO.C,R96*%
X181254400Y-101474900D03*
X181254400Y-103299900D03*
%TD*%
D36*
%TO.C,R14*%
X187096400Y-112826800D03*
X188921400Y-112826800D03*
%TD*%
D61*
%TO.C,JP4*%
X157500800Y-82296000D03*
D33*
X158800800Y-82296000D03*
D62*
X160100800Y-82296000D03*
%TD*%
D39*
%TO.C,R33*%
X125095000Y-95781500D03*
X125095000Y-93956500D03*
%TD*%
D63*
%TO.C,Q5*%
X201235000Y-77104000D03*
X201235000Y-76454000D03*
X201235000Y-75804000D03*
X203895000Y-75804000D03*
X203895000Y-76454000D03*
X203895000Y-77104000D03*
%TD*%
D32*
%TO.C,JP2*%
X165561800Y-108940600D03*
D33*
X164261800Y-108940600D03*
D34*
X162961800Y-108940600D03*
%TD*%
D64*
%TO.C,C78*%
X162407600Y-102637500D03*
X162407600Y-100562500D03*
%TD*%
D51*
%TO.C,C76*%
X162077400Y-105106300D03*
X162077400Y-106831300D03*
%TD*%
D63*
%TO.C,Q2*%
X195259000Y-108824000D03*
X195259000Y-109474000D03*
X195259000Y-110124000D03*
X192599000Y-110124000D03*
X192599000Y-109474000D03*
X192599000Y-108824000D03*
%TD*%
D46*
%TO.C,C19*%
X162052000Y-86403900D03*
X162052000Y-88478900D03*
%TD*%
D45*
%TO.C,C74*%
X116409300Y-106934000D03*
X118134300Y-106934000D03*
%TD*%
D65*
%TO.C,D17*%
X137850400Y-114823200D03*
X137850400Y-115773200D03*
X137850400Y-116723200D03*
X135250400Y-116723200D03*
X135250400Y-115773200D03*
X135250400Y-114823200D03*
%TD*%
D38*
%TO.C,R29*%
X137056500Y-120650000D03*
X135231500Y-120650000D03*
%TD*%
D66*
%TO.C,C4*%
X173249500Y-92303600D03*
X171174500Y-92303600D03*
%TD*%
D37*
%TO.C,C24*%
X103886000Y-65632500D03*
X103886000Y-63907500D03*
%TD*%
D38*
%TO.C,R101*%
X106474900Y-68783200D03*
X104649900Y-68783200D03*
%TD*%
D51*
%TO.C,C37*%
X150215600Y-86107100D03*
X150215600Y-87832100D03*
%TD*%
%TO.C,C31*%
X167055800Y-92557600D03*
X167055800Y-94282600D03*
%TD*%
D32*
%TO.C,JP8*%
X178973000Y-95859600D03*
D33*
X177673000Y-95859600D03*
D34*
X176373000Y-95859600D03*
%TD*%
D36*
%TO.C,R77*%
X188266700Y-123291600D03*
X190091700Y-123291600D03*
%TD*%
D51*
%TO.C,C38*%
X148742400Y-86107100D03*
X148742400Y-87832100D03*
%TD*%
D67*
%TO.C,U16*%
X122452000Y-82132000D03*
D68*
X122139000Y-83762000D03*
X125765000Y-82842000D03*
X125765000Y-83762000D03*
X125765000Y-84222000D03*
X125765000Y-83302000D03*
D67*
X122952000Y-82132000D03*
D69*
X123952000Y-83532000D03*
D68*
X122139000Y-84222000D03*
X122139000Y-83302000D03*
X122139000Y-82842000D03*
D67*
X123452000Y-82132000D03*
X123952000Y-82132000D03*
X124452000Y-82132000D03*
X124952000Y-82132000D03*
X125452000Y-82132000D03*
X125452000Y-84932000D03*
X124952000Y-84932000D03*
X124452000Y-84932000D03*
X123952000Y-84932000D03*
X123452000Y-84932000D03*
X122952000Y-84932000D03*
X122452000Y-84932000D03*
%TD*%
D13*
%TO.C,R76*%
X164261800Y-84304500D03*
X164261800Y-86129500D03*
%TD*%
D63*
%TO.C,Q4*%
X188274000Y-109967000D03*
X188274000Y-110617000D03*
X188274000Y-111267000D03*
X185614000Y-111267000D03*
X185614000Y-110617000D03*
X185614000Y-109967000D03*
%TD*%
D13*
%TO.C,R32*%
X139903200Y-124436500D03*
X139903200Y-126261500D03*
%TD*%
D70*
%TO.C,U9*%
X169748200Y-89343000D03*
X168478200Y-89343000D03*
X167208200Y-89343000D03*
X165938200Y-89343000D03*
X165938200Y-84393000D03*
X167208200Y-84393000D03*
X168478200Y-84393000D03*
X169748200Y-84393000D03*
%TD*%
D38*
%TO.C,R80*%
X195222500Y-116281200D03*
X193397500Y-116281200D03*
%TD*%
D39*
%TO.C,R46*%
X160629600Y-92479500D03*
X160629600Y-90654500D03*
%TD*%
D38*
%TO.C,R39*%
X106482600Y-67259200D03*
X104657600Y-67259200D03*
%TD*%
D49*
%TO.C,C80*%
X169721700Y-82346800D03*
X167996700Y-82346800D03*
%TD*%
D36*
%TO.C,R35*%
X151385900Y-116590600D03*
X153210900Y-116590600D03*
%TD*%
D13*
%TO.C,R4*%
X195118200Y-111660300D03*
X195118200Y-113485300D03*
%TD*%
D45*
%TO.C,C75*%
X152197900Y-127787400D03*
X153922900Y-127787400D03*
%TD*%
D13*
%TO.C,R21*%
X199136000Y-75922500D03*
X199136000Y-77747500D03*
%TD*%
D71*
%TO.C,C82*%
X98137200Y-132791200D03*
D72*
X116137200Y-132791200D03*
%TD*%
D49*
%TO.C,C10*%
X185063300Y-107848400D03*
X183338300Y-107848400D03*
%TD*%
D73*
%TO.C,F2*%
X129545000Y-124180600D03*
X125095000Y-124180600D03*
%TD*%
D51*
%TO.C,C18*%
X139700000Y-120904000D03*
X139700000Y-122629000D03*
%TD*%
D13*
%TO.C,R19*%
X205867000Y-75795500D03*
X205867000Y-77620500D03*
%TD*%
D74*
%TO.C,L2*%
X129581200Y-84546600D03*
X129581200Y-82446600D03*
%TD*%
D75*
%TO.C,J6*%
X174206982Y-122973033D03*
X176556214Y-122117982D03*
X178435599Y-121433942D03*
X180784831Y-120578892D03*
D76*
X170216399Y-120488028D03*
X182244465Y-116110171D03*
%TD*%
D55*
%TO.C,F3*%
X100772000Y-112141000D03*
X105222000Y-112141000D03*
%TD*%
D37*
%TO.C,C16*%
X182778400Y-103249900D03*
X182778400Y-101524900D03*
%TD*%
D13*
%TO.C,R18*%
X196621400Y-111658400D03*
X196621400Y-113483400D03*
%TD*%
D64*
%TO.C,C48*%
X124865300Y-102664000D03*
X124865300Y-100589000D03*
%TD*%
D77*
%TO.C,R61*%
X124817500Y-111125000D03*
X126642500Y-111125000D03*
%TD*%
D78*
%TO.C,Q7*%
X117026300Y-96596200D03*
X117026300Y-97866200D03*
X117026300Y-99136200D03*
X117026300Y-100406200D03*
X111876300Y-100406200D03*
X111876300Y-99136200D03*
X111876300Y-97866200D03*
X111876300Y-96596200D03*
%TD*%
D79*
%TO.C,Q3*%
X212740000Y-81086000D03*
X212090000Y-81086000D03*
X211440000Y-81086000D03*
X211440000Y-78426000D03*
X212090000Y-78426000D03*
X212740000Y-78426000D03*
%TD*%
D38*
%TO.C,R49*%
X156995500Y-88850300D03*
X155170500Y-88850300D03*
%TD*%
%TO.C,R63*%
X111427900Y-106654600D03*
X109602900Y-106654600D03*
%TD*%
%TO.C,R108*%
X153236300Y-113436400D03*
X151411300Y-113436400D03*
%TD*%
D45*
%TO.C,C51*%
X113056500Y-106934000D03*
X114781500Y-106934000D03*
%TD*%
D79*
%TO.C,Q1*%
X210551000Y-70044000D03*
X211201000Y-70044000D03*
X211851000Y-70044000D03*
X211851000Y-72704000D03*
X211201000Y-72704000D03*
X210551000Y-72704000D03*
%TD*%
D39*
%TO.C,R3*%
X193573400Y-113483400D03*
X193573400Y-111658400D03*
%TD*%
D80*
%TO.C,D12*%
X126644400Y-113793000D03*
X126644400Y-117093000D03*
%TD*%
D55*
%TO.C,F1*%
X117282000Y-113538000D03*
X121732000Y-113538000D03*
%TD*%
D81*
%TO.C,U12*%
X119182300Y-96129000D03*
X120182300Y-96129000D03*
X121182300Y-96129000D03*
X122182300Y-96129000D03*
X123182300Y-96129000D03*
X123182300Y-101229000D03*
X122182300Y-101229000D03*
X121182300Y-101229000D03*
X120182300Y-101229000D03*
X119182300Y-101229000D03*
%TD*%
D55*
%TO.C,TH2*%
X187182800Y-115570000D03*
X191632800Y-115570000D03*
%TD*%
D78*
%TO.C,Q9*%
X116783000Y-89789000D03*
X116783000Y-91059000D03*
X116783000Y-92329000D03*
X116783000Y-93599000D03*
X111633000Y-93599000D03*
X111633000Y-92329000D03*
X111633000Y-91059000D03*
X111633000Y-89789000D03*
%TD*%
D38*
%TO.C,R68*%
X121028000Y-93421200D03*
X119203000Y-93421200D03*
%TD*%
D82*
%TO.C,L5*%
X151536400Y-95377100D03*
X151536400Y-93802100D03*
%TD*%
D45*
%TO.C,C54*%
X134316300Y-89001600D03*
X136041300Y-89001600D03*
%TD*%
D32*
%TO.C,JP9*%
X180344600Y-98475800D03*
D33*
X179044600Y-98475800D03*
D34*
X177744600Y-98475800D03*
%TD*%
D61*
%TO.C,JP10*%
X157780200Y-99085400D03*
D33*
X159080200Y-99085400D03*
D62*
X160380200Y-99085400D03*
%TD*%
D48*
%TO.C,C34*%
X153292900Y-95758000D03*
X155367900Y-95758000D03*
%TD*%
D13*
%TO.C,R67*%
X114808000Y-113260500D03*
X114808000Y-115085500D03*
%TD*%
D83*
%TO.C,U18*%
X176715500Y-93491000D03*
X176715500Y-92841000D03*
X176715500Y-92191000D03*
X176715500Y-91541000D03*
X176715500Y-90891000D03*
X176715500Y-90241000D03*
X176715500Y-89591000D03*
X176715500Y-88941000D03*
X176715500Y-88291000D03*
X176715500Y-87641000D03*
X176715500Y-86991000D03*
X176715500Y-86341000D03*
X182440500Y-86341000D03*
X182440500Y-86991000D03*
X182440500Y-87641000D03*
X182440500Y-88291000D03*
X182440500Y-88941000D03*
X182440500Y-89591000D03*
X182440500Y-90241000D03*
X182440500Y-90891000D03*
X182440500Y-91541000D03*
X182440500Y-92191000D03*
X182440500Y-92841000D03*
X182440500Y-93491000D03*
%TD*%
D84*
%TO.C,U15*%
X128450100Y-103487900D03*
X128450100Y-101587900D03*
X130325100Y-102537900D03*
%TD*%
D85*
%TO.C,U14*%
X130470000Y-90542700D03*
X131120000Y-90542700D03*
X131770000Y-90542700D03*
X132420000Y-90542700D03*
D86*
X133307500Y-91430200D03*
X133307500Y-92080200D03*
X133307500Y-92730200D03*
X133307500Y-93380200D03*
D85*
X132420000Y-94267700D03*
X131770000Y-94267700D03*
X131120000Y-94267700D03*
X130470000Y-94267700D03*
D86*
X129582500Y-93380200D03*
X129582500Y-92730200D03*
X129582500Y-92080200D03*
X129582500Y-91430200D03*
D87*
X131445000Y-92405200D03*
%TD*%
D51*
%TO.C,C36*%
X153466800Y-86107100D03*
X153466800Y-87832100D03*
%TD*%
D38*
%TO.C,R95*%
X150772500Y-120954800D03*
X148947500Y-120954800D03*
%TD*%
D88*
%TO.C,L4*%
X160578600Y-84785200D03*
X162153600Y-84785200D03*
%TD*%
D51*
%TO.C,C40*%
X151942800Y-86107100D03*
X151942800Y-87832100D03*
%TD*%
D36*
%TO.C,R28*%
X135231500Y-119126000D03*
X137056500Y-119126000D03*
%TD*%
%TO.C,R107*%
X151404700Y-115006600D03*
X153229700Y-115006600D03*
%TD*%
D37*
%TO.C,C17*%
X139649200Y-117473900D03*
X139649200Y-115748900D03*
%TD*%
D13*
%TO.C,R31*%
X141478000Y-124436500D03*
X141478000Y-126261500D03*
%TD*%
D45*
%TO.C,C56*%
X130328500Y-88646000D03*
X132053500Y-88646000D03*
%TD*%
D36*
%TO.C,R1*%
X197207500Y-109245400D03*
X199032500Y-109245400D03*
%TD*%
G36*
X189013326Y-110816000D02*
G01*
X189013326Y-110818000D01*
X189012521Y-110818772D01*
X188949480Y-110851748D01*
X188914509Y-110913157D01*
X188918291Y-110983721D01*
X188959656Y-111041088D01*
X189012412Y-111065181D01*
X189013572Y-111066810D01*
X189012741Y-111068629D01*
X189011581Y-111069000D01*
X187536406Y-111069000D01*
X187534674Y-111068000D01*
X187534674Y-111066000D01*
X187535479Y-111065228D01*
X187598520Y-111032252D01*
X187633491Y-110970843D01*
X187629709Y-110900279D01*
X187588344Y-110842912D01*
X187535588Y-110818819D01*
X187534428Y-110817190D01*
X187535259Y-110815371D01*
X187536419Y-110815000D01*
X189011594Y-110815000D01*
X189013326Y-110816000D01*
G37*
G36*
X186353326Y-110816000D02*
G01*
X186353326Y-110818000D01*
X186352521Y-110818772D01*
X186289480Y-110851748D01*
X186254509Y-110913157D01*
X186258291Y-110983721D01*
X186299656Y-111041088D01*
X186352412Y-111065181D01*
X186353572Y-111066810D01*
X186352741Y-111068629D01*
X186351581Y-111069000D01*
X184876406Y-111069000D01*
X184874674Y-111068000D01*
X184874674Y-111066000D01*
X184875479Y-111065228D01*
X184938520Y-111032252D01*
X184973491Y-110970843D01*
X184969709Y-110900279D01*
X184928344Y-110842912D01*
X184875588Y-110818819D01*
X184874428Y-110817190D01*
X184875259Y-110815371D01*
X184876419Y-110815000D01*
X186351594Y-110815000D01*
X186353326Y-110816000D01*
G37*
G36*
X189013326Y-110166000D02*
G01*
X189013326Y-110168000D01*
X189012521Y-110168772D01*
X188949480Y-110201748D01*
X188914509Y-110263157D01*
X188918291Y-110333721D01*
X188959656Y-110391088D01*
X189012412Y-110415181D01*
X189013572Y-110416810D01*
X189012741Y-110418629D01*
X189011581Y-110419000D01*
X187536406Y-110419000D01*
X187534674Y-110418000D01*
X187534674Y-110416000D01*
X187535479Y-110415228D01*
X187598520Y-110382252D01*
X187633491Y-110320843D01*
X187629709Y-110250279D01*
X187588344Y-110192912D01*
X187535588Y-110168819D01*
X187534428Y-110167190D01*
X187535259Y-110165371D01*
X187536419Y-110165000D01*
X189011594Y-110165000D01*
X189013326Y-110166000D01*
G37*
G36*
X186353326Y-110166000D02*
G01*
X186353326Y-110168000D01*
X186352521Y-110168772D01*
X186289480Y-110201748D01*
X186254509Y-110263157D01*
X186258291Y-110333721D01*
X186299656Y-110391088D01*
X186352412Y-110415181D01*
X186353572Y-110416810D01*
X186352741Y-110418629D01*
X186351581Y-110419000D01*
X184876406Y-110419000D01*
X184874674Y-110418000D01*
X184874674Y-110416000D01*
X184875479Y-110415228D01*
X184938520Y-110382252D01*
X184973491Y-110320843D01*
X184969709Y-110250279D01*
X184928344Y-110192912D01*
X184875588Y-110168819D01*
X184874428Y-110167190D01*
X184875259Y-110165371D01*
X184876419Y-110165000D01*
X186351594Y-110165000D01*
X186353326Y-110166000D01*
G37*
G36*
X195998326Y-109673000D02*
G01*
X195998326Y-109675000D01*
X195997521Y-109675772D01*
X195934480Y-109708748D01*
X195899509Y-109770157D01*
X195903291Y-109840721D01*
X195944656Y-109898088D01*
X195997412Y-109922181D01*
X195998572Y-109923810D01*
X195997741Y-109925629D01*
X195996581Y-109926000D01*
X194521406Y-109926000D01*
X194519674Y-109925000D01*
X194519674Y-109923000D01*
X194520479Y-109922228D01*
X194583520Y-109889252D01*
X194618491Y-109827843D01*
X194614709Y-109757279D01*
X194573344Y-109699912D01*
X194520588Y-109675819D01*
X194519428Y-109674190D01*
X194520259Y-109672371D01*
X194521419Y-109672000D01*
X195996594Y-109672000D01*
X195998326Y-109673000D01*
G37*
G36*
X193338326Y-109673000D02*
G01*
X193338326Y-109675000D01*
X193337521Y-109675772D01*
X193274480Y-109708748D01*
X193239509Y-109770157D01*
X193243291Y-109840721D01*
X193284656Y-109898088D01*
X193337412Y-109922181D01*
X193338572Y-109923810D01*
X193337741Y-109925629D01*
X193336581Y-109926000D01*
X191861406Y-109926000D01*
X191859674Y-109925000D01*
X191859674Y-109923000D01*
X191860479Y-109922228D01*
X191923520Y-109889252D01*
X191958491Y-109827843D01*
X191954709Y-109757279D01*
X191913344Y-109699912D01*
X191860588Y-109675819D01*
X191859428Y-109674190D01*
X191860259Y-109672371D01*
X191861419Y-109672000D01*
X193336594Y-109672000D01*
X193338326Y-109673000D01*
G37*
G36*
X165013429Y-108201859D02*
G01*
X165013800Y-108203019D01*
X165013800Y-109678197D01*
X165012800Y-109679929D01*
X165010800Y-109679929D01*
X165010028Y-109679124D01*
X164977051Y-109616081D01*
X164915642Y-109581110D01*
X164845078Y-109584893D01*
X164787711Y-109626260D01*
X164763619Y-109679015D01*
X164761990Y-109680175D01*
X164760171Y-109679344D01*
X164759800Y-109678184D01*
X164759800Y-108203006D01*
X164760800Y-108201274D01*
X164762800Y-108201274D01*
X164763572Y-108202079D01*
X164796548Y-108265120D01*
X164857957Y-108300091D01*
X164928521Y-108296309D01*
X164985888Y-108254944D01*
X165009981Y-108202188D01*
X165011610Y-108201028D01*
X165013429Y-108201859D01*
G37*
G36*
X163763429Y-108201856D02*
G01*
X163763800Y-108203016D01*
X163763800Y-109678194D01*
X163762800Y-109679926D01*
X163760800Y-109679926D01*
X163760028Y-109679121D01*
X163727052Y-109616080D01*
X163665643Y-109581109D01*
X163595079Y-109584891D01*
X163537712Y-109626256D01*
X163513619Y-109679012D01*
X163511990Y-109680172D01*
X163510171Y-109679341D01*
X163509800Y-109678181D01*
X163509800Y-108203003D01*
X163510800Y-108201271D01*
X163512800Y-108201271D01*
X163513572Y-108202076D01*
X163546549Y-108265119D01*
X163607958Y-108300090D01*
X163678522Y-108296307D01*
X163735889Y-108254940D01*
X163759981Y-108202185D01*
X163761610Y-108201025D01*
X163763429Y-108201856D01*
G37*
G36*
X193338326Y-109023000D02*
G01*
X193338326Y-109025000D01*
X193337521Y-109025772D01*
X193274480Y-109058748D01*
X193239509Y-109120157D01*
X193243291Y-109190721D01*
X193284656Y-109248088D01*
X193337412Y-109272181D01*
X193338572Y-109273810D01*
X193337741Y-109275629D01*
X193336581Y-109276000D01*
X191861406Y-109276000D01*
X191859674Y-109275000D01*
X191859674Y-109273000D01*
X191860479Y-109272228D01*
X191923520Y-109239252D01*
X191958491Y-109177843D01*
X191954709Y-109107279D01*
X191913344Y-109049912D01*
X191860588Y-109025819D01*
X191859428Y-109024190D01*
X191860259Y-109022371D01*
X191861419Y-109022000D01*
X193336594Y-109022000D01*
X193338326Y-109023000D01*
G37*
G36*
X195998326Y-109023000D02*
G01*
X195998326Y-109025000D01*
X195997521Y-109025772D01*
X195934480Y-109058748D01*
X195899509Y-109120157D01*
X195903291Y-109190721D01*
X195944656Y-109248088D01*
X195997412Y-109272181D01*
X195998572Y-109273810D01*
X195997741Y-109275629D01*
X195996581Y-109276000D01*
X194521406Y-109276000D01*
X194519674Y-109275000D01*
X194519674Y-109273000D01*
X194520479Y-109272228D01*
X194583520Y-109239252D01*
X194618491Y-109177843D01*
X194614709Y-109107279D01*
X194573344Y-109049912D01*
X194520588Y-109025819D01*
X194519428Y-109024190D01*
X194520259Y-109022371D01*
X194521419Y-109022000D01*
X195996594Y-109022000D01*
X195998326Y-109023000D01*
G37*
G36*
X212617063Y-104676699D02*
G01*
X212628021Y-104693098D01*
X212628991Y-104693034D01*
X212629879Y-104693901D01*
X212645244Y-104723278D01*
X212706652Y-104758251D01*
X212777217Y-104754471D01*
X212834584Y-104713108D01*
X212844252Y-104691939D01*
X212844408Y-104691659D01*
X212853737Y-104677698D01*
X212855531Y-104676813D01*
X212857194Y-104677924D01*
X212857400Y-104678809D01*
X212857400Y-105680109D01*
X212856400Y-105681841D01*
X212854400Y-105681841D01*
X212853481Y-105680672D01*
X212833408Y-105612308D01*
X212780002Y-105566032D01*
X212710053Y-105555974D01*
X212645627Y-105585397D01*
X212623480Y-105610498D01*
X212617063Y-105620102D01*
X212615269Y-105620987D01*
X212613606Y-105619876D01*
X212613400Y-105618991D01*
X212613400Y-104677810D01*
X212614400Y-104676078D01*
X212616400Y-104676078D01*
X212617063Y-104676699D01*
G37*
G36*
X159206829Y-104426359D02*
G01*
X159207200Y-104427519D01*
X159207200Y-105152694D01*
X159206200Y-105154426D01*
X159204200Y-105154426D01*
X159203428Y-105153621D01*
X159170450Y-105090577D01*
X159109042Y-105055607D01*
X159038477Y-105059390D01*
X158981111Y-105100757D01*
X158957019Y-105153512D01*
X158955390Y-105154672D01*
X158953571Y-105153841D01*
X158953200Y-105152681D01*
X158953200Y-104427506D01*
X158954200Y-104425774D01*
X158956200Y-104425774D01*
X158956972Y-104426579D01*
X158989950Y-104489623D01*
X159051358Y-104524593D01*
X159121923Y-104520810D01*
X159179289Y-104479443D01*
X159203381Y-104426688D01*
X159205010Y-104425528D01*
X159206829Y-104426359D01*
G37*
G36*
X158706829Y-104426359D02*
G01*
X158707200Y-104427519D01*
X158707200Y-105152694D01*
X158706200Y-105154426D01*
X158704200Y-105154426D01*
X158703428Y-105153621D01*
X158670450Y-105090577D01*
X158609042Y-105055607D01*
X158538477Y-105059390D01*
X158481111Y-105100757D01*
X158457019Y-105153512D01*
X158455390Y-105154672D01*
X158453571Y-105153841D01*
X158453200Y-105152681D01*
X158453200Y-104427506D01*
X158454200Y-104425774D01*
X158456200Y-104425774D01*
X158456972Y-104426579D01*
X158489950Y-104489623D01*
X158551358Y-104524593D01*
X158621923Y-104520810D01*
X158679289Y-104479443D01*
X158703381Y-104426688D01*
X158705010Y-104425528D01*
X158706829Y-104426359D01*
G37*
G36*
X159706829Y-104426359D02*
G01*
X159707200Y-104427519D01*
X159707200Y-105152694D01*
X159706200Y-105154426D01*
X159704200Y-105154426D01*
X159703428Y-105153621D01*
X159670450Y-105090577D01*
X159609042Y-105055607D01*
X159538477Y-105059390D01*
X159481111Y-105100757D01*
X159457019Y-105153512D01*
X159455390Y-105154672D01*
X159453571Y-105153841D01*
X159453200Y-105152681D01*
X159453200Y-104427506D01*
X159454200Y-104425774D01*
X159456200Y-104425774D01*
X159456972Y-104426579D01*
X159489950Y-104489623D01*
X159551358Y-104524593D01*
X159621923Y-104520810D01*
X159679289Y-104479443D01*
X159703381Y-104426688D01*
X159705010Y-104425528D01*
X159706829Y-104426359D01*
G37*
G36*
X158007026Y-103726600D02*
G01*
X158007026Y-103728600D01*
X158006221Y-103729372D01*
X157943177Y-103762350D01*
X157908207Y-103823758D01*
X157911990Y-103894323D01*
X157953357Y-103951689D01*
X158006112Y-103975781D01*
X158007272Y-103977410D01*
X158006441Y-103979229D01*
X158005281Y-103979600D01*
X157280106Y-103979600D01*
X157278374Y-103978600D01*
X157278374Y-103976600D01*
X157279179Y-103975828D01*
X157342223Y-103942850D01*
X157377193Y-103881442D01*
X157373410Y-103810877D01*
X157332043Y-103753511D01*
X157279288Y-103729419D01*
X157278128Y-103727790D01*
X157278959Y-103725971D01*
X157280119Y-103725600D01*
X158005294Y-103725600D01*
X158007026Y-103726600D01*
G37*
G36*
X160882026Y-103726600D02*
G01*
X160882026Y-103728600D01*
X160881221Y-103729372D01*
X160818177Y-103762350D01*
X160783207Y-103823758D01*
X160786990Y-103894323D01*
X160828357Y-103951689D01*
X160881112Y-103975781D01*
X160882272Y-103977410D01*
X160881441Y-103979229D01*
X160880281Y-103979600D01*
X160155106Y-103979600D01*
X160153374Y-103978600D01*
X160153374Y-103976600D01*
X160154179Y-103975828D01*
X160217223Y-103942850D01*
X160252193Y-103881442D01*
X160248410Y-103810877D01*
X160207043Y-103753511D01*
X160154288Y-103729419D01*
X160153128Y-103727790D01*
X160153959Y-103725971D01*
X160155119Y-103725600D01*
X160880294Y-103725600D01*
X160882026Y-103726600D01*
G37*
G36*
X160882026Y-103226600D02*
G01*
X160882026Y-103228600D01*
X160881221Y-103229372D01*
X160818177Y-103262350D01*
X160783207Y-103323758D01*
X160786990Y-103394323D01*
X160828357Y-103451689D01*
X160881112Y-103475781D01*
X160882272Y-103477410D01*
X160881441Y-103479229D01*
X160880281Y-103479600D01*
X160155106Y-103479600D01*
X160153374Y-103478600D01*
X160153374Y-103476600D01*
X160154179Y-103475828D01*
X160217223Y-103442850D01*
X160252193Y-103381442D01*
X160248410Y-103310877D01*
X160207043Y-103253511D01*
X160154288Y-103229419D01*
X160153128Y-103227790D01*
X160153959Y-103225971D01*
X160155119Y-103225600D01*
X160880294Y-103225600D01*
X160882026Y-103226600D01*
G37*
G36*
X158007026Y-103226600D02*
G01*
X158007026Y-103228600D01*
X158006221Y-103229372D01*
X157943177Y-103262350D01*
X157908207Y-103323758D01*
X157911990Y-103394323D01*
X157953357Y-103451689D01*
X158006112Y-103475781D01*
X158007272Y-103477410D01*
X158006441Y-103479229D01*
X158005281Y-103479600D01*
X157280106Y-103479600D01*
X157278374Y-103478600D01*
X157278374Y-103476600D01*
X157279179Y-103475828D01*
X157342223Y-103442850D01*
X157377193Y-103381442D01*
X157373410Y-103310877D01*
X157332043Y-103253511D01*
X157279288Y-103229419D01*
X157278128Y-103227790D01*
X157278959Y-103225971D01*
X157280119Y-103225600D01*
X158005294Y-103225600D01*
X158007026Y-103226600D01*
G37*
G36*
X160882026Y-102726600D02*
G01*
X160882026Y-102728600D01*
X160881221Y-102729372D01*
X160818177Y-102762350D01*
X160783207Y-102823758D01*
X160786990Y-102894323D01*
X160828357Y-102951689D01*
X160881112Y-102975781D01*
X160882272Y-102977410D01*
X160881441Y-102979229D01*
X160880281Y-102979600D01*
X160155106Y-102979600D01*
X160153374Y-102978600D01*
X160153374Y-102976600D01*
X160154179Y-102975828D01*
X160217223Y-102942850D01*
X160252193Y-102881442D01*
X160248410Y-102810877D01*
X160207043Y-102753511D01*
X160154288Y-102729419D01*
X160153128Y-102727790D01*
X160153959Y-102725971D01*
X160155119Y-102725600D01*
X160880294Y-102725600D01*
X160882026Y-102726600D01*
G37*
G36*
X158007026Y-102726600D02*
G01*
X158007026Y-102728600D01*
X158006221Y-102729372D01*
X157943177Y-102762350D01*
X157908207Y-102823758D01*
X157911990Y-102894323D01*
X157953357Y-102951689D01*
X158006112Y-102975781D01*
X158007272Y-102977410D01*
X158006441Y-102979229D01*
X158005281Y-102979600D01*
X157280106Y-102979600D01*
X157278374Y-102978600D01*
X157278374Y-102976600D01*
X157279179Y-102975828D01*
X157342223Y-102942850D01*
X157377193Y-102881442D01*
X157373410Y-102810877D01*
X157332043Y-102753511D01*
X157279288Y-102729419D01*
X157278128Y-102727790D01*
X157278959Y-102725971D01*
X157280119Y-102725600D01*
X158005294Y-102725600D01*
X158007026Y-102726600D01*
G37*
G36*
X159706829Y-101551359D02*
G01*
X159707200Y-101552519D01*
X159707200Y-102277694D01*
X159706200Y-102279426D01*
X159704200Y-102279426D01*
X159703428Y-102278621D01*
X159670450Y-102215577D01*
X159609042Y-102180607D01*
X159538477Y-102184390D01*
X159481111Y-102225757D01*
X159457019Y-102278512D01*
X159455390Y-102279672D01*
X159453571Y-102278841D01*
X159453200Y-102277681D01*
X159453200Y-101552506D01*
X159454200Y-101550774D01*
X159456200Y-101550774D01*
X159456972Y-101551579D01*
X159489950Y-101614623D01*
X159551358Y-101649593D01*
X159621923Y-101645810D01*
X159679289Y-101604443D01*
X159703381Y-101551688D01*
X159705010Y-101550528D01*
X159706829Y-101551359D01*
G37*
G36*
X158706829Y-101551359D02*
G01*
X158707200Y-101552519D01*
X158707200Y-102277694D01*
X158706200Y-102279426D01*
X158704200Y-102279426D01*
X158703428Y-102278621D01*
X158670450Y-102215577D01*
X158609042Y-102180607D01*
X158538477Y-102184390D01*
X158481111Y-102225757D01*
X158457019Y-102278512D01*
X158455390Y-102279672D01*
X158453571Y-102278841D01*
X158453200Y-102277681D01*
X158453200Y-101552506D01*
X158454200Y-101550774D01*
X158456200Y-101550774D01*
X158456972Y-101551579D01*
X158489950Y-101614623D01*
X158551358Y-101649593D01*
X158621923Y-101645810D01*
X158679289Y-101604443D01*
X158703381Y-101551688D01*
X158705010Y-101550528D01*
X158706829Y-101551359D01*
G37*
G36*
X159206829Y-101551359D02*
G01*
X159207200Y-101552519D01*
X159207200Y-102277694D01*
X159206200Y-102279426D01*
X159204200Y-102279426D01*
X159203428Y-102278621D01*
X159170450Y-102215577D01*
X159109042Y-102180607D01*
X159038477Y-102184390D01*
X158981111Y-102225757D01*
X158957019Y-102278512D01*
X158955390Y-102279672D01*
X158953571Y-102278841D01*
X158953200Y-102277681D01*
X158953200Y-101552506D01*
X158954200Y-101550774D01*
X158956200Y-101550774D01*
X158956972Y-101551579D01*
X158989950Y-101614623D01*
X159051358Y-101649593D01*
X159121923Y-101645810D01*
X159179289Y-101604443D01*
X159203381Y-101551688D01*
X159205010Y-101550528D01*
X159206829Y-101551359D01*
G37*
G36*
X178801029Y-100353259D02*
G01*
X178801400Y-100354419D01*
X178801400Y-101829597D01*
X178800400Y-101831329D01*
X178798400Y-101831329D01*
X178797628Y-101830524D01*
X178764651Y-101767481D01*
X178703242Y-101732510D01*
X178632678Y-101736293D01*
X178575311Y-101777660D01*
X178551219Y-101830415D01*
X178549590Y-101831575D01*
X178547771Y-101830744D01*
X178547400Y-101829584D01*
X178547400Y-100354406D01*
X178548400Y-100352674D01*
X178550400Y-100352674D01*
X178551172Y-100353479D01*
X178584148Y-100416520D01*
X178645557Y-100451491D01*
X178716121Y-100447709D01*
X178773488Y-100406344D01*
X178797581Y-100353588D01*
X178799210Y-100352428D01*
X178801029Y-100353259D01*
G37*
G36*
X177551029Y-100353256D02*
G01*
X177551400Y-100354416D01*
X177551400Y-101829594D01*
X177550400Y-101831326D01*
X177548400Y-101831326D01*
X177547628Y-101830521D01*
X177514652Y-101767480D01*
X177453243Y-101732509D01*
X177382679Y-101736291D01*
X177325312Y-101777656D01*
X177301219Y-101830412D01*
X177299590Y-101831572D01*
X177297771Y-101830741D01*
X177297400Y-101829581D01*
X177297400Y-100354403D01*
X177298400Y-100352671D01*
X177300400Y-100352671D01*
X177301172Y-100353476D01*
X177334149Y-100416519D01*
X177395558Y-100451490D01*
X177466122Y-100447707D01*
X177523489Y-100406340D01*
X177547581Y-100353585D01*
X177549210Y-100352425D01*
X177551029Y-100353256D01*
G37*
G36*
X159831829Y-98346659D02*
G01*
X159832200Y-98347819D01*
X159832200Y-99822997D01*
X159831200Y-99824729D01*
X159829200Y-99824729D01*
X159828428Y-99823924D01*
X159795451Y-99760881D01*
X159734042Y-99725910D01*
X159663478Y-99729693D01*
X159606111Y-99771060D01*
X159582019Y-99823815D01*
X159580390Y-99824975D01*
X159578571Y-99824144D01*
X159578200Y-99822984D01*
X159578200Y-98347806D01*
X159579200Y-98346074D01*
X159581200Y-98346074D01*
X159581972Y-98346879D01*
X159614948Y-98409920D01*
X159676357Y-98444891D01*
X159746921Y-98441109D01*
X159804288Y-98399744D01*
X159828381Y-98346988D01*
X159830010Y-98345828D01*
X159831829Y-98346659D01*
G37*
G36*
X158581829Y-98346656D02*
G01*
X158582200Y-98347816D01*
X158582200Y-99822994D01*
X158581200Y-99824726D01*
X158579200Y-99824726D01*
X158578428Y-99823921D01*
X158545452Y-99760880D01*
X158484043Y-99725909D01*
X158413479Y-99729691D01*
X158356112Y-99771056D01*
X158332019Y-99823812D01*
X158330390Y-99824972D01*
X158328571Y-99824141D01*
X158328200Y-99822981D01*
X158328200Y-98347803D01*
X158329200Y-98346071D01*
X158331200Y-98346071D01*
X158331972Y-98346876D01*
X158364949Y-98409919D01*
X158426358Y-98444890D01*
X158496922Y-98441107D01*
X158554289Y-98399740D01*
X158578381Y-98346985D01*
X158580010Y-98345825D01*
X158581829Y-98346656D01*
G37*
G36*
X179796229Y-97737059D02*
G01*
X179796600Y-97738219D01*
X179796600Y-99213397D01*
X179795600Y-99215129D01*
X179793600Y-99215129D01*
X179792828Y-99214324D01*
X179759851Y-99151281D01*
X179698442Y-99116310D01*
X179627878Y-99120093D01*
X179570511Y-99161460D01*
X179546419Y-99214215D01*
X179544790Y-99215375D01*
X179542971Y-99214544D01*
X179542600Y-99213384D01*
X179542600Y-97738206D01*
X179543600Y-97736474D01*
X179545600Y-97736474D01*
X179546372Y-97737279D01*
X179579348Y-97800320D01*
X179640757Y-97835291D01*
X179711321Y-97831509D01*
X179768688Y-97790144D01*
X179792781Y-97737388D01*
X179794410Y-97736228D01*
X179796229Y-97737059D01*
G37*
G36*
X178546229Y-97737056D02*
G01*
X178546600Y-97738216D01*
X178546600Y-99213394D01*
X178545600Y-99215126D01*
X178543600Y-99215126D01*
X178542828Y-99214321D01*
X178509852Y-99151280D01*
X178448443Y-99116309D01*
X178377879Y-99120091D01*
X178320512Y-99161456D01*
X178296419Y-99214212D01*
X178294790Y-99215372D01*
X178292971Y-99214541D01*
X178292600Y-99213381D01*
X178292600Y-97738203D01*
X178293600Y-97736471D01*
X178295600Y-97736471D01*
X178296372Y-97737276D01*
X178329349Y-97800319D01*
X178390758Y-97835290D01*
X178461322Y-97831507D01*
X178518689Y-97790140D01*
X178542781Y-97737385D01*
X178544410Y-97736225D01*
X178546229Y-97737056D01*
G37*
G36*
X178424629Y-95120859D02*
G01*
X178425000Y-95122019D01*
X178425000Y-96597197D01*
X178424000Y-96598929D01*
X178422000Y-96598929D01*
X178421228Y-96598124D01*
X178388251Y-96535081D01*
X178326842Y-96500110D01*
X178256278Y-96503893D01*
X178198911Y-96545260D01*
X178174819Y-96598015D01*
X178173190Y-96599175D01*
X178171371Y-96598344D01*
X178171000Y-96597184D01*
X178171000Y-95122006D01*
X178172000Y-95120274D01*
X178174000Y-95120274D01*
X178174772Y-95121079D01*
X178207748Y-95184120D01*
X178269157Y-95219091D01*
X178339721Y-95215309D01*
X178397088Y-95173944D01*
X178421181Y-95121188D01*
X178422810Y-95120028D01*
X178424629Y-95120859D01*
G37*
G36*
X177174629Y-95120856D02*
G01*
X177175000Y-95122016D01*
X177175000Y-96597194D01*
X177174000Y-96598926D01*
X177172000Y-96598926D01*
X177171228Y-96598121D01*
X177138252Y-96535080D01*
X177076843Y-96500109D01*
X177006279Y-96503891D01*
X176948912Y-96545256D01*
X176924819Y-96598012D01*
X176923190Y-96599172D01*
X176921371Y-96598341D01*
X176921000Y-96597181D01*
X176921000Y-95122003D01*
X176922000Y-95120271D01*
X176924000Y-95120271D01*
X176924772Y-95121076D01*
X176957749Y-95184119D01*
X177019158Y-95219090D01*
X177089722Y-95215307D01*
X177147089Y-95173940D01*
X177171181Y-95121185D01*
X177172810Y-95120025D01*
X177174629Y-95120856D01*
G37*
G36*
X183067324Y-93040000D02*
G01*
X183067324Y-93042000D01*
X183066519Y-93042772D01*
X183003479Y-93075747D01*
X182968508Y-93137155D01*
X182972290Y-93207719D01*
X183013655Y-93265086D01*
X183066413Y-93289181D01*
X183067573Y-93290810D01*
X183066742Y-93292629D01*
X183065582Y-93293000D01*
X181815408Y-93293000D01*
X181813676Y-93292000D01*
X181813676Y-93290000D01*
X181814481Y-93289228D01*
X181877521Y-93256253D01*
X181912492Y-93194845D01*
X181908710Y-93124281D01*
X181867345Y-93066914D01*
X181814587Y-93042819D01*
X181813427Y-93041190D01*
X181814258Y-93039371D01*
X181815418Y-93039000D01*
X183065592Y-93039000D01*
X183067324Y-93040000D01*
G37*
G36*
X177342324Y-93040000D02*
G01*
X177342324Y-93042000D01*
X177341519Y-93042772D01*
X177278479Y-93075747D01*
X177243508Y-93137155D01*
X177247290Y-93207719D01*
X177288655Y-93265086D01*
X177341413Y-93289181D01*
X177342573Y-93290810D01*
X177341742Y-93292629D01*
X177340582Y-93293000D01*
X176090408Y-93293000D01*
X176088676Y-93292000D01*
X176088676Y-93290000D01*
X176089481Y-93289228D01*
X176152521Y-93256253D01*
X176187492Y-93194845D01*
X176183710Y-93124281D01*
X176142345Y-93066914D01*
X176089587Y-93042819D01*
X176088427Y-93041190D01*
X176089258Y-93039371D01*
X176090418Y-93039000D01*
X177340592Y-93039000D01*
X177342324Y-93040000D01*
G37*
G36*
X183067324Y-92390000D02*
G01*
X183067324Y-92392000D01*
X183066519Y-92392772D01*
X183003479Y-92425747D01*
X182968508Y-92487155D01*
X182972290Y-92557719D01*
X183013655Y-92615086D01*
X183066413Y-92639181D01*
X183067573Y-92640810D01*
X183066742Y-92642629D01*
X183065582Y-92643000D01*
X181815408Y-92643000D01*
X181813676Y-92642000D01*
X181813676Y-92640000D01*
X181814481Y-92639228D01*
X181877521Y-92606253D01*
X181912492Y-92544845D01*
X181908710Y-92474281D01*
X181867345Y-92416914D01*
X181814587Y-92392819D01*
X181813427Y-92391190D01*
X181814258Y-92389371D01*
X181815418Y-92389000D01*
X183065592Y-92389000D01*
X183067324Y-92390000D01*
G37*
G36*
X177342324Y-92390000D02*
G01*
X177342324Y-92392000D01*
X177341519Y-92392772D01*
X177278479Y-92425747D01*
X177243508Y-92487155D01*
X177247290Y-92557719D01*
X177288655Y-92615086D01*
X177341413Y-92639181D01*
X177342573Y-92640810D01*
X177341742Y-92642629D01*
X177340582Y-92643000D01*
X176090408Y-92643000D01*
X176088676Y-92642000D01*
X176088676Y-92640000D01*
X176089481Y-92639228D01*
X176152521Y-92606253D01*
X176187492Y-92544845D01*
X176183710Y-92474281D01*
X176142345Y-92416914D01*
X176089587Y-92392819D01*
X176088427Y-92391190D01*
X176089258Y-92389371D01*
X176090418Y-92389000D01*
X177340592Y-92389000D01*
X177342324Y-92390000D01*
G37*
G36*
X177342324Y-91740000D02*
G01*
X177342324Y-91742000D01*
X177341519Y-91742772D01*
X177278479Y-91775747D01*
X177243508Y-91837155D01*
X177247290Y-91907719D01*
X177288655Y-91965086D01*
X177341413Y-91989181D01*
X177342573Y-91990810D01*
X177341742Y-91992629D01*
X177340582Y-91993000D01*
X176090408Y-91993000D01*
X176088676Y-91992000D01*
X176088676Y-91990000D01*
X176089481Y-91989228D01*
X176152521Y-91956253D01*
X176187492Y-91894845D01*
X176183710Y-91824281D01*
X176142345Y-91766914D01*
X176089587Y-91742819D01*
X176088427Y-91741190D01*
X176089258Y-91739371D01*
X176090418Y-91739000D01*
X177340592Y-91739000D01*
X177342324Y-91740000D01*
G37*
G36*
X183067324Y-91740000D02*
G01*
X183067324Y-91742000D01*
X183066519Y-91742772D01*
X183003479Y-91775747D01*
X182968508Y-91837155D01*
X182972290Y-91907719D01*
X183013655Y-91965086D01*
X183066413Y-91989181D01*
X183067573Y-91990810D01*
X183066742Y-91992629D01*
X183065582Y-91993000D01*
X181815408Y-91993000D01*
X181813676Y-91992000D01*
X181813676Y-91990000D01*
X181814481Y-91989228D01*
X181877521Y-91956253D01*
X181912492Y-91894845D01*
X181908710Y-91824281D01*
X181867345Y-91766914D01*
X181814587Y-91742819D01*
X181813427Y-91741190D01*
X181814258Y-91739371D01*
X181815418Y-91739000D01*
X183065592Y-91739000D01*
X183067324Y-91740000D01*
G37*
G36*
X177342324Y-91090000D02*
G01*
X177342324Y-91092000D01*
X177341519Y-91092772D01*
X177278479Y-91125747D01*
X177243508Y-91187155D01*
X177247290Y-91257719D01*
X177288655Y-91315086D01*
X177341413Y-91339181D01*
X177342573Y-91340810D01*
X177341742Y-91342629D01*
X177340582Y-91343000D01*
X176090408Y-91343000D01*
X176088676Y-91342000D01*
X176088676Y-91340000D01*
X176089481Y-91339228D01*
X176152521Y-91306253D01*
X176187492Y-91244845D01*
X176183710Y-91174281D01*
X176142345Y-91116914D01*
X176089587Y-91092819D01*
X176088427Y-91091190D01*
X176089258Y-91089371D01*
X176090418Y-91089000D01*
X177340592Y-91089000D01*
X177342324Y-91090000D01*
G37*
G36*
X183067324Y-91090000D02*
G01*
X183067324Y-91092000D01*
X183066519Y-91092772D01*
X183003479Y-91125747D01*
X182968508Y-91187155D01*
X182972290Y-91257719D01*
X183013655Y-91315086D01*
X183066413Y-91339181D01*
X183067573Y-91340810D01*
X183066742Y-91342629D01*
X183065582Y-91343000D01*
X181815408Y-91343000D01*
X181813676Y-91342000D01*
X181813676Y-91340000D01*
X181814481Y-91339228D01*
X181877521Y-91306253D01*
X181912492Y-91244845D01*
X181908710Y-91174281D01*
X181867345Y-91116914D01*
X181814587Y-91092819D01*
X181813427Y-91091190D01*
X181814258Y-91089371D01*
X181815418Y-91089000D01*
X183065592Y-91089000D01*
X183067324Y-91090000D01*
G37*
G36*
X177342324Y-90440000D02*
G01*
X177342324Y-90442000D01*
X177341519Y-90442772D01*
X177278479Y-90475747D01*
X177243508Y-90537155D01*
X177247290Y-90607719D01*
X177288655Y-90665086D01*
X177341413Y-90689181D01*
X177342573Y-90690810D01*
X177341742Y-90692629D01*
X177340582Y-90693000D01*
X176090408Y-90693000D01*
X176088676Y-90692000D01*
X176088676Y-90690000D01*
X176089481Y-90689228D01*
X176152521Y-90656253D01*
X176187492Y-90594845D01*
X176183710Y-90524281D01*
X176142345Y-90466914D01*
X176089587Y-90442819D01*
X176088427Y-90441190D01*
X176089258Y-90439371D01*
X176090418Y-90439000D01*
X177340592Y-90439000D01*
X177342324Y-90440000D01*
G37*
G36*
X183067324Y-90440000D02*
G01*
X183067324Y-90442000D01*
X183066519Y-90442772D01*
X183003479Y-90475747D01*
X182968508Y-90537155D01*
X182972290Y-90607719D01*
X183013655Y-90665086D01*
X183066413Y-90689181D01*
X183067573Y-90690810D01*
X183066742Y-90692629D01*
X183065582Y-90693000D01*
X181815408Y-90693000D01*
X181813676Y-90692000D01*
X181813676Y-90690000D01*
X181814481Y-90689228D01*
X181877521Y-90656253D01*
X181912492Y-90594845D01*
X181908710Y-90524281D01*
X181867345Y-90466914D01*
X181814587Y-90442819D01*
X181813427Y-90441190D01*
X181814258Y-90439371D01*
X181815418Y-90439000D01*
X183065592Y-90439000D01*
X183067324Y-90440000D01*
G37*
G36*
X183067324Y-89790000D02*
G01*
X183067324Y-89792000D01*
X183066519Y-89792772D01*
X183003479Y-89825747D01*
X182968508Y-89887155D01*
X182972290Y-89957719D01*
X183013655Y-90015086D01*
X183066413Y-90039181D01*
X183067573Y-90040810D01*
X183066742Y-90042629D01*
X183065582Y-90043000D01*
X181815408Y-90043000D01*
X181813676Y-90042000D01*
X181813676Y-90040000D01*
X181814481Y-90039228D01*
X181877521Y-90006253D01*
X181912492Y-89944845D01*
X181908710Y-89874281D01*
X181867345Y-89816914D01*
X181814587Y-89792819D01*
X181813427Y-89791190D01*
X181814258Y-89789371D01*
X181815418Y-89789000D01*
X183065592Y-89789000D01*
X183067324Y-89790000D01*
G37*
G36*
X177342324Y-89790000D02*
G01*
X177342324Y-89792000D01*
X177341519Y-89792772D01*
X177278479Y-89825747D01*
X177243508Y-89887155D01*
X177247290Y-89957719D01*
X177288655Y-90015086D01*
X177341413Y-90039181D01*
X177342573Y-90040810D01*
X177341742Y-90042629D01*
X177340582Y-90043000D01*
X176090408Y-90043000D01*
X176088676Y-90042000D01*
X176088676Y-90040000D01*
X176089481Y-90039228D01*
X176152521Y-90006253D01*
X176187492Y-89944845D01*
X176183710Y-89874281D01*
X176142345Y-89816914D01*
X176089587Y-89792819D01*
X176088427Y-89791190D01*
X176089258Y-89789371D01*
X176090418Y-89789000D01*
X177340592Y-89789000D01*
X177342324Y-89790000D01*
G37*
G36*
X183067324Y-89140000D02*
G01*
X183067324Y-89142000D01*
X183066519Y-89142772D01*
X183003479Y-89175747D01*
X182968508Y-89237155D01*
X182972290Y-89307719D01*
X183013655Y-89365086D01*
X183066413Y-89389181D01*
X183067573Y-89390810D01*
X183066742Y-89392629D01*
X183065582Y-89393000D01*
X181815408Y-89393000D01*
X181813676Y-89392000D01*
X181813676Y-89390000D01*
X181814481Y-89389228D01*
X181877521Y-89356253D01*
X181912492Y-89294845D01*
X181908710Y-89224281D01*
X181867345Y-89166914D01*
X181814587Y-89142819D01*
X181813427Y-89141190D01*
X181814258Y-89139371D01*
X181815418Y-89139000D01*
X183065592Y-89139000D01*
X183067324Y-89140000D01*
G37*
G36*
X177342324Y-89140000D02*
G01*
X177342324Y-89142000D01*
X177341519Y-89142772D01*
X177278479Y-89175747D01*
X177243508Y-89237155D01*
X177247290Y-89307719D01*
X177288655Y-89365086D01*
X177341413Y-89389181D01*
X177342573Y-89390810D01*
X177341742Y-89392629D01*
X177340582Y-89393000D01*
X176090408Y-89393000D01*
X176088676Y-89392000D01*
X176088676Y-89390000D01*
X176089481Y-89389228D01*
X176152521Y-89356253D01*
X176187492Y-89294845D01*
X176183710Y-89224281D01*
X176142345Y-89166914D01*
X176089587Y-89142819D01*
X176088427Y-89141190D01*
X176089258Y-89139371D01*
X176090418Y-89139000D01*
X177340592Y-89139000D01*
X177342324Y-89140000D01*
G37*
G36*
X183067324Y-88490000D02*
G01*
X183067324Y-88492000D01*
X183066519Y-88492772D01*
X183003479Y-88525747D01*
X182968508Y-88587155D01*
X182972290Y-88657719D01*
X183013655Y-88715086D01*
X183066413Y-88739181D01*
X183067573Y-88740810D01*
X183066742Y-88742629D01*
X183065582Y-88743000D01*
X181815408Y-88743000D01*
X181813676Y-88742000D01*
X181813676Y-88740000D01*
X181814481Y-88739228D01*
X181877521Y-88706253D01*
X181912492Y-88644845D01*
X181908710Y-88574281D01*
X181867345Y-88516914D01*
X181814587Y-88492819D01*
X181813427Y-88491190D01*
X181814258Y-88489371D01*
X181815418Y-88489000D01*
X183065592Y-88489000D01*
X183067324Y-88490000D01*
G37*
G36*
X177342324Y-88490000D02*
G01*
X177342324Y-88492000D01*
X177341519Y-88492772D01*
X177278479Y-88525747D01*
X177243508Y-88587155D01*
X177247290Y-88657719D01*
X177288655Y-88715086D01*
X177341413Y-88739181D01*
X177342573Y-88740810D01*
X177341742Y-88742629D01*
X177340582Y-88743000D01*
X176090408Y-88743000D01*
X176088676Y-88742000D01*
X176088676Y-88740000D01*
X176089481Y-88739228D01*
X176152521Y-88706253D01*
X176187492Y-88644845D01*
X176183710Y-88574281D01*
X176142345Y-88516914D01*
X176089587Y-88492819D01*
X176088427Y-88491190D01*
X176089258Y-88489371D01*
X176090418Y-88489000D01*
X177340592Y-88489000D01*
X177342324Y-88490000D01*
G37*
G36*
X183067324Y-87840000D02*
G01*
X183067324Y-87842000D01*
X183066519Y-87842772D01*
X183003479Y-87875747D01*
X182968508Y-87937155D01*
X182972290Y-88007719D01*
X183013655Y-88065086D01*
X183066413Y-88089181D01*
X183067573Y-88090810D01*
X183066742Y-88092629D01*
X183065582Y-88093000D01*
X181815408Y-88093000D01*
X181813676Y-88092000D01*
X181813676Y-88090000D01*
X181814481Y-88089228D01*
X181877521Y-88056253D01*
X181912492Y-87994845D01*
X181908710Y-87924281D01*
X181867345Y-87866914D01*
X181814587Y-87842819D01*
X181813427Y-87841190D01*
X181814258Y-87839371D01*
X181815418Y-87839000D01*
X183065592Y-87839000D01*
X183067324Y-87840000D01*
G37*
G36*
X177342324Y-87840000D02*
G01*
X177342324Y-87842000D01*
X177341519Y-87842772D01*
X177278479Y-87875747D01*
X177243508Y-87937155D01*
X177247290Y-88007719D01*
X177288655Y-88065086D01*
X177341413Y-88089181D01*
X177342573Y-88090810D01*
X177341742Y-88092629D01*
X177340582Y-88093000D01*
X176090408Y-88093000D01*
X176088676Y-88092000D01*
X176088676Y-88090000D01*
X176089481Y-88089228D01*
X176152521Y-88056253D01*
X176187492Y-87994845D01*
X176183710Y-87924281D01*
X176142345Y-87866914D01*
X176089587Y-87842819D01*
X176088427Y-87841190D01*
X176089258Y-87839371D01*
X176090418Y-87839000D01*
X177340592Y-87839000D01*
X177342324Y-87840000D01*
G37*
G36*
X183067324Y-87190000D02*
G01*
X183067324Y-87192000D01*
X183066519Y-87192772D01*
X183003479Y-87225747D01*
X182968508Y-87287155D01*
X182972290Y-87357719D01*
X183013655Y-87415086D01*
X183066413Y-87439181D01*
X183067573Y-87440810D01*
X183066742Y-87442629D01*
X183065582Y-87443000D01*
X181815408Y-87443000D01*
X181813676Y-87442000D01*
X181813676Y-87440000D01*
X181814481Y-87439228D01*
X181877521Y-87406253D01*
X181912492Y-87344845D01*
X181908710Y-87274281D01*
X181867345Y-87216914D01*
X181814587Y-87192819D01*
X181813427Y-87191190D01*
X181814258Y-87189371D01*
X181815418Y-87189000D01*
X183065592Y-87189000D01*
X183067324Y-87190000D01*
G37*
G36*
X177342324Y-87190000D02*
G01*
X177342324Y-87192000D01*
X177341519Y-87192772D01*
X177278479Y-87225747D01*
X177243508Y-87287155D01*
X177247290Y-87357719D01*
X177288655Y-87415086D01*
X177341413Y-87439181D01*
X177342573Y-87440810D01*
X177341742Y-87442629D01*
X177340582Y-87443000D01*
X176090408Y-87443000D01*
X176088676Y-87442000D01*
X176088676Y-87440000D01*
X176089481Y-87439228D01*
X176152521Y-87406253D01*
X176187492Y-87344845D01*
X176183710Y-87274281D01*
X176142345Y-87216914D01*
X176089587Y-87192819D01*
X176088427Y-87191190D01*
X176089258Y-87189371D01*
X176090418Y-87189000D01*
X177340592Y-87189000D01*
X177342324Y-87190000D01*
G37*
G36*
X177342324Y-86540000D02*
G01*
X177342324Y-86542000D01*
X177341519Y-86542772D01*
X177278479Y-86575747D01*
X177243508Y-86637155D01*
X177247290Y-86707719D01*
X177288655Y-86765086D01*
X177341413Y-86789181D01*
X177342573Y-86790810D01*
X177341742Y-86792629D01*
X177340582Y-86793000D01*
X176090408Y-86793000D01*
X176088676Y-86792000D01*
X176088676Y-86790000D01*
X176089481Y-86789228D01*
X176152521Y-86756253D01*
X176187492Y-86694845D01*
X176183710Y-86624281D01*
X176142345Y-86566914D01*
X176089587Y-86542819D01*
X176088427Y-86541190D01*
X176089258Y-86539371D01*
X176090418Y-86539000D01*
X177340592Y-86539000D01*
X177342324Y-86540000D01*
G37*
G36*
X183067324Y-86540000D02*
G01*
X183067324Y-86542000D01*
X183066519Y-86542772D01*
X183003479Y-86575747D01*
X182968508Y-86637155D01*
X182972290Y-86707719D01*
X183013655Y-86765086D01*
X183066413Y-86789181D01*
X183067573Y-86790810D01*
X183066742Y-86792629D01*
X183065582Y-86793000D01*
X181815408Y-86793000D01*
X181813676Y-86792000D01*
X181813676Y-86790000D01*
X181814481Y-86789228D01*
X181877521Y-86756253D01*
X181912492Y-86694845D01*
X181908710Y-86624281D01*
X181867345Y-86566914D01*
X181814587Y-86542819D01*
X181813427Y-86541190D01*
X181814258Y-86539371D01*
X181815418Y-86539000D01*
X183065592Y-86539000D01*
X183067324Y-86540000D01*
G37*
G36*
X115687605Y-83974000D02*
G01*
X115687605Y-83976000D01*
X115686437Y-83976919D01*
X115618072Y-83997008D01*
X115571756Y-84050481D01*
X115560354Y-84102919D01*
X115559009Y-84104399D01*
X115557055Y-84103974D01*
X115556400Y-84102494D01*
X115556400Y-83977500D01*
X115360400Y-83977500D01*
X115360400Y-84102498D01*
X115359400Y-84104230D01*
X115357400Y-84104230D01*
X115356481Y-84103061D01*
X115336407Y-84034695D01*
X115282942Y-83988367D01*
X115230476Y-83976954D01*
X115228996Y-83975609D01*
X115229421Y-83973655D01*
X115230901Y-83973000D01*
X115685873Y-83973000D01*
X115687605Y-83974000D01*
G37*
G36*
X116147627Y-83974000D02*
G01*
X116147627Y-83976000D01*
X116146458Y-83976919D01*
X116078094Y-83996992D01*
X116031766Y-84050457D01*
X116020354Y-84102918D01*
X116019009Y-84104398D01*
X116017055Y-84103973D01*
X116016400Y-84102493D01*
X116016400Y-83977500D01*
X115820400Y-83977500D01*
X115820400Y-84102498D01*
X115819400Y-84104230D01*
X115817400Y-84104230D01*
X115816481Y-84103061D01*
X115796407Y-84034694D01*
X115742942Y-83988367D01*
X115690456Y-83976954D01*
X115688976Y-83975609D01*
X115689401Y-83973655D01*
X115690881Y-83973000D01*
X116145895Y-83973000D01*
X116147627Y-83974000D01*
G37*
G36*
X125378919Y-83533963D02*
G01*
X125399008Y-83602328D01*
X125452481Y-83648644D01*
X125504919Y-83660046D01*
X125506399Y-83661391D01*
X125505974Y-83663345D01*
X125504494Y-83664000D01*
X125379500Y-83664000D01*
X125379500Y-83860000D01*
X125504499Y-83860000D01*
X125506231Y-83861000D01*
X125506231Y-83863000D01*
X125505062Y-83863919D01*
X125436695Y-83883993D01*
X125390367Y-83937458D01*
X125378954Y-83989923D01*
X125377609Y-83991403D01*
X125375655Y-83990978D01*
X125375000Y-83989498D01*
X125375000Y-83534527D01*
X125376000Y-83532795D01*
X125378000Y-83532795D01*
X125378919Y-83533963D01*
G37*
G36*
X122528345Y-83533001D02*
G01*
X122529000Y-83534481D01*
X122529000Y-83989495D01*
X122528000Y-83991227D01*
X122526000Y-83991227D01*
X122525081Y-83990058D01*
X122505008Y-83921694D01*
X122451543Y-83875366D01*
X122399082Y-83863954D01*
X122397602Y-83862609D01*
X122398027Y-83860655D01*
X122399507Y-83860000D01*
X122524500Y-83860000D01*
X122524500Y-83664000D01*
X122399502Y-83664000D01*
X122397770Y-83663000D01*
X122397770Y-83661000D01*
X122398939Y-83660081D01*
X122467306Y-83640007D01*
X122513633Y-83586542D01*
X122525046Y-83534056D01*
X122526391Y-83532576D01*
X122528345Y-83533001D01*
G37*
G36*
X125378919Y-83073942D02*
G01*
X125398992Y-83142306D01*
X125452457Y-83188634D01*
X125504918Y-83200046D01*
X125506398Y-83201391D01*
X125505973Y-83203345D01*
X125504493Y-83204000D01*
X125379500Y-83204000D01*
X125379500Y-83400000D01*
X125504498Y-83400000D01*
X125506230Y-83401000D01*
X125506230Y-83403000D01*
X125505061Y-83403919D01*
X125436694Y-83423993D01*
X125390367Y-83477458D01*
X125378954Y-83529944D01*
X125377609Y-83531424D01*
X125375655Y-83530999D01*
X125375000Y-83529519D01*
X125375000Y-83074505D01*
X125376000Y-83072773D01*
X125378000Y-83072773D01*
X125378919Y-83073942D01*
G37*
G36*
X122528345Y-83073022D02*
G01*
X122529000Y-83074502D01*
X122529000Y-83529473D01*
X122528000Y-83531205D01*
X122526000Y-83531205D01*
X122525081Y-83530037D01*
X122504992Y-83461672D01*
X122451519Y-83415356D01*
X122399081Y-83403954D01*
X122397601Y-83402609D01*
X122398026Y-83400655D01*
X122399506Y-83400000D01*
X122524500Y-83400000D01*
X122524500Y-83204000D01*
X122399501Y-83204000D01*
X122397769Y-83203000D01*
X122397769Y-83201000D01*
X122398938Y-83200081D01*
X122467305Y-83180007D01*
X122513633Y-83126542D01*
X122525046Y-83074077D01*
X122526391Y-83072597D01*
X122528345Y-83073022D01*
G37*
G36*
X159552429Y-81557259D02*
G01*
X159552800Y-81558419D01*
X159552800Y-83033597D01*
X159551800Y-83035329D01*
X159549800Y-83035329D01*
X159549028Y-83034524D01*
X159516051Y-82971481D01*
X159454642Y-82936510D01*
X159384078Y-82940293D01*
X159326711Y-82981660D01*
X159302619Y-83034415D01*
X159300990Y-83035575D01*
X159299171Y-83034744D01*
X159298800Y-83033584D01*
X159298800Y-81558406D01*
X159299800Y-81556674D01*
X159301800Y-81556674D01*
X159302572Y-81557479D01*
X159335548Y-81620520D01*
X159396957Y-81655491D01*
X159467521Y-81651709D01*
X159524888Y-81610344D01*
X159548981Y-81557588D01*
X159550610Y-81556428D01*
X159552429Y-81557259D01*
G37*
G36*
X158302429Y-81557256D02*
G01*
X158302800Y-81558416D01*
X158302800Y-83033594D01*
X158301800Y-83035326D01*
X158299800Y-83035326D01*
X158299028Y-83034521D01*
X158266052Y-82971480D01*
X158204643Y-82936509D01*
X158134079Y-82940291D01*
X158076712Y-82981656D01*
X158052619Y-83034412D01*
X158050990Y-83035572D01*
X158049171Y-83034741D01*
X158048800Y-83033581D01*
X158048800Y-81558403D01*
X158049800Y-81556671D01*
X158051800Y-81556671D01*
X158052572Y-81557476D01*
X158085549Y-81620519D01*
X158146958Y-81655490D01*
X158217522Y-81651707D01*
X158274889Y-81610340D01*
X158298981Y-81557585D01*
X158300610Y-81556425D01*
X158302429Y-81557256D01*
G37*
G36*
X154828029Y-80896859D02*
G01*
X154828400Y-80898019D01*
X154828400Y-82373197D01*
X154827400Y-82374929D01*
X154825400Y-82374929D01*
X154824628Y-82374124D01*
X154791651Y-82311081D01*
X154730242Y-82276110D01*
X154659678Y-82279893D01*
X154602311Y-82321260D01*
X154578219Y-82374015D01*
X154576590Y-82375175D01*
X154574771Y-82374344D01*
X154574400Y-82373184D01*
X154574400Y-80898006D01*
X154575400Y-80896274D01*
X154577400Y-80896274D01*
X154578172Y-80897079D01*
X154611148Y-80960120D01*
X154672557Y-80995091D01*
X154743121Y-80991309D01*
X154800488Y-80949944D01*
X154824581Y-80897188D01*
X154826210Y-80896028D01*
X154828029Y-80896859D01*
G37*
G36*
X153578029Y-80896856D02*
G01*
X153578400Y-80898016D01*
X153578400Y-82373194D01*
X153577400Y-82374926D01*
X153575400Y-82374926D01*
X153574628Y-82374121D01*
X153541652Y-82311080D01*
X153480243Y-82276109D01*
X153409679Y-82279891D01*
X153352312Y-82321256D01*
X153328219Y-82374012D01*
X153326590Y-82375172D01*
X153324771Y-82374341D01*
X153324400Y-82373181D01*
X153324400Y-80898003D01*
X153325400Y-80896271D01*
X153327400Y-80896271D01*
X153328172Y-80897076D01*
X153361149Y-80960119D01*
X153422558Y-80995090D01*
X153493122Y-80991307D01*
X153550489Y-80949940D01*
X153574581Y-80897185D01*
X153576210Y-80896025D01*
X153578029Y-80896856D01*
G37*
G36*
X212541629Y-80347259D02*
G01*
X212542000Y-80348419D01*
X212542000Y-81823594D01*
X212541000Y-81825326D01*
X212539000Y-81825326D01*
X212538228Y-81824521D01*
X212505252Y-81761480D01*
X212443843Y-81726509D01*
X212373279Y-81730291D01*
X212315912Y-81771656D01*
X212291819Y-81824412D01*
X212290190Y-81825572D01*
X212288371Y-81824741D01*
X212288000Y-81823581D01*
X212288000Y-80348406D01*
X212289000Y-80346674D01*
X212291000Y-80346674D01*
X212291772Y-80347479D01*
X212324748Y-80410520D01*
X212386157Y-80445491D01*
X212456721Y-80441709D01*
X212514088Y-80400344D01*
X212538181Y-80347588D01*
X212539810Y-80346428D01*
X212541629Y-80347259D01*
G37*
G36*
X211891629Y-80347259D02*
G01*
X211892000Y-80348419D01*
X211892000Y-81823594D01*
X211891000Y-81825326D01*
X211889000Y-81825326D01*
X211888228Y-81824521D01*
X211855252Y-81761480D01*
X211793843Y-81726509D01*
X211723279Y-81730291D01*
X211665912Y-81771656D01*
X211641819Y-81824412D01*
X211640190Y-81825572D01*
X211638371Y-81824741D01*
X211638000Y-81823581D01*
X211638000Y-80348406D01*
X211639000Y-80346674D01*
X211641000Y-80346674D01*
X211641772Y-80347479D01*
X211674748Y-80410520D01*
X211736157Y-80445491D01*
X211806721Y-80441709D01*
X211864088Y-80400344D01*
X211888181Y-80347588D01*
X211889810Y-80346428D01*
X211891629Y-80347259D01*
G37*
G36*
X115359745Y-80996027D02*
G01*
X115360400Y-80997507D01*
X115360400Y-81122500D01*
X115556400Y-81122500D01*
X115556400Y-80997502D01*
X115557400Y-80995770D01*
X115559400Y-80995770D01*
X115560319Y-80996939D01*
X115580393Y-81065306D01*
X115633858Y-81111633D01*
X115686344Y-81123046D01*
X115687824Y-81124391D01*
X115687399Y-81126345D01*
X115685919Y-81127000D01*
X115230905Y-81127000D01*
X115229173Y-81126000D01*
X115229173Y-81124000D01*
X115230342Y-81123081D01*
X115298706Y-81103008D01*
X115345034Y-81049543D01*
X115356446Y-80997082D01*
X115357791Y-80995602D01*
X115359745Y-80996027D01*
G37*
G36*
X115819745Y-80996026D02*
G01*
X115820400Y-80997506D01*
X115820400Y-81122500D01*
X116016400Y-81122500D01*
X116016400Y-80997502D01*
X116017400Y-80995770D01*
X116019400Y-80995770D01*
X116020319Y-80996939D01*
X116040393Y-81065305D01*
X116093858Y-81111633D01*
X116146324Y-81123046D01*
X116147804Y-81124391D01*
X116147379Y-81126345D01*
X116145899Y-81127000D01*
X115690927Y-81127000D01*
X115689195Y-81126000D01*
X115689195Y-81124000D01*
X115690363Y-81123081D01*
X115758728Y-81102992D01*
X115805044Y-81049519D01*
X115816446Y-80997081D01*
X115817791Y-80995601D01*
X115819745Y-80996026D01*
G37*
G36*
X211891629Y-77687259D02*
G01*
X211892000Y-77688419D01*
X211892000Y-79163594D01*
X211891000Y-79165326D01*
X211889000Y-79165326D01*
X211888228Y-79164521D01*
X211855252Y-79101480D01*
X211793843Y-79066509D01*
X211723279Y-79070291D01*
X211665912Y-79111656D01*
X211641819Y-79164412D01*
X211640190Y-79165572D01*
X211638371Y-79164741D01*
X211638000Y-79163581D01*
X211638000Y-77688406D01*
X211639000Y-77686674D01*
X211641000Y-77686674D01*
X211641772Y-77687479D01*
X211674748Y-77750520D01*
X211736157Y-77785491D01*
X211806721Y-77781709D01*
X211864088Y-77740344D01*
X211888181Y-77687588D01*
X211889810Y-77686428D01*
X211891629Y-77687259D01*
G37*
G36*
X212541629Y-77687259D02*
G01*
X212542000Y-77688419D01*
X212542000Y-79163594D01*
X212541000Y-79165326D01*
X212539000Y-79165326D01*
X212538228Y-79164521D01*
X212505252Y-79101480D01*
X212443843Y-79066509D01*
X212373279Y-79070291D01*
X212315912Y-79111656D01*
X212291819Y-79164412D01*
X212290190Y-79165572D01*
X212288371Y-79164741D01*
X212288000Y-79163581D01*
X212288000Y-77688406D01*
X212289000Y-77686674D01*
X212291000Y-77686674D01*
X212291772Y-77687479D01*
X212324748Y-77750520D01*
X212386157Y-77785491D01*
X212456721Y-77781709D01*
X212514088Y-77740344D01*
X212538181Y-77687588D01*
X212539810Y-77686428D01*
X212541629Y-77687259D01*
G37*
G36*
X204634326Y-76653000D02*
G01*
X204634326Y-76655000D01*
X204633521Y-76655772D01*
X204570480Y-76688748D01*
X204535509Y-76750157D01*
X204539291Y-76820721D01*
X204580656Y-76878088D01*
X204633412Y-76902181D01*
X204634572Y-76903810D01*
X204633741Y-76905629D01*
X204632581Y-76906000D01*
X203157406Y-76906000D01*
X203155674Y-76905000D01*
X203155674Y-76903000D01*
X203156479Y-76902228D01*
X203219520Y-76869252D01*
X203254491Y-76807843D01*
X203250709Y-76737279D01*
X203209344Y-76679912D01*
X203156588Y-76655819D01*
X203155428Y-76654190D01*
X203156259Y-76652371D01*
X203157419Y-76652000D01*
X204632594Y-76652000D01*
X204634326Y-76653000D01*
G37*
G36*
X201974326Y-76653000D02*
G01*
X201974326Y-76655000D01*
X201973521Y-76655772D01*
X201910480Y-76688748D01*
X201875509Y-76750157D01*
X201879291Y-76820721D01*
X201920656Y-76878088D01*
X201973412Y-76902181D01*
X201974572Y-76903810D01*
X201973741Y-76905629D01*
X201972581Y-76906000D01*
X200497406Y-76906000D01*
X200495674Y-76905000D01*
X200495674Y-76903000D01*
X200496479Y-76902228D01*
X200559520Y-76869252D01*
X200594491Y-76807843D01*
X200590709Y-76737279D01*
X200549344Y-76679912D01*
X200496588Y-76655819D01*
X200495428Y-76654190D01*
X200496259Y-76652371D01*
X200497419Y-76652000D01*
X201972594Y-76652000D01*
X201974326Y-76653000D01*
G37*
G36*
X204634326Y-76003000D02*
G01*
X204634326Y-76005000D01*
X204633521Y-76005772D01*
X204570480Y-76038748D01*
X204535509Y-76100157D01*
X204539291Y-76170721D01*
X204580656Y-76228088D01*
X204633412Y-76252181D01*
X204634572Y-76253810D01*
X204633741Y-76255629D01*
X204632581Y-76256000D01*
X203157406Y-76256000D01*
X203155674Y-76255000D01*
X203155674Y-76253000D01*
X203156479Y-76252228D01*
X203219520Y-76219252D01*
X203254491Y-76157843D01*
X203250709Y-76087279D01*
X203209344Y-76029912D01*
X203156588Y-76005819D01*
X203155428Y-76004190D01*
X203156259Y-76002371D01*
X203157419Y-76002000D01*
X204632594Y-76002000D01*
X204634326Y-76003000D01*
G37*
G36*
X201974326Y-76003000D02*
G01*
X201974326Y-76005000D01*
X201973521Y-76005772D01*
X201910480Y-76038748D01*
X201875509Y-76100157D01*
X201879291Y-76170721D01*
X201920656Y-76228088D01*
X201973412Y-76252181D01*
X201974572Y-76253810D01*
X201973741Y-76255629D01*
X201972581Y-76256000D01*
X200497406Y-76256000D01*
X200495674Y-76255000D01*
X200495674Y-76253000D01*
X200496479Y-76252228D01*
X200559520Y-76219252D01*
X200594491Y-76157843D01*
X200590709Y-76087279D01*
X200549344Y-76029912D01*
X200496588Y-76005819D01*
X200495428Y-76004190D01*
X200496259Y-76002371D01*
X200497419Y-76002000D01*
X201972594Y-76002000D01*
X201974326Y-76003000D01*
G37*
G36*
X211002629Y-71965259D02*
G01*
X211003000Y-71966419D01*
X211003000Y-73441594D01*
X211002000Y-73443326D01*
X211000000Y-73443326D01*
X210999228Y-73442521D01*
X210966252Y-73379480D01*
X210904843Y-73344509D01*
X210834279Y-73348291D01*
X210776912Y-73389656D01*
X210752819Y-73442412D01*
X210751190Y-73443572D01*
X210749371Y-73442741D01*
X210749000Y-73441581D01*
X210749000Y-71966406D01*
X210750000Y-71964674D01*
X210752000Y-71964674D01*
X210752772Y-71965479D01*
X210785748Y-72028520D01*
X210847157Y-72063491D01*
X210917721Y-72059709D01*
X210975088Y-72018344D01*
X210999181Y-71965588D01*
X211000810Y-71964428D01*
X211002629Y-71965259D01*
G37*
G36*
X211652629Y-71965259D02*
G01*
X211653000Y-71966419D01*
X211653000Y-73441594D01*
X211652000Y-73443326D01*
X211650000Y-73443326D01*
X211649228Y-73442521D01*
X211616252Y-73379480D01*
X211554843Y-73344509D01*
X211484279Y-73348291D01*
X211426912Y-73389656D01*
X211402819Y-73442412D01*
X211401190Y-73443572D01*
X211399371Y-73442741D01*
X211399000Y-73441581D01*
X211399000Y-71966406D01*
X211400000Y-71964674D01*
X211402000Y-71964674D01*
X211402772Y-71965479D01*
X211435748Y-72028520D01*
X211497157Y-72063491D01*
X211567721Y-72059709D01*
X211625088Y-72018344D01*
X211649181Y-71965588D01*
X211650810Y-71964428D01*
X211652629Y-71965259D01*
G37*
G36*
X211652629Y-69305259D02*
G01*
X211653000Y-69306419D01*
X211653000Y-70781594D01*
X211652000Y-70783326D01*
X211650000Y-70783326D01*
X211649228Y-70782521D01*
X211616252Y-70719480D01*
X211554843Y-70684509D01*
X211484279Y-70688291D01*
X211426912Y-70729656D01*
X211402819Y-70782412D01*
X211401190Y-70783572D01*
X211399371Y-70782741D01*
X211399000Y-70781581D01*
X211399000Y-69306406D01*
X211400000Y-69304674D01*
X211402000Y-69304674D01*
X211402772Y-69305479D01*
X211435748Y-69368520D01*
X211497157Y-69403491D01*
X211567721Y-69399709D01*
X211625088Y-69358344D01*
X211649181Y-69305588D01*
X211650810Y-69304428D01*
X211652629Y-69305259D01*
G37*
G36*
X211002629Y-69305259D02*
G01*
X211003000Y-69306419D01*
X211003000Y-70781594D01*
X211002000Y-70783326D01*
X211000000Y-70783326D01*
X210999228Y-70782521D01*
X210966252Y-70719480D01*
X210904843Y-70684509D01*
X210834279Y-70688291D01*
X210776912Y-70729656D01*
X210752819Y-70782412D01*
X210751190Y-70783572D01*
X210749371Y-70782741D01*
X210749000Y-70781581D01*
X210749000Y-69306406D01*
X210750000Y-69304674D01*
X210752000Y-69304674D01*
X210752772Y-69305479D01*
X210785748Y-69368520D01*
X210847157Y-69403491D01*
X210917721Y-69399709D01*
X210975088Y-69358344D01*
X210999181Y-69305588D01*
X211000810Y-69304428D01*
X211002629Y-69305259D01*
G37*
M02*
