%TF.GenerationSoftware,KiCad,Pcbnew,(6.0.9)*%
%TF.CreationDate,2022-11-25T15:53:45+02:00*%
%TF.ProjectId,Bird_detector_V1,42697264-5f64-4657-9465-63746f725f56,rev?*%
%TF.SameCoordinates,Original*%
%TF.FileFunction,Profile,NP*%
%FSLAX46Y46*%
G04 Gerber Fmt 4.6, Leading zero omitted, Abs format (unit mm)*
G04 Created by KiCad (PCBNEW (6.0.9)) date 2022-11-25 15:53:45*
%MOMM*%
%LPD*%
G01*
G04 APERTURE LIST*
%TA.AperFunction,Profile*%
%ADD10C,0.100000*%
%TD*%
%TA.AperFunction,Profile*%
%ADD11C,0.120000*%
%TD*%
G04 APERTURE END LIST*
D10*
X186000000Y-136000000D02*
X198000000Y-124000000D01*
X91500000Y-69000000D02*
X91500000Y-80000000D01*
X95151800Y-91338400D02*
X95177200Y-84491200D01*
X146253200Y-130683000D02*
X163855400Y-130683000D01*
X163855400Y-130683000D02*
X163855400Y-136220200D01*
X163855400Y-136220200D02*
X146253200Y-136220200D01*
X146253200Y-136220200D02*
X146253200Y-130683000D01*
X107289600Y-82600800D02*
X107289600Y-102000000D01*
X104021800Y-91333000D02*
X104047200Y-84485800D01*
X91500000Y-80000000D02*
G75*
G03*
X93000000Y-82000000I1750000J-250000D01*
G01*
X100000000Y-61999995D02*
G75*
G03*
X91500000Y-69000000I-78860J-8564955D01*
G01*
X95168400Y-100333800D02*
X104038400Y-100333800D01*
X91500000Y-130750000D02*
G75*
G03*
X99250000Y-138000000I7563800J318200D01*
G01*
X95151800Y-93838400D02*
X95168400Y-100333800D01*
X200000005Y-123000022D02*
G75*
G03*
X198000000Y-124000000I865995J-4232078D01*
G01*
X218000000Y-123000000D02*
X218000000Y-69000000D01*
X93000000Y-103500000D02*
X106000000Y-103500000D01*
X106324400Y-81985800D02*
X107289600Y-82600800D01*
X181000000Y-138000013D02*
G75*
G03*
X186000000Y-136000000I-247500J7868713D01*
G01*
X104047200Y-81985800D02*
X106324400Y-81985800D01*
X99250000Y-138000000D02*
X181000000Y-138000000D01*
X104021800Y-93833000D02*
X104038400Y-100333800D01*
X91500000Y-130750000D02*
X91500000Y-105000000D01*
X105999998Y-103499995D02*
G75*
G03*
X107289600Y-102000000I-654198J1866795D01*
G01*
X93000000Y-82000000D02*
X95177200Y-81991200D01*
X218000000Y-123000000D02*
X200000000Y-123000000D01*
X218000023Y-68999996D02*
G75*
G03*
X210000000Y-62000000I-8171123J-1267004D01*
G01*
X210000000Y-62000000D02*
X100000000Y-62000000D01*
X93000000Y-103500000D02*
G75*
G03*
X91500000Y-105000000I143800J-1643800D01*
G01*
D11*
%TO.C,FID11*%
X95151800Y-93838400D02*
G75*
G03*
X95151800Y-91338400I0J1250000D01*
G01*
X104021800Y-91333000D02*
G75*
G03*
X104021800Y-93833000I0J-1250000D01*
G01*
%TO.C,FID12*%
X104047200Y-81985800D02*
G75*
G03*
X104047200Y-84485800I0J-1250000D01*
G01*
X95177200Y-84491200D02*
G75*
G03*
X95177200Y-81991200I0J1250000D01*
G01*
%TD*%
M02*
