M48
; DRILL file {KiCad (6.0.9)} date Wed Nov 23 10:46:46 2022
; FORMAT={-:-/ absolute / metric / decimal}
; #@! TF.CreationDate,2022-11-23T10:46:46+02:00
; #@! TF.GenerationSoftware,Kicad,Pcbnew,(6.0.9)
; #@! TF.FileFunction,Plated,1,4,PTH
FMAT,2
METRIC
; #@! TA.AperFunction,Plated,PTH,ViaDrill
T1C0.200
; #@! TA.AperFunction,Plated,PTH,ComponentDrill
T2C0.200
; #@! TA.AperFunction,Plated,PTH,ViaDrill
T3C0.300
; #@! TA.AperFunction,Plated,PTH,ViaDrill
T4C0.400
; #@! TA.AperFunction,Plated,PTH,ComponentDrill
T5C0.850
; #@! TA.AperFunction,Plated,PTH,ComponentDrill
T6C0.900
; #@! TA.AperFunction,Plated,PTH,ComponentDrill
T7C1.000
; #@! TA.AperFunction,Plated,PTH,ComponentDrill
T8C1.320
; #@! TA.AperFunction,Plated,PTH,ComponentDrill
T9C1.500
; #@! TA.AperFunction,Plated,PTH,ComponentDrill
T10C1.700
; #@! TA.AperFunction,Plated,PTH,ComponentDrill
T11C2.300
; #@! TA.AperFunction,Plated,PTH,ComponentDrill
T12C2.380
; #@! TA.AperFunction,Plated,PTH,ComponentDrill
T13C3.200
%
G90
G05
T1
X96.037Y-87.808
X96.495Y-97.282
X97.739Y-87.468
X97.765Y-96.926
X99.289Y-99.505
X99.67Y-94.996
X99.67Y-98.679
X99.771Y-90.399
X99.797Y-85.344
X99.847Y-89.179
X99.898Y-87.579
X99.924Y-96.952
X101.676Y-87.732
X101.676Y-97.46
X102.768Y-87.554
X103.206Y-97.13
X131.674Y-103.327
X131.674Y-104.8
X131.674Y-106.045
X132.715Y-101.625
X132.715Y-103.099
X132.715Y-104.343
X134.163Y-100.533
X134.163Y-101.778
X134.163Y-103.099
X134.188Y-104.8
X134.188Y-105.842
X135.433Y-104.8
X135.433Y-105.842
X135.509Y-98.577
X136.322Y-99.238
X136.804Y-100.127
X136.83Y-101.879
X136.83Y-103.124
X136.83Y-104.445
X136.83Y-105.715
X136.906Y-98.45
X137.719Y-99.543
X137.871Y-100.99
X137.998Y-98.628
X137.998Y-101.981
X137.998Y-103.226
X137.998Y-104.546
X137.998Y-105.816
X154.356Y-104.343
X157.607Y-104.572
X158.877Y-105.842
X159.842Y-105.893
X161.188Y-106.832
X161.595Y-96.952
X161.646Y-103.988
X162.763Y-98.476
X162.941Y-106.832
X197.79Y-113.995
T2
X154.524Y-85.716
X154.524Y-86.691
X154.524Y-87.666
X155.499Y-85.716
X155.499Y-86.691
X155.499Y-87.666
X156.474Y-85.716
X156.474Y-86.691
X156.474Y-87.666
T3
X92.304Y-111.76
X92.304Y-113.944
X92.304Y-115.976
X92.331Y-123.884
X92.352Y-109.868
X92.359Y-118.363
X92.387Y-120.86
X92.405Y-73.355
X92.431Y-71.857
X92.431Y-75.667
X92.431Y-76.987
X92.431Y-78.435
X92.431Y-79.756
X92.481Y-129.388
X92.507Y-126.619
X92.507Y-127.94
X92.507Y-130.785
X92.507Y-132.105
X92.583Y-68.682
X92.583Y-70.002
X92.71Y-106.451
X92.71Y-107.772
X93.146Y-66.869
X93.523Y-133.934
X93.624Y-104.851
X93.751Y-71.857
X93.751Y-73.177
X93.751Y-74.905
X93.751Y-76.225
X93.751Y-77.673
X93.751Y-78.994
X94.132Y-113.69
X94.132Y-134.899
X94.158Y-111.023
X94.158Y-115.824
X94.183Y-107.239
X94.209Y-68.631
X94.209Y-69.952
X94.234Y-65.659
X94.234Y-66.98
X94.412Y-122.479
X95.051Y-124.578
X95.174Y-71.247
X95.25Y-77.673
X95.25Y-78.994
X95.326Y-104.851
X95.326Y-106.172
X95.464Y-64.269
X95.733Y-68.631
X95.733Y-69.952
X95.758Y-65.659
X95.758Y-66.98
X96.342Y-122.86
X96.588Y-113.728
X96.647Y-111.1
X96.749Y-116.103
X96.774Y-77.673
X96.774Y-78.994
X97.053Y-64.211
X97.053Y-136.931
X97.384Y-65.608
X97.384Y-66.929
X97.688Y-105.359
X97.815Y-69.85
X97.819Y-63.144
X98.044Y-110.693
X98.044Y-111.785
X98.069Y-112.903
X98.069Y-113.944
X98.171Y-109.245
X98.273Y-75.971
X98.298Y-77.597
X98.298Y-78.918
X98.323Y-74.6
X98.374Y-71.704
X98.4Y-73.076
X98.628Y-136.881
X98.781Y-68.656
X98.882Y-64.186
X98.908Y-65.608
X98.908Y-66.929
X99.06Y-62.992
X99.136Y-69.901
X99.517Y-110.693
X99.517Y-111.785
X99.543Y-112.903
X99.543Y-113.944
X99.568Y-108.306
X99.822Y-77.597
X99.822Y-78.918
X99.949Y-67.564
X100.279Y-136.906
X100.406Y-62.865
X100.406Y-64.186
X100.508Y-69.926
X100.54Y-107.218
X101.448Y-65.888
X101.498Y-77.597
X101.498Y-78.918
X101.676Y-136.931
X102.159Y-110.693
X102.159Y-111.785
X102.184Y-112.903
X102.184Y-113.944
X102.286Y-62.916
X102.438Y-64.846
X102.667Y-66.091
X102.667Y-107.036
X103.022Y-71.552
X103.022Y-77.597
X103.022Y-78.918
X103.073Y-136.906
X103.124Y-69.901
X103.124Y-76.251
X103.175Y-73.508
X103.175Y-74.828
X104.165Y-115.037
X104.546Y-124.536
X104.648Y-69.901
X104.648Y-136.855
X104.673Y-71.196
X104.673Y-133.934
X104.699Y-129.718
X104.699Y-131.166
X104.699Y-132.486
X104.724Y-77.597
X104.724Y-78.918
X104.724Y-126.949
X104.724Y-128.27
X105.004Y-63.906
X105.054Y-66.13
X105.131Y-106.909
X105.308Y-135.28
X106.248Y-77.597
X106.248Y-78.918
X106.274Y-126.949
X106.274Y-128.27
X106.274Y-129.819
X106.274Y-131.343
X106.274Y-132.664
X106.274Y-134.214
X106.299Y-136.881
X106.553Y-109.938
X106.655Y-62.849
X106.832Y-115.367
X107.137Y-135.28
X107.366Y-77.521
X107.366Y-78.842
X107.696Y-136.906
X107.798Y-129.769
X107.798Y-134.163
X107.823Y-127.0
X107.823Y-128.321
X107.823Y-131.394
X107.823Y-132.715
X108.001Y-71.45
X108.28Y-68.758
X108.28Y-70.079
X108.651Y-97.257
X108.763Y-73.914
X108.814Y-62.849
X108.89Y-77.521
X108.89Y-78.842
X108.991Y-88.138
X108.991Y-89.484
X109.017Y-90.983
X109.017Y-92.354
X109.042Y-93.32
X109.195Y-134.671
X109.271Y-136.906
X109.322Y-129.769
X109.339Y-117.485
X109.347Y-127.0
X109.347Y-128.321
X109.347Y-131.394
X109.347Y-132.715
X109.626Y-110.669
X109.677Y-87.046
X109.728Y-63.957
X109.804Y-68.758
X109.804Y-70.079
X109.982Y-72.669
X109.982Y-75.209
X110.084Y-123.52
X110.134Y-77.013
X110.261Y-82.931
X110.566Y-107.798
X110.617Y-100.279
X110.617Y-136.906
X110.719Y-101.752
X110.82Y-126.975
X110.82Y-128.295
X110.82Y-129.845
X110.896Y-105.359
X110.896Y-131.394
X110.896Y-132.715
X110.896Y-134.264
X111.15Y-73.965
X111.15Y-98.704
X111.303Y-71.247
X111.379Y-104.013
X111.481Y-62.849
X111.633Y-88.392
X111.876Y-99.833
X111.887Y-101.727
X111.887Y-102.957
X112.014Y-75.057
X112.212Y-104.846
X112.344Y-129.794
X112.37Y-127.025
X112.37Y-128.346
X112.42Y-134.214
X112.446Y-131.445
X112.446Y-132.766
X112.522Y-136.779
X112.649Y-69.952
X112.819Y-102.024
X112.827Y-94.437
X112.852Y-72.644
X112.852Y-73.965
X112.994Y-104.064
X113.019Y-100.976
X113.03Y-92.786
X113.106Y-105.486
X113.132Y-86.258
X113.335Y-89.154
X113.36Y-91.592
X113.361Y-90.448
X113.411Y-81.995
X113.411Y-99.695
X113.436Y-83.515
X113.513Y-63.017
X113.513Y-64.338
X113.538Y-84.582
X113.563Y-66.827
X113.712Y-102.696
X113.716Y-97.409
X113.792Y-71.374
X113.792Y-93.472
X113.817Y-68.834
X113.868Y-129.794
X113.894Y-114.859
X113.894Y-127.025
X113.894Y-128.346
X113.944Y-134.214
X113.97Y-131.445
X113.97Y-132.766
X114.046Y-98.679
X114.173Y-104.902
X114.2Y-92.132
X114.376Y-72.644
X114.376Y-73.965
X114.402Y-123.393
X114.478Y-64.389
X114.478Y-117.424
X114.554Y-99.695
X114.554Y-100.965
X114.554Y-102.108
X114.554Y-103.759
X114.656Y-70.282
X115.037Y-63.017
X115.07Y-83.444
X115.113Y-66.472
X115.18Y-92.491
X115.219Y-94.397
X115.234Y-81.547
X115.265Y-102.946
X115.316Y-71.374
X115.341Y-104.419
X115.392Y-69.698
X115.392Y-98.857
X115.418Y-101.575
X115.468Y-100.254
X115.468Y-105.385
X115.468Y-127.051
X115.468Y-128.372
X115.468Y-129.921
X115.57Y-113.919
X115.621Y-97.231
X115.697Y-82.677
X115.849Y-72.644
X115.849Y-73.965
X115.926Y-111.658
X115.976Y-79.731
X116.205Y-83.566
X116.21Y-81.723
X116.332Y-104.14
X116.51Y-71.501
X116.586Y-103.124
X116.738Y-87.325
X116.967Y-105.029
X116.992Y-129.87
X117.018Y-127.102
X117.018Y-128.422
X117.196Y-69.063
X117.373Y-72.644
X117.373Y-73.965
X117.424Y-95.021
X117.551Y-85.446
X117.856Y-103.124
X117.907Y-87.249
X117.907Y-91.059
X117.983Y-105.41
X118.212Y-68.275
X118.262Y-62.849
X118.313Y-75.159
X118.415Y-69.342
X118.466Y-78.765
X118.491Y-70.46
X118.491Y-92.075
X118.516Y-129.87
X118.516Y-131.597
X118.516Y-132.918
X118.516Y-134.468
X118.542Y-127.102
X118.542Y-128.422
X118.567Y-86.258
X118.669Y-73.965
X118.875Y-122.73
X118.884Y-116.597
X119.024Y-97.739
X119.171Y-94.488
X119.191Y-83.901
X119.278Y-81.077
X119.278Y-82.906
X119.304Y-87.3
X119.38Y-90.551
X119.405Y-114.833
X119.456Y-85.268
X119.507Y-66.878
X119.583Y-69.571
X119.583Y-70.891
X119.634Y-79.934
X119.71Y-71.933
X119.736Y-68.275
X119.837Y-75.159
X119.913Y-89.027
X119.99Y-62.849
X120.04Y-134.417
X120.066Y-127.076
X120.066Y-128.397
X120.066Y-129.946
X120.066Y-131.648
X120.066Y-132.969
X120.193Y-97.053
X120.523Y-87.122
X120.523Y-89.916
X120.929Y-64.541
X121.056Y-66.929
X121.056Y-68.25
X121.107Y-69.571
X121.107Y-70.891
X121.158Y-96.977
X121.158Y-100.076
X121.206Y-93.424
X121.209Y-73.406
X121.209Y-134.696
X121.412Y-81.407
X121.437Y-78.994
X121.59Y-131.648
X121.818Y-80.239
X121.895Y-75.641
X121.92Y-76.606
X121.92Y-85.725
X121.971Y-77.648
X122.005Y-83.905
X122.098Y-133.198
X122.276Y-63.449
X122.403Y-66.116
X122.555Y-94.615
X122.733Y-123.596
X122.758Y-83.388
X123.012Y-125.247
X123.114Y-64.008
X123.241Y-77.648
X123.317Y-86.106
X123.342Y-81.432
X123.368Y-75.59
X123.419Y-76.556
X123.59Y-114.089
X123.596Y-108.687
X123.647Y-83.871
X123.668Y-101.374
X123.673Y-137.05
X123.765Y-93.492
X123.901Y-64.719
X123.901Y-66.04
X124.333Y-83.058
X124.645Y-81.197
X124.714Y-87.122
X124.917Y-89.078
X124.968Y-80.137
X125.095Y-76.454
X125.095Y-77.775
X125.095Y-103.759
X125.095Y-113.538
X125.12Y-86.398
X125.349Y-114.681
X125.349Y-118.999
X125.349Y-120.777
X125.4Y-97.13
X125.425Y-64.719
X125.425Y-66.04
X125.476Y-83.439
X125.527Y-63.322
X125.603Y-112.522
X125.896Y-101.371
X125.984Y-80.645
X125.984Y-86.741
X125.984Y-91.948
X126.213Y-90.856
X126.225Y-106.944
X126.238Y-89.103
X126.238Y-98.425
X126.619Y-77.749
X126.721Y-64.719
X126.721Y-66.04
X126.721Y-74.066
X126.721Y-115.697
X126.968Y-107.686
X127.0Y-112.522
X127.051Y-63.322
X127.051Y-90.043
X127.203Y-97.231
X127.356Y-96.444
X127.635Y-101.473
X127.762Y-91.821
X127.889Y-113.157
X127.965Y-90.805
X127.987Y-92.895
X127.991Y-134.264
X128.016Y-111.76
X128.016Y-114.808
X128.067Y-107.696
X128.118Y-73.355
X128.118Y-74.676
X128.245Y-64.719
X128.245Y-66.04
X128.321Y-126.695
X128.346Y-63.322
X128.524Y-116.713
X128.549Y-88.976
X128.778Y-106.629
X128.905Y-104.013
X128.981Y-90.424
X129.032Y-88.138
X129.286Y-128.143
X129.54Y-109.347
X129.565Y-64.745
X129.565Y-66.065
X129.565Y-70.51
X129.565Y-71.831
X129.591Y-67.589
X129.591Y-68.91
X129.591Y-76.048
X129.591Y-77.368
X129.642Y-73.355
X129.642Y-74.676
X129.692Y-118.593
X129.718Y-94.539
X129.794Y-80.747
X129.845Y-107.569
X129.845Y-117.119
X129.87Y-63.322
X129.997Y-95.58
X130.302Y-125.349
X130.607Y-126.797
X130.81Y-91.694
X130.827Y-118.237
X131.089Y-64.745
X131.089Y-66.065
X131.089Y-70.51
X131.089Y-71.831
X131.115Y-67.589
X131.115Y-68.91
X131.115Y-76.048
X131.115Y-77.368
X131.14Y-73.355
X131.14Y-74.676
X131.191Y-63.348
X131.445Y-92.583
X131.495Y-95.554
X131.597Y-128.778
X131.712Y-102.489
X132.055Y-110.084
X132.08Y-91.821
X132.334Y-100.457
X132.41Y-127.762
X132.436Y-78.816
X132.486Y-76.048
X132.486Y-77.368
X132.613Y-70.663
X132.613Y-71.984
X132.664Y-73.355
X132.664Y-74.676
X132.715Y-63.348
X132.715Y-64.719
X132.715Y-66.04
X132.715Y-67.589
X132.715Y-68.91
X133.096Y-89.611
X133.096Y-95.377
X133.223Y-84.811
X133.325Y-106.934
X133.477Y-88.011
X133.604Y-94.361
X133.807Y-128.829
X134.01Y-76.048
X134.01Y-77.368
X134.036Y-78.562
X134.036Y-79.883
X134.112Y-73.304
X134.112Y-74.625
X134.137Y-70.663
X134.137Y-71.984
X134.163Y-115.367
X134.239Y-68.91
X134.239Y-95.25
X134.315Y-86.157
X134.849Y-107.086
X135.534Y-81.128
X135.534Y-82.448
X135.56Y-78.562
X135.56Y-79.883
X135.636Y-73.304
X135.636Y-74.625
X135.636Y-95.25
X136.046Y-87.982
X136.373Y-107.086
X136.398Y-70.18
X136.398Y-72.923
X136.474Y-116.992
X136.654Y-115.443
X136.779Y-91.44
X136.855Y-94.234
X136.906Y-79.705
X137.058Y-81.128
X137.058Y-82.448
X137.185Y-92.685
X137.541Y-106.731
X137.744Y-97.663
X137.77Y-94.996
X137.77Y-96.317
X138.125Y-117.805
X138.201Y-82.601
X138.201Y-83.922
X138.405Y-71.526
X138.43Y-119.126
X138.455Y-81.255
X138.481Y-113.309
X138.557Y-120.777
X138.557Y-125.984
X138.684Y-122.631
X138.829Y-124.409
X139.344Y-114.376
X139.37Y-96.317
X139.725Y-82.601
X139.725Y-83.922
X139.725Y-105.664
X139.725Y-109.398
X139.751Y-85.293
X139.751Y-86.614
X139.751Y-88.163
X139.751Y-89.484
X139.751Y-100.559
X139.852Y-118.212
X139.929Y-71.526
X139.929Y-110.744
X139.979Y-81.255
X140.398Y-107.148
X140.792Y-117.064
X140.805Y-123.219
X140.894Y-98.704
X141.224Y-108.077
X141.275Y-85.293
X141.275Y-86.614
X141.275Y-88.163
X141.275Y-89.484
X141.275Y-90.881
X141.275Y-92.202
X141.3Y-82.626
X141.3Y-83.947
X141.453Y-71.679
X141.58Y-102.311
X141.605Y-81.305
X141.605Y-106.324
X141.839Y-63.547
X142.404Y-120.585
X142.418Y-98.704
X142.469Y-119.202
X142.748Y-124.46
X142.748Y-125.984
X142.799Y-88.113
X142.799Y-89.433
X142.799Y-90.881
X142.799Y-92.202
X142.824Y-82.626
X142.824Y-83.947
X142.824Y-85.344
X142.824Y-86.665
X142.824Y-93.37
X142.824Y-94.691
X142.977Y-71.679
X143.129Y-81.305
X143.129Y-113.411
X143.459Y-66.573
X143.485Y-68.326
X143.561Y-75.463
X143.561Y-77.267
X143.586Y-63.627
X143.803Y-122.174
X143.866Y-98.755
X143.967Y-114.275
X144.323Y-82.601
X144.323Y-83.922
X144.323Y-88.113
X144.323Y-89.433
X144.348Y-85.344
X144.348Y-86.665
X144.348Y-90.83
X144.348Y-92.151
X144.348Y-93.37
X144.348Y-94.691
X144.577Y-80.01
X144.577Y-81.331
X144.729Y-111.76
X144.729Y-113.18
X145.161Y-70.993
X145.161Y-128.988
X145.39Y-98.755
X145.72Y-94.691
X145.72Y-96.012
X145.847Y-82.601
X145.847Y-83.922
X145.872Y-90.83
X145.872Y-92.151
X145.948Y-63.754
X146.025Y-78.715
X146.05Y-70.866
X146.101Y-80.01
X146.101Y-81.331
X146.914Y-98.908
X147.244Y-94.691
X147.244Y-96.012
X147.447Y-128.988
X147.472Y-70.815
X147.65Y-121.31
X147.676Y-118.389
X147.752Y-117.373
X147.828Y-89.764
X147.853Y-112.674
X147.904Y-119.659
X147.955Y-108.026
X147.98Y-127.66
X147.986Y-87.438
X148.234Y-75.743
X148.234Y-122.294
X148.311Y-105.207
X148.438Y-65.837
X148.438Y-98.908
X148.463Y-64.567
X148.514Y-94.691
X148.514Y-96.012
X148.539Y-70.612
X148.615Y-77.699
X148.717Y-82.525
X148.717Y-84.226
X148.996Y-115.976
X149.149Y-63.475
X149.149Y-124.612
X149.289Y-71.448
X149.352Y-122.25
X149.428Y-125.755
X149.454Y-105.119
X149.504Y-86.143
X149.504Y-118.11
X149.53Y-126.924
X149.581Y-65.735
X149.835Y-80.62
X150.012Y-128.219
X150.038Y-94.691
X150.038Y-96.012
X150.063Y-114.91
X150.089Y-113.741
X150.317Y-81.991
X150.317Y-104.496
X150.343Y-71.577
X150.343Y-99.644
X150.368Y-64.262
X150.707Y-118.084
X150.749Y-122.301
X150.8Y-65.786
X151.079Y-79.807
X151.257Y-75.692
X151.257Y-108.661
X151.663Y-120.879
X151.929Y-78.613
X151.943Y-85.395
X152.248Y-69.748
X152.298Y-65.786
X152.42Y-90.782
X152.603Y-106.578
X152.654Y-120.828
X152.679Y-119.177
X152.679Y-122.276
X152.705Y-117.78
X152.806Y-84.531
X152.902Y-99.365
X153.357Y-105.922
X153.441Y-89.789
X153.492Y-108.991
X153.518Y-88.9
X153.543Y-69.698
X153.645Y-65.837
X153.822Y-122.276
X153.848Y-83.795
X154.0Y-120.802
X154.026Y-119.151
X154.051Y-117.754
X154.686Y-70.917
X154.903Y-109.499
X155.042Y-125.933
X155.067Y-127.762
X155.092Y-83.337
X155.169Y-113.843
X155.27Y-124.587
X155.372Y-104.191
X155.397Y-116.002
X155.397Y-117.551
X155.829Y-121.945
X155.88Y-120.574
X155.889Y-90.967
X156.007Y-83.464
X156.108Y-80.315
X156.185Y-105.74
X156.261Y-81.483
X156.362Y-71.298
X156.376Y-109.525
X156.413Y-126.009
X156.439Y-124.816
X156.464Y-69.748
X156.616Y-99.416
X156.743Y-127.813
X156.769Y-95.758
X156.896Y-113.894
X156.921Y-117.5
X156.947Y-116.053
X157.226Y-93.091
X157.251Y-121.945
X157.302Y-120.548
X157.556Y-106.959
X157.556Y-108.839
X157.861Y-74.168
X157.937Y-125.959
X158.09Y-124.79
X158.14Y-78.105
X158.166Y-75.336
X158.166Y-76.657
X158.267Y-127.762
X158.445Y-117.5
X158.471Y-116.053
X158.547Y-64.059
X158.623Y-113.868
X158.674Y-79.465
X158.732Y-87.28
X158.775Y-65.557
X158.775Y-66.853
X158.775Y-68.174
X158.775Y-69.723
X159.004Y-72.898
X159.115Y-121.373
X159.156Y-119.837
X159.233Y-107.874
X159.233Y-125.501
X159.36Y-118.415
X159.664Y-78.105
X159.664Y-85.293
X159.69Y-75.336
X159.69Y-76.657
X159.741Y-73.685
X160.096Y-79.477
X160.172Y-122.294
X160.172Y-124.968
X160.223Y-127.66
X160.299Y-69.672
X160.325Y-68.224
X160.477Y-71.069
X160.528Y-66.065
X160.553Y-63.779
X160.96Y-115.951
X161.011Y-118.415
X161.239Y-113.436
X161.519Y-121.488
X161.544Y-119.761
X161.722Y-117.221
X161.773Y-75.667
X161.773Y-76.987
X161.773Y-78.537
X161.798Y-71.399
X161.798Y-72.72
X161.798Y-74.27
X161.823Y-65.507
X161.823Y-69.672
X161.849Y-64.059
X161.849Y-66.904
X162.001Y-89.814
X162.052Y-115.062
X162.458Y-127.711
X162.509Y-126.467
X162.56Y-129.032
X162.839Y-79.705
X162.89Y-103.53
X163.297Y-78.486
X163.322Y-74.219
X163.322Y-75.717
X163.322Y-77.038
X163.347Y-71.45
X163.347Y-72.771
X163.398Y-81.839
X163.424Y-63.932
X163.424Y-65.481
X163.424Y-66.98
X163.424Y-68.301
X163.525Y-92.431
X163.551Y-95.326
X163.678Y-91.389
X163.881Y-90.5
X164.033Y-104.925
X164.541Y-83.083
X164.694Y-96.368
X164.821Y-78.486
X164.846Y-74.219
X164.846Y-75.717
X164.846Y-77.038
X164.871Y-72.771
X164.948Y-65.43
X164.948Y-69.799
X164.973Y-63.983
X164.973Y-67.031
X164.973Y-68.351
X165.244Y-113.085
X165.379Y-81.839
X165.43Y-124.993
X165.786Y-86.309
X165.811Y-114.935
X165.862Y-93.472
X165.913Y-90.907
X165.989Y-79.883
X166.04Y-103.073
X166.065Y-111.76
X166.116Y-78.486
X166.128Y-112.617
X166.128Y-113.617
X166.37Y-76.429
X166.37Y-105.486
X166.377Y-119.634
X166.446Y-71.374
X166.472Y-65.43
X166.472Y-69.799
X166.497Y-63.983
X166.497Y-67.031
X166.497Y-68.351
X166.497Y-106.35
X166.649Y-128.803
X166.802Y-125.096
X166.827Y-109.423
X166.827Y-110.668
X166.878Y-82.398
X166.98Y-74.701
X167.335Y-116.103
X167.335Y-117.653
X167.411Y-119.075
X167.538Y-72.644
X167.538Y-91.11
X167.665Y-114.579
X167.767Y-99.111
X167.894Y-70.714
X167.919Y-75.819
X167.945Y-69.113
X167.945Y-81.432
X167.97Y-66.015
X167.996Y-96.114
X168.046Y-111.963
X168.148Y-77.089
X168.224Y-63.602
X168.402Y-99.949
X168.706Y-98.095
X168.732Y-114.96
X168.834Y-74.092
X168.859Y-117.602
X168.862Y-95.615
X168.885Y-116.154
X168.895Y-126.731
X169.088Y-128.803
X169.226Y-104.978
X169.291Y-112.268
X169.799Y-63.551
X170.028Y-69.012
X170.18Y-78.74
X170.18Y-79.883
X170.18Y-86.208
X170.18Y-116.357
X170.205Y-91.669
X170.383Y-117.602
X170.409Y-113.792
X170.434Y-101.829
X170.51Y-99.416
X170.586Y-75.311
X170.781Y-112.014
X171.45Y-63.576
X171.882Y-76.225
X171.907Y-113.208
X171.907Y-114.529
X171.958Y-74.32
X172.009Y-93.853
X172.085Y-88.646
X172.314Y-111.709
X172.339Y-71.095
X172.542Y-72.161
X172.771Y-108.483
X172.822Y-73.025
X172.847Y-63.602
X172.847Y-101.092
X172.949Y-65.735
X173.025Y-106.528
X173.025Y-115.951
X173.101Y-79.248
X173.126Y-127.533
X173.152Y-91.237
X173.228Y-87.503
X173.279Y-76.251
X173.355Y-73.736
X173.457Y-83.007
X173.457Y-113.259
X173.457Y-114.579
X173.533Y-93.574
X173.609Y-71.069
X173.787Y-72.136
X173.965Y-74.422
X174.219Y-72.974
X174.243Y-105.055
X174.32Y-107.467
X174.371Y-80.645
X174.371Y-84.176
X174.422Y-63.652
X174.6Y-75.032
X174.676Y-103.022
X174.904Y-73.685
X174.981Y-113.259
X174.981Y-114.579
X174.995Y-89.648
X174.995Y-90.845
X175.031Y-110.693
X175.158Y-75.641
X175.184Y-117.424
X175.285Y-126.721
X175.311Y-116.053
X175.463Y-127.737
X175.59Y-74.32
X175.768Y-68.936
X175.997Y-63.602
X176.022Y-85.725
X176.124Y-109.017
X176.174Y-106.553
X176.276Y-74.905
X176.403Y-111.1
X176.428Y-113.284
X176.428Y-114.605
X176.657Y-80.518
X176.657Y-116.078
X176.657Y-117.45
X176.682Y-126.746
X176.733Y-94.285
X176.809Y-129.159
X177.063Y-97.282
X177.097Y-109.379
X177.444Y-79.629
X177.825Y-70.942
X177.825Y-72.263
X177.825Y-73.812
X177.851Y-127.914
X177.927Y-78.334
X177.927Y-100.051
X178.003Y-68.707
X178.003Y-111.811
X178.054Y-82.169
X178.079Y-113.309
X178.079Y-114.63
X178.181Y-106.172
X178.206Y-63.652
X178.206Y-64.973
X178.206Y-66.523
X178.308Y-75.133
X178.359Y-80.518
X178.452Y-94.386
X178.587Y-78.918
X178.714Y-116.662
X178.816Y-88.34
X178.816Y-89.74
X178.867Y-77.419
X178.943Y-91.313
X178.943Y-112.37
X179.07Y-104.902
X179.197Y-79.553
X179.248Y-115.341
X179.261Y-97.409
X179.273Y-76.149
X179.299Y-117.983
X179.338Y-93.922
X179.349Y-73.762
X179.375Y-70.993
X179.375Y-72.314
X179.4Y-109.118
X179.426Y-78.003
X179.451Y-68.758
X179.476Y-113.538
X179.553Y-128.346
X179.578Y-126.949
X179.73Y-66.472
X179.756Y-63.703
X179.756Y-65.024
X179.756Y-80.264
X179.959Y-83.566
X179.959Y-87.63
X179.959Y-92.013
X179.984Y-78.588
X180.035Y-81.102
X180.035Y-121.031
X180.086Y-89.091
X180.188Y-110.795
X180.218Y-90.491
X180.264Y-75.159
X180.264Y-109.728
X180.332Y-93.818
X180.391Y-108.382
X180.442Y-100.127
X180.543Y-79.172
X180.746Y-86.411
X180.848Y-76.479
X180.873Y-73.762
X180.899Y-70.993
X180.899Y-72.314
X180.924Y-68.758
X181.026Y-79.858
X181.026Y-96.571
X181.026Y-128.372
X181.051Y-126.975
X181.151Y-110.992
X181.254Y-66.472
X181.254Y-77.902
X181.28Y-63.703
X181.28Y-65.024
X181.28Y-109.474
X181.407Y-80.645
X181.458Y-83.642
X182.377Y-112.389
X182.397Y-81.001
X182.451Y-107.716
X182.546Y-100.486
X182.601Y-66.345
X182.677Y-126.594
X182.804Y-83.668
X182.804Y-97.003
X182.855Y-78.232
X182.931Y-63.703
X182.931Y-65.024
X183.134Y-98.476
X183.642Y-111.658
X183.704Y-99.218
X183.921Y-98.095
X183.998Y-84.709
X184.109Y-103.348
X184.175Y-104.698
X184.48Y-63.754
X184.48Y-65.075
X185.025Y-98.4
X185.064Y-114.097
X185.445Y-104.546
X185.649Y-78.511
X185.776Y-107.594
X186.004Y-63.754
X186.004Y-65.075
X186.186Y-122.628
X186.461Y-103.429
X186.607Y-108.681
X186.919Y-126.162
X186.967Y-79.855
X187.084Y-107.721
X187.274Y-73.711
X187.477Y-63.703
X187.477Y-65.024
X187.477Y-66.573
X188.265Y-72.492
X188.43Y-107.634
X188.468Y-127.381
X188.493Y-125.984
X188.671Y-77.927
X189.001Y-66.523
X189.001Y-68.58
X189.027Y-63.754
X189.027Y-65.075
X189.078Y-109.118
X189.078Y-121.412
X189.382Y-117.17
X189.484Y-130.124
X189.542Y-108.083
X189.611Y-73.228
X189.611Y-128.626
X189.636Y-70.46
X189.636Y-71.78
X189.687Y-127.406
X189.713Y-126.009
X189.941Y-112.751
X189.992Y-85.217
X189.992Y-87.757
X189.992Y-90.297
X189.992Y-92.837
X189.992Y-95.25
X189.992Y-97.917
X189.992Y-102.997
X190.119Y-100.33
X190.373Y-104.394
X190.525Y-66.523
X190.551Y-63.754
X190.551Y-65.075
X190.576Y-78.181
X190.602Y-117.627
X190.652Y-68.605
X190.79Y-130.008
X191.033Y-127.406
X191.059Y-126.009
X191.135Y-73.228
X191.16Y-70.46
X191.16Y-71.78
X191.554Y-108.077
X191.618Y-128.626
X192.253Y-78.334
X192.278Y-74.473
X192.38Y-63.703
X192.405Y-121.895
X192.684Y-127.381
X192.71Y-125.984
X192.811Y-68.986
X193.04Y-122.758
X193.192Y-121.742
X193.523Y-80.137
X193.675Y-117.424
X193.853Y-125.908
X194.107Y-123.546
X194.132Y-100.406
X194.132Y-122.606
X194.31Y-107.975
X194.539Y-63.576
X194.589Y-78.435
X194.793Y-80.924
X194.818Y-102.413
X194.843Y-115.265
X194.945Y-104.902
X194.97Y-123.063
X195.021Y-107.442
X195.097Y-80.035
X195.227Y-117.397
X195.351Y-74.397
X195.377Y-71.501
X195.377Y-73.482
X195.402Y-72.568
X195.91Y-106.705
X195.921Y-97.539
X196.012Y-78.461
X196.037Y-81.864
X196.19Y-63.602
X196.24Y-80.213
X196.273Y-108.086
X196.367Y-84.658
X196.596Y-102.108
X196.621Y-74.422
X196.647Y-71.501
X196.647Y-72.517
X196.647Y-73.482
X196.723Y-117.577
X196.727Y-99.959
X196.799Y-83.439
X196.952Y-96.622
X196.957Y-105.74
X196.977Y-94.971
X197.002Y-90.526
X197.002Y-93.574
X197.028Y-88.875
X197.053Y-87.478
X197.053Y-92.1
X197.307Y-75.514
X197.307Y-76.759
X197.344Y-110.32
X197.358Y-78.308
X197.51Y-86.208
X197.536Y-102.413
X197.587Y-63.627
X197.612Y-80.239
X197.612Y-101.219
X197.866Y-97.282
X197.993Y-103.2
X198.018Y-74.066
X198.145Y-83.16
X198.196Y-110.439
X198.222Y-104.623
X198.374Y-77.724
X198.383Y-112.685
X198.399Y-81.839
X198.628Y-118.313
X198.78Y-106.274
X198.814Y-116.583
X198.933Y-111.506
X199.009Y-85.115
X199.034Y-115.608
X199.06Y-103.226
X199.085Y-63.678
X199.123Y-113.487
X199.187Y-119.964
X199.441Y-104.369
X199.644Y-83.972
X199.695Y-80.391
X199.695Y-81.712
X199.91Y-111.176
X199.923Y-74.219
X200.12Y-112.427
X200.152Y-97.282
X200.152Y-101.219
X200.279Y-102.997
X200.355Y-107.036
X200.381Y-105.283
X200.584Y-89.484
X200.635Y-91.059
X200.635Y-92.989
X200.736Y-98.755
X200.787Y-119.38
X200.863Y-63.703
X200.863Y-65.024
X200.863Y-66.573
X200.863Y-68.326
X200.863Y-69.647
X200.863Y-71.196
X200.863Y-96.114
X200.914Y-73.254
X200.914Y-100.609
X201.117Y-83.972
X201.117Y-102.413
X201.168Y-77.826
X201.168Y-80.442
X201.168Y-81.763
X201.193Y-104.089
X201.235Y-75.066
X201.235Y-112.573
X201.397Y-94.209
X201.524Y-84.988
X201.574Y-92.151
X201.6Y-99.847
X201.701Y-107.264
X201.803Y-101.625
X201.854Y-89.433
X201.905Y-91.008
X201.905Y-97.282
X202.082Y-108.864
X202.235Y-99.263
X202.235Y-112.573
X202.286Y-109.931
X202.362Y-83.998
X202.387Y-66.523
X202.387Y-71.145
X202.413Y-63.754
X202.413Y-65.075
X202.413Y-68.377
X202.413Y-69.698
X202.489Y-73.203
X202.514Y-103.81
X202.54Y-100.813
X202.565Y-74.447
X202.717Y-80.493
X202.717Y-81.813
X202.717Y-92.862
X202.743Y-102.489
X202.743Y-117.399
X202.768Y-98.577
X203.048Y-106.604
X203.048Y-113.436
X203.225Y-100.051
X203.225Y-115.926
X203.302Y-118.542
X203.429Y-89.408
X203.429Y-98.044
X203.454Y-84.176
X203.479Y-90.983
X203.683Y-119.913
X203.723Y-101.341
X203.784Y-99.39
X203.895Y-75.193
X203.911Y-66.523
X203.911Y-71.145
X203.937Y-63.754
X203.937Y-65.075
X203.937Y-68.377
X203.937Y-69.698
X204.08Y-103.808
X204.14Y-73.228
X204.241Y-80.493
X204.241Y-81.813
X204.241Y-92.177
X204.241Y-114.986
X204.495Y-107.01
X204.521Y-98.73
X204.521Y-117.932
X204.673Y-116.637
X204.749Y-89.383
X204.8Y-90.957
X205.054Y-84.15
X205.105Y-74.346
X205.207Y-100.0
X205.232Y-83.058
X205.232Y-114.046
X205.232Y-119.939
X205.334Y-93.624
X205.537Y-73.254
X205.562Y-92.227
X205.588Y-68.428
X205.588Y-69.748
X205.588Y-71.298
X205.613Y-63.703
X205.613Y-65.024
X205.613Y-66.573
X205.74Y-79.375
X205.745Y-106.225
X205.816Y-115.214
X205.842Y-94.996
X205.842Y-118.796
X205.892Y-117.551
X206.045Y-80.874
X206.122Y-98.134
X206.477Y-94.412
X206.502Y-105.283
X206.553Y-87.452
X206.807Y-95.504
X206.883Y-92.507
X206.959Y-83.896
X207.01Y-82.245
X207.01Y-103.708
X207.112Y-71.247
X207.137Y-66.523
X207.137Y-68.478
X207.137Y-69.799
X207.137Y-93.701
X207.137Y-119.761
X207.162Y-63.754
X207.162Y-65.075
X207.162Y-117.831
X207.213Y-113.97
X207.442Y-94.92
X207.467Y-96.647
X207.772Y-93.116
X207.848Y-121.996
X208.077Y-94.336
X208.128Y-87.401
X208.255Y-118.669
X208.331Y-92.405
X208.362Y-81.825
X208.585Y-114.96
X208.661Y-93.726
X208.686Y-103.861
X208.712Y-95.682
X208.864Y-62.849
X208.966Y-91.821
X209.245Y-122.022
X209.372Y-114.071
X209.398Y-112.471
X209.448Y-117.653
X209.55Y-91.211
X209.601Y-119.939
X209.677Y-108.204
X209.804Y-69.977
X210.185Y-68.097
X210.21Y-63.805
X210.21Y-65.126
X210.21Y-66.675
X210.261Y-104.47
X210.439Y-78.359
X210.439Y-80.137
X210.439Y-118.872
X210.49Y-95.834
X210.617Y-122.174
X210.972Y-115.062
X211.226Y-114.021
X211.557Y-109.601
X211.582Y-108.204
X211.582Y-118.059
X211.684Y-103.708
X211.684Y-112.42
X211.709Y-111.023
X211.734Y-66.624
X211.734Y-120.879
X211.76Y-63.856
X211.76Y-65.176
X211.836Y-68.123
X212.014Y-122.199
X212.027Y-114.999
X212.496Y-106.121
X212.557Y-72.771
X212.852Y-121.285
X212.903Y-84.049
X212.979Y-70.104
X212.979Y-96.647
X213.004Y-95.25
X213.03Y-87.782
X213.081Y-119.685
X213.157Y-114.859
X213.208Y-112.446
X213.233Y-68.148
X213.233Y-111.049
X213.258Y-66.624
X213.284Y-63.856
X213.284Y-65.176
X213.36Y-82.169
X213.385Y-103.556
X213.462Y-102.083
X213.69Y-106.934
X213.766Y-114.198
X213.893Y-93.904
X213.919Y-92.507
X214.198Y-71.399
X214.224Y-114.91
X214.249Y-77.368
X214.351Y-83.261
X214.401Y-84.836
X214.554Y-80.899
X214.884Y-67.386
X214.884Y-68.707
X214.884Y-70.256
X214.935Y-65.532
X214.96Y-101.981
X214.986Y-98.704
X214.986Y-103.81
X215.011Y-97.053
X215.036Y-95.656
X215.036Y-100.279
X215.113Y-112.141
X215.138Y-108.687
X215.138Y-110.744
X215.544Y-105.867
X215.671Y-94.209
X215.697Y-92.812
X215.697Y-107.188
X215.951Y-109.626
X216.154Y-119.126
X216.154Y-122.047
X216.179Y-120.65
X216.205Y-104.851
X216.408Y-70.206
X216.433Y-67.437
X216.433Y-68.758
X216.713Y-84.353
X216.738Y-75.057
X216.738Y-79.629
X216.738Y-81.585
X216.738Y-82.906
X216.738Y-86.127
X216.764Y-72.288
X216.764Y-73.609
X216.764Y-76.86
X216.764Y-78.181
X216.916Y-99.949
X216.941Y-98.298
X216.967Y-96.901
X216.967Y-101.524
X217.068Y-102.87
X217.094Y-104.292
T4
X111.862Y-109.957
X164.236Y-106.299
T5
X141.58Y-65.418
X141.58Y-67.418
X141.58Y-69.418
X141.58Y-74.257
X141.58Y-76.257
X141.58Y-78.257
T6
X98.137Y-132.791
X116.137Y-132.791
X132.838Y-113.721
X132.838Y-116.221
X132.838Y-118.221
X132.838Y-120.721
T7
X183.505Y-75.946
X186.045Y-75.946
X188.468Y-119.38
X188.585Y-75.946
X191.008Y-119.38
X193.548Y-119.38
X196.088Y-119.38
T8
X95.41Y-119.278
X95.656Y-74.092
X100.41Y-119.278
X100.656Y-74.092
X105.41Y-119.278
X105.656Y-74.092
X111.996Y-119.304
X116.996Y-119.304
X121.996Y-119.304
T9
X173.0Y-69.0
X196.0Y-69.0
X210.896Y-89.941
T10
X170.46Y-66.46
X170.46Y-71.54
X175.54Y-66.46
X175.54Y-71.54
X193.46Y-66.46
X193.46Y-71.54
X198.54Y-66.46
X198.54Y-71.54
X207.304Y-89.941
X210.896Y-86.349
X210.896Y-93.534
X214.488Y-89.941
T11
X135.238Y-110.651
X135.238Y-123.791
T12
X170.216Y-120.488
X182.244Y-116.11
T13
X125.0Y-70.0
X125.0Y-130.0
X185.0Y-70.0
X185.0Y-130.0
X210.0Y-100.0
T0
M30
