%TF.GenerationSoftware,KiCad,Pcbnew,(6.0.9)*%
%TF.CreationDate,2022-11-25T15:53:44+02:00*%
%TF.ProjectId,Bird_detector_V1,42697264-5f64-4657-9465-63746f725f56,rev?*%
%TF.SameCoordinates,Original*%
%TF.FileFunction,Soldermask,Top*%
%TF.FilePolarity,Negative*%
%FSLAX46Y46*%
G04 Gerber Fmt 4.6, Leading zero omitted, Abs format (unit mm)*
G04 Created by KiCad (PCBNEW (6.0.9)) date 2022-11-25 15:53:44*
%MOMM*%
%LPD*%
G01*
G04 APERTURE LIST*
G04 Aperture macros list*
%AMRoundRect*
0 Rectangle with rounded corners*
0 $1 Rounding radius*
0 $2 $3 $4 $5 $6 $7 $8 $9 X,Y pos of 4 corners*
0 Add a 4 corners polygon primitive as box body*
4,1,4,$2,$3,$4,$5,$6,$7,$8,$9,$2,$3,0*
0 Add four circle primitives for the rounded corners*
1,1,$1+$1,$2,$3*
1,1,$1+$1,$4,$5*
1,1,$1+$1,$6,$7*
1,1,$1+$1,$8,$9*
0 Add four rect primitives between the rounded corners*
20,1,$1+$1,$2,$3,$4,$5,0*
20,1,$1+$1,$4,$5,$6,$7,0*
20,1,$1+$1,$6,$7,$8,$9,0*
20,1,$1+$1,$8,$9,$2,$3,0*%
%AMFreePoly0*
4,1,22,0.500000,-0.750000,0.000000,-0.750000,0.000000,-0.745033,-0.079941,-0.743568,-0.215256,-0.701293,-0.333266,-0.622738,-0.424486,-0.514219,-0.481581,-0.384460,-0.499164,-0.250000,-0.500000,-0.250000,-0.500000,0.250000,-0.499164,0.250000,-0.499963,0.256109,-0.478152,0.396186,-0.417904,0.524511,-0.324060,0.630769,-0.204165,0.706417,-0.067858,0.745374,0.000000,0.744959,0.000000,0.750000,
0.500000,0.750000,0.500000,-0.750000,0.500000,-0.750000,$1*%
%AMFreePoly1*
4,1,20,0.000000,0.744959,0.073905,0.744508,0.209726,0.703889,0.328688,0.626782,0.421226,0.519385,0.479903,0.390333,0.500000,0.250000,0.500000,-0.250000,0.499851,-0.262216,0.476331,-0.402017,0.414519,-0.529596,0.319384,-0.634700,0.198574,-0.708877,0.061801,-0.746166,0.000000,-0.745033,0.000000,-0.750000,-0.500000,-0.750000,-0.500000,0.750000,0.000000,0.750000,0.000000,0.744959,
0.000000,0.744959,$1*%
%AMFreePoly2*
4,1,22,0.550000,-0.750000,0.000000,-0.750000,0.000000,-0.745033,-0.079941,-0.743568,-0.215256,-0.701293,-0.333266,-0.622738,-0.424486,-0.514219,-0.481581,-0.384460,-0.499164,-0.250000,-0.500000,-0.250000,-0.500000,0.250000,-0.499164,0.250000,-0.499963,0.256109,-0.478152,0.396186,-0.417904,0.524511,-0.324060,0.630769,-0.204165,0.706417,-0.067858,0.745374,0.000000,0.744959,0.000000,0.750000,
0.550000,0.750000,0.550000,-0.750000,0.550000,-0.750000,$1*%
%AMFreePoly3*
4,1,20,0.000000,0.744959,0.073905,0.744508,0.209726,0.703889,0.328688,0.626782,0.421226,0.519385,0.479903,0.390333,0.500000,0.250000,0.500000,-0.250000,0.499851,-0.262216,0.476331,-0.402017,0.414519,-0.529596,0.319384,-0.634700,0.198574,-0.708877,0.061801,-0.746166,0.000000,-0.745033,0.000000,-0.750000,-0.550000,-0.750000,-0.550000,0.750000,0.000000,0.750000,0.000000,0.744959,
0.000000,0.744959,$1*%
G04 Aperture macros list end*
%ADD10C,0.150000*%
%TA.AperFunction,Profile*%
%ADD11C,0.100000*%
%TD*%
%TA.AperFunction,Profile*%
%ADD12C,0.120000*%
%TD*%
%ADD13R,1.700000X1.700000*%
%ADD14O,1.700000X1.700000*%
%ADD15C,3.000000*%
%ADD16R,2.500000X2.500000*%
%ADD17RoundRect,0.225000X0.225000X0.250000X-0.225000X0.250000X-0.225000X-0.250000X0.225000X-0.250000X0*%
%ADD18RoundRect,0.225000X0.250000X-0.225000X0.250000X0.225000X-0.250000X0.225000X-0.250000X-0.225000X0*%
%ADD19RoundRect,0.150000X-0.725000X-0.150000X0.725000X-0.150000X0.725000X0.150000X-0.725000X0.150000X0*%
%ADD20R,1.980000X3.960000*%
%ADD21O,1.980000X3.960000*%
%ADD22RoundRect,0.062500X-0.062500X0.350000X-0.062500X-0.350000X0.062500X-0.350000X0.062500X0.350000X0*%
%ADD23RoundRect,0.062500X-0.350000X0.062500X-0.350000X-0.062500X0.350000X-0.062500X0.350000X0.062500X0*%
%ADD24R,2.600000X2.600000*%
%ADD25RoundRect,0.150000X0.825000X0.150000X-0.825000X0.150000X-0.825000X-0.150000X0.825000X-0.150000X0*%
%ADD26RoundRect,0.237500X0.237500X-0.250000X0.237500X0.250000X-0.237500X0.250000X-0.237500X-0.250000X0*%
%ADD27RoundRect,0.237500X-0.300000X-0.237500X0.300000X-0.237500X0.300000X0.237500X-0.300000X0.237500X0*%
%ADD28RoundRect,0.237500X0.250000X0.237500X-0.250000X0.237500X-0.250000X-0.237500X0.250000X-0.237500X0*%
%ADD29RoundRect,0.237500X-0.237500X0.300000X-0.237500X-0.300000X0.237500X-0.300000X0.237500X0.300000X0*%
%ADD30RoundRect,0.237500X-0.237500X0.250000X-0.237500X-0.250000X0.237500X-0.250000X0.237500X0.250000X0*%
%ADD31RoundRect,0.237500X0.300000X0.237500X-0.300000X0.237500X-0.300000X-0.237500X0.300000X-0.237500X0*%
%ADD32R,1.500000X0.400000*%
%ADD33RoundRect,0.250000X0.450000X-0.262500X0.450000X0.262500X-0.450000X0.262500X-0.450000X-0.262500X0*%
%ADD34RoundRect,0.250000X1.000000X-1.950000X1.000000X1.950000X-1.000000X1.950000X-1.000000X-1.950000X0*%
%ADD35C,0.600000*%
%ADD36R,0.700000X1.000000*%
%ADD37RoundRect,0.250000X-0.337500X-0.475000X0.337500X-0.475000X0.337500X0.475000X-0.337500X0.475000X0*%
%ADD38R,1.600000X0.600000*%
%ADD39R,0.600000X1.600000*%
%ADD40RoundRect,0.237500X0.287500X0.237500X-0.287500X0.237500X-0.287500X-0.237500X0.287500X-0.237500X0*%
%ADD41R,0.400000X1.500000*%
%ADD42RoundRect,0.150000X-0.150000X0.825000X-0.150000X-0.825000X0.150000X-0.825000X0.150000X0.825000X0*%
%ADD43FreePoly0,90.000000*%
%ADD44FreePoly1,90.000000*%
%ADD45R,0.500000X0.350000*%
%ADD46RoundRect,0.250000X-0.475000X0.337500X-0.475000X-0.337500X0.475000X-0.337500X0.475000X0.337500X0*%
%ADD47RoundRect,0.237500X-0.250000X-0.237500X0.250000X-0.237500X0.250000X0.237500X-0.250000X0.237500X0*%
%ADD48RoundRect,0.250000X0.475000X-0.250000X0.475000X0.250000X-0.475000X0.250000X-0.475000X-0.250000X0*%
%ADD49R,0.900000X1.200000*%
%ADD50R,3.150000X1.000000*%
%ADD51C,3.600000*%
%ADD52C,5.700000*%
%ADD53RoundRect,0.125000X0.537500X0.125000X-0.537500X0.125000X-0.537500X-0.125000X0.537500X-0.125000X0*%
%ADD54RoundRect,0.250000X0.475000X-0.337500X0.475000X0.337500X-0.475000X0.337500X-0.475000X-0.337500X0*%
%ADD55R,1.500000X1.500000*%
%ADD56RoundRect,0.237500X0.237500X-0.300000X0.237500X0.300000X-0.237500X0.300000X-0.237500X-0.300000X0*%
%ADD57RoundRect,0.200100X-0.949900X0.949900X-0.949900X-0.949900X0.949900X-0.949900X0.949900X0.949900X0*%
%ADD58C,2.500000*%
%ADD59RoundRect,0.237500X-0.237500X0.287500X-0.237500X-0.287500X0.237500X-0.287500X0.237500X0.287500X0*%
%ADD60R,1.560000X0.650000*%
%ADD61R,3.000000X5.000000*%
%ADD62O,3.000000X5.000000*%
%ADD63RoundRect,0.237500X0.237500X-0.287500X0.237500X0.287500X-0.237500X0.287500X-0.237500X-0.287500X0*%
%ADD64RoundRect,0.200100X1.343361X0.000000X0.000000X1.343361X-1.343361X0.000000X0.000000X-1.343361X0*%
%ADD65R,1.150000X0.600000*%
%ADD66RoundRect,0.200100X0.949900X-0.949900X0.949900X0.949900X-0.949900X0.949900X-0.949900X-0.949900X0*%
%ADD67C,1.500000*%
%ADD68RoundRect,0.100000X0.200000X0.100000X-0.200000X0.100000X-0.200000X-0.100000X0.200000X-0.100000X0*%
%ADD69R,1.275000X1.275000*%
%ADD70C,1.275000*%
%ADD71RoundRect,0.250000X0.262500X0.450000X-0.262500X0.450000X-0.262500X-0.450000X0.262500X-0.450000X0*%
%ADD72R,1.500000X0.900000*%
%ADD73R,0.900000X1.500000*%
%ADD74R,0.900000X0.900000*%
%ADD75RoundRect,0.237500X0.380070X-0.044194X-0.044194X0.380070X-0.380070X0.044194X0.044194X-0.380070X0*%
%ADD76RoundRect,0.237500X0.344715X-0.008839X-0.008839X0.344715X-0.344715X0.008839X0.008839X-0.344715X0*%
%ADD77RoundRect,0.237500X0.044194X0.380070X-0.380070X-0.044194X-0.044194X-0.380070X0.380070X0.044194X0*%
%ADD78RoundRect,0.250000X0.337500X0.475000X-0.337500X0.475000X-0.337500X-0.475000X0.337500X-0.475000X0*%
%ADD79RoundRect,0.250000X-0.262500X-0.450000X0.262500X-0.450000X0.262500X0.450000X-0.262500X0.450000X0*%
%ADD80C,1.400000*%
%ADD81C,3.450000*%
%ADD82R,3.500000X1.800000*%
%ADD83RoundRect,0.600000X-0.600000X-2.100000X0.600000X-2.100000X0.600000X2.100000X-0.600000X2.100000X0*%
%ADD84R,1.475000X0.450000*%
%ADD85R,1.200000X0.900000*%
%ADD86RoundRect,0.237500X-0.008839X-0.344715X0.344715X0.008839X0.008839X0.344715X-0.344715X-0.008839X0*%
%ADD87RoundRect,0.150000X0.725000X0.150000X-0.725000X0.150000X-0.725000X-0.150000X0.725000X-0.150000X0*%
%ADD88RoundRect,0.062500X0.062500X-0.325000X0.062500X0.325000X-0.062500X0.325000X-0.062500X-0.325000X0*%
%ADD89RoundRect,0.062500X0.325000X-0.062500X0.325000X0.062500X-0.325000X0.062500X-0.325000X-0.062500X0*%
%ADD90R,2.450000X2.450000*%
%ADD91FreePoly2,90.000000*%
%ADD92R,1.500000X1.000000*%
%ADD93FreePoly3,90.000000*%
%ADD94RoundRect,0.250000X-0.450000X0.350000X-0.450000X-0.350000X0.450000X-0.350000X0.450000X0.350000X0*%
%ADD95R,2.000000X0.900000*%
%ADD96R,1.500000X1.200000*%
%ADD97R,1.400000X1.500000*%
%ADD98C,3.570000*%
G04 APERTURE END LIST*
D10*
G36*
X222173800Y-123012200D02*
G01*
X219786200Y-128803400D01*
X208000600Y-124942600D01*
X208153000Y-122377200D01*
X215635840Y-122321320D01*
X217058240Y-121254520D01*
X217017600Y-112522000D01*
X216408000Y-106299000D01*
X215798400Y-103784400D01*
X215773000Y-94183200D01*
X216662000Y-91719400D01*
X216585800Y-89458800D01*
X215900000Y-87477600D01*
X215696800Y-73634600D01*
X215696800Y-69570600D01*
X212877400Y-66065400D01*
X208610200Y-64135000D01*
X160782000Y-64185800D01*
X159080200Y-62839600D01*
X144297400Y-62738000D01*
X143510000Y-62966600D01*
X142265400Y-63500000D01*
X138633200Y-63703200D01*
X118795800Y-63550800D01*
X117652800Y-62915800D01*
X102768400Y-63017400D01*
X100279200Y-63296800D01*
X96951800Y-64744600D01*
X94437200Y-67411600D01*
X93421200Y-69215000D01*
X93319600Y-82804000D01*
X92964000Y-83286600D01*
X88519000Y-83261200D01*
X88392000Y-60147200D01*
X221132400Y-58851800D01*
X222173800Y-123012200D01*
G37*
X222173800Y-123012200D02*
X219786200Y-128803400D01*
X208000600Y-124942600D01*
X208153000Y-122377200D01*
X215635840Y-122321320D01*
X217058240Y-121254520D01*
X217017600Y-112522000D01*
X216408000Y-106299000D01*
X215798400Y-103784400D01*
X215773000Y-94183200D01*
X216662000Y-91719400D01*
X216585800Y-89458800D01*
X215900000Y-87477600D01*
X215696800Y-73634600D01*
X215696800Y-69570600D01*
X212877400Y-66065400D01*
X208610200Y-64135000D01*
X160782000Y-64185800D01*
X159080200Y-62839600D01*
X144297400Y-62738000D01*
X143510000Y-62966600D01*
X142265400Y-63500000D01*
X138633200Y-63703200D01*
X118795800Y-63550800D01*
X117652800Y-62915800D01*
X102768400Y-63017400D01*
X100279200Y-63296800D01*
X96951800Y-64744600D01*
X94437200Y-67411600D01*
X93421200Y-69215000D01*
X93319600Y-82804000D01*
X92964000Y-83286600D01*
X88519000Y-83261200D01*
X88392000Y-60147200D01*
X221132400Y-58851800D01*
X222173800Y-123012200D01*
G36*
X107492800Y-80645000D02*
G01*
X108204000Y-81915000D01*
X108102400Y-101473000D01*
X108127800Y-103327200D01*
X106934000Y-104343200D01*
X105638600Y-104724200D01*
X96443800Y-104775000D01*
X93370400Y-106705400D01*
X93040200Y-131597400D01*
X94005400Y-134188200D01*
X96520000Y-136271000D01*
X99237800Y-136601200D01*
X122402600Y-136575800D01*
X122402600Y-140563600D01*
X89611200Y-141554200D01*
X88773000Y-102336600D01*
X103657400Y-102412800D01*
X106705400Y-100863400D01*
X106553000Y-91770200D01*
X106476800Y-83388200D01*
X105486200Y-82473800D01*
X91211400Y-82245200D01*
X91084400Y-79832200D01*
X106578400Y-79832200D01*
X107492800Y-80645000D01*
G37*
X107492800Y-80645000D02*
X108204000Y-81915000D01*
X108102400Y-101473000D01*
X108127800Y-103327200D01*
X106934000Y-104343200D01*
X105638600Y-104724200D01*
X96443800Y-104775000D01*
X93370400Y-106705400D01*
X93040200Y-131597400D01*
X94005400Y-134188200D01*
X96520000Y-136271000D01*
X99237800Y-136601200D01*
X122402600Y-136575800D01*
X122402600Y-140563600D01*
X89611200Y-141554200D01*
X88773000Y-102336600D01*
X103657400Y-102412800D01*
X106705400Y-100863400D01*
X106553000Y-91770200D01*
X106476800Y-83388200D01*
X105486200Y-82473800D01*
X91211400Y-82245200D01*
X91084400Y-79832200D01*
X106578400Y-79832200D01*
X107492800Y-80645000D01*
X97383600Y-91897200D02*
X101904800Y-91897200D01*
X101904800Y-91897200D02*
X101904800Y-93370400D01*
X101904800Y-93370400D02*
X97383600Y-93370400D01*
X97383600Y-93370400D02*
X97383600Y-91897200D01*
G36*
X97383600Y-91897200D02*
G01*
X101904800Y-91897200D01*
X101904800Y-93370400D01*
X97383600Y-93370400D01*
X97383600Y-91897200D01*
G37*
X207721200Y-108381800D02*
X204165200Y-108381800D01*
X204165200Y-108381800D02*
X204165200Y-112725200D01*
X204165200Y-112725200D02*
X207721200Y-112725200D01*
X207721200Y-112725200D02*
X207721200Y-108381800D01*
G36*
X207721200Y-108381800D02*
G01*
X204165200Y-108381800D01*
X204165200Y-112725200D01*
X207721200Y-112725200D01*
X207721200Y-108381800D01*
G37*
X97180400Y-82499200D02*
X99618800Y-82499200D01*
X99618800Y-82499200D02*
X99618800Y-83870800D01*
X99618800Y-83870800D02*
X97180400Y-83870800D01*
X97180400Y-83870800D02*
X97180400Y-82499200D01*
G36*
X97180400Y-82499200D02*
G01*
X99618800Y-82499200D01*
X99618800Y-83870800D01*
X97180400Y-83870800D01*
X97180400Y-82499200D01*
G37*
D11*
X186000000Y-136000000D02*
X198000000Y-124000000D01*
X91500000Y-69000000D02*
X91500000Y-80000000D01*
X95151800Y-91338400D02*
X95177200Y-84491200D01*
X146253200Y-130683000D02*
X163855400Y-130683000D01*
X163855400Y-130683000D02*
X163855400Y-136220200D01*
X163855400Y-136220200D02*
X146253200Y-136220200D01*
X146253200Y-136220200D02*
X146253200Y-130683000D01*
X107289600Y-82600800D02*
X107289600Y-102000000D01*
X104021800Y-91333000D02*
X104047200Y-84485800D01*
X91500000Y-80000000D02*
G75*
G03*
X93000000Y-82000000I1750000J-250000D01*
G01*
X100000000Y-61999995D02*
G75*
G03*
X91500000Y-69000000I-78860J-8564955D01*
G01*
X95168400Y-100333800D02*
X104038400Y-100333800D01*
X91500000Y-130750000D02*
G75*
G03*
X99250000Y-138000000I7563800J318200D01*
G01*
X95151800Y-93838400D02*
X95168400Y-100333800D01*
X200000005Y-123000022D02*
G75*
G03*
X198000000Y-124000000I865995J-4232078D01*
G01*
X218000000Y-123000000D02*
X218000000Y-69000000D01*
X93000000Y-103500000D02*
X106000000Y-103500000D01*
X106324400Y-81985800D02*
X107289600Y-82600800D01*
X181000000Y-138000013D02*
G75*
G03*
X186000000Y-136000000I-247500J7868713D01*
G01*
X104047200Y-81985800D02*
X106324400Y-81985800D01*
X99250000Y-138000000D02*
X181000000Y-138000000D01*
X104021800Y-93833000D02*
X104038400Y-100333800D01*
X91500000Y-130750000D02*
X91500000Y-105000000D01*
X105999998Y-103499995D02*
G75*
G03*
X107289600Y-102000000I-654198J1866795D01*
G01*
X93000000Y-82000000D02*
X95177200Y-81991200D01*
X218000000Y-123000000D02*
X200000000Y-123000000D01*
X218000023Y-68999996D02*
G75*
G03*
X210000000Y-62000000I-8171123J-1267004D01*
G01*
X210000000Y-62000000D02*
X100000000Y-62000000D01*
X93000000Y-103500000D02*
G75*
G03*
X91500000Y-105000000I143800J-1643800D01*
G01*
D10*
G36*
X222173800Y-123012200D02*
G01*
X219786200Y-128803400D01*
X208000600Y-124942600D01*
X208153000Y-122377200D01*
X215635840Y-122321320D01*
X217058240Y-121254520D01*
X217017600Y-112522000D01*
X216408000Y-106299000D01*
X215798400Y-103784400D01*
X215773000Y-94183200D01*
X216662000Y-91719400D01*
X216585800Y-89458800D01*
X215900000Y-87477600D01*
X215696800Y-73634600D01*
X215696800Y-69570600D01*
X212877400Y-66065400D01*
X208610200Y-64135000D01*
X160782000Y-64185800D01*
X159080200Y-62839600D01*
X144297400Y-62738000D01*
X143510000Y-62966600D01*
X142265400Y-63500000D01*
X138633200Y-63703200D01*
X118795800Y-63550800D01*
X117652800Y-62915800D01*
X102768400Y-63017400D01*
X100279200Y-63296800D01*
X96951800Y-64744600D01*
X94437200Y-67411600D01*
X93421200Y-69215000D01*
X93319600Y-82804000D01*
X92964000Y-83286600D01*
X88519000Y-83261200D01*
X88392000Y-60147200D01*
X221132400Y-58851800D01*
X222173800Y-123012200D01*
G37*
X222173800Y-123012200D02*
X219786200Y-128803400D01*
X208000600Y-124942600D01*
X208153000Y-122377200D01*
X215635840Y-122321320D01*
X217058240Y-121254520D01*
X217017600Y-112522000D01*
X216408000Y-106299000D01*
X215798400Y-103784400D01*
X215773000Y-94183200D01*
X216662000Y-91719400D01*
X216585800Y-89458800D01*
X215900000Y-87477600D01*
X215696800Y-73634600D01*
X215696800Y-69570600D01*
X212877400Y-66065400D01*
X208610200Y-64135000D01*
X160782000Y-64185800D01*
X159080200Y-62839600D01*
X144297400Y-62738000D01*
X143510000Y-62966600D01*
X142265400Y-63500000D01*
X138633200Y-63703200D01*
X118795800Y-63550800D01*
X117652800Y-62915800D01*
X102768400Y-63017400D01*
X100279200Y-63296800D01*
X96951800Y-64744600D01*
X94437200Y-67411600D01*
X93421200Y-69215000D01*
X93319600Y-82804000D01*
X92964000Y-83286600D01*
X88519000Y-83261200D01*
X88392000Y-60147200D01*
X221132400Y-58851800D01*
X222173800Y-123012200D01*
G36*
X107492800Y-80645000D02*
G01*
X108204000Y-81915000D01*
X108102400Y-101473000D01*
X108127800Y-103327200D01*
X106934000Y-104343200D01*
X105638600Y-104724200D01*
X96443800Y-104775000D01*
X93370400Y-106705400D01*
X93040200Y-131597400D01*
X94005400Y-134188200D01*
X96520000Y-136271000D01*
X99237800Y-136601200D01*
X122402600Y-136575800D01*
X122402600Y-140563600D01*
X89611200Y-141554200D01*
X88773000Y-102336600D01*
X103657400Y-102412800D01*
X106705400Y-100863400D01*
X106553000Y-91770200D01*
X106476800Y-83388200D01*
X105486200Y-82473800D01*
X91211400Y-82245200D01*
X91084400Y-79832200D01*
X106578400Y-79832200D01*
X107492800Y-80645000D01*
G37*
X107492800Y-80645000D02*
X108204000Y-81915000D01*
X108102400Y-101473000D01*
X108127800Y-103327200D01*
X106934000Y-104343200D01*
X105638600Y-104724200D01*
X96443800Y-104775000D01*
X93370400Y-106705400D01*
X93040200Y-131597400D01*
X94005400Y-134188200D01*
X96520000Y-136271000D01*
X99237800Y-136601200D01*
X122402600Y-136575800D01*
X122402600Y-140563600D01*
X89611200Y-141554200D01*
X88773000Y-102336600D01*
X103657400Y-102412800D01*
X106705400Y-100863400D01*
X106553000Y-91770200D01*
X106476800Y-83388200D01*
X105486200Y-82473800D01*
X91211400Y-82245200D01*
X91084400Y-79832200D01*
X106578400Y-79832200D01*
X107492800Y-80645000D01*
X97383600Y-91897200D02*
X101904800Y-91897200D01*
X101904800Y-91897200D02*
X101904800Y-93370400D01*
X101904800Y-93370400D02*
X97383600Y-93370400D01*
X97383600Y-93370400D02*
X97383600Y-91897200D01*
G36*
X97383600Y-91897200D02*
G01*
X101904800Y-91897200D01*
X101904800Y-93370400D01*
X97383600Y-93370400D01*
X97383600Y-91897200D01*
G37*
X207721200Y-108381800D02*
X204165200Y-108381800D01*
X204165200Y-108381800D02*
X204165200Y-112725200D01*
X204165200Y-112725200D02*
X207721200Y-112725200D01*
X207721200Y-112725200D02*
X207721200Y-108381800D01*
G36*
X207721200Y-108381800D02*
G01*
X204165200Y-108381800D01*
X204165200Y-112725200D01*
X207721200Y-112725200D01*
X207721200Y-108381800D01*
G37*
X97180400Y-82499200D02*
X99618800Y-82499200D01*
X99618800Y-82499200D02*
X99618800Y-83870800D01*
X99618800Y-83870800D02*
X97180400Y-83870800D01*
X97180400Y-83870800D02*
X97180400Y-82499200D01*
G36*
X97180400Y-82499200D02*
G01*
X99618800Y-82499200D01*
X99618800Y-83870800D01*
X97180400Y-83870800D01*
X97180400Y-82499200D01*
G37*
D11*
X186000000Y-136000000D02*
X198000000Y-124000000D01*
X91500000Y-69000000D02*
X91500000Y-80000000D01*
X95151800Y-91338400D02*
X95177200Y-84491200D01*
X146253200Y-130683000D02*
X163855400Y-130683000D01*
X163855400Y-130683000D02*
X163855400Y-136220200D01*
X163855400Y-136220200D02*
X146253200Y-136220200D01*
X146253200Y-136220200D02*
X146253200Y-130683000D01*
X107289600Y-82600800D02*
X107289600Y-102000000D01*
X104021800Y-91333000D02*
X104047200Y-84485800D01*
X91500000Y-80000000D02*
G75*
G03*
X93000000Y-82000000I1750000J-250000D01*
G01*
X100000000Y-61999995D02*
G75*
G03*
X91500000Y-69000000I-78860J-8564955D01*
G01*
X95168400Y-100333800D02*
X104038400Y-100333800D01*
X91500000Y-130750000D02*
G75*
G03*
X99250000Y-138000000I7563800J318200D01*
G01*
X95151800Y-93838400D02*
X95168400Y-100333800D01*
X200000005Y-123000022D02*
G75*
G03*
X198000000Y-124000000I865995J-4232078D01*
G01*
X218000000Y-123000000D02*
X218000000Y-69000000D01*
X93000000Y-103500000D02*
X106000000Y-103500000D01*
X106324400Y-81985800D02*
X107289600Y-82600800D01*
X181000000Y-138000013D02*
G75*
G03*
X186000000Y-136000000I-247500J7868713D01*
G01*
X104047200Y-81985800D02*
X106324400Y-81985800D01*
X99250000Y-138000000D02*
X181000000Y-138000000D01*
X104021800Y-93833000D02*
X104038400Y-100333800D01*
X91500000Y-130750000D02*
X91500000Y-105000000D01*
X105999998Y-103499995D02*
G75*
G03*
X107289600Y-102000000I-654198J1866795D01*
G01*
X93000000Y-82000000D02*
X95177200Y-81991200D01*
X218000000Y-123000000D02*
X200000000Y-123000000D01*
X218000023Y-68999996D02*
G75*
G03*
X210000000Y-62000000I-8171123J-1267004D01*
G01*
X210000000Y-62000000D02*
X100000000Y-62000000D01*
X93000000Y-103500000D02*
G75*
G03*
X91500000Y-105000000I143800J-1643800D01*
G01*
D12*
%TO.C,FID11*%
X95151800Y-93838400D02*
G75*
G03*
X95151800Y-91338400I0J1250000D01*
G01*
X104021800Y-91333000D02*
G75*
G03*
X104021800Y-93833000I0J-1250000D01*
G01*
%TO.C,FID12*%
X104047200Y-81985800D02*
G75*
G03*
X104047200Y-84485800I0J-1250000D01*
G01*
X95177200Y-84491200D02*
G75*
G03*
X95177200Y-81991200I0J1250000D01*
G01*
%TD*%
D13*
%TO.C,J12*%
X111658400Y-71170800D03*
D14*
X114198400Y-71170800D03*
%TD*%
D15*
%TO.C,C82*%
X98137200Y-132791200D03*
D16*
X116137200Y-132791200D03*
%TD*%
D17*
%TO.C,C85*%
X183147000Y-121259600D03*
X181597000Y-121259600D03*
%TD*%
%TO.C,C84*%
X136411000Y-65836800D03*
X134861000Y-65836800D03*
%TD*%
D18*
%TO.C,C83*%
X134772400Y-75857400D03*
X134772400Y-74307400D03*
%TD*%
D19*
%TO.C,Q11*%
X130165400Y-99921700D03*
X130165400Y-101191700D03*
X130165400Y-102461700D03*
X130165400Y-103731700D03*
X135315400Y-103731700D03*
X135315400Y-102461700D03*
X135315400Y-101191700D03*
X135315400Y-99921700D03*
%TD*%
D20*
%TO.C,J7*%
X95656400Y-74091800D03*
D21*
X100656400Y-74091800D03*
X105656400Y-74091800D03*
%TD*%
D22*
%TO.C,U2*%
X142956600Y-118128300D03*
X142456600Y-118128300D03*
X141956600Y-118128300D03*
X141456600Y-118128300D03*
X140956600Y-118128300D03*
X140456600Y-118128300D03*
D23*
X139769100Y-118815800D03*
X139769100Y-119315800D03*
X139769100Y-119815800D03*
X139769100Y-120315800D03*
X139769100Y-120815800D03*
X139769100Y-121315800D03*
D22*
X140456600Y-122003300D03*
X140956600Y-122003300D03*
X141456600Y-122003300D03*
X141956600Y-122003300D03*
X142456600Y-122003300D03*
X142956600Y-122003300D03*
D23*
X143644100Y-121315800D03*
X143644100Y-120815800D03*
X143644100Y-120315800D03*
X143644100Y-119815800D03*
X143644100Y-119315800D03*
X143644100Y-118815800D03*
D24*
X141706600Y-120065800D03*
%TD*%
D25*
%TO.C,U4*%
X116447996Y-67741800D03*
X116447996Y-66471800D03*
X116447996Y-65201800D03*
X116447996Y-63931800D03*
X111497996Y-63931800D03*
X111497996Y-65201800D03*
X111497996Y-66471800D03*
X111497996Y-67741800D03*
%TD*%
D26*
%TO.C,R51*%
X145161000Y-69215000D03*
X145161000Y-67390000D03*
%TD*%
D27*
%TO.C,C43*%
X209703500Y-106045000D03*
X211428500Y-106045000D03*
%TD*%
D28*
%TO.C,R5*%
X213256500Y-77343000D03*
X211431500Y-77343000D03*
%TD*%
D29*
%TO.C,C32*%
X171704000Y-126772500D03*
X171704000Y-128497500D03*
%TD*%
D26*
%TO.C,R34*%
X143510000Y-111427900D03*
X143510000Y-109602900D03*
%TD*%
D30*
%TO.C,R44*%
X146812000Y-72771000D03*
X146812000Y-74596000D03*
%TD*%
D31*
%TO.C,C1*%
X196975900Y-116281200D03*
X195250900Y-116281200D03*
%TD*%
D32*
%TO.C,Q12*%
X106560000Y-106904000D03*
X106560000Y-107554000D03*
X106560000Y-108204000D03*
X109220000Y-108204000D03*
X109220000Y-107554000D03*
X109220000Y-106904000D03*
%TD*%
D33*
%TO.C,R78*%
X126720600Y-120775100D03*
X126720600Y-118950100D03*
%TD*%
D30*
%TO.C,R13*%
X201549000Y-86082500D03*
X201549000Y-87907500D03*
%TD*%
D34*
%TO.C,C2*%
X168148000Y-87291400D03*
X168148000Y-79891400D03*
%TD*%
D35*
%TO.C,FID11*%
X98251800Y-91338400D03*
X100951800Y-91338400D03*
X100051800Y-93827600D03*
X100051800Y-91338400D03*
X102751800Y-91338400D03*
X96451800Y-91338400D03*
X100951800Y-93827600D03*
X97351800Y-91338400D03*
X99151800Y-93827600D03*
X102751800Y-93827600D03*
X96451800Y-93827600D03*
X97351800Y-93827600D03*
X101851800Y-91338400D03*
X98251800Y-93827600D03*
X99151800Y-91338400D03*
X101851800Y-93827600D03*
%TD*%
D36*
%TO.C,SW2*%
X174324400Y-121053600D03*
X174324400Y-127053600D03*
X178024400Y-127053600D03*
X178024400Y-121053600D03*
%TD*%
D28*
%TO.C,R60*%
X204493500Y-105333800D03*
X202668500Y-105333800D03*
%TD*%
D31*
%TO.C,C50*%
X124052500Y-104902000D03*
X122327500Y-104902000D03*
%TD*%
D37*
%TO.C,C63*%
X113897500Y-78663800D03*
X115972500Y-78663800D03*
%TD*%
D28*
%TO.C,R103*%
X154479000Y-76962000D03*
X152654000Y-76962000D03*
%TD*%
D35*
%TO.C,FID12*%
X101877200Y-84480400D03*
X98277200Y-84480400D03*
X97377200Y-81991200D03*
X99177200Y-84480400D03*
X99177200Y-81991200D03*
X100077200Y-81991200D03*
X97377200Y-84480400D03*
X98277200Y-81991200D03*
X102777200Y-81991200D03*
X100077200Y-84480400D03*
X96477200Y-81991200D03*
X102777200Y-84480400D03*
X101877200Y-81991200D03*
X100977200Y-84480400D03*
X96477200Y-84480400D03*
X100977200Y-81991200D03*
%TD*%
D38*
%TO.C,U1*%
X174994800Y-86234000D03*
X174994800Y-87234000D03*
X174994800Y-88234000D03*
X174994800Y-89234000D03*
X174994800Y-90234000D03*
X174994800Y-91234000D03*
X174994800Y-92234000D03*
X174994800Y-93234000D03*
X174994800Y-94234000D03*
X174994800Y-95234000D03*
X174994800Y-96234000D03*
X174994800Y-97234000D03*
X174994800Y-98234000D03*
X174994800Y-99234000D03*
X174994800Y-100234000D03*
X174994800Y-101234000D03*
X174994800Y-102234000D03*
D39*
X178994800Y-106234000D03*
X179994800Y-106234000D03*
X180994800Y-106234000D03*
X181994800Y-106234000D03*
X182994800Y-106234000D03*
X183994800Y-106234000D03*
X184994800Y-106234000D03*
X185994800Y-106234000D03*
X186994800Y-106234000D03*
X187994800Y-106234000D03*
X188994800Y-106234000D03*
X189994800Y-106234000D03*
X190994800Y-106234000D03*
X191994800Y-106234000D03*
X192994800Y-106234000D03*
X193994800Y-106234000D03*
X194994800Y-106234000D03*
D38*
X198994800Y-102234000D03*
X198994800Y-101234000D03*
X198994800Y-100234000D03*
X198994800Y-99234000D03*
X198994800Y-98234000D03*
X198994800Y-97234000D03*
X198994800Y-96234000D03*
X198994800Y-95234000D03*
X198994800Y-94234000D03*
X198994800Y-93234000D03*
X198994800Y-92234000D03*
X198994800Y-91234000D03*
X198994800Y-90234000D03*
X198994800Y-89234000D03*
X198994800Y-88234000D03*
X198994800Y-87234000D03*
X198994800Y-86234000D03*
D39*
X194994800Y-82234000D03*
X193994800Y-82234000D03*
X192994800Y-82234000D03*
X191994800Y-82234000D03*
X190994800Y-82234000D03*
X189994800Y-82234000D03*
X188994800Y-82234000D03*
X187994800Y-82234000D03*
X186994800Y-82234000D03*
X185994800Y-82234000D03*
X184994800Y-82234000D03*
X183994800Y-82234000D03*
X182994800Y-82234000D03*
X181994800Y-82234000D03*
X180994800Y-82234000D03*
X179994800Y-82234000D03*
X178994800Y-82234000D03*
%TD*%
D40*
%TO.C,D3*%
X209282000Y-79171800D03*
X207532000Y-79171800D03*
%TD*%
D30*
%TO.C,R115*%
X189153800Y-126339600D03*
X189153800Y-128164600D03*
%TD*%
%TO.C,R106*%
X109601000Y-109831500D03*
X109601000Y-111656500D03*
%TD*%
D41*
%TO.C,Q10*%
X123783500Y-94802000D03*
X124433500Y-94802000D03*
X125083500Y-94802000D03*
X125083500Y-92142000D03*
X124433500Y-92142000D03*
X123783500Y-92142000D03*
%TD*%
D42*
%TO.C,U7*%
X156083000Y-68137000D03*
X154813000Y-68137000D03*
X153543000Y-68137000D03*
X152273000Y-68137000D03*
X152273000Y-73087000D03*
X153543000Y-73087000D03*
X154813000Y-73087000D03*
X156083000Y-73087000D03*
%TD*%
D43*
%TO.C,JP6*%
X118237000Y-84063600D03*
D44*
X118237000Y-82763600D03*
%TD*%
D45*
%TO.C,U20*%
X100648200Y-96327000D03*
X100648200Y-96977000D03*
X100648200Y-97627000D03*
X100648200Y-98277000D03*
X98598200Y-98277000D03*
X98598200Y-97627000D03*
X98598200Y-96977000D03*
X98598200Y-96327000D03*
%TD*%
D46*
%TO.C,C46*%
X118413700Y-93348900D03*
X118413700Y-95423900D03*
%TD*%
D30*
%TO.C,R47*%
X145161000Y-76280000D03*
X145161000Y-78105000D03*
%TD*%
D28*
%TO.C,R43*%
X150264500Y-72898000D03*
X148439500Y-72898000D03*
%TD*%
D26*
%TO.C,R82*%
X114604800Y-95298900D03*
X114604800Y-93473900D03*
%TD*%
D46*
%TO.C,C20*%
X167690800Y-126800700D03*
X167690800Y-128875700D03*
%TD*%
D47*
%TO.C,R40*%
X140641700Y-114604800D03*
X142466700Y-114604800D03*
%TD*%
D30*
%TO.C,R84*%
X128016000Y-100255700D03*
X128016000Y-102080700D03*
%TD*%
D48*
%TO.C,C9*%
X189026800Y-115808800D03*
X189026800Y-113908800D03*
%TD*%
D30*
%TO.C,R104*%
X104521000Y-108180500D03*
X104521000Y-110005500D03*
%TD*%
%TO.C,R90*%
X112014000Y-79759800D03*
X112014000Y-81584800D03*
%TD*%
D49*
%TO.C,D6*%
X119330200Y-76682600D03*
X122630200Y-76682600D03*
%TD*%
D50*
%TO.C,J18*%
X150353000Y-103378000D03*
X145303000Y-103378000D03*
X150353000Y-100838000D03*
X145303000Y-100838000D03*
%TD*%
D51*
%TO.C,H3*%
X210000000Y-100000000D03*
D52*
X210000000Y-100000000D03*
%TD*%
D53*
%TO.C,U13*%
X184652500Y-111592000D03*
X184652500Y-110942000D03*
X184652500Y-110292000D03*
X184652500Y-109642000D03*
X182377500Y-109642000D03*
X182377500Y-110292000D03*
X182377500Y-110942000D03*
X182377500Y-111592000D03*
%TD*%
D52*
%TO.C,H5*%
X125000000Y-70000000D03*
D51*
X125000000Y-70000000D03*
%TD*%
D26*
%TO.C,R57*%
X145161000Y-65532000D03*
X145161000Y-63707000D03*
%TD*%
D29*
%TO.C,C22*%
X118491000Y-65177500D03*
X118491000Y-66902500D03*
%TD*%
D31*
%TO.C,C11*%
X171779100Y-92506800D03*
X170054100Y-92506800D03*
%TD*%
%TO.C,C70*%
X160883600Y-88596300D03*
X159158600Y-88596300D03*
%TD*%
%TO.C,C45*%
X112774900Y-95326200D03*
X111049900Y-95326200D03*
%TD*%
D28*
%TO.C,R71*%
X122120200Y-91694000D03*
X120295200Y-91694000D03*
%TD*%
D30*
%TO.C,R89*%
X113614200Y-81256500D03*
X113614200Y-83081500D03*
%TD*%
D54*
%TO.C,C65*%
X111988600Y-78075700D03*
X111988600Y-76000700D03*
%TD*%
D30*
%TO.C,R56*%
X136398000Y-67413500D03*
X136398000Y-69238500D03*
%TD*%
D47*
%TO.C,R48*%
X155043500Y-65913000D03*
X156868500Y-65913000D03*
%TD*%
D55*
%TO.C,TP3*%
X186740800Y-113690400D03*
%TD*%
D54*
%TO.C,C47*%
X116382800Y-95423900D03*
X116382800Y-93348900D03*
%TD*%
D56*
%TO.C,C72*%
X157200600Y-83108800D03*
X157200600Y-81383800D03*
%TD*%
D47*
%TO.C,R64*%
X124792100Y-134772400D03*
X126617100Y-134772400D03*
%TD*%
D57*
%TO.C,J4*%
X196000000Y-69000000D03*
D58*
X193460000Y-66460000D03*
X198540000Y-66460000D03*
X198540000Y-71540000D03*
X193460000Y-71540000D03*
%TD*%
D40*
%TO.C,D14*%
X126579600Y-136423400D03*
X124829600Y-136423400D03*
%TD*%
D59*
%TO.C,D19*%
X169570400Y-109107000D03*
X169570400Y-110857000D03*
%TD*%
D28*
%TO.C,R17*%
X213256500Y-80924400D03*
X211431500Y-80924400D03*
%TD*%
D47*
%TO.C,R59*%
X149225000Y-76962000D03*
X151050000Y-76962000D03*
%TD*%
D28*
%TO.C,R52*%
X150264500Y-69088000D03*
X148439500Y-69088000D03*
%TD*%
D45*
%TO.C,U5*%
X165515400Y-104266800D03*
X165515400Y-104916800D03*
X165515400Y-105566800D03*
X165515400Y-106216800D03*
X163465400Y-106216800D03*
X163465400Y-105566800D03*
X163465400Y-104916800D03*
X163465400Y-104266800D03*
%TD*%
D28*
%TO.C,R7*%
X213256500Y-79146400D03*
X211431500Y-79146400D03*
%TD*%
D60*
%TO.C,U11*%
X146935200Y-86578400D03*
X146935200Y-87528400D03*
X146935200Y-88478400D03*
X149635200Y-88478400D03*
X149635200Y-86578400D03*
%TD*%
D30*
%TO.C,R30*%
X143992600Y-125782700D03*
X143992600Y-127607700D03*
%TD*%
D31*
%TO.C,C77*%
X161898500Y-104851200D03*
X160173500Y-104851200D03*
%TD*%
D28*
%TO.C,R6*%
X213256500Y-75539600D03*
X211431500Y-75539600D03*
%TD*%
D61*
%TO.C,J14*%
X105410000Y-119278400D03*
D62*
X100410000Y-119278400D03*
D21*
X95410000Y-119278400D03*
%TD*%
D28*
%TO.C,R54*%
X154479000Y-78613000D03*
X152654000Y-78613000D03*
%TD*%
D40*
%TO.C,D2*%
X209282000Y-75539600D03*
X207532000Y-75539600D03*
%TD*%
D30*
%TO.C,R109*%
X155600400Y-98503100D03*
X155600400Y-100328100D03*
%TD*%
D26*
%TO.C,R98*%
X168046400Y-110894500D03*
X168046400Y-109069500D03*
%TD*%
D63*
%TO.C,D15*%
X120446800Y-95159800D03*
X120446800Y-93409800D03*
%TD*%
D31*
%TO.C,C66*%
X116153100Y-84632800D03*
X114428100Y-84632800D03*
%TD*%
D64*
%TO.C,J5*%
X210896200Y-89941400D03*
D58*
X210896200Y-86349298D03*
X214488302Y-89941400D03*
X210896200Y-93533502D03*
X207304098Y-89941400D03*
%TD*%
D30*
%TO.C,R93*%
X109474000Y-95455100D03*
X109474000Y-97280100D03*
%TD*%
D28*
%TO.C,R73*%
X124457000Y-97129600D03*
X122632000Y-97129600D03*
%TD*%
D29*
%TO.C,C39*%
X151892000Y-86107100D03*
X151892000Y-87832100D03*
%TD*%
D28*
%TO.C,R69*%
X124406200Y-100431600D03*
X122581200Y-100431600D03*
%TD*%
D26*
%TO.C,R24*%
X195707000Y-77366500D03*
X195707000Y-75541500D03*
%TD*%
D65*
%TO.C,D5*%
X192502000Y-109032000D03*
X192502000Y-109982000D03*
X192502000Y-110932000D03*
X195102000Y-110932000D03*
X195102000Y-109982000D03*
X195102000Y-109032000D03*
%TD*%
D29*
%TO.C,C28*%
X157861000Y-71146500D03*
X157861000Y-72871500D03*
%TD*%
D56*
%TO.C,C55*%
X128574800Y-120699700D03*
X128574800Y-118974700D03*
%TD*%
D30*
%TO.C,R12*%
X203454000Y-85320500D03*
X203454000Y-87145500D03*
%TD*%
D66*
%TO.C,J2*%
X173000000Y-69000000D03*
D58*
X175540000Y-66460000D03*
X170460000Y-66460000D03*
X175540000Y-71540000D03*
X170460000Y-71540000D03*
%TD*%
D31*
%TO.C,C61*%
X123163500Y-87122000D03*
X121438500Y-87122000D03*
%TD*%
D55*
%TO.C,TP4*%
X186944000Y-111125000D03*
%TD*%
D67*
%TO.C,FID1*%
X205740000Y-102539800D03*
%TD*%
D68*
%TO.C,U21*%
X208640000Y-112440800D03*
X208640000Y-111170800D03*
X208640000Y-109900800D03*
X208640000Y-108630800D03*
X203240000Y-108630800D03*
X203240000Y-109900800D03*
X203240000Y-111170800D03*
X203240000Y-112440800D03*
%TD*%
D26*
%TO.C,R53*%
X146812000Y-69238500D03*
X146812000Y-67413500D03*
%TD*%
D45*
%TO.C,U22*%
X100686984Y-86890784D03*
X100686984Y-87540784D03*
X100686984Y-88190784D03*
X100686984Y-88840784D03*
X98636984Y-88840784D03*
X98636984Y-88190784D03*
X98636984Y-87540784D03*
X98636984Y-86890784D03*
%TD*%
D31*
%TO.C,C12*%
X194056000Y-77216000D03*
X192331000Y-77216000D03*
%TD*%
D30*
%TO.C,R112*%
X190703200Y-126339600D03*
X190703200Y-128164600D03*
%TD*%
D36*
%TO.C,SW1*%
X177922800Y-110639600D03*
X177922800Y-116639600D03*
X174222800Y-116639600D03*
X174222800Y-110639600D03*
%TD*%
D30*
%TO.C,R42*%
X145161000Y-72851000D03*
X145161000Y-74676000D03*
%TD*%
D47*
%TO.C,R50*%
X151614500Y-64262000D03*
X153439500Y-64262000D03*
%TD*%
D52*
%TO.C,H1*%
X125000000Y-130000000D03*
D51*
X125000000Y-130000000D03*
%TD*%
D13*
%TO.C,JP1*%
X183504600Y-75946000D03*
D14*
X186044600Y-75946000D03*
X188584600Y-75946000D03*
%TD*%
D27*
%TO.C,C53*%
X182881100Y-113131600D03*
X184606100Y-113131600D03*
%TD*%
D69*
%TO.C,J9*%
X141579600Y-69418200D03*
D70*
X141579600Y-67418200D03*
X141579600Y-65418200D03*
%TD*%
D71*
%TO.C,R81*%
X132103500Y-88138000D03*
X130278500Y-88138000D03*
%TD*%
D72*
%TO.C,U3*%
X163817000Y-128946800D03*
X163817000Y-127676800D03*
X163817000Y-126406800D03*
X163817000Y-125136800D03*
X163817000Y-123866800D03*
X163817000Y-122596800D03*
X163817000Y-121326800D03*
X163817000Y-120056800D03*
X163817000Y-118786800D03*
X163817000Y-117516800D03*
X163817000Y-116246800D03*
X163817000Y-114976800D03*
X163817000Y-113706800D03*
X163817000Y-112436800D03*
D73*
X162052000Y-111186800D03*
X160782000Y-111186800D03*
X159512000Y-111186800D03*
X158242000Y-111186800D03*
X156972000Y-111186800D03*
X155702000Y-111186800D03*
X154432000Y-111186800D03*
X153162000Y-111186800D03*
X151892000Y-111186800D03*
X150622000Y-111186800D03*
X149352000Y-111186800D03*
X148082000Y-111186800D03*
D72*
X146317000Y-112436800D03*
X146317000Y-113706800D03*
X146317000Y-114976800D03*
X146317000Y-116246800D03*
X146317000Y-117516800D03*
X146317000Y-118786800D03*
X146317000Y-120056800D03*
X146317000Y-121326800D03*
X146317000Y-122596800D03*
X146317000Y-123866800D03*
X146317000Y-125136800D03*
X146317000Y-126406800D03*
X146317000Y-127676800D03*
X146317000Y-128946800D03*
D74*
X155167000Y-122626800D03*
X157967000Y-121226800D03*
X156567000Y-122626800D03*
X155167000Y-121226800D03*
X156567000Y-119826800D03*
X157967000Y-122626800D03*
X155167000Y-119826800D03*
X157967000Y-119826800D03*
X156567000Y-121226800D03*
%TD*%
D75*
%TO.C,C15*%
X204724000Y-94996000D03*
X203504240Y-93776240D03*
%TD*%
D28*
%TO.C,R72*%
X124457000Y-98755200D03*
X122632000Y-98755200D03*
%TD*%
D76*
%TO.C,R23*%
X177734035Y-77277035D03*
X176443565Y-75986565D03*
%TD*%
D77*
%TO.C,C7*%
X176504880Y-78511120D03*
X175285120Y-79730880D03*
%TD*%
D47*
%TO.C,R102*%
X152654000Y-75311000D03*
X154479000Y-75311000D03*
%TD*%
D28*
%TO.C,R86*%
X125194700Y-79248000D03*
X123369700Y-79248000D03*
%TD*%
D30*
%TO.C,R111*%
X192227200Y-126339600D03*
X192227200Y-128164600D03*
%TD*%
D78*
%TO.C,C49*%
X123973500Y-106680000D03*
X121898500Y-106680000D03*
%TD*%
D79*
%TO.C,R62*%
X122657400Y-102895400D03*
X124482400Y-102895400D03*
%TD*%
D56*
%TO.C,C42*%
X150317200Y-84834900D03*
X150317200Y-83109900D03*
%TD*%
D47*
%TO.C,R20*%
X182856500Y-79806800D03*
X184681500Y-79806800D03*
%TD*%
D37*
%TO.C,C59*%
X126851500Y-80695800D03*
X128926500Y-80695800D03*
%TD*%
D80*
%TO.C,J13*%
X132838500Y-120721000D03*
X132838500Y-118221000D03*
X132838500Y-116221000D03*
X132838500Y-113721000D03*
D81*
X135238500Y-123791000D03*
X135238500Y-110651000D03*
%TD*%
D28*
%TO.C,R58*%
X156868500Y-64262000D03*
X155043500Y-64262000D03*
%TD*%
D29*
%TO.C,C23*%
X170180000Y-126772500D03*
X170180000Y-128497500D03*
%TD*%
D52*
%TO.C,H4*%
X185000000Y-70000000D03*
D51*
X185000000Y-70000000D03*
%TD*%
D28*
%TO.C,R66*%
X115824000Y-106603800D03*
X113999000Y-106603800D03*
%TD*%
D47*
%TO.C,R75*%
X121718700Y-89966800D03*
X123543700Y-89966800D03*
%TD*%
D82*
%TO.C,D18*%
X121985400Y-110109000D03*
X126985400Y-110109000D03*
%TD*%
D27*
%TO.C,C69*%
X159158600Y-90120300D03*
X160883600Y-90120300D03*
%TD*%
D30*
%TO.C,R92*%
X111887000Y-83796500D03*
X111887000Y-85621500D03*
%TD*%
D83*
%TO.C,L1*%
X113712300Y-101573500D03*
X119912300Y-101573500D03*
%TD*%
D27*
%TO.C,C26*%
X163506300Y-102997000D03*
X165231300Y-102997000D03*
%TD*%
D40*
%TO.C,D1*%
X209282000Y-77343000D03*
X207532000Y-77343000D03*
%TD*%
D31*
%TO.C,C33*%
X150976500Y-78613000D03*
X149251500Y-78613000D03*
%TD*%
D84*
%TO.C,IC1*%
X166454600Y-94687200D03*
X166454600Y-95337200D03*
X166454600Y-95987200D03*
X166454600Y-96637200D03*
X166454600Y-97287200D03*
X166454600Y-97937200D03*
X166454600Y-98587200D03*
X166454600Y-99237200D03*
X166454600Y-99887200D03*
X166454600Y-100537200D03*
X172330600Y-100537200D03*
X172330600Y-99887200D03*
X172330600Y-99237200D03*
X172330600Y-98587200D03*
X172330600Y-97937200D03*
X172330600Y-97287200D03*
X172330600Y-96637200D03*
X172330600Y-95987200D03*
X172330600Y-95337200D03*
X172330600Y-94687200D03*
%TD*%
D85*
%TO.C,D13*%
X126619000Y-113793000D03*
X126619000Y-117093000D03*
%TD*%
D47*
%TO.C,R91*%
X114378100Y-86283800D03*
X116203100Y-86283800D03*
%TD*%
D27*
%TO.C,C29*%
X155652300Y-96977200D03*
X157377300Y-96977200D03*
%TD*%
D56*
%TO.C,C81*%
X164592000Y-95223500D03*
X164592000Y-93498500D03*
%TD*%
D47*
%TO.C,R88*%
X123344300Y-82296000D03*
X125169300Y-82296000D03*
%TD*%
D29*
%TO.C,C71*%
X158724600Y-81383800D03*
X158724600Y-83108800D03*
%TD*%
D46*
%TO.C,C64*%
X110236000Y-79836100D03*
X110236000Y-81911100D03*
%TD*%
D37*
%TO.C,C58*%
X126852600Y-82719200D03*
X128927600Y-82719200D03*
%TD*%
D30*
%TO.C,R87*%
X120777000Y-83669500D03*
X120777000Y-85494500D03*
%TD*%
D86*
%TO.C,R25*%
X204586765Y-97419235D03*
X205877235Y-96128765D03*
%TD*%
D27*
%TO.C,C79*%
X156236500Y-75311000D03*
X157961500Y-75311000D03*
%TD*%
D30*
%TO.C,R105*%
X108077000Y-109808000D03*
X108077000Y-111633000D03*
%TD*%
D26*
%TO.C,R55*%
X136398000Y-75842500D03*
X136398000Y-74017500D03*
%TD*%
%TO.C,R99*%
X110363000Y-85621500D03*
X110363000Y-83796500D03*
%TD*%
D65*
%TO.C,D7*%
X193578000Y-115885000D03*
X193578000Y-114935000D03*
X193578000Y-113985000D03*
X190978000Y-113985000D03*
X190978000Y-114935000D03*
X190978000Y-115885000D03*
%TD*%
D26*
%TO.C,R22*%
X196951600Y-113383700D03*
X196951600Y-111558700D03*
%TD*%
D29*
%TO.C,C21*%
X165862000Y-127026500D03*
X165862000Y-128751500D03*
%TD*%
D28*
%TO.C,R85*%
X125194700Y-80772000D03*
X123369700Y-80772000D03*
%TD*%
D31*
%TO.C,C73*%
X150214500Y-67437000D03*
X148489500Y-67437000D03*
%TD*%
D63*
%TO.C,D8*%
X141503400Y-126224000D03*
X141503400Y-124474000D03*
%TD*%
D61*
%TO.C,J11*%
X121996200Y-119303800D03*
D21*
X116996200Y-119303800D03*
X111996200Y-119303800D03*
%TD*%
D78*
%TO.C,C62*%
X118055300Y-80721200D03*
X115980300Y-80721200D03*
%TD*%
D63*
%TO.C,D9*%
X139903200Y-126224000D03*
X139903200Y-124474000D03*
%TD*%
D75*
%TO.C,C14*%
X203454000Y-96266000D03*
X202234240Y-95046240D03*
%TD*%
D28*
%TO.C,R83*%
X130198500Y-105458900D03*
X128373500Y-105458900D03*
%TD*%
%TO.C,R41*%
X146124300Y-107645200D03*
X144299300Y-107645200D03*
%TD*%
D37*
%TO.C,C60*%
X126851500Y-84734400D03*
X128926500Y-84734400D03*
%TD*%
D28*
%TO.C,R65*%
X116990500Y-91059000D03*
X115165500Y-91059000D03*
%TD*%
D77*
%TO.C,C8*%
X175107880Y-77241120D03*
X173888120Y-78460880D03*
%TD*%
D56*
%TO.C,C30*%
X146812000Y-65505500D03*
X146812000Y-63780500D03*
%TD*%
D87*
%TO.C,Q8*%
X117687800Y-111988600D03*
X117687800Y-110718600D03*
X117687800Y-109448600D03*
X117687800Y-108178600D03*
X112537800Y-108178600D03*
X112537800Y-109448600D03*
X112537800Y-110718600D03*
X112537800Y-111988600D03*
%TD*%
D30*
%TO.C,R45*%
X157861000Y-67691000D03*
X157861000Y-69516000D03*
%TD*%
D82*
%TO.C,D10*%
X129797800Y-97155000D03*
X134797800Y-97155000D03*
%TD*%
D55*
%TO.C,TP1*%
X186690000Y-116281200D03*
%TD*%
D54*
%TO.C,C57*%
X124993400Y-86432300D03*
X124993400Y-84357300D03*
%TD*%
D28*
%TO.C,R27*%
X183157500Y-119634000D03*
X181332500Y-119634000D03*
%TD*%
D88*
%TO.C,U8*%
X154248800Y-88678800D03*
X154748800Y-88678800D03*
X155248800Y-88678800D03*
X155748800Y-88678800D03*
X156248800Y-88678800D03*
X156748800Y-88678800D03*
D89*
X157486300Y-87941300D03*
X157486300Y-87441300D03*
X157486300Y-86941300D03*
X157486300Y-86441300D03*
X157486300Y-85941300D03*
X157486300Y-85441300D03*
D88*
X156748800Y-84703800D03*
X156248800Y-84703800D03*
X155748800Y-84703800D03*
X155248800Y-84703800D03*
X154748800Y-84703800D03*
X154248800Y-84703800D03*
D89*
X153511300Y-85441300D03*
X153511300Y-85941300D03*
X153511300Y-86441300D03*
X153511300Y-86941300D03*
X153511300Y-87441300D03*
X153511300Y-87941300D03*
D90*
X155498800Y-86691300D03*
%TD*%
D30*
%TO.C,R74*%
X126746000Y-93042100D03*
X126746000Y-94867100D03*
%TD*%
D54*
%TO.C,C3*%
X173075600Y-90750300D03*
X173075600Y-88675300D03*
%TD*%
D52*
%TO.C,H2*%
X185000000Y-130000000D03*
D51*
X185000000Y-130000000D03*
%TD*%
D91*
%TO.C,JP5*%
X135636000Y-92714600D03*
D92*
X135636000Y-91414600D03*
D93*
X135636000Y-90114600D03*
%TD*%
D29*
%TO.C,C27*%
X146812000Y-76353500D03*
X146812000Y-78078500D03*
%TD*%
D69*
%TO.C,J8*%
X141579600Y-78257400D03*
D70*
X141579600Y-76257400D03*
X141579600Y-74257400D03*
%TD*%
D94*
%TO.C,FB2*%
X128143000Y-122926600D03*
X128143000Y-124926600D03*
%TD*%
D95*
%TO.C,J1*%
X201012400Y-117505000D03*
X201012400Y-116265000D03*
X201012400Y-113725000D03*
X215486400Y-117505000D03*
X215486400Y-116265000D03*
X215486400Y-113725000D03*
D96*
X200782400Y-120360000D03*
X200782400Y-109510000D03*
D97*
X214092400Y-121195000D03*
X214092400Y-108675000D03*
%TD*%
D27*
%TO.C,C41*%
X149759500Y-90120300D03*
X151484500Y-90120300D03*
%TD*%
D31*
%TO.C,C13*%
X194056000Y-75692000D03*
X192331000Y-75692000D03*
%TD*%
%TO.C,C68*%
X150214500Y-74549000D03*
X148489500Y-74549000D03*
%TD*%
D13*
%TO.C,J3*%
X188468000Y-119380000D03*
D14*
X191008000Y-119380000D03*
X193548000Y-119380000D03*
X196088000Y-119380000D03*
%TD*%
D27*
%TO.C,C25*%
X146254300Y-109194600D03*
X147979300Y-109194600D03*
%TD*%
D63*
%TO.C,D16*%
X122045900Y-95173800D03*
X122045900Y-93423800D03*
%TD*%
D55*
%TO.C,TP2*%
X172694600Y-103225600D03*
%TD*%
D40*
%TO.C,D4*%
X209282000Y-80949800D03*
X207532000Y-80949800D03*
%TD*%
D41*
%TO.C,Q6*%
X140624800Y-112480400D03*
X141274800Y-112480400D03*
X141924800Y-112480400D03*
X141924800Y-109820400D03*
X141274800Y-109820400D03*
X140624800Y-109820400D03*
%TD*%
D98*
%TO.C,J6*%
X170216399Y-120488028D03*
X182244465Y-116110171D03*
%TD*%
G36*
X182959414Y-111182146D02*
G01*
X182959804Y-111184108D01*
X182959020Y-111185129D01*
X182958701Y-111185342D01*
X182921038Y-111233118D01*
X182918663Y-111293573D01*
X182952439Y-111344122D01*
X182958470Y-111348504D01*
X182959020Y-111348871D01*
X182959906Y-111350665D01*
X182958796Y-111352328D01*
X182957520Y-111352497D01*
X182914801Y-111344000D01*
X181840199Y-111344000D01*
X181797480Y-111352497D01*
X181795586Y-111351854D01*
X181795196Y-111349892D01*
X181795980Y-111348871D01*
X181796299Y-111348658D01*
X181833962Y-111300882D01*
X181836337Y-111240427D01*
X181802561Y-111189878D01*
X181796530Y-111185496D01*
X181795980Y-111185129D01*
X181795094Y-111183335D01*
X181796204Y-111181672D01*
X181797480Y-111181503D01*
X181840199Y-111190000D01*
X182914801Y-111190000D01*
X182957520Y-111181503D01*
X182959414Y-111182146D01*
G37*
G36*
X185234414Y-111182146D02*
G01*
X185234804Y-111184108D01*
X185234020Y-111185129D01*
X185233701Y-111185342D01*
X185196038Y-111233118D01*
X185193663Y-111293573D01*
X185227439Y-111344122D01*
X185233470Y-111348504D01*
X185234020Y-111348871D01*
X185234906Y-111350665D01*
X185233796Y-111352328D01*
X185232520Y-111352497D01*
X185189801Y-111344000D01*
X184115199Y-111344000D01*
X184072480Y-111352497D01*
X184070586Y-111351854D01*
X184070196Y-111349892D01*
X184070980Y-111348871D01*
X184071299Y-111348658D01*
X184108962Y-111300882D01*
X184111337Y-111240427D01*
X184077561Y-111189878D01*
X184071530Y-111185496D01*
X184070980Y-111185129D01*
X184070094Y-111183335D01*
X184071204Y-111181672D01*
X184072480Y-111181503D01*
X184115199Y-111190000D01*
X185189801Y-111190000D01*
X185232520Y-111181503D01*
X185234414Y-111182146D01*
G37*
G36*
X182959414Y-110532146D02*
G01*
X182959804Y-110534108D01*
X182959020Y-110535129D01*
X182958701Y-110535342D01*
X182921038Y-110583118D01*
X182918663Y-110643573D01*
X182952439Y-110694122D01*
X182958470Y-110698504D01*
X182959020Y-110698871D01*
X182959906Y-110700665D01*
X182958796Y-110702328D01*
X182957520Y-110702497D01*
X182914801Y-110694000D01*
X181840199Y-110694000D01*
X181797480Y-110702497D01*
X181795586Y-110701854D01*
X181795196Y-110699892D01*
X181795980Y-110698871D01*
X181796299Y-110698658D01*
X181833962Y-110650882D01*
X181836337Y-110590427D01*
X181802561Y-110539878D01*
X181796530Y-110535496D01*
X181795980Y-110535129D01*
X181795094Y-110533335D01*
X181796204Y-110531672D01*
X181797480Y-110531503D01*
X181840199Y-110540000D01*
X182914801Y-110540000D01*
X182957520Y-110531503D01*
X182959414Y-110532146D01*
G37*
G36*
X185234414Y-110532146D02*
G01*
X185234804Y-110534108D01*
X185234020Y-110535129D01*
X185233701Y-110535342D01*
X185196038Y-110583118D01*
X185193663Y-110643573D01*
X185227439Y-110694122D01*
X185233470Y-110698504D01*
X185234020Y-110698871D01*
X185234906Y-110700665D01*
X185233796Y-110702328D01*
X185232520Y-110702497D01*
X185189801Y-110694000D01*
X184115199Y-110694000D01*
X184072480Y-110702497D01*
X184070586Y-110701854D01*
X184070196Y-110699892D01*
X184070980Y-110698871D01*
X184071299Y-110698658D01*
X184108962Y-110650882D01*
X184111337Y-110590427D01*
X184077561Y-110539878D01*
X184071530Y-110535496D01*
X184070980Y-110535129D01*
X184070094Y-110533335D01*
X184071204Y-110531672D01*
X184072480Y-110531503D01*
X184115199Y-110540000D01*
X185189801Y-110540000D01*
X185232520Y-110531503D01*
X185234414Y-110532146D01*
G37*
G36*
X182959414Y-109882146D02*
G01*
X182959804Y-109884108D01*
X182959020Y-109885129D01*
X182958701Y-109885342D01*
X182921038Y-109933118D01*
X182918663Y-109993573D01*
X182952439Y-110044122D01*
X182958470Y-110048504D01*
X182959020Y-110048871D01*
X182959906Y-110050665D01*
X182958796Y-110052328D01*
X182957520Y-110052497D01*
X182914801Y-110044000D01*
X181840199Y-110044000D01*
X181797480Y-110052497D01*
X181795586Y-110051854D01*
X181795196Y-110049892D01*
X181795980Y-110048871D01*
X181796299Y-110048658D01*
X181833962Y-110000882D01*
X181836337Y-109940427D01*
X181802561Y-109889878D01*
X181796530Y-109885496D01*
X181795980Y-109885129D01*
X181795094Y-109883335D01*
X181796204Y-109881672D01*
X181797480Y-109881503D01*
X181840199Y-109890000D01*
X182914801Y-109890000D01*
X182957520Y-109881503D01*
X182959414Y-109882146D01*
G37*
G36*
X185234414Y-109882146D02*
G01*
X185234804Y-109884108D01*
X185234020Y-109885129D01*
X185233701Y-109885342D01*
X185196038Y-109933118D01*
X185193663Y-109993573D01*
X185227439Y-110044122D01*
X185233470Y-110048504D01*
X185234020Y-110048871D01*
X185234906Y-110050665D01*
X185233796Y-110052328D01*
X185232520Y-110052497D01*
X185189801Y-110044000D01*
X184115199Y-110044000D01*
X184072480Y-110052497D01*
X184070586Y-110051854D01*
X184070196Y-110049892D01*
X184070980Y-110048871D01*
X184071299Y-110048658D01*
X184108962Y-110000882D01*
X184111337Y-109940427D01*
X184077561Y-109889878D01*
X184071530Y-109885496D01*
X184070980Y-109885129D01*
X184070094Y-109883335D01*
X184071204Y-109881672D01*
X184072480Y-109881503D01*
X184115199Y-109890000D01*
X185189801Y-109890000D01*
X185232520Y-109881503D01*
X185234414Y-109882146D01*
G37*
M02*
