M48
; DRILL file {KiCad (6.0.9)} date Wed Nov 23 10:46:46 2022
; FORMAT={-:-/ absolute / metric / decimal}
; #@! TF.CreationDate,2022-11-23T10:46:46+02:00
; #@! TF.GenerationSoftware,Kicad,Pcbnew,(6.0.9)
; #@! TF.FileFunction,NonPlated,1,4,NPTH
FMAT,2
METRIC
; #@! TA.AperFunction,NonPlated,NPTH,ComponentDrill
T1C0.600
%
G90
G05
T1
X96.452Y-91.338
X96.452Y-93.828
X96.477Y-81.991
X96.477Y-84.48
X97.352Y-91.338
X97.352Y-93.828
X97.377Y-81.991
X97.377Y-84.48
X98.252Y-91.338
X98.252Y-93.828
X98.277Y-81.991
X98.277Y-84.48
X99.152Y-91.338
X99.152Y-93.828
X99.177Y-81.991
X99.177Y-84.48
X100.052Y-91.338
X100.052Y-93.828
X100.077Y-81.991
X100.077Y-84.48
X100.952Y-91.338
X100.952Y-93.828
X100.977Y-81.991
X100.977Y-84.48
X101.852Y-91.338
X101.852Y-93.828
X101.877Y-81.991
X101.877Y-84.48
X102.752Y-91.338
X102.752Y-93.828
X102.777Y-81.991
X102.777Y-84.48
T0
M30
