%TF.GenerationSoftware,KiCad,Pcbnew,(6.0.9)*%
%TF.CreationDate,2022-11-25T15:53:44+02:00*%
%TF.ProjectId,Bird_detector_V1,42697264-5f64-4657-9465-63746f725f56,rev?*%
%TF.SameCoordinates,Original*%
%TF.FileFunction,Soldermask,Bot*%
%TF.FilePolarity,Negative*%
%FSLAX46Y46*%
G04 Gerber Fmt 4.6, Leading zero omitted, Abs format (unit mm)*
G04 Created by KiCad (PCBNEW (6.0.9)) date 2022-11-25 15:53:44*
%MOMM*%
%LPD*%
G01*
G04 APERTURE LIST*
G04 Aperture macros list*
%AMRoundRect*
0 Rectangle with rounded corners*
0 $1 Rounding radius*
0 $2 $3 $4 $5 $6 $7 $8 $9 X,Y pos of 4 corners*
0 Add a 4 corners polygon primitive as box body*
4,1,4,$2,$3,$4,$5,$6,$7,$8,$9,$2,$3,0*
0 Add four circle primitives for the rounded corners*
1,1,$1+$1,$2,$3*
1,1,$1+$1,$4,$5*
1,1,$1+$1,$6,$7*
1,1,$1+$1,$8,$9*
0 Add four rect primitives between the rounded corners*
20,1,$1+$1,$2,$3,$4,$5,0*
20,1,$1+$1,$4,$5,$6,$7,0*
20,1,$1+$1,$6,$7,$8,$9,0*
20,1,$1+$1,$8,$9,$2,$3,0*%
%AMRotRect*
0 Rectangle, with rotation*
0 The origin of the aperture is its center*
0 $1 length*
0 $2 width*
0 $3 Rotation angle, in degrees counterclockwise*
0 Add horizontal line*
21,1,$1,$2,0,0,$3*%
%AMFreePoly0*
4,1,22,0.550000,-0.750000,0.000000,-0.750000,0.000000,-0.745033,-0.079941,-0.743568,-0.215256,-0.701293,-0.333266,-0.622738,-0.424486,-0.514219,-0.481581,-0.384460,-0.499164,-0.250000,-0.500000,-0.250000,-0.500000,0.250000,-0.499164,0.250000,-0.499963,0.256109,-0.478152,0.396186,-0.417904,0.524511,-0.324060,0.630769,-0.204165,0.706417,-0.067858,0.745374,0.000000,0.744959,0.000000,0.750000,
0.550000,0.750000,0.550000,-0.750000,0.550000,-0.750000,$1*%
%AMFreePoly1*
4,1,20,0.000000,0.744959,0.073905,0.744508,0.209726,0.703889,0.328688,0.626782,0.421226,0.519385,0.479903,0.390333,0.500000,0.250000,0.500000,-0.250000,0.499851,-0.262216,0.476331,-0.402017,0.414519,-0.529596,0.319384,-0.634700,0.198574,-0.708877,0.061801,-0.746166,0.000000,-0.745033,0.000000,-0.750000,-0.550000,-0.750000,-0.550000,0.750000,0.000000,0.750000,0.000000,0.744959,
0.000000,0.744959,$1*%
G04 Aperture macros list end*
%ADD10C,0.150000*%
%ADD11C,0.200000*%
%TA.AperFunction,Profile*%
%ADD12C,0.100000*%
%TD*%
%TA.AperFunction,Profile*%
%ADD13C,0.120000*%
%TD*%
%ADD14R,1.700000X1.700000*%
%ADD15O,1.700000X1.700000*%
%ADD16C,3.000000*%
%ADD17R,2.500000X2.500000*%
%ADD18R,1.980000X3.960000*%
%ADD19O,1.980000X3.960000*%
%ADD20C,0.600000*%
%ADD21C,5.700000*%
%ADD22C,3.600000*%
%ADD23RoundRect,0.200100X-0.949900X0.949900X-0.949900X-0.949900X0.949900X-0.949900X0.949900X0.949900X0*%
%ADD24C,2.500000*%
%ADD25R,3.000000X5.000000*%
%ADD26O,3.000000X5.000000*%
%ADD27RoundRect,0.200100X1.343361X0.000000X0.000000X1.343361X-1.343361X0.000000X0.000000X-1.343361X0*%
%ADD28RoundRect,0.200100X0.949900X-0.949900X0.949900X0.949900X-0.949900X0.949900X-0.949900X-0.949900X0*%
%ADD29R,1.275000X1.275000*%
%ADD30C,1.275000*%
%ADD31C,1.400000*%
%ADD32C,3.450000*%
%ADD33R,1.560000X0.650000*%
%ADD34FreePoly0,180.000000*%
%ADD35R,1.000000X1.500000*%
%ADD36FreePoly1,180.000000*%
%ADD37R,1.150000X1.000000*%
%ADD38RoundRect,0.237500X-0.250000X-0.237500X0.250000X-0.237500X0.250000X0.237500X-0.250000X0.237500X0*%
%ADD39RoundRect,0.237500X0.237500X-0.300000X0.237500X0.300000X-0.237500X0.300000X-0.237500X-0.300000X0*%
%ADD40RoundRect,0.237500X0.250000X0.237500X-0.250000X0.237500X-0.250000X-0.237500X0.250000X-0.237500X0*%
%ADD41RoundRect,0.237500X-0.237500X0.250000X-0.237500X-0.250000X0.237500X-0.250000X0.237500X0.250000X0*%
%ADD42RoundRect,0.237500X0.237500X-0.250000X0.237500X0.250000X-0.237500X0.250000X-0.237500X-0.250000X0*%
%ADD43RoundRect,0.062500X0.062500X-0.375000X0.062500X0.375000X-0.062500X0.375000X-0.062500X-0.375000X0*%
%ADD44RoundRect,0.062500X0.375000X-0.062500X0.375000X0.062500X-0.375000X0.062500X-0.375000X-0.062500X0*%
%ADD45R,1.450000X1.450000*%
%ADD46R,1.300000X3.400000*%
%ADD47R,3.180000X1.270000*%
%ADD48RoundRect,0.237500X-0.300000X-0.237500X0.300000X-0.237500X0.300000X0.237500X-0.300000X0.237500X0*%
%ADD49RoundRect,0.250000X-0.475000X0.337500X-0.475000X-0.337500X0.475000X-0.337500X0.475000X0.337500X0*%
%ADD50R,3.150000X1.000000*%
%ADD51RoundRect,0.250000X-0.337500X-0.475000X0.337500X-0.475000X0.337500X0.475000X-0.337500X0.475000X0*%
%ADD52RoundRect,0.237500X0.300000X0.237500X-0.300000X0.237500X-0.300000X-0.237500X0.300000X-0.237500X0*%
%ADD53R,3.500000X1.800000*%
%ADD54RoundRect,0.237500X-0.237500X0.300000X-0.237500X-0.300000X0.237500X-0.300000X0.237500X0.300000X0*%
%ADD55O,0.600000X0.240000*%
%ADD56R,0.200000X0.775000*%
%ADD57R,1.580000X2.850000*%
%ADD58RoundRect,0.250000X-0.400000X-1.450000X0.400000X-1.450000X0.400000X1.450000X-0.400000X1.450000X0*%
%ADD59R,0.700000X0.510000*%
%ADD60R,0.800000X1.500000*%
%ADD61R,1.000000X0.950000*%
%ADD62R,1.300000X1.400000*%
%ADD63R,1.400000X1.900000*%
%ADD64FreePoly0,0.000000*%
%ADD65FreePoly1,0.000000*%
%ADD66R,1.500000X0.400000*%
%ADD67RoundRect,0.250000X0.475000X-0.337500X0.475000X0.337500X-0.475000X0.337500X-0.475000X-0.337500X0*%
%ADD68R,1.150000X0.600000*%
%ADD69RoundRect,0.250000X0.337500X0.475000X-0.337500X0.475000X-0.337500X-0.475000X0.337500X-0.475000X0*%
%ADD70O,0.240000X0.600000*%
%ADD71R,0.775000X0.200000*%
%ADD72R,2.850000X1.580000*%
%ADD73RoundRect,0.150000X0.150000X-0.825000X0.150000X0.825000X-0.150000X0.825000X-0.150000X-0.825000X0*%
%ADD74RoundRect,0.250000X0.400000X1.450000X-0.400000X1.450000X-0.400000X-1.450000X0.400000X-1.450000X0*%
%ADD75R,3.400000X1.300000*%
%ADD76RotRect,1.300000X3.000000X20.000000*%
%ADD77C,3.570000*%
%ADD78RoundRect,0.250000X-0.262500X-0.450000X0.262500X-0.450000X0.262500X0.450000X-0.262500X0.450000X0*%
%ADD79RoundRect,0.150000X0.725000X0.150000X-0.725000X0.150000X-0.725000X-0.150000X0.725000X-0.150000X0*%
%ADD80R,0.400000X1.500000*%
%ADD81R,1.200000X0.900000*%
%ADD82R,0.510000X1.100000*%
%ADD83RoundRect,0.218750X0.256250X-0.218750X0.256250X0.218750X-0.256250X0.218750X-0.256250X-0.218750X0*%
%ADD84RoundRect,0.100000X-0.637500X-0.100000X0.637500X-0.100000X0.637500X0.100000X-0.637500X0.100000X0*%
%ADD85RoundRect,0.150000X-0.587500X-0.150000X0.587500X-0.150000X0.587500X0.150000X-0.587500X0.150000X0*%
%ADD86RoundRect,0.087500X-0.087500X0.425000X-0.087500X-0.425000X0.087500X-0.425000X0.087500X0.425000X0*%
%ADD87RoundRect,0.087500X-0.425000X0.087500X-0.425000X-0.087500X0.425000X-0.087500X0.425000X0.087500X0*%
%ADD88R,2.100000X2.100000*%
%ADD89RoundRect,0.218750X-0.218750X-0.256250X0.218750X-0.256250X0.218750X0.256250X-0.218750X0.256250X0*%
G04 APERTURE END LIST*
D10*
G36*
X106730800Y-80619600D02*
G01*
X107442000Y-80924400D01*
X107899200Y-81432400D01*
X108204000Y-81940400D01*
X108102400Y-102565200D01*
X107696000Y-103530400D01*
X107137200Y-104190800D01*
X105816400Y-104444800D01*
X99568000Y-104444800D01*
X97129600Y-104902000D01*
X94742000Y-105714800D01*
X93675200Y-106426000D01*
X93167853Y-107848947D01*
X93117053Y-131521747D01*
X93268800Y-132943600D01*
X94081600Y-134112000D01*
X95351600Y-135280400D01*
X96977200Y-136194800D01*
X98450400Y-136499600D01*
X110490000Y-136448800D01*
X111760000Y-136702800D01*
X120904000Y-136448800D01*
X125730000Y-136601200D01*
X125831600Y-142544800D01*
X89560400Y-141274800D01*
X89154000Y-101904800D01*
X105105200Y-102158800D01*
X106832400Y-101244400D01*
X106629200Y-83007200D01*
X104089200Y-82346800D01*
X96113600Y-82448400D01*
X91998800Y-82956400D01*
X90424000Y-82651600D01*
X90576400Y-80264000D01*
X93319600Y-80264000D01*
X106730800Y-80619600D01*
G37*
X106730800Y-80619600D02*
X107442000Y-80924400D01*
X107899200Y-81432400D01*
X108204000Y-81940400D01*
X108102400Y-102565200D01*
X107696000Y-103530400D01*
X107137200Y-104190800D01*
X105816400Y-104444800D01*
X99568000Y-104444800D01*
X97129600Y-104902000D01*
X94742000Y-105714800D01*
X93675200Y-106426000D01*
X93167853Y-107848947D01*
X93117053Y-131521747D01*
X93268800Y-132943600D01*
X94081600Y-134112000D01*
X95351600Y-135280400D01*
X96977200Y-136194800D01*
X98450400Y-136499600D01*
X110490000Y-136448800D01*
X111760000Y-136702800D01*
X120904000Y-136448800D01*
X125730000Y-136601200D01*
X125831600Y-142544800D01*
X89560400Y-141274800D01*
X89154000Y-101904800D01*
X105105200Y-102158800D01*
X106832400Y-101244400D01*
X106629200Y-83007200D01*
X104089200Y-82346800D01*
X96113600Y-82448400D01*
X91998800Y-82956400D01*
X90424000Y-82651600D01*
X90576400Y-80264000D01*
X93319600Y-80264000D01*
X106730800Y-80619600D01*
D11*
G36*
X222199200Y-124155200D02*
G01*
X217576400Y-124561600D01*
X216916000Y-123494800D01*
X216966800Y-100634800D01*
X216865200Y-93573600D01*
X216966800Y-91236800D01*
X216865200Y-89509600D01*
X216154000Y-87172800D01*
X216052400Y-69443600D01*
X215392000Y-67157600D01*
X213868000Y-65532000D01*
X211785200Y-64465200D01*
X209550000Y-63754000D01*
X111404400Y-63957200D01*
X109982000Y-63296800D01*
X109169200Y-63144400D01*
X100076000Y-63246000D01*
X97840800Y-63957200D01*
X96062800Y-65176400D01*
X94742000Y-67411600D01*
X93776800Y-69443600D01*
X93675200Y-80467200D01*
X89103200Y-80619600D01*
X88646000Y-58572400D01*
X224383600Y-58216800D01*
X222199200Y-124155200D01*
G37*
X222199200Y-124155200D02*
X217576400Y-124561600D01*
X216916000Y-123494800D01*
X216966800Y-100634800D01*
X216865200Y-93573600D01*
X216966800Y-91236800D01*
X216865200Y-89509600D01*
X216154000Y-87172800D01*
X216052400Y-69443600D01*
X215392000Y-67157600D01*
X213868000Y-65532000D01*
X211785200Y-64465200D01*
X209550000Y-63754000D01*
X111404400Y-63957200D01*
X109982000Y-63296800D01*
X109169200Y-63144400D01*
X100076000Y-63246000D01*
X97840800Y-63957200D01*
X96062800Y-65176400D01*
X94742000Y-67411600D01*
X93776800Y-69443600D01*
X93675200Y-80467200D01*
X89103200Y-80619600D01*
X88646000Y-58572400D01*
X224383600Y-58216800D01*
X222199200Y-124155200D01*
D10*
X97383600Y-91897200D02*
X101904800Y-91897200D01*
X101904800Y-91897200D02*
X101904800Y-93370400D01*
X101904800Y-93370400D02*
X97383600Y-93370400D01*
X97383600Y-93370400D02*
X97383600Y-91897200D01*
G36*
X97383600Y-91897200D02*
G01*
X101904800Y-91897200D01*
X101904800Y-93370400D01*
X97383600Y-93370400D01*
X97383600Y-91897200D01*
G37*
D12*
X186000000Y-136000000D02*
X198000000Y-124000000D01*
X91500000Y-69000000D02*
X91500000Y-80000000D01*
X95151800Y-91338400D02*
X95177200Y-84491200D01*
X146253200Y-130683000D02*
X163855400Y-130683000D01*
X163855400Y-130683000D02*
X163855400Y-136220200D01*
X163855400Y-136220200D02*
X146253200Y-136220200D01*
X146253200Y-136220200D02*
X146253200Y-130683000D01*
X107289600Y-82600800D02*
X107289600Y-102000000D01*
X104021800Y-91333000D02*
X104047200Y-84485800D01*
X91500000Y-80000000D02*
G75*
G03*
X93000000Y-82000000I1750000J-250000D01*
G01*
X100000000Y-61999995D02*
G75*
G03*
X91500000Y-69000000I-78860J-8564955D01*
G01*
X95168400Y-100333800D02*
X104038400Y-100333800D01*
X91500000Y-130750000D02*
G75*
G03*
X99250000Y-138000000I7563800J318200D01*
G01*
X95151800Y-93838400D02*
X95168400Y-100333800D01*
X200000005Y-123000022D02*
G75*
G03*
X198000000Y-124000000I865995J-4232078D01*
G01*
X218000000Y-123000000D02*
X218000000Y-69000000D01*
X93000000Y-103500000D02*
X106000000Y-103500000D01*
X106324400Y-81985800D02*
X107289600Y-82600800D01*
X181000000Y-138000013D02*
G75*
G03*
X186000000Y-136000000I-247500J7868713D01*
G01*
X104047200Y-81985800D02*
X106324400Y-81985800D01*
X99250000Y-138000000D02*
X181000000Y-138000000D01*
X104021800Y-93833000D02*
X104038400Y-100333800D01*
X91500000Y-130750000D02*
X91500000Y-105000000D01*
X105999998Y-103499995D02*
G75*
G03*
X107289600Y-102000000I-654198J1866795D01*
G01*
X93000000Y-82000000D02*
X95177200Y-81991200D01*
X218000000Y-123000000D02*
X200000000Y-123000000D01*
X218000023Y-68999996D02*
G75*
G03*
X210000000Y-62000000I-8171123J-1267004D01*
G01*
X210000000Y-62000000D02*
X100000000Y-62000000D01*
X93000000Y-103500000D02*
G75*
G03*
X91500000Y-105000000I143800J-1643800D01*
G01*
D10*
G36*
X106730800Y-80619600D02*
G01*
X107442000Y-80924400D01*
X107899200Y-81432400D01*
X108204000Y-81940400D01*
X108102400Y-102565200D01*
X107696000Y-103530400D01*
X107137200Y-104190800D01*
X105816400Y-104444800D01*
X99568000Y-104444800D01*
X97129600Y-104902000D01*
X94742000Y-105714800D01*
X93675200Y-106426000D01*
X93167853Y-107848947D01*
X93117053Y-131521747D01*
X93268800Y-132943600D01*
X94081600Y-134112000D01*
X95351600Y-135280400D01*
X96977200Y-136194800D01*
X98450400Y-136499600D01*
X110490000Y-136448800D01*
X111760000Y-136702800D01*
X120904000Y-136448800D01*
X125730000Y-136601200D01*
X125831600Y-142544800D01*
X89560400Y-141274800D01*
X89154000Y-101904800D01*
X105105200Y-102158800D01*
X106832400Y-101244400D01*
X106629200Y-83007200D01*
X104089200Y-82346800D01*
X96113600Y-82448400D01*
X91998800Y-82956400D01*
X90424000Y-82651600D01*
X90576400Y-80264000D01*
X93319600Y-80264000D01*
X106730800Y-80619600D01*
G37*
X106730800Y-80619600D02*
X107442000Y-80924400D01*
X107899200Y-81432400D01*
X108204000Y-81940400D01*
X108102400Y-102565200D01*
X107696000Y-103530400D01*
X107137200Y-104190800D01*
X105816400Y-104444800D01*
X99568000Y-104444800D01*
X97129600Y-104902000D01*
X94742000Y-105714800D01*
X93675200Y-106426000D01*
X93167853Y-107848947D01*
X93117053Y-131521747D01*
X93268800Y-132943600D01*
X94081600Y-134112000D01*
X95351600Y-135280400D01*
X96977200Y-136194800D01*
X98450400Y-136499600D01*
X110490000Y-136448800D01*
X111760000Y-136702800D01*
X120904000Y-136448800D01*
X125730000Y-136601200D01*
X125831600Y-142544800D01*
X89560400Y-141274800D01*
X89154000Y-101904800D01*
X105105200Y-102158800D01*
X106832400Y-101244400D01*
X106629200Y-83007200D01*
X104089200Y-82346800D01*
X96113600Y-82448400D01*
X91998800Y-82956400D01*
X90424000Y-82651600D01*
X90576400Y-80264000D01*
X93319600Y-80264000D01*
X106730800Y-80619600D01*
D11*
G36*
X222199200Y-124155200D02*
G01*
X217576400Y-124561600D01*
X216916000Y-123494800D01*
X216966800Y-100634800D01*
X216865200Y-93573600D01*
X216966800Y-91236800D01*
X216865200Y-89509600D01*
X216154000Y-87172800D01*
X216052400Y-69443600D01*
X215392000Y-67157600D01*
X213868000Y-65532000D01*
X211785200Y-64465200D01*
X209550000Y-63754000D01*
X111404400Y-63957200D01*
X109982000Y-63296800D01*
X109169200Y-63144400D01*
X100076000Y-63246000D01*
X97840800Y-63957200D01*
X96062800Y-65176400D01*
X94742000Y-67411600D01*
X93776800Y-69443600D01*
X93675200Y-80467200D01*
X89103200Y-80619600D01*
X88646000Y-58572400D01*
X224383600Y-58216800D01*
X222199200Y-124155200D01*
G37*
X222199200Y-124155200D02*
X217576400Y-124561600D01*
X216916000Y-123494800D01*
X216966800Y-100634800D01*
X216865200Y-93573600D01*
X216966800Y-91236800D01*
X216865200Y-89509600D01*
X216154000Y-87172800D01*
X216052400Y-69443600D01*
X215392000Y-67157600D01*
X213868000Y-65532000D01*
X211785200Y-64465200D01*
X209550000Y-63754000D01*
X111404400Y-63957200D01*
X109982000Y-63296800D01*
X109169200Y-63144400D01*
X100076000Y-63246000D01*
X97840800Y-63957200D01*
X96062800Y-65176400D01*
X94742000Y-67411600D01*
X93776800Y-69443600D01*
X93675200Y-80467200D01*
X89103200Y-80619600D01*
X88646000Y-58572400D01*
X224383600Y-58216800D01*
X222199200Y-124155200D01*
D10*
X97383600Y-91897200D02*
X101904800Y-91897200D01*
X101904800Y-91897200D02*
X101904800Y-93370400D01*
X101904800Y-93370400D02*
X97383600Y-93370400D01*
X97383600Y-93370400D02*
X97383600Y-91897200D01*
G36*
X97383600Y-91897200D02*
G01*
X101904800Y-91897200D01*
X101904800Y-93370400D01*
X97383600Y-93370400D01*
X97383600Y-91897200D01*
G37*
D12*
X186000000Y-136000000D02*
X198000000Y-124000000D01*
X91500000Y-69000000D02*
X91500000Y-80000000D01*
X95151800Y-91338400D02*
X95177200Y-84491200D01*
X146253200Y-130683000D02*
X163855400Y-130683000D01*
X163855400Y-130683000D02*
X163855400Y-136220200D01*
X163855400Y-136220200D02*
X146253200Y-136220200D01*
X146253200Y-136220200D02*
X146253200Y-130683000D01*
X107289600Y-82600800D02*
X107289600Y-102000000D01*
X104021800Y-91333000D02*
X104047200Y-84485800D01*
X91500000Y-80000000D02*
G75*
G03*
X93000000Y-82000000I1750000J-250000D01*
G01*
X100000000Y-61999995D02*
G75*
G03*
X91500000Y-69000000I-78860J-8564955D01*
G01*
X95168400Y-100333800D02*
X104038400Y-100333800D01*
X91500000Y-130750000D02*
G75*
G03*
X99250000Y-138000000I7563800J318200D01*
G01*
X95151800Y-93838400D02*
X95168400Y-100333800D01*
X200000005Y-123000022D02*
G75*
G03*
X198000000Y-124000000I865995J-4232078D01*
G01*
X218000000Y-123000000D02*
X218000000Y-69000000D01*
X93000000Y-103500000D02*
X106000000Y-103500000D01*
X106324400Y-81985800D02*
X107289600Y-82600800D01*
X181000000Y-138000013D02*
G75*
G03*
X186000000Y-136000000I-247500J7868713D01*
G01*
X104047200Y-81985800D02*
X106324400Y-81985800D01*
X99250000Y-138000000D02*
X181000000Y-138000000D01*
X104021800Y-93833000D02*
X104038400Y-100333800D01*
X91500000Y-130750000D02*
X91500000Y-105000000D01*
X105999998Y-103499995D02*
G75*
G03*
X107289600Y-102000000I-654198J1866795D01*
G01*
X93000000Y-82000000D02*
X95177200Y-81991200D01*
X218000000Y-123000000D02*
X200000000Y-123000000D01*
X218000023Y-68999996D02*
G75*
G03*
X210000000Y-62000000I-8171123J-1267004D01*
G01*
X210000000Y-62000000D02*
X100000000Y-62000000D01*
X93000000Y-103500000D02*
G75*
G03*
X91500000Y-105000000I143800J-1643800D01*
G01*
D13*
%TO.C,FID11*%
X95151800Y-93838400D02*
G75*
G03*
X95151800Y-91338400I0J1250000D01*
G01*
X104021800Y-91333000D02*
G75*
G03*
X104021800Y-93833000I0J-1250000D01*
G01*
%TO.C,FID12*%
X104047200Y-81985800D02*
G75*
G03*
X104047200Y-84485800I0J-1250000D01*
G01*
X95177200Y-84491200D02*
G75*
G03*
X95177200Y-81991200I0J1250000D01*
G01*
%TD*%
D14*
%TO.C,J12*%
X111658400Y-71170800D03*
D15*
X114198400Y-71170800D03*
%TD*%
D16*
%TO.C,C82*%
X98137200Y-132791200D03*
D17*
X116137200Y-132791200D03*
%TD*%
D18*
%TO.C,J7*%
X95656400Y-74091800D03*
D19*
X100656400Y-74091800D03*
X105656400Y-74091800D03*
%TD*%
D20*
%TO.C,FID11*%
X98251800Y-91338400D03*
X100951800Y-91338400D03*
X100051800Y-93827600D03*
X100051800Y-91338400D03*
X102751800Y-91338400D03*
X96451800Y-91338400D03*
X100951800Y-93827600D03*
X97351800Y-91338400D03*
X99151800Y-93827600D03*
X102751800Y-93827600D03*
X96451800Y-93827600D03*
X97351800Y-93827600D03*
X101851800Y-91338400D03*
X98251800Y-93827600D03*
X99151800Y-91338400D03*
X101851800Y-93827600D03*
%TD*%
%TO.C,FID12*%
X101877200Y-84480400D03*
X98277200Y-84480400D03*
X97377200Y-81991200D03*
X99177200Y-84480400D03*
X99177200Y-81991200D03*
X100077200Y-81991200D03*
X97377200Y-84480400D03*
X98277200Y-81991200D03*
X102777200Y-81991200D03*
X100077200Y-84480400D03*
X96477200Y-81991200D03*
X102777200Y-84480400D03*
X101877200Y-81991200D03*
X100977200Y-84480400D03*
X96477200Y-84480400D03*
X100977200Y-81991200D03*
%TD*%
D21*
%TO.C,H3*%
X210000000Y-100000000D03*
D22*
X210000000Y-100000000D03*
%TD*%
D21*
%TO.C,H5*%
X125000000Y-70000000D03*
D22*
X125000000Y-70000000D03*
%TD*%
D23*
%TO.C,J4*%
X196000000Y-69000000D03*
D24*
X193460000Y-66460000D03*
X198540000Y-66460000D03*
X198540000Y-71540000D03*
X193460000Y-71540000D03*
%TD*%
D25*
%TO.C,J14*%
X105410000Y-119278400D03*
D26*
X100410000Y-119278400D03*
D19*
X95410000Y-119278400D03*
%TD*%
D27*
%TO.C,J5*%
X210896200Y-89941400D03*
D24*
X210896200Y-86349298D03*
X214488302Y-89941400D03*
X210896200Y-93533502D03*
X207304098Y-89941400D03*
%TD*%
D28*
%TO.C,J2*%
X173000000Y-69000000D03*
D24*
X175540000Y-66460000D03*
X170460000Y-66460000D03*
X175540000Y-71540000D03*
X170460000Y-71540000D03*
%TD*%
D21*
%TO.C,H1*%
X125000000Y-130000000D03*
D22*
X125000000Y-130000000D03*
%TD*%
D14*
%TO.C,JP1*%
X183504600Y-75946000D03*
D15*
X186044600Y-75946000D03*
X188584600Y-75946000D03*
%TD*%
D29*
%TO.C,J9*%
X141579600Y-69418200D03*
D30*
X141579600Y-67418200D03*
X141579600Y-65418200D03*
%TD*%
D31*
%TO.C,J13*%
X132838500Y-120721000D03*
X132838500Y-118221000D03*
X132838500Y-116221000D03*
X132838500Y-113721000D03*
D32*
X135238500Y-123791000D03*
X135238500Y-110651000D03*
%TD*%
D21*
%TO.C,H4*%
X185000000Y-70000000D03*
D22*
X185000000Y-70000000D03*
%TD*%
D25*
%TO.C,J11*%
X121996200Y-119303800D03*
D19*
X116996200Y-119303800D03*
X111996200Y-119303800D03*
%TD*%
D22*
%TO.C,H2*%
X185000000Y-130000000D03*
D21*
X185000000Y-130000000D03*
%TD*%
D29*
%TO.C,J8*%
X141579600Y-78257400D03*
D30*
X141579600Y-76257400D03*
X141579600Y-74257400D03*
%TD*%
D14*
%TO.C,J3*%
X188468000Y-119380000D03*
D15*
X191008000Y-119380000D03*
X193548000Y-119380000D03*
X196088000Y-119380000D03*
%TD*%
D33*
%TO.C,U10*%
X151083000Y-90236000D03*
X151083000Y-91186000D03*
X151083000Y-92136000D03*
X148383000Y-92136000D03*
X148383000Y-90236000D03*
%TD*%
D34*
%TO.C,JP3*%
X155376400Y-81635600D03*
D35*
X154076400Y-81635600D03*
D36*
X152776400Y-81635600D03*
%TD*%
D37*
%TO.C,Y1*%
X158990000Y-92140000D03*
X157240000Y-92140000D03*
X157240000Y-90740000D03*
X158990000Y-90740000D03*
%TD*%
D38*
%TO.C,R100*%
X101297100Y-68783200D03*
X103122100Y-68783200D03*
%TD*%
D39*
%TO.C,C5*%
X173202600Y-90143500D03*
X173202600Y-88418500D03*
%TD*%
D40*
%TO.C,R94*%
X150772500Y-119456200D03*
X148947500Y-119456200D03*
%TD*%
D41*
%TO.C,R97*%
X168554400Y-92505700D03*
X168554400Y-94330700D03*
%TD*%
D40*
%TO.C,R16*%
X153971000Y-126238000D03*
X152146000Y-126238000D03*
%TD*%
D42*
%TO.C,R11*%
X208483200Y-84656300D03*
X208483200Y-82831300D03*
%TD*%
D43*
%TO.C,U19*%
X159830200Y-104790100D03*
X159330200Y-104790100D03*
X158830200Y-104790100D03*
X158330200Y-104790100D03*
D44*
X157642700Y-104102600D03*
X157642700Y-103602600D03*
X157642700Y-103102600D03*
X157642700Y-102602600D03*
D43*
X158330200Y-101915100D03*
X158830200Y-101915100D03*
X159330200Y-101915100D03*
X159830200Y-101915100D03*
D44*
X160517700Y-102602600D03*
X160517700Y-103102600D03*
X160517700Y-103602600D03*
X160517700Y-104102600D03*
D45*
X159080200Y-103352600D03*
%TD*%
D42*
%TO.C,R70*%
X124714000Y-92249000D03*
X124714000Y-90424000D03*
%TD*%
D46*
%TO.C,L3*%
X116594600Y-76682600D03*
X114494600Y-76682600D03*
%TD*%
D47*
%TO.C,J15*%
X192153500Y-81407000D03*
X187963500Y-81407000D03*
X192153500Y-83947000D03*
X187963500Y-83947000D03*
X192153500Y-86487000D03*
X187963500Y-86487000D03*
X192153500Y-89027000D03*
X187963500Y-89027000D03*
X192153500Y-91567000D03*
X187963500Y-91567000D03*
X192153500Y-94107000D03*
X187963500Y-94107000D03*
X192153500Y-96647000D03*
X187963500Y-96647000D03*
X192153500Y-99187000D03*
X187963500Y-99187000D03*
X192153500Y-101727000D03*
X187963500Y-101727000D03*
X192153500Y-104267000D03*
X187963500Y-104267000D03*
%TD*%
D40*
%TO.C,R36*%
X153236300Y-111891600D03*
X151411300Y-111891600D03*
%TD*%
D48*
%TO.C,C44*%
X124867500Y-109347000D03*
X126592500Y-109347000D03*
%TD*%
D40*
%TO.C,R38*%
X108608500Y-63957200D03*
X106783500Y-63957200D03*
%TD*%
D42*
%TO.C,R9*%
X208915000Y-74699500D03*
X208915000Y-72874500D03*
%TD*%
D49*
%TO.C,C6*%
X160070800Y-86403900D03*
X160070800Y-88478900D03*
%TD*%
D50*
%TO.C,J20*%
X102148200Y-96032000D03*
X97098200Y-96032000D03*
X102148200Y-98572000D03*
X97098200Y-98572000D03*
%TD*%
D51*
%TO.C,C35*%
X153292900Y-93726000D03*
X155367900Y-93726000D03*
%TD*%
D52*
%TO.C,C67*%
X182599500Y-94996000D03*
X180874500Y-94996000D03*
%TD*%
D40*
%TO.C,R37*%
X103126000Y-67259200D03*
X101301000Y-67259200D03*
%TD*%
D41*
%TO.C,R110*%
X190703200Y-126341500D03*
X190703200Y-128166500D03*
%TD*%
D53*
%TO.C,D11*%
X112993800Y-104063800D03*
X117993800Y-104063800D03*
%TD*%
D54*
%TO.C,C52*%
X123190000Y-90450500D03*
X123190000Y-92175500D03*
%TD*%
D41*
%TO.C,R26*%
X141224000Y-119460000D03*
X141224000Y-121285000D03*
%TD*%
D34*
%TO.C,JP7*%
X179349400Y-101092000D03*
D35*
X178049400Y-101092000D03*
D36*
X176749400Y-101092000D03*
%TD*%
D40*
%TO.C,R8*%
X211986500Y-83058000D03*
X210161500Y-83058000D03*
%TD*%
%TO.C,R79*%
X180136800Y-84785200D03*
X178311800Y-84785200D03*
%TD*%
D55*
%TO.C,U17*%
X114288400Y-84050000D03*
X114288400Y-83550000D03*
D56*
X115458400Y-80737000D03*
X115918400Y-80737000D03*
X116378400Y-80737000D03*
X114998400Y-84363000D03*
X115918400Y-84363000D03*
X115458400Y-84363000D03*
X116378400Y-84363000D03*
D57*
X115688400Y-82550000D03*
D56*
X114998400Y-80737000D03*
D55*
X114288400Y-83050000D03*
X114288400Y-82550000D03*
X114288400Y-82050000D03*
X114288400Y-81550000D03*
X114288400Y-81050000D03*
X117088400Y-81050000D03*
X117088400Y-81550000D03*
X117088400Y-82050000D03*
X117088400Y-82550000D03*
X117088400Y-83050000D03*
X117088400Y-83550000D03*
X117088400Y-84050000D03*
%TD*%
D50*
%TO.C,J19*%
X102186984Y-86595784D03*
X97136984Y-86595784D03*
X102186984Y-89135784D03*
X97136984Y-89135784D03*
%TD*%
D58*
%TO.C,TH1*%
X172069800Y-83007200D03*
X176519800Y-83007200D03*
%TD*%
D41*
%TO.C,R2*%
X190754000Y-109577500D03*
X190754000Y-111402500D03*
%TD*%
D59*
%TO.C,U6*%
X148344400Y-126527600D03*
X148344400Y-125577600D03*
X148344400Y-124627600D03*
X150664400Y-124627600D03*
X150664400Y-126527600D03*
%TD*%
D38*
%TO.C,R15*%
X152122500Y-124714000D03*
X153947500Y-124714000D03*
%TD*%
D41*
%TO.C,R10*%
X209296000Y-76938500D03*
X209296000Y-78763500D03*
%TD*%
D60*
%TO.C,J10*%
X206615400Y-116234400D03*
X207715400Y-115834400D03*
X208815400Y-116234400D03*
X209915400Y-116434400D03*
X211015400Y-116234400D03*
X212115400Y-116434400D03*
X213215400Y-116234400D03*
X214315400Y-116234400D03*
D61*
X212115400Y-105148400D03*
D62*
X207805400Y-105374400D03*
X213505400Y-105374400D03*
D63*
X215105400Y-118523400D03*
X201955400Y-119523400D03*
%TD*%
D41*
%TO.C,R96*%
X181254400Y-101474900D03*
X181254400Y-103299900D03*
%TD*%
D38*
%TO.C,R14*%
X187096400Y-112826800D03*
X188921400Y-112826800D03*
%TD*%
D64*
%TO.C,JP4*%
X157500800Y-82296000D03*
D35*
X158800800Y-82296000D03*
D65*
X160100800Y-82296000D03*
%TD*%
D42*
%TO.C,R33*%
X125095000Y-95781500D03*
X125095000Y-93956500D03*
%TD*%
D66*
%TO.C,Q5*%
X201235000Y-77104000D03*
X201235000Y-76454000D03*
X201235000Y-75804000D03*
X203895000Y-75804000D03*
X203895000Y-76454000D03*
X203895000Y-77104000D03*
%TD*%
D34*
%TO.C,JP2*%
X165561800Y-108940600D03*
D35*
X164261800Y-108940600D03*
D36*
X162961800Y-108940600D03*
%TD*%
D67*
%TO.C,C78*%
X162407600Y-102637500D03*
X162407600Y-100562500D03*
%TD*%
D54*
%TO.C,C76*%
X162077400Y-105106300D03*
X162077400Y-106831300D03*
%TD*%
D66*
%TO.C,Q2*%
X195259000Y-108824000D03*
X195259000Y-109474000D03*
X195259000Y-110124000D03*
X192599000Y-110124000D03*
X192599000Y-109474000D03*
X192599000Y-108824000D03*
%TD*%
D49*
%TO.C,C19*%
X162052000Y-86403900D03*
X162052000Y-88478900D03*
%TD*%
D48*
%TO.C,C74*%
X116409300Y-106934000D03*
X118134300Y-106934000D03*
%TD*%
D68*
%TO.C,D17*%
X137850400Y-114823200D03*
X137850400Y-115773200D03*
X137850400Y-116723200D03*
X135250400Y-116723200D03*
X135250400Y-115773200D03*
X135250400Y-114823200D03*
%TD*%
D40*
%TO.C,R29*%
X137056500Y-120650000D03*
X135231500Y-120650000D03*
%TD*%
D69*
%TO.C,C4*%
X173249500Y-92303600D03*
X171174500Y-92303600D03*
%TD*%
D41*
%TO.C,R113*%
X189153800Y-126343400D03*
X189153800Y-128168400D03*
%TD*%
D39*
%TO.C,C24*%
X103886000Y-65632500D03*
X103886000Y-63907500D03*
%TD*%
D40*
%TO.C,R101*%
X106474900Y-68783200D03*
X104649900Y-68783200D03*
%TD*%
D54*
%TO.C,C37*%
X150215600Y-86107100D03*
X150215600Y-87832100D03*
%TD*%
%TO.C,C31*%
X167055800Y-92557600D03*
X167055800Y-94282600D03*
%TD*%
D34*
%TO.C,JP8*%
X178973000Y-95859600D03*
D35*
X177673000Y-95859600D03*
D36*
X176373000Y-95859600D03*
%TD*%
D38*
%TO.C,R77*%
X188266700Y-123291600D03*
X190091700Y-123291600D03*
%TD*%
D54*
%TO.C,C38*%
X148742400Y-86107100D03*
X148742400Y-87832100D03*
%TD*%
D70*
%TO.C,U16*%
X122452000Y-82132000D03*
D71*
X122139000Y-83762000D03*
X125765000Y-82842000D03*
X125765000Y-83762000D03*
X125765000Y-84222000D03*
X125765000Y-83302000D03*
D70*
X122952000Y-82132000D03*
D72*
X123952000Y-83532000D03*
D71*
X122139000Y-84222000D03*
X122139000Y-83302000D03*
X122139000Y-82842000D03*
D70*
X123452000Y-82132000D03*
X123952000Y-82132000D03*
X124452000Y-82132000D03*
X124952000Y-82132000D03*
X125452000Y-82132000D03*
X125452000Y-84932000D03*
X124952000Y-84932000D03*
X124452000Y-84932000D03*
X123952000Y-84932000D03*
X123452000Y-84932000D03*
X122952000Y-84932000D03*
X122452000Y-84932000D03*
%TD*%
D41*
%TO.C,R76*%
X164261800Y-84304500D03*
X164261800Y-86129500D03*
%TD*%
D66*
%TO.C,Q4*%
X188274000Y-109967000D03*
X188274000Y-110617000D03*
X188274000Y-111267000D03*
X185614000Y-111267000D03*
X185614000Y-110617000D03*
X185614000Y-109967000D03*
%TD*%
D41*
%TO.C,R32*%
X139903200Y-124436500D03*
X139903200Y-126261500D03*
%TD*%
%TO.C,R114*%
X192227200Y-126343400D03*
X192227200Y-128168400D03*
%TD*%
D73*
%TO.C,U9*%
X169748200Y-89343000D03*
X168478200Y-89343000D03*
X167208200Y-89343000D03*
X165938200Y-89343000D03*
X165938200Y-84393000D03*
X167208200Y-84393000D03*
X168478200Y-84393000D03*
X169748200Y-84393000D03*
%TD*%
D40*
%TO.C,R80*%
X195222500Y-116281200D03*
X193397500Y-116281200D03*
%TD*%
D42*
%TO.C,R46*%
X160629600Y-92479500D03*
X160629600Y-90654500D03*
%TD*%
D40*
%TO.C,R39*%
X106482600Y-67259200D03*
X104657600Y-67259200D03*
%TD*%
D52*
%TO.C,C80*%
X169721700Y-82346800D03*
X167996700Y-82346800D03*
%TD*%
D38*
%TO.C,R35*%
X151385900Y-116590600D03*
X153210900Y-116590600D03*
%TD*%
D41*
%TO.C,R4*%
X195118200Y-111660300D03*
X195118200Y-113485300D03*
%TD*%
D48*
%TO.C,C75*%
X152197900Y-127787400D03*
X153922900Y-127787400D03*
%TD*%
D41*
%TO.C,R21*%
X199136000Y-75922500D03*
X199136000Y-77747500D03*
%TD*%
D52*
%TO.C,C10*%
X185063300Y-107848400D03*
X183338300Y-107848400D03*
%TD*%
D74*
%TO.C,F2*%
X129545000Y-124180600D03*
X125095000Y-124180600D03*
%TD*%
D54*
%TO.C,C18*%
X139700000Y-120904000D03*
X139700000Y-122629000D03*
%TD*%
D41*
%TO.C,R19*%
X205867000Y-75795500D03*
X205867000Y-77620500D03*
%TD*%
D75*
%TO.C,L2*%
X129581200Y-84546600D03*
X129581200Y-82446600D03*
%TD*%
D76*
%TO.C,J6*%
X174206982Y-122973033D03*
X176556214Y-122117982D03*
X178435599Y-121433942D03*
X180784831Y-120578892D03*
D77*
X170216399Y-120488028D03*
X182244465Y-116110171D03*
%TD*%
D58*
%TO.C,F3*%
X100772000Y-112141000D03*
X105222000Y-112141000D03*
%TD*%
D39*
%TO.C,C16*%
X182778400Y-103249900D03*
X182778400Y-101524900D03*
%TD*%
D41*
%TO.C,R18*%
X196621400Y-111658400D03*
X196621400Y-113483400D03*
%TD*%
D67*
%TO.C,C48*%
X124865300Y-102664000D03*
X124865300Y-100589000D03*
%TD*%
D78*
%TO.C,R61*%
X124817500Y-111125000D03*
X126642500Y-111125000D03*
%TD*%
D79*
%TO.C,Q7*%
X117026300Y-96596200D03*
X117026300Y-97866200D03*
X117026300Y-99136200D03*
X117026300Y-100406200D03*
X111876300Y-100406200D03*
X111876300Y-99136200D03*
X111876300Y-97866200D03*
X111876300Y-96596200D03*
%TD*%
D80*
%TO.C,Q3*%
X212740000Y-81086000D03*
X212090000Y-81086000D03*
X211440000Y-81086000D03*
X211440000Y-78426000D03*
X212090000Y-78426000D03*
X212740000Y-78426000D03*
%TD*%
D40*
%TO.C,R49*%
X156995500Y-88850300D03*
X155170500Y-88850300D03*
%TD*%
%TO.C,R63*%
X111427900Y-106654600D03*
X109602900Y-106654600D03*
%TD*%
%TO.C,R108*%
X153236300Y-113436400D03*
X151411300Y-113436400D03*
%TD*%
D48*
%TO.C,C51*%
X113056500Y-106934000D03*
X114781500Y-106934000D03*
%TD*%
D80*
%TO.C,Q1*%
X210551000Y-70044000D03*
X211201000Y-70044000D03*
X211851000Y-70044000D03*
X211851000Y-72704000D03*
X211201000Y-72704000D03*
X210551000Y-72704000D03*
%TD*%
D42*
%TO.C,R3*%
X193573400Y-113483400D03*
X193573400Y-111658400D03*
%TD*%
D81*
%TO.C,D12*%
X126644400Y-113793000D03*
X126644400Y-117093000D03*
%TD*%
D58*
%TO.C,F1*%
X117282000Y-113538000D03*
X121732000Y-113538000D03*
%TD*%
D82*
%TO.C,U12*%
X119182300Y-96129000D03*
X120182300Y-96129000D03*
X121182300Y-96129000D03*
X122182300Y-96129000D03*
X123182300Y-96129000D03*
X123182300Y-101229000D03*
X122182300Y-101229000D03*
X121182300Y-101229000D03*
X120182300Y-101229000D03*
X119182300Y-101229000D03*
%TD*%
D58*
%TO.C,TH2*%
X187182800Y-115570000D03*
X191632800Y-115570000D03*
%TD*%
D79*
%TO.C,Q9*%
X116783000Y-89789000D03*
X116783000Y-91059000D03*
X116783000Y-92329000D03*
X116783000Y-93599000D03*
X111633000Y-93599000D03*
X111633000Y-92329000D03*
X111633000Y-91059000D03*
X111633000Y-89789000D03*
%TD*%
D40*
%TO.C,R68*%
X121028000Y-93421200D03*
X119203000Y-93421200D03*
%TD*%
D83*
%TO.C,L5*%
X151536400Y-95377100D03*
X151536400Y-93802100D03*
%TD*%
D48*
%TO.C,C54*%
X134316300Y-89001600D03*
X136041300Y-89001600D03*
%TD*%
D34*
%TO.C,JP9*%
X180344600Y-98475800D03*
D35*
X179044600Y-98475800D03*
D36*
X177744600Y-98475800D03*
%TD*%
D64*
%TO.C,JP10*%
X157780200Y-99085400D03*
D35*
X159080200Y-99085400D03*
D65*
X160380200Y-99085400D03*
%TD*%
D51*
%TO.C,C34*%
X153292900Y-95758000D03*
X155367900Y-95758000D03*
%TD*%
D41*
%TO.C,R67*%
X114808000Y-113260500D03*
X114808000Y-115085500D03*
%TD*%
D84*
%TO.C,U18*%
X176715500Y-93491000D03*
X176715500Y-92841000D03*
X176715500Y-92191000D03*
X176715500Y-91541000D03*
X176715500Y-90891000D03*
X176715500Y-90241000D03*
X176715500Y-89591000D03*
X176715500Y-88941000D03*
X176715500Y-88291000D03*
X176715500Y-87641000D03*
X176715500Y-86991000D03*
X176715500Y-86341000D03*
X182440500Y-86341000D03*
X182440500Y-86991000D03*
X182440500Y-87641000D03*
X182440500Y-88291000D03*
X182440500Y-88941000D03*
X182440500Y-89591000D03*
X182440500Y-90241000D03*
X182440500Y-90891000D03*
X182440500Y-91541000D03*
X182440500Y-92191000D03*
X182440500Y-92841000D03*
X182440500Y-93491000D03*
%TD*%
D85*
%TO.C,U15*%
X128450100Y-103487900D03*
X128450100Y-101587900D03*
X130325100Y-102537900D03*
%TD*%
D86*
%TO.C,U14*%
X130470000Y-90542700D03*
X131120000Y-90542700D03*
X131770000Y-90542700D03*
X132420000Y-90542700D03*
D87*
X133307500Y-91430200D03*
X133307500Y-92080200D03*
X133307500Y-92730200D03*
X133307500Y-93380200D03*
D86*
X132420000Y-94267700D03*
X131770000Y-94267700D03*
X131120000Y-94267700D03*
X130470000Y-94267700D03*
D87*
X129582500Y-93380200D03*
X129582500Y-92730200D03*
X129582500Y-92080200D03*
X129582500Y-91430200D03*
D88*
X131445000Y-92405200D03*
%TD*%
D54*
%TO.C,C36*%
X153466800Y-86107100D03*
X153466800Y-87832100D03*
%TD*%
D40*
%TO.C,R95*%
X150772500Y-120954800D03*
X148947500Y-120954800D03*
%TD*%
D89*
%TO.C,L4*%
X160578600Y-84785200D03*
X162153600Y-84785200D03*
%TD*%
D54*
%TO.C,C40*%
X151942800Y-86107100D03*
X151942800Y-87832100D03*
%TD*%
D38*
%TO.C,R28*%
X135231500Y-119126000D03*
X137056500Y-119126000D03*
%TD*%
%TO.C,R107*%
X151404700Y-115006600D03*
X153229700Y-115006600D03*
%TD*%
D39*
%TO.C,C17*%
X139649200Y-117473900D03*
X139649200Y-115748900D03*
%TD*%
D41*
%TO.C,R31*%
X141478000Y-124436500D03*
X141478000Y-126261500D03*
%TD*%
D48*
%TO.C,C56*%
X130328500Y-88646000D03*
X132053500Y-88646000D03*
%TD*%
D38*
%TO.C,R1*%
X197207500Y-109245400D03*
X199032500Y-109245400D03*
%TD*%
M02*
