%TF.GenerationSoftware,KiCad,Pcbnew,(6.0.9)*%
%TF.CreationDate,2022-11-23T17:03:00+02:00*%
%TF.ProjectId,Bird_detector_V1,42697264-5f64-4657-9465-63746f725f56,rev?*%
%TF.SameCoordinates,Original*%
%TF.FileFunction,Soldermask,Top*%
%TF.FilePolarity,Negative*%
%FSLAX46Y46*%
G04 Gerber Fmt 4.6, Leading zero omitted, Abs format (unit mm)*
G04 Created by KiCad (PCBNEW (6.0.9)) date 2022-11-23 17:03:00*
%MOMM*%
%LPD*%
G01*
G04 APERTURE LIST*
G04 Aperture macros list*
%AMRoundRect*
0 Rectangle with rounded corners*
0 $1 Rounding radius*
0 $2 $3 $4 $5 $6 $7 $8 $9 X,Y pos of 4 corners*
0 Add a 4 corners polygon primitive as box body*
4,1,4,$2,$3,$4,$5,$6,$7,$8,$9,$2,$3,0*
0 Add four circle primitives for the rounded corners*
1,1,$1+$1,$2,$3*
1,1,$1+$1,$4,$5*
1,1,$1+$1,$6,$7*
1,1,$1+$1,$8,$9*
0 Add four rect primitives between the rounded corners*
20,1,$1+$1,$2,$3,$4,$5,0*
20,1,$1+$1,$4,$5,$6,$7,0*
20,1,$1+$1,$6,$7,$8,$9,0*
20,1,$1+$1,$8,$9,$2,$3,0*%
%AMFreePoly0*
4,1,22,0.500000,-0.750000,0.000000,-0.750000,0.000000,-0.745033,-0.079941,-0.743568,-0.215256,-0.701293,-0.333266,-0.622738,-0.424486,-0.514219,-0.481581,-0.384460,-0.499164,-0.250000,-0.500000,-0.250000,-0.500000,0.250000,-0.499164,0.250000,-0.499963,0.256109,-0.478152,0.396186,-0.417904,0.524511,-0.324060,0.630769,-0.204165,0.706417,-0.067858,0.745374,0.000000,0.744959,0.000000,0.750000,
0.500000,0.750000,0.500000,-0.750000,0.500000,-0.750000,$1*%
%AMFreePoly1*
4,1,20,0.000000,0.744959,0.073905,0.744508,0.209726,0.703889,0.328688,0.626782,0.421226,0.519385,0.479903,0.390333,0.500000,0.250000,0.500000,-0.250000,0.499851,-0.262216,0.476331,-0.402017,0.414519,-0.529596,0.319384,-0.634700,0.198574,-0.708877,0.061801,-0.746166,0.000000,-0.745033,0.000000,-0.750000,-0.500000,-0.750000,-0.500000,0.750000,0.000000,0.750000,0.000000,0.744959,
0.000000,0.744959,$1*%
%AMFreePoly2*
4,1,22,0.550000,-0.750000,0.000000,-0.750000,0.000000,-0.745033,-0.079941,-0.743568,-0.215256,-0.701293,-0.333266,-0.622738,-0.424486,-0.514219,-0.481581,-0.384460,-0.499164,-0.250000,-0.500000,-0.250000,-0.500000,0.250000,-0.499164,0.250000,-0.499963,0.256109,-0.478152,0.396186,-0.417904,0.524511,-0.324060,0.630769,-0.204165,0.706417,-0.067858,0.745374,0.000000,0.744959,0.000000,0.750000,
0.550000,0.750000,0.550000,-0.750000,0.550000,-0.750000,$1*%
%AMFreePoly3*
4,1,20,0.000000,0.744959,0.073905,0.744508,0.209726,0.703889,0.328688,0.626782,0.421226,0.519385,0.479903,0.390333,0.500000,0.250000,0.500000,-0.250000,0.499851,-0.262216,0.476331,-0.402017,0.414519,-0.529596,0.319384,-0.634700,0.198574,-0.708877,0.061801,-0.746166,0.000000,-0.745033,0.000000,-0.750000,-0.550000,-0.750000,-0.550000,0.750000,0.000000,0.750000,0.000000,0.744959,
0.000000,0.744959,$1*%
G04 Aperture macros list end*
%ADD10C,0.150000*%
%TA.AperFunction,Profile*%
%ADD11C,0.100000*%
%TD*%
%TA.AperFunction,Profile*%
%ADD12C,0.120000*%
%TD*%
%ADD13RoundRect,0.237500X-0.237500X0.250000X-0.237500X-0.250000X0.237500X-0.250000X0.237500X0.250000X0*%
%ADD14RoundRect,0.150000X-0.725000X-0.150000X0.725000X-0.150000X0.725000X0.150000X-0.725000X0.150000X0*%
%ADD15R,1.980000X3.960000*%
%ADD16O,1.980000X3.960000*%
%ADD17RoundRect,0.062500X-0.062500X0.350000X-0.062500X-0.350000X0.062500X-0.350000X0.062500X0.350000X0*%
%ADD18RoundRect,0.062500X-0.350000X0.062500X-0.350000X-0.062500X0.350000X-0.062500X0.350000X0.062500X0*%
%ADD19R,2.600000X2.600000*%
%ADD20RoundRect,0.150000X0.825000X0.150000X-0.825000X0.150000X-0.825000X-0.150000X0.825000X-0.150000X0*%
%ADD21RoundRect,0.237500X0.237500X-0.250000X0.237500X0.250000X-0.237500X0.250000X-0.237500X-0.250000X0*%
%ADD22RoundRect,0.237500X-0.300000X-0.237500X0.300000X-0.237500X0.300000X0.237500X-0.300000X0.237500X0*%
%ADD23RoundRect,0.237500X0.250000X0.237500X-0.250000X0.237500X-0.250000X-0.237500X0.250000X-0.237500X0*%
%ADD24RoundRect,0.237500X-0.237500X0.300000X-0.237500X-0.300000X0.237500X-0.300000X0.237500X0.300000X0*%
%ADD25RoundRect,0.237500X0.300000X0.237500X-0.300000X0.237500X-0.300000X-0.237500X0.300000X-0.237500X0*%
%ADD26R,1.500000X0.400000*%
%ADD27RoundRect,0.250000X0.450000X-0.262500X0.450000X0.262500X-0.450000X0.262500X-0.450000X-0.262500X0*%
%ADD28RoundRect,0.250000X1.000000X-1.950000X1.000000X1.950000X-1.000000X1.950000X-1.000000X-1.950000X0*%
%ADD29C,0.600000*%
%ADD30R,0.700000X1.000000*%
%ADD31RoundRect,0.250000X-0.337500X-0.475000X0.337500X-0.475000X0.337500X0.475000X-0.337500X0.475000X0*%
%ADD32R,1.600000X0.600000*%
%ADD33R,0.600000X1.600000*%
%ADD34RoundRect,0.237500X0.287500X0.237500X-0.287500X0.237500X-0.287500X-0.237500X0.287500X-0.237500X0*%
%ADD35RoundRect,0.250000X-0.250000X-0.250000X0.250000X-0.250000X0.250000X0.250000X-0.250000X0.250000X0*%
%ADD36R,0.400000X1.500000*%
%ADD37RoundRect,0.150000X-0.150000X0.825000X-0.150000X-0.825000X0.150000X-0.825000X0.150000X0.825000X0*%
%ADD38FreePoly0,90.000000*%
%ADD39FreePoly1,90.000000*%
%ADD40R,0.500000X0.350000*%
%ADD41RoundRect,0.250000X-0.475000X0.337500X-0.475000X-0.337500X0.475000X-0.337500X0.475000X0.337500X0*%
%ADD42RoundRect,0.237500X-0.250000X-0.237500X0.250000X-0.237500X0.250000X0.237500X-0.250000X0.237500X0*%
%ADD43RoundRect,0.250000X0.475000X-0.250000X0.475000X0.250000X-0.475000X0.250000X-0.475000X-0.250000X0*%
%ADD44R,0.900000X1.200000*%
%ADD45R,3.150000X1.000000*%
%ADD46C,3.600000*%
%ADD47C,5.700000*%
%ADD48RoundRect,0.125000X0.537500X0.125000X-0.537500X0.125000X-0.537500X-0.125000X0.537500X-0.125000X0*%
%ADD49RoundRect,0.250000X0.475000X-0.337500X0.475000X0.337500X-0.475000X0.337500X-0.475000X-0.337500X0*%
%ADD50R,1.500000X1.500000*%
%ADD51RoundRect,0.237500X0.237500X-0.300000X0.237500X0.300000X-0.237500X0.300000X-0.237500X-0.300000X0*%
%ADD52RoundRect,0.200100X-0.949900X0.949900X-0.949900X-0.949900X0.949900X-0.949900X0.949900X0.949900X0*%
%ADD53C,2.500000*%
%ADD54RoundRect,0.237500X-0.237500X0.287500X-0.237500X-0.287500X0.237500X-0.287500X0.237500X0.287500X0*%
%ADD55R,1.560000X0.650000*%
%ADD56R,3.000000X5.000000*%
%ADD57O,3.000000X5.000000*%
%ADD58RoundRect,0.237500X0.237500X-0.287500X0.237500X0.287500X-0.237500X0.287500X-0.237500X-0.287500X0*%
%ADD59RoundRect,0.200100X1.343361X0.000000X0.000000X1.343361X-1.343361X0.000000X0.000000X-1.343361X0*%
%ADD60R,1.150000X0.600000*%
%ADD61RoundRect,0.200100X0.949900X-0.949900X0.949900X0.949900X-0.949900X0.949900X-0.949900X-0.949900X0*%
%ADD62C,1.500000*%
%ADD63RoundRect,0.100000X0.200000X0.100000X-0.200000X0.100000X-0.200000X-0.100000X0.200000X-0.100000X0*%
%ADD64R,1.700000X1.700000*%
%ADD65O,1.700000X1.700000*%
%ADD66R,1.275000X1.275000*%
%ADD67C,1.275000*%
%ADD68RoundRect,0.250000X0.262500X0.450000X-0.262500X0.450000X-0.262500X-0.450000X0.262500X-0.450000X0*%
%ADD69R,1.500000X0.900000*%
%ADD70R,0.900000X1.500000*%
%ADD71R,0.900000X0.900000*%
%ADD72RoundRect,0.237500X0.380070X-0.044194X-0.044194X0.380070X-0.380070X0.044194X0.044194X-0.380070X0*%
%ADD73RoundRect,0.237500X0.344715X-0.008839X-0.008839X0.344715X-0.344715X0.008839X0.008839X-0.344715X0*%
%ADD74RoundRect,0.237500X0.044194X0.380070X-0.380070X-0.044194X-0.044194X-0.380070X0.380070X0.044194X0*%
%ADD75RoundRect,0.250000X0.337500X0.475000X-0.337500X0.475000X-0.337500X-0.475000X0.337500X-0.475000X0*%
%ADD76RoundRect,0.250000X-0.262500X-0.450000X0.262500X-0.450000X0.262500X0.450000X-0.262500X0.450000X0*%
%ADD77C,1.400000*%
%ADD78C,3.450000*%
%ADD79R,3.500000X1.800000*%
%ADD80RoundRect,0.600000X-0.600000X-2.100000X0.600000X-2.100000X0.600000X2.100000X-0.600000X2.100000X0*%
%ADD81R,1.475000X0.450000*%
%ADD82R,1.200000X0.900000*%
%ADD83RoundRect,0.237500X-0.008839X-0.344715X0.344715X0.008839X0.008839X0.344715X-0.344715X-0.008839X0*%
%ADD84RoundRect,0.150000X0.725000X0.150000X-0.725000X0.150000X-0.725000X-0.150000X0.725000X-0.150000X0*%
%ADD85RoundRect,0.062500X0.062500X-0.325000X0.062500X0.325000X-0.062500X0.325000X-0.062500X-0.325000X0*%
%ADD86RoundRect,0.062500X0.325000X-0.062500X0.325000X0.062500X-0.325000X0.062500X-0.325000X-0.062500X0*%
%ADD87R,2.450000X2.450000*%
%ADD88FreePoly2,90.000000*%
%ADD89R,1.500000X1.000000*%
%ADD90FreePoly3,90.000000*%
%ADD91RoundRect,0.250000X-0.450000X0.350000X-0.450000X-0.350000X0.450000X-0.350000X0.450000X0.350000X0*%
%ADD92R,2.000000X0.900000*%
%ADD93R,1.500000X1.200000*%
%ADD94R,1.400000X1.500000*%
%ADD95C,3.000000*%
%ADD96R,2.500000X2.500000*%
%ADD97C,3.570000*%
G04 APERTURE END LIST*
D10*
X97383600Y-91897200D02*
X101904800Y-91897200D01*
X101904800Y-91897200D02*
X101904800Y-93370400D01*
X101904800Y-93370400D02*
X97383600Y-93370400D01*
X97383600Y-93370400D02*
X97383600Y-91897200D01*
G36*
X97383600Y-91897200D02*
G01*
X101904800Y-91897200D01*
X101904800Y-93370400D01*
X97383600Y-93370400D01*
X97383600Y-91897200D01*
G37*
X207721200Y-108381800D02*
X204165200Y-108381800D01*
X204165200Y-108381800D02*
X204165200Y-112725200D01*
X204165200Y-112725200D02*
X207721200Y-112725200D01*
X207721200Y-112725200D02*
X207721200Y-108381800D01*
G36*
X207721200Y-108381800D02*
G01*
X204165200Y-108381800D01*
X204165200Y-112725200D01*
X207721200Y-112725200D01*
X207721200Y-108381800D01*
G37*
X97180400Y-82499200D02*
X99618800Y-82499200D01*
X99618800Y-82499200D02*
X99618800Y-83870800D01*
X99618800Y-83870800D02*
X97180400Y-83870800D01*
X97180400Y-83870800D02*
X97180400Y-82499200D01*
G36*
X97180400Y-82499200D02*
G01*
X99618800Y-82499200D01*
X99618800Y-83870800D01*
X97180400Y-83870800D01*
X97180400Y-82499200D01*
G37*
D11*
X186000000Y-136000000D02*
X198000000Y-124000000D01*
X91500000Y-69000000D02*
X91500000Y-80000000D01*
X95151800Y-91338400D02*
X95177200Y-84491200D01*
X146253200Y-130683000D02*
X163855400Y-130683000D01*
X163855400Y-130683000D02*
X163855400Y-136220200D01*
X163855400Y-136220200D02*
X146253200Y-136220200D01*
X146253200Y-136220200D02*
X146253200Y-130683000D01*
X107289600Y-82600800D02*
X107289600Y-102000000D01*
X104021800Y-91333000D02*
X104047200Y-84485800D01*
X91500000Y-80000000D02*
G75*
G03*
X93000000Y-82000000I1750000J-250000D01*
G01*
X100000000Y-61999995D02*
G75*
G03*
X91500000Y-69000000I-78860J-8564955D01*
G01*
X95168400Y-100333800D02*
X104038400Y-100333800D01*
X91500000Y-130750000D02*
G75*
G03*
X99250000Y-138000000I7563800J318200D01*
G01*
X95151800Y-93838400D02*
X95168400Y-100333800D01*
X200000005Y-123000022D02*
G75*
G03*
X198000000Y-124000000I865995J-4232078D01*
G01*
X218000000Y-123000000D02*
X218000000Y-69000000D01*
X93000000Y-103500000D02*
X106000000Y-103500000D01*
X106324400Y-81985800D02*
X107289600Y-82600800D01*
X181000000Y-138000013D02*
G75*
G03*
X186000000Y-136000000I-247500J7868713D01*
G01*
X104047200Y-81985800D02*
X106324400Y-81985800D01*
X99250000Y-138000000D02*
X181000000Y-138000000D01*
X104021800Y-93833000D02*
X104038400Y-100333800D01*
X91500000Y-130750000D02*
X91500000Y-105000000D01*
X105999998Y-103499995D02*
G75*
G03*
X107289600Y-102000000I-654198J1866795D01*
G01*
X93000000Y-82000000D02*
X95177200Y-81991200D01*
X218000000Y-123000000D02*
X200000000Y-123000000D01*
X218000023Y-68999996D02*
G75*
G03*
X210000000Y-62000000I-8171123J-1267004D01*
G01*
X210000000Y-62000000D02*
X100000000Y-62000000D01*
X93000000Y-103500000D02*
G75*
G03*
X91500000Y-105000000I143800J-1643800D01*
G01*
D10*
X97383600Y-91897200D02*
X101904800Y-91897200D01*
X101904800Y-91897200D02*
X101904800Y-93370400D01*
X101904800Y-93370400D02*
X97383600Y-93370400D01*
X97383600Y-93370400D02*
X97383600Y-91897200D01*
G36*
X97383600Y-91897200D02*
G01*
X101904800Y-91897200D01*
X101904800Y-93370400D01*
X97383600Y-93370400D01*
X97383600Y-91897200D01*
G37*
X207721200Y-108381800D02*
X204165200Y-108381800D01*
X204165200Y-108381800D02*
X204165200Y-112725200D01*
X204165200Y-112725200D02*
X207721200Y-112725200D01*
X207721200Y-112725200D02*
X207721200Y-108381800D01*
G36*
X207721200Y-108381800D02*
G01*
X204165200Y-108381800D01*
X204165200Y-112725200D01*
X207721200Y-112725200D01*
X207721200Y-108381800D01*
G37*
X97180400Y-82499200D02*
X99618800Y-82499200D01*
X99618800Y-82499200D02*
X99618800Y-83870800D01*
X99618800Y-83870800D02*
X97180400Y-83870800D01*
X97180400Y-83870800D02*
X97180400Y-82499200D01*
G36*
X97180400Y-82499200D02*
G01*
X99618800Y-82499200D01*
X99618800Y-83870800D01*
X97180400Y-83870800D01*
X97180400Y-82499200D01*
G37*
D11*
X186000000Y-136000000D02*
X198000000Y-124000000D01*
X91500000Y-69000000D02*
X91500000Y-80000000D01*
X95151800Y-91338400D02*
X95177200Y-84491200D01*
X146253200Y-130683000D02*
X163855400Y-130683000D01*
X163855400Y-130683000D02*
X163855400Y-136220200D01*
X163855400Y-136220200D02*
X146253200Y-136220200D01*
X146253200Y-136220200D02*
X146253200Y-130683000D01*
X107289600Y-82600800D02*
X107289600Y-102000000D01*
X104021800Y-91333000D02*
X104047200Y-84485800D01*
X91500000Y-80000000D02*
G75*
G03*
X93000000Y-82000000I1750000J-250000D01*
G01*
X100000000Y-61999995D02*
G75*
G03*
X91500000Y-69000000I-78860J-8564955D01*
G01*
X95168400Y-100333800D02*
X104038400Y-100333800D01*
X91500000Y-130750000D02*
G75*
G03*
X99250000Y-138000000I7563800J318200D01*
G01*
X95151800Y-93838400D02*
X95168400Y-100333800D01*
X200000005Y-123000022D02*
G75*
G03*
X198000000Y-124000000I865995J-4232078D01*
G01*
X218000000Y-123000000D02*
X218000000Y-69000000D01*
X93000000Y-103500000D02*
X106000000Y-103500000D01*
X106324400Y-81985800D02*
X107289600Y-82600800D01*
X181000000Y-138000013D02*
G75*
G03*
X186000000Y-136000000I-247500J7868713D01*
G01*
X104047200Y-81985800D02*
X106324400Y-81985800D01*
X99250000Y-138000000D02*
X181000000Y-138000000D01*
X104021800Y-93833000D02*
X104038400Y-100333800D01*
X91500000Y-130750000D02*
X91500000Y-105000000D01*
X105999998Y-103499995D02*
G75*
G03*
X107289600Y-102000000I-654198J1866795D01*
G01*
X93000000Y-82000000D02*
X95177200Y-81991200D01*
X218000000Y-123000000D02*
X200000000Y-123000000D01*
X218000023Y-68999996D02*
G75*
G03*
X210000000Y-62000000I-8171123J-1267004D01*
G01*
X210000000Y-62000000D02*
X100000000Y-62000000D01*
X93000000Y-103500000D02*
G75*
G03*
X91500000Y-105000000I143800J-1643800D01*
G01*
D12*
%TO.C,FID11*%
X95151800Y-93838400D02*
G75*
G03*
X95151800Y-91338400I0J1250000D01*
G01*
X104021800Y-91333000D02*
G75*
G03*
X104021800Y-93833000I0J-1250000D01*
G01*
%TO.C,FID12*%
X104047200Y-81985800D02*
G75*
G03*
X104047200Y-84485800I0J-1250000D01*
G01*
X95177200Y-84491200D02*
G75*
G03*
X95177200Y-81991200I0J1250000D01*
G01*
%TD*%
D13*
%TO.C,R115*%
X189153800Y-126339600D03*
X189153800Y-128164600D03*
%TD*%
%TO.C,R112*%
X190703200Y-128164600D03*
X190703200Y-126339600D03*
%TD*%
%TO.C,R111*%
X192227200Y-126339600D03*
X192227200Y-128164600D03*
%TD*%
D14*
%TO.C,Q11*%
X130165400Y-99921700D03*
X130165400Y-101191700D03*
X130165400Y-102461700D03*
X130165400Y-103731700D03*
X135315400Y-103731700D03*
X135315400Y-102461700D03*
X135315400Y-101191700D03*
X135315400Y-99921700D03*
%TD*%
D15*
%TO.C,J7*%
X95656400Y-74091800D03*
D16*
X100656400Y-74091800D03*
X105656400Y-74091800D03*
%TD*%
D17*
%TO.C,U2*%
X142956600Y-118128300D03*
X142456600Y-118128300D03*
X141956600Y-118128300D03*
X141456600Y-118128300D03*
X140956600Y-118128300D03*
X140456600Y-118128300D03*
D18*
X139769100Y-118815800D03*
X139769100Y-119315800D03*
X139769100Y-119815800D03*
X139769100Y-120315800D03*
X139769100Y-120815800D03*
X139769100Y-121315800D03*
D17*
X140456600Y-122003300D03*
X140956600Y-122003300D03*
X141456600Y-122003300D03*
X141956600Y-122003300D03*
X142456600Y-122003300D03*
X142956600Y-122003300D03*
D18*
X143644100Y-121315800D03*
X143644100Y-120815800D03*
X143644100Y-120315800D03*
X143644100Y-119815800D03*
X143644100Y-119315800D03*
X143644100Y-118815800D03*
D19*
X141706600Y-120065800D03*
%TD*%
D20*
%TO.C,U4*%
X116447996Y-67741800D03*
X116447996Y-66471800D03*
X116447996Y-65201800D03*
X116447996Y-63931800D03*
X111497996Y-63931800D03*
X111497996Y-65201800D03*
X111497996Y-66471800D03*
X111497996Y-67741800D03*
%TD*%
D21*
%TO.C,R51*%
X145161000Y-69215000D03*
X145161000Y-67390000D03*
%TD*%
D22*
%TO.C,C43*%
X209703500Y-106045000D03*
X211428500Y-106045000D03*
%TD*%
D23*
%TO.C,R5*%
X213256500Y-77343000D03*
X211431500Y-77343000D03*
%TD*%
D24*
%TO.C,C32*%
X171704000Y-126772500D03*
X171704000Y-128497500D03*
%TD*%
D21*
%TO.C,R34*%
X143510000Y-111427900D03*
X143510000Y-109602900D03*
%TD*%
D13*
%TO.C,R44*%
X146812000Y-72771000D03*
X146812000Y-74596000D03*
%TD*%
D25*
%TO.C,C1*%
X196975900Y-116281200D03*
X195250900Y-116281200D03*
%TD*%
D26*
%TO.C,Q12*%
X106560000Y-106904000D03*
X106560000Y-107554000D03*
X106560000Y-108204000D03*
X109220000Y-108204000D03*
X109220000Y-107554000D03*
X109220000Y-106904000D03*
%TD*%
D27*
%TO.C,R78*%
X126720600Y-120775100D03*
X126720600Y-118950100D03*
%TD*%
D13*
%TO.C,R13*%
X201549000Y-86082500D03*
X201549000Y-87907500D03*
%TD*%
D28*
%TO.C,C2*%
X168148000Y-87291400D03*
X168148000Y-79891400D03*
%TD*%
D29*
%TO.C,FID11*%
X98251800Y-91338400D03*
X100951800Y-91338400D03*
X100051800Y-93827600D03*
X100051800Y-91338400D03*
X102751800Y-91338400D03*
X96451800Y-91338400D03*
X100951800Y-93827600D03*
X97351800Y-91338400D03*
X99151800Y-93827600D03*
X102751800Y-93827600D03*
X96451800Y-93827600D03*
X97351800Y-93827600D03*
X101851800Y-91338400D03*
X98251800Y-93827600D03*
X99151800Y-91338400D03*
X101851800Y-93827600D03*
%TD*%
D30*
%TO.C,SW2*%
X174324400Y-121053600D03*
X174324400Y-127053600D03*
X178024400Y-127053600D03*
X178024400Y-121053600D03*
%TD*%
D23*
%TO.C,R60*%
X204493500Y-105333800D03*
X202668500Y-105333800D03*
%TD*%
D25*
%TO.C,C50*%
X124052500Y-104902000D03*
X122327500Y-104902000D03*
%TD*%
D31*
%TO.C,C63*%
X113897500Y-78663800D03*
X115972500Y-78663800D03*
%TD*%
D23*
%TO.C,R103*%
X154479000Y-76962000D03*
X152654000Y-76962000D03*
%TD*%
D29*
%TO.C,FID12*%
X101877200Y-84480400D03*
X98277200Y-84480400D03*
X97377200Y-81991200D03*
X99177200Y-84480400D03*
X99177200Y-81991200D03*
X100077200Y-81991200D03*
X97377200Y-84480400D03*
X98277200Y-81991200D03*
X102777200Y-81991200D03*
X100077200Y-84480400D03*
X96477200Y-81991200D03*
X102777200Y-84480400D03*
X101877200Y-81991200D03*
X100977200Y-84480400D03*
X96477200Y-84480400D03*
X100977200Y-81991200D03*
%TD*%
D32*
%TO.C,U1*%
X174994800Y-86234000D03*
X174994800Y-87234000D03*
X174994800Y-88234000D03*
X174994800Y-89234000D03*
X174994800Y-90234000D03*
X174994800Y-91234000D03*
X174994800Y-92234000D03*
X174994800Y-93234000D03*
X174994800Y-94234000D03*
X174994800Y-95234000D03*
X174994800Y-96234000D03*
X174994800Y-97234000D03*
X174994800Y-98234000D03*
X174994800Y-99234000D03*
X174994800Y-100234000D03*
X174994800Y-101234000D03*
X174994800Y-102234000D03*
D33*
X178994800Y-106234000D03*
X179994800Y-106234000D03*
X180994800Y-106234000D03*
X181994800Y-106234000D03*
X182994800Y-106234000D03*
X183994800Y-106234000D03*
X184994800Y-106234000D03*
X185994800Y-106234000D03*
X186994800Y-106234000D03*
X187994800Y-106234000D03*
X188994800Y-106234000D03*
X189994800Y-106234000D03*
X190994800Y-106234000D03*
X191994800Y-106234000D03*
X192994800Y-106234000D03*
X193994800Y-106234000D03*
X194994800Y-106234000D03*
D32*
X198994800Y-102234000D03*
X198994800Y-101234000D03*
X198994800Y-100234000D03*
X198994800Y-99234000D03*
X198994800Y-98234000D03*
X198994800Y-97234000D03*
X198994800Y-96234000D03*
X198994800Y-95234000D03*
X198994800Y-94234000D03*
X198994800Y-93234000D03*
X198994800Y-92234000D03*
X198994800Y-91234000D03*
X198994800Y-90234000D03*
X198994800Y-89234000D03*
X198994800Y-88234000D03*
X198994800Y-87234000D03*
X198994800Y-86234000D03*
D33*
X194994800Y-82234000D03*
X193994800Y-82234000D03*
X192994800Y-82234000D03*
X191994800Y-82234000D03*
X190994800Y-82234000D03*
X189994800Y-82234000D03*
X188994800Y-82234000D03*
X187994800Y-82234000D03*
X186994800Y-82234000D03*
X185994800Y-82234000D03*
X184994800Y-82234000D03*
X183994800Y-82234000D03*
X182994800Y-82234000D03*
X181994800Y-82234000D03*
X180994800Y-82234000D03*
X179994800Y-82234000D03*
X178994800Y-82234000D03*
%TD*%
D34*
%TO.C,D3*%
X209282000Y-79171800D03*
X207532000Y-79171800D03*
%TD*%
D13*
%TO.C,R106*%
X109601000Y-109831500D03*
X109601000Y-111656500D03*
%TD*%
D35*
%TO.C,J12*%
X139065000Y-76200000D03*
%TD*%
D36*
%TO.C,Q10*%
X123783500Y-94802000D03*
X124433500Y-94802000D03*
X125083500Y-94802000D03*
X125083500Y-92142000D03*
X124433500Y-92142000D03*
X123783500Y-92142000D03*
%TD*%
D37*
%TO.C,U7*%
X156083000Y-68137000D03*
X154813000Y-68137000D03*
X153543000Y-68137000D03*
X152273000Y-68137000D03*
X152273000Y-73087000D03*
X153543000Y-73087000D03*
X154813000Y-73087000D03*
X156083000Y-73087000D03*
%TD*%
D38*
%TO.C,JP6*%
X118237000Y-84063600D03*
D39*
X118237000Y-82763600D03*
%TD*%
D40*
%TO.C,U20*%
X100648200Y-96327000D03*
X100648200Y-96977000D03*
X100648200Y-97627000D03*
X100648200Y-98277000D03*
X98598200Y-98277000D03*
X98598200Y-97627000D03*
X98598200Y-96977000D03*
X98598200Y-96327000D03*
%TD*%
D41*
%TO.C,C46*%
X118413700Y-93348900D03*
X118413700Y-95423900D03*
%TD*%
D13*
%TO.C,R47*%
X145161000Y-76280000D03*
X145161000Y-78105000D03*
%TD*%
D23*
%TO.C,R43*%
X150264500Y-72898000D03*
X148439500Y-72898000D03*
%TD*%
D21*
%TO.C,R82*%
X114604800Y-95298900D03*
X114604800Y-93473900D03*
%TD*%
D41*
%TO.C,C20*%
X167690800Y-126800700D03*
X167690800Y-128875700D03*
%TD*%
D42*
%TO.C,R40*%
X140641700Y-114604800D03*
X142466700Y-114604800D03*
%TD*%
D13*
%TO.C,R84*%
X128016000Y-100255700D03*
X128016000Y-102080700D03*
%TD*%
D43*
%TO.C,C9*%
X189026800Y-115808800D03*
X189026800Y-113908800D03*
%TD*%
D13*
%TO.C,R104*%
X104521000Y-108180500D03*
X104521000Y-110005500D03*
%TD*%
%TO.C,R90*%
X112014000Y-79759800D03*
X112014000Y-81584800D03*
%TD*%
D44*
%TO.C,D6*%
X119330200Y-76682600D03*
X122630200Y-76682600D03*
%TD*%
D45*
%TO.C,J18*%
X150353000Y-103378000D03*
X145303000Y-103378000D03*
X150353000Y-100838000D03*
X145303000Y-100838000D03*
%TD*%
D46*
%TO.C,H3*%
X210000000Y-100000000D03*
D47*
X210000000Y-100000000D03*
%TD*%
D48*
%TO.C,U13*%
X184652500Y-111592000D03*
X184652500Y-110942000D03*
X184652500Y-110292000D03*
X184652500Y-109642000D03*
X182377500Y-109642000D03*
X182377500Y-110292000D03*
X182377500Y-110942000D03*
X182377500Y-111592000D03*
%TD*%
D47*
%TO.C,H5*%
X125000000Y-70000000D03*
D46*
X125000000Y-70000000D03*
%TD*%
D21*
%TO.C,R57*%
X145161000Y-65532000D03*
X145161000Y-63707000D03*
%TD*%
D24*
%TO.C,C22*%
X118491000Y-65177500D03*
X118491000Y-66902500D03*
%TD*%
D25*
%TO.C,C11*%
X171779100Y-92506800D03*
X170054100Y-92506800D03*
%TD*%
%TO.C,C70*%
X160883600Y-88596300D03*
X159158600Y-88596300D03*
%TD*%
D35*
%TO.C,J17*%
X184404000Y-120650000D03*
%TD*%
D25*
%TO.C,C45*%
X112774900Y-95326200D03*
X111049900Y-95326200D03*
%TD*%
D23*
%TO.C,R71*%
X122120200Y-91694000D03*
X120295200Y-91694000D03*
%TD*%
D13*
%TO.C,R89*%
X113614200Y-81256500D03*
X113614200Y-83081500D03*
%TD*%
D49*
%TO.C,C65*%
X111988600Y-78075700D03*
X111988600Y-76000700D03*
%TD*%
D13*
%TO.C,R56*%
X136398000Y-67413500D03*
X136398000Y-69238500D03*
%TD*%
D42*
%TO.C,R48*%
X155043500Y-65913000D03*
X156868500Y-65913000D03*
%TD*%
D50*
%TO.C,TP3*%
X186740800Y-113690400D03*
%TD*%
D49*
%TO.C,C47*%
X116382800Y-95423900D03*
X116382800Y-93348900D03*
%TD*%
D51*
%TO.C,C72*%
X157200600Y-83108800D03*
X157200600Y-81383800D03*
%TD*%
D42*
%TO.C,R64*%
X124792100Y-134772400D03*
X126617100Y-134772400D03*
%TD*%
D52*
%TO.C,J4*%
X196000000Y-69000000D03*
D53*
X193460000Y-66460000D03*
X198540000Y-66460000D03*
X198540000Y-71540000D03*
X193460000Y-71540000D03*
%TD*%
D34*
%TO.C,D14*%
X126579600Y-136423400D03*
X124829600Y-136423400D03*
%TD*%
D54*
%TO.C,D19*%
X169570400Y-109107000D03*
X169570400Y-110857000D03*
%TD*%
D23*
%TO.C,R17*%
X213256500Y-80924400D03*
X211431500Y-80924400D03*
%TD*%
D42*
%TO.C,R59*%
X149225000Y-76962000D03*
X151050000Y-76962000D03*
%TD*%
D23*
%TO.C,R52*%
X150264500Y-69088000D03*
X148439500Y-69088000D03*
%TD*%
D40*
%TO.C,U5*%
X165515400Y-104266800D03*
X165515400Y-104916800D03*
X165515400Y-105566800D03*
X165515400Y-106216800D03*
X163465400Y-106216800D03*
X163465400Y-105566800D03*
X163465400Y-104916800D03*
X163465400Y-104266800D03*
%TD*%
D23*
%TO.C,R7*%
X213256500Y-79146400D03*
X211431500Y-79146400D03*
%TD*%
D55*
%TO.C,U11*%
X146935200Y-86578400D03*
X146935200Y-87528400D03*
X146935200Y-88478400D03*
X149635200Y-88478400D03*
X149635200Y-86578400D03*
%TD*%
D13*
%TO.C,R30*%
X143992600Y-125782700D03*
X143992600Y-127607700D03*
%TD*%
D25*
%TO.C,C77*%
X161898500Y-104851200D03*
X160173500Y-104851200D03*
%TD*%
D23*
%TO.C,R6*%
X213256500Y-75539600D03*
X211431500Y-75539600D03*
%TD*%
D56*
%TO.C,J14*%
X105410000Y-119278400D03*
D57*
X100410000Y-119278400D03*
D16*
X95410000Y-119278400D03*
%TD*%
D23*
%TO.C,R54*%
X154479000Y-78613000D03*
X152654000Y-78613000D03*
%TD*%
D34*
%TO.C,D2*%
X209282000Y-75539600D03*
X207532000Y-75539600D03*
%TD*%
D13*
%TO.C,R109*%
X155600400Y-98503100D03*
X155600400Y-100328100D03*
%TD*%
D21*
%TO.C,R98*%
X168046400Y-110894500D03*
X168046400Y-109069500D03*
%TD*%
D58*
%TO.C,D15*%
X120446800Y-95159800D03*
X120446800Y-93409800D03*
%TD*%
D22*
%TO.C,C66*%
X114428100Y-84632800D03*
X116153100Y-84632800D03*
%TD*%
D59*
%TO.C,J5*%
X210896200Y-89941400D03*
D53*
X210896200Y-86349298D03*
X214488302Y-89941400D03*
X210896200Y-93533502D03*
X207304098Y-89941400D03*
%TD*%
D13*
%TO.C,R93*%
X109474000Y-95455100D03*
X109474000Y-97280100D03*
%TD*%
D23*
%TO.C,R73*%
X124457000Y-97129600D03*
X122632000Y-97129600D03*
%TD*%
D24*
%TO.C,C39*%
X151892000Y-86107100D03*
X151892000Y-87832100D03*
%TD*%
D23*
%TO.C,R69*%
X124406200Y-100431600D03*
X122581200Y-100431600D03*
%TD*%
D21*
%TO.C,R24*%
X195707000Y-77366500D03*
X195707000Y-75541500D03*
%TD*%
D60*
%TO.C,D5*%
X192502000Y-109032000D03*
X192502000Y-109982000D03*
X192502000Y-110932000D03*
X195102000Y-110932000D03*
X195102000Y-109982000D03*
X195102000Y-109032000D03*
%TD*%
D24*
%TO.C,C28*%
X157861000Y-71146500D03*
X157861000Y-72871500D03*
%TD*%
D51*
%TO.C,C55*%
X128574800Y-120699700D03*
X128574800Y-118974700D03*
%TD*%
D13*
%TO.C,R12*%
X203454000Y-85320500D03*
X203454000Y-87145500D03*
%TD*%
D61*
%TO.C,J2*%
X173000000Y-69000000D03*
D53*
X175540000Y-66460000D03*
X170460000Y-66460000D03*
X175540000Y-71540000D03*
X170460000Y-71540000D03*
%TD*%
D25*
%TO.C,C61*%
X123163500Y-87122000D03*
X121438500Y-87122000D03*
%TD*%
D50*
%TO.C,TP4*%
X186944000Y-111125000D03*
%TD*%
D62*
%TO.C,FID1*%
X205740000Y-102539800D03*
%TD*%
D63*
%TO.C,U21*%
X208640000Y-112440800D03*
X208640000Y-111170800D03*
X208640000Y-109900800D03*
X208640000Y-108630800D03*
X203240000Y-108630800D03*
X203240000Y-109900800D03*
X203240000Y-111170800D03*
X203240000Y-112440800D03*
%TD*%
D21*
%TO.C,R53*%
X146812000Y-69238500D03*
X146812000Y-67413500D03*
%TD*%
D40*
%TO.C,U22*%
X100686984Y-86890784D03*
X100686984Y-87540784D03*
X100686984Y-88190784D03*
X100686984Y-88840784D03*
X98636984Y-88840784D03*
X98636984Y-88190784D03*
X98636984Y-87540784D03*
X98636984Y-86890784D03*
%TD*%
D25*
%TO.C,C12*%
X194056000Y-77216000D03*
X192331000Y-77216000D03*
%TD*%
D30*
%TO.C,SW1*%
X177922800Y-110639600D03*
X177922800Y-116639600D03*
X174222800Y-116639600D03*
X174222800Y-110639600D03*
%TD*%
D13*
%TO.C,R42*%
X145161000Y-72851000D03*
X145161000Y-74676000D03*
%TD*%
D42*
%TO.C,R50*%
X151614500Y-64262000D03*
X153439500Y-64262000D03*
%TD*%
D47*
%TO.C,H1*%
X125000000Y-130000000D03*
D46*
X125000000Y-130000000D03*
%TD*%
D64*
%TO.C,JP1*%
X183504600Y-75946000D03*
D65*
X186044600Y-75946000D03*
X188584600Y-75946000D03*
%TD*%
D22*
%TO.C,C53*%
X182881100Y-113131600D03*
X184606100Y-113131600D03*
%TD*%
D66*
%TO.C,J9*%
X141579600Y-69418200D03*
D67*
X141579600Y-67418200D03*
X141579600Y-65418200D03*
%TD*%
D68*
%TO.C,R81*%
X132103500Y-88138000D03*
X130278500Y-88138000D03*
%TD*%
D69*
%TO.C,U3*%
X163817000Y-128946800D03*
X163817000Y-127676800D03*
X163817000Y-126406800D03*
X163817000Y-125136800D03*
X163817000Y-123866800D03*
X163817000Y-122596800D03*
X163817000Y-121326800D03*
X163817000Y-120056800D03*
X163817000Y-118786800D03*
X163817000Y-117516800D03*
X163817000Y-116246800D03*
X163817000Y-114976800D03*
X163817000Y-113706800D03*
X163817000Y-112436800D03*
D70*
X162052000Y-111186800D03*
X160782000Y-111186800D03*
X159512000Y-111186800D03*
X158242000Y-111186800D03*
X156972000Y-111186800D03*
X155702000Y-111186800D03*
X154432000Y-111186800D03*
X153162000Y-111186800D03*
X151892000Y-111186800D03*
X150622000Y-111186800D03*
X149352000Y-111186800D03*
X148082000Y-111186800D03*
D69*
X146317000Y-112436800D03*
X146317000Y-113706800D03*
X146317000Y-114976800D03*
X146317000Y-116246800D03*
X146317000Y-117516800D03*
X146317000Y-118786800D03*
X146317000Y-120056800D03*
X146317000Y-121326800D03*
X146317000Y-122596800D03*
X146317000Y-123866800D03*
X146317000Y-125136800D03*
X146317000Y-126406800D03*
X146317000Y-127676800D03*
X146317000Y-128946800D03*
D71*
X155167000Y-122626800D03*
X157967000Y-121226800D03*
X156567000Y-122626800D03*
X155167000Y-121226800D03*
X156567000Y-119826800D03*
X157967000Y-122626800D03*
X155167000Y-119826800D03*
X157967000Y-119826800D03*
X156567000Y-121226800D03*
%TD*%
D72*
%TO.C,C15*%
X204724000Y-94996000D03*
X203504240Y-93776240D03*
%TD*%
D23*
%TO.C,R72*%
X124457000Y-98755200D03*
X122632000Y-98755200D03*
%TD*%
D73*
%TO.C,R23*%
X177734035Y-77277035D03*
X176443565Y-75986565D03*
%TD*%
D74*
%TO.C,C7*%
X176504880Y-78511120D03*
X175285120Y-79730880D03*
%TD*%
D42*
%TO.C,R102*%
X152654000Y-75311000D03*
X154479000Y-75311000D03*
%TD*%
D23*
%TO.C,R86*%
X125194700Y-79248000D03*
X123369700Y-79248000D03*
%TD*%
D75*
%TO.C,C49*%
X123973500Y-106680000D03*
X121898500Y-106680000D03*
%TD*%
D76*
%TO.C,R62*%
X122657400Y-102895400D03*
X124482400Y-102895400D03*
%TD*%
D51*
%TO.C,C42*%
X150317200Y-84834900D03*
X150317200Y-83109900D03*
%TD*%
D42*
%TO.C,R20*%
X182856500Y-79806800D03*
X184681500Y-79806800D03*
%TD*%
D31*
%TO.C,C59*%
X126851500Y-80695800D03*
X128926500Y-80695800D03*
%TD*%
D77*
%TO.C,J13*%
X132838500Y-120721000D03*
X132838500Y-118221000D03*
X132838500Y-116221000D03*
X132838500Y-113721000D03*
D78*
X135238500Y-123791000D03*
X135238500Y-110651000D03*
%TD*%
D23*
%TO.C,R58*%
X156868500Y-64262000D03*
X155043500Y-64262000D03*
%TD*%
D24*
%TO.C,C23*%
X170180000Y-126772500D03*
X170180000Y-128497500D03*
%TD*%
D47*
%TO.C,H4*%
X185000000Y-70000000D03*
D46*
X185000000Y-70000000D03*
%TD*%
D23*
%TO.C,R66*%
X115824000Y-106603800D03*
X113999000Y-106603800D03*
%TD*%
D42*
%TO.C,R75*%
X121718700Y-89966800D03*
X123543700Y-89966800D03*
%TD*%
D79*
%TO.C,D18*%
X126985400Y-110109000D03*
X121985400Y-110109000D03*
%TD*%
D22*
%TO.C,C69*%
X159158600Y-90120300D03*
X160883600Y-90120300D03*
%TD*%
D13*
%TO.C,R92*%
X111887000Y-83796500D03*
X111887000Y-85621500D03*
%TD*%
D80*
%TO.C,L1*%
X113712300Y-101573500D03*
X119912300Y-101573500D03*
%TD*%
D22*
%TO.C,C26*%
X163506300Y-102997000D03*
X165231300Y-102997000D03*
%TD*%
D34*
%TO.C,D1*%
X209282000Y-77343000D03*
X207532000Y-77343000D03*
%TD*%
D25*
%TO.C,C33*%
X150976500Y-78613000D03*
X149251500Y-78613000D03*
%TD*%
D81*
%TO.C,IC1*%
X166454600Y-94687200D03*
X166454600Y-95337200D03*
X166454600Y-95987200D03*
X166454600Y-96637200D03*
X166454600Y-97287200D03*
X166454600Y-97937200D03*
X166454600Y-98587200D03*
X166454600Y-99237200D03*
X166454600Y-99887200D03*
X166454600Y-100537200D03*
X172330600Y-100537200D03*
X172330600Y-99887200D03*
X172330600Y-99237200D03*
X172330600Y-98587200D03*
X172330600Y-97937200D03*
X172330600Y-97287200D03*
X172330600Y-96637200D03*
X172330600Y-95987200D03*
X172330600Y-95337200D03*
X172330600Y-94687200D03*
%TD*%
D82*
%TO.C,D13*%
X126619000Y-113793000D03*
X126619000Y-117093000D03*
%TD*%
D42*
%TO.C,R91*%
X114378100Y-86283800D03*
X116203100Y-86283800D03*
%TD*%
D22*
%TO.C,C29*%
X155652300Y-96977200D03*
X157377300Y-96977200D03*
%TD*%
D51*
%TO.C,C81*%
X164592000Y-95223500D03*
X164592000Y-93498500D03*
%TD*%
D42*
%TO.C,R88*%
X123344300Y-82296000D03*
X125169300Y-82296000D03*
%TD*%
D24*
%TO.C,C71*%
X158724600Y-81383800D03*
X158724600Y-83108800D03*
%TD*%
D41*
%TO.C,C64*%
X110236000Y-79836100D03*
X110236000Y-81911100D03*
%TD*%
D31*
%TO.C,C58*%
X126852600Y-82719200D03*
X128927600Y-82719200D03*
%TD*%
D13*
%TO.C,R87*%
X120777000Y-83669500D03*
X120777000Y-85494500D03*
%TD*%
D83*
%TO.C,R25*%
X204586765Y-97419235D03*
X205877235Y-96128765D03*
%TD*%
D22*
%TO.C,C79*%
X156236500Y-75311000D03*
X157961500Y-75311000D03*
%TD*%
D13*
%TO.C,R105*%
X108077000Y-109808000D03*
X108077000Y-111633000D03*
%TD*%
D21*
%TO.C,R55*%
X136398000Y-75842500D03*
X136398000Y-74017500D03*
%TD*%
%TO.C,R99*%
X110363000Y-85621500D03*
X110363000Y-83796500D03*
%TD*%
D60*
%TO.C,D7*%
X193578000Y-115885000D03*
X193578000Y-114935000D03*
X193578000Y-113985000D03*
X190978000Y-113985000D03*
X190978000Y-114935000D03*
X190978000Y-115885000D03*
%TD*%
D21*
%TO.C,R22*%
X196951600Y-113383700D03*
X196951600Y-111558700D03*
%TD*%
D24*
%TO.C,C21*%
X165862000Y-127026500D03*
X165862000Y-128751500D03*
%TD*%
D35*
%TO.C,J16*%
X139192000Y-67437000D03*
%TD*%
D23*
%TO.C,R85*%
X125194700Y-80772000D03*
X123369700Y-80772000D03*
%TD*%
D25*
%TO.C,C73*%
X150214500Y-67437000D03*
X148489500Y-67437000D03*
%TD*%
D58*
%TO.C,D8*%
X141503400Y-126224000D03*
X141503400Y-124474000D03*
%TD*%
D56*
%TO.C,J11*%
X121996200Y-119303800D03*
D16*
X116996200Y-119303800D03*
X111996200Y-119303800D03*
%TD*%
D75*
%TO.C,C62*%
X118055300Y-80721200D03*
X115980300Y-80721200D03*
%TD*%
D58*
%TO.C,D9*%
X139903200Y-126224000D03*
X139903200Y-124474000D03*
%TD*%
D72*
%TO.C,C14*%
X203454000Y-96266000D03*
X202234240Y-95046240D03*
%TD*%
D23*
%TO.C,R83*%
X130198500Y-105458900D03*
X128373500Y-105458900D03*
%TD*%
%TO.C,R41*%
X146124300Y-107645200D03*
X144299300Y-107645200D03*
%TD*%
D31*
%TO.C,C60*%
X126851500Y-84734400D03*
X128926500Y-84734400D03*
%TD*%
D23*
%TO.C,R65*%
X116990500Y-91059000D03*
X115165500Y-91059000D03*
%TD*%
D74*
%TO.C,C8*%
X175107880Y-77241120D03*
X173888120Y-78460880D03*
%TD*%
D51*
%TO.C,C30*%
X146812000Y-65505500D03*
X146812000Y-63780500D03*
%TD*%
D84*
%TO.C,Q8*%
X117687800Y-111988600D03*
X117687800Y-110718600D03*
X117687800Y-109448600D03*
X117687800Y-108178600D03*
X112537800Y-108178600D03*
X112537800Y-109448600D03*
X112537800Y-110718600D03*
X112537800Y-111988600D03*
%TD*%
D13*
%TO.C,R45*%
X157861000Y-67691000D03*
X157861000Y-69516000D03*
%TD*%
D79*
%TO.C,D10*%
X129797800Y-97155000D03*
X134797800Y-97155000D03*
%TD*%
D50*
%TO.C,TP1*%
X186690000Y-116281200D03*
%TD*%
D49*
%TO.C,C57*%
X124993400Y-86432300D03*
X124993400Y-84357300D03*
%TD*%
D23*
%TO.C,R27*%
X183157500Y-119634000D03*
X181332500Y-119634000D03*
%TD*%
D85*
%TO.C,U8*%
X154248800Y-88678800D03*
X154748800Y-88678800D03*
X155248800Y-88678800D03*
X155748800Y-88678800D03*
X156248800Y-88678800D03*
X156748800Y-88678800D03*
D86*
X157486300Y-87941300D03*
X157486300Y-87441300D03*
X157486300Y-86941300D03*
X157486300Y-86441300D03*
X157486300Y-85941300D03*
X157486300Y-85441300D03*
D85*
X156748800Y-84703800D03*
X156248800Y-84703800D03*
X155748800Y-84703800D03*
X155248800Y-84703800D03*
X154748800Y-84703800D03*
X154248800Y-84703800D03*
D86*
X153511300Y-85441300D03*
X153511300Y-85941300D03*
X153511300Y-86441300D03*
X153511300Y-86941300D03*
X153511300Y-87441300D03*
X153511300Y-87941300D03*
D87*
X155498800Y-86691300D03*
%TD*%
D13*
%TO.C,R74*%
X126746000Y-93042100D03*
X126746000Y-94867100D03*
%TD*%
D49*
%TO.C,C3*%
X173075600Y-90750300D03*
X173075600Y-88675300D03*
%TD*%
D47*
%TO.C,H2*%
X185000000Y-130000000D03*
D46*
X185000000Y-130000000D03*
%TD*%
D88*
%TO.C,JP5*%
X135636000Y-92714600D03*
D89*
X135636000Y-91414600D03*
D90*
X135636000Y-90114600D03*
%TD*%
D24*
%TO.C,C27*%
X146812000Y-76353500D03*
X146812000Y-78078500D03*
%TD*%
D66*
%TO.C,J8*%
X141579600Y-78257400D03*
D67*
X141579600Y-76257400D03*
X141579600Y-74257400D03*
%TD*%
D91*
%TO.C,FB2*%
X128143000Y-122926600D03*
X128143000Y-124926600D03*
%TD*%
D92*
%TO.C,J1*%
X201012400Y-117505000D03*
X201012400Y-116265000D03*
X201012400Y-113725000D03*
X215486400Y-117505000D03*
X215486400Y-116265000D03*
X215486400Y-113725000D03*
D93*
X200782400Y-120360000D03*
X200782400Y-109510000D03*
D94*
X214092400Y-121195000D03*
X214092400Y-108675000D03*
%TD*%
D22*
%TO.C,C41*%
X149759500Y-90120300D03*
X151484500Y-90120300D03*
%TD*%
D25*
%TO.C,C13*%
X194056000Y-75692000D03*
X192331000Y-75692000D03*
%TD*%
%TO.C,C68*%
X150214500Y-74549000D03*
X148489500Y-74549000D03*
%TD*%
D64*
%TO.C,J3*%
X188468000Y-119380000D03*
D65*
X191008000Y-119380000D03*
X193548000Y-119380000D03*
X196088000Y-119380000D03*
%TD*%
D22*
%TO.C,C25*%
X146254300Y-109194600D03*
X147979300Y-109194600D03*
%TD*%
D58*
%TO.C,D16*%
X122045900Y-95173800D03*
X122045900Y-93423800D03*
%TD*%
D50*
%TO.C,TP2*%
X172694600Y-103225600D03*
%TD*%
D34*
%TO.C,D4*%
X209282000Y-80949800D03*
X207532000Y-80949800D03*
%TD*%
D36*
%TO.C,Q6*%
X140624800Y-112480400D03*
X141274800Y-112480400D03*
X141924800Y-112480400D03*
X141924800Y-109820400D03*
X141274800Y-109820400D03*
X140624800Y-109820400D03*
%TD*%
D95*
%TO.C,C82*%
X98137200Y-132791200D03*
D96*
X116137200Y-132791200D03*
%TD*%
D97*
%TO.C,J6*%
X170216399Y-120488028D03*
X182244465Y-116110171D03*
%TD*%
G36*
X142833229Y-121664559D02*
G01*
X142833600Y-121665719D01*
X142833600Y-122340894D01*
X142832600Y-122342626D01*
X142830600Y-122342626D01*
X142829828Y-122341821D01*
X142796850Y-122278777D01*
X142735442Y-122243807D01*
X142664877Y-122247590D01*
X142607511Y-122288957D01*
X142583419Y-122341712D01*
X142581790Y-122342872D01*
X142579971Y-122342041D01*
X142579600Y-122340881D01*
X142579600Y-121665706D01*
X142580600Y-121663974D01*
X142582600Y-121663974D01*
X142583372Y-121664779D01*
X142616350Y-121727823D01*
X142677758Y-121762793D01*
X142748323Y-121759010D01*
X142805689Y-121717643D01*
X142829781Y-121664888D01*
X142831410Y-121663728D01*
X142833229Y-121664559D01*
G37*
G36*
X140833229Y-121664559D02*
G01*
X140833600Y-121665719D01*
X140833600Y-122340894D01*
X140832600Y-122342626D01*
X140830600Y-122342626D01*
X140829828Y-122341821D01*
X140796850Y-122278777D01*
X140735442Y-122243807D01*
X140664877Y-122247590D01*
X140607511Y-122288957D01*
X140583419Y-122341712D01*
X140581790Y-122342872D01*
X140579971Y-122342041D01*
X140579600Y-122340881D01*
X140579600Y-121665706D01*
X140580600Y-121663974D01*
X140582600Y-121663974D01*
X140583372Y-121664779D01*
X140616350Y-121727823D01*
X140677758Y-121762793D01*
X140748323Y-121759010D01*
X140805689Y-121717643D01*
X140829781Y-121664888D01*
X140831410Y-121663728D01*
X140833229Y-121664559D01*
G37*
G36*
X141333229Y-121664559D02*
G01*
X141333600Y-121665719D01*
X141333600Y-122340894D01*
X141332600Y-122342626D01*
X141330600Y-122342626D01*
X141329828Y-122341821D01*
X141296850Y-122278777D01*
X141235442Y-122243807D01*
X141164877Y-122247590D01*
X141107511Y-122288957D01*
X141083419Y-122341712D01*
X141081790Y-122342872D01*
X141079971Y-122342041D01*
X141079600Y-122340881D01*
X141079600Y-121665706D01*
X141080600Y-121663974D01*
X141082600Y-121663974D01*
X141083372Y-121664779D01*
X141116350Y-121727823D01*
X141177758Y-121762793D01*
X141248323Y-121759010D01*
X141305689Y-121717643D01*
X141329781Y-121664888D01*
X141331410Y-121663728D01*
X141333229Y-121664559D01*
G37*
G36*
X142333229Y-121664559D02*
G01*
X142333600Y-121665719D01*
X142333600Y-122340894D01*
X142332600Y-122342626D01*
X142330600Y-122342626D01*
X142329828Y-122341821D01*
X142296850Y-122278777D01*
X142235442Y-122243807D01*
X142164877Y-122247590D01*
X142107511Y-122288957D01*
X142083419Y-122341712D01*
X142081790Y-122342872D01*
X142079971Y-122342041D01*
X142079600Y-122340881D01*
X142079600Y-121665706D01*
X142080600Y-121663974D01*
X142082600Y-121663974D01*
X142083372Y-121664779D01*
X142116350Y-121727823D01*
X142177758Y-121762793D01*
X142248323Y-121759010D01*
X142305689Y-121717643D01*
X142329781Y-121664888D01*
X142331410Y-121663728D01*
X142333229Y-121664559D01*
G37*
G36*
X141833229Y-121664559D02*
G01*
X141833600Y-121665719D01*
X141833600Y-122340894D01*
X141832600Y-122342626D01*
X141830600Y-122342626D01*
X141829828Y-122341821D01*
X141796850Y-122278777D01*
X141735442Y-122243807D01*
X141664877Y-122247590D01*
X141607511Y-122288957D01*
X141583419Y-122341712D01*
X141581790Y-122342872D01*
X141579971Y-122342041D01*
X141579600Y-122340881D01*
X141579600Y-121665706D01*
X141580600Y-121663974D01*
X141582600Y-121663974D01*
X141583372Y-121664779D01*
X141616350Y-121727823D01*
X141677758Y-121762793D01*
X141748323Y-121759010D01*
X141805689Y-121717643D01*
X141829781Y-121664888D01*
X141831410Y-121663728D01*
X141833229Y-121664559D01*
G37*
G36*
X142616787Y-121364800D02*
G01*
X142616787Y-121366800D01*
X142615618Y-121367719D01*
X142547254Y-121387792D01*
X142500978Y-121441198D01*
X142490920Y-121511147D01*
X142520343Y-121575573D01*
X142540408Y-121593276D01*
X142541045Y-121595172D01*
X142539722Y-121596672D01*
X142538695Y-121596738D01*
X142518901Y-121592800D01*
X142394299Y-121592800D01*
X142372885Y-121597060D01*
X142370991Y-121596417D01*
X142370601Y-121594455D01*
X142370960Y-121593815D01*
X142413134Y-121543352D01*
X142421943Y-121473239D01*
X142391445Y-121409493D01*
X142331185Y-121372267D01*
X142297882Y-121367782D01*
X142296299Y-121366560D01*
X142296566Y-121364578D01*
X142298149Y-121363800D01*
X142615055Y-121363800D01*
X142616787Y-121364800D01*
G37*
G36*
X141616790Y-121364800D02*
G01*
X141616790Y-121366800D01*
X141615621Y-121367719D01*
X141547255Y-121387793D01*
X141500978Y-121441201D01*
X141490921Y-121511149D01*
X141520344Y-121575575D01*
X141540407Y-121593275D01*
X141541044Y-121595171D01*
X141539721Y-121596671D01*
X141538694Y-121596737D01*
X141518901Y-121592800D01*
X141394299Y-121592800D01*
X141372886Y-121597060D01*
X141370992Y-121596417D01*
X141370602Y-121594455D01*
X141370961Y-121593815D01*
X141413133Y-121543354D01*
X141421942Y-121473241D01*
X141391444Y-121409494D01*
X141331185Y-121372269D01*
X141298008Y-121367800D01*
X141115346Y-121367800D01*
X141047255Y-121387793D01*
X141000979Y-121441199D01*
X140990921Y-121511148D01*
X141020344Y-121575574D01*
X141040407Y-121593275D01*
X141041044Y-121595171D01*
X141039721Y-121596671D01*
X141038694Y-121596737D01*
X141018901Y-121592800D01*
X140894299Y-121592800D01*
X140872886Y-121597060D01*
X140870992Y-121596417D01*
X140870602Y-121594455D01*
X140870961Y-121593815D01*
X140913133Y-121543354D01*
X140921942Y-121473241D01*
X140891444Y-121409494D01*
X140831185Y-121372269D01*
X140798008Y-121367800D01*
X140615346Y-121367800D01*
X140547255Y-121387793D01*
X140500979Y-121441199D01*
X140490921Y-121511148D01*
X140520344Y-121575574D01*
X140540407Y-121593275D01*
X140541044Y-121595171D01*
X140539721Y-121596671D01*
X140538694Y-121596737D01*
X140518901Y-121592800D01*
X140394299Y-121592800D01*
X140376850Y-121596271D01*
X140374956Y-121595628D01*
X140374566Y-121593666D01*
X140375349Y-121592646D01*
X140377917Y-121590930D01*
X140378101Y-121590821D01*
X140429816Y-121563768D01*
X140464785Y-121502359D01*
X140461001Y-121431795D01*
X140419514Y-121374263D01*
X140412426Y-121369152D01*
X140409898Y-121367463D01*
X140409013Y-121365669D01*
X140410124Y-121364006D01*
X140411009Y-121363800D01*
X141615058Y-121363800D01*
X141616790Y-121364800D01*
G37*
G36*
X143003923Y-121364800D02*
G01*
X143003923Y-121366800D01*
X143003302Y-121367463D01*
X143000986Y-121369010D01*
X142955476Y-121423467D01*
X142946669Y-121493581D01*
X142977168Y-121557326D01*
X143032616Y-121591578D01*
X143033564Y-121593339D01*
X143032513Y-121595041D01*
X143031175Y-121595242D01*
X143018901Y-121592800D01*
X142894299Y-121592800D01*
X142872885Y-121597060D01*
X142870991Y-121596417D01*
X142870601Y-121594455D01*
X142870960Y-121593815D01*
X142913134Y-121543352D01*
X142921943Y-121473239D01*
X142891445Y-121409493D01*
X142831185Y-121372267D01*
X142797882Y-121367782D01*
X142796299Y-121366560D01*
X142796566Y-121364578D01*
X142798149Y-121363800D01*
X143002191Y-121363800D01*
X143003923Y-121364800D01*
G37*
G36*
X142116787Y-121364800D02*
G01*
X142116787Y-121366800D01*
X142115618Y-121367719D01*
X142047254Y-121387792D01*
X142000978Y-121441198D01*
X141990920Y-121511147D01*
X142020343Y-121575573D01*
X142040408Y-121593276D01*
X142041045Y-121595172D01*
X142039722Y-121596672D01*
X142038695Y-121596738D01*
X142018901Y-121592800D01*
X141894299Y-121592800D01*
X141872886Y-121597060D01*
X141870992Y-121596417D01*
X141870602Y-121594455D01*
X141870961Y-121593815D01*
X141913134Y-121543351D01*
X141921941Y-121473237D01*
X141891443Y-121409491D01*
X141831182Y-121372267D01*
X141797880Y-121367782D01*
X141796297Y-121366560D01*
X141796564Y-121364578D01*
X141798147Y-121363800D01*
X142115055Y-121363800D01*
X142116787Y-121364800D01*
G37*
G36*
X143008519Y-121156779D02*
G01*
X143028593Y-121225145D01*
X143081999Y-121271421D01*
X143151948Y-121281479D01*
X143216374Y-121252056D01*
X143234075Y-121231993D01*
X143235971Y-121231356D01*
X143237471Y-121232679D01*
X143237537Y-121233706D01*
X143233600Y-121253499D01*
X143233600Y-121378101D01*
X143237071Y-121395550D01*
X143236428Y-121397444D01*
X143234466Y-121397834D01*
X143233446Y-121397051D01*
X143231730Y-121394483D01*
X143231621Y-121394299D01*
X143204568Y-121342584D01*
X143143159Y-121307615D01*
X143072595Y-121311399D01*
X143015063Y-121352886D01*
X143009952Y-121359974D01*
X143008263Y-121362502D01*
X143006469Y-121363387D01*
X143004806Y-121362276D01*
X143004600Y-121361391D01*
X143004600Y-121157342D01*
X143005600Y-121155610D01*
X143007600Y-121155610D01*
X143008519Y-121156779D01*
G37*
G36*
X140407822Y-121155766D02*
G01*
X140408600Y-121157349D01*
X140408600Y-121361391D01*
X140407600Y-121363123D01*
X140405600Y-121363123D01*
X140404937Y-121362502D01*
X140403390Y-121360186D01*
X140348933Y-121314676D01*
X140278819Y-121305869D01*
X140215074Y-121336368D01*
X140180822Y-121391816D01*
X140179061Y-121392764D01*
X140177359Y-121391713D01*
X140177158Y-121390375D01*
X140179600Y-121378101D01*
X140179600Y-121253499D01*
X140175340Y-121232085D01*
X140175983Y-121230191D01*
X140177945Y-121229801D01*
X140178585Y-121230160D01*
X140229048Y-121272334D01*
X140299161Y-121281143D01*
X140362907Y-121250645D01*
X140400133Y-121190385D01*
X140404618Y-121157082D01*
X140405840Y-121155499D01*
X140407822Y-121155766D01*
G37*
G36*
X140108426Y-120939800D02*
G01*
X140108426Y-120941800D01*
X140107621Y-120942572D01*
X140044577Y-120975550D01*
X140009607Y-121036958D01*
X140013390Y-121107523D01*
X140054757Y-121164889D01*
X140107512Y-121188981D01*
X140108672Y-121190610D01*
X140107841Y-121192429D01*
X140106681Y-121192800D01*
X139431506Y-121192800D01*
X139429774Y-121191800D01*
X139429774Y-121189800D01*
X139430579Y-121189028D01*
X139493623Y-121156050D01*
X139528593Y-121094642D01*
X139524810Y-121024077D01*
X139483443Y-120966711D01*
X139430688Y-120942619D01*
X139429528Y-120940990D01*
X139430359Y-120939171D01*
X139431519Y-120938800D01*
X140106694Y-120938800D01*
X140108426Y-120939800D01*
G37*
G36*
X143983426Y-120939800D02*
G01*
X143983426Y-120941800D01*
X143982621Y-120942572D01*
X143919577Y-120975550D01*
X143884607Y-121036958D01*
X143888390Y-121107523D01*
X143929757Y-121164889D01*
X143982512Y-121188981D01*
X143983672Y-121190610D01*
X143982841Y-121192429D01*
X143981681Y-121192800D01*
X143306506Y-121192800D01*
X143304774Y-121191800D01*
X143304774Y-121189800D01*
X143305579Y-121189028D01*
X143368623Y-121156050D01*
X143403593Y-121094642D01*
X143399810Y-121024077D01*
X143358443Y-120966711D01*
X143305688Y-120942619D01*
X143304528Y-120940990D01*
X143305359Y-120939171D01*
X143306519Y-120938800D01*
X143981694Y-120938800D01*
X143983426Y-120939800D01*
G37*
G36*
X143008519Y-120656779D02*
G01*
X143028593Y-120725145D01*
X143081999Y-120771421D01*
X143151948Y-120781479D01*
X143216374Y-120752056D01*
X143234075Y-120731993D01*
X143235971Y-120731356D01*
X143237471Y-120732679D01*
X143237537Y-120733706D01*
X143233600Y-120753499D01*
X143233600Y-120878101D01*
X143237860Y-120899514D01*
X143237217Y-120901408D01*
X143235255Y-120901798D01*
X143234615Y-120901439D01*
X143184154Y-120859267D01*
X143114041Y-120850458D01*
X143050294Y-120880956D01*
X143013069Y-120941215D01*
X143008582Y-120974525D01*
X143007360Y-120976108D01*
X143005378Y-120975841D01*
X143004600Y-120974258D01*
X143004600Y-120657342D01*
X143005600Y-120655610D01*
X143007600Y-120655610D01*
X143008519Y-120656779D01*
G37*
G36*
X140407822Y-120655766D02*
G01*
X140408600Y-120657349D01*
X140408600Y-120974255D01*
X140407600Y-120975987D01*
X140405600Y-120975987D01*
X140404681Y-120974818D01*
X140384608Y-120906454D01*
X140331202Y-120860178D01*
X140261253Y-120850120D01*
X140196827Y-120879543D01*
X140179124Y-120899608D01*
X140177228Y-120900245D01*
X140175728Y-120898922D01*
X140175662Y-120897895D01*
X140179600Y-120878101D01*
X140179600Y-120753499D01*
X140175340Y-120732085D01*
X140175983Y-120730191D01*
X140177945Y-120729801D01*
X140178585Y-120730160D01*
X140229048Y-120772334D01*
X140299161Y-120781143D01*
X140362907Y-120750645D01*
X140400133Y-120690385D01*
X140404618Y-120657082D01*
X140405840Y-120655499D01*
X140407822Y-120655766D01*
G37*
G36*
X140108426Y-120439800D02*
G01*
X140108426Y-120441800D01*
X140107621Y-120442572D01*
X140044577Y-120475550D01*
X140009607Y-120536958D01*
X140013390Y-120607523D01*
X140054757Y-120664889D01*
X140107512Y-120688981D01*
X140108672Y-120690610D01*
X140107841Y-120692429D01*
X140106681Y-120692800D01*
X139431506Y-120692800D01*
X139429774Y-120691800D01*
X139429774Y-120689800D01*
X139430579Y-120689028D01*
X139493623Y-120656050D01*
X139528593Y-120594642D01*
X139524810Y-120524077D01*
X139483443Y-120466711D01*
X139430688Y-120442619D01*
X139429528Y-120440990D01*
X139430359Y-120439171D01*
X139431519Y-120438800D01*
X140106694Y-120438800D01*
X140108426Y-120439800D01*
G37*
G36*
X143983426Y-120439800D02*
G01*
X143983426Y-120441800D01*
X143982621Y-120442572D01*
X143919577Y-120475550D01*
X143884607Y-120536958D01*
X143888390Y-120607523D01*
X143929757Y-120664889D01*
X143982512Y-120688981D01*
X143983672Y-120690610D01*
X143982841Y-120692429D01*
X143981681Y-120692800D01*
X143306506Y-120692800D01*
X143304774Y-120691800D01*
X143304774Y-120689800D01*
X143305579Y-120689028D01*
X143368623Y-120656050D01*
X143403593Y-120594642D01*
X143399810Y-120524077D01*
X143358443Y-120466711D01*
X143305688Y-120442619D01*
X143304528Y-120440990D01*
X143305359Y-120439171D01*
X143306519Y-120438800D01*
X143981694Y-120438800D01*
X143983426Y-120439800D01*
G37*
G36*
X143008519Y-120156779D02*
G01*
X143028593Y-120225145D01*
X143082001Y-120271422D01*
X143151949Y-120281479D01*
X143216375Y-120252056D01*
X143234075Y-120231993D01*
X143235971Y-120231356D01*
X143237471Y-120232679D01*
X143237537Y-120233706D01*
X143233600Y-120253499D01*
X143233600Y-120378101D01*
X143237860Y-120399514D01*
X143237217Y-120401408D01*
X143235255Y-120401798D01*
X143234615Y-120401439D01*
X143184154Y-120359267D01*
X143114041Y-120350458D01*
X143050294Y-120380956D01*
X143013069Y-120441215D01*
X143008582Y-120474525D01*
X143007360Y-120476108D01*
X143005378Y-120475841D01*
X143004600Y-120474258D01*
X143004600Y-120157342D01*
X143005600Y-120155610D01*
X143007600Y-120155610D01*
X143008519Y-120156779D01*
G37*
G36*
X140407822Y-120155764D02*
G01*
X140408600Y-120157347D01*
X140408600Y-120474255D01*
X140407600Y-120475987D01*
X140405600Y-120475987D01*
X140404681Y-120474818D01*
X140384608Y-120406454D01*
X140331202Y-120360178D01*
X140261253Y-120350120D01*
X140196827Y-120379543D01*
X140179124Y-120399608D01*
X140177228Y-120400245D01*
X140175728Y-120398922D01*
X140175662Y-120397895D01*
X140179600Y-120378101D01*
X140179600Y-120253499D01*
X140175340Y-120232086D01*
X140175983Y-120230192D01*
X140177945Y-120229802D01*
X140178585Y-120230161D01*
X140229049Y-120272334D01*
X140299163Y-120281141D01*
X140362909Y-120250643D01*
X140400133Y-120190382D01*
X140404618Y-120157080D01*
X140405840Y-120155497D01*
X140407822Y-120155764D01*
G37*
G36*
X140108426Y-119939800D02*
G01*
X140108426Y-119941800D01*
X140107621Y-119942572D01*
X140044577Y-119975550D01*
X140009607Y-120036958D01*
X140013390Y-120107523D01*
X140054757Y-120164889D01*
X140107512Y-120188981D01*
X140108672Y-120190610D01*
X140107841Y-120192429D01*
X140106681Y-120192800D01*
X139431506Y-120192800D01*
X139429774Y-120191800D01*
X139429774Y-120189800D01*
X139430579Y-120189028D01*
X139493623Y-120156050D01*
X139528593Y-120094642D01*
X139524810Y-120024077D01*
X139483443Y-119966711D01*
X139430688Y-119942619D01*
X139429528Y-119940990D01*
X139430359Y-119939171D01*
X139431519Y-119938800D01*
X140106694Y-119938800D01*
X140108426Y-119939800D01*
G37*
G36*
X143983426Y-119939800D02*
G01*
X143983426Y-119941800D01*
X143982621Y-119942572D01*
X143919577Y-119975550D01*
X143884607Y-120036958D01*
X143888390Y-120107523D01*
X143929757Y-120164889D01*
X143982512Y-120188981D01*
X143983672Y-120190610D01*
X143982841Y-120192429D01*
X143981681Y-120192800D01*
X143306506Y-120192800D01*
X143304774Y-120191800D01*
X143304774Y-120189800D01*
X143305579Y-120189028D01*
X143368623Y-120156050D01*
X143403593Y-120094642D01*
X143399810Y-120024077D01*
X143358443Y-119966711D01*
X143305688Y-119942619D01*
X143304528Y-119940990D01*
X143305359Y-119939171D01*
X143306519Y-119938800D01*
X143981694Y-119938800D01*
X143983426Y-119939800D01*
G37*
G36*
X143008519Y-119656782D02*
G01*
X143028592Y-119725146D01*
X143081998Y-119771422D01*
X143151947Y-119781480D01*
X143216373Y-119752057D01*
X143234076Y-119731992D01*
X143235972Y-119731355D01*
X143237472Y-119732678D01*
X143237538Y-119733705D01*
X143233600Y-119753499D01*
X143233600Y-119878101D01*
X143237860Y-119899514D01*
X143237217Y-119901408D01*
X143235255Y-119901798D01*
X143234615Y-119901439D01*
X143184151Y-119859266D01*
X143114037Y-119850459D01*
X143050291Y-119880957D01*
X143013067Y-119941218D01*
X143008582Y-119974520D01*
X143007360Y-119976103D01*
X143005378Y-119975836D01*
X143004600Y-119974253D01*
X143004600Y-119657345D01*
X143005600Y-119655613D01*
X143007600Y-119655613D01*
X143008519Y-119656782D01*
G37*
G36*
X140407822Y-119655759D02*
G01*
X140408600Y-119657342D01*
X140408600Y-119974258D01*
X140407600Y-119975990D01*
X140405600Y-119975990D01*
X140404681Y-119974821D01*
X140384607Y-119906455D01*
X140331199Y-119860178D01*
X140261251Y-119850121D01*
X140196825Y-119879544D01*
X140179125Y-119899607D01*
X140177229Y-119900244D01*
X140175729Y-119898921D01*
X140175663Y-119897894D01*
X140179600Y-119878101D01*
X140179600Y-119753499D01*
X140175340Y-119732086D01*
X140175983Y-119730192D01*
X140177945Y-119729802D01*
X140178585Y-119730161D01*
X140229046Y-119772333D01*
X140299159Y-119781142D01*
X140362906Y-119750644D01*
X140400131Y-119690385D01*
X140404618Y-119657075D01*
X140405840Y-119655492D01*
X140407822Y-119655759D01*
G37*
G36*
X143983426Y-119439800D02*
G01*
X143983426Y-119441800D01*
X143982621Y-119442572D01*
X143919577Y-119475550D01*
X143884607Y-119536958D01*
X143888390Y-119607523D01*
X143929757Y-119664889D01*
X143982512Y-119688981D01*
X143983672Y-119690610D01*
X143982841Y-119692429D01*
X143981681Y-119692800D01*
X143306506Y-119692800D01*
X143304774Y-119691800D01*
X143304774Y-119689800D01*
X143305579Y-119689028D01*
X143368623Y-119656050D01*
X143403593Y-119594642D01*
X143399810Y-119524077D01*
X143358443Y-119466711D01*
X143305688Y-119442619D01*
X143304528Y-119440990D01*
X143305359Y-119439171D01*
X143306519Y-119438800D01*
X143981694Y-119438800D01*
X143983426Y-119439800D01*
G37*
G36*
X140108426Y-119439800D02*
G01*
X140108426Y-119441800D01*
X140107621Y-119442572D01*
X140044577Y-119475550D01*
X140009607Y-119536958D01*
X140013390Y-119607523D01*
X140054757Y-119664889D01*
X140107512Y-119688981D01*
X140108672Y-119690610D01*
X140107841Y-119692429D01*
X140106681Y-119692800D01*
X139431506Y-119692800D01*
X139429774Y-119691800D01*
X139429774Y-119689800D01*
X139430579Y-119689028D01*
X139493623Y-119656050D01*
X139528593Y-119594642D01*
X139524810Y-119524077D01*
X139483443Y-119466711D01*
X139430688Y-119442619D01*
X139429528Y-119440990D01*
X139430359Y-119439171D01*
X139431519Y-119438800D01*
X140106694Y-119438800D01*
X140108426Y-119439800D01*
G37*
G36*
X143008519Y-119156782D02*
G01*
X143028592Y-119225146D01*
X143081998Y-119271422D01*
X143151947Y-119281480D01*
X143216373Y-119252057D01*
X143234076Y-119231992D01*
X143235972Y-119231355D01*
X143237472Y-119232678D01*
X143237538Y-119233705D01*
X143233600Y-119253499D01*
X143233600Y-119378101D01*
X143237860Y-119399515D01*
X143237217Y-119401409D01*
X143235255Y-119401799D01*
X143234615Y-119401440D01*
X143184152Y-119359266D01*
X143114039Y-119350457D01*
X143050293Y-119380955D01*
X143013067Y-119441215D01*
X143008582Y-119474518D01*
X143007360Y-119476101D01*
X143005378Y-119475834D01*
X143004600Y-119474251D01*
X143004600Y-119157345D01*
X143005600Y-119155613D01*
X143007600Y-119155613D01*
X143008519Y-119156782D01*
G37*
G36*
X140407822Y-119155759D02*
G01*
X140408600Y-119157342D01*
X140408600Y-119474258D01*
X140407600Y-119475990D01*
X140405600Y-119475990D01*
X140404681Y-119474821D01*
X140384607Y-119406455D01*
X140331201Y-119360179D01*
X140261252Y-119350121D01*
X140196826Y-119379544D01*
X140179125Y-119399607D01*
X140177229Y-119400244D01*
X140175729Y-119398921D01*
X140175663Y-119397894D01*
X140179600Y-119378101D01*
X140179600Y-119253499D01*
X140175340Y-119232086D01*
X140175983Y-119230192D01*
X140177945Y-119229802D01*
X140178585Y-119230161D01*
X140229046Y-119272333D01*
X140299159Y-119281142D01*
X140362906Y-119250644D01*
X140400131Y-119190385D01*
X140404618Y-119157075D01*
X140405840Y-119155492D01*
X140407822Y-119155759D01*
G37*
G36*
X143983426Y-118939800D02*
G01*
X143983426Y-118941800D01*
X143982621Y-118942572D01*
X143919577Y-118975550D01*
X143884607Y-119036958D01*
X143888390Y-119107523D01*
X143929757Y-119164889D01*
X143982512Y-119188981D01*
X143983672Y-119190610D01*
X143982841Y-119192429D01*
X143981681Y-119192800D01*
X143306506Y-119192800D01*
X143304774Y-119191800D01*
X143304774Y-119189800D01*
X143305579Y-119189028D01*
X143368623Y-119156050D01*
X143403593Y-119094642D01*
X143399810Y-119024077D01*
X143358443Y-118966711D01*
X143305688Y-118942619D01*
X143304528Y-118940990D01*
X143305359Y-118939171D01*
X143306519Y-118938800D01*
X143981694Y-118938800D01*
X143983426Y-118939800D01*
G37*
G36*
X140108426Y-118939800D02*
G01*
X140108426Y-118941800D01*
X140107621Y-118942572D01*
X140044577Y-118975550D01*
X140009607Y-119036958D01*
X140013390Y-119107523D01*
X140054757Y-119164889D01*
X140107512Y-119188981D01*
X140108672Y-119190610D01*
X140107841Y-119192429D01*
X140106681Y-119192800D01*
X139431506Y-119192800D01*
X139429774Y-119191800D01*
X139429774Y-119189800D01*
X139430579Y-119189028D01*
X139493623Y-119156050D01*
X139528593Y-119094642D01*
X139524810Y-119024077D01*
X139483443Y-118966711D01*
X139430688Y-118942619D01*
X139429528Y-118940990D01*
X139430359Y-118939171D01*
X139431519Y-118938800D01*
X140106694Y-118938800D01*
X140108426Y-118939800D01*
G37*
G36*
X143235841Y-118739887D02*
G01*
X143236042Y-118741225D01*
X143233600Y-118753499D01*
X143233600Y-118878101D01*
X143237860Y-118899515D01*
X143237217Y-118901409D01*
X143235255Y-118901799D01*
X143234615Y-118901440D01*
X143184152Y-118859266D01*
X143114039Y-118850457D01*
X143050293Y-118880955D01*
X143013067Y-118941215D01*
X143008582Y-118974518D01*
X143007360Y-118976101D01*
X143005378Y-118975834D01*
X143004600Y-118974251D01*
X143004600Y-118770209D01*
X143005600Y-118768477D01*
X143007600Y-118768477D01*
X143008263Y-118769098D01*
X143009810Y-118771414D01*
X143064267Y-118816924D01*
X143134381Y-118825731D01*
X143198126Y-118795232D01*
X143232378Y-118739784D01*
X143234139Y-118738836D01*
X143235841Y-118739887D01*
G37*
G36*
X140179754Y-118734549D02*
G01*
X140181470Y-118737117D01*
X140181579Y-118737301D01*
X140208632Y-118789016D01*
X140270041Y-118823985D01*
X140340605Y-118820201D01*
X140398137Y-118778714D01*
X140403248Y-118771626D01*
X140404937Y-118769098D01*
X140406731Y-118768213D01*
X140408394Y-118769324D01*
X140408600Y-118770209D01*
X140408600Y-118974258D01*
X140407600Y-118975990D01*
X140405600Y-118975990D01*
X140404681Y-118974821D01*
X140384607Y-118906455D01*
X140331201Y-118860179D01*
X140261252Y-118850121D01*
X140196826Y-118879544D01*
X140179125Y-118899607D01*
X140177229Y-118900244D01*
X140175729Y-118898921D01*
X140175663Y-118897894D01*
X140179600Y-118878101D01*
X140179600Y-118753499D01*
X140176129Y-118736050D01*
X140176772Y-118734156D01*
X140178734Y-118733766D01*
X140179754Y-118734549D01*
G37*
G36*
X142894299Y-118538800D02*
G01*
X143018901Y-118538800D01*
X143036350Y-118535329D01*
X143038244Y-118535972D01*
X143038634Y-118537934D01*
X143037851Y-118538954D01*
X143035283Y-118540670D01*
X143035099Y-118540779D01*
X142983384Y-118567832D01*
X142948415Y-118629241D01*
X142952199Y-118699805D01*
X142993686Y-118757337D01*
X143000774Y-118762448D01*
X143003302Y-118764137D01*
X143004187Y-118765931D01*
X143003076Y-118767594D01*
X143002191Y-118767800D01*
X142798141Y-118767800D01*
X142796409Y-118766800D01*
X142796409Y-118764800D01*
X142797578Y-118763881D01*
X142865945Y-118743807D01*
X142912221Y-118690401D01*
X142922279Y-118620452D01*
X142892856Y-118556026D01*
X142872793Y-118538325D01*
X142872156Y-118536429D01*
X142873479Y-118534929D01*
X142874506Y-118534863D01*
X142894299Y-118538800D01*
G37*
G36*
X140542209Y-118535183D02*
G01*
X140542599Y-118537145D01*
X140542240Y-118537785D01*
X140500066Y-118588248D01*
X140491257Y-118658361D01*
X140521755Y-118722107D01*
X140582015Y-118759333D01*
X140615318Y-118763818D01*
X140616901Y-118765040D01*
X140616634Y-118767022D01*
X140615051Y-118767800D01*
X140411009Y-118767800D01*
X140409277Y-118766800D01*
X140409277Y-118764800D01*
X140409898Y-118764137D01*
X140412214Y-118762590D01*
X140457724Y-118708133D01*
X140466531Y-118638019D01*
X140436032Y-118574274D01*
X140380584Y-118540022D01*
X140379636Y-118538261D01*
X140380687Y-118536559D01*
X140382025Y-118536358D01*
X140394299Y-118538800D01*
X140518901Y-118538800D01*
X140540315Y-118534540D01*
X140542209Y-118535183D01*
G37*
G36*
X141542208Y-118535183D02*
G01*
X141542598Y-118537145D01*
X141542239Y-118537785D01*
X141500066Y-118588249D01*
X141491259Y-118658363D01*
X141521757Y-118722109D01*
X141582018Y-118759333D01*
X141615320Y-118763818D01*
X141616903Y-118765040D01*
X141616636Y-118767022D01*
X141615053Y-118767800D01*
X141298145Y-118767800D01*
X141296413Y-118766800D01*
X141296413Y-118764800D01*
X141297582Y-118763881D01*
X141365946Y-118743808D01*
X141412222Y-118690402D01*
X141422280Y-118620453D01*
X141392857Y-118556027D01*
X141372792Y-118538324D01*
X141372155Y-118536428D01*
X141373478Y-118534928D01*
X141374505Y-118534862D01*
X141394299Y-118538800D01*
X141518901Y-118538800D01*
X141540314Y-118534540D01*
X141542208Y-118535183D01*
G37*
G36*
X141042209Y-118535183D02*
G01*
X141042599Y-118537145D01*
X141042240Y-118537785D01*
X141000066Y-118588248D01*
X140991257Y-118658361D01*
X141021755Y-118722107D01*
X141082015Y-118759333D01*
X141115318Y-118763818D01*
X141116901Y-118765040D01*
X141116634Y-118767022D01*
X141115051Y-118767800D01*
X140798145Y-118767800D01*
X140796413Y-118766800D01*
X140796413Y-118764800D01*
X140797582Y-118763881D01*
X140865946Y-118743808D01*
X140912222Y-118690402D01*
X140922280Y-118620453D01*
X140892857Y-118556027D01*
X140872792Y-118538324D01*
X140872155Y-118536428D01*
X140873478Y-118534928D01*
X140874505Y-118534862D01*
X140894299Y-118538800D01*
X141018901Y-118538800D01*
X141040315Y-118534540D01*
X141042209Y-118535183D01*
G37*
G36*
X142542208Y-118535183D02*
G01*
X142542598Y-118537145D01*
X142542239Y-118537785D01*
X142500067Y-118588246D01*
X142491258Y-118658359D01*
X142521756Y-118722106D01*
X142582015Y-118759331D01*
X142615326Y-118763818D01*
X142616909Y-118765040D01*
X142616642Y-118767022D01*
X142615059Y-118767800D01*
X141798142Y-118767800D01*
X141796410Y-118766800D01*
X141796410Y-118764800D01*
X141797579Y-118763881D01*
X141865945Y-118743807D01*
X141912222Y-118690399D01*
X141922279Y-118620451D01*
X141892856Y-118556025D01*
X141872793Y-118538325D01*
X141872156Y-118536429D01*
X141873479Y-118534929D01*
X141874506Y-118534863D01*
X141894299Y-118538800D01*
X142018901Y-118538800D01*
X142040314Y-118534540D01*
X142042208Y-118535183D01*
X142042598Y-118537145D01*
X142042239Y-118537785D01*
X142000067Y-118588246D01*
X141991258Y-118658359D01*
X142021756Y-118722106D01*
X142082015Y-118759331D01*
X142115192Y-118763800D01*
X142297854Y-118763800D01*
X142365945Y-118743807D01*
X142412221Y-118690401D01*
X142422279Y-118620452D01*
X142392856Y-118556026D01*
X142372793Y-118538325D01*
X142372156Y-118536429D01*
X142373479Y-118534929D01*
X142374506Y-118534863D01*
X142394299Y-118538800D01*
X142518901Y-118538800D01*
X142540314Y-118534540D01*
X142542208Y-118535183D01*
G37*
G36*
X140833229Y-117789559D02*
G01*
X140833600Y-117790719D01*
X140833600Y-118465894D01*
X140832600Y-118467626D01*
X140830600Y-118467626D01*
X140829828Y-118466821D01*
X140796850Y-118403777D01*
X140735442Y-118368807D01*
X140664877Y-118372590D01*
X140607511Y-118413957D01*
X140583419Y-118466712D01*
X140581790Y-118467872D01*
X140579971Y-118467041D01*
X140579600Y-118465881D01*
X140579600Y-117790706D01*
X140580600Y-117788974D01*
X140582600Y-117788974D01*
X140583372Y-117789779D01*
X140616350Y-117852823D01*
X140677758Y-117887793D01*
X140748323Y-117884010D01*
X140805689Y-117842643D01*
X140829781Y-117789888D01*
X140831410Y-117788728D01*
X140833229Y-117789559D01*
G37*
G36*
X142333229Y-117789559D02*
G01*
X142333600Y-117790719D01*
X142333600Y-118465894D01*
X142332600Y-118467626D01*
X142330600Y-118467626D01*
X142329828Y-118466821D01*
X142296850Y-118403777D01*
X142235442Y-118368807D01*
X142164877Y-118372590D01*
X142107511Y-118413957D01*
X142083419Y-118466712D01*
X142081790Y-118467872D01*
X142079971Y-118467041D01*
X142079600Y-118465881D01*
X142079600Y-117790706D01*
X142080600Y-117788974D01*
X142082600Y-117788974D01*
X142083372Y-117789779D01*
X142116350Y-117852823D01*
X142177758Y-117887793D01*
X142248323Y-117884010D01*
X142305689Y-117842643D01*
X142329781Y-117789888D01*
X142331410Y-117788728D01*
X142333229Y-117789559D01*
G37*
G36*
X141833229Y-117789559D02*
G01*
X141833600Y-117790719D01*
X141833600Y-118465894D01*
X141832600Y-118467626D01*
X141830600Y-118467626D01*
X141829828Y-118466821D01*
X141796850Y-118403777D01*
X141735442Y-118368807D01*
X141664877Y-118372590D01*
X141607511Y-118413957D01*
X141583419Y-118466712D01*
X141581790Y-118467872D01*
X141579971Y-118467041D01*
X141579600Y-118465881D01*
X141579600Y-117790706D01*
X141580600Y-117788974D01*
X141582600Y-117788974D01*
X141583372Y-117789779D01*
X141616350Y-117852823D01*
X141677758Y-117887793D01*
X141748323Y-117884010D01*
X141805689Y-117842643D01*
X141829781Y-117789888D01*
X141831410Y-117788728D01*
X141833229Y-117789559D01*
G37*
G36*
X141333229Y-117789559D02*
G01*
X141333600Y-117790719D01*
X141333600Y-118465894D01*
X141332600Y-118467626D01*
X141330600Y-118467626D01*
X141329828Y-118466821D01*
X141296850Y-118403777D01*
X141235442Y-118368807D01*
X141164877Y-118372590D01*
X141107511Y-118413957D01*
X141083419Y-118466712D01*
X141081790Y-118467872D01*
X141079971Y-118467041D01*
X141079600Y-118465881D01*
X141079600Y-117790706D01*
X141080600Y-117788974D01*
X141082600Y-117788974D01*
X141083372Y-117789779D01*
X141116350Y-117852823D01*
X141177758Y-117887793D01*
X141248323Y-117884010D01*
X141305689Y-117842643D01*
X141329781Y-117789888D01*
X141331410Y-117788728D01*
X141333229Y-117789559D01*
G37*
G36*
X142833229Y-117789559D02*
G01*
X142833600Y-117790719D01*
X142833600Y-118465894D01*
X142832600Y-118467626D01*
X142830600Y-118467626D01*
X142829828Y-118466821D01*
X142796850Y-118403777D01*
X142735442Y-118368807D01*
X142664877Y-118372590D01*
X142607511Y-118413957D01*
X142583419Y-118466712D01*
X142581790Y-118467872D01*
X142579971Y-118467041D01*
X142579600Y-118465881D01*
X142579600Y-117790706D01*
X142580600Y-117788974D01*
X142582600Y-117788974D01*
X142583372Y-117789779D01*
X142616350Y-117852823D01*
X142677758Y-117887793D01*
X142748323Y-117884010D01*
X142805689Y-117842643D01*
X142829781Y-117789888D01*
X142831410Y-117788728D01*
X142833229Y-117789559D01*
G37*
G36*
X141076429Y-111741659D02*
G01*
X141076800Y-111742819D01*
X141076800Y-113217994D01*
X141075800Y-113219726D01*
X141073800Y-113219726D01*
X141073028Y-113218921D01*
X141040052Y-113155880D01*
X140978643Y-113120909D01*
X140908079Y-113124691D01*
X140850712Y-113166056D01*
X140826619Y-113218812D01*
X140824990Y-113219972D01*
X140823171Y-113219141D01*
X140822800Y-113217981D01*
X140822800Y-111742806D01*
X140823800Y-111741074D01*
X140825800Y-111741074D01*
X140826572Y-111741879D01*
X140859548Y-111804920D01*
X140920957Y-111839891D01*
X140991521Y-111836109D01*
X141048888Y-111794744D01*
X141072981Y-111741988D01*
X141074610Y-111740828D01*
X141076429Y-111741659D01*
G37*
G36*
X141726429Y-111741659D02*
G01*
X141726800Y-111742819D01*
X141726800Y-113217994D01*
X141725800Y-113219726D01*
X141723800Y-113219726D01*
X141723028Y-113218921D01*
X141690052Y-113155880D01*
X141628643Y-113120909D01*
X141558079Y-113124691D01*
X141500712Y-113166056D01*
X141476619Y-113218812D01*
X141474990Y-113219972D01*
X141473171Y-113219141D01*
X141472800Y-113217981D01*
X141472800Y-111742806D01*
X141473800Y-111741074D01*
X141475800Y-111741074D01*
X141476572Y-111741879D01*
X141509548Y-111804920D01*
X141570957Y-111839891D01*
X141641521Y-111836109D01*
X141698888Y-111794744D01*
X141722981Y-111741988D01*
X141724610Y-111740828D01*
X141726429Y-111741659D01*
G37*
G36*
X182987020Y-111167527D02*
G01*
X182986559Y-111168941D01*
X182946440Y-111216948D01*
X182937633Y-111287061D01*
X182968205Y-111350961D01*
X182977058Y-111358631D01*
X182977712Y-111360521D01*
X182976402Y-111362033D01*
X182974637Y-111361806D01*
X182962056Y-111353400D01*
X182914801Y-111344000D01*
X181840199Y-111344000D01*
X181792944Y-111353400D01*
X181771087Y-111368005D01*
X181769091Y-111368136D01*
X181767980Y-111366473D01*
X181768441Y-111365059D01*
X181808560Y-111317052D01*
X181817367Y-111246939D01*
X181786795Y-111183039D01*
X181777942Y-111175369D01*
X181777288Y-111173479D01*
X181778598Y-111171967D01*
X181780363Y-111172194D01*
X181792944Y-111180600D01*
X181840199Y-111190000D01*
X182914801Y-111190000D01*
X182962056Y-111180600D01*
X182983913Y-111165995D01*
X182985909Y-111165864D01*
X182987020Y-111167527D01*
G37*
G36*
X185262020Y-111167527D02*
G01*
X185261559Y-111168941D01*
X185221440Y-111216948D01*
X185212633Y-111287061D01*
X185243205Y-111350961D01*
X185252058Y-111358631D01*
X185252712Y-111360521D01*
X185251402Y-111362033D01*
X185249637Y-111361806D01*
X185237056Y-111353400D01*
X185189801Y-111344000D01*
X184115199Y-111344000D01*
X184067944Y-111353400D01*
X184046087Y-111368005D01*
X184044091Y-111368136D01*
X184042980Y-111366473D01*
X184043441Y-111365059D01*
X184083560Y-111317052D01*
X184092367Y-111246939D01*
X184061795Y-111183039D01*
X184052942Y-111175369D01*
X184052288Y-111173479D01*
X184053598Y-111171967D01*
X184055363Y-111172194D01*
X184067944Y-111180600D01*
X184115199Y-111190000D01*
X185189801Y-111190000D01*
X185237056Y-111180600D01*
X185258913Y-111165995D01*
X185260909Y-111165864D01*
X185262020Y-111167527D01*
G37*
G36*
X182987020Y-110517527D02*
G01*
X182986559Y-110518941D01*
X182946440Y-110566948D01*
X182937633Y-110637061D01*
X182968205Y-110700961D01*
X182977058Y-110708631D01*
X182977712Y-110710521D01*
X182976402Y-110712033D01*
X182974637Y-110711806D01*
X182962056Y-110703400D01*
X182914801Y-110694000D01*
X181840199Y-110694000D01*
X181792944Y-110703400D01*
X181771087Y-110718005D01*
X181769091Y-110718136D01*
X181767980Y-110716473D01*
X181768441Y-110715059D01*
X181808560Y-110667052D01*
X181817367Y-110596939D01*
X181786795Y-110533039D01*
X181777942Y-110525369D01*
X181777288Y-110523479D01*
X181778598Y-110521967D01*
X181780363Y-110522194D01*
X181792944Y-110530600D01*
X181840199Y-110540000D01*
X182914801Y-110540000D01*
X182962056Y-110530600D01*
X182983913Y-110515995D01*
X182985909Y-110515864D01*
X182987020Y-110517527D01*
G37*
G36*
X185262020Y-110517527D02*
G01*
X185261559Y-110518941D01*
X185221440Y-110566948D01*
X185212633Y-110637061D01*
X185243205Y-110700961D01*
X185252058Y-110708631D01*
X185252712Y-110710521D01*
X185251402Y-110712033D01*
X185249637Y-110711806D01*
X185237056Y-110703400D01*
X185189801Y-110694000D01*
X184115199Y-110694000D01*
X184067944Y-110703400D01*
X184046087Y-110718005D01*
X184044091Y-110718136D01*
X184042980Y-110716473D01*
X184043441Y-110715059D01*
X184083560Y-110667052D01*
X184092367Y-110596939D01*
X184061795Y-110533039D01*
X184052942Y-110525369D01*
X184052288Y-110523479D01*
X184053598Y-110521967D01*
X184055363Y-110522194D01*
X184067944Y-110530600D01*
X184115199Y-110540000D01*
X185189801Y-110540000D01*
X185237056Y-110530600D01*
X185258913Y-110515995D01*
X185260909Y-110515864D01*
X185262020Y-110517527D01*
G37*
G36*
X141076429Y-109081659D02*
G01*
X141076800Y-109082819D01*
X141076800Y-110557994D01*
X141075800Y-110559726D01*
X141073800Y-110559726D01*
X141073028Y-110558921D01*
X141040052Y-110495880D01*
X140978643Y-110460909D01*
X140908079Y-110464691D01*
X140850712Y-110506056D01*
X140826619Y-110558812D01*
X140824990Y-110559972D01*
X140823171Y-110559141D01*
X140822800Y-110557981D01*
X140822800Y-109082806D01*
X140823800Y-109081074D01*
X140825800Y-109081074D01*
X140826572Y-109081879D01*
X140859548Y-109144920D01*
X140920957Y-109179891D01*
X140991521Y-109176109D01*
X141048888Y-109134744D01*
X141072981Y-109081988D01*
X141074610Y-109080828D01*
X141076429Y-109081659D01*
G37*
G36*
X141726429Y-109081659D02*
G01*
X141726800Y-109082819D01*
X141726800Y-110557994D01*
X141725800Y-110559726D01*
X141723800Y-110559726D01*
X141723028Y-110558921D01*
X141690052Y-110495880D01*
X141628643Y-110460909D01*
X141558079Y-110464691D01*
X141500712Y-110506056D01*
X141476619Y-110558812D01*
X141474990Y-110559972D01*
X141473171Y-110559141D01*
X141472800Y-110557981D01*
X141472800Y-109082806D01*
X141473800Y-109081074D01*
X141475800Y-109081074D01*
X141476572Y-109081879D01*
X141509548Y-109144920D01*
X141570957Y-109179891D01*
X141641521Y-109176109D01*
X141698888Y-109134744D01*
X141722981Y-109081988D01*
X141724610Y-109080828D01*
X141726429Y-109081659D01*
G37*
G36*
X185262020Y-109867527D02*
G01*
X185261559Y-109868941D01*
X185221440Y-109916948D01*
X185212633Y-109987061D01*
X185243205Y-110050961D01*
X185252058Y-110058631D01*
X185252712Y-110060521D01*
X185251402Y-110062033D01*
X185249637Y-110061806D01*
X185237056Y-110053400D01*
X185189801Y-110044000D01*
X184115199Y-110044000D01*
X184067944Y-110053400D01*
X184046087Y-110068005D01*
X184044091Y-110068136D01*
X184042980Y-110066473D01*
X184043441Y-110065059D01*
X184083560Y-110017052D01*
X184092367Y-109946939D01*
X184061795Y-109883039D01*
X184052942Y-109875369D01*
X184052288Y-109873479D01*
X184053598Y-109871967D01*
X184055363Y-109872194D01*
X184067944Y-109880600D01*
X184115199Y-109890000D01*
X185189801Y-109890000D01*
X185237056Y-109880600D01*
X185258913Y-109865995D01*
X185260909Y-109865864D01*
X185262020Y-109867527D01*
G37*
G36*
X182987020Y-109867527D02*
G01*
X182986559Y-109868941D01*
X182946440Y-109916948D01*
X182937633Y-109987061D01*
X182968205Y-110050961D01*
X182977058Y-110058631D01*
X182977712Y-110060521D01*
X182976402Y-110062033D01*
X182974637Y-110061806D01*
X182962056Y-110053400D01*
X182914801Y-110044000D01*
X181840199Y-110044000D01*
X181792944Y-110053400D01*
X181771087Y-110068005D01*
X181769091Y-110068136D01*
X181767980Y-110066473D01*
X181768441Y-110065059D01*
X181808560Y-110017052D01*
X181817367Y-109946939D01*
X181786795Y-109883039D01*
X181777942Y-109875369D01*
X181777288Y-109873479D01*
X181778598Y-109871967D01*
X181780363Y-109872194D01*
X181792944Y-109880600D01*
X181840199Y-109890000D01*
X182914801Y-109890000D01*
X182962056Y-109880600D01*
X182983913Y-109865995D01*
X182985909Y-109865864D01*
X182987020Y-109867527D01*
G37*
G36*
X109959326Y-107753000D02*
G01*
X109959326Y-107755000D01*
X109958521Y-107755772D01*
X109895480Y-107788748D01*
X109860509Y-107850157D01*
X109864291Y-107920721D01*
X109905656Y-107978088D01*
X109958412Y-108002181D01*
X109959572Y-108003810D01*
X109958741Y-108005629D01*
X109957581Y-108006000D01*
X108482406Y-108006000D01*
X108480674Y-108005000D01*
X108480674Y-108003000D01*
X108481479Y-108002228D01*
X108544520Y-107969252D01*
X108579491Y-107907843D01*
X108575709Y-107837279D01*
X108534344Y-107779912D01*
X108481588Y-107755819D01*
X108480428Y-107754190D01*
X108481259Y-107752371D01*
X108482419Y-107752000D01*
X109957594Y-107752000D01*
X109959326Y-107753000D01*
G37*
G36*
X107299326Y-107753000D02*
G01*
X107299326Y-107755000D01*
X107298521Y-107755772D01*
X107235480Y-107788748D01*
X107200509Y-107850157D01*
X107204291Y-107920721D01*
X107245656Y-107978088D01*
X107298412Y-108002181D01*
X107299572Y-108003810D01*
X107298741Y-108005629D01*
X107297581Y-108006000D01*
X105822406Y-108006000D01*
X105820674Y-108005000D01*
X105820674Y-108003000D01*
X105821479Y-108002228D01*
X105884520Y-107969252D01*
X105919491Y-107907843D01*
X105915709Y-107837279D01*
X105874344Y-107779912D01*
X105821588Y-107755819D01*
X105820428Y-107754190D01*
X105821259Y-107752371D01*
X105822419Y-107752000D01*
X107297594Y-107752000D01*
X107299326Y-107753000D01*
G37*
G36*
X109959326Y-107103000D02*
G01*
X109959326Y-107105000D01*
X109958521Y-107105772D01*
X109895480Y-107138748D01*
X109860509Y-107200157D01*
X109864291Y-107270721D01*
X109905656Y-107328088D01*
X109958412Y-107352181D01*
X109959572Y-107353810D01*
X109958741Y-107355629D01*
X109957581Y-107356000D01*
X108482406Y-107356000D01*
X108480674Y-107355000D01*
X108480674Y-107353000D01*
X108481479Y-107352228D01*
X108544520Y-107319252D01*
X108579491Y-107257843D01*
X108575709Y-107187279D01*
X108534344Y-107129912D01*
X108481588Y-107105819D01*
X108480428Y-107104190D01*
X108481259Y-107102371D01*
X108482419Y-107102000D01*
X109957594Y-107102000D01*
X109959326Y-107103000D01*
G37*
G36*
X107299326Y-107103000D02*
G01*
X107299326Y-107105000D01*
X107298521Y-107105772D01*
X107235480Y-107138748D01*
X107200509Y-107200157D01*
X107204291Y-107270721D01*
X107245656Y-107328088D01*
X107298412Y-107352181D01*
X107299572Y-107353810D01*
X107298741Y-107355629D01*
X107297581Y-107356000D01*
X105822406Y-107356000D01*
X105820674Y-107355000D01*
X105820674Y-107353000D01*
X105821479Y-107352228D01*
X105884520Y-107319252D01*
X105919491Y-107257843D01*
X105915709Y-107187279D01*
X105874344Y-107129912D01*
X105821588Y-107105819D01*
X105820428Y-107104190D01*
X105821259Y-107102371D01*
X105822419Y-107102000D01*
X107297594Y-107102000D01*
X107299326Y-107103000D01*
G37*
G36*
X167190886Y-100111200D02*
G01*
X167190817Y-100113311D01*
X167180806Y-100128292D01*
X167180678Y-100128463D01*
X167152527Y-100162149D01*
X167143722Y-100232265D01*
X167174296Y-100296164D01*
X167189644Y-100309462D01*
X167189996Y-100309862D01*
X167190816Y-100311088D01*
X167190948Y-100313084D01*
X167189154Y-100314200D01*
X165720046Y-100314200D01*
X165718314Y-100313200D01*
X165718383Y-100311089D01*
X165728394Y-100296108D01*
X165728522Y-100295937D01*
X165756673Y-100262251D01*
X165765478Y-100192135D01*
X165734904Y-100128236D01*
X165719556Y-100114938D01*
X165719204Y-100114538D01*
X165718384Y-100113312D01*
X165718252Y-100111316D01*
X165720046Y-100110200D01*
X167189154Y-100110200D01*
X167190886Y-100111200D01*
G37*
G36*
X173066886Y-100111200D02*
G01*
X173066817Y-100113311D01*
X173056806Y-100128292D01*
X173056678Y-100128463D01*
X173028527Y-100162149D01*
X173019722Y-100232265D01*
X173050296Y-100296164D01*
X173065644Y-100309462D01*
X173065996Y-100309862D01*
X173066816Y-100311088D01*
X173066948Y-100313084D01*
X173065154Y-100314200D01*
X171596046Y-100314200D01*
X171594314Y-100313200D01*
X171594383Y-100311089D01*
X171604394Y-100296108D01*
X171604522Y-100295937D01*
X171632673Y-100262251D01*
X171641478Y-100192135D01*
X171610904Y-100128236D01*
X171595556Y-100114938D01*
X171595204Y-100114538D01*
X171594384Y-100113312D01*
X171594252Y-100111316D01*
X171596046Y-100110200D01*
X173065154Y-100110200D01*
X173066886Y-100111200D01*
G37*
G36*
X173066886Y-99461200D02*
G01*
X173066817Y-99463311D01*
X173056806Y-99478292D01*
X173056678Y-99478463D01*
X173028527Y-99512149D01*
X173019722Y-99582265D01*
X173050296Y-99646164D01*
X173065644Y-99659462D01*
X173065996Y-99659862D01*
X173066816Y-99661088D01*
X173066948Y-99663084D01*
X173065154Y-99664200D01*
X171596046Y-99664200D01*
X171594314Y-99663200D01*
X171594383Y-99661089D01*
X171604394Y-99646108D01*
X171604522Y-99645937D01*
X171632673Y-99612251D01*
X171641478Y-99542135D01*
X171610904Y-99478236D01*
X171595556Y-99464938D01*
X171595204Y-99464538D01*
X171594384Y-99463312D01*
X171594252Y-99461316D01*
X171596046Y-99460200D01*
X173065154Y-99460200D01*
X173066886Y-99461200D01*
G37*
G36*
X167190886Y-99461200D02*
G01*
X167190817Y-99463311D01*
X167180806Y-99478292D01*
X167180678Y-99478463D01*
X167152527Y-99512149D01*
X167143722Y-99582265D01*
X167174296Y-99646164D01*
X167189644Y-99659462D01*
X167189996Y-99659862D01*
X167190816Y-99661088D01*
X167190948Y-99663084D01*
X167189154Y-99664200D01*
X165720046Y-99664200D01*
X165718314Y-99663200D01*
X165718383Y-99661089D01*
X165728394Y-99646108D01*
X165728522Y-99645937D01*
X165756673Y-99612251D01*
X165765478Y-99542135D01*
X165734904Y-99478236D01*
X165719556Y-99464938D01*
X165719204Y-99464538D01*
X165718384Y-99463312D01*
X165718252Y-99461316D01*
X165720046Y-99460200D01*
X167189154Y-99460200D01*
X167190886Y-99461200D01*
G37*
G36*
X173066886Y-98811200D02*
G01*
X173066817Y-98813311D01*
X173056806Y-98828292D01*
X173056678Y-98828463D01*
X173028527Y-98862149D01*
X173019722Y-98932265D01*
X173050296Y-98996164D01*
X173065644Y-99009462D01*
X173065996Y-99009862D01*
X173066816Y-99011088D01*
X173066948Y-99013084D01*
X173065154Y-99014200D01*
X171596046Y-99014200D01*
X171594314Y-99013200D01*
X171594383Y-99011089D01*
X171604394Y-98996108D01*
X171604522Y-98995937D01*
X171632673Y-98962251D01*
X171641478Y-98892135D01*
X171610904Y-98828236D01*
X171595556Y-98814938D01*
X171595204Y-98814538D01*
X171594384Y-98813312D01*
X171594252Y-98811316D01*
X171596046Y-98810200D01*
X173065154Y-98810200D01*
X173066886Y-98811200D01*
G37*
G36*
X167190886Y-98811200D02*
G01*
X167190817Y-98813311D01*
X167180806Y-98828292D01*
X167180678Y-98828463D01*
X167152527Y-98862149D01*
X167143722Y-98932265D01*
X167174296Y-98996164D01*
X167189644Y-99009462D01*
X167189996Y-99009862D01*
X167190816Y-99011088D01*
X167190948Y-99013084D01*
X167189154Y-99014200D01*
X165720046Y-99014200D01*
X165718314Y-99013200D01*
X165718383Y-99011089D01*
X165728394Y-98996108D01*
X165728522Y-98995937D01*
X165756673Y-98962251D01*
X165765478Y-98892135D01*
X165734904Y-98828236D01*
X165719556Y-98814938D01*
X165719204Y-98814538D01*
X165718384Y-98813312D01*
X165718252Y-98811316D01*
X165720046Y-98810200D01*
X167189154Y-98810200D01*
X167190886Y-98811200D01*
G37*
G36*
X167190886Y-98161200D02*
G01*
X167190817Y-98163311D01*
X167180806Y-98178292D01*
X167180678Y-98178463D01*
X167152527Y-98212149D01*
X167143722Y-98282265D01*
X167174296Y-98346164D01*
X167189644Y-98359462D01*
X167189996Y-98359862D01*
X167190816Y-98361088D01*
X167190948Y-98363084D01*
X167189154Y-98364200D01*
X165720046Y-98364200D01*
X165718314Y-98363200D01*
X165718383Y-98361089D01*
X165728394Y-98346108D01*
X165728522Y-98345937D01*
X165756673Y-98312251D01*
X165765478Y-98242135D01*
X165734904Y-98178236D01*
X165719556Y-98164938D01*
X165719204Y-98164538D01*
X165718384Y-98163312D01*
X165718252Y-98161316D01*
X165720046Y-98160200D01*
X167189154Y-98160200D01*
X167190886Y-98161200D01*
G37*
G36*
X173066886Y-98161200D02*
G01*
X173066817Y-98163311D01*
X173056806Y-98178292D01*
X173056678Y-98178463D01*
X173028527Y-98212149D01*
X173019722Y-98282265D01*
X173050296Y-98346164D01*
X173065644Y-98359462D01*
X173065996Y-98359862D01*
X173066816Y-98361088D01*
X173066948Y-98363084D01*
X173065154Y-98364200D01*
X171596046Y-98364200D01*
X171594314Y-98363200D01*
X171594383Y-98361089D01*
X171604394Y-98346108D01*
X171604522Y-98345937D01*
X171632673Y-98312251D01*
X171641478Y-98242135D01*
X171610904Y-98178236D01*
X171595556Y-98164938D01*
X171595204Y-98164538D01*
X171594384Y-98163312D01*
X171594252Y-98161316D01*
X171596046Y-98160200D01*
X173065154Y-98160200D01*
X173066886Y-98161200D01*
G37*
G36*
X173066886Y-97511200D02*
G01*
X173066817Y-97513311D01*
X173056806Y-97528292D01*
X173056678Y-97528463D01*
X173028527Y-97562149D01*
X173019722Y-97632265D01*
X173050296Y-97696164D01*
X173065644Y-97709462D01*
X173065996Y-97709862D01*
X173066816Y-97711088D01*
X173066948Y-97713084D01*
X173065154Y-97714200D01*
X171596046Y-97714200D01*
X171594314Y-97713200D01*
X171594383Y-97711089D01*
X171604394Y-97696108D01*
X171604522Y-97695937D01*
X171632673Y-97662251D01*
X171641478Y-97592135D01*
X171610904Y-97528236D01*
X171595556Y-97514938D01*
X171595204Y-97514538D01*
X171594384Y-97513312D01*
X171594252Y-97511316D01*
X171596046Y-97510200D01*
X173065154Y-97510200D01*
X173066886Y-97511200D01*
G37*
G36*
X167190886Y-97511200D02*
G01*
X167190817Y-97513311D01*
X167180806Y-97528292D01*
X167180678Y-97528463D01*
X167152527Y-97562149D01*
X167143722Y-97632265D01*
X167174296Y-97696164D01*
X167189644Y-97709462D01*
X167189996Y-97709862D01*
X167190816Y-97711088D01*
X167190948Y-97713084D01*
X167189154Y-97714200D01*
X165720046Y-97714200D01*
X165718314Y-97713200D01*
X165718383Y-97711089D01*
X165728394Y-97696108D01*
X165728522Y-97695937D01*
X165756673Y-97662251D01*
X165765478Y-97592135D01*
X165734904Y-97528236D01*
X165719556Y-97514938D01*
X165719204Y-97514538D01*
X165718384Y-97513312D01*
X165718252Y-97511316D01*
X165720046Y-97510200D01*
X167189154Y-97510200D01*
X167190886Y-97511200D01*
G37*
G36*
X173066886Y-96861200D02*
G01*
X173066817Y-96863311D01*
X173056806Y-96878292D01*
X173056678Y-96878463D01*
X173028527Y-96912149D01*
X173019722Y-96982265D01*
X173050296Y-97046164D01*
X173065644Y-97059462D01*
X173065996Y-97059862D01*
X173066816Y-97061088D01*
X173066948Y-97063084D01*
X173065154Y-97064200D01*
X171596046Y-97064200D01*
X171594314Y-97063200D01*
X171594383Y-97061089D01*
X171604394Y-97046108D01*
X171604522Y-97045937D01*
X171632673Y-97012251D01*
X171641478Y-96942135D01*
X171610904Y-96878236D01*
X171595556Y-96864938D01*
X171595204Y-96864538D01*
X171594384Y-96863312D01*
X171594252Y-96861316D01*
X171596046Y-96860200D01*
X173065154Y-96860200D01*
X173066886Y-96861200D01*
G37*
G36*
X167190886Y-96861200D02*
G01*
X167190817Y-96863311D01*
X167180806Y-96878292D01*
X167180678Y-96878463D01*
X167152527Y-96912149D01*
X167143722Y-96982265D01*
X167174296Y-97046164D01*
X167189644Y-97059462D01*
X167189996Y-97059862D01*
X167190816Y-97061088D01*
X167190948Y-97063084D01*
X167189154Y-97064200D01*
X165720046Y-97064200D01*
X165718314Y-97063200D01*
X165718383Y-97061089D01*
X165728394Y-97046108D01*
X165728522Y-97045937D01*
X165756673Y-97012251D01*
X165765478Y-96942135D01*
X165734904Y-96878236D01*
X165719556Y-96864938D01*
X165719204Y-96864538D01*
X165718384Y-96863312D01*
X165718252Y-96861316D01*
X165720046Y-96860200D01*
X167189154Y-96860200D01*
X167190886Y-96861200D01*
G37*
G36*
X167190886Y-96211200D02*
G01*
X167190817Y-96213311D01*
X167180806Y-96228292D01*
X167180678Y-96228463D01*
X167152527Y-96262149D01*
X167143722Y-96332265D01*
X167174296Y-96396164D01*
X167189644Y-96409462D01*
X167189996Y-96409862D01*
X167190816Y-96411088D01*
X167190948Y-96413084D01*
X167189154Y-96414200D01*
X165720046Y-96414200D01*
X165718314Y-96413200D01*
X165718383Y-96411089D01*
X165728394Y-96396108D01*
X165728522Y-96395937D01*
X165756673Y-96362251D01*
X165765478Y-96292135D01*
X165734904Y-96228236D01*
X165719556Y-96214938D01*
X165719204Y-96214538D01*
X165718384Y-96213312D01*
X165718252Y-96211316D01*
X165720046Y-96210200D01*
X167189154Y-96210200D01*
X167190886Y-96211200D01*
G37*
G36*
X173066886Y-96211200D02*
G01*
X173066817Y-96213311D01*
X173056806Y-96228292D01*
X173056678Y-96228463D01*
X173028527Y-96262149D01*
X173019722Y-96332265D01*
X173050296Y-96396164D01*
X173065644Y-96409462D01*
X173065996Y-96409862D01*
X173066816Y-96411088D01*
X173066948Y-96413084D01*
X173065154Y-96414200D01*
X171596046Y-96414200D01*
X171594314Y-96413200D01*
X171594383Y-96411089D01*
X171604394Y-96396108D01*
X171604522Y-96395937D01*
X171632673Y-96362251D01*
X171641478Y-96292135D01*
X171610904Y-96228236D01*
X171595556Y-96214938D01*
X171595204Y-96214538D01*
X171594384Y-96213312D01*
X171594252Y-96211316D01*
X171596046Y-96210200D01*
X173065154Y-96210200D01*
X173066886Y-96211200D01*
G37*
G36*
X167190886Y-95561200D02*
G01*
X167190817Y-95563311D01*
X167180806Y-95578292D01*
X167180678Y-95578463D01*
X167152527Y-95612149D01*
X167143722Y-95682265D01*
X167174296Y-95746164D01*
X167189644Y-95759462D01*
X167189996Y-95759862D01*
X167190816Y-95761088D01*
X167190948Y-95763084D01*
X167189154Y-95764200D01*
X165720046Y-95764200D01*
X165718314Y-95763200D01*
X165718383Y-95761089D01*
X165728394Y-95746108D01*
X165728522Y-95745937D01*
X165756673Y-95712251D01*
X165765478Y-95642135D01*
X165734904Y-95578236D01*
X165719556Y-95564938D01*
X165719204Y-95564538D01*
X165718384Y-95563312D01*
X165718252Y-95561316D01*
X165720046Y-95560200D01*
X167189154Y-95560200D01*
X167190886Y-95561200D01*
G37*
G36*
X173066886Y-95561200D02*
G01*
X173066817Y-95563311D01*
X173056806Y-95578292D01*
X173056678Y-95578463D01*
X173028527Y-95612149D01*
X173019722Y-95682265D01*
X173050296Y-95746164D01*
X173065644Y-95759462D01*
X173065996Y-95759862D01*
X173066816Y-95761088D01*
X173066948Y-95763084D01*
X173065154Y-95764200D01*
X171596046Y-95764200D01*
X171594314Y-95763200D01*
X171594383Y-95761089D01*
X171604394Y-95746108D01*
X171604522Y-95745937D01*
X171632673Y-95712251D01*
X171641478Y-95642135D01*
X171610904Y-95578236D01*
X171595556Y-95564938D01*
X171595204Y-95564538D01*
X171594384Y-95563312D01*
X171594252Y-95561316D01*
X171596046Y-95560200D01*
X173065154Y-95560200D01*
X173066886Y-95561200D01*
G37*
G36*
X124885129Y-94063259D02*
G01*
X124885500Y-94064419D01*
X124885500Y-95539594D01*
X124884500Y-95541326D01*
X124882500Y-95541326D01*
X124881728Y-95540521D01*
X124848752Y-95477480D01*
X124787343Y-95442509D01*
X124716779Y-95446291D01*
X124659412Y-95487656D01*
X124635319Y-95540412D01*
X124633690Y-95541572D01*
X124631871Y-95540741D01*
X124631500Y-95539581D01*
X124631500Y-94064406D01*
X124632500Y-94062674D01*
X124634500Y-94062674D01*
X124635272Y-94063479D01*
X124668248Y-94126520D01*
X124729657Y-94161491D01*
X124800221Y-94157709D01*
X124857588Y-94116344D01*
X124881681Y-94063588D01*
X124883310Y-94062428D01*
X124885129Y-94063259D01*
G37*
G36*
X124235129Y-94063259D02*
G01*
X124235500Y-94064419D01*
X124235500Y-95539594D01*
X124234500Y-95541326D01*
X124232500Y-95541326D01*
X124231728Y-95540521D01*
X124198752Y-95477480D01*
X124137343Y-95442509D01*
X124066779Y-95446291D01*
X124009412Y-95487656D01*
X123985319Y-95540412D01*
X123983690Y-95541572D01*
X123981871Y-95540741D01*
X123981500Y-95539581D01*
X123981500Y-94064406D01*
X123982500Y-94062674D01*
X123984500Y-94062674D01*
X123985272Y-94063479D01*
X124018248Y-94126520D01*
X124079657Y-94161491D01*
X124150221Y-94157709D01*
X124207588Y-94116344D01*
X124231681Y-94063588D01*
X124233310Y-94062428D01*
X124235129Y-94063259D01*
G37*
G36*
X167190886Y-94911200D02*
G01*
X167190817Y-94913311D01*
X167180806Y-94928292D01*
X167180678Y-94928463D01*
X167152527Y-94962149D01*
X167143722Y-95032265D01*
X167174296Y-95096164D01*
X167189644Y-95109462D01*
X167189996Y-95109862D01*
X167190816Y-95111088D01*
X167190948Y-95113084D01*
X167189154Y-95114200D01*
X165720046Y-95114200D01*
X165718314Y-95113200D01*
X165718383Y-95111089D01*
X165728394Y-95096108D01*
X165728522Y-95095937D01*
X165756673Y-95062251D01*
X165765478Y-94992135D01*
X165734904Y-94928236D01*
X165719556Y-94914938D01*
X165719204Y-94914538D01*
X165718384Y-94913312D01*
X165718252Y-94911316D01*
X165720046Y-94910200D01*
X167189154Y-94910200D01*
X167190886Y-94911200D01*
G37*
G36*
X173066886Y-94911200D02*
G01*
X173066817Y-94913311D01*
X173056806Y-94928292D01*
X173056678Y-94928463D01*
X173028527Y-94962149D01*
X173019722Y-95032265D01*
X173050296Y-95096164D01*
X173065644Y-95109462D01*
X173065996Y-95109862D01*
X173066816Y-95111088D01*
X173066948Y-95113084D01*
X173065154Y-95114200D01*
X171596046Y-95114200D01*
X171594314Y-95113200D01*
X171594383Y-95111089D01*
X171604394Y-95096108D01*
X171604522Y-95095937D01*
X171632673Y-95062251D01*
X171641478Y-94992135D01*
X171610904Y-94928236D01*
X171595556Y-94914938D01*
X171595204Y-94914538D01*
X171594384Y-94913312D01*
X171594252Y-94911316D01*
X171596046Y-94910200D01*
X173065154Y-94910200D01*
X173066886Y-94911200D01*
G37*
G36*
X124885129Y-91403259D02*
G01*
X124885500Y-91404419D01*
X124885500Y-92879594D01*
X124884500Y-92881326D01*
X124882500Y-92881326D01*
X124881728Y-92880521D01*
X124848752Y-92817480D01*
X124787343Y-92782509D01*
X124716779Y-92786291D01*
X124659412Y-92827656D01*
X124635319Y-92880412D01*
X124633690Y-92881572D01*
X124631871Y-92880741D01*
X124631500Y-92879581D01*
X124631500Y-91404406D01*
X124632500Y-91402674D01*
X124634500Y-91402674D01*
X124635272Y-91403479D01*
X124668248Y-91466520D01*
X124729657Y-91501491D01*
X124800221Y-91497709D01*
X124857588Y-91456344D01*
X124881681Y-91403588D01*
X124883310Y-91402428D01*
X124885129Y-91403259D01*
G37*
G36*
X124235129Y-91403259D02*
G01*
X124235500Y-91404419D01*
X124235500Y-92879594D01*
X124234500Y-92881326D01*
X124232500Y-92881326D01*
X124231728Y-92880521D01*
X124198752Y-92817480D01*
X124137343Y-92782509D01*
X124066779Y-92786291D01*
X124009412Y-92827656D01*
X123985319Y-92880412D01*
X123983690Y-92881572D01*
X123981871Y-92880741D01*
X123981500Y-92879581D01*
X123981500Y-91404406D01*
X123982500Y-91402674D01*
X123984500Y-91402674D01*
X123985272Y-91403479D01*
X124018248Y-91466520D01*
X124079657Y-91501491D01*
X124150221Y-91497709D01*
X124207588Y-91456344D01*
X124231681Y-91403588D01*
X124233310Y-91402428D01*
X124235129Y-91403259D01*
G37*
G36*
X136375326Y-91913600D02*
G01*
X136375326Y-91915600D01*
X136374521Y-91916372D01*
X136311480Y-91949348D01*
X136276509Y-92010757D01*
X136280291Y-92081321D01*
X136321656Y-92138688D01*
X136374412Y-92162781D01*
X136375572Y-92164410D01*
X136374741Y-92166229D01*
X136373581Y-92166600D01*
X134898403Y-92166600D01*
X134896671Y-92165600D01*
X134896671Y-92163600D01*
X134897476Y-92162828D01*
X134960519Y-92129851D01*
X134995490Y-92068442D01*
X134991707Y-91997878D01*
X134950340Y-91940511D01*
X134897585Y-91916419D01*
X134896425Y-91914790D01*
X134897256Y-91912971D01*
X134898416Y-91912600D01*
X136373594Y-91912600D01*
X136375326Y-91913600D01*
G37*
G36*
X136375329Y-90663600D02*
G01*
X136375329Y-90665600D01*
X136374524Y-90666372D01*
X136311481Y-90699349D01*
X136276510Y-90760758D01*
X136280293Y-90831322D01*
X136321660Y-90888689D01*
X136374415Y-90912781D01*
X136375575Y-90914410D01*
X136374744Y-90916229D01*
X136373584Y-90916600D01*
X134898406Y-90916600D01*
X134896674Y-90915600D01*
X134896674Y-90913600D01*
X134897479Y-90912828D01*
X134960520Y-90879852D01*
X134995491Y-90818443D01*
X134991709Y-90747879D01*
X134950344Y-90690512D01*
X134897588Y-90666419D01*
X134896428Y-90664790D01*
X134897259Y-90662971D01*
X134898419Y-90662600D01*
X136373597Y-90662600D01*
X136375329Y-90663600D01*
G37*
G36*
X154625429Y-88365059D02*
G01*
X154625800Y-88366219D01*
X154625800Y-88991394D01*
X154624800Y-88993126D01*
X154622800Y-88993126D01*
X154622028Y-88992321D01*
X154589050Y-88929277D01*
X154527642Y-88894307D01*
X154457077Y-88898090D01*
X154399711Y-88939457D01*
X154375619Y-88992212D01*
X154373990Y-88993372D01*
X154372171Y-88992541D01*
X154371800Y-88991381D01*
X154371800Y-88366206D01*
X154372800Y-88364474D01*
X154374800Y-88364474D01*
X154375572Y-88365279D01*
X154408550Y-88428323D01*
X154469958Y-88463293D01*
X154540523Y-88459510D01*
X154597889Y-88418143D01*
X154621981Y-88365388D01*
X154623610Y-88364228D01*
X154625429Y-88365059D01*
G37*
G36*
X155125429Y-88365059D02*
G01*
X155125800Y-88366219D01*
X155125800Y-88991394D01*
X155124800Y-88993126D01*
X155122800Y-88993126D01*
X155122028Y-88992321D01*
X155089050Y-88929277D01*
X155027642Y-88894307D01*
X154957077Y-88898090D01*
X154899711Y-88939457D01*
X154875619Y-88992212D01*
X154873990Y-88993372D01*
X154872171Y-88992541D01*
X154871800Y-88991381D01*
X154871800Y-88366206D01*
X154872800Y-88364474D01*
X154874800Y-88364474D01*
X154875572Y-88365279D01*
X154908550Y-88428323D01*
X154969958Y-88463293D01*
X155040523Y-88459510D01*
X155097889Y-88418143D01*
X155121981Y-88365388D01*
X155123610Y-88364228D01*
X155125429Y-88365059D01*
G37*
G36*
X155625429Y-88365059D02*
G01*
X155625800Y-88366219D01*
X155625800Y-88991394D01*
X155624800Y-88993126D01*
X155622800Y-88993126D01*
X155622028Y-88992321D01*
X155589050Y-88929277D01*
X155527642Y-88894307D01*
X155457077Y-88898090D01*
X155399711Y-88939457D01*
X155375619Y-88992212D01*
X155373990Y-88993372D01*
X155372171Y-88992541D01*
X155371800Y-88991381D01*
X155371800Y-88366206D01*
X155372800Y-88364474D01*
X155374800Y-88364474D01*
X155375572Y-88365279D01*
X155408550Y-88428323D01*
X155469958Y-88463293D01*
X155540523Y-88459510D01*
X155597889Y-88418143D01*
X155621981Y-88365388D01*
X155623610Y-88364228D01*
X155625429Y-88365059D01*
G37*
G36*
X156125429Y-88365059D02*
G01*
X156125800Y-88366219D01*
X156125800Y-88991394D01*
X156124800Y-88993126D01*
X156122800Y-88993126D01*
X156122028Y-88992321D01*
X156089050Y-88929277D01*
X156027642Y-88894307D01*
X155957077Y-88898090D01*
X155899711Y-88939457D01*
X155875619Y-88992212D01*
X155873990Y-88993372D01*
X155872171Y-88992541D01*
X155871800Y-88991381D01*
X155871800Y-88366206D01*
X155872800Y-88364474D01*
X155874800Y-88364474D01*
X155875572Y-88365279D01*
X155908550Y-88428323D01*
X155969958Y-88463293D01*
X156040523Y-88459510D01*
X156097889Y-88418143D01*
X156121981Y-88365388D01*
X156123610Y-88364228D01*
X156125429Y-88365059D01*
G37*
G36*
X156625429Y-88365059D02*
G01*
X156625800Y-88366219D01*
X156625800Y-88991394D01*
X156624800Y-88993126D01*
X156622800Y-88993126D01*
X156622028Y-88992321D01*
X156589050Y-88929277D01*
X156527642Y-88894307D01*
X156457077Y-88898090D01*
X156399711Y-88939457D01*
X156375619Y-88992212D01*
X156373990Y-88993372D01*
X156372171Y-88992541D01*
X156371800Y-88991381D01*
X156371800Y-88366206D01*
X156372800Y-88364474D01*
X156374800Y-88364474D01*
X156375572Y-88365279D01*
X156408550Y-88428323D01*
X156469958Y-88463293D01*
X156540523Y-88459510D01*
X156597889Y-88418143D01*
X156621981Y-88365388D01*
X156623610Y-88364228D01*
X156625429Y-88365059D01*
G37*
G36*
X153825626Y-87565300D02*
G01*
X153825626Y-87567300D01*
X153824821Y-87568072D01*
X153761777Y-87601050D01*
X153726807Y-87662458D01*
X153730590Y-87733023D01*
X153771957Y-87790389D01*
X153824712Y-87814481D01*
X153825872Y-87816110D01*
X153825041Y-87817929D01*
X153823881Y-87818300D01*
X153198706Y-87818300D01*
X153196974Y-87817300D01*
X153196974Y-87815300D01*
X153197779Y-87814528D01*
X153260823Y-87781550D01*
X153295793Y-87720142D01*
X153292010Y-87649577D01*
X153250643Y-87592211D01*
X153197888Y-87568119D01*
X153196728Y-87566490D01*
X153197559Y-87564671D01*
X153198719Y-87564300D01*
X153823894Y-87564300D01*
X153825626Y-87565300D01*
G37*
G36*
X157800626Y-87565300D02*
G01*
X157800626Y-87567300D01*
X157799821Y-87568072D01*
X157736777Y-87601050D01*
X157701807Y-87662458D01*
X157705590Y-87733023D01*
X157746957Y-87790389D01*
X157799712Y-87814481D01*
X157800872Y-87816110D01*
X157800041Y-87817929D01*
X157798881Y-87818300D01*
X157173706Y-87818300D01*
X157171974Y-87817300D01*
X157171974Y-87815300D01*
X157172779Y-87814528D01*
X157235823Y-87781550D01*
X157270793Y-87720142D01*
X157267010Y-87649577D01*
X157225643Y-87592211D01*
X157172888Y-87568119D01*
X157171728Y-87566490D01*
X157172559Y-87564671D01*
X157173719Y-87564300D01*
X157798894Y-87564300D01*
X157800626Y-87565300D01*
G37*
G36*
X157800626Y-87065300D02*
G01*
X157800626Y-87067300D01*
X157799821Y-87068072D01*
X157736777Y-87101050D01*
X157701807Y-87162458D01*
X157705590Y-87233023D01*
X157746957Y-87290389D01*
X157799712Y-87314481D01*
X157800872Y-87316110D01*
X157800041Y-87317929D01*
X157798881Y-87318300D01*
X157173706Y-87318300D01*
X157171974Y-87317300D01*
X157171974Y-87315300D01*
X157172779Y-87314528D01*
X157235823Y-87281550D01*
X157270793Y-87220142D01*
X157267010Y-87149577D01*
X157225643Y-87092211D01*
X157172888Y-87068119D01*
X157171728Y-87066490D01*
X157172559Y-87064671D01*
X157173719Y-87064300D01*
X157798894Y-87064300D01*
X157800626Y-87065300D01*
G37*
G36*
X153825626Y-87065300D02*
G01*
X153825626Y-87067300D01*
X153824821Y-87068072D01*
X153761777Y-87101050D01*
X153726807Y-87162458D01*
X153730590Y-87233023D01*
X153771957Y-87290389D01*
X153824712Y-87314481D01*
X153825872Y-87316110D01*
X153825041Y-87317929D01*
X153823881Y-87318300D01*
X153198706Y-87318300D01*
X153196974Y-87317300D01*
X153196974Y-87315300D01*
X153197779Y-87314528D01*
X153260823Y-87281550D01*
X153295793Y-87220142D01*
X153292010Y-87149577D01*
X153250643Y-87092211D01*
X153197888Y-87068119D01*
X153196728Y-87066490D01*
X153197559Y-87064671D01*
X153198719Y-87064300D01*
X153823894Y-87064300D01*
X153825626Y-87065300D01*
G37*
G36*
X153825626Y-86565300D02*
G01*
X153825626Y-86567300D01*
X153824821Y-86568072D01*
X153761777Y-86601050D01*
X153726807Y-86662458D01*
X153730590Y-86733023D01*
X153771957Y-86790389D01*
X153824712Y-86814481D01*
X153825872Y-86816110D01*
X153825041Y-86817929D01*
X153823881Y-86818300D01*
X153198706Y-86818300D01*
X153196974Y-86817300D01*
X153196974Y-86815300D01*
X153197779Y-86814528D01*
X153260823Y-86781550D01*
X153295793Y-86720142D01*
X153292010Y-86649577D01*
X153250643Y-86592211D01*
X153197888Y-86568119D01*
X153196728Y-86566490D01*
X153197559Y-86564671D01*
X153198719Y-86564300D01*
X153823894Y-86564300D01*
X153825626Y-86565300D01*
G37*
G36*
X157800626Y-86565300D02*
G01*
X157800626Y-86567300D01*
X157799821Y-86568072D01*
X157736777Y-86601050D01*
X157701807Y-86662458D01*
X157705590Y-86733023D01*
X157746957Y-86790389D01*
X157799712Y-86814481D01*
X157800872Y-86816110D01*
X157800041Y-86817929D01*
X157798881Y-86818300D01*
X157173706Y-86818300D01*
X157171974Y-86817300D01*
X157171974Y-86815300D01*
X157172779Y-86814528D01*
X157235823Y-86781550D01*
X157270793Y-86720142D01*
X157267010Y-86649577D01*
X157225643Y-86592211D01*
X157172888Y-86568119D01*
X157171728Y-86566490D01*
X157172559Y-86564671D01*
X157173719Y-86564300D01*
X157798894Y-86564300D01*
X157800626Y-86565300D01*
G37*
G36*
X153825626Y-86065300D02*
G01*
X153825626Y-86067300D01*
X153824821Y-86068072D01*
X153761777Y-86101050D01*
X153726807Y-86162458D01*
X153730590Y-86233023D01*
X153771957Y-86290389D01*
X153824712Y-86314481D01*
X153825872Y-86316110D01*
X153825041Y-86317929D01*
X153823881Y-86318300D01*
X153198706Y-86318300D01*
X153196974Y-86317300D01*
X153196974Y-86315300D01*
X153197779Y-86314528D01*
X153260823Y-86281550D01*
X153295793Y-86220142D01*
X153292010Y-86149577D01*
X153250643Y-86092211D01*
X153197888Y-86068119D01*
X153196728Y-86066490D01*
X153197559Y-86064671D01*
X153198719Y-86064300D01*
X153823894Y-86064300D01*
X153825626Y-86065300D01*
G37*
G36*
X157800626Y-86065300D02*
G01*
X157800626Y-86067300D01*
X157799821Y-86068072D01*
X157736777Y-86101050D01*
X157701807Y-86162458D01*
X157705590Y-86233023D01*
X157746957Y-86290389D01*
X157799712Y-86314481D01*
X157800872Y-86316110D01*
X157800041Y-86317929D01*
X157798881Y-86318300D01*
X157173706Y-86318300D01*
X157171974Y-86317300D01*
X157171974Y-86315300D01*
X157172779Y-86314528D01*
X157235823Y-86281550D01*
X157270793Y-86220142D01*
X157267010Y-86149577D01*
X157225643Y-86092211D01*
X157172888Y-86068119D01*
X157171728Y-86066490D01*
X157172559Y-86064671D01*
X157173719Y-86064300D01*
X157798894Y-86064300D01*
X157800626Y-86065300D01*
G37*
G36*
X153825626Y-85565300D02*
G01*
X153825626Y-85567300D01*
X153824821Y-85568072D01*
X153761777Y-85601050D01*
X153726807Y-85662458D01*
X153730590Y-85733023D01*
X153771957Y-85790389D01*
X153824712Y-85814481D01*
X153825872Y-85816110D01*
X153825041Y-85817929D01*
X153823881Y-85818300D01*
X153198706Y-85818300D01*
X153196974Y-85817300D01*
X153196974Y-85815300D01*
X153197779Y-85814528D01*
X153260823Y-85781550D01*
X153295793Y-85720142D01*
X153292010Y-85649577D01*
X153250643Y-85592211D01*
X153197888Y-85568119D01*
X153196728Y-85566490D01*
X153197559Y-85564671D01*
X153198719Y-85564300D01*
X153823894Y-85564300D01*
X153825626Y-85565300D01*
G37*
G36*
X157800626Y-85565300D02*
G01*
X157800626Y-85567300D01*
X157799821Y-85568072D01*
X157736777Y-85601050D01*
X157701807Y-85662458D01*
X157705590Y-85733023D01*
X157746957Y-85790389D01*
X157799712Y-85814481D01*
X157800872Y-85816110D01*
X157800041Y-85817929D01*
X157798881Y-85818300D01*
X157173706Y-85818300D01*
X157171974Y-85817300D01*
X157171974Y-85815300D01*
X157172779Y-85814528D01*
X157235823Y-85781550D01*
X157270793Y-85720142D01*
X157267010Y-85649577D01*
X157225643Y-85592211D01*
X157172888Y-85568119D01*
X157171728Y-85566490D01*
X157172559Y-85564671D01*
X157173719Y-85564300D01*
X157798894Y-85564300D01*
X157800626Y-85565300D01*
G37*
G36*
X154625429Y-84390059D02*
G01*
X154625800Y-84391219D01*
X154625800Y-85016394D01*
X154624800Y-85018126D01*
X154622800Y-85018126D01*
X154622028Y-85017321D01*
X154589050Y-84954277D01*
X154527642Y-84919307D01*
X154457077Y-84923090D01*
X154399711Y-84964457D01*
X154375619Y-85017212D01*
X154373990Y-85018372D01*
X154372171Y-85017541D01*
X154371800Y-85016381D01*
X154371800Y-84391206D01*
X154372800Y-84389474D01*
X154374800Y-84389474D01*
X154375572Y-84390279D01*
X154408550Y-84453323D01*
X154469958Y-84488293D01*
X154540523Y-84484510D01*
X154597889Y-84443143D01*
X154621981Y-84390388D01*
X154623610Y-84389228D01*
X154625429Y-84390059D01*
G37*
G36*
X156125429Y-84390059D02*
G01*
X156125800Y-84391219D01*
X156125800Y-85016394D01*
X156124800Y-85018126D01*
X156122800Y-85018126D01*
X156122028Y-85017321D01*
X156089050Y-84954277D01*
X156027642Y-84919307D01*
X155957077Y-84923090D01*
X155899711Y-84964457D01*
X155875619Y-85017212D01*
X155873990Y-85018372D01*
X155872171Y-85017541D01*
X155871800Y-85016381D01*
X155871800Y-84391206D01*
X155872800Y-84389474D01*
X155874800Y-84389474D01*
X155875572Y-84390279D01*
X155908550Y-84453323D01*
X155969958Y-84488293D01*
X156040523Y-84484510D01*
X156097889Y-84443143D01*
X156121981Y-84390388D01*
X156123610Y-84389228D01*
X156125429Y-84390059D01*
G37*
G36*
X155125429Y-84390059D02*
G01*
X155125800Y-84391219D01*
X155125800Y-85016394D01*
X155124800Y-85018126D01*
X155122800Y-85018126D01*
X155122028Y-85017321D01*
X155089050Y-84954277D01*
X155027642Y-84919307D01*
X154957077Y-84923090D01*
X154899711Y-84964457D01*
X154875619Y-85017212D01*
X154873990Y-85018372D01*
X154872171Y-85017541D01*
X154871800Y-85016381D01*
X154871800Y-84391206D01*
X154872800Y-84389474D01*
X154874800Y-84389474D01*
X154875572Y-84390279D01*
X154908550Y-84453323D01*
X154969958Y-84488293D01*
X155040523Y-84484510D01*
X155097889Y-84443143D01*
X155121981Y-84390388D01*
X155123610Y-84389228D01*
X155125429Y-84390059D01*
G37*
G36*
X156625429Y-84390059D02*
G01*
X156625800Y-84391219D01*
X156625800Y-85016394D01*
X156624800Y-85018126D01*
X156622800Y-85018126D01*
X156622028Y-85017321D01*
X156589050Y-84954277D01*
X156527642Y-84919307D01*
X156457077Y-84923090D01*
X156399711Y-84964457D01*
X156375619Y-85017212D01*
X156373990Y-85018372D01*
X156372171Y-85017541D01*
X156371800Y-85016381D01*
X156371800Y-84391206D01*
X156372800Y-84389474D01*
X156374800Y-84389474D01*
X156375572Y-84390279D01*
X156408550Y-84453323D01*
X156469958Y-84488293D01*
X156540523Y-84484510D01*
X156597889Y-84443143D01*
X156621981Y-84390388D01*
X156623610Y-84389228D01*
X156625429Y-84390059D01*
G37*
G36*
X155625429Y-84390059D02*
G01*
X155625800Y-84391219D01*
X155625800Y-85016394D01*
X155624800Y-85018126D01*
X155622800Y-85018126D01*
X155622028Y-85017321D01*
X155589050Y-84954277D01*
X155527642Y-84919307D01*
X155457077Y-84923090D01*
X155399711Y-84964457D01*
X155375619Y-85017212D01*
X155373990Y-85018372D01*
X155372171Y-85017541D01*
X155371800Y-85016381D01*
X155371800Y-84391206D01*
X155372800Y-84389474D01*
X155374800Y-84389474D01*
X155375572Y-84390279D01*
X155408550Y-84453323D01*
X155469958Y-84488293D01*
X155540523Y-84484510D01*
X155597889Y-84443143D01*
X155621981Y-84390388D01*
X155623610Y-84389228D01*
X155625429Y-84390059D01*
G37*
M02*
