%TF.GenerationSoftware,KiCad,Pcbnew,(6.0.7)*%
%TF.CreationDate,2022-11-15T15:08:32+02:00*%
%TF.ProjectId,Cell_Holder_Board,43656c6c-5f48-46f6-9c64-65725f426f61,rev?*%
%TF.SameCoordinates,Original*%
%TF.FileFunction,Soldermask,Top*%
%TF.FilePolarity,Negative*%
%FSLAX46Y46*%
G04 Gerber Fmt 4.6, Leading zero omitted, Abs format (unit mm)*
G04 Created by KiCad (PCBNEW (6.0.7)) date 2022-11-15 15:08:32*
%MOMM*%
%LPD*%
G01*
G04 APERTURE LIST*
G04 Aperture macros list*
%AMRoundRect*
0 Rectangle with rounded corners*
0 $1 Rounding radius*
0 $2 $3 $4 $5 $6 $7 $8 $9 X,Y pos of 4 corners*
0 Add a 4 corners polygon primitive as box body*
4,1,4,$2,$3,$4,$5,$6,$7,$8,$9,$2,$3,0*
0 Add four circle primitives for the rounded corners*
1,1,$1+$1,$2,$3*
1,1,$1+$1,$4,$5*
1,1,$1+$1,$6,$7*
1,1,$1+$1,$8,$9*
0 Add four rect primitives between the rounded corners*
20,1,$1+$1,$2,$3,$4,$5,0*
20,1,$1+$1,$4,$5,$6,$7,0*
20,1,$1+$1,$6,$7,$8,$9,0*
20,1,$1+$1,$8,$9,$2,$3,0*%
G04 Aperture macros list end*
%TA.AperFunction,Profile*%
%ADD10C,0.100000*%
%TD*%
%ADD11C,3.600000*%
%ADD12C,5.700000*%
%ADD13RoundRect,0.237500X-0.237500X0.250000X-0.237500X-0.250000X0.237500X-0.250000X0.237500X0.250000X0*%
%ADD14R,1.700000X1.700000*%
%ADD15O,1.700000X1.700000*%
%ADD16RoundRect,0.237500X-0.237500X0.300000X-0.237500X-0.300000X0.237500X-0.300000X0.237500X0.300000X0*%
%ADD17RoundRect,0.237500X-0.250000X-0.237500X0.250000X-0.237500X0.250000X0.237500X-0.250000X0.237500X0*%
%ADD18RoundRect,0.237500X0.237500X-0.300000X0.237500X0.300000X-0.237500X0.300000X-0.237500X-0.300000X0*%
%ADD19RoundRect,0.237500X0.237500X-0.250000X0.237500X0.250000X-0.237500X0.250000X-0.237500X-0.250000X0*%
%ADD20RoundRect,0.237500X0.300000X0.237500X-0.300000X0.237500X-0.300000X-0.237500X0.300000X-0.237500X0*%
%ADD21RoundRect,0.500000X-0.500000X-2.050000X0.500000X-2.050000X0.500000X2.050000X-0.500000X2.050000X0*%
%ADD22R,1.300000X0.250000*%
%ADD23R,0.250000X0.700000*%
%ADD24RoundRect,0.237500X0.237500X-0.287500X0.237500X0.287500X-0.237500X0.287500X-0.237500X-0.287500X0*%
%ADD25R,1.980000X3.960000*%
%ADD26O,1.980000X3.960000*%
%ADD27R,3.960000X1.980000*%
%ADD28O,3.960000X1.980000*%
%ADD29RoundRect,0.250000X-0.450000X0.262500X-0.450000X-0.262500X0.450000X-0.262500X0.450000X0.262500X0*%
%ADD30R,0.700000X1.000000*%
%ADD31C,2.450000*%
%ADD32RoundRect,1.875000X-1.875000X-2.125000X1.875000X-2.125000X1.875000X2.125000X-1.875000X2.125000X0*%
%ADD33RoundRect,0.500000X1.000000X0.500000X-1.000000X0.500000X-1.000000X-0.500000X1.000000X-0.500000X0*%
%ADD34RoundRect,0.500000X-1.000000X-0.500000X1.000000X-0.500000X1.000000X0.500000X-1.000000X0.500000X0*%
%ADD35RoundRect,0.500000X-0.500000X1.000000X-0.500000X-1.000000X0.500000X-1.000000X0.500000X1.000000X0*%
%ADD36RoundRect,0.500000X0.500000X-1.000000X0.500000X1.000000X-0.500000X1.000000X-0.500000X-1.000000X0*%
G04 APERTURE END LIST*
D10*
X157658800Y-34927400D02*
X47658800Y-34927400D01*
X165658800Y-104927400D02*
X165658800Y-41927400D01*
X157658800Y-110927402D02*
G75*
G03*
X165658800Y-104927400I1010310J6986252D01*
G01*
X39158800Y-41927400D02*
X39158800Y-103677400D01*
X165658813Y-41927399D02*
G75*
G03*
X157658800Y-34927400I-7530713J-535101D01*
G01*
X39158800Y-103677400D02*
G75*
G03*
X46908800Y-110927400I7563800J318200D01*
G01*
X46908800Y-110927400D02*
X157658800Y-110927400D01*
X47658801Y-34927391D02*
G75*
G03*
X39158800Y-41927400I-731661J-7772269D01*
G01*
D11*
%TO.C,H6*%
X47658800Y-72927400D03*
D12*
X47658800Y-72927400D03*
%TD*%
D13*
%TO.C,R1*%
X64643000Y-60225300D03*
X64643000Y-62050300D03*
%TD*%
D14*
%TO.C,JP1*%
X62712600Y-38989000D03*
D15*
X62712600Y-41529000D03*
X62712600Y-44069000D03*
%TD*%
D16*
%TO.C,C5*%
X60858400Y-62104100D03*
X60858400Y-63829100D03*
%TD*%
D17*
%TO.C,R2*%
X51640100Y-63754000D03*
X53465100Y-63754000D03*
%TD*%
D12*
%TO.C,H5*%
X72658800Y-42927400D03*
D11*
X72658800Y-42927400D03*
%TD*%
D12*
%TO.C,H2*%
X132658800Y-102927400D03*
D11*
X132658800Y-102927400D03*
%TD*%
D18*
%TO.C,C3*%
X53924200Y-59688900D03*
X53924200Y-57963900D03*
%TD*%
D19*
%TO.C,R5*%
X58547000Y-42465000D03*
X58547000Y-40640000D03*
%TD*%
D14*
%TO.C,J1*%
X67893800Y-61691200D03*
D15*
X67893800Y-64231200D03*
%TD*%
D20*
%TO.C,C2*%
X53390800Y-62204600D03*
X51665800Y-62204600D03*
%TD*%
D21*
%TO.C,L1*%
X54288000Y-67564000D03*
X58488000Y-67564000D03*
%TD*%
D22*
%TO.C,U1*%
X56279400Y-60993400D03*
X56279400Y-61493400D03*
X56279400Y-61993400D03*
D23*
X56429400Y-62943400D03*
X56929400Y-62943400D03*
X57429400Y-62943400D03*
X57929400Y-62943400D03*
X58429400Y-62943400D03*
D22*
X58579400Y-61993400D03*
X58579400Y-61493400D03*
X58579400Y-60993400D03*
D23*
X58429400Y-60043400D03*
X57929400Y-60043400D03*
X57429400Y-60043400D03*
X56929400Y-60043400D03*
X56429400Y-60043400D03*
%TD*%
D24*
%TO.C,D1*%
X56388000Y-46087000D03*
X56388000Y-44337000D03*
%TD*%
D25*
%TO.C,J2*%
X61772800Y-91236800D03*
D26*
X66772800Y-91236800D03*
X71772800Y-91236800D03*
%TD*%
D18*
%TO.C,C1*%
X52197000Y-60527100D03*
X52197000Y-58802100D03*
%TD*%
D12*
%TO.C,H1*%
X72658800Y-102927400D03*
D11*
X72658800Y-102927400D03*
%TD*%
%TO.C,H3*%
X157658800Y-72927400D03*
D12*
X157658800Y-72927400D03*
%TD*%
D18*
%TO.C,C4*%
X57302400Y-58114100D03*
X57302400Y-56389100D03*
%TD*%
D27*
%TO.C,J3*%
X68656200Y-56311800D03*
D28*
X68656200Y-51311800D03*
%TD*%
D17*
%TO.C,R3*%
X56542300Y-72618600D03*
X58367300Y-72618600D03*
%TD*%
D29*
%TO.C,R6*%
X62661800Y-60121800D03*
X62661800Y-61946800D03*
%TD*%
D30*
%TO.C,SW1*%
X56815600Y-82425800D03*
X56815600Y-76425800D03*
X53115600Y-82425800D03*
X53115600Y-76425800D03*
%TD*%
D12*
%TO.C,H4*%
X132658800Y-42927400D03*
D11*
X132658800Y-42927400D03*
%TD*%
D24*
%TO.C,D2*%
X58547000Y-46087000D03*
X58547000Y-44337000D03*
%TD*%
D31*
%TO.C,BT3*%
X155829600Y-103539200D03*
D32*
X80359600Y-95539200D03*
X159619600Y-95539200D03*
%TD*%
D31*
%TO.C,BT1*%
X155220000Y-54923600D03*
D32*
X79750000Y-46923600D03*
X159010000Y-46923600D03*
%TD*%
D19*
%TO.C,R4*%
X56388000Y-42441500D03*
X56388000Y-40616500D03*
%TD*%
D31*
%TO.C,BT2*%
X145847400Y-79612400D03*
D32*
X70377400Y-71612400D03*
X149637400Y-71612400D03*
%TD*%
D33*
%TO.C,BT5*%
X47713400Y-46875700D03*
X50213400Y-39275700D03*
X52713400Y-46875700D03*
D34*
X50213400Y-102608700D03*
X47713400Y-95008700D03*
X52713400Y-95008700D03*
%TD*%
D35*
%TO.C,BT6*%
X93758700Y-97538400D03*
X101358700Y-100038400D03*
X101358700Y-95038400D03*
D36*
X149491700Y-95038400D03*
X157091700Y-97538400D03*
X149491700Y-100038400D03*
%TD*%
D35*
%TO.C,BT8*%
X89789000Y-69621400D03*
X89789000Y-74621400D03*
X82189000Y-72121400D03*
D36*
X137922000Y-69621400D03*
X145522000Y-72121400D03*
X137922000Y-74621400D03*
%TD*%
D35*
%TO.C,BT7*%
X100761800Y-44475400D03*
X100761800Y-49475400D03*
X93161800Y-46975400D03*
D36*
X148894800Y-44475400D03*
X148894800Y-49475400D03*
X156494800Y-46975400D03*
%TD*%
M02*
