%TF.GenerationSoftware,KiCad,Pcbnew,(6.0.7)*%
%TF.CreationDate,2022-11-15T15:08:32+02:00*%
%TF.ProjectId,Cell_Holder_Board,43656c6c-5f48-46f6-9c64-65725f426f61,rev?*%
%TF.SameCoordinates,Original*%
%TF.FileFunction,Legend,Bot*%
%TF.FilePolarity,Positive*%
%FSLAX46Y46*%
G04 Gerber Fmt 4.6, Leading zero omitted, Abs format (unit mm)*
G04 Created by KiCad (PCBNEW (6.0.7)) date 2022-11-15 15:08:32*
%MOMM*%
%LPD*%
G01*
G04 APERTURE LIST*
G04 Aperture macros list*
%AMRoundRect*
0 Rectangle with rounded corners*
0 $1 Rounding radius*
0 $2 $3 $4 $5 $6 $7 $8 $9 X,Y pos of 4 corners*
0 Add a 4 corners polygon primitive as box body*
4,1,4,$2,$3,$4,$5,$6,$7,$8,$9,$2,$3,0*
0 Add four circle primitives for the rounded corners*
1,1,$1+$1,$2,$3*
1,1,$1+$1,$4,$5*
1,1,$1+$1,$6,$7*
1,1,$1+$1,$8,$9*
0 Add four rect primitives between the rounded corners*
20,1,$1+$1,$2,$3,$4,$5,0*
20,1,$1+$1,$4,$5,$6,$7,0*
20,1,$1+$1,$6,$7,$8,$9,0*
20,1,$1+$1,$8,$9,$2,$3,0*%
G04 Aperture macros list end*
%TA.AperFunction,Profile*%
%ADD10C,0.100000*%
%TD*%
%ADD11C,0.150000*%
%ADD12C,2.000000*%
%ADD13C,0.120000*%
%ADD14C,5.700000*%
%ADD15C,3.600000*%
%ADD16R,1.700000X1.700000*%
%ADD17O,1.700000X1.700000*%
%ADD18R,1.980000X3.960000*%
%ADD19O,1.980000X3.960000*%
%ADD20R,3.960000X1.980000*%
%ADD21O,3.960000X1.980000*%
%ADD22C,2.450000*%
%ADD23RoundRect,0.500000X1.000000X0.500000X-1.000000X0.500000X-1.000000X-0.500000X1.000000X-0.500000X0*%
%ADD24RoundRect,0.500000X-1.000000X-0.500000X1.000000X-0.500000X1.000000X0.500000X-1.000000X0.500000X0*%
%ADD25RoundRect,0.500000X-0.500000X1.000000X-0.500000X-1.000000X0.500000X-1.000000X0.500000X1.000000X0*%
%ADD26RoundRect,0.500000X0.500000X-1.000000X0.500000X1.000000X-0.500000X1.000000X-0.500000X-1.000000X0*%
G04 APERTURE END LIST*
D10*
X157658800Y-34927400D02*
X47658800Y-34927400D01*
X165658800Y-104927400D02*
X165658800Y-41927400D01*
X157658800Y-110927402D02*
G75*
G03*
X165658800Y-104927400I1010310J6986252D01*
G01*
X39158800Y-41927400D02*
X39158800Y-103677400D01*
X165658813Y-41927399D02*
G75*
G03*
X157658800Y-34927400I-7530713J-535101D01*
G01*
X39158800Y-103677400D02*
G75*
G03*
X46908800Y-110927400I7563800J318200D01*
G01*
X46908800Y-110927400D02*
X157658800Y-110927400D01*
X47658801Y-34927391D02*
G75*
G03*
X39158800Y-41927400I-731661J-7772269D01*
G01*
D11*
%TO.C,BT5*%
X46918571Y-51030285D02*
X46966190Y-51173142D01*
X47013809Y-51220761D01*
X47109047Y-51268380D01*
X47251904Y-51268380D01*
X47347142Y-51220761D01*
X47394761Y-51173142D01*
X47442380Y-51077904D01*
X47442380Y-50696952D01*
X46442380Y-50696952D01*
X46442380Y-51030285D01*
X46490000Y-51125523D01*
X46537619Y-51173142D01*
X46632857Y-51220761D01*
X46728095Y-51220761D01*
X46823333Y-51173142D01*
X46870952Y-51125523D01*
X46918571Y-51030285D01*
X46918571Y-50696952D01*
X46442380Y-51554095D02*
X46442380Y-52125523D01*
X47442380Y-51839809D02*
X46442380Y-51839809D01*
X46442380Y-52935047D02*
X46442380Y-52458857D01*
X46918571Y-52411238D01*
X46870952Y-52458857D01*
X46823333Y-52554095D01*
X46823333Y-52792190D01*
X46870952Y-52887428D01*
X46918571Y-52935047D01*
X47013809Y-52982666D01*
X47251904Y-52982666D01*
X47347142Y-52935047D01*
X47394761Y-52887428D01*
X47442380Y-52792190D01*
X47442380Y-52554095D01*
X47394761Y-52458857D01*
X47347142Y-52411238D01*
D12*
X50212971Y-80277319D02*
X50212971Y-90182080D01*
X50085971Y-49924319D02*
X50085971Y-59829080D01*
X55038352Y-54876699D02*
X45133590Y-54876699D01*
D11*
%TO.C,BT6*%
X111990285Y-101671428D02*
X112133142Y-101623809D01*
X112180761Y-101576190D01*
X112228380Y-101480952D01*
X112228380Y-101338095D01*
X112180761Y-101242857D01*
X112133142Y-101195238D01*
X112037904Y-101147619D01*
X111656952Y-101147619D01*
X111656952Y-102147619D01*
X111990285Y-102147619D01*
X112085523Y-102100000D01*
X112133142Y-102052380D01*
X112180761Y-101957142D01*
X112180761Y-101861904D01*
X112133142Y-101766666D01*
X112085523Y-101719047D01*
X111990285Y-101671428D01*
X111656952Y-101671428D01*
X112514095Y-102147619D02*
X113085523Y-102147619D01*
X112799809Y-101147619D02*
X112799809Y-102147619D01*
X113847428Y-102147619D02*
X113656952Y-102147619D01*
X113561714Y-102100000D01*
X113514095Y-102052380D01*
X113418857Y-101909523D01*
X113371238Y-101719047D01*
X113371238Y-101338095D01*
X113418857Y-101242857D01*
X113466476Y-101195238D01*
X113561714Y-101147619D01*
X113752190Y-101147619D01*
X113847428Y-101195238D01*
X113895047Y-101242857D01*
X113942666Y-101338095D01*
X113942666Y-101576190D01*
X113895047Y-101671428D01*
X113847428Y-101719047D01*
X113752190Y-101766666D01*
X113561714Y-101766666D01*
X113466476Y-101719047D01*
X113418857Y-101671428D01*
X113371238Y-101576190D01*
D12*
X134760319Y-97538828D02*
X144665080Y-97538828D01*
X104407319Y-97665828D02*
X114312080Y-97665828D01*
X109359700Y-92713447D02*
X109359700Y-102618209D01*
D11*
%TO.C,BT8*%
X100306285Y-76017428D02*
X100449142Y-75969809D01*
X100496761Y-75922190D01*
X100544380Y-75826952D01*
X100544380Y-75684095D01*
X100496761Y-75588857D01*
X100449142Y-75541238D01*
X100353904Y-75493619D01*
X99972952Y-75493619D01*
X99972952Y-76493619D01*
X100306285Y-76493619D01*
X100401523Y-76446000D01*
X100449142Y-76398380D01*
X100496761Y-76303142D01*
X100496761Y-76207904D01*
X100449142Y-76112666D01*
X100401523Y-76065047D01*
X100306285Y-76017428D01*
X99972952Y-76017428D01*
X100830095Y-76493619D02*
X101401523Y-76493619D01*
X101115809Y-75493619D02*
X101115809Y-76493619D01*
X101877714Y-76065047D02*
X101782476Y-76112666D01*
X101734857Y-76160285D01*
X101687238Y-76255523D01*
X101687238Y-76303142D01*
X101734857Y-76398380D01*
X101782476Y-76446000D01*
X101877714Y-76493619D01*
X102068190Y-76493619D01*
X102163428Y-76446000D01*
X102211047Y-76398380D01*
X102258666Y-76303142D01*
X102258666Y-76255523D01*
X102211047Y-76160285D01*
X102163428Y-76112666D01*
X102068190Y-76065047D01*
X101877714Y-76065047D01*
X101782476Y-76017428D01*
X101734857Y-75969809D01*
X101687238Y-75874571D01*
X101687238Y-75684095D01*
X101734857Y-75588857D01*
X101782476Y-75541238D01*
X101877714Y-75493619D01*
X102068190Y-75493619D01*
X102163428Y-75541238D01*
X102211047Y-75588857D01*
X102258666Y-75684095D01*
X102258666Y-75874571D01*
X102211047Y-75969809D01*
X102163428Y-76017428D01*
X102068190Y-76065047D01*
D12*
X92837619Y-72248828D02*
X102742380Y-72248828D01*
X97790000Y-67296447D02*
X97790000Y-77201209D01*
X123190619Y-72121828D02*
X133095380Y-72121828D01*
D11*
%TO.C,BT7*%
X111482285Y-50617428D02*
X111625142Y-50569809D01*
X111672761Y-50522190D01*
X111720380Y-50426952D01*
X111720380Y-50284095D01*
X111672761Y-50188857D01*
X111625142Y-50141238D01*
X111529904Y-50093619D01*
X111148952Y-50093619D01*
X111148952Y-51093619D01*
X111482285Y-51093619D01*
X111577523Y-51046000D01*
X111625142Y-50998380D01*
X111672761Y-50903142D01*
X111672761Y-50807904D01*
X111625142Y-50712666D01*
X111577523Y-50665047D01*
X111482285Y-50617428D01*
X111148952Y-50617428D01*
X112006095Y-51093619D02*
X112577523Y-51093619D01*
X112291809Y-50093619D02*
X112291809Y-51093619D01*
X112815619Y-51093619D02*
X113482285Y-51093619D01*
X113053714Y-50093619D01*
D12*
X103810419Y-47102828D02*
X113715180Y-47102828D01*
X108762800Y-42150447D02*
X108762800Y-52055209D01*
X135509619Y-47331428D02*
X145414380Y-47331428D01*
D13*
%TO.C,BT5*%
X41825400Y-38378700D02*
X59825400Y-38378700D01*
X59825400Y-38378700D02*
X59825400Y-103378700D01*
X59825400Y-103378700D02*
X41825400Y-103378700D01*
X41825400Y-103378700D02*
X41825400Y-38378700D01*
%TO.C,BT6*%
X92861700Y-105926400D02*
X157861700Y-105926400D01*
X157861700Y-105926400D02*
X157861700Y-87926400D01*
X157861700Y-87926400D02*
X92861700Y-87926400D01*
X92861700Y-87926400D02*
X92861700Y-105926400D01*
%TO.C,BT8*%
X81292000Y-80509400D02*
X146292000Y-80509400D01*
X146292000Y-80509400D02*
X146292000Y-62509400D01*
X146292000Y-62509400D02*
X81292000Y-62509400D01*
X81292000Y-62509400D02*
X81292000Y-80509400D01*
%TO.C,BT7*%
X92264800Y-55363400D02*
X157264800Y-55363400D01*
X157264800Y-55363400D02*
X157264800Y-37363400D01*
X157264800Y-37363400D02*
X92264800Y-37363400D01*
X92264800Y-37363400D02*
X92264800Y-55363400D01*
%TD*%
%LPC*%
D14*
%TO.C,H6*%
X47658800Y-72927400D03*
D15*
X47658800Y-72927400D03*
%TD*%
D16*
%TO.C,JP1*%
X62712600Y-38989000D03*
D17*
X62712600Y-41529000D03*
X62712600Y-44069000D03*
%TD*%
D14*
%TO.C,H5*%
X72658800Y-42927400D03*
D15*
X72658800Y-42927400D03*
%TD*%
%TO.C,H2*%
X132658800Y-102927400D03*
D14*
X132658800Y-102927400D03*
%TD*%
D16*
%TO.C,J1*%
X67893800Y-61691200D03*
D17*
X67893800Y-64231200D03*
%TD*%
D18*
%TO.C,J2*%
X61772800Y-91236800D03*
D19*
X66772800Y-91236800D03*
X71772800Y-91236800D03*
%TD*%
D14*
%TO.C,H1*%
X72658800Y-102927400D03*
D15*
X72658800Y-102927400D03*
%TD*%
D14*
%TO.C,H3*%
X157658800Y-72927400D03*
D15*
X157658800Y-72927400D03*
%TD*%
D20*
%TO.C,J3*%
X68656200Y-56311800D03*
D21*
X68656200Y-51311800D03*
%TD*%
D14*
%TO.C,H4*%
X132658800Y-42927400D03*
D15*
X132658800Y-42927400D03*
%TD*%
D22*
%TO.C,BT3*%
X155829600Y-103539200D03*
%TD*%
%TO.C,BT1*%
X155220000Y-54923600D03*
%TD*%
%TO.C,BT2*%
X145847400Y-79612400D03*
%TD*%
D23*
%TO.C,BT5*%
X47713400Y-46875700D03*
X50213400Y-39275700D03*
X52713400Y-46875700D03*
D24*
X50213400Y-102608700D03*
X47713400Y-95008700D03*
X52713400Y-95008700D03*
%TD*%
D25*
%TO.C,BT6*%
X93758700Y-97538400D03*
X101358700Y-100038400D03*
X101358700Y-95038400D03*
D26*
X149491700Y-95038400D03*
X157091700Y-97538400D03*
X149491700Y-100038400D03*
%TD*%
D25*
%TO.C,BT8*%
X89789000Y-69621400D03*
X89789000Y-74621400D03*
X82189000Y-72121400D03*
D26*
X137922000Y-69621400D03*
X145522000Y-72121400D03*
X137922000Y-74621400D03*
%TD*%
D25*
%TO.C,BT7*%
X100761800Y-44475400D03*
X100761800Y-49475400D03*
X93161800Y-46975400D03*
D26*
X148894800Y-44475400D03*
X148894800Y-49475400D03*
X156494800Y-46975400D03*
%TD*%
M02*
