M48
; DRILL file {KiCad (6.0.7)} date Tue Nov 15 12:15:33 2022
; FORMAT={-:-/ absolute / metric / decimal}
; #@! TF.CreationDate,2022-11-15T12:15:33+02:00
; #@! TF.GenerationSoftware,Kicad,Pcbnew,(6.0.7)
; #@! TF.FileFunction,Plated,1,2,PTH
FMAT,2
METRIC
; #@! TA.AperFunction,Plated,PTH,ViaDrill
T1C0.400
; #@! TA.AperFunction,Plated,PTH,ComponentDrill
T2C1.000
; #@! TA.AperFunction,Plated,PTH,ComponentDrill
T3C1.320
; #@! TA.AperFunction,Plated,PTH,ComponentDrill
T4C3.200
%
G90
G05
T1
X40.988Y-39.607
X40.988Y-40.607
X40.988Y-41.607
X40.988Y-42.607
X40.988Y-43.607
X40.988Y-44.607
X40.988Y-45.607
X40.988Y-46.607
X40.988Y-47.607
X40.988Y-48.607
X40.988Y-49.607
X40.988Y-50.607
X40.988Y-51.607
X40.988Y-52.607
X40.988Y-53.607
X40.988Y-54.607
X40.988Y-55.607
X40.988Y-56.607
X40.988Y-57.607
X40.988Y-58.607
X40.988Y-59.607
X40.988Y-60.607
X40.988Y-61.607
X40.988Y-62.607
X40.988Y-63.607
X40.988Y-64.607
X40.988Y-65.607
X40.988Y-66.607
X40.988Y-67.607
X40.988Y-68.607
X40.988Y-69.607
X40.988Y-70.607
X40.988Y-71.607
X40.988Y-72.607
X40.988Y-73.607
X40.988Y-74.607
X40.988Y-75.607
X40.988Y-76.607
X40.988Y-77.607
X40.988Y-78.607
X40.988Y-79.607
X40.988Y-80.607
X40.988Y-81.607
X40.988Y-82.607
X40.988Y-83.607
X40.988Y-84.607
X40.988Y-85.607
X40.988Y-86.607
X40.988Y-90.607
X40.988Y-91.607
X40.988Y-92.607
X40.988Y-93.607
X40.988Y-94.607
X40.988Y-95.607
X40.988Y-106.607
X41.988Y-38.607
X41.988Y-39.607
X41.988Y-40.607
X41.988Y-41.607
X41.988Y-42.607
X41.988Y-43.607
X41.988Y-44.607
X41.988Y-45.607
X41.988Y-46.607
X41.988Y-47.607
X41.988Y-48.607
X41.988Y-49.607
X41.988Y-50.607
X41.988Y-51.607
X41.988Y-52.607
X41.988Y-53.607
X41.988Y-54.607
X41.988Y-55.607
X41.988Y-56.607
X41.988Y-57.607
X41.988Y-58.607
X41.988Y-59.607
X41.988Y-60.607
X41.988Y-61.607
X41.988Y-62.607
X41.988Y-63.607
X41.988Y-64.607
X41.988Y-65.607
X41.988Y-66.607
X41.988Y-67.607
X41.988Y-68.607
X41.988Y-69.607
X41.988Y-70.607
X41.988Y-71.607
X41.988Y-72.607
X41.988Y-73.607
X41.988Y-74.607
X41.988Y-75.607
X41.988Y-93.607
X41.988Y-94.607
X41.988Y-95.607
X41.988Y-107.607
X42.988Y-37.607
X42.988Y-38.607
X42.988Y-39.607
X42.988Y-40.607
X42.988Y-41.607
X42.988Y-42.607
X42.988Y-43.607
X42.988Y-44.607
X42.988Y-45.607
X42.988Y-46.607
X42.988Y-47.607
X42.988Y-48.607
X42.988Y-49.607
X42.988Y-50.607
X42.988Y-51.607
X42.988Y-52.607
X42.988Y-53.607
X42.988Y-54.607
X42.988Y-55.607
X42.988Y-56.607
X42.988Y-57.607
X42.988Y-58.607
X42.988Y-59.607
X42.988Y-60.607
X42.988Y-61.607
X42.988Y-62.607
X42.988Y-63.607
X42.988Y-64.607
X42.988Y-65.607
X42.988Y-66.607
X42.988Y-67.607
X42.988Y-68.607
X42.988Y-69.607
X42.988Y-70.607
X42.988Y-71.607
X42.988Y-72.607
X42.988Y-73.607
X42.988Y-74.607
X42.988Y-75.607
X42.988Y-93.607
X42.988Y-94.607
X42.988Y-95.607
X42.988Y-108.607
X43.988Y-36.607
X43.988Y-37.607
X43.988Y-38.607
X43.988Y-39.607
X43.988Y-40.607
X43.988Y-41.607
X43.988Y-42.607
X43.988Y-43.607
X43.988Y-44.607
X43.988Y-45.607
X43.988Y-46.607
X43.988Y-47.607
X43.988Y-48.607
X43.988Y-49.607
X43.988Y-50.607
X43.988Y-51.607
X43.988Y-52.607
X43.988Y-53.607
X43.988Y-54.607
X43.988Y-55.607
X43.988Y-56.607
X43.988Y-57.607
X43.988Y-58.607
X43.988Y-59.607
X43.988Y-60.607
X43.988Y-61.607
X43.988Y-62.607
X43.988Y-63.607
X43.988Y-64.607
X43.988Y-65.607
X43.988Y-66.607
X43.988Y-67.607
X43.988Y-68.607
X43.988Y-69.607
X43.988Y-70.607
X43.988Y-71.607
X43.988Y-72.607
X43.988Y-73.607
X43.988Y-74.607
X43.988Y-75.607
X43.988Y-93.607
X43.988Y-94.607
X43.988Y-95.607
X43.988Y-102.607
X43.988Y-103.607
X43.988Y-104.607
X44.988Y-36.607
X44.988Y-37.607
X44.988Y-38.607
X44.988Y-39.607
X44.988Y-40.607
X44.988Y-41.607
X44.988Y-42.607
X44.988Y-43.607
X44.988Y-44.607
X44.988Y-45.607
X44.988Y-46.607
X44.988Y-47.607
X44.988Y-48.607
X44.988Y-49.607
X44.988Y-50.607
X44.988Y-51.607
X44.988Y-52.607
X44.988Y-53.607
X44.988Y-54.607
X44.988Y-55.607
X44.988Y-56.607
X44.988Y-57.607
X44.988Y-58.607
X44.988Y-59.607
X44.988Y-60.607
X44.988Y-61.607
X44.988Y-62.607
X44.988Y-63.607
X44.988Y-64.607
X44.988Y-65.607
X44.988Y-66.607
X44.988Y-67.607
X44.988Y-68.607
X44.988Y-69.607
X44.988Y-75.607
X44.988Y-93.607
X44.988Y-94.607
X44.988Y-95.607
X45.988Y-36.607
X45.988Y-37.607
X45.988Y-38.607
X45.988Y-39.607
X45.988Y-40.607
X45.988Y-41.607
X45.988Y-42.607
X45.988Y-43.607
X45.988Y-44.607
X45.988Y-48.607
X45.988Y-49.607
X45.988Y-50.607
X45.988Y-51.607
X45.988Y-52.607
X45.988Y-53.607
X45.988Y-54.607
X45.988Y-55.607
X45.988Y-56.607
X45.988Y-57.607
X45.988Y-58.607
X45.988Y-59.607
X45.988Y-60.607
X45.988Y-61.607
X45.988Y-62.607
X45.988Y-63.607
X45.988Y-64.607
X45.988Y-65.607
X45.988Y-66.607
X45.988Y-67.607
X45.988Y-68.607
X45.988Y-69.607
X45.988Y-101.607
X45.988Y-102.607
X45.988Y-103.607
X46.988Y-36.607
X46.988Y-37.607
X46.988Y-38.607
X46.988Y-39.607
X46.988Y-40.607
X46.988Y-41.607
X46.988Y-42.607
X46.988Y-43.607
X46.988Y-44.607
X46.988Y-48.607
X46.988Y-49.607
X46.988Y-50.607
X46.988Y-51.607
X46.988Y-52.607
X46.988Y-53.607
X46.988Y-54.607
X46.988Y-55.607
X46.988Y-56.607
X46.988Y-57.607
X46.988Y-58.607
X46.988Y-59.607
X46.988Y-60.607
X46.988Y-61.607
X46.988Y-62.607
X46.988Y-63.607
X46.988Y-64.607
X46.988Y-65.607
X46.988Y-66.607
X46.988Y-67.607
X46.988Y-68.607
X46.988Y-101.607
X46.988Y-102.607
X47.988Y-36.607
X47.988Y-37.607
X47.988Y-38.607
X47.988Y-39.607
X47.988Y-40.607
X47.988Y-41.607
X47.988Y-42.607
X47.988Y-43.607
X47.988Y-48.607
X47.988Y-49.607
X47.988Y-50.607
X47.988Y-51.607
X47.988Y-52.607
X47.988Y-53.607
X47.988Y-54.607
X47.988Y-55.607
X47.988Y-56.607
X47.988Y-57.607
X47.988Y-58.607
X47.988Y-59.607
X47.988Y-60.607
X47.988Y-61.607
X47.988Y-62.607
X47.988Y-63.607
X47.988Y-64.607
X47.988Y-65.607
X47.988Y-66.607
X47.988Y-67.607
X47.988Y-68.607
X47.988Y-101.607
X47.988Y-102.607
X48.988Y-36.607
X48.988Y-37.607
X48.988Y-41.607
X48.988Y-42.607
X48.988Y-48.607
X48.988Y-49.607
X48.988Y-50.607
X48.988Y-51.607
X48.988Y-52.607
X48.988Y-53.607
X48.988Y-54.607
X48.988Y-55.607
X48.988Y-56.607
X48.988Y-57.607
X48.988Y-58.607
X48.988Y-59.607
X48.988Y-60.607
X48.988Y-61.607
X48.988Y-62.607
X48.988Y-63.607
X48.988Y-64.607
X48.988Y-65.607
X48.988Y-66.607
X48.988Y-67.607
X48.988Y-68.607
X48.988Y-69.607
X49.988Y-36.607
X49.988Y-37.607
X49.988Y-47.607
X49.988Y-48.607
X49.988Y-49.607
X49.988Y-50.607
X49.988Y-51.607
X49.988Y-52.607
X49.988Y-53.607
X49.988Y-63.607
X49.988Y-64.607
X49.988Y-65.607
X49.988Y-66.607
X49.988Y-67.607
X49.988Y-68.607
X49.988Y-69.607
X49.988Y-93.607
X49.988Y-104.607
X50.394Y-62.205
X50.988Y-36.607
X50.988Y-37.607
X50.988Y-48.607
X50.988Y-49.607
X50.988Y-50.607
X50.988Y-51.607
X50.988Y-52.607
X50.988Y-65.607
X50.988Y-66.607
X50.988Y-67.607
X50.988Y-68.607
X50.988Y-69.607
X50.988Y-70.607
X50.988Y-71.607
X50.988Y-74.607
X50.988Y-75.607
X51.13Y-58.776
X51.988Y-36.607
X51.988Y-37.607
X51.988Y-41.607
X51.988Y-42.607
X51.988Y-43.607
X51.988Y-48.607
X51.988Y-49.607
X51.988Y-50.607
X51.988Y-51.607
X51.988Y-55.607
X51.988Y-56.607
X52.988Y-36.607
X52.988Y-37.607
X52.988Y-38.607
X52.988Y-39.607
X52.988Y-40.607
X52.988Y-41.607
X52.988Y-42.607
X52.988Y-43.607
X52.988Y-44.607
X52.988Y-49.607
X52.988Y-50.607
X52.988Y-54.607
X52.988Y-55.607
X52.988Y-56.607
X53.594Y-72.644
X53.924Y-59.689
X53.988Y-36.607
X53.988Y-37.607
X53.988Y-38.607
X53.988Y-39.607
X53.988Y-40.607
X53.988Y-41.607
X53.988Y-42.607
X53.988Y-43.607
X53.988Y-44.607
X53.988Y-53.607
X53.988Y-54.607
X53.988Y-55.607
X53.988Y-56.607
X54.94Y-64.11
X54.988Y-36.607
X54.988Y-37.607
X54.988Y-38.607
X54.988Y-39.607
X54.988Y-40.607
X54.988Y-41.607
X54.988Y-42.607
X54.988Y-43.607
X54.988Y-44.607
X54.988Y-45.607
X54.988Y-52.607
X54.988Y-53.607
X54.988Y-54.607
X54.988Y-55.607
X54.988Y-56.607
X54.988Y-72.607
X54.988Y-95.607
X55.349Y-62.462
X55.677Y-59.715
X55.988Y-36.607
X55.988Y-37.607
X55.988Y-38.607
X55.988Y-52.607
X55.988Y-53.607
X55.988Y-54.607
X55.988Y-55.607
X55.988Y-56.607
X55.988Y-94.607
X56.109Y-47.625
X56.15Y-50.964
X56.988Y-36.607
X56.988Y-37.607
X56.988Y-38.607
X56.988Y-52.607
X56.988Y-53.607
X56.988Y-54.607
X57.988Y-36.607
X57.988Y-37.607
X57.988Y-38.607
X57.988Y-53.607
X57.988Y-54.607
X58.318Y-56.388
X58.395Y-63.957
X58.496Y-51.663
X58.674Y-47.643
X58.988Y-36.607
X58.988Y-37.607
X58.988Y-38.607
X58.988Y-88.607
X58.988Y-89.607
X58.988Y-92.607
X58.988Y-93.607
X59.131Y-59.36
X59.385Y-57.785
X59.588Y-72.568
X59.988Y-36.607
X59.988Y-37.607
X59.988Y-38.607
X59.988Y-39.607
X59.988Y-42.607
X59.988Y-43.607
X59.988Y-44.607
X59.988Y-45.607
X59.988Y-88.607
X59.988Y-89.607
X59.988Y-92.607
X59.988Y-93.607
X60.452Y-65.278
X60.503Y-57.873
X60.528Y-59.272
X60.757Y-60.477
X60.988Y-36.607
X60.988Y-37.607
X60.988Y-38.607
X60.988Y-39.607
X60.988Y-42.607
X60.988Y-43.607
X60.988Y-44.607
X60.988Y-45.607
X60.988Y-46.607
X60.988Y-47.607
X60.988Y-67.607
X60.988Y-68.607
X61.976Y-65.024
X61.988Y-36.607
X61.988Y-45.607
X61.988Y-46.607
X61.988Y-47.607
X61.988Y-51.607
X61.988Y-52.607
X61.988Y-53.607
X61.988Y-54.607
X61.988Y-55.607
X61.988Y-56.607
X61.988Y-57.607
X61.988Y-67.607
X62.988Y-36.607
X62.988Y-45.607
X62.988Y-46.607
X62.988Y-47.607
X62.988Y-51.607
X62.988Y-52.607
X62.988Y-53.607
X62.988Y-54.607
X62.988Y-55.607
X62.988Y-56.607
X62.988Y-57.607
X62.988Y-88.607
X63.805Y-68.097
X63.988Y-36.607
X63.988Y-42.607
X63.988Y-45.607
X63.988Y-46.607
X63.988Y-47.607
X63.988Y-51.607
X63.988Y-52.607
X63.988Y-53.607
X63.988Y-54.607
X63.988Y-55.607
X63.988Y-56.607
X63.988Y-57.607
X63.988Y-79.607
X63.988Y-80.607
X63.988Y-83.607
X63.988Y-84.607
X63.988Y-85.607
X63.988Y-86.607
X63.988Y-87.607
X63.988Y-88.607
X63.988Y-89.607
X63.988Y-90.607
X63.988Y-91.607
X63.988Y-92.607
X63.988Y-93.607
X64.973Y-63.551
X64.988Y-51.607
X64.988Y-52.607
X64.988Y-53.607
X64.988Y-54.607
X64.988Y-55.607
X64.988Y-56.607
X64.988Y-57.607
X64.988Y-58.607
X64.988Y-79.607
X64.988Y-80.607
X64.988Y-84.607
X64.988Y-85.607
X64.988Y-86.607
X64.988Y-87.607
X64.988Y-88.607
X64.988Y-89.607
X64.988Y-90.607
X64.988Y-91.607
X64.988Y-92.607
X64.988Y-93.607
X65.988Y-51.607
X65.988Y-52.607
X65.988Y-53.607
X65.988Y-54.607
X65.988Y-55.607
X65.988Y-56.607
X65.988Y-57.607
X65.988Y-58.607
X65.988Y-59.607
X65.988Y-79.607
X65.988Y-80.607
X65.988Y-83.607
X65.988Y-84.607
X65.988Y-85.607
X65.988Y-86.607
X65.988Y-87.607
X65.988Y-88.607
X66.773Y-91.237
X66.988Y-53.607
X66.988Y-54.607
X66.988Y-58.607
X66.988Y-59.607
X66.988Y-79.607
X66.988Y-80.607
X66.988Y-86.607
X66.988Y-87.607
X66.988Y-88.607
X67.988Y-53.607
X67.988Y-54.607
X67.988Y-58.607
X67.988Y-59.607
X67.988Y-66.607
X67.988Y-79.607
X67.988Y-80.607
X67.988Y-87.607
X67.988Y-88.607
X68.988Y-39.607
X68.988Y-53.607
X68.988Y-54.607
X68.988Y-59.607
X68.988Y-65.607
X68.988Y-66.607
X69.988Y-39.607
X69.988Y-53.607
X69.988Y-54.607
X69.988Y-86.607
X69.988Y-87.607
X69.988Y-88.607
X69.988Y-89.607
X69.988Y-90.607
X69.988Y-91.607
X69.988Y-105.607
X70.988Y-39.607
X70.988Y-52.607
X70.988Y-53.607
X70.988Y-54.607
X72.988Y-85.607
X72.988Y-86.607
X72.988Y-87.607
X72.988Y-88.607
X72.988Y-98.607
X73.988Y-39.607
X73.988Y-85.607
X73.988Y-86.607
X73.988Y-87.607
X73.988Y-88.607
X73.988Y-89.607
X73.988Y-90.607
X73.988Y-91.607
X73.988Y-92.607
X73.988Y-98.607
X73.988Y-99.607
X74.988Y-39.607
X74.988Y-85.607
X74.988Y-86.607
X74.988Y-87.607
X74.988Y-88.607
X74.988Y-89.607
X74.988Y-90.607
X74.988Y-91.607
X74.988Y-92.607
X74.988Y-98.607
X74.988Y-99.607
X75.988Y-98.607
X75.988Y-99.607
X75.988Y-100.607
X75.988Y-101.607
X79.988Y-73.607
X83.988Y-70.607
X83.988Y-73.607
X84.988Y-70.607
X84.988Y-73.607
X85.988Y-70.607
X85.988Y-73.607
X86.988Y-73.607
X86.988Y-95.607
X87.988Y-67.607
X87.988Y-68.607
X87.988Y-73.607
X87.988Y-74.607
X87.988Y-75.607
X87.988Y-95.607
X88.988Y-95.607
X89.662Y-60.452
X91.988Y-49.607
X91.988Y-98.607
X92.202Y-91.186
X92.202Y-93.218
X92.988Y-49.607
X93.988Y-41.607
X93.988Y-49.607
X94.988Y-38.607
X94.988Y-40.607
X95.988Y-95.607
X95.988Y-98.607
X96.988Y-95.607
X96.988Y-98.607
X97.988Y-95.607
X97.988Y-98.607
X98.988Y-43.607
X98.988Y-44.607
X98.988Y-45.607
X98.988Y-50.607
X98.988Y-51.607
X98.988Y-98.607
X101.988Y-46.607
X101.988Y-51.607
X101.988Y-102.607
X102.988Y-109.607
X103.988Y-109.607
X104.988Y-109.607
X105.988Y-109.607
X106.988Y-109.607
X107.988Y-109.607
X108.988Y-109.607
X109.988Y-109.607
X110.988Y-109.607
X111.988Y-109.607
X112.988Y-109.607
X113.988Y-109.607
X114.988Y-109.607
X115.988Y-109.607
X116.988Y-109.607
X117.988Y-109.607
X118.988Y-109.607
X119.988Y-109.607
X120.988Y-109.607
X121.988Y-109.607
X122.988Y-109.607
X123.988Y-109.607
X124.988Y-109.607
X125.988Y-109.607
X126.988Y-109.607
X127.988Y-109.607
X128.988Y-109.607
X129.988Y-99.607
X129.988Y-105.607
X129.988Y-106.607
X129.988Y-109.607
X130.988Y-99.607
X130.988Y-106.607
X130.988Y-109.607
X131.988Y-106.607
X131.988Y-109.607
X132.988Y-106.607
X132.988Y-109.607
X133.988Y-99.607
X133.988Y-106.607
X133.988Y-109.607
X134.988Y-106.607
X134.988Y-109.607
X135.128Y-38.354
X135.988Y-101.607
X135.988Y-104.607
X135.988Y-105.607
X135.988Y-106.607
X135.988Y-109.607
X136.988Y-109.607
X137.988Y-109.607
X138.988Y-109.607
X139.988Y-109.607
X140.988Y-109.607
X141.988Y-109.607
X142.988Y-72.607
X142.988Y-73.607
X142.988Y-109.607
X143.988Y-77.607
X143.988Y-78.607
X143.988Y-79.607
X143.988Y-109.607
X144.988Y-77.607
X144.988Y-109.607
X145.988Y-77.607
X145.988Y-109.607
X146.988Y-77.607
X146.988Y-109.607
X147.988Y-97.607
X147.988Y-109.607
X148.988Y-109.607
X149.988Y-46.607
X149.988Y-51.607
X149.988Y-109.607
X150.988Y-42.607
X150.988Y-43.607
X150.988Y-44.607
X150.988Y-45.607
X150.988Y-46.607
X150.988Y-47.607
X150.988Y-50.607
X150.988Y-51.607
X150.988Y-108.607
X150.988Y-109.607
X151.988Y-42.607
X151.988Y-43.607
X151.988Y-44.607
X151.988Y-45.607
X151.988Y-46.607
X151.988Y-47.607
X151.988Y-50.607
X151.988Y-51.607
X151.988Y-103.607
X151.988Y-104.607
X151.988Y-108.607
X151.988Y-109.607
X152.988Y-42.607
X152.988Y-43.607
X152.988Y-44.607
X152.988Y-45.607
X152.988Y-46.607
X152.988Y-47.607
X152.988Y-50.607
X152.988Y-51.607
X152.988Y-108.607
X152.988Y-109.607
X153.988Y-42.607
X153.988Y-43.607
X153.988Y-44.607
X153.988Y-45.607
X153.988Y-46.607
X153.988Y-50.607
X153.988Y-51.607
X153.988Y-52.607
X153.988Y-71.607
X153.988Y-72.607
X153.988Y-73.607
X153.988Y-74.607
X153.988Y-75.607
X153.988Y-102.607
X153.988Y-103.607
X153.988Y-104.607
X153.988Y-105.607
X153.988Y-106.607
X153.988Y-107.607
X153.988Y-108.607
X153.988Y-109.607
X154.988Y-42.607
X154.988Y-50.607
X154.988Y-51.607
X154.988Y-52.607
X154.988Y-75.607
X154.988Y-96.607
X154.988Y-105.607
X154.988Y-106.607
X154.988Y-107.607
X154.988Y-108.607
X154.988Y-109.607
X155.988Y-51.607
X155.988Y-52.607
X155.988Y-105.607
X155.988Y-106.607
X155.988Y-107.607
X155.988Y-108.607
X155.988Y-109.607
X156.988Y-51.607
X156.988Y-52.607
X156.988Y-53.607
X156.988Y-55.607
X156.988Y-67.607
X156.988Y-105.607
X156.988Y-106.607
X156.988Y-107.607
X156.988Y-108.607
X156.988Y-109.607
X157.988Y-51.607
X157.988Y-52.607
X157.988Y-53.607
X157.988Y-54.607
X157.988Y-55.607
X157.988Y-67.607
X157.988Y-108.607
X157.988Y-109.607
X158.988Y-51.607
X158.988Y-52.607
X158.988Y-53.607
X158.988Y-54.607
X158.988Y-55.607
X158.988Y-67.607
X158.988Y-108.607
X158.988Y-109.607
X159.988Y-36.607
X159.988Y-37.607
X159.988Y-38.607
X159.988Y-39.607
X159.988Y-40.607
X159.988Y-41.607
X159.988Y-51.607
X159.988Y-52.607
X159.988Y-53.607
X159.988Y-54.607
X159.988Y-55.607
X159.988Y-67.607
X159.988Y-108.607
X159.988Y-109.607
X160.988Y-36.607
X160.988Y-37.607
X160.988Y-38.607
X160.988Y-39.607
X160.988Y-40.607
X160.988Y-41.607
X160.988Y-51.607
X160.988Y-52.607
X160.988Y-53.607
X160.988Y-54.607
X160.988Y-55.607
X160.988Y-67.607
X160.988Y-70.607
X160.988Y-71.607
X160.988Y-74.607
X160.988Y-75.607
X160.988Y-108.607
X160.988Y-109.607
X161.988Y-37.607
X161.988Y-38.607
X161.988Y-39.607
X161.988Y-40.607
X161.988Y-41.607
X161.988Y-51.607
X161.988Y-52.607
X161.988Y-53.607
X161.988Y-54.607
X161.988Y-55.607
X161.988Y-67.607
X161.988Y-70.607
X161.988Y-71.607
X161.988Y-72.607
X161.988Y-73.607
X161.988Y-74.607
X161.988Y-75.607
X161.988Y-108.607
X162.988Y-38.607
X162.988Y-39.607
X162.988Y-40.607
X162.988Y-41.607
X162.988Y-42.607
X162.988Y-51.607
X162.988Y-52.607
X162.988Y-53.607
X162.988Y-54.607
X162.988Y-55.607
X162.988Y-70.607
X162.988Y-71.607
X162.988Y-72.607
X162.988Y-73.607
X162.988Y-74.607
X162.988Y-75.607
X162.988Y-102.607
X162.988Y-103.607
X162.988Y-104.607
X162.988Y-105.607
X162.988Y-106.607
X162.988Y-107.607
X163.988Y-39.607
X163.988Y-40.607
X163.988Y-41.607
X163.988Y-42.607
X163.988Y-43.607
X163.988Y-44.607
X163.988Y-45.607
X163.988Y-46.607
X163.988Y-47.607
X163.988Y-48.607
X163.988Y-49.607
X163.988Y-50.607
X163.988Y-51.607
X163.988Y-52.607
X163.988Y-53.607
X163.988Y-54.607
X163.988Y-55.607
X163.988Y-70.607
X163.988Y-71.607
X163.988Y-72.607
X163.988Y-73.607
X163.988Y-74.607
X163.988Y-75.607
X163.988Y-97.607
X163.988Y-102.607
X163.988Y-103.607
X163.988Y-104.607
X163.988Y-105.607
X163.988Y-106.607
T2
X62.713Y-38.989
X62.713Y-41.529
X62.713Y-44.069
X65.121Y-82.423
X67.721Y-82.423
X67.894Y-61.691
X67.894Y-64.231
T3
X61.773Y-91.237
X66.773Y-91.237
X68.656Y-51.312
X68.656Y-56.312
X71.773Y-91.237
T4
X47.659Y-72.927
X72.659Y-42.927
X72.659Y-102.927
X132.659Y-42.927
X132.659Y-102.927
X157.659Y-72.927
T2
G00X48.088Y-46.876
M15
G01X47.338Y-46.876
M16
G05
G00X47.338Y-95.009
M15
G01X48.088Y-95.009
M16
G05
G00X50.588Y-39.276
M15
G01X49.838Y-39.276
M16
G05
G00X49.838Y-102.609
M15
G01X50.588Y-102.609
M16
G05
G00X53.088Y-46.876
M15
G01X52.338Y-46.876
M16
G05
G00X52.338Y-95.009
M15
G01X53.088Y-95.009
M16
G05
G00X82.189Y-71.746
M15
G01X82.189Y-72.496
M16
G05
G00X89.789Y-69.246
M15
G01X89.789Y-69.996
M16
G05
G00X89.789Y-74.246
M15
G01X89.789Y-74.996
M16
G05
G00X93.162Y-46.6
M15
G01X93.162Y-47.35
M16
G05
G00X93.759Y-97.163
M15
G01X93.759Y-97.913
M16
G05
G00X100.762Y-44.1
M15
G01X100.762Y-44.85
M16
G05
G00X100.762Y-49.1
M15
G01X100.762Y-49.85
M16
G05
G00X101.359Y-94.663
M15
G01X101.359Y-95.413
M16
G05
G00X101.359Y-99.663
M15
G01X101.359Y-100.413
M16
G05
G00X137.922Y-69.996
M15
G01X137.922Y-69.246
M16
G05
G00X137.922Y-74.996
M15
G01X137.922Y-74.246
M16
G05
G00X145.522Y-72.496
M15
G01X145.522Y-71.746
M16
G05
G00X148.895Y-44.85
M15
G01X148.895Y-44.1
M16
G05
G00X148.895Y-49.85
M15
G01X148.895Y-49.1
M16
G05
G00X149.492Y-95.413
M15
G01X149.492Y-94.663
M16
G05
G00X149.492Y-100.413
M15
G01X149.492Y-99.663
M16
G05
G00X156.495Y-47.35
M15
G01X156.495Y-46.6
M16
G05
G00X157.092Y-97.913
M15
G01X157.092Y-97.163
M16
G05
T0
M30
