%TF.GenerationSoftware,KiCad,Pcbnew,(6.0.9)*%
%TF.CreationDate,2022-11-23T15:21:19+02:00*%
%TF.ProjectId,case_adapter,63617365-5f61-4646-9170-7465722e6b69,rev?*%
%TF.SameCoordinates,Original*%
%TF.FileFunction,Legend,Top*%
%TF.FilePolarity,Positive*%
%FSLAX46Y46*%
G04 Gerber Fmt 4.6, Leading zero omitted, Abs format (unit mm)*
G04 Created by KiCad (PCBNEW (6.0.9)) date 2022-11-23 15:21:19*
%MOMM*%
%LPD*%
G01*
G04 APERTURE LIST*
%ADD10C,0.150000*%
%ADD11C,7.000000*%
%ADD12C,5.700000*%
%ADD13C,3.600000*%
G04 APERTURE END LIST*
D10*
%TO.C,H12*%
X134626504Y-74544180D02*
X134626504Y-73544180D01*
X134626504Y-74020371D02*
X135197933Y-74020371D01*
X135197933Y-74544180D02*
X135197933Y-73544180D01*
X136197933Y-74544180D02*
X135626504Y-74544180D01*
X135912219Y-74544180D02*
X135912219Y-73544180D01*
X135816980Y-73687038D01*
X135721742Y-73782276D01*
X135626504Y-73829895D01*
X136578885Y-73639419D02*
X136626504Y-73591800D01*
X136721742Y-73544180D01*
X136959838Y-73544180D01*
X137055076Y-73591800D01*
X137102695Y-73639419D01*
X137150314Y-73734657D01*
X137150314Y-73829895D01*
X137102695Y-73972752D01*
X136531266Y-74544180D01*
X137150314Y-74544180D01*
%TO.C,H11*%
X192233704Y-74391780D02*
X192233704Y-73391780D01*
X192233704Y-73867971D02*
X192805133Y-73867971D01*
X192805133Y-74391780D02*
X192805133Y-73391780D01*
X193805133Y-74391780D02*
X193233704Y-74391780D01*
X193519419Y-74391780D02*
X193519419Y-73391780D01*
X193424180Y-73534638D01*
X193328942Y-73629876D01*
X193233704Y-73677495D01*
X194757514Y-74391780D02*
X194186085Y-74391780D01*
X194471800Y-74391780D02*
X194471800Y-73391780D01*
X194376561Y-73534638D01*
X194281323Y-73629876D01*
X194186085Y-73677495D01*
%TO.C,H10*%
X191598704Y-123540780D02*
X191598704Y-122540780D01*
X191598704Y-123016971D02*
X192170133Y-123016971D01*
X192170133Y-123540780D02*
X192170133Y-122540780D01*
X193170133Y-123540780D02*
X192598704Y-123540780D01*
X192884419Y-123540780D02*
X192884419Y-122540780D01*
X192789180Y-122683638D01*
X192693942Y-122778876D01*
X192598704Y-122826495D01*
X193789180Y-122540780D02*
X193884419Y-122540780D01*
X193979657Y-122588400D01*
X194027276Y-122636019D01*
X194074895Y-122731257D01*
X194122514Y-122921733D01*
X194122514Y-123159828D01*
X194074895Y-123350304D01*
X194027276Y-123445542D01*
X193979657Y-123493161D01*
X193884419Y-123540780D01*
X193789180Y-123540780D01*
X193693942Y-123493161D01*
X193646323Y-123445542D01*
X193598704Y-123350304D01*
X193551085Y-123159828D01*
X193551085Y-122921733D01*
X193598704Y-122731257D01*
X193646323Y-122636019D01*
X193693942Y-122588400D01*
X193789180Y-122540780D01*
%TO.C,H9*%
X135153495Y-122245380D02*
X135153495Y-121245380D01*
X135153495Y-121721571D02*
X135724923Y-121721571D01*
X135724923Y-122245380D02*
X135724923Y-121245380D01*
X136248733Y-122245380D02*
X136439209Y-122245380D01*
X136534447Y-122197761D01*
X136582066Y-122150142D01*
X136677304Y-122007285D01*
X136724923Y-121816809D01*
X136724923Y-121435857D01*
X136677304Y-121340619D01*
X136629685Y-121293000D01*
X136534447Y-121245380D01*
X136343971Y-121245380D01*
X136248733Y-121293000D01*
X136201114Y-121340619D01*
X136153495Y-121435857D01*
X136153495Y-121673952D01*
X136201114Y-121769190D01*
X136248733Y-121816809D01*
X136343971Y-121864428D01*
X136534447Y-121864428D01*
X136629685Y-121816809D01*
X136677304Y-121769190D01*
X136724923Y-121673952D01*
%TO.C,H8*%
X78486095Y-123616980D02*
X78486095Y-122616980D01*
X78486095Y-123093171D02*
X79057523Y-123093171D01*
X79057523Y-123616980D02*
X79057523Y-122616980D01*
X79676571Y-123045552D02*
X79581333Y-122997933D01*
X79533714Y-122950314D01*
X79486095Y-122855076D01*
X79486095Y-122807457D01*
X79533714Y-122712219D01*
X79581333Y-122664600D01*
X79676571Y-122616980D01*
X79867047Y-122616980D01*
X79962285Y-122664600D01*
X80009904Y-122712219D01*
X80057523Y-122807457D01*
X80057523Y-122855076D01*
X80009904Y-122950314D01*
X79962285Y-122997933D01*
X79867047Y-123045552D01*
X79676571Y-123045552D01*
X79581333Y-123093171D01*
X79533714Y-123140790D01*
X79486095Y-123236028D01*
X79486095Y-123426504D01*
X79533714Y-123521742D01*
X79581333Y-123569361D01*
X79676571Y-123616980D01*
X79867047Y-123616980D01*
X79962285Y-123569361D01*
X80009904Y-123521742D01*
X80057523Y-123426504D01*
X80057523Y-123236028D01*
X80009904Y-123140790D01*
X79962285Y-123093171D01*
X79867047Y-123045552D01*
%TO.C,H7*%
X78511495Y-73350380D02*
X78511495Y-72350380D01*
X78511495Y-72826571D02*
X79082923Y-72826571D01*
X79082923Y-73350380D02*
X79082923Y-72350380D01*
X79463876Y-72350380D02*
X80130542Y-72350380D01*
X79701971Y-73350380D01*
%TO.C,H6*%
X79823295Y-93504980D02*
X79823295Y-92504980D01*
X79823295Y-92981171D02*
X80394723Y-92981171D01*
X80394723Y-93504980D02*
X80394723Y-92504980D01*
X81299485Y-92504980D02*
X81109009Y-92504980D01*
X81013771Y-92552600D01*
X80966152Y-92600219D01*
X80870914Y-92743076D01*
X80823295Y-92933552D01*
X80823295Y-93314504D01*
X80870914Y-93409742D01*
X80918533Y-93457361D01*
X81013771Y-93504980D01*
X81204247Y-93504980D01*
X81299485Y-93457361D01*
X81347104Y-93409742D01*
X81394723Y-93314504D01*
X81394723Y-93076409D01*
X81347104Y-92981171D01*
X81299485Y-92933552D01*
X81204247Y-92885933D01*
X81013771Y-92885933D01*
X80918533Y-92933552D01*
X80870914Y-92981171D01*
X80823295Y-93076409D01*
%TO.C,H2*%
X164823295Y-123504980D02*
X164823295Y-122504980D01*
X164823295Y-122981171D02*
X165394723Y-122981171D01*
X165394723Y-123504980D02*
X165394723Y-122504980D01*
X165823295Y-122600219D02*
X165870914Y-122552600D01*
X165966152Y-122504980D01*
X166204247Y-122504980D01*
X166299485Y-122552600D01*
X166347104Y-122600219D01*
X166394723Y-122695457D01*
X166394723Y-122790695D01*
X166347104Y-122933552D01*
X165775676Y-123504980D01*
X166394723Y-123504980D01*
%TO.C,H4*%
X168460895Y-64686580D02*
X168460895Y-63686580D01*
X168460895Y-64162771D02*
X169032323Y-64162771D01*
X169032323Y-64686580D02*
X169032323Y-63686580D01*
X169937085Y-64019914D02*
X169937085Y-64686580D01*
X169698990Y-63638961D02*
X169460895Y-64353247D01*
X170079942Y-64353247D01*
%TO.C,H5*%
X104823295Y-63504980D02*
X104823295Y-62504980D01*
X104823295Y-62981171D02*
X105394723Y-62981171D01*
X105394723Y-63504980D02*
X105394723Y-62504980D01*
X106347104Y-62504980D02*
X105870914Y-62504980D01*
X105823295Y-62981171D01*
X105870914Y-62933552D01*
X105966152Y-62885933D01*
X106204247Y-62885933D01*
X106299485Y-62933552D01*
X106347104Y-62981171D01*
X106394723Y-63076409D01*
X106394723Y-63314504D01*
X106347104Y-63409742D01*
X106299485Y-63457361D01*
X106204247Y-63504980D01*
X105966152Y-63504980D01*
X105870914Y-63457361D01*
X105823295Y-63409742D01*
%TO.C,H1*%
X104823295Y-123504980D02*
X104823295Y-122504980D01*
X104823295Y-122981171D02*
X105394723Y-122981171D01*
X105394723Y-123504980D02*
X105394723Y-122504980D01*
X106394723Y-123504980D02*
X105823295Y-123504980D01*
X106109009Y-123504980D02*
X106109009Y-122504980D01*
X106013771Y-122647838D01*
X105918533Y-122743076D01*
X105823295Y-122790695D01*
%TO.C,H3*%
X189823295Y-93504980D02*
X189823295Y-92504980D01*
X189823295Y-92981171D02*
X190394723Y-92981171D01*
X190394723Y-93504980D02*
X190394723Y-92504980D01*
X190775676Y-92504980D02*
X191394723Y-92504980D01*
X191061390Y-92885933D01*
X191204247Y-92885933D01*
X191299485Y-92933552D01*
X191347104Y-92981171D01*
X191394723Y-93076409D01*
X191394723Y-93314504D01*
X191347104Y-93409742D01*
X191299485Y-93457361D01*
X191204247Y-93504980D01*
X190918533Y-93504980D01*
X190823295Y-93457361D01*
X190775676Y-93409742D01*
%TD*%
%LPC*%
D11*
%TO.C,H12*%
X135915400Y-68884800D03*
%TD*%
%TO.C,H11*%
X196697600Y-68859400D03*
%TD*%
%TO.C,H10*%
X196672200Y-126898400D03*
%TD*%
%TO.C,H9*%
X135915400Y-126873000D03*
%TD*%
%TO.C,H8*%
X75184000Y-126873000D03*
%TD*%
%TO.C,H7*%
X75184000Y-68884800D03*
%TD*%
D12*
%TO.C,H6*%
X80585200Y-96902600D03*
D13*
X80585200Y-96902600D03*
%TD*%
%TO.C,H2*%
X165585200Y-126902600D03*
D12*
X165585200Y-126902600D03*
%TD*%
D13*
%TO.C,H4*%
X165585200Y-66902600D03*
D12*
X165585200Y-66902600D03*
%TD*%
D13*
%TO.C,H5*%
X105585200Y-66902600D03*
D12*
X105585200Y-66902600D03*
%TD*%
D13*
%TO.C,H1*%
X105585200Y-126902600D03*
D12*
X105585200Y-126902600D03*
%TD*%
%TO.C,H3*%
X190585200Y-96902600D03*
D13*
X190585200Y-96902600D03*
%TD*%
M02*
