%TF.GenerationSoftware,KiCad,Pcbnew,(6.0.9)*%
%TF.CreationDate,2022-11-23T15:21:18+02:00*%
%TF.ProjectId,case_adapter,63617365-5f61-4646-9170-7465722e6b69,rev?*%
%TF.SameCoordinates,Original*%
%TF.FileFunction,Copper,L2,Bot*%
%TF.FilePolarity,Positive*%
%FSLAX46Y46*%
G04 Gerber Fmt 4.6, Leading zero omitted, Abs format (unit mm)*
G04 Created by KiCad (PCBNEW (6.0.9)) date 2022-11-23 15:21:18*
%MOMM*%
%LPD*%
G01*
G04 APERTURE LIST*
%TA.AperFunction,ComponentPad*%
%ADD10C,7.000000*%
%TD*%
%TA.AperFunction,ComponentPad*%
%ADD11C,3.600000*%
%TD*%
%TA.AperFunction,ConnectorPad*%
%ADD12C,5.700000*%
%TD*%
G04 APERTURE END LIST*
D10*
%TO.P,H12,1,1*%
%TO.N,unconnected-(H12-Pad1)*%
X135915400Y-68884800D03*
%TD*%
%TO.P,H11,1,1*%
%TO.N,unconnected-(H11-Pad1)*%
X196697600Y-68859400D03*
%TD*%
%TO.P,H10,1,1*%
%TO.N,unconnected-(H10-Pad1)*%
X196672200Y-126898400D03*
%TD*%
%TO.P,H9,1,1*%
%TO.N,unconnected-(H9-Pad1)*%
X135915400Y-126873000D03*
%TD*%
%TO.P,H8,1,1*%
%TO.N,unconnected-(H8-Pad1)*%
X75184000Y-126873000D03*
%TD*%
%TO.P,H7,1,1*%
%TO.N,unconnected-(H7-Pad1)*%
X75184000Y-68884800D03*
%TD*%
D11*
%TO.P,H6,1,1*%
%TO.N,unconnected-(H6-Pad1)*%
X80585200Y-96902600D03*
D12*
X80585200Y-96902600D03*
%TD*%
%TO.P,H2,1,1*%
%TO.N,unconnected-(H2-Pad1)*%
X165585200Y-126902600D03*
D11*
X165585200Y-126902600D03*
%TD*%
%TO.P,H4,1,1*%
%TO.N,unconnected-(H4-Pad1)*%
X165585200Y-66902600D03*
D12*
X165585200Y-66902600D03*
%TD*%
D11*
%TO.P,H5,1,1*%
%TO.N,unconnected-(H5-Pad1)*%
X105585200Y-66902600D03*
D12*
X105585200Y-66902600D03*
%TD*%
D11*
%TO.P,H1,1,1*%
%TO.N,unconnected-(H1-Pad1)*%
X105585200Y-126902600D03*
D12*
X105585200Y-126902600D03*
%TD*%
D11*
%TO.P,H3,1,1*%
%TO.N,unconnected-(H3-Pad1)*%
X190585200Y-96902600D03*
D12*
X190585200Y-96902600D03*
%TD*%
%TA.AperFunction,NonConductor*%
G36*
X191223329Y-59251052D02*
G01*
X191554547Y-59269221D01*
X191836163Y-59284669D01*
X191844777Y-59285393D01*
X192282312Y-59335036D01*
X192454629Y-59354588D01*
X192463209Y-59355815D01*
X193067997Y-59460351D01*
X193076491Y-59462075D01*
X193542122Y-59570771D01*
X193674181Y-59601599D01*
X193682556Y-59603813D01*
X194271104Y-59777849D01*
X194279341Y-59780547D01*
X194465101Y-59847448D01*
X194856804Y-59988520D01*
X194864852Y-59991685D01*
X195139467Y-60109045D01*
X195429247Y-60232885D01*
X195437114Y-60236522D01*
X195986488Y-60510107D01*
X195994131Y-60514194D01*
X196526700Y-60819278D01*
X196534092Y-60823803D01*
X197048024Y-61159339D01*
X197055140Y-61164287D01*
X197548668Y-61529119D01*
X197555477Y-61534466D01*
X198026978Y-61927396D01*
X198033472Y-61933135D01*
X198481324Y-62352809D01*
X198487473Y-62358917D01*
X198910155Y-62803911D01*
X198915939Y-62810366D01*
X199312042Y-63279195D01*
X199317441Y-63285976D01*
X199685613Y-63777042D01*
X199690608Y-63784125D01*
X199991565Y-64238354D01*
X200029598Y-64295757D01*
X200034165Y-64303106D01*
X200342855Y-64833622D01*
X200346980Y-64841211D01*
X200545966Y-65234107D01*
X200624286Y-65388749D01*
X200627976Y-65396592D01*
X200837114Y-65876954D01*
X200849500Y-65936432D01*
X200849500Y-128713645D01*
X200833372Y-128781069D01*
X200752534Y-128940376D01*
X200625665Y-129190397D01*
X200613574Y-129214224D01*
X200609432Y-129221830D01*
X200319557Y-129719122D01*
X200311811Y-129732411D01*
X200307233Y-129739764D01*
X200219680Y-129871684D01*
X199980432Y-130232170D01*
X199975445Y-130239231D01*
X199620532Y-130711847D01*
X199615152Y-130718592D01*
X199233412Y-131169709D01*
X199227624Y-131176160D01*
X198820277Y-131604343D01*
X198814123Y-131610446D01*
X198382576Y-132014213D01*
X198376077Y-132019948D01*
X197921786Y-132397937D01*
X197914965Y-132403284D01*
X197439476Y-132754210D01*
X197432356Y-132759152D01*
X197380148Y-132793180D01*
X196937226Y-133081865D01*
X196929864Y-133086364D01*
X196492411Y-133336509D01*
X196416833Y-133379726D01*
X196409188Y-133383808D01*
X196327914Y-133424203D01*
X195879968Y-133646844D01*
X195872098Y-133650474D01*
X195328494Y-133882288D01*
X195320426Y-133885455D01*
X194764247Y-134085274D01*
X194756009Y-134087966D01*
X194189147Y-134255112D01*
X194180768Y-134257319D01*
X194065912Y-134284037D01*
X193605178Y-134391213D01*
X193596683Y-134392931D01*
X193014242Y-134493138D01*
X193005661Y-134494358D01*
X192712039Y-134527442D01*
X192418403Y-134560527D01*
X192409793Y-134561245D01*
X191831216Y-134592533D01*
X191819654Y-134593158D01*
X191810989Y-134593374D01*
X191382648Y-134591595D01*
X191220019Y-134590920D01*
X191211357Y-134590632D01*
X190668037Y-134556723D01*
X190651813Y-134554483D01*
X190646294Y-134552545D01*
X190641156Y-134552100D01*
X190635806Y-134552100D01*
X190627472Y-134551719D01*
X190617597Y-134549213D01*
X190578572Y-134551779D01*
X190568798Y-134552100D01*
X79888781Y-134552100D01*
X79878484Y-134550995D01*
X79878458Y-134551451D01*
X79866746Y-134550787D01*
X79855288Y-134548300D01*
X79843623Y-134549476D01*
X79840169Y-134549280D01*
X79818025Y-134549427D01*
X79252860Y-134500030D01*
X79243823Y-134498961D01*
X79042037Y-134468821D01*
X78650489Y-134410338D01*
X78641547Y-134408722D01*
X78054700Y-134284037D01*
X78045860Y-134281874D01*
X77467752Y-134121603D01*
X77459079Y-134118911D01*
X76891802Y-133923638D01*
X76883310Y-133920421D01*
X76329028Y-133690885D01*
X76320730Y-133687148D01*
X75781494Y-133424203D01*
X75773440Y-133419966D01*
X75333761Y-133171258D01*
X75251269Y-133124596D01*
X75243518Y-133119894D01*
X74740313Y-132793170D01*
X74732850Y-132787993D01*
X74250574Y-132431192D01*
X74243427Y-132425559D01*
X73783837Y-132039985D01*
X73777047Y-132033926D01*
X73341825Y-131620988D01*
X73335428Y-131614536D01*
X72926237Y-131175809D01*
X72920254Y-131168988D01*
X72538598Y-130706085D01*
X72533026Y-130698889D01*
X72180366Y-130213583D01*
X72175244Y-130206062D01*
X71852862Y-129700121D01*
X71848208Y-129692300D01*
X71557319Y-129167629D01*
X71553151Y-129159539D01*
X71510200Y-129069510D01*
X71294821Y-128618063D01*
X71291160Y-128609743D01*
X71263238Y-128540649D01*
X71071104Y-128065220D01*
X71066377Y-128053523D01*
X71063227Y-128044986D01*
X70894004Y-127539380D01*
X70886300Y-127492089D01*
X70886300Y-126859717D01*
X71378639Y-126859717D01*
X71378816Y-126863471D01*
X71378816Y-126863477D01*
X71384939Y-126993306D01*
X71396778Y-127244340D01*
X71453692Y-127625162D01*
X71454622Y-127628812D01*
X71454623Y-127628815D01*
X71471041Y-127693225D01*
X71548799Y-127998283D01*
X71565890Y-128044986D01*
X71674275Y-128341160D01*
X71681126Y-128359882D01*
X71682774Y-128363276D01*
X71682777Y-128363283D01*
X71802452Y-128609743D01*
X71849317Y-128706258D01*
X71851299Y-128709467D01*
X71851300Y-128709469D01*
X72033550Y-129004557D01*
X72051650Y-129033864D01*
X72154292Y-129167629D01*
X72281897Y-129333927D01*
X72286054Y-129339345D01*
X72288633Y-129342082D01*
X72288640Y-129342090D01*
X72465446Y-129529712D01*
X72550129Y-129619575D01*
X72584606Y-129649440D01*
X72838313Y-129869208D01*
X72838319Y-129869213D01*
X72841172Y-129871684D01*
X72844264Y-129873857D01*
X73153114Y-130090921D01*
X73153122Y-130090926D01*
X73156201Y-130093090D01*
X73159489Y-130094935D01*
X73159492Y-130094937D01*
X73488698Y-130279679D01*
X73488706Y-130279683D01*
X73491992Y-130281527D01*
X73845107Y-130435066D01*
X74211931Y-130552134D01*
X74215620Y-130552911D01*
X74215626Y-130552913D01*
X74556429Y-130624731D01*
X74588707Y-130631533D01*
X74592456Y-130631934D01*
X74592458Y-130631934D01*
X74967833Y-130672051D01*
X74967838Y-130672051D01*
X74971578Y-130672451D01*
X74975335Y-130672471D01*
X74975341Y-130672471D01*
X75194972Y-130673621D01*
X75356624Y-130674467D01*
X75360380Y-130674105D01*
X75360387Y-130674105D01*
X75736154Y-130637922D01*
X75736156Y-130637922D01*
X75739902Y-130637561D01*
X75986681Y-130588250D01*
X76113797Y-130562850D01*
X76113802Y-130562849D01*
X76117489Y-130562112D01*
X76399353Y-130475399D01*
X76481917Y-130449999D01*
X76481920Y-130449998D01*
X76485518Y-130448891D01*
X76840221Y-130299059D01*
X77177968Y-130114148D01*
X77495298Y-129896053D01*
X77703929Y-129719122D01*
X77786095Y-129649440D01*
X77786096Y-129649439D01*
X77788965Y-129647006D01*
X77812978Y-129622053D01*
X78053344Y-129372276D01*
X78053349Y-129372270D01*
X78055960Y-129369557D01*
X78293550Y-129066546D01*
X78442429Y-128831043D01*
X78497288Y-128744265D01*
X78497291Y-128744260D01*
X78499303Y-128741077D01*
X78505694Y-128728260D01*
X78599233Y-128540649D01*
X78671112Y-128396482D01*
X78807218Y-128036288D01*
X78809629Y-128027229D01*
X78898500Y-127693225D01*
X78906227Y-127664184D01*
X78958537Y-127337602D01*
X78966530Y-127287701D01*
X78966530Y-127287698D01*
X78967126Y-127283979D01*
X78989291Y-126899566D01*
X78989384Y-126873000D01*
X78988652Y-126858543D01*
X102430044Y-126858543D01*
X102444796Y-127210519D01*
X102464469Y-127337602D01*
X102495706Y-127539380D01*
X102498690Y-127558658D01*
X102499780Y-127562671D01*
X102499782Y-127562679D01*
X102533081Y-127685238D01*
X102591056Y-127898619D01*
X102592585Y-127902480D01*
X102592586Y-127902484D01*
X102657018Y-128065220D01*
X102720741Y-128226166D01*
X102886129Y-128537216D01*
X103085159Y-128827891D01*
X103127990Y-128877511D01*
X103310336Y-129088761D01*
X103315349Y-129094569D01*
X103318394Y-129097389D01*
X103318402Y-129097397D01*
X103448744Y-129218094D01*
X103573832Y-129333927D01*
X103857384Y-129542980D01*
X103860985Y-129545059D01*
X103860988Y-129545061D01*
X104158872Y-129717044D01*
X104158878Y-129717047D01*
X104162472Y-129719122D01*
X104485293Y-129860160D01*
X104489257Y-129861387D01*
X104489265Y-129861390D01*
X104683300Y-129921453D01*
X104821824Y-129964333D01*
X104825896Y-129965110D01*
X104825901Y-129965111D01*
X105163790Y-130029567D01*
X105163795Y-130029568D01*
X105167870Y-130030345D01*
X105172007Y-130030663D01*
X105172012Y-130030664D01*
X105343494Y-130043859D01*
X105519117Y-130057372D01*
X105523270Y-130057227D01*
X105523272Y-130057227D01*
X105669738Y-130052112D01*
X105871188Y-130045077D01*
X106020544Y-130023022D01*
X106215572Y-129994223D01*
X106215577Y-129994222D01*
X106219694Y-129993614D01*
X106407091Y-129944102D01*
X106556274Y-129904687D01*
X106556281Y-129904685D01*
X106560292Y-129903625D01*
X106571554Y-129899257D01*
X106884861Y-129777733D01*
X106888736Y-129776230D01*
X106972554Y-129732411D01*
X107197240Y-129614948D01*
X107197245Y-129614945D01*
X107200933Y-129613017D01*
X107492991Y-129416021D01*
X107761270Y-129187698D01*
X108002426Y-128930893D01*
X108033949Y-128888756D01*
X108149070Y-128734869D01*
X108213453Y-128648807D01*
X108215556Y-128645223D01*
X108389621Y-128348536D01*
X108389624Y-128348531D01*
X108391721Y-128344956D01*
X108516268Y-128065220D01*
X108533313Y-128026937D01*
X108533315Y-128026932D01*
X108535009Y-128023127D01*
X108575781Y-127894599D01*
X108612194Y-127779807D01*
X108641529Y-127687332D01*
X108643951Y-127675102D01*
X108709146Y-127345844D01*
X108709147Y-127345836D01*
X108709955Y-127341756D01*
X108715123Y-127280213D01*
X108739216Y-126993306D01*
X108739216Y-126993297D01*
X108739434Y-126990706D01*
X108740664Y-126902600D01*
X108738266Y-126859717D01*
X132110039Y-126859717D01*
X132110216Y-126863471D01*
X132110216Y-126863477D01*
X132116339Y-126993306D01*
X132128178Y-127244340D01*
X132185092Y-127625162D01*
X132186022Y-127628812D01*
X132186023Y-127628815D01*
X132202441Y-127693225D01*
X132280199Y-127998283D01*
X132297290Y-128044986D01*
X132405675Y-128341160D01*
X132412526Y-128359882D01*
X132414174Y-128363276D01*
X132414177Y-128363283D01*
X132533852Y-128609743D01*
X132580717Y-128706258D01*
X132582699Y-128709467D01*
X132582700Y-128709469D01*
X132764950Y-129004557D01*
X132783050Y-129033864D01*
X132885692Y-129167629D01*
X133013297Y-129333927D01*
X133017454Y-129339345D01*
X133020033Y-129342082D01*
X133020040Y-129342090D01*
X133196846Y-129529712D01*
X133281529Y-129619575D01*
X133316006Y-129649440D01*
X133569713Y-129869208D01*
X133569719Y-129869213D01*
X133572572Y-129871684D01*
X133575664Y-129873857D01*
X133884514Y-130090921D01*
X133884522Y-130090926D01*
X133887601Y-130093090D01*
X133890889Y-130094935D01*
X133890892Y-130094937D01*
X134220098Y-130279679D01*
X134220106Y-130279683D01*
X134223392Y-130281527D01*
X134576507Y-130435066D01*
X134943331Y-130552134D01*
X134947020Y-130552911D01*
X134947026Y-130552913D01*
X135287829Y-130624731D01*
X135320107Y-130631533D01*
X135323856Y-130631934D01*
X135323858Y-130631934D01*
X135699233Y-130672051D01*
X135699238Y-130672051D01*
X135702978Y-130672451D01*
X135706735Y-130672471D01*
X135706741Y-130672471D01*
X135926372Y-130673621D01*
X136088024Y-130674467D01*
X136091780Y-130674105D01*
X136091787Y-130674105D01*
X136467554Y-130637922D01*
X136467556Y-130637922D01*
X136471302Y-130637561D01*
X136718081Y-130588250D01*
X136845197Y-130562850D01*
X136845202Y-130562849D01*
X136848889Y-130562112D01*
X137130753Y-130475399D01*
X137213317Y-130449999D01*
X137213320Y-130449998D01*
X137216918Y-130448891D01*
X137571621Y-130299059D01*
X137909368Y-130114148D01*
X138226698Y-129896053D01*
X138435329Y-129719122D01*
X138517495Y-129649440D01*
X138517496Y-129649439D01*
X138520365Y-129647006D01*
X138544378Y-129622053D01*
X138784744Y-129372276D01*
X138784749Y-129372270D01*
X138787360Y-129369557D01*
X139024950Y-129066546D01*
X139173829Y-128831043D01*
X139228688Y-128744265D01*
X139228691Y-128744260D01*
X139230703Y-128741077D01*
X139237094Y-128728260D01*
X139330633Y-128540649D01*
X139402512Y-128396482D01*
X139538618Y-128036288D01*
X139541029Y-128027229D01*
X139629900Y-127693225D01*
X139637627Y-127664184D01*
X139689937Y-127337602D01*
X139697930Y-127287701D01*
X139697930Y-127287698D01*
X139698526Y-127283979D01*
X139720691Y-126899566D01*
X139720784Y-126873000D01*
X139720052Y-126858543D01*
X162430044Y-126858543D01*
X162444796Y-127210519D01*
X162464469Y-127337602D01*
X162495706Y-127539380D01*
X162498690Y-127558658D01*
X162499780Y-127562671D01*
X162499782Y-127562679D01*
X162533081Y-127685238D01*
X162591056Y-127898619D01*
X162592585Y-127902480D01*
X162592586Y-127902484D01*
X162657018Y-128065220D01*
X162720741Y-128226166D01*
X162886129Y-128537216D01*
X163085159Y-128827891D01*
X163127990Y-128877511D01*
X163310336Y-129088761D01*
X163315349Y-129094569D01*
X163318394Y-129097389D01*
X163318402Y-129097397D01*
X163448744Y-129218094D01*
X163573832Y-129333927D01*
X163857384Y-129542980D01*
X163860985Y-129545059D01*
X163860988Y-129545061D01*
X164158872Y-129717044D01*
X164158878Y-129717047D01*
X164162472Y-129719122D01*
X164485293Y-129860160D01*
X164489257Y-129861387D01*
X164489265Y-129861390D01*
X164683300Y-129921453D01*
X164821824Y-129964333D01*
X164825896Y-129965110D01*
X164825901Y-129965111D01*
X165163790Y-130029567D01*
X165163795Y-130029568D01*
X165167870Y-130030345D01*
X165172007Y-130030663D01*
X165172012Y-130030664D01*
X165343494Y-130043859D01*
X165519117Y-130057372D01*
X165523270Y-130057227D01*
X165523272Y-130057227D01*
X165669738Y-130052112D01*
X165871188Y-130045077D01*
X166020544Y-130023022D01*
X166215572Y-129994223D01*
X166215577Y-129994222D01*
X166219694Y-129993614D01*
X166407091Y-129944102D01*
X166556274Y-129904687D01*
X166556281Y-129904685D01*
X166560292Y-129903625D01*
X166571554Y-129899257D01*
X166884861Y-129777733D01*
X166888736Y-129776230D01*
X166972554Y-129732411D01*
X167197240Y-129614948D01*
X167197245Y-129614945D01*
X167200933Y-129613017D01*
X167492991Y-129416021D01*
X167761270Y-129187698D01*
X168002426Y-128930893D01*
X168033949Y-128888756D01*
X168149070Y-128734869D01*
X168213453Y-128648807D01*
X168215556Y-128645223D01*
X168389621Y-128348536D01*
X168389624Y-128348531D01*
X168391721Y-128344956D01*
X168516268Y-128065220D01*
X168533313Y-128026937D01*
X168533315Y-128026932D01*
X168535009Y-128023127D01*
X168575781Y-127894599D01*
X168612194Y-127779807D01*
X168641529Y-127687332D01*
X168643951Y-127675102D01*
X168709146Y-127345844D01*
X168709147Y-127345836D01*
X168709955Y-127341756D01*
X168715123Y-127280213D01*
X168739216Y-126993306D01*
X168739216Y-126993297D01*
X168739434Y-126990706D01*
X168740664Y-126902600D01*
X168739687Y-126885117D01*
X192866839Y-126885117D01*
X192867016Y-126888871D01*
X192867016Y-126888877D01*
X192871941Y-126993306D01*
X192884978Y-127269740D01*
X192941892Y-127650562D01*
X192942822Y-127654212D01*
X192942823Y-127654215D01*
X193036066Y-128020023D01*
X193036999Y-128023683D01*
X193109684Y-128222304D01*
X193153180Y-128341160D01*
X193169326Y-128385282D01*
X193170974Y-128388676D01*
X193170977Y-128388683D01*
X193243101Y-128537216D01*
X193337517Y-128731658D01*
X193339499Y-128734867D01*
X193339500Y-128734869D01*
X193524163Y-129033864D01*
X193539850Y-129059264D01*
X193774254Y-129364745D01*
X193776833Y-129367482D01*
X193776840Y-129367490D01*
X193824763Y-129418344D01*
X194038329Y-129644975D01*
X194041190Y-129647453D01*
X194326513Y-129894608D01*
X194326519Y-129894613D01*
X194329372Y-129897084D01*
X194332464Y-129899257D01*
X194641314Y-130116321D01*
X194641322Y-130116326D01*
X194644401Y-130118490D01*
X194647689Y-130120335D01*
X194647692Y-130120337D01*
X194976898Y-130305079D01*
X194976906Y-130305083D01*
X194980192Y-130306927D01*
X195333307Y-130460466D01*
X195700131Y-130577534D01*
X195703820Y-130578311D01*
X195703826Y-130578313D01*
X195984980Y-130637561D01*
X196076907Y-130656933D01*
X196080656Y-130657334D01*
X196080658Y-130657334D01*
X196456033Y-130697451D01*
X196456038Y-130697451D01*
X196459778Y-130697851D01*
X196463535Y-130697871D01*
X196463541Y-130697871D01*
X196683172Y-130699021D01*
X196844824Y-130699867D01*
X196848580Y-130699505D01*
X196848587Y-130699505D01*
X197224354Y-130663322D01*
X197224356Y-130663322D01*
X197228102Y-130662961D01*
X197328353Y-130642929D01*
X197601997Y-130588250D01*
X197602002Y-130588249D01*
X197605689Y-130587512D01*
X197821103Y-130521242D01*
X197970117Y-130475399D01*
X197970120Y-130475398D01*
X197973718Y-130474291D01*
X198328421Y-130324459D01*
X198666168Y-130139548D01*
X198983498Y-129921453D01*
X199039622Y-129873857D01*
X199274295Y-129674840D01*
X199274296Y-129674839D01*
X199277165Y-129672406D01*
X199301608Y-129647006D01*
X199541544Y-129397676D01*
X199541549Y-129397670D01*
X199544160Y-129394957D01*
X199781750Y-129091946D01*
X199950850Y-128824456D01*
X199985488Y-128769665D01*
X199985491Y-128769660D01*
X199987503Y-128766477D01*
X200006558Y-128728260D01*
X200157633Y-128425249D01*
X200159312Y-128421882D01*
X200295418Y-128061688D01*
X200298713Y-128049307D01*
X200393458Y-127693225D01*
X200394427Y-127689584D01*
X200450140Y-127341756D01*
X200454730Y-127313101D01*
X200454730Y-127313098D01*
X200455326Y-127309379D01*
X200477491Y-126924966D01*
X200477584Y-126898400D01*
X200458103Y-126513842D01*
X200452195Y-126475229D01*
X200410004Y-126199515D01*
X200399860Y-126133221D01*
X200397458Y-126123931D01*
X200304396Y-125764088D01*
X200304394Y-125764083D01*
X200303451Y-125760435D01*
X200297457Y-125744229D01*
X200171174Y-125402845D01*
X200169863Y-125399300D01*
X200000464Y-125053513D01*
X199796988Y-124726616D01*
X199679253Y-124574285D01*
X199563831Y-124424945D01*
X199563828Y-124424941D01*
X199561519Y-124421954D01*
X199367387Y-124217382D01*
X199299061Y-124145381D01*
X199299056Y-124145376D01*
X199296467Y-124142648D01*
X199004547Y-123891557D01*
X199001465Y-123889407D01*
X199001456Y-123889400D01*
X198691839Y-123673409D01*
X198688746Y-123671251D01*
X198352299Y-123483987D01*
X197998650Y-123331682D01*
X197631421Y-123215895D01*
X197472543Y-123182993D01*
X197258061Y-123138576D01*
X197258054Y-123138575D01*
X197254370Y-123137812D01*
X197250628Y-123137425D01*
X197250626Y-123137425D01*
X197190378Y-123131199D01*
X196871358Y-123098231D01*
X196867595Y-123098224D01*
X196867587Y-123098224D01*
X196678833Y-123097895D01*
X196486308Y-123097559D01*
X196482552Y-123097934D01*
X196482550Y-123097934D01*
X196329845Y-123113176D01*
X196103161Y-123135802D01*
X195725839Y-123212569D01*
X195722253Y-123213686D01*
X195722245Y-123213688D01*
X195434993Y-123303158D01*
X195358208Y-123327074D01*
X195354729Y-123328558D01*
X195007498Y-123476664D01*
X195007492Y-123476667D01*
X195004029Y-123478144D01*
X194666931Y-123664232D01*
X194663833Y-123666377D01*
X194663830Y-123666379D01*
X194547091Y-123747213D01*
X194350363Y-123883434D01*
X194347507Y-123885873D01*
X194347506Y-123885874D01*
X194311012Y-123917043D01*
X194057568Y-124133504D01*
X194054961Y-124136232D01*
X194054960Y-124136233D01*
X193794150Y-124409155D01*
X193794142Y-124409165D01*
X193791543Y-124411884D01*
X193555012Y-124715721D01*
X193553010Y-124718912D01*
X193553004Y-124718921D01*
X193436168Y-124905175D01*
X193350396Y-125041907D01*
X193344660Y-125053513D01*
X193184563Y-125377445D01*
X193179791Y-125387100D01*
X193178468Y-125390638D01*
X193178466Y-125390643D01*
X193054440Y-125722366D01*
X193044943Y-125747766D01*
X193043988Y-125751408D01*
X193043985Y-125751416D01*
X193015233Y-125861014D01*
X192947234Y-126120214D01*
X192946652Y-126123931D01*
X192891640Y-126475229D01*
X192887662Y-126500629D01*
X192866839Y-126885117D01*
X168739687Y-126885117D01*
X168720999Y-126550864D01*
X168662249Y-126203512D01*
X168648807Y-126156633D01*
X168566296Y-125868883D01*
X168566295Y-125868881D01*
X168565146Y-125864873D01*
X168563559Y-125861023D01*
X168563556Y-125861014D01*
X168432487Y-125543019D01*
X168432486Y-125543017D01*
X168430900Y-125539169D01*
X168347299Y-125387100D01*
X168263191Y-125234107D01*
X168263187Y-125234100D01*
X168261185Y-125230459D01*
X168258784Y-125227055D01*
X168060515Y-124945991D01*
X168060510Y-124945985D01*
X168058116Y-124942591D01*
X167824225Y-124679152D01*
X167562426Y-124443427D01*
X167528025Y-124418798D01*
X167479077Y-124383755D01*
X167275982Y-124238354D01*
X166968464Y-124066488D01*
X166919464Y-124045890D01*
X166647535Y-123931582D01*
X166643705Y-123929972D01*
X166639727Y-123928801D01*
X166639718Y-123928798D01*
X166309739Y-123831680D01*
X166309737Y-123831679D01*
X166305753Y-123830507D01*
X165958819Y-123769333D01*
X165954678Y-123769072D01*
X165954674Y-123769072D01*
X165714576Y-123753967D01*
X165607229Y-123747213D01*
X165603078Y-123747416D01*
X165603077Y-123747416D01*
X165259532Y-123764218D01*
X165259529Y-123764218D01*
X165255364Y-123764422D01*
X164978780Y-123809219D01*
X164911715Y-123820081D01*
X164911713Y-123820082D01*
X164907610Y-123820746D01*
X164903609Y-123821863D01*
X164903605Y-123821864D01*
X164572315Y-123914361D01*
X164572306Y-123914364D01*
X164568302Y-123915482D01*
X164404985Y-123981467D01*
X164245532Y-124045890D01*
X164245528Y-124045892D01*
X164241669Y-124047451D01*
X164238007Y-124049431D01*
X164082517Y-124133504D01*
X163931781Y-124215006D01*
X163642502Y-124416060D01*
X163639378Y-124418795D01*
X163639374Y-124418798D01*
X163380563Y-124645371D01*
X163377438Y-124648107D01*
X163139891Y-124908254D01*
X163137441Y-124911626D01*
X163137437Y-124911631D01*
X163034354Y-125053513D01*
X162932822Y-125193259D01*
X162758814Y-125499570D01*
X162757169Y-125503408D01*
X162648527Y-125756890D01*
X162620034Y-125823368D01*
X162518212Y-126160618D01*
X162454618Y-126507115D01*
X162430044Y-126858543D01*
X139720052Y-126858543D01*
X139701303Y-126488442D01*
X139643060Y-126107821D01*
X139640658Y-126098531D01*
X139547596Y-125738688D01*
X139547594Y-125738683D01*
X139546651Y-125735035D01*
X139540657Y-125718829D01*
X139472849Y-125535522D01*
X139413063Y-125373900D01*
X139257769Y-125056905D01*
X139245326Y-125031505D01*
X139245324Y-125031501D01*
X139243664Y-125028113D01*
X139040188Y-124701216D01*
X138843100Y-124446213D01*
X138807031Y-124399545D01*
X138807028Y-124399541D01*
X138804719Y-124396554D01*
X138630560Y-124213029D01*
X138542261Y-124119981D01*
X138542256Y-124119976D01*
X138539667Y-124117248D01*
X138247747Y-123866157D01*
X138244665Y-123864007D01*
X138244656Y-123864000D01*
X137961372Y-123666379D01*
X137931946Y-123645851D01*
X137763723Y-123552219D01*
X137598798Y-123460423D01*
X137598795Y-123460421D01*
X137595499Y-123458587D01*
X137241850Y-123306282D01*
X136874621Y-123190495D01*
X136715743Y-123157593D01*
X136501261Y-123113176D01*
X136501254Y-123113175D01*
X136497570Y-123112412D01*
X136493828Y-123112025D01*
X136493826Y-123112025D01*
X136433578Y-123105799D01*
X136114558Y-123072831D01*
X136110795Y-123072824D01*
X136110787Y-123072824D01*
X135922033Y-123072495D01*
X135729508Y-123072159D01*
X135725752Y-123072534D01*
X135725750Y-123072534D01*
X135468369Y-123098224D01*
X135346361Y-123110402D01*
X134969039Y-123187169D01*
X134965453Y-123188286D01*
X134965445Y-123188288D01*
X134666605Y-123281367D01*
X134601408Y-123301674D01*
X134538379Y-123328558D01*
X134250698Y-123451264D01*
X134250692Y-123451267D01*
X134247229Y-123452744D01*
X133910131Y-123638832D01*
X133907033Y-123640977D01*
X133907030Y-123640979D01*
X133863312Y-123671251D01*
X133593563Y-123858034D01*
X133590707Y-123860473D01*
X133590706Y-123860474D01*
X133551432Y-123894017D01*
X133300768Y-124108104D01*
X133298161Y-124110832D01*
X133298160Y-124110833D01*
X133037350Y-124383755D01*
X133037342Y-124383765D01*
X133034743Y-124386484D01*
X132798212Y-124690321D01*
X132796210Y-124693512D01*
X132796204Y-124693521D01*
X132671227Y-124892753D01*
X132593596Y-125016507D01*
X132422991Y-125361700D01*
X132421668Y-125365238D01*
X132421666Y-125365243D01*
X132356638Y-125539169D01*
X132288143Y-125722366D01*
X132287188Y-125726008D01*
X132287185Y-125726016D01*
X132262650Y-125819541D01*
X132190434Y-126094814D01*
X132130862Y-126475229D01*
X132110039Y-126859717D01*
X108738266Y-126859717D01*
X108720999Y-126550864D01*
X108662249Y-126203512D01*
X108648807Y-126156633D01*
X108566296Y-125868883D01*
X108566295Y-125868881D01*
X108565146Y-125864873D01*
X108563559Y-125861023D01*
X108563556Y-125861014D01*
X108432487Y-125543019D01*
X108432486Y-125543017D01*
X108430900Y-125539169D01*
X108347299Y-125387100D01*
X108263191Y-125234107D01*
X108263187Y-125234100D01*
X108261185Y-125230459D01*
X108258784Y-125227055D01*
X108060515Y-124945991D01*
X108060510Y-124945985D01*
X108058116Y-124942591D01*
X107824225Y-124679152D01*
X107562426Y-124443427D01*
X107528025Y-124418798D01*
X107479077Y-124383755D01*
X107275982Y-124238354D01*
X106968464Y-124066488D01*
X106919464Y-124045890D01*
X106647535Y-123931582D01*
X106643705Y-123929972D01*
X106639727Y-123928801D01*
X106639718Y-123928798D01*
X106309739Y-123831680D01*
X106309737Y-123831679D01*
X106305753Y-123830507D01*
X105958819Y-123769333D01*
X105954678Y-123769072D01*
X105954674Y-123769072D01*
X105714576Y-123753967D01*
X105607229Y-123747213D01*
X105603078Y-123747416D01*
X105603077Y-123747416D01*
X105259532Y-123764218D01*
X105259529Y-123764218D01*
X105255364Y-123764422D01*
X104978780Y-123809219D01*
X104911715Y-123820081D01*
X104911713Y-123820082D01*
X104907610Y-123820746D01*
X104903609Y-123821863D01*
X104903605Y-123821864D01*
X104572315Y-123914361D01*
X104572306Y-123914364D01*
X104568302Y-123915482D01*
X104404985Y-123981467D01*
X104245532Y-124045890D01*
X104245528Y-124045892D01*
X104241669Y-124047451D01*
X104238007Y-124049431D01*
X104082517Y-124133504D01*
X103931781Y-124215006D01*
X103642502Y-124416060D01*
X103639378Y-124418795D01*
X103639374Y-124418798D01*
X103380563Y-124645371D01*
X103377438Y-124648107D01*
X103139891Y-124908254D01*
X103137441Y-124911626D01*
X103137437Y-124911631D01*
X103034354Y-125053513D01*
X102932822Y-125193259D01*
X102758814Y-125499570D01*
X102757169Y-125503408D01*
X102648527Y-125756890D01*
X102620034Y-125823368D01*
X102518212Y-126160618D01*
X102454618Y-126507115D01*
X102430044Y-126858543D01*
X78988652Y-126858543D01*
X78969903Y-126488442D01*
X78911660Y-126107821D01*
X78909258Y-126098531D01*
X78816196Y-125738688D01*
X78816194Y-125738683D01*
X78815251Y-125735035D01*
X78809257Y-125718829D01*
X78741449Y-125535522D01*
X78681663Y-125373900D01*
X78526369Y-125056905D01*
X78513926Y-125031505D01*
X78513924Y-125031501D01*
X78512264Y-125028113D01*
X78308788Y-124701216D01*
X78111700Y-124446213D01*
X78075631Y-124399545D01*
X78075628Y-124399541D01*
X78073319Y-124396554D01*
X77899160Y-124213029D01*
X77810861Y-124119981D01*
X77810856Y-124119976D01*
X77808267Y-124117248D01*
X77516347Y-123866157D01*
X77513265Y-123864007D01*
X77513256Y-123864000D01*
X77229972Y-123666379D01*
X77200546Y-123645851D01*
X77032323Y-123552219D01*
X76867398Y-123460423D01*
X76867395Y-123460421D01*
X76864099Y-123458587D01*
X76510450Y-123306282D01*
X76143221Y-123190495D01*
X75984343Y-123157593D01*
X75769861Y-123113176D01*
X75769854Y-123113175D01*
X75766170Y-123112412D01*
X75762428Y-123112025D01*
X75762426Y-123112025D01*
X75702178Y-123105799D01*
X75383158Y-123072831D01*
X75379395Y-123072824D01*
X75379387Y-123072824D01*
X75190633Y-123072495D01*
X74998108Y-123072159D01*
X74994352Y-123072534D01*
X74994350Y-123072534D01*
X74736969Y-123098224D01*
X74614961Y-123110402D01*
X74237639Y-123187169D01*
X74234053Y-123188286D01*
X74234045Y-123188288D01*
X73935205Y-123281367D01*
X73870008Y-123301674D01*
X73806979Y-123328558D01*
X73519298Y-123451264D01*
X73519292Y-123451267D01*
X73515829Y-123452744D01*
X73178731Y-123638832D01*
X73175633Y-123640977D01*
X73175630Y-123640979D01*
X73131912Y-123671251D01*
X72862163Y-123858034D01*
X72859307Y-123860473D01*
X72859306Y-123860474D01*
X72820032Y-123894017D01*
X72569368Y-124108104D01*
X72566761Y-124110832D01*
X72566760Y-124110833D01*
X72305950Y-124383755D01*
X72305942Y-124383765D01*
X72303343Y-124386484D01*
X72066812Y-124690321D01*
X72064810Y-124693512D01*
X72064804Y-124693521D01*
X71939827Y-124892753D01*
X71862196Y-125016507D01*
X71691591Y-125361700D01*
X71690268Y-125365238D01*
X71690266Y-125365243D01*
X71625238Y-125539169D01*
X71556743Y-125722366D01*
X71555788Y-125726008D01*
X71555785Y-125726016D01*
X71531250Y-125819541D01*
X71459034Y-126094814D01*
X71399462Y-126475229D01*
X71378639Y-126859717D01*
X70886300Y-126859717D01*
X70886300Y-106914368D01*
X115321554Y-106914368D01*
X115322741Y-106928074D01*
X115322741Y-106928075D01*
X115324744Y-106951201D01*
X115325300Y-106964057D01*
X115325300Y-106972148D01*
X115326557Y-106978898D01*
X115326693Y-106980369D01*
X115328281Y-106992041D01*
X115328735Y-106997285D01*
X115331213Y-107025896D01*
X115337055Y-107037847D01*
X115337451Y-107039562D01*
X115338155Y-107041174D01*
X115340591Y-107054253D01*
X115347809Y-107065962D01*
X115358427Y-107083188D01*
X115365451Y-107095939D01*
X115380375Y-107126469D01*
X115390129Y-107135517D01*
X115391117Y-107136976D01*
X115392352Y-107138225D01*
X115399332Y-107149548D01*
X115410281Y-107157874D01*
X115410282Y-107157875D01*
X115426382Y-107170118D01*
X115437523Y-107179483D01*
X115452358Y-107193244D01*
X115452361Y-107193246D01*
X115462446Y-107202601D01*
X115474803Y-107207531D01*
X115476246Y-107208533D01*
X115477851Y-107209255D01*
X115488441Y-107217308D01*
X115521085Y-107226761D01*
X115534848Y-107231486D01*
X115539588Y-107233377D01*
X115566422Y-107244083D01*
X115572715Y-107244700D01*
X115576350Y-107244700D01*
X115579993Y-107244878D01*
X115579993Y-107244881D01*
X115584402Y-107245097D01*
X115595968Y-107248446D01*
X115609674Y-107247259D01*
X115609675Y-107247259D01*
X115632801Y-107245256D01*
X115645657Y-107244700D01*
X155576288Y-107244700D01*
X155584402Y-107245097D01*
X155595968Y-107248446D01*
X155609674Y-107247259D01*
X155609675Y-107247259D01*
X155632801Y-107245256D01*
X155645657Y-107244700D01*
X155653748Y-107244700D01*
X155660498Y-107243443D01*
X155661969Y-107243307D01*
X155673641Y-107241719D01*
X155693791Y-107239974D01*
X155693792Y-107239974D01*
X155707496Y-107238787D01*
X155719447Y-107232945D01*
X155721162Y-107232549D01*
X155722774Y-107231845D01*
X155735853Y-107229409D01*
X155764791Y-107211571D01*
X155777539Y-107204549D01*
X155795707Y-107195668D01*
X155795708Y-107195667D01*
X155808069Y-107189625D01*
X155817117Y-107179871D01*
X155818576Y-107178883D01*
X155819825Y-107177648D01*
X155831148Y-107170668D01*
X155840876Y-107157875D01*
X155851718Y-107143618D01*
X155861083Y-107132477D01*
X155874844Y-107117642D01*
X155874846Y-107117639D01*
X155884201Y-107107554D01*
X155889131Y-107095197D01*
X155890133Y-107093754D01*
X155890855Y-107092149D01*
X155898908Y-107081559D01*
X155908361Y-107048915D01*
X155913086Y-107035152D01*
X155921786Y-107013345D01*
X155925683Y-107003578D01*
X155926300Y-106997285D01*
X155926300Y-106993650D01*
X155926478Y-106990007D01*
X155926481Y-106990007D01*
X155926697Y-106985598D01*
X155930046Y-106974032D01*
X155926856Y-106937199D01*
X155926300Y-106924343D01*
X155926300Y-96858543D01*
X187430044Y-96858543D01*
X187444796Y-97210519D01*
X187498690Y-97558658D01*
X187499780Y-97562671D01*
X187499782Y-97562679D01*
X187533650Y-97687332D01*
X187591056Y-97898619D01*
X187592585Y-97902480D01*
X187592586Y-97902484D01*
X187640352Y-98023127D01*
X187720741Y-98226166D01*
X187886129Y-98537216D01*
X188085159Y-98827891D01*
X188315349Y-99094569D01*
X188318394Y-99097389D01*
X188318402Y-99097397D01*
X188507506Y-99272508D01*
X188573832Y-99333927D01*
X188857384Y-99542980D01*
X188860985Y-99545059D01*
X188860988Y-99545061D01*
X189158872Y-99717044D01*
X189158878Y-99717047D01*
X189162472Y-99719122D01*
X189485293Y-99860160D01*
X189489257Y-99861387D01*
X189489265Y-99861390D01*
X189702086Y-99927268D01*
X189821824Y-99964333D01*
X189825896Y-99965110D01*
X189825901Y-99965111D01*
X190163790Y-100029567D01*
X190163795Y-100029568D01*
X190167870Y-100030345D01*
X190172007Y-100030663D01*
X190172012Y-100030664D01*
X190343494Y-100043859D01*
X190519117Y-100057372D01*
X190523270Y-100057227D01*
X190523272Y-100057227D01*
X190669738Y-100052112D01*
X190871188Y-100045077D01*
X191020544Y-100023022D01*
X191215572Y-99994223D01*
X191215577Y-99994222D01*
X191219694Y-99993614D01*
X191407091Y-99944102D01*
X191556274Y-99904687D01*
X191556281Y-99904685D01*
X191560292Y-99903625D01*
X191669181Y-99861390D01*
X191884861Y-99777733D01*
X191888736Y-99776230D01*
X191929366Y-99754989D01*
X192197240Y-99614948D01*
X192197245Y-99614945D01*
X192200933Y-99613017D01*
X192492991Y-99416021D01*
X192761270Y-99187698D01*
X193002426Y-98930893D01*
X193213453Y-98648807D01*
X193278923Y-98537216D01*
X193389621Y-98348536D01*
X193389624Y-98348531D01*
X193391721Y-98344956D01*
X193535009Y-98023127D01*
X193575781Y-97894599D01*
X193640266Y-97691313D01*
X193641529Y-97687332D01*
X193709955Y-97341756D01*
X193720630Y-97214631D01*
X193739216Y-96993306D01*
X193739216Y-96993297D01*
X193739434Y-96990706D01*
X193740664Y-96902600D01*
X193720999Y-96550864D01*
X193662249Y-96203512D01*
X193565146Y-95864873D01*
X193563559Y-95861023D01*
X193563556Y-95861014D01*
X193432487Y-95543019D01*
X193432486Y-95543017D01*
X193430900Y-95539169D01*
X193261185Y-95230459D01*
X193258784Y-95227055D01*
X193060515Y-94945991D01*
X193060510Y-94945985D01*
X193058116Y-94942591D01*
X192824225Y-94679152D01*
X192562426Y-94443427D01*
X192528025Y-94418798D01*
X192499649Y-94398483D01*
X192275982Y-94238354D01*
X191968464Y-94066488D01*
X191919464Y-94045890D01*
X191647535Y-93931582D01*
X191643705Y-93929972D01*
X191639727Y-93928801D01*
X191639718Y-93928798D01*
X191309739Y-93831680D01*
X191309737Y-93831679D01*
X191305753Y-93830507D01*
X190958819Y-93769333D01*
X190954678Y-93769072D01*
X190954674Y-93769072D01*
X190714576Y-93753967D01*
X190607229Y-93747213D01*
X190603078Y-93747416D01*
X190603077Y-93747416D01*
X190259532Y-93764218D01*
X190259529Y-93764218D01*
X190255364Y-93764422D01*
X189978780Y-93809219D01*
X189911715Y-93820081D01*
X189911713Y-93820082D01*
X189907610Y-93820746D01*
X189903609Y-93821863D01*
X189903605Y-93821864D01*
X189572315Y-93914361D01*
X189572306Y-93914364D01*
X189568302Y-93915482D01*
X189404985Y-93981467D01*
X189245532Y-94045890D01*
X189245528Y-94045892D01*
X189241669Y-94047451D01*
X189238007Y-94049431D01*
X189202703Y-94068520D01*
X188931781Y-94215006D01*
X188642502Y-94416060D01*
X188639378Y-94418795D01*
X188639374Y-94418798D01*
X188380563Y-94645371D01*
X188377438Y-94648107D01*
X188139891Y-94908254D01*
X188137441Y-94911626D01*
X188137437Y-94911631D01*
X188114944Y-94942591D01*
X187932822Y-95193259D01*
X187758814Y-95499570D01*
X187620034Y-95823368D01*
X187518212Y-96160618D01*
X187454618Y-96507115D01*
X187430044Y-96858543D01*
X155926300Y-96858543D01*
X155926300Y-86993712D01*
X155926697Y-86985598D01*
X155930046Y-86974032D01*
X155926856Y-86937199D01*
X155926300Y-86924343D01*
X155926300Y-86916252D01*
X155925043Y-86909502D01*
X155924907Y-86908031D01*
X155923319Y-86896359D01*
X155921574Y-86876209D01*
X155921574Y-86876208D01*
X155920387Y-86862504D01*
X155914545Y-86850553D01*
X155914149Y-86848838D01*
X155913445Y-86847226D01*
X155911009Y-86834147D01*
X155893171Y-86805209D01*
X155886149Y-86792461D01*
X155877268Y-86774293D01*
X155877267Y-86774292D01*
X155871225Y-86761931D01*
X155861471Y-86752883D01*
X155860483Y-86751424D01*
X155859248Y-86750175D01*
X155852268Y-86738852D01*
X155838894Y-86728682D01*
X155825218Y-86718282D01*
X155814077Y-86708917D01*
X155799242Y-86695156D01*
X155799239Y-86695154D01*
X155789154Y-86685799D01*
X155776797Y-86680869D01*
X155775354Y-86679867D01*
X155773749Y-86679145D01*
X155763159Y-86671092D01*
X155730515Y-86661639D01*
X155716752Y-86656914D01*
X155698452Y-86649613D01*
X155685178Y-86644317D01*
X155678885Y-86643700D01*
X155675250Y-86643700D01*
X155671607Y-86643522D01*
X155671607Y-86643519D01*
X155667198Y-86643303D01*
X155655632Y-86639954D01*
X155641926Y-86641141D01*
X155641925Y-86641141D01*
X155618799Y-86643144D01*
X155605943Y-86643700D01*
X115675312Y-86643700D01*
X115667198Y-86643303D01*
X115655632Y-86639954D01*
X115641926Y-86641141D01*
X115641925Y-86641141D01*
X115618799Y-86643144D01*
X115605943Y-86643700D01*
X115597852Y-86643700D01*
X115591102Y-86644957D01*
X115589631Y-86645093D01*
X115577959Y-86646681D01*
X115557809Y-86648426D01*
X115557808Y-86648426D01*
X115544104Y-86649613D01*
X115532153Y-86655455D01*
X115530438Y-86655851D01*
X115528826Y-86656555D01*
X115515747Y-86658991D01*
X115496116Y-86671092D01*
X115486812Y-86676827D01*
X115474061Y-86683851D01*
X115455893Y-86692732D01*
X115443531Y-86698775D01*
X115434483Y-86708529D01*
X115433024Y-86709517D01*
X115431775Y-86710752D01*
X115420452Y-86717732D01*
X115412126Y-86728681D01*
X115412125Y-86728682D01*
X115399882Y-86744782D01*
X115390517Y-86755923D01*
X115376756Y-86770758D01*
X115376754Y-86770761D01*
X115367399Y-86780846D01*
X115362469Y-86793203D01*
X115361467Y-86794646D01*
X115360745Y-86796251D01*
X115352692Y-86806841D01*
X115348865Y-86820058D01*
X115343241Y-86839480D01*
X115338514Y-86853248D01*
X115325917Y-86884822D01*
X115325300Y-86891115D01*
X115325300Y-86894750D01*
X115325122Y-86898393D01*
X115325119Y-86898393D01*
X115324903Y-86902802D01*
X115321554Y-86914368D01*
X115322741Y-86928074D01*
X115322741Y-86928075D01*
X115324744Y-86951201D01*
X115325300Y-86964057D01*
X115325300Y-106894688D01*
X115324903Y-106902802D01*
X115321554Y-106914368D01*
X70886300Y-106914368D01*
X70886300Y-96858543D01*
X77430044Y-96858543D01*
X77444796Y-97210519D01*
X77498690Y-97558658D01*
X77499780Y-97562671D01*
X77499782Y-97562679D01*
X77533650Y-97687332D01*
X77591056Y-97898619D01*
X77592585Y-97902480D01*
X77592586Y-97902484D01*
X77640352Y-98023127D01*
X77720741Y-98226166D01*
X77886129Y-98537216D01*
X78085159Y-98827891D01*
X78315349Y-99094569D01*
X78318394Y-99097389D01*
X78318402Y-99097397D01*
X78507506Y-99272508D01*
X78573832Y-99333927D01*
X78857384Y-99542980D01*
X78860985Y-99545059D01*
X78860988Y-99545061D01*
X79158872Y-99717044D01*
X79158878Y-99717047D01*
X79162472Y-99719122D01*
X79485293Y-99860160D01*
X79489257Y-99861387D01*
X79489265Y-99861390D01*
X79702086Y-99927268D01*
X79821824Y-99964333D01*
X79825896Y-99965110D01*
X79825901Y-99965111D01*
X80163790Y-100029567D01*
X80163795Y-100029568D01*
X80167870Y-100030345D01*
X80172007Y-100030663D01*
X80172012Y-100030664D01*
X80343494Y-100043859D01*
X80519117Y-100057372D01*
X80523270Y-100057227D01*
X80523272Y-100057227D01*
X80669738Y-100052112D01*
X80871188Y-100045077D01*
X81020544Y-100023022D01*
X81215572Y-99994223D01*
X81215577Y-99994222D01*
X81219694Y-99993614D01*
X81407091Y-99944102D01*
X81556274Y-99904687D01*
X81556281Y-99904685D01*
X81560292Y-99903625D01*
X81669181Y-99861390D01*
X81884861Y-99777733D01*
X81888736Y-99776230D01*
X81929366Y-99754989D01*
X82197240Y-99614948D01*
X82197245Y-99614945D01*
X82200933Y-99613017D01*
X82492991Y-99416021D01*
X82761270Y-99187698D01*
X83002426Y-98930893D01*
X83213453Y-98648807D01*
X83278923Y-98537216D01*
X83389621Y-98348536D01*
X83389624Y-98348531D01*
X83391721Y-98344956D01*
X83535009Y-98023127D01*
X83575781Y-97894599D01*
X83640266Y-97691313D01*
X83641529Y-97687332D01*
X83709955Y-97341756D01*
X83720630Y-97214631D01*
X83739216Y-96993306D01*
X83739216Y-96993297D01*
X83739434Y-96990706D01*
X83740664Y-96902600D01*
X83720999Y-96550864D01*
X83662249Y-96203512D01*
X83565146Y-95864873D01*
X83563559Y-95861023D01*
X83563556Y-95861014D01*
X83432487Y-95543019D01*
X83432486Y-95543017D01*
X83430900Y-95539169D01*
X83261185Y-95230459D01*
X83258784Y-95227055D01*
X83060515Y-94945991D01*
X83060510Y-94945985D01*
X83058116Y-94942591D01*
X82824225Y-94679152D01*
X82562426Y-94443427D01*
X82528025Y-94418798D01*
X82499649Y-94398483D01*
X82275982Y-94238354D01*
X81968464Y-94066488D01*
X81919464Y-94045890D01*
X81647535Y-93931582D01*
X81643705Y-93929972D01*
X81639727Y-93928801D01*
X81639718Y-93928798D01*
X81309739Y-93831680D01*
X81309737Y-93831679D01*
X81305753Y-93830507D01*
X80958819Y-93769333D01*
X80954678Y-93769072D01*
X80954674Y-93769072D01*
X80714576Y-93753967D01*
X80607229Y-93747213D01*
X80603078Y-93747416D01*
X80603077Y-93747416D01*
X80259532Y-93764218D01*
X80259529Y-93764218D01*
X80255364Y-93764422D01*
X79978780Y-93809219D01*
X79911715Y-93820081D01*
X79911713Y-93820082D01*
X79907610Y-93820746D01*
X79903609Y-93821863D01*
X79903605Y-93821864D01*
X79572315Y-93914361D01*
X79572306Y-93914364D01*
X79568302Y-93915482D01*
X79404985Y-93981467D01*
X79245532Y-94045890D01*
X79245528Y-94045892D01*
X79241669Y-94047451D01*
X79238007Y-94049431D01*
X79202703Y-94068520D01*
X78931781Y-94215006D01*
X78642502Y-94416060D01*
X78639378Y-94418795D01*
X78639374Y-94418798D01*
X78380563Y-94645371D01*
X78377438Y-94648107D01*
X78139891Y-94908254D01*
X78137441Y-94911626D01*
X78137437Y-94911631D01*
X78114944Y-94942591D01*
X77932822Y-95193259D01*
X77758814Y-95499570D01*
X77620034Y-95823368D01*
X77518212Y-96160618D01*
X77454618Y-96507115D01*
X77430044Y-96858543D01*
X70886300Y-96858543D01*
X70886300Y-68871517D01*
X71378639Y-68871517D01*
X71378816Y-68875271D01*
X71378816Y-68875277D01*
X71381439Y-68930893D01*
X71396778Y-69256140D01*
X71453692Y-69636962D01*
X71454622Y-69640612D01*
X71454623Y-69640615D01*
X71544330Y-69992549D01*
X71548799Y-70010083D01*
X71681126Y-70371682D01*
X71682774Y-70375076D01*
X71682777Y-70375083D01*
X71698898Y-70408282D01*
X71849317Y-70718058D01*
X71851299Y-70721267D01*
X71851300Y-70721269D01*
X72035963Y-71020264D01*
X72051650Y-71045664D01*
X72286054Y-71351145D01*
X72288633Y-71353882D01*
X72288640Y-71353890D01*
X72465446Y-71541512D01*
X72550129Y-71631375D01*
X72552990Y-71633853D01*
X72838313Y-71881008D01*
X72838319Y-71881013D01*
X72841172Y-71883484D01*
X72844264Y-71885657D01*
X73153114Y-72102721D01*
X73153122Y-72102726D01*
X73156201Y-72104890D01*
X73159489Y-72106735D01*
X73159492Y-72106737D01*
X73488698Y-72291479D01*
X73488706Y-72291483D01*
X73491992Y-72293327D01*
X73845107Y-72446866D01*
X74211931Y-72563934D01*
X74215620Y-72564711D01*
X74215626Y-72564713D01*
X74496780Y-72623961D01*
X74588707Y-72643333D01*
X74592456Y-72643734D01*
X74592458Y-72643734D01*
X74967833Y-72683851D01*
X74967838Y-72683851D01*
X74971578Y-72684251D01*
X74975335Y-72684271D01*
X74975341Y-72684271D01*
X75194972Y-72685421D01*
X75356624Y-72686267D01*
X75360380Y-72685905D01*
X75360387Y-72685905D01*
X75736154Y-72649722D01*
X75736156Y-72649722D01*
X75739902Y-72649361D01*
X75818406Y-72633675D01*
X76113797Y-72574650D01*
X76113802Y-72574649D01*
X76117489Y-72573912D01*
X76332903Y-72507642D01*
X76481917Y-72461799D01*
X76481920Y-72461798D01*
X76485518Y-72460691D01*
X76840221Y-72310859D01*
X77177968Y-72125948D01*
X77495298Y-71907853D01*
X77551422Y-71860257D01*
X77786095Y-71661240D01*
X77786096Y-71661239D01*
X77788965Y-71658806D01*
X77813408Y-71633406D01*
X78053344Y-71384076D01*
X78053349Y-71384070D01*
X78055960Y-71381357D01*
X78293550Y-71078346D01*
X78499303Y-70752877D01*
X78518358Y-70714660D01*
X78669433Y-70411649D01*
X78671112Y-70408282D01*
X78807218Y-70048088D01*
X78813977Y-70022688D01*
X78905258Y-69679625D01*
X78906227Y-69675984D01*
X78961016Y-69333927D01*
X78966530Y-69299501D01*
X78966530Y-69299498D01*
X78967126Y-69295779D01*
X78989291Y-68911366D01*
X78989384Y-68884800D01*
X78969903Y-68500242D01*
X78963995Y-68461629D01*
X78945560Y-68341160D01*
X78911660Y-68119621D01*
X78909258Y-68110331D01*
X78816196Y-67750488D01*
X78816194Y-67750483D01*
X78815251Y-67746835D01*
X78809257Y-67730629D01*
X78682974Y-67389245D01*
X78681663Y-67385700D01*
X78512264Y-67039913D01*
X78399371Y-66858543D01*
X102430044Y-66858543D01*
X102444796Y-67210519D01*
X102498690Y-67558658D01*
X102499780Y-67562671D01*
X102499782Y-67562679D01*
X102533650Y-67687332D01*
X102591056Y-67898619D01*
X102592585Y-67902480D01*
X102592586Y-67902484D01*
X102678557Y-68119621D01*
X102720741Y-68226166D01*
X102886129Y-68537216D01*
X103085159Y-68827891D01*
X103315349Y-69094569D01*
X103318394Y-69097389D01*
X103318402Y-69097397D01*
X103505206Y-69270379D01*
X103573832Y-69333927D01*
X103857384Y-69542980D01*
X103860985Y-69545059D01*
X103860988Y-69545061D01*
X104158872Y-69717044D01*
X104158878Y-69717047D01*
X104162472Y-69719122D01*
X104485293Y-69860160D01*
X104489257Y-69861387D01*
X104489265Y-69861390D01*
X104702086Y-69927268D01*
X104821824Y-69964333D01*
X104825896Y-69965110D01*
X104825901Y-69965111D01*
X105163790Y-70029567D01*
X105163795Y-70029568D01*
X105167870Y-70030345D01*
X105172007Y-70030663D01*
X105172012Y-70030664D01*
X105343493Y-70043858D01*
X105519117Y-70057372D01*
X105523270Y-70057227D01*
X105523272Y-70057227D01*
X105683827Y-70051620D01*
X105871188Y-70045077D01*
X106047510Y-70019040D01*
X106215572Y-69994223D01*
X106215577Y-69994222D01*
X106219694Y-69993614D01*
X106407091Y-69944102D01*
X106556274Y-69904687D01*
X106556281Y-69904685D01*
X106560292Y-69903625D01*
X106669181Y-69861390D01*
X106884861Y-69777733D01*
X106888736Y-69776230D01*
X106929366Y-69754989D01*
X107197240Y-69614948D01*
X107197245Y-69614945D01*
X107200933Y-69613017D01*
X107492991Y-69416021D01*
X107761270Y-69187698D01*
X108002426Y-68930893D01*
X108015519Y-68913392D01*
X108046845Y-68871517D01*
X132110039Y-68871517D01*
X132110216Y-68875271D01*
X132110216Y-68875277D01*
X132112839Y-68930893D01*
X132128178Y-69256140D01*
X132185092Y-69636962D01*
X132186022Y-69640612D01*
X132186023Y-69640615D01*
X132275730Y-69992549D01*
X132280199Y-70010083D01*
X132412526Y-70371682D01*
X132414174Y-70375076D01*
X132414177Y-70375083D01*
X132430298Y-70408282D01*
X132580717Y-70718058D01*
X132582699Y-70721267D01*
X132582700Y-70721269D01*
X132767363Y-71020264D01*
X132783050Y-71045664D01*
X133017454Y-71351145D01*
X133020033Y-71353882D01*
X133020040Y-71353890D01*
X133196846Y-71541512D01*
X133281529Y-71631375D01*
X133284390Y-71633853D01*
X133569713Y-71881008D01*
X133569719Y-71881013D01*
X133572572Y-71883484D01*
X133575664Y-71885657D01*
X133884514Y-72102721D01*
X133884522Y-72102726D01*
X133887601Y-72104890D01*
X133890889Y-72106735D01*
X133890892Y-72106737D01*
X134220098Y-72291479D01*
X134220106Y-72291483D01*
X134223392Y-72293327D01*
X134576507Y-72446866D01*
X134943331Y-72563934D01*
X134947020Y-72564711D01*
X134947026Y-72564713D01*
X135228180Y-72623961D01*
X135320107Y-72643333D01*
X135323856Y-72643734D01*
X135323858Y-72643734D01*
X135699233Y-72683851D01*
X135699238Y-72683851D01*
X135702978Y-72684251D01*
X135706735Y-72684271D01*
X135706741Y-72684271D01*
X135926372Y-72685421D01*
X136088024Y-72686267D01*
X136091780Y-72685905D01*
X136091787Y-72685905D01*
X136467554Y-72649722D01*
X136467556Y-72649722D01*
X136471302Y-72649361D01*
X136549806Y-72633675D01*
X136845197Y-72574650D01*
X136845202Y-72574649D01*
X136848889Y-72573912D01*
X137064303Y-72507642D01*
X137213317Y-72461799D01*
X137213320Y-72461798D01*
X137216918Y-72460691D01*
X137571621Y-72310859D01*
X137909368Y-72125948D01*
X138226698Y-71907853D01*
X138282822Y-71860257D01*
X138517495Y-71661240D01*
X138517496Y-71661239D01*
X138520365Y-71658806D01*
X138544808Y-71633406D01*
X138784744Y-71384076D01*
X138784749Y-71384070D01*
X138787360Y-71381357D01*
X139024950Y-71078346D01*
X139230703Y-70752877D01*
X139249758Y-70714660D01*
X139400833Y-70411649D01*
X139402512Y-70408282D01*
X139538618Y-70048088D01*
X139545377Y-70022688D01*
X139636658Y-69679625D01*
X139637627Y-69675984D01*
X139692416Y-69333927D01*
X139697930Y-69299501D01*
X139697930Y-69299498D01*
X139698526Y-69295779D01*
X139720691Y-68911366D01*
X139720784Y-68884800D01*
X139701303Y-68500242D01*
X139695395Y-68461629D01*
X139676960Y-68341160D01*
X139643060Y-68119621D01*
X139640658Y-68110331D01*
X139547596Y-67750488D01*
X139547594Y-67750483D01*
X139546651Y-67746835D01*
X139540657Y-67730629D01*
X139414374Y-67389245D01*
X139413063Y-67385700D01*
X139243664Y-67039913D01*
X139130771Y-66858543D01*
X162430044Y-66858543D01*
X162444796Y-67210519D01*
X162498690Y-67558658D01*
X162499780Y-67562671D01*
X162499782Y-67562679D01*
X162533650Y-67687332D01*
X162591056Y-67898619D01*
X162592585Y-67902480D01*
X162592586Y-67902484D01*
X162678557Y-68119621D01*
X162720741Y-68226166D01*
X162886129Y-68537216D01*
X163085159Y-68827891D01*
X163315349Y-69094569D01*
X163318394Y-69097389D01*
X163318402Y-69097397D01*
X163505206Y-69270379D01*
X163573832Y-69333927D01*
X163857384Y-69542980D01*
X163860985Y-69545059D01*
X163860988Y-69545061D01*
X164158872Y-69717044D01*
X164158878Y-69717047D01*
X164162472Y-69719122D01*
X164485293Y-69860160D01*
X164489257Y-69861387D01*
X164489265Y-69861390D01*
X164702086Y-69927268D01*
X164821824Y-69964333D01*
X164825896Y-69965110D01*
X164825901Y-69965111D01*
X165163790Y-70029567D01*
X165163795Y-70029568D01*
X165167870Y-70030345D01*
X165172007Y-70030663D01*
X165172012Y-70030664D01*
X165343493Y-70043858D01*
X165519117Y-70057372D01*
X165523270Y-70057227D01*
X165523272Y-70057227D01*
X165683827Y-70051620D01*
X165871188Y-70045077D01*
X166047510Y-70019040D01*
X166215572Y-69994223D01*
X166215577Y-69994222D01*
X166219694Y-69993614D01*
X166407091Y-69944102D01*
X166556274Y-69904687D01*
X166556281Y-69904685D01*
X166560292Y-69903625D01*
X166669181Y-69861390D01*
X166884861Y-69777733D01*
X166888736Y-69776230D01*
X166929366Y-69754989D01*
X167197240Y-69614948D01*
X167197245Y-69614945D01*
X167200933Y-69613017D01*
X167492991Y-69416021D01*
X167761270Y-69187698D01*
X168002426Y-68930893D01*
X168015519Y-68913392D01*
X168065847Y-68846117D01*
X192892239Y-68846117D01*
X192892416Y-68849871D01*
X192892416Y-68849877D01*
X192896237Y-68930893D01*
X192910378Y-69230740D01*
X192967292Y-69611562D01*
X192968222Y-69615212D01*
X192968223Y-69615215D01*
X192995133Y-69720787D01*
X193062399Y-69984683D01*
X193194726Y-70346282D01*
X193196374Y-70349676D01*
X193196377Y-70349683D01*
X193226466Y-70411649D01*
X193362917Y-70692658D01*
X193364899Y-70695867D01*
X193364900Y-70695869D01*
X193386391Y-70730665D01*
X193565250Y-71020264D01*
X193799654Y-71325745D01*
X193802233Y-71328482D01*
X193802240Y-71328490D01*
X193854622Y-71384076D01*
X194063729Y-71605975D01*
X194098206Y-71635840D01*
X194351913Y-71855608D01*
X194351919Y-71855613D01*
X194354772Y-71858084D01*
X194357864Y-71860257D01*
X194666714Y-72077321D01*
X194666722Y-72077326D01*
X194669801Y-72079490D01*
X194673089Y-72081335D01*
X194673092Y-72081337D01*
X195002298Y-72266079D01*
X195002306Y-72266083D01*
X195005592Y-72267927D01*
X195358707Y-72421466D01*
X195725531Y-72538534D01*
X195729220Y-72539311D01*
X195729226Y-72539313D01*
X196070029Y-72611131D01*
X196102307Y-72617933D01*
X196106056Y-72618334D01*
X196106058Y-72618334D01*
X196481433Y-72658451D01*
X196481438Y-72658451D01*
X196485178Y-72658851D01*
X196488935Y-72658871D01*
X196488941Y-72658871D01*
X196708572Y-72660021D01*
X196870224Y-72660867D01*
X196873980Y-72660505D01*
X196873987Y-72660505D01*
X197249754Y-72624322D01*
X197249756Y-72624322D01*
X197253502Y-72623961D01*
X197500281Y-72574650D01*
X197627397Y-72549250D01*
X197627402Y-72549249D01*
X197631089Y-72548512D01*
X197912953Y-72461799D01*
X197995517Y-72436399D01*
X197995520Y-72436398D01*
X197999118Y-72435291D01*
X198353821Y-72285459D01*
X198691568Y-72100548D01*
X199008898Y-71882453D01*
X199302565Y-71633406D01*
X199326578Y-71608453D01*
X199566944Y-71358676D01*
X199566949Y-71358670D01*
X199569560Y-71355957D01*
X199807150Y-71052946D01*
X199922390Y-70870655D01*
X200010888Y-70730665D01*
X200010891Y-70730660D01*
X200012903Y-70727477D01*
X200019294Y-70714660D01*
X200183033Y-70386249D01*
X200184712Y-70382882D01*
X200320818Y-70022688D01*
X200323229Y-70013629D01*
X200412100Y-69679625D01*
X200419827Y-69650584D01*
X200470999Y-69331107D01*
X200480130Y-69274101D01*
X200480130Y-69274098D01*
X200480726Y-69270379D01*
X200502891Y-68885966D01*
X200502984Y-68859400D01*
X200483503Y-68474842D01*
X200425260Y-68094221D01*
X200422858Y-68084931D01*
X200329796Y-67725088D01*
X200329794Y-67725083D01*
X200328851Y-67721435D01*
X200322857Y-67705229D01*
X200205970Y-67389245D01*
X200195263Y-67360300D01*
X200039969Y-67043305D01*
X200027526Y-67017905D01*
X200027524Y-67017901D01*
X200025864Y-67014513D01*
X199822388Y-66687616D01*
X199608862Y-66411345D01*
X199589231Y-66385945D01*
X199589228Y-66385941D01*
X199586919Y-66382954D01*
X199412842Y-66199515D01*
X199324461Y-66106381D01*
X199324456Y-66106376D01*
X199321867Y-66103648D01*
X199029947Y-65852557D01*
X199026865Y-65850407D01*
X199026856Y-65850400D01*
X198743572Y-65652779D01*
X198714146Y-65632251D01*
X198469247Y-65495942D01*
X198380998Y-65446823D01*
X198380995Y-65446821D01*
X198377699Y-65444987D01*
X198024050Y-65292682D01*
X197656821Y-65176895D01*
X197497943Y-65143993D01*
X197283461Y-65099576D01*
X197283454Y-65099575D01*
X197279770Y-65098812D01*
X197276028Y-65098425D01*
X197276026Y-65098425D01*
X197215778Y-65092199D01*
X196896758Y-65059231D01*
X196892995Y-65059224D01*
X196892987Y-65059224D01*
X196704233Y-65058895D01*
X196511708Y-65058559D01*
X196507952Y-65058934D01*
X196507950Y-65058934D01*
X196250569Y-65084624D01*
X196128561Y-65096802D01*
X195751239Y-65173569D01*
X195747653Y-65174686D01*
X195747645Y-65174688D01*
X195579516Y-65227055D01*
X195383608Y-65288074D01*
X195320579Y-65314958D01*
X195032898Y-65437664D01*
X195032892Y-65437667D01*
X195029429Y-65439144D01*
X194692331Y-65625232D01*
X194689233Y-65627377D01*
X194689230Y-65627379D01*
X194645512Y-65657651D01*
X194375763Y-65844434D01*
X194372907Y-65846873D01*
X194372906Y-65846874D01*
X194304377Y-65905403D01*
X194082968Y-66094504D01*
X194080361Y-66097232D01*
X194080360Y-66097233D01*
X193819550Y-66370155D01*
X193819542Y-66370165D01*
X193816943Y-66372884D01*
X193580412Y-66676721D01*
X193578410Y-66679912D01*
X193578404Y-66679921D01*
X193468966Y-66854381D01*
X193375796Y-67002907D01*
X193205191Y-67348100D01*
X193203868Y-67351638D01*
X193203866Y-67351643D01*
X193078357Y-67687332D01*
X193070343Y-67708766D01*
X193069388Y-67712408D01*
X193069385Y-67712416D01*
X193014511Y-67921587D01*
X192972634Y-68081214D01*
X192913062Y-68461629D01*
X192892239Y-68846117D01*
X168065847Y-68846117D01*
X168210960Y-68652139D01*
X168213453Y-68648807D01*
X168278923Y-68537216D01*
X168389621Y-68348536D01*
X168389624Y-68348531D01*
X168391721Y-68344956D01*
X168535009Y-68023127D01*
X168575781Y-67894599D01*
X168640266Y-67691313D01*
X168641529Y-67687332D01*
X168703670Y-67373500D01*
X168709146Y-67345844D01*
X168709147Y-67345836D01*
X168709955Y-67341756D01*
X168720630Y-67214631D01*
X168739216Y-66993306D01*
X168739216Y-66993297D01*
X168739434Y-66990706D01*
X168740664Y-66902600D01*
X168730065Y-66713016D01*
X168721232Y-66555025D01*
X168721231Y-66555019D01*
X168720999Y-66550864D01*
X168662249Y-66203512D01*
X168630992Y-66094504D01*
X168566296Y-65868883D01*
X168566295Y-65868881D01*
X168565146Y-65864873D01*
X168563559Y-65861023D01*
X168563556Y-65861014D01*
X168432487Y-65543019D01*
X168432486Y-65543017D01*
X168430900Y-65539169D01*
X168393087Y-65470387D01*
X168263191Y-65234107D01*
X168263187Y-65234100D01*
X168261185Y-65230459D01*
X168242120Y-65203432D01*
X168060515Y-64945991D01*
X168060510Y-64945985D01*
X168058116Y-64942591D01*
X167824225Y-64679152D01*
X167562426Y-64443427D01*
X167528025Y-64418798D01*
X167398758Y-64326253D01*
X167275982Y-64238354D01*
X166968464Y-64066488D01*
X166919464Y-64045890D01*
X166647535Y-63931582D01*
X166643705Y-63929972D01*
X166639727Y-63928801D01*
X166639718Y-63928798D01*
X166309739Y-63831680D01*
X166309737Y-63831679D01*
X166305753Y-63830507D01*
X165958819Y-63769333D01*
X165954678Y-63769072D01*
X165954674Y-63769072D01*
X165714576Y-63753967D01*
X165607229Y-63747213D01*
X165603078Y-63747416D01*
X165603077Y-63747416D01*
X165259532Y-63764218D01*
X165259529Y-63764218D01*
X165255364Y-63764422D01*
X164978780Y-63809219D01*
X164911715Y-63820081D01*
X164911713Y-63820082D01*
X164907610Y-63820746D01*
X164903609Y-63821863D01*
X164903605Y-63821864D01*
X164572315Y-63914361D01*
X164572306Y-63914364D01*
X164568302Y-63915482D01*
X164436680Y-63968661D01*
X164245532Y-64045890D01*
X164245528Y-64045892D01*
X164241669Y-64047451D01*
X164238007Y-64049431D01*
X164202703Y-64068520D01*
X163931781Y-64215006D01*
X163642502Y-64416060D01*
X163639378Y-64418795D01*
X163639374Y-64418798D01*
X163513436Y-64529049D01*
X163377438Y-64648107D01*
X163139891Y-64908254D01*
X163137441Y-64911626D01*
X163137437Y-64911631D01*
X162946315Y-65174688D01*
X162932822Y-65193259D01*
X162758814Y-65499570D01*
X162757169Y-65503408D01*
X162626774Y-65807643D01*
X162620034Y-65823368D01*
X162603553Y-65877957D01*
X162527744Y-66129048D01*
X162518212Y-66160618D01*
X162454618Y-66507115D01*
X162430044Y-66858543D01*
X139130771Y-66858543D01*
X139040188Y-66713016D01*
X138804719Y-66408354D01*
X138654156Y-66249694D01*
X138542261Y-66131781D01*
X138542256Y-66131776D01*
X138539667Y-66129048D01*
X138247747Y-65877957D01*
X138244665Y-65875807D01*
X138244656Y-65875800D01*
X138004445Y-65708227D01*
X137931946Y-65657651D01*
X137719076Y-65539169D01*
X137598798Y-65472223D01*
X137598795Y-65472221D01*
X137595499Y-65470387D01*
X137241850Y-65318082D01*
X136874621Y-65202295D01*
X136715743Y-65169393D01*
X136501261Y-65124976D01*
X136501254Y-65124975D01*
X136497570Y-65124212D01*
X136493828Y-65123825D01*
X136493826Y-65123825D01*
X136433578Y-65117599D01*
X136114558Y-65084631D01*
X136110795Y-65084624D01*
X136110787Y-65084624D01*
X135922033Y-65084295D01*
X135729508Y-65083959D01*
X135725752Y-65084334D01*
X135725750Y-65084334D01*
X135573045Y-65099576D01*
X135346361Y-65122202D01*
X134969039Y-65198969D01*
X134965453Y-65200086D01*
X134965445Y-65200088D01*
X134678193Y-65289558D01*
X134601408Y-65313474D01*
X134597929Y-65314958D01*
X134250698Y-65463064D01*
X134250692Y-65463067D01*
X134247229Y-65464544D01*
X133910131Y-65650632D01*
X133907033Y-65652777D01*
X133907030Y-65652779D01*
X133840674Y-65698726D01*
X133593563Y-65869834D01*
X133590707Y-65872273D01*
X133590706Y-65872274D01*
X133584052Y-65877957D01*
X133300768Y-66119904D01*
X133298161Y-66122632D01*
X133298160Y-66122633D01*
X133037350Y-66395555D01*
X133037342Y-66395565D01*
X133034743Y-66398284D01*
X132798212Y-66702121D01*
X132796210Y-66705312D01*
X132796204Y-66705321D01*
X132700089Y-66858543D01*
X132593596Y-67028307D01*
X132587860Y-67039913D01*
X132427763Y-67363845D01*
X132422991Y-67373500D01*
X132421668Y-67377038D01*
X132421666Y-67377043D01*
X132297640Y-67708766D01*
X132288143Y-67734166D01*
X132287188Y-67737808D01*
X132287185Y-67737816D01*
X132245000Y-67898619D01*
X132190434Y-68106614D01*
X132189852Y-68110331D01*
X132134840Y-68461629D01*
X132130862Y-68487029D01*
X132110039Y-68871517D01*
X108046845Y-68871517D01*
X108210960Y-68652139D01*
X108213453Y-68648807D01*
X108278923Y-68537216D01*
X108389621Y-68348536D01*
X108389624Y-68348531D01*
X108391721Y-68344956D01*
X108535009Y-68023127D01*
X108575781Y-67894599D01*
X108640266Y-67691313D01*
X108641529Y-67687332D01*
X108703670Y-67373500D01*
X108709146Y-67345844D01*
X108709147Y-67345836D01*
X108709955Y-67341756D01*
X108720630Y-67214631D01*
X108739216Y-66993306D01*
X108739216Y-66993297D01*
X108739434Y-66990706D01*
X108740664Y-66902600D01*
X108730065Y-66713016D01*
X108721232Y-66555025D01*
X108721231Y-66555019D01*
X108720999Y-66550864D01*
X108662249Y-66203512D01*
X108630992Y-66094504D01*
X108566296Y-65868883D01*
X108566295Y-65868881D01*
X108565146Y-65864873D01*
X108563559Y-65861023D01*
X108563556Y-65861014D01*
X108432487Y-65543019D01*
X108432486Y-65543017D01*
X108430900Y-65539169D01*
X108393087Y-65470387D01*
X108263191Y-65234107D01*
X108263187Y-65234100D01*
X108261185Y-65230459D01*
X108242120Y-65203432D01*
X108060515Y-64945991D01*
X108060510Y-64945985D01*
X108058116Y-64942591D01*
X107824225Y-64679152D01*
X107562426Y-64443427D01*
X107528025Y-64418798D01*
X107398758Y-64326253D01*
X107275982Y-64238354D01*
X106968464Y-64066488D01*
X106919464Y-64045890D01*
X106647535Y-63931582D01*
X106643705Y-63929972D01*
X106639727Y-63928801D01*
X106639718Y-63928798D01*
X106309739Y-63831680D01*
X106309737Y-63831679D01*
X106305753Y-63830507D01*
X105958819Y-63769333D01*
X105954678Y-63769072D01*
X105954674Y-63769072D01*
X105714576Y-63753967D01*
X105607229Y-63747213D01*
X105603078Y-63747416D01*
X105603077Y-63747416D01*
X105259532Y-63764218D01*
X105259529Y-63764218D01*
X105255364Y-63764422D01*
X104978780Y-63809219D01*
X104911715Y-63820081D01*
X104911713Y-63820082D01*
X104907610Y-63820746D01*
X104903609Y-63821863D01*
X104903605Y-63821864D01*
X104572315Y-63914361D01*
X104572306Y-63914364D01*
X104568302Y-63915482D01*
X104436680Y-63968661D01*
X104245532Y-64045890D01*
X104245528Y-64045892D01*
X104241669Y-64047451D01*
X104238007Y-64049431D01*
X104202703Y-64068520D01*
X103931781Y-64215006D01*
X103642502Y-64416060D01*
X103639378Y-64418795D01*
X103639374Y-64418798D01*
X103513436Y-64529049D01*
X103377438Y-64648107D01*
X103139891Y-64908254D01*
X103137441Y-64911626D01*
X103137437Y-64911631D01*
X102946315Y-65174688D01*
X102932822Y-65193259D01*
X102758814Y-65499570D01*
X102757169Y-65503408D01*
X102626774Y-65807643D01*
X102620034Y-65823368D01*
X102603553Y-65877957D01*
X102527744Y-66129048D01*
X102518212Y-66160618D01*
X102454618Y-66507115D01*
X102430044Y-66858543D01*
X78399371Y-66858543D01*
X78308788Y-66713016D01*
X78073319Y-66408354D01*
X77922756Y-66249694D01*
X77810861Y-66131781D01*
X77810856Y-66131776D01*
X77808267Y-66129048D01*
X77516347Y-65877957D01*
X77513265Y-65875807D01*
X77513256Y-65875800D01*
X77273045Y-65708227D01*
X77200546Y-65657651D01*
X76987676Y-65539169D01*
X76867398Y-65472223D01*
X76867395Y-65472221D01*
X76864099Y-65470387D01*
X76510450Y-65318082D01*
X76143221Y-65202295D01*
X75984343Y-65169393D01*
X75769861Y-65124976D01*
X75769854Y-65124975D01*
X75766170Y-65124212D01*
X75762428Y-65123825D01*
X75762426Y-65123825D01*
X75702178Y-65117599D01*
X75383158Y-65084631D01*
X75379395Y-65084624D01*
X75379387Y-65084624D01*
X75190633Y-65084295D01*
X74998108Y-65083959D01*
X74994352Y-65084334D01*
X74994350Y-65084334D01*
X74841645Y-65099576D01*
X74614961Y-65122202D01*
X74237639Y-65198969D01*
X74234053Y-65200086D01*
X74234045Y-65200088D01*
X73946793Y-65289558D01*
X73870008Y-65313474D01*
X73866529Y-65314958D01*
X73519298Y-65463064D01*
X73519292Y-65463067D01*
X73515829Y-65464544D01*
X73178731Y-65650632D01*
X73175633Y-65652777D01*
X73175630Y-65652779D01*
X73109274Y-65698726D01*
X72862163Y-65869834D01*
X72859307Y-65872273D01*
X72859306Y-65872274D01*
X72852652Y-65877957D01*
X72569368Y-66119904D01*
X72566761Y-66122632D01*
X72566760Y-66122633D01*
X72305950Y-66395555D01*
X72305942Y-66395565D01*
X72303343Y-66398284D01*
X72066812Y-66702121D01*
X72064810Y-66705312D01*
X72064804Y-66705321D01*
X71968689Y-66858543D01*
X71862196Y-67028307D01*
X71856460Y-67039913D01*
X71696363Y-67363845D01*
X71691591Y-67373500D01*
X71690268Y-67377038D01*
X71690266Y-67377043D01*
X71566240Y-67708766D01*
X71556743Y-67734166D01*
X71555788Y-67737808D01*
X71555785Y-67737816D01*
X71513600Y-67898619D01*
X71459034Y-68106614D01*
X71458452Y-68110331D01*
X71403440Y-68461629D01*
X71399462Y-68487029D01*
X71378639Y-68871517D01*
X70886300Y-68871517D01*
X70886300Y-65920021D01*
X70897262Y-65863928D01*
X71087832Y-65394955D01*
X71091327Y-65387024D01*
X71344693Y-64854586D01*
X71348643Y-64846871D01*
X71632546Y-64330056D01*
X71636938Y-64322584D01*
X71808384Y-64049431D01*
X71950414Y-63823144D01*
X71955227Y-63815949D01*
X72297225Y-63335565D01*
X72302429Y-63328688D01*
X72671775Y-62869006D01*
X72677391Y-62862419D01*
X72727441Y-62807057D01*
X73072832Y-62425002D01*
X73078828Y-62418746D01*
X73499017Y-62005077D01*
X73505368Y-61999178D01*
X73948905Y-61610636D01*
X73955587Y-61605117D01*
X74420981Y-61243008D01*
X74427974Y-61237887D01*
X74913612Y-60903468D01*
X74920890Y-60898762D01*
X75052037Y-60819278D01*
X75425172Y-60593133D01*
X75432696Y-60588867D01*
X75953899Y-60313074D01*
X75961674Y-60309246D01*
X76498005Y-60064238D01*
X76505990Y-60060867D01*
X76688558Y-59989985D01*
X77055702Y-59847442D01*
X77063833Y-59844554D01*
X77471369Y-59713039D01*
X77625001Y-59663461D01*
X77633323Y-59661040D01*
X78204064Y-59512883D01*
X78212513Y-59510950D01*
X78790918Y-59396226D01*
X78799454Y-59394790D01*
X79383536Y-59313894D01*
X79392142Y-59312957D01*
X79579360Y-59298051D01*
X79979951Y-59266158D01*
X79988607Y-59265722D01*
X80545235Y-59253880D01*
X80567906Y-59255511D01*
X80570864Y-59255534D01*
X80582425Y-59257458D01*
X80600387Y-59254757D01*
X80622543Y-59253100D01*
X190554034Y-59253100D01*
X190572554Y-59254255D01*
X190585087Y-59255825D01*
X190585088Y-59255825D01*
X190596719Y-59257282D01*
X190608231Y-59255073D01*
X190611195Y-59254977D01*
X190633802Y-59252789D01*
X190701323Y-59252561D01*
X191214665Y-59250829D01*
X191223329Y-59251052D01*
G37*
%TD.AperFunction*%
M02*
